<?xml version="1.0" standalone="no"?><!DOCTYPE svg PUBLIC "-//W3C//DTD SVG 1.1//EN" "http://www.w3.org/Graphics/SVG/1.1/DTD/svg11.dtd"><svg xmlns="http://www.w3.org/2000/svg" version="1.1" width="462.3px" height="37.6px" viewBox="0 -7 462.3 37.6" style="top:-7px">  <desc>For Learners Ready to Go Further</desc>  <defs/>  <g id="Polygon6634">    <path d="M 56.1 16 L 56.1 0.3 L 66.9 0.3 L 66.9 2.9 L 59.3 2.9 L 59.3 6.7 L 65.9 6.7 L 65.9 9.3 L 59.3 9.3 L 59.3 16 L 56.1 16 Z M 68.8 10.2 C 68.8 9.1 69.1 8.2 69.6 7.2 C 70.1 6.3 70.8 5.6 71.7 5.1 C 72.6 4.6 73.6 4.4 74.7 4.4 C 76.4 4.4 77.8 4.9 78.9 6 C 80 7.2 80.6 8.6 80.6 10.3 C 80.6 12 80 13.4 78.9 14.6 C 77.8 15.7 76.4 16.3 74.7 16.3 C 73.7 16.3 72.7 16 71.7 15.6 C 70.8 15.1 70.1 14.4 69.6 13.5 C 69.1 12.6 68.8 11.5 68.8 10.2 Z M 71.9 10.3 C 71.9 11.4 72.2 12.3 72.7 12.9 C 73.3 13.5 73.9 13.8 74.7 13.8 C 75.5 13.8 76.2 13.5 76.7 12.9 C 77.2 12.3 77.5 11.4 77.5 10.3 C 77.5 9.2 77.2 8.3 76.7 7.7 C 76.2 7.1 75.5 6.8 74.7 6.8 C 73.9 6.8 73.3 7.1 72.7 7.7 C 72.2 8.3 71.9 9.2 71.9 10.3 Z M 85.8 16 L 82.8 16 L 82.8 4.6 L 85.6 4.6 C 85.6 4.6 85.63 6.23 85.6 6.2 C 86.1 5.5 86.5 5 86.9 4.7 C 87.3 4.5 87.7 4.4 88.2 4.4 C 88.9 4.4 89.6 4.5 90.2 4.9 C 90.2 4.9 89.3 7.6 89.3 7.6 C 88.8 7.2 88.3 7.1 87.9 7.1 C 87.4 7.1 87.1 7.2 86.8 7.4 C 86.5 7.6 86.3 8.1 86.1 8.7 C 85.9 9.3 85.8 10.6 85.8 12.5 C 85.84 12.49 85.8 16 85.8 16 Z M 97.7 16 L 97.7 0.4 L 100.9 0.4 L 100.9 13.4 L 108.8 13.4 L 108.8 16 L 97.7 16 Z M 117.7 12.4 C 117.7 12.4 120.7 12.9 120.7 12.9 C 120.3 14 119.7 14.8 118.8 15.4 C 118 16 117 16.3 115.7 16.3 C 113.7 16.3 112.3 15.6 111.3 14.3 C 110.6 13.3 110.2 12 110.2 10.4 C 110.2 8.5 110.7 7 111.7 6 C 112.7 4.9 113.9 4.4 115.4 4.4 C 117.1 4.4 118.5 4.9 119.4 6 C 120.4 7.2 120.9 8.9 120.8 11.2 C 120.8 11.2 113.3 11.2 113.3 11.2 C 113.3 12.1 113.5 12.8 114 13.3 C 114.5 13.8 115.1 14 115.7 14 C 116.2 14 116.6 13.9 116.9 13.6 C 117.3 13.4 117.5 13 117.7 12.4 Z M 117.8 9.3 C 117.8 8.5 117.6 7.8 117.2 7.3 C 116.7 6.9 116.2 6.7 115.6 6.7 C 114.9 6.7 114.4 6.9 114 7.4 C 113.5 7.9 113.3 8.5 113.3 9.3 C 113.3 9.3 117.8 9.3 117.8 9.3 Z M 125.6 8.1 C 125.6 8.1 122.8 7.6 122.8 7.6 C 123.1 6.5 123.7 5.7 124.4 5.1 C 125.2 4.6 126.3 4.4 127.8 4.4 C 129.1 4.4 130.1 4.5 130.8 4.8 C 131.4 5.1 131.9 5.6 132.2 6 C 132.4 6.5 132.6 7.4 132.6 8.7 C 132.6 8.7 132.5 12.3 132.5 12.3 C 132.5 13.3 132.6 14 132.7 14.5 C 132.8 15 133 15.5 133.2 16 C 133.2 16 130.2 16 130.2 16 C 130.2 15.8 130.1 15.5 129.9 15.1 C 129.9 14.9 129.9 14.8 129.8 14.8 C 129.3 15.3 128.8 15.6 128.2 15.9 C 127.6 16.1 127 16.3 126.3 16.3 C 125.1 16.3 124.2 16 123.5 15.3 C 122.8 14.7 122.5 13.9 122.5 12.9 C 122.5 12.3 122.7 11.7 123 11.2 C 123.3 10.7 123.7 10.3 124.3 10 C 124.8 9.7 125.6 9.5 126.7 9.3 C 128.1 9 129.1 8.8 129.6 8.6 C 129.6 8.6 129.6 8.3 129.6 8.3 C 129.6 7.7 129.5 7.3 129.2 7 C 128.9 6.8 128.3 6.7 127.5 6.7 C 127 6.7 126.6 6.8 126.3 7 C 126 7.2 125.7 7.6 125.6 8.1 Z M 129.6 10.5 C 129.2 10.7 128.6 10.8 127.8 11 C 126.9 11.2 126.4 11.4 126.1 11.5 C 125.7 11.8 125.5 12.2 125.5 12.6 C 125.5 13 125.7 13.4 126 13.7 C 126.3 14 126.7 14.1 127.2 14.1 C 127.7 14.1 128.3 14 128.8 13.6 C 129.1 13.3 129.4 13 129.5 12.6 C 129.6 12.4 129.6 11.9 129.6 11.1 C 129.6 11.1 129.6 10.5 129.6 10.5 Z M 138.4 16 L 135.4 16 L 135.4 4.6 L 138.2 4.6 C 138.2 4.6 138.21 6.23 138.2 6.2 C 138.7 5.5 139.1 5 139.5 4.7 C 139.9 4.5 140.3 4.4 140.8 4.4 C 141.5 4.4 142.2 4.5 142.8 4.9 C 142.8 4.9 141.9 7.6 141.9 7.6 C 141.4 7.2 140.9 7.1 140.4 7.1 C 140 7.1 139.7 7.2 139.4 7.4 C 139.1 7.6 138.8 8.1 138.7 8.7 C 138.5 9.3 138.4 10.6 138.4 12.5 C 138.43 12.49 138.4 16 138.4 16 Z M 154.5 16 L 151.5 16 C 151.5 16 151.46 10.19 151.5 10.2 C 151.5 9 151.4 8.2 151.3 7.8 C 151.1 7.4 150.9 7.2 150.6 7 C 150.3 6.8 150 6.7 149.6 6.7 C 149.1 6.7 148.6 6.8 148.2 7.1 C 147.8 7.4 147.5 7.8 147.3 8.2 C 147.2 8.7 147.1 9.6 147.1 10.8 C 147.09 10.85 147.1 16 147.1 16 L 144.1 16 L 144.1 4.6 L 146.9 4.6 C 146.9 4.6 146.88 6.28 146.9 6.3 C 147.9 5 149.1 4.4 150.6 4.4 C 151.3 4.4 151.9 4.5 152.5 4.7 C 153 5 153.4 5.3 153.7 5.6 C 154 6 154.2 6.4 154.3 6.9 C 154.4 7.4 154.5 8 154.5 8.9 C 154.47 8.93 154.5 16 154.5 16 Z M 164.1 12.4 C 164.1 12.4 167.2 12.9 167.2 12.9 C 166.8 14 166.2 14.8 165.3 15.4 C 164.5 16 163.4 16.3 162.2 16.3 C 160.2 16.3 158.7 15.6 157.8 14.3 C 157 13.3 156.7 12 156.7 10.4 C 156.7 8.5 157.1 7 158.1 6 C 159.1 4.9 160.4 4.4 161.9 4.4 C 163.6 4.4 164.9 4.9 165.9 6 C 166.9 7.2 167.4 8.9 167.3 11.2 C 167.3 11.2 159.7 11.2 159.7 11.2 C 159.8 12.1 160 12.8 160.5 13.3 C 160.9 13.8 161.5 14 162.2 14 C 162.7 14 163.1 13.9 163.4 13.6 C 163.7 13.4 164 13 164.1 12.4 Z M 164.3 9.3 C 164.3 8.5 164.1 7.8 163.6 7.3 C 163.2 6.9 162.7 6.7 162.1 6.7 C 161.4 6.7 160.9 6.9 160.4 7.4 C 160 7.9 159.8 8.5 159.8 9.3 C 159.8 9.3 164.3 9.3 164.3 9.3 Z M 172.7 16 L 169.6 16 L 169.6 4.6 L 172.4 4.6 C 172.4 4.6 172.45 6.23 172.4 6.2 C 172.9 5.5 173.4 5 173.7 4.7 C 174.1 4.5 174.6 4.4 175 4.4 C 175.7 4.4 176.4 4.5 177 4.9 C 177 4.9 176.1 7.6 176.1 7.6 C 175.6 7.2 175.1 7.1 174.7 7.1 C 174.3 7.1 173.9 7.2 173.6 7.4 C 173.3 7.6 173.1 8.1 172.9 8.7 C 172.7 9.3 172.7 10.6 172.7 12.5 C 172.66 12.49 172.7 16 172.7 16 Z M 177.3 12.8 C 177.3 12.8 180.3 12.3 180.3 12.3 C 180.4 12.9 180.7 13.3 181.1 13.6 C 181.5 13.9 182 14.1 182.7 14.1 C 183.5 14.1 184.1 14 184.5 13.7 C 184.8 13.5 184.9 13.2 184.9 12.9 C 184.9 12.6 184.8 12.4 184.7 12.3 C 184.5 12.1 184.2 12 183.7 11.9 C 181.2 11.4 179.7 10.9 179 10.4 C 178.1 9.8 177.7 8.9 177.7 7.9 C 177.7 6.9 178.1 6 178.9 5.4 C 179.6 4.7 180.9 4.4 182.5 4.4 C 184.1 4.4 185.2 4.6 186 5.1 C 186.7 5.6 187.3 6.4 187.5 7.4 C 187.5 7.4 184.7 7.9 184.7 7.9 C 184.6 7.5 184.3 7.1 184 6.9 C 183.7 6.6 183.2 6.5 182.5 6.5 C 181.7 6.5 181.2 6.6 180.8 6.9 C 180.6 7 180.5 7.2 180.5 7.5 C 180.5 7.7 180.6 7.9 180.8 8 C 181.1 8.2 182 8.5 183.6 8.9 C 185.2 9.2 186.3 9.7 187 10.2 C 187.6 10.7 187.9 11.5 187.9 12.5 C 187.9 13.5 187.5 14.4 186.6 15.1 C 185.7 15.9 184.4 16.3 182.7 16.3 C 181.2 16.3 180 16 179 15.3 C 178.1 14.7 177.5 13.8 177.3 12.8 Z M 196.7 16 L 196.7 0.3 C 196.7 0.3 203.41 0.27 203.4 0.3 C 205.1 0.3 206.3 0.4 207.1 0.7 C 207.8 1 208.4 1.5 208.9 2.2 C 209.4 2.9 209.6 3.8 209.6 4.7 C 209.6 5.9 209.2 6.8 208.6 7.6 C 207.9 8.4 206.8 8.9 205.4 9.1 C 206.1 9.5 206.7 9.9 207.1 10.4 C 207.6 10.9 208.2 11.7 208.9 12.9 C 208.95 12.94 210.9 16 210.9 16 L 207.1 16 C 207.1 16 204.77 12.59 204.8 12.6 C 204 11.4 203.4 10.6 203.1 10.3 C 202.8 10 202.5 9.7 202.1 9.6 C 201.8 9.5 201.3 9.4 200.5 9.4 C 200.54 9.44 199.9 9.4 199.9 9.4 L 199.9 16 L 196.7 16 Z M 199.9 6.9 C 199.9 6.9 202.25 6.93 202.2 6.9 C 203.8 6.9 204.7 6.9 205.1 6.7 C 205.5 6.6 205.8 6.4 206 6.1 C 206.2 5.8 206.3 5.4 206.3 4.9 C 206.3 4.4 206.2 3.9 205.9 3.6 C 205.6 3.3 205.2 3.1 204.7 3 C 204.4 3 203.7 2.9 202.4 2.9 C 202.37 2.93 199.9 2.9 199.9 2.9 L 199.9 6.9 Z M 219.2 12.4 C 219.2 12.4 222.2 12.9 222.2 12.9 C 221.8 14 221.2 14.8 220.4 15.4 C 219.5 16 218.5 16.3 217.2 16.3 C 215.2 16.3 213.8 15.6 212.8 14.3 C 212.1 13.3 211.7 12 211.7 10.4 C 211.7 8.5 212.2 7 213.2 6 C 214.2 4.9 215.4 4.4 216.9 4.4 C 218.6 4.4 220 4.9 220.9 6 C 221.9 7.2 222.4 8.9 222.3 11.2 C 222.3 11.2 214.8 11.2 214.8 11.2 C 214.8 12.1 215 12.8 215.5 13.3 C 216 13.8 216.6 14 217.3 14 C 217.7 14 218.1 13.9 218.4 13.6 C 218.8 13.4 219 13 219.2 12.4 Z M 219.3 9.3 C 219.3 8.5 219.1 7.8 218.7 7.3 C 218.2 6.9 217.7 6.7 217.1 6.7 C 216.4 6.7 215.9 6.9 215.5 7.4 C 215 7.9 214.8 8.5 214.8 9.3 C 214.8 9.3 219.3 9.3 219.3 9.3 Z M 227.1 8.1 C 227.1 8.1 224.3 7.6 224.3 7.6 C 224.6 6.5 225.2 5.7 225.9 5.1 C 226.7 4.6 227.8 4.4 229.3 4.4 C 230.6 4.4 231.6 4.5 232.3 4.8 C 232.9 5.1 233.4 5.6 233.7 6 C 233.9 6.5 234.1 7.4 234.1 8.7 C 234.1 8.7 234 12.3 234 12.3 C 234 13.3 234.1 14 234.2 14.5 C 234.3 15 234.5 15.5 234.7 16 C 234.7 16 231.7 16 231.7 16 C 231.7 15.8 231.6 15.5 231.4 15.1 C 231.4 14.9 231.4 14.8 231.3 14.8 C 230.8 15.3 230.3 15.6 229.7 15.9 C 229.1 16.1 228.5 16.3 227.8 16.3 C 226.6 16.3 225.7 16 225 15.3 C 224.3 14.7 224 13.9 224 12.9 C 224 12.3 224.2 11.7 224.5 11.2 C 224.8 10.7 225.2 10.3 225.8 10 C 226.3 9.7 227.1 9.5 228.2 9.3 C 229.6 9 230.6 8.8 231.1 8.6 C 231.1 8.6 231.1 8.3 231.1 8.3 C 231.1 7.7 231 7.3 230.7 7 C 230.4 6.8 229.8 6.7 229 6.7 C 228.5 6.7 228.1 6.8 227.8 7 C 227.5 7.2 227.2 7.6 227.1 8.1 Z M 231.1 10.5 C 230.7 10.7 230.1 10.8 229.3 11 C 228.4 11.2 227.9 11.4 227.6 11.5 C 227.2 11.8 227 12.2 227 12.6 C 227 13 227.2 13.4 227.5 13.7 C 227.8 14 228.2 14.1 228.7 14.1 C 229.2 14.1 229.8 14 230.3 13.6 C 230.6 13.3 230.9 13 231 12.6 C 231.1 12.4 231.1 11.9 231.1 11.1 C 231.1 11.1 231.1 10.5 231.1 10.5 Z M 247.5 16 L 244.7 16 C 244.7 16 244.7 14.34 244.7 14.3 C 244.2 15 243.7 15.5 243 15.8 C 242.4 16.1 241.8 16.3 241.1 16.3 C 239.8 16.3 238.7 15.7 237.8 14.7 C 236.8 13.6 236.4 12.2 236.4 10.3 C 236.4 8.3 236.8 6.9 237.7 5.9 C 238.6 4.9 239.8 4.4 241.2 4.4 C 242.4 4.4 243.6 4.9 244.5 5.9 C 244.48 5.94 244.5 0.3 244.5 0.3 L 247.5 0.3 L 247.5 16 Z M 239.4 10.1 C 239.4 11.3 239.6 12.2 240 12.7 C 240.4 13.5 241.1 13.9 242 13.9 C 242.7 13.9 243.3 13.6 243.8 13 C 244.3 12.4 244.5 11.5 244.5 10.4 C 244.5 9 244.3 8.1 243.8 7.5 C 243.3 6.9 242.7 6.7 242 6.7 C 241.3 6.7 240.7 6.9 240.2 7.5 C 239.7 8.1 239.4 8.9 239.4 10.1 Z M 249 4.6 L 252.3 4.6 L 255 12.7 L 257.7 4.6 L 260.8 4.6 L 256.8 15.6 C 256.8 15.6 256.03 17.57 256 17.6 C 255.8 18.2 255.5 18.7 255.3 19.1 C 255 19.5 254.8 19.7 254.4 20 C 254.1 20.2 253.8 20.3 253.3 20.5 C 252.8 20.6 252.3 20.6 251.8 20.6 C 251.2 20.6 250.6 20.6 250 20.5 C 250 20.5 249.8 18.1 249.8 18.1 C 250.3 18.2 250.7 18.2 251.1 18.2 C 251.8 18.2 252.3 18 252.6 17.6 C 253 17.2 253.2 16.7 253.4 16 C 253.39 16.05 249 4.6 249 4.6 Z M 274.1 4.6 L 274.1 7 L 272 7 C 272 7 271.99 11.61 272 11.6 C 272 12.5 272 13.1 272.1 13.2 C 272.1 13.4 272.2 13.5 272.3 13.6 C 272.5 13.7 272.6 13.8 272.8 13.8 C 273.1 13.8 273.5 13.7 274 13.5 C 274 13.5 274.3 15.8 274.3 15.8 C 273.6 16.1 272.8 16.3 271.9 16.3 C 271.4 16.3 270.9 16.2 270.4 16 C 270 15.8 269.7 15.6 269.5 15.3 C 269.3 15 269.1 14.6 269.1 14.1 C 269 13.8 269 13.1 269 12 C 268.96 11.99 269 7 269 7 L 267.6 7 L 267.6 4.6 L 269 4.6 L 269 2.3 L 272 0.6 L 272 4.6 L 274.1 4.6 Z M 275.5 10.2 C 275.5 9.1 275.7 8.2 276.2 7.2 C 276.7 6.3 277.4 5.6 278.3 5.1 C 279.2 4.6 280.2 4.4 281.3 4.4 C 283.1 4.4 284.5 4.9 285.6 6 C 286.7 7.2 287.2 8.6 287.2 10.3 C 287.2 12 286.7 13.4 285.6 14.6 C 284.4 15.7 283 16.3 281.4 16.3 C 280.3 16.3 279.3 16 278.4 15.6 C 277.4 15.1 276.7 14.4 276.2 13.5 C 275.7 12.6 275.5 11.5 275.5 10.2 Z M 278.5 10.3 C 278.5 11.4 278.8 12.3 279.4 12.9 C 279.9 13.5 280.6 13.8 281.3 13.8 C 282.1 13.8 282.8 13.5 283.3 12.9 C 283.9 12.3 284.1 11.4 284.1 10.3 C 284.1 9.2 283.9 8.3 283.3 7.7 C 282.8 7.1 282.1 6.8 281.3 6.8 C 280.6 6.8 279.9 7.1 279.4 7.7 C 278.8 8.3 278.5 9.2 278.5 10.3 Z M 303 10.2 L 303 7.6 L 309.9 7.6 C 309.9 7.6 309.9 13.85 309.9 13.8 C 309.2 14.5 308.3 15.1 307 15.5 C 305.7 16 304.5 16.3 303.2 16.3 C 301.5 16.3 300.1 15.9 298.9 15.2 C 297.6 14.6 296.7 13.6 296.1 12.3 C 295.5 11 295.2 9.6 295.2 8.1 C 295.2 6.4 295.5 5 296.2 3.7 C 296.9 2.4 297.9 1.5 299.2 0.8 C 300.2 0.3 301.5 0 303 0 C 305 0 306.5 0.4 307.6 1.2 C 308.7 2.1 309.4 3.2 309.7 4.6 C 309.7 4.6 306.5 5.2 306.5 5.2 C 306.3 4.4 305.9 3.8 305.3 3.4 C 304.7 2.9 303.9 2.7 303 2.7 C 301.6 2.7 300.5 3.2 299.7 4 C 298.9 4.9 298.5 6.2 298.5 8 C 298.5 9.8 298.9 11.2 299.7 12.2 C 300.5 13.1 301.6 13.6 303 13.6 C 303.6 13.6 304.3 13.4 305 13.2 C 305.6 12.9 306.2 12.6 306.7 12.2 C 306.69 12.22 306.7 10.2 306.7 10.2 L 303 10.2 Z M 312.1 10.2 C 312.1 9.1 312.4 8.2 312.9 7.2 C 313.4 6.3 314.1 5.6 315 5.1 C 315.9 4.6 316.9 4.4 318 4.4 C 319.7 4.4 321.1 4.9 322.2 6 C 323.3 7.2 323.9 8.6 323.9 10.3 C 323.9 12 323.3 13.4 322.2 14.6 C 321.1 15.7 319.7 16.3 318 16.3 C 317 16.3 316 16 315 15.6 C 314.1 15.1 313.4 14.4 312.9 13.5 C 312.4 12.6 312.1 11.5 312.1 10.2 Z M 315.2 10.3 C 315.2 11.4 315.5 12.3 316 12.9 C 316.6 13.5 317.2 13.8 318 13.8 C 318.8 13.8 319.5 13.5 320 12.9 C 320.5 12.3 320.8 11.4 320.8 10.3 C 320.8 9.2 320.5 8.3 320 7.7 C 319.5 7.1 318.8 6.8 318 6.8 C 317.2 6.8 316.6 7.1 316 7.7 C 315.5 8.3 315.2 9.2 315.2 10.3 Z M 332.4 16 L 332.4 0.3 L 343.2 0.3 L 343.2 2.9 L 335.6 2.9 L 335.6 6.7 L 342.2 6.7 L 342.2 9.3 L 335.6 9.3 L 335.6 16 L 332.4 16 Z M 353.3 16 C 353.3 16 353.31 14.31 353.3 14.3 C 352.9 14.9 352.4 15.4 351.7 15.7 C 351 16.1 350.3 16.3 349.5 16.3 C 348.8 16.3 348.1 16.1 347.5 15.8 C 346.9 15.4 346.4 15 346.1 14.4 C 345.9 13.7 345.7 12.9 345.7 11.8 C 345.74 11.83 345.7 4.6 345.7 4.6 L 348.8 4.6 C 348.8 4.6 348.76 9.85 348.8 9.9 C 348.8 11.5 348.8 12.4 348.9 12.8 C 349 13.2 349.2 13.4 349.5 13.7 C 349.8 13.9 350.2 14 350.6 14 C 351.2 14 351.6 13.8 352 13.6 C 352.4 13.3 352.7 12.9 352.9 12.5 C 353 12.1 353.1 11.1 353.1 9.4 C 353.1 9.42 353.1 4.6 353.1 4.6 L 356.1 4.6 L 356.1 16 L 353.3 16 Z M 362.1 16 L 359.1 16 L 359.1 4.6 L 361.9 4.6 C 361.9 4.6 361.92 6.23 361.9 6.2 C 362.4 5.5 362.8 5 363.2 4.7 C 363.6 4.5 364 4.4 364.5 4.4 C 365.2 4.4 365.9 4.5 366.5 4.9 C 366.5 4.9 365.6 7.6 365.6 7.6 C 365.1 7.2 364.6 7.1 364.2 7.1 C 363.7 7.1 363.4 7.2 363.1 7.4 C 362.8 7.6 362.6 8.1 362.4 8.7 C 362.2 9.3 362.1 10.6 362.1 12.5 C 362.13 12.49 362.1 16 362.1 16 Z M 373 4.6 L 373 7 L 371 7 C 371 7 370.97 11.61 371 11.6 C 371 12.5 371 13.1 371 13.2 C 371.1 13.4 371.2 13.5 371.3 13.6 C 371.4 13.7 371.6 13.8 371.8 13.8 C 372.1 13.8 372.5 13.7 373 13.5 C 373 13.5 373.3 15.8 373.3 15.8 C 372.6 16.1 371.8 16.3 370.9 16.3 C 370.4 16.3 369.9 16.2 369.4 16 C 369 15.8 368.7 15.6 368.5 15.3 C 368.3 15 368.1 14.6 368 14.1 C 368 13.8 367.9 13.1 367.9 12 C 367.94 11.99 367.9 7 367.9 7 L 366.6 7 L 366.6 4.6 L 367.9 4.6 L 367.9 2.3 L 371 0.6 L 371 4.6 L 373 4.6 Z M 378.1 0.3 C 378.1 0.3 378.14 6.06 378.1 6.1 C 379.1 4.9 380.3 4.4 381.6 4.4 C 382.3 4.4 383 4.5 383.5 4.7 C 384.1 5 384.5 5.3 384.8 5.7 C 385.1 6.1 385.2 6.6 385.4 7.1 C 385.5 7.5 385.5 8.3 385.5 9.3 C 385.51 9.32 385.5 16 385.5 16 L 382.5 16 C 382.5 16 382.49 9.99 382.5 10 C 382.5 8.8 382.4 8 382.3 7.7 C 382.2 7.4 382 7.1 381.7 6.9 C 381.4 6.8 381.1 6.7 380.6 6.7 C 380.1 6.7 379.7 6.8 379.3 7 C 378.9 7.3 378.6 7.6 378.4 8.1 C 378.2 8.6 378.1 9.3 378.1 10.3 C 378.14 10.3 378.1 16 378.1 16 L 375.1 16 L 375.1 0.3 L 378.1 0.3 Z M 395.2 12.4 C 395.2 12.4 398.2 12.9 398.2 12.9 C 397.8 14 397.2 14.8 396.4 15.4 C 395.5 16 394.5 16.3 393.2 16.3 C 391.2 16.3 389.8 15.6 388.8 14.3 C 388.1 13.3 387.7 12 387.7 10.4 C 387.7 8.5 388.2 7 389.2 6 C 390.2 4.9 391.4 4.4 392.9 4.4 C 394.6 4.4 396 4.9 396.9 6 C 397.9 7.2 398.4 8.9 398.3 11.2 C 398.3 11.2 390.8 11.2 390.8 11.2 C 390.8 12.1 391 12.8 391.5 13.3 C 392 13.8 392.6 14 393.3 14 C 393.7 14 394.1 13.9 394.4 13.6 C 394.8 13.4 395 13 395.2 12.4 Z M 395.3 9.3 C 395.3 8.5 395.1 7.8 394.7 7.3 C 394.2 6.9 393.7 6.7 393.1 6.7 C 392.4 6.7 391.9 6.9 391.5 7.4 C 391 7.9 390.8 8.5 390.8 9.3 C 390.8 9.3 395.3 9.3 395.3 9.3 Z M 403.7 16 L 400.7 16 L 400.7 4.6 L 403.5 4.6 C 403.5 4.6 403.48 6.23 403.5 6.2 C 404 5.5 404.4 5 404.8 4.7 C 405.2 4.5 405.6 4.4 406.1 4.4 C 406.8 4.4 407.4 4.5 408.1 4.9 C 408.1 4.9 407.1 7.6 407.1 7.6 C 406.6 7.2 406.1 7.1 405.7 7.1 C 405.3 7.1 404.9 7.2 404.6 7.4 C 404.3 7.6 404.1 8.1 403.9 8.7 C 403.8 9.3 403.7 10.6 403.7 12.5 C 403.69 12.49 403.7 16 403.7 16 Z " stroke="none" fill="#e4007e"/>  </g></svg>