<?xml version="1.0" standalone="no"?><!DOCTYPE svg PUBLIC "-//W3C//DTD SVG 1.1//EN" "http://www.w3.org/Graphics/SVG/1.1/DTD/svg11.dtd"><svg xmlns="http://www.w3.org/2000/svg" version="1.1" width="364px" height="191.6px" viewBox="0 -2 364 191.6" style="top:-2px">  <desc>Provider Recommendation Ideal for higher performing learners Not required for the apprenticeship standard. Best suite...</desc>  <defs/>  <g id="Polygon7882">    <path d="M 13.5 172.9 C 13.5 172.9 15.4 173.2 15.4 173.2 C 15.2 174.5 14.7 175.5 13.8 176.2 C 13 177 11.9 177.4 10.7 177.4 C 9.1 177.4 7.9 176.9 6.9 175.8 C 6 174.8 5.5 173.3 5.5 171.4 C 5.5 170.2 5.7 169.1 6.1 168.2 C 6.5 167.3 7.1 166.6 8 166.1 C 8.8 165.7 9.7 165.4 10.7 165.4 C 11.9 165.4 13 165.8 13.7 166.4 C 14.5 167 15 167.9 15.3 169 C 15.3 169 13.4 169.3 13.4 169.3 C 13.2 168.6 12.9 168 12.4 167.6 C 12 167.2 11.4 167 10.8 167 C 9.8 167 9 167.4 8.4 168.1 C 7.8 168.8 7.5 169.9 7.5 171.4 C 7.5 172.9 7.8 174 8.4 174.7 C 9 175.4 9.7 175.8 10.7 175.8 C 11.4 175.8 12.1 175.5 12.6 175.1 C 13.1 174.6 13.4 173.9 13.5 172.9 Z M 16.4 171.4 C 16.4 169.3 17 167.7 18.1 166.7 C 19.1 165.9 20.3 165.4 21.7 165.4 C 23.3 165.4 24.6 166 25.6 167 C 26.6 168 27.1 169.4 27.1 171.2 C 27.1 172.7 26.8 173.9 26.4 174.7 C 26 175.5 25.3 176.2 24.5 176.7 C 23.6 177.1 22.7 177.4 21.7 177.4 C 20.1 177.4 18.8 176.8 17.8 175.8 C 16.9 174.8 16.4 173.3 16.4 171.4 Z M 18.4 171.4 C 18.4 172.9 18.7 174 19.3 174.7 C 20 175.4 20.8 175.8 21.7 175.8 C 22.7 175.8 23.5 175.4 24.1 174.7 C 24.8 173.9 25.1 172.8 25.1 171.3 C 25.1 169.9 24.8 168.9 24.1 168.1 C 23.5 167.4 22.7 167 21.7 167 C 20.8 167 20 167.4 19.3 168.1 C 18.7 168.8 18.4 169.9 18.4 171.4 Z M 29.3 177.1 L 29.3 165.7 L 31.1 165.7 C 31.1 165.7 31.07 167.32 31.1 167.3 C 31.9 166.1 33.1 165.4 34.7 165.4 C 35.4 165.4 36 165.6 36.6 165.8 C 37.2 166.1 37.6 166.4 37.9 166.8 C 38.2 167.2 38.4 167.7 38.5 168.2 C 38.6 168.6 38.6 169.2 38.6 170.1 C 38.6 170.09 38.6 177.1 38.6 177.1 L 36.7 177.1 C 36.7 177.1 36.66 170.16 36.7 170.2 C 36.7 169.4 36.6 168.8 36.4 168.4 C 36.3 168 36 167.7 35.6 167.5 C 35.3 167.2 34.8 167.1 34.3 167.1 C 33.5 167.1 32.8 167.4 32.2 167.9 C 31.6 168.4 31.3 169.4 31.3 170.9 C 31.26 170.87 31.3 177.1 31.3 177.1 L 29.3 177.1 Z M 42.1 177.1 L 42.1 167.2 L 40.4 167.2 L 40.4 165.7 L 42.1 165.7 C 42.1 165.7 42.08 164.59 42.1 164.6 C 42.1 163.5 42.3 162.6 42.8 162 C 43.3 161.4 44.1 161.1 45.1 161.1 C 45.8 161.1 46.5 161.2 47.1 161.3 C 47.1 161.3 46.8 163 46.8 163 C 46.4 162.9 46.1 162.9 45.7 162.9 C 45.1 162.9 44.6 163 44.4 163.3 C 44.1 163.5 44 164.1 44 165 C 44.01 164.95 44 165.7 44 165.7 L 46.2 165.7 L 46.2 167.2 L 44 167.2 L 44 177.1 L 42.1 177.1 Z M 47.7 163.6 L 47.7 161.4 L 49.6 161.4 L 49.6 163.6 L 47.7 163.6 Z M 47.7 177.1 L 47.7 165.7 L 49.6 165.7 L 49.6 177.1 L 47.7 177.1 Z M 60 177.1 C 60 177.1 59.96 175.66 60 175.7 C 59.2 176.8 58.2 177.4 56.8 177.4 C 55.9 177.4 55 177.1 54.3 176.6 C 53.5 176.1 52.9 175.4 52.5 174.5 C 52.1 173.6 51.9 172.6 51.9 171.4 C 51.9 170.3 52.1 169.2 52.4 168.3 C 52.8 167.4 53.4 166.7 54.1 166.2 C 54.9 165.7 55.7 165.4 56.7 165.4 C 57.4 165.4 58 165.6 58.5 165.9 C 59.1 166.2 59.5 166.5 59.8 167 C 59.83 167.01 59.8 161.4 59.8 161.4 L 61.8 161.4 L 61.8 177.1 L 60 177.1 Z M 53.9 171.4 C 53.9 172.9 54.2 174 54.8 174.7 C 55.4 175.4 56.1 175.8 57 175.8 C 57.8 175.8 58.5 175.4 59.1 174.7 C 59.7 174 60 173 60 171.6 C 60 170 59.7 168.9 59.1 168.1 C 58.5 167.4 57.7 167 56.9 167 C 56 167 55.3 167.4 54.7 168.1 C 54.1 168.8 53.9 169.9 53.9 171.4 Z M 72.6 173.4 C 72.6 173.4 74.6 173.7 74.6 173.7 C 74.3 174.8 73.7 175.8 72.9 176.4 C 72 177 70.9 177.4 69.6 177.4 C 67.9 177.4 66.6 176.8 65.6 175.8 C 64.6 174.8 64.2 173.4 64.2 171.5 C 64.2 169.6 64.6 168.1 65.6 167 C 66.6 166 67.9 165.4 69.5 165.4 C 71 165.4 72.3 166 73.2 167 C 74.2 168 74.7 169.5 74.7 171.4 C 74.7 171.5 74.7 171.7 74.7 171.9 C 74.7 171.9 66.1 171.9 66.1 171.9 C 66.2 173.1 66.6 174.1 67.2 174.8 C 67.9 175.4 68.6 175.8 69.6 175.8 C 70.3 175.8 70.9 175.6 71.4 175.2 C 71.9 174.8 72.3 174.2 72.6 173.4 Z M 66.3 170.3 C 66.3 170.3 72.6 170.3 72.6 170.3 C 72.5 169.3 72.3 168.6 71.9 168.1 C 71.3 167.4 70.5 167 69.5 167 C 68.6 167 67.9 167.3 67.3 167.9 C 66.7 168.5 66.3 169.3 66.3 170.3 Z M 77 177.1 L 77 165.7 L 78.8 165.7 C 78.8 165.7 78.77 167.32 78.8 167.3 C 79.6 166.1 80.8 165.4 82.4 165.4 C 83.1 165.4 83.7 165.6 84.3 165.8 C 84.9 166.1 85.3 166.4 85.6 166.8 C 85.9 167.2 86.1 167.7 86.2 168.2 C 86.3 168.6 86.3 169.2 86.3 170.1 C 86.3 170.09 86.3 177.1 86.3 177.1 L 84.4 177.1 C 84.4 177.1 84.37 170.16 84.4 170.2 C 84.4 169.4 84.3 168.8 84.1 168.4 C 84 168 83.7 167.7 83.3 167.5 C 83 167.2 82.5 167.1 82 167.1 C 81.2 167.1 80.5 167.4 79.9 167.9 C 79.3 168.4 79 169.4 79 170.9 C 78.97 170.87 79 177.1 79 177.1 L 77 177.1 Z M 92.6 175.4 C 92.9 175.4 93.1 175.4 93.5 175.4 C 93.5 175.4 93.8 177.1 93.8 177.1 C 93.2 177.2 92.7 177.3 92.3 177.3 C 91.6 177.3 91.1 177.1 90.7 176.9 C 90.3 176.7 90 176.4 89.9 176 C 89.7 175.7 89.6 174.9 89.6 173.8 C 89.62 173.76 89.6 167.2 89.6 167.2 L 88.2 167.2 L 88.2 165.7 L 89.6 165.7 L 89.6 162.9 L 91.5 161.7 L 91.5 165.7 L 93.5 165.7 L 93.5 167.2 L 91.5 167.2 C 91.5 167.2 91.54 173.87 91.5 173.9 C 91.5 174.4 91.6 174.8 91.6 174.9 C 91.7 175.1 91.8 175.2 92 175.3 C 92.1 175.4 92.4 175.4 92.6 175.4 C 92.6 175.4 92.6 175.4 92.6 175.4 Z M 101.4 177.1 L 101.4 161.4 L 103.4 161.4 L 103.4 177.1 L 101.4 177.1 Z M 114.2 173.4 C 114.2 173.4 116.2 173.7 116.2 173.7 C 115.9 174.8 115.3 175.8 114.4 176.4 C 113.6 177 112.5 177.4 111.2 177.4 C 109.5 177.4 108.2 176.8 107.2 175.8 C 106.2 174.8 105.7 173.4 105.7 171.5 C 105.7 169.6 106.2 168.1 107.2 167 C 108.2 166 109.5 165.4 111.1 165.4 C 112.6 165.4 113.8 166 114.8 167 C 115.8 168 116.3 169.5 116.3 171.4 C 116.3 171.5 116.2 171.7 116.2 171.9 C 116.2 171.9 107.7 171.9 107.7 171.9 C 107.8 173.1 108.2 174.1 108.8 174.8 C 109.4 175.4 110.2 175.8 111.2 175.8 C 111.9 175.8 112.5 175.6 113 175.2 C 113.5 174.8 113.9 174.2 114.2 173.4 Z M 107.8 170.3 C 107.8 170.3 114.2 170.3 114.2 170.3 C 114.1 169.3 113.9 168.6 113.5 168.1 C 112.9 167.4 112.1 167 111.1 167 C 110.2 167 109.4 167.3 108.8 167.9 C 108.2 168.5 107.9 169.3 107.8 170.3 Z M 126.4 177.1 C 126.2 176.7 126.1 176.2 126.1 175.7 C 125.3 176.3 124.7 176.7 124 177 C 123.3 177.2 122.6 177.4 121.9 177.4 C 120.6 177.4 119.6 177.1 119 176.4 C 118.3 175.8 118 175 118 174.1 C 118 173.5 118.1 173 118.3 172.6 C 118.6 172.1 118.9 171.7 119.3 171.5 C 119.8 171.2 120.2 171 120.7 170.8 C 121.1 170.7 121.7 170.6 122.4 170.5 C 124 170.3 125.2 170.1 125.9 169.9 C 125.9 169.6 125.9 169.4 125.9 169.4 C 125.9 168.6 125.7 168 125.4 167.7 C 124.9 167.3 124.1 167 123.2 167 C 122.2 167 121.6 167.2 121.1 167.5 C 120.7 167.8 120.4 168.4 120.2 169.2 C 120.2 169.2 118.3 169 118.3 169 C 118.5 168.1 118.7 167.5 119.1 167 C 119.5 166.5 120.1 166.1 120.8 165.8 C 121.6 165.6 122.5 165.4 123.4 165.4 C 124.4 165.4 125.2 165.6 125.8 165.8 C 126.4 166 126.9 166.3 127.2 166.6 C 127.4 167 127.6 167.4 127.8 168 C 127.8 168.3 127.9 168.9 127.9 169.7 C 127.9 169.7 127.9 172.3 127.9 172.3 C 127.9 174.1 127.9 175.3 128 175.7 C 128.1 176.2 128.2 176.7 128.5 177.1 C 128.47 177.1 126.4 177.1 126.4 177.1 C 126.4 177.1 126.45 177.1 126.4 177.1 Z M 125.9 171.4 C 125.2 171.7 124.1 171.9 122.7 172.1 C 121.9 172.2 121.4 172.4 121.1 172.5 C 120.7 172.6 120.5 172.8 120.3 173.1 C 120.1 173.4 120 173.7 120 174 C 120 174.6 120.2 175 120.6 175.3 C 121 175.7 121.6 175.8 122.3 175.8 C 123.1 175.8 123.7 175.7 124.3 175.4 C 124.9 175 125.3 174.6 125.6 174 C 125.8 173.6 125.9 172.9 125.9 172.1 C 125.9 172.1 125.9 171.4 125.9 171.4 Z M 130.8 177.1 L 130.8 165.7 L 132.6 165.7 C 132.6 165.7 132.57 167.42 132.6 167.4 C 133 166.6 133.4 166.1 133.8 165.8 C 134.2 165.6 134.6 165.4 135 165.4 C 135.7 165.4 136.4 165.6 137 166.1 C 137 166.1 136.4 167.9 136.4 167.9 C 135.9 167.6 135.4 167.4 134.9 167.4 C 134.5 167.4 134.1 167.6 133.8 167.8 C 133.5 168.1 133.2 168.4 133.1 168.9 C 132.9 169.6 132.8 170.3 132.8 171.1 C 132.76 171.13 132.8 177.1 132.8 177.1 L 130.8 177.1 Z M 138.2 177.1 L 138.2 165.7 L 139.9 165.7 C 139.9 165.7 139.92 167.32 139.9 167.3 C 140.8 166.1 142 165.4 143.5 165.4 C 144.2 165.4 144.9 165.6 145.4 165.8 C 146 166.1 146.5 166.4 146.7 166.8 C 147 167.2 147.2 167.7 147.3 168.2 C 147.4 168.6 147.4 169.2 147.4 170.1 C 147.45 170.09 147.4 177.1 147.4 177.1 L 145.5 177.1 C 145.5 177.1 145.51 170.16 145.5 170.2 C 145.5 169.4 145.4 168.8 145.3 168.4 C 145.1 168 144.9 167.7 144.5 167.5 C 144.1 167.2 143.7 167.1 143.1 167.1 C 142.3 167.1 141.6 167.4 141 167.9 C 140.4 168.4 140.1 169.4 140.1 170.9 C 140.11 170.87 140.1 177.1 140.1 177.1 L 138.2 177.1 Z M 158.2 173.4 C 158.2 173.4 160.2 173.7 160.2 173.7 C 159.9 174.8 159.3 175.8 158.5 176.4 C 157.6 177 156.5 177.4 155.2 177.4 C 153.5 177.4 152.2 176.8 151.2 175.8 C 150.3 174.8 149.8 173.4 149.8 171.5 C 149.8 169.6 150.3 168.1 151.2 167 C 152.2 166 153.5 165.4 155.1 165.4 C 156.6 165.4 157.9 166 158.8 167 C 159.8 168 160.3 169.5 160.3 171.4 C 160.3 171.5 160.3 171.7 160.3 171.9 C 160.3 171.9 151.8 171.9 151.8 171.9 C 151.8 173.1 152.2 174.1 152.8 174.8 C 153.5 175.4 154.3 175.8 155.2 175.8 C 155.9 175.8 156.5 175.6 157 175.2 C 157.5 174.8 157.9 174.2 158.2 173.4 Z M 151.9 170.3 C 151.9 170.3 158.2 170.3 158.2 170.3 C 158.2 169.3 157.9 168.6 157.5 168.1 C 156.9 167.4 156.1 167 155.1 167 C 154.2 167 153.5 167.3 152.9 167.9 C 152.3 168.5 151.9 169.3 151.9 170.3 Z M 162.6 177.1 L 162.6 165.7 L 164.4 165.7 C 164.4 165.7 164.37 167.42 164.4 167.4 C 164.8 166.6 165.2 166.1 165.6 165.8 C 166 165.6 166.4 165.4 166.8 165.4 C 167.5 165.4 168.2 165.6 168.8 166.1 C 168.8 166.1 168.2 167.9 168.2 167.9 C 167.7 167.6 167.2 167.4 166.7 167.4 C 166.3 167.4 165.9 167.6 165.6 167.8 C 165.3 168.1 165 168.4 164.9 168.9 C 164.7 169.6 164.6 170.3 164.6 171.1 C 164.56 171.13 164.6 177.1 164.6 177.1 L 162.6 177.1 Z M 169.2 173.7 C 169.2 173.7 171.1 173.4 171.1 173.4 C 171.2 174.2 171.5 174.8 172 175.2 C 172.5 175.6 173.2 175.8 174.1 175.8 C 175 175.8 175.6 175.6 176 175.2 C 176.5 174.9 176.7 174.4 176.7 174 C 176.7 173.5 176.5 173.2 176.1 172.9 C 175.9 172.8 175.2 172.5 174.1 172.3 C 172.7 171.9 171.7 171.6 171.2 171.3 C 170.6 171.1 170.2 170.7 169.9 170.3 C 169.7 169.8 169.5 169.3 169.5 168.7 C 169.5 168.2 169.6 167.7 169.9 167.3 C 170.1 166.9 170.4 166.5 170.8 166.2 C 171.1 166 171.5 165.8 172.1 165.7 C 172.6 165.5 173.1 165.4 173.7 165.4 C 174.6 165.4 175.4 165.6 176.1 165.8 C 176.8 166.1 177.3 166.4 177.6 166.9 C 177.9 167.3 178.1 167.9 178.2 168.6 C 178.2 168.6 176.4 168.9 176.4 168.9 C 176.3 168.3 176 167.9 175.6 167.5 C 175.2 167.2 174.6 167 173.9 167 C 173 167 172.3 167.2 172 167.5 C 171.6 167.8 171.4 168.1 171.4 168.5 C 171.4 168.7 171.5 169 171.6 169.2 C 171.8 169.4 172 169.6 172.4 169.7 C 172.6 169.8 173.1 169.9 174.1 170.2 C 175.4 170.6 176.4 170.8 176.9 171.1 C 177.5 171.3 177.9 171.7 178.2 172.1 C 178.5 172.5 178.7 173.1 178.7 173.8 C 178.7 174.4 178.5 175 178.1 175.6 C 177.7 176.1 177.2 176.6 176.5 176.9 C 175.8 177.2 175 177.4 174.1 177.4 C 172.6 177.4 171.5 177.1 170.7 176.4 C 169.9 175.8 169.4 174.9 169.2 173.7 Z M 187.1 163.6 L 187.1 161.4 L 189 161.4 L 189 163.6 L 187.1 163.6 Z M 187.1 177.1 L 187.1 165.7 L 189 165.7 L 189 177.1 L 187.1 177.1 Z M 192 177.1 L 192 165.7 L 193.7 165.7 C 193.7 165.7 193.71 167.32 193.7 167.3 C 194.6 166.1 195.8 165.4 197.3 165.4 C 198 165.4 198.7 165.6 199.2 165.8 C 199.8 166.1 200.2 166.4 200.5 166.8 C 200.8 167.2 201 167.7 201.1 168.2 C 201.2 168.6 201.2 169.2 201.2 170.1 C 201.24 170.09 201.2 177.1 201.2 177.1 L 199.3 177.1 C 199.3 177.1 199.31 170.16 199.3 170.2 C 199.3 169.4 199.2 168.8 199.1 168.4 C 198.9 168 198.7 167.7 198.3 167.5 C 197.9 167.2 197.5 167.1 196.9 167.1 C 196.1 167.1 195.4 167.4 194.8 167.9 C 194.2 168.4 193.9 169.4 193.9 170.9 C 193.91 170.87 193.9 177.1 193.9 177.1 L 192 177.1 Z M 209.5 173.7 C 209.5 173.7 211.5 173.4 211.5 173.4 C 211.6 174.2 211.9 174.8 212.4 175.2 C 212.8 175.6 213.5 175.8 214.4 175.8 C 215.3 175.8 216 175.6 216.4 175.2 C 216.8 174.9 217 174.4 217 174 C 217 173.5 216.8 173.2 216.5 172.9 C 216.2 172.8 215.5 172.5 214.5 172.3 C 213.1 171.9 212.1 171.6 211.5 171.3 C 211 171.1 210.6 170.7 210.3 170.3 C 210 169.8 209.9 169.3 209.9 168.7 C 209.9 168.2 210 167.7 210.2 167.3 C 210.5 166.9 210.8 166.5 211.2 166.2 C 211.5 166 211.9 165.8 212.4 165.7 C 212.9 165.5 213.5 165.4 214.1 165.4 C 215 165.4 215.8 165.6 216.4 165.8 C 217.1 166.1 217.6 166.4 217.9 166.9 C 218.2 167.3 218.5 167.9 218.6 168.6 C 218.6 168.6 216.7 168.9 216.7 168.9 C 216.6 168.3 216.4 167.9 216 167.5 C 215.5 167.2 215 167 214.2 167 C 213.3 167 212.7 167.2 212.3 167.5 C 211.9 167.8 211.7 168.1 211.7 168.5 C 211.7 168.7 211.8 169 212 169.2 C 212.1 169.4 212.4 169.6 212.7 169.7 C 212.9 169.8 213.5 169.9 214.4 170.2 C 215.8 170.6 216.7 170.8 217.3 171.1 C 217.8 171.3 218.3 171.7 218.6 172.1 C 218.9 172.5 219 173.1 219 173.8 C 219 174.4 218.8 175 218.5 175.6 C 218.1 176.1 217.5 176.6 216.8 176.9 C 216.1 177.2 215.3 177.4 214.4 177.4 C 212.9 177.4 211.8 177.1 211 176.4 C 210.3 175.8 209.8 174.9 209.5 173.7 Z M 221.3 181.5 L 221.3 165.7 L 223.1 165.7 C 223.1 165.7 223.08 167.18 223.1 167.2 C 223.5 166.6 224 166.2 224.5 165.9 C 225 165.6 225.6 165.4 226.4 165.4 C 227.4 165.4 228.2 165.7 229 166.2 C 229.7 166.7 230.3 167.4 230.7 168.3 C 231 169.2 231.2 170.2 231.2 171.3 C 231.2 172.5 231 173.5 230.6 174.5 C 230.2 175.4 229.6 176.1 228.8 176.6 C 228 177.1 227.1 177.4 226.3 177.4 C 225.6 177.4 225 177.2 224.5 177 C 224 176.7 223.6 176.3 223.3 175.9 C 223.25 175.92 223.3 181.5 223.3 181.5 L 221.3 181.5 Z M 223.1 171.5 C 223.1 172.9 223.4 174 224 174.7 C 224.6 175.4 225.3 175.8 226.1 175.8 C 227 175.8 227.7 175.4 228.3 174.7 C 228.9 174 229.2 172.8 229.2 171.3 C 229.2 169.8 228.9 168.8 228.4 168 C 227.8 167.3 227 167 226.2 167 C 225.4 167 224.7 167.3 224 168.1 C 223.4 168.9 223.1 170 223.1 171.5 Z M 241.4 173.4 C 241.4 173.4 243.4 173.7 243.4 173.7 C 243 174.8 242.5 175.8 241.6 176.4 C 240.8 177 239.7 177.4 238.3 177.4 C 236.7 177.4 235.4 176.8 234.4 175.8 C 233.4 174.8 232.9 173.4 232.9 171.5 C 232.9 169.6 233.4 168.1 234.4 167 C 235.4 166 236.7 165.4 238.2 165.4 C 239.8 165.4 241 166 242 167 C 242.9 168 243.4 169.5 243.4 171.4 C 243.4 171.5 243.4 171.7 243.4 171.9 C 243.4 171.9 234.9 171.9 234.9 171.9 C 235 173.1 235.3 174.1 236 174.8 C 236.6 175.4 237.4 175.8 238.4 175.8 C 239.1 175.8 239.7 175.6 240.2 175.2 C 240.7 174.8 241.1 174.2 241.4 173.4 Z M 235 170.3 C 235 170.3 241.4 170.3 241.4 170.3 C 241.3 169.3 241.1 168.6 240.7 168.1 C 240 167.4 239.2 167 238.3 167 C 237.4 167 236.6 167.3 236 167.9 C 235.4 168.5 235.1 169.3 235 170.3 Z M 253.2 172.9 C 253.2 172.9 255.1 173.2 255.1 173.2 C 254.9 174.5 254.4 175.5 253.5 176.2 C 252.7 177 251.6 177.4 250.4 177.4 C 248.8 177.4 247.6 176.9 246.6 175.8 C 245.7 174.8 245.2 173.3 245.2 171.4 C 245.2 170.2 245.4 169.1 245.8 168.2 C 246.2 167.3 246.8 166.6 247.7 166.1 C 248.5 165.7 249.4 165.4 250.4 165.4 C 251.6 165.4 252.7 165.8 253.4 166.4 C 254.2 167 254.7 167.9 255 169 C 255 169 253.1 169.3 253.1 169.3 C 252.9 168.6 252.6 168 252.1 167.6 C 251.7 167.2 251.1 167 250.5 167 C 249.5 167 248.7 167.4 248.1 168.1 C 247.5 168.8 247.2 169.9 247.2 171.4 C 247.2 172.9 247.5 174 248.1 174.7 C 248.7 175.4 249.4 175.8 250.4 175.8 C 251.1 175.8 251.8 175.5 252.3 175.1 C 252.8 174.6 253.1 173.9 253.2 172.9 Z M 256.8 163.6 L 256.8 161.4 L 258.7 161.4 L 258.7 163.6 L 256.8 163.6 Z M 256.8 177.1 L 256.8 165.7 L 258.7 165.7 L 258.7 177.1 L 256.8 177.1 Z M 269.5 177.1 C 269.3 176.7 269.2 176.2 269.1 175.7 C 268.4 176.3 267.7 176.7 267.1 177 C 266.4 177.2 265.7 177.4 264.9 177.4 C 263.7 177.4 262.7 177.1 262 176.4 C 261.4 175.8 261 175 261 174.1 C 261 173.5 261.2 173 261.4 172.6 C 261.7 172.1 262 171.7 262.4 171.5 C 262.8 171.2 263.3 171 263.8 170.8 C 264.2 170.7 264.7 170.6 265.5 170.5 C 267.1 170.3 268.2 170.1 269 169.9 C 269 169.6 269 169.4 269 169.4 C 269 168.6 268.8 168 268.4 167.7 C 267.9 167.3 267.2 167 266.2 167 C 265.3 167 264.6 167.2 264.2 167.5 C 263.8 167.8 263.5 168.4 263.2 169.2 C 263.2 169.2 261.4 169 261.4 169 C 261.5 168.1 261.8 167.5 262.2 167 C 262.6 166.5 263.2 166.1 263.9 165.8 C 264.7 165.6 265.5 165.4 266.5 165.4 C 267.5 165.4 268.3 165.6 268.9 165.8 C 269.5 166 269.9 166.3 270.2 166.6 C 270.5 167 270.7 167.4 270.8 168 C 270.9 168.3 270.9 168.9 270.9 169.7 C 270.9 169.7 270.9 172.3 270.9 172.3 C 270.9 174.1 271 175.3 271 175.7 C 271.1 176.2 271.3 176.7 271.5 177.1 C 271.53 177.1 269.5 177.1 269.5 177.1 C 269.5 177.1 269.51 177.1 269.5 177.1 Z M 269 171.4 C 268.3 171.7 267.2 171.9 265.8 172.1 C 265 172.2 264.4 172.4 264.1 172.5 C 263.8 172.6 263.5 172.8 263.4 173.1 C 263.2 173.4 263.1 173.7 263.1 174 C 263.1 174.6 263.3 175 263.7 175.3 C 264.1 175.7 264.6 175.8 265.4 175.8 C 266.1 175.8 266.8 175.7 267.4 175.4 C 268 175 268.4 174.6 268.7 174 C 268.9 173.6 269 172.9 269 172.1 C 269 172.1 269 171.4 269 171.4 Z M 273.9 177.1 L 273.9 161.4 L 275.8 161.4 L 275.8 177.1 L 273.9 177.1 Z M 278.8 163.6 L 278.8 161.4 L 280.7 161.4 L 280.7 163.6 L 278.8 163.6 Z M 278.8 177.1 L 278.8 165.7 L 280.7 165.7 L 280.7 177.1 L 278.8 177.1 Z M 282.9 173.7 C 282.9 173.7 284.8 173.4 284.8 173.4 C 284.9 174.2 285.2 174.8 285.7 175.2 C 286.2 175.6 286.9 175.8 287.8 175.8 C 288.7 175.8 289.3 175.6 289.8 175.2 C 290.2 174.9 290.4 174.4 290.4 174 C 290.4 173.5 290.2 173.2 289.8 172.9 C 289.6 172.8 288.9 172.5 287.9 172.3 C 286.4 171.9 285.5 171.6 284.9 171.3 C 284.4 171.1 283.9 170.7 283.7 170.3 C 283.4 169.8 283.2 169.3 283.2 168.7 C 283.2 168.2 283.4 167.7 283.6 167.3 C 283.8 166.9 284.1 166.5 284.5 166.2 C 284.8 166 285.2 165.8 285.8 165.7 C 286.3 165.5 286.8 165.4 287.4 165.4 C 288.3 165.4 289.1 165.6 289.8 165.8 C 290.5 166.1 291 166.4 291.3 166.9 C 291.6 167.3 291.8 167.9 292 168.6 C 292 168.6 290.1 168.9 290.1 168.9 C 290 168.3 289.7 167.9 289.3 167.5 C 288.9 167.2 288.3 167 287.6 167 C 286.7 167 286.1 167.2 285.7 167.5 C 285.3 167.8 285.1 168.1 285.1 168.5 C 285.1 168.7 285.2 169 285.3 169.2 C 285.5 169.4 285.7 169.6 286.1 169.7 C 286.3 169.8 286.8 169.9 287.8 170.2 C 289.2 170.6 290.1 170.8 290.7 171.1 C 291.2 171.3 291.6 171.7 291.9 172.1 C 292.2 172.5 292.4 173.1 292.4 173.8 C 292.4 174.4 292.2 175 291.8 175.6 C 291.5 176.1 290.9 176.6 290.2 176.9 C 289.5 177.2 288.7 177.4 287.8 177.4 C 286.3 177.4 285.2 177.1 284.4 176.4 C 283.6 175.8 283.1 174.9 282.9 173.7 Z M 298.1 175.4 C 298.3 175.4 298.6 175.4 298.9 175.4 C 298.9 175.4 299.2 177.1 299.2 177.1 C 298.6 177.2 298.2 177.3 297.7 177.3 C 297 177.3 296.5 177.1 296.1 176.9 C 295.7 176.7 295.4 176.4 295.3 176 C 295.1 175.7 295 174.9 295 173.8 C 295.04 173.76 295 167.2 295 167.2 L 293.6 167.2 L 293.6 165.7 L 295 165.7 L 295 162.9 L 297 161.7 L 297 165.7 L 298.9 165.7 L 298.9 167.2 L 297 167.2 C 297 167.2 296.97 173.87 297 173.9 C 297 174.4 297 174.8 297.1 174.9 C 297.1 175.1 297.2 175.2 297.4 175.3 C 297.6 175.4 297.8 175.4 298.1 175.4 C 298.1 175.4 298.1 175.4 298.1 175.4 Z M 306.9 177.1 L 306.9 165.7 L 308.6 165.7 C 308.6 165.7 308.63 167.42 308.6 167.4 C 309.1 166.6 309.5 166.1 309.9 165.8 C 310.2 165.6 310.7 165.4 311.1 165.4 C 311.8 165.4 312.4 165.6 313.1 166.1 C 313.1 166.1 312.4 167.9 312.4 167.9 C 312 167.6 311.5 167.4 311 167.4 C 310.6 167.4 310.2 167.6 309.9 167.8 C 309.5 168.1 309.3 168.4 309.1 168.9 C 308.9 169.6 308.8 170.3 308.8 171.1 C 308.83 171.13 308.8 177.1 308.8 177.1 L 306.9 177.1 Z M 313.5 171.4 C 313.5 169.3 314.1 167.7 315.3 166.7 C 316.3 165.9 317.5 165.4 318.9 165.4 C 320.4 165.4 321.7 166 322.7 167 C 323.7 168 324.2 169.4 324.2 171.2 C 324.2 172.7 324 173.9 323.5 174.7 C 323.1 175.5 322.5 176.2 321.6 176.7 C 320.8 177.1 319.9 177.4 318.9 177.4 C 317.3 177.4 316 176.8 315 175.8 C 314 174.8 313.5 173.3 313.5 171.4 Z M 315.5 171.4 C 315.5 172.9 315.8 174 316.5 174.7 C 317.1 175.4 317.9 175.8 318.9 175.8 C 319.8 175.8 320.6 175.4 321.3 174.7 C 321.9 173.9 322.2 172.8 322.2 171.3 C 322.2 169.9 321.9 168.9 321.3 168.1 C 320.6 167.4 319.8 167 318.9 167 C 317.9 167 317.1 167.4 316.5 168.1 C 315.8 168.8 315.5 169.9 315.5 171.4 Z M 326.4 177.1 L 326.4 161.4 L 328.4 161.4 L 328.4 177.1 L 326.4 177.1 Z M 339.2 173.4 C 339.2 173.4 341.2 173.7 341.2 173.7 C 340.9 174.8 340.3 175.8 339.4 176.4 C 338.6 177 337.5 177.4 336.2 177.4 C 334.5 177.4 333.2 176.8 332.2 175.8 C 331.2 174.8 330.7 173.4 330.7 171.5 C 330.7 169.6 331.2 168.1 332.2 167 C 333.2 166 334.5 165.4 336 165.4 C 337.6 165.4 338.8 166 339.8 167 C 340.8 168 341.2 169.5 341.2 171.4 C 341.2 171.5 341.2 171.7 341.2 171.9 C 341.2 171.9 332.7 171.9 332.7 171.9 C 332.8 173.1 333.1 174.1 333.8 174.8 C 334.4 175.4 335.2 175.8 336.2 175.8 C 336.9 175.8 337.5 175.6 338 175.2 C 338.5 174.8 338.9 174.2 339.2 173.4 Z M 332.8 170.3 C 332.8 170.3 339.2 170.3 339.2 170.3 C 339.1 169.3 338.9 168.6 338.5 168.1 C 337.8 167.4 337 167 336.1 167 C 335.2 167 334.4 167.3 333.8 167.9 C 333.2 168.5 332.9 169.3 332.8 170.3 Z M 342.8 173.7 C 342.8 173.7 344.7 173.4 344.7 173.4 C 344.8 174.2 345.1 174.8 345.6 175.2 C 346.1 175.6 346.8 175.8 347.7 175.8 C 348.6 175.8 349.2 175.6 349.7 175.2 C 350.1 174.9 350.3 174.4 350.3 174 C 350.3 173.5 350.1 173.2 349.7 172.9 C 349.5 172.8 348.8 172.5 347.8 172.3 C 346.3 171.9 345.4 171.6 344.8 171.3 C 344.3 171.1 343.9 170.7 343.6 170.3 C 343.3 169.8 343.1 169.3 343.1 168.7 C 343.1 168.2 343.3 167.7 343.5 167.3 C 343.7 166.9 344 166.5 344.4 166.2 C 344.7 166 345.2 165.8 345.7 165.7 C 346.2 165.5 346.8 165.4 347.3 165.4 C 348.2 165.4 349 165.6 349.7 165.8 C 350.4 166.1 350.9 166.4 351.2 166.9 C 351.5 167.3 351.7 167.9 351.9 168.6 C 351.9 168.6 350 168.9 350 168.9 C 349.9 168.3 349.6 167.9 349.2 167.5 C 348.8 167.2 348.2 167 347.5 167 C 346.6 167 346 167.2 345.6 167.5 C 345.2 167.8 345 168.1 345 168.5 C 345 168.7 345.1 169 345.3 169.2 C 345.4 169.4 345.7 169.6 346 169.7 C 346.2 169.8 346.8 169.9 347.7 170.2 C 349.1 170.6 350 170.8 350.6 171.1 C 351.1 171.3 351.5 171.7 351.8 172.1 C 352.1 172.5 352.3 173.1 352.3 173.8 C 352.3 174.4 352.1 175 351.7 175.6 C 351.4 176.1 350.8 176.6 350.1 176.9 C 349.4 177.2 348.6 177.4 347.7 177.4 C 346.2 177.4 345.1 177.1 344.3 176.4 C 343.5 175.8 343 174.9 342.8 173.7 Z M 355.1 177.1 L 355.1 174.9 L 357.3 174.9 L 357.3 177.1 L 355.1 177.1 Z " stroke="none" fill="#000"/>  </g>  <g id="Polygon7881">    <path d="M 12.6 147.3 C 12.6 147.3 14.6 147 14.6 147 C 14.7 147.8 15 148.4 15.5 148.8 C 15.9 149.2 16.6 149.4 17.5 149.4 C 18.4 149.4 19.1 149.2 19.5 148.8 C 19.9 148.5 20.1 148 20.1 147.6 C 20.1 147.1 19.9 146.8 19.6 146.5 C 19.3 146.4 18.6 146.1 17.6 145.9 C 16.2 145.5 15.2 145.2 14.6 144.9 C 14.1 144.7 13.7 144.3 13.4 143.9 C 13.1 143.4 13 142.9 13 142.3 C 13 141.8 13.1 141.3 13.3 140.9 C 13.5 140.5 13.9 140.1 14.3 139.8 C 14.6 139.6 15 139.4 15.5 139.3 C 16 139.1 16.6 139 17.2 139 C 18.1 139 18.8 139.2 19.5 139.4 C 20.2 139.7 20.7 140 21 140.5 C 21.3 140.9 21.6 141.5 21.7 142.2 C 21.7 142.2 19.8 142.5 19.8 142.5 C 19.7 141.9 19.5 141.5 19.1 141.1 C 18.6 140.8 18.1 140.6 17.3 140.6 C 16.4 140.6 15.8 140.8 15.4 141.1 C 15 141.4 14.8 141.7 14.8 142.1 C 14.8 142.3 14.9 142.6 15.1 142.8 C 15.2 143 15.5 143.2 15.8 143.3 C 16 143.4 16.6 143.5 17.5 143.8 C 18.9 144.2 19.8 144.4 20.4 144.7 C 20.9 144.9 21.3 145.3 21.7 145.7 C 22 146.1 22.1 146.7 22.1 147.4 C 22.1 148 21.9 148.6 21.6 149.2 C 21.2 149.7 20.6 150.2 19.9 150.5 C 19.2 150.8 18.4 151 17.5 151 C 16 151 14.9 150.7 14.1 150 C 13.4 149.4 12.9 148.5 12.6 147.3 Z M 27.8 149 C 28 149 28.3 149 28.6 149 C 28.6 149 28.9 150.7 28.9 150.7 C 28.4 150.8 27.9 150.9 27.5 150.9 C 26.8 150.9 26.2 150.7 25.8 150.5 C 25.4 150.3 25.2 150 25 149.6 C 24.8 149.3 24.8 148.5 24.8 147.4 C 24.77 147.36 24.8 140.8 24.8 140.8 L 23.4 140.8 L 23.4 139.3 L 24.8 139.3 L 24.8 136.5 L 26.7 135.3 L 26.7 139.3 L 28.6 139.3 L 28.6 140.8 L 26.7 140.8 C 26.7 140.8 26.69 147.47 26.7 147.5 C 26.7 148 26.7 148.4 26.8 148.5 C 26.9 148.7 27 148.8 27.1 148.9 C 27.3 149 27.5 149 27.8 149 C 27.8 149 27.8 149 27.8 149 Z M 38.4 150.7 C 38.2 150.3 38 149.8 38 149.3 C 37.3 149.9 36.6 150.3 35.9 150.6 C 35.2 150.8 34.5 151 33.8 151 C 32.5 151 31.6 150.7 30.9 150 C 30.2 149.4 29.9 148.6 29.9 147.7 C 29.9 147.1 30 146.6 30.3 146.2 C 30.5 145.7 30.8 145.3 31.3 145.1 C 31.7 144.8 32.1 144.6 32.6 144.4 C 33 144.3 33.6 144.2 34.4 144.1 C 35.9 143.9 37.1 143.7 37.8 143.5 C 37.8 143.2 37.8 143 37.8 143 C 37.8 142.2 37.6 141.6 37.3 141.3 C 36.8 140.9 36 140.6 35.1 140.6 C 34.2 140.6 33.5 140.8 33.1 141.1 C 32.6 141.4 32.3 142 32.1 142.8 C 32.1 142.8 30.2 142.6 30.2 142.6 C 30.4 141.7 30.7 141.1 31.1 140.6 C 31.4 140.1 32 139.7 32.8 139.4 C 33.5 139.2 34.4 139 35.4 139 C 36.3 139 37.1 139.2 37.7 139.4 C 38.3 139.6 38.8 139.9 39.1 140.2 C 39.4 140.6 39.6 141 39.7 141.6 C 39.7 141.9 39.8 142.5 39.8 143.3 C 39.8 143.3 39.8 145.9 39.8 145.9 C 39.8 147.7 39.8 148.9 39.9 149.3 C 40 149.8 40.1 150.3 40.4 150.7 C 40.38 150.7 38.4 150.7 38.4 150.7 C 38.4 150.7 38.36 150.7 38.4 150.7 Z M 37.8 145 C 37.1 145.3 36.1 145.5 34.7 145.7 C 33.9 145.8 33.3 146 33 146.1 C 32.6 146.2 32.4 146.4 32.2 146.7 C 32 147 31.9 147.3 31.9 147.6 C 31.9 148.2 32.1 148.6 32.5 148.9 C 32.9 149.3 33.5 149.4 34.2 149.4 C 35 149.4 35.6 149.3 36.2 149 C 36.8 148.6 37.2 148.2 37.5 147.6 C 37.7 147.2 37.8 146.5 37.8 145.7 C 37.8 145.7 37.8 145 37.8 145 Z M 42.8 150.7 L 42.8 139.3 L 44.5 139.3 C 44.5 139.3 44.5 140.92 44.5 140.9 C 45.3 139.7 46.6 139 48.1 139 C 48.8 139 49.5 139.2 50 139.4 C 50.6 139.7 51 140 51.3 140.4 C 51.6 140.8 51.8 141.3 51.9 141.8 C 52 142.2 52 142.8 52 143.7 C 52.03 143.69 52 150.7 52 150.7 L 50.1 150.7 C 50.1 150.7 50.1 143.76 50.1 143.8 C 50.1 143 50 142.4 49.9 142 C 49.7 141.6 49.5 141.3 49.1 141.1 C 48.7 140.8 48.2 140.7 47.7 140.7 C 46.9 140.7 46.2 141 45.6 141.5 C 45 142 44.7 143 44.7 144.5 C 44.7 144.47 44.7 150.7 44.7 150.7 L 42.8 150.7 Z M 62.4 150.7 C 62.4 150.7 62.4 149.26 62.4 149.3 C 61.7 150.4 60.6 151 59.2 151 C 58.3 151 57.5 150.7 56.7 150.2 C 55.9 149.7 55.3 149 54.9 148.1 C 54.5 147.2 54.3 146.2 54.3 145 C 54.3 143.9 54.5 142.8 54.9 141.9 C 55.3 141 55.8 140.3 56.6 139.8 C 57.3 139.3 58.2 139 59.1 139 C 59.8 139 60.4 139.2 61 139.5 C 61.5 139.8 61.9 140.1 62.3 140.6 C 62.27 140.61 62.3 135 62.3 135 L 64.2 135 L 64.2 150.7 L 62.4 150.7 Z M 56.3 145 C 56.3 146.5 56.6 147.6 57.2 148.3 C 57.8 149 58.6 149.4 59.4 149.4 C 60.2 149.4 61 149 61.5 148.3 C 62.1 147.6 62.4 146.6 62.4 145.2 C 62.4 143.6 62.1 142.5 61.5 141.7 C 60.9 141 60.2 140.6 59.3 140.6 C 58.4 140.6 57.7 141 57.2 141.7 C 56.6 142.4 56.3 143.5 56.3 145 Z M 75.1 150.7 C 74.9 150.3 74.7 149.8 74.7 149.3 C 74 149.9 73.3 150.3 72.6 150.6 C 71.9 150.8 71.2 151 70.5 151 C 69.2 151 68.3 150.7 67.6 150 C 66.9 149.4 66.6 148.6 66.6 147.7 C 66.6 147.1 66.7 146.6 67 146.2 C 67.2 145.7 67.5 145.3 68 145.1 C 68.4 144.8 68.8 144.6 69.4 144.4 C 69.7 144.3 70.3 144.2 71.1 144.1 C 72.6 143.9 73.8 143.7 74.5 143.5 C 74.5 143.2 74.5 143 74.5 143 C 74.5 142.2 74.3 141.6 74 141.3 C 73.5 140.9 72.8 140.6 71.8 140.6 C 70.9 140.6 70.2 140.8 69.8 141.1 C 69.3 141.4 69 142 68.8 142.8 C 68.8 142.8 66.9 142.6 66.9 142.6 C 67.1 141.7 67.4 141.1 67.8 140.6 C 68.2 140.1 68.7 139.7 69.5 139.4 C 70.2 139.2 71.1 139 72.1 139 C 73 139 73.8 139.2 74.4 139.4 C 75 139.6 75.5 139.9 75.8 140.2 C 76.1 140.6 76.3 141 76.4 141.6 C 76.4 141.9 76.5 142.5 76.5 143.3 C 76.5 143.3 76.5 145.9 76.5 145.9 C 76.5 147.7 76.5 148.9 76.6 149.3 C 76.7 149.8 76.8 150.3 77.1 150.7 C 77.09 150.7 75.1 150.7 75.1 150.7 C 75.1 150.7 75.07 150.7 75.1 150.7 Z M 74.5 145 C 73.8 145.3 72.8 145.5 71.4 145.7 C 70.6 145.8 70 146 69.7 146.1 C 69.3 146.2 69.1 146.4 68.9 146.7 C 68.7 147 68.6 147.3 68.6 147.6 C 68.6 148.2 68.8 148.6 69.2 148.9 C 69.6 149.3 70.2 149.4 70.9 149.4 C 71.7 149.4 72.3 149.3 72.9 149 C 73.5 148.6 73.9 148.2 74.2 147.6 C 74.4 147.2 74.5 146.5 74.5 145.7 C 74.5 145.7 74.5 145 74.5 145 Z M 79.4 150.7 L 79.4 139.3 L 81.2 139.3 C 81.2 139.3 81.19 141.02 81.2 141 C 81.6 140.2 82 139.7 82.4 139.4 C 82.8 139.2 83.2 139 83.7 139 C 84.3 139 85 139.2 85.6 139.7 C 85.6 139.7 85 141.5 85 141.5 C 84.5 141.2 84 141 83.6 141 C 83.1 141 82.8 141.2 82.4 141.4 C 82.1 141.7 81.8 142 81.7 142.5 C 81.5 143.2 81.4 143.9 81.4 144.7 C 81.38 144.73 81.4 150.7 81.4 150.7 L 79.4 150.7 Z M 94.2 150.7 C 94.2 150.7 94.2 149.26 94.2 149.3 C 93.5 150.4 92.4 151 91 151 C 90.1 151 89.3 150.7 88.5 150.2 C 87.7 149.7 87.1 149 86.7 148.1 C 86.3 147.2 86.1 146.2 86.1 145 C 86.1 143.9 86.3 142.8 86.7 141.9 C 87 141 87.6 140.3 88.4 139.8 C 89.1 139.3 90 139 90.9 139 C 91.6 139 92.2 139.2 92.8 139.5 C 93.3 139.8 93.7 140.1 94.1 140.6 C 94.07 140.61 94.1 135 94.1 135 L 96 135 L 96 150.7 L 94.2 150.7 Z M 88.1 145 C 88.1 146.5 88.4 147.6 89 148.3 C 89.6 149 90.4 149.4 91.2 149.4 C 92 149.4 92.8 149 93.3 148.3 C 93.9 147.6 94.2 146.6 94.2 145.2 C 94.2 143.6 93.9 142.5 93.3 141.7 C 92.7 141 92 140.6 91.1 140.6 C 90.2 140.6 89.5 141 89 141.7 C 88.4 142.4 88.1 143.5 88.1 145 Z M 99.6 150.7 L 99.6 148.5 L 101.8 148.5 L 101.8 150.7 L 99.6 150.7 Z M 111.4 150.7 L 111.4 135 C 111.4 135 117.33 134.96 117.3 135 C 118.5 135 119.5 135.1 120.2 135.4 C 120.9 135.8 121.5 136.2 121.9 136.9 C 122.3 137.6 122.5 138.3 122.5 139 C 122.5 139.7 122.4 140.3 122 140.9 C 121.6 141.5 121.1 142 120.3 142.3 C 121.3 142.6 122 143.1 122.5 143.8 C 123.1 144.4 123.3 145.2 123.3 146.1 C 123.3 146.9 123.2 147.6 122.8 148.2 C 122.5 148.8 122.1 149.3 121.7 149.7 C 121.2 150 120.7 150.3 120 150.4 C 119.3 150.6 118.4 150.7 117.4 150.7 C 117.42 150.7 111.4 150.7 111.4 150.7 Z M 113.5 141.6 C 113.5 141.6 116.91 141.57 116.9 141.6 C 117.8 141.6 118.5 141.5 118.9 141.4 C 119.4 141.2 119.8 141 120.1 140.6 C 120.4 140.2 120.5 139.8 120.5 139.2 C 120.5 138.7 120.4 138.2 120.1 137.9 C 119.9 137.5 119.5 137.2 119 137 C 118.6 136.9 117.8 136.8 116.6 136.8 C 116.65 136.81 113.5 136.8 113.5 136.8 L 113.5 141.6 Z M 113.5 148.8 C 113.5 148.8 117.42 148.85 117.4 148.8 C 118.1 148.8 118.6 148.8 118.8 148.8 C 119.3 148.7 119.7 148.5 120 148.3 C 120.4 148.1 120.6 147.8 120.8 147.5 C 121 147.1 121.1 146.6 121.1 146.1 C 121.1 145.6 121 145 120.7 144.6 C 120.4 144.2 120 143.9 119.4 143.7 C 118.9 143.5 118.1 143.4 117.1 143.4 C 117.14 143.43 113.5 143.4 113.5 143.4 L 113.5 148.8 Z M 133.7 147 C 133.7 147 135.7 147.3 135.7 147.3 C 135.4 148.4 134.8 149.4 134 150 C 133.1 150.6 132 151 130.7 151 C 129.1 151 127.7 150.4 126.8 149.4 C 125.8 148.4 125.3 147 125.3 145.1 C 125.3 143.2 125.8 141.7 126.8 140.6 C 127.8 139.6 129 139 130.6 139 C 132.1 139 133.4 139.6 134.4 140.6 C 135.3 141.6 135.8 143.1 135.8 145 C 135.8 145.1 135.8 145.3 135.8 145.5 C 135.8 145.5 127.3 145.5 127.3 145.5 C 127.4 146.7 127.7 147.7 128.3 148.4 C 129 149 129.8 149.4 130.7 149.4 C 131.4 149.4 132 149.2 132.5 148.8 C 133 148.4 133.4 147.8 133.7 147 Z M 127.4 143.9 C 127.4 143.9 133.8 143.9 133.8 143.9 C 133.7 142.9 133.4 142.2 133 141.7 C 132.4 141 131.6 140.6 130.6 140.6 C 129.7 140.6 129 140.9 128.4 141.5 C 127.8 142.1 127.5 142.9 127.4 143.9 Z M 137.4 147.3 C 137.4 147.3 139.3 147 139.3 147 C 139.4 147.8 139.7 148.4 140.2 148.8 C 140.7 149.2 141.4 149.4 142.3 149.4 C 143.1 149.4 143.8 149.2 144.2 148.8 C 144.7 148.5 144.9 148 144.9 147.6 C 144.9 147.1 144.7 146.8 144.3 146.5 C 144 146.4 143.4 146.1 142.3 145.9 C 140.9 145.5 139.9 145.2 139.4 144.9 C 138.8 144.7 138.4 144.3 138.1 143.9 C 137.9 143.4 137.7 142.9 137.7 142.3 C 137.7 141.8 137.8 141.3 138.1 140.9 C 138.3 140.5 138.6 140.1 139 139.8 C 139.3 139.6 139.7 139.4 140.2 139.3 C 140.8 139.1 141.3 139 141.9 139 C 142.8 139 143.6 139.2 144.3 139.4 C 144.9 139.7 145.4 140 145.8 140.5 C 146.1 140.9 146.3 141.5 146.4 142.2 C 146.4 142.2 144.5 142.5 144.5 142.5 C 144.5 141.9 144.2 141.5 143.8 141.1 C 143.4 140.8 142.8 140.6 142.1 140.6 C 141.2 140.6 140.5 140.8 140.2 141.1 C 139.8 141.4 139.6 141.7 139.6 142.1 C 139.6 142.3 139.7 142.6 139.8 142.8 C 140 143 140.2 143.2 140.6 143.3 C 140.8 143.4 141.3 143.5 142.3 143.8 C 143.6 144.2 144.6 144.4 145.1 144.7 C 145.7 144.9 146.1 145.3 146.4 145.7 C 146.7 146.1 146.9 146.7 146.9 147.4 C 146.9 148 146.7 148.6 146.3 149.2 C 145.9 149.7 145.4 150.2 144.7 150.5 C 144 150.8 143.2 151 142.3 151 C 140.8 151 139.7 150.7 138.9 150 C 138.1 149.4 137.6 148.5 137.4 147.3 Z M 152.5 149 C 152.8 149 153 149 153.4 149 C 153.4 149 153.7 150.7 153.7 150.7 C 153.1 150.8 152.6 150.9 152.2 150.9 C 151.5 150.9 151 150.7 150.6 150.5 C 150.2 150.3 149.9 150 149.8 149.6 C 149.6 149.3 149.5 148.5 149.5 147.4 C 149.52 147.36 149.5 140.8 149.5 140.8 L 148.1 140.8 L 148.1 139.3 L 149.5 139.3 L 149.5 136.5 L 151.4 135.3 L 151.4 139.3 L 153.4 139.3 L 153.4 140.8 L 151.4 140.8 C 151.4 140.8 151.44 147.47 151.4 147.5 C 151.4 148 151.5 148.4 151.5 148.5 C 151.6 148.7 151.7 148.8 151.9 148.9 C 152 149 152.3 149 152.5 149 C 152.5 149 152.5 149 152.5 149 Z M 160.6 147.3 C 160.6 147.3 162.5 147 162.5 147 C 162.6 147.8 162.9 148.4 163.4 148.8 C 163.9 149.2 164.6 149.4 165.5 149.4 C 166.4 149.4 167 149.2 167.5 148.8 C 167.9 148.5 168.1 148 168.1 147.6 C 168.1 147.1 167.9 146.8 167.5 146.5 C 167.3 146.4 166.6 146.1 165.6 145.9 C 164.1 145.5 163.2 145.2 162.6 144.9 C 162.1 144.7 161.6 144.3 161.4 143.9 C 161.1 143.4 160.9 142.9 160.9 142.3 C 160.9 141.8 161.1 141.3 161.3 140.9 C 161.5 140.5 161.8 140.1 162.2 139.8 C 162.5 139.6 162.9 139.4 163.5 139.3 C 164 139.1 164.5 139 165.1 139 C 166 139 166.8 139.2 167.5 139.4 C 168.2 139.7 168.7 140 169 140.5 C 169.3 140.9 169.5 141.5 169.7 142.2 C 169.7 142.2 167.8 142.5 167.8 142.5 C 167.7 141.9 167.4 141.5 167 141.1 C 166.6 140.8 166 140.6 165.3 140.6 C 164.4 140.6 163.8 140.8 163.4 141.1 C 163 141.4 162.8 141.7 162.8 142.1 C 162.8 142.3 162.9 142.6 163 142.8 C 163.2 143 163.4 143.2 163.8 143.3 C 164 143.4 164.5 143.5 165.5 143.8 C 166.9 144.2 167.8 144.4 168.4 144.7 C 168.9 144.9 169.3 145.3 169.6 145.7 C 169.9 146.1 170.1 146.7 170.1 147.4 C 170.1 148 169.9 148.6 169.5 149.2 C 169.2 149.7 168.6 150.2 167.9 150.5 C 167.2 150.8 166.4 151 165.5 151 C 164 151 162.9 150.7 162.1 150 C 161.3 149.4 160.8 148.5 160.6 147.3 Z M 179.9 150.7 C 179.9 150.7 179.87 149.03 179.9 149 C 179 150.3 177.8 151 176.2 151 C 175.6 151 174.9 150.8 174.4 150.6 C 173.8 150.3 173.3 150 173.1 149.6 C 172.8 149.2 172.6 148.7 172.5 148.2 C 172.4 147.8 172.3 147.2 172.3 146.4 C 172.35 146.36 172.3 139.3 172.3 139.3 L 174.3 139.3 C 174.3 139.3 174.28 145.62 174.3 145.6 C 174.3 146.6 174.3 147.3 174.4 147.7 C 174.5 148.2 174.8 148.6 175.2 148.9 C 175.6 149.2 176.1 149.3 176.6 149.3 C 177.2 149.3 177.8 149.1 178.3 148.9 C 178.8 148.6 179.1 148.1 179.3 147.6 C 179.6 147.1 179.7 146.4 179.7 145.4 C 179.66 145.41 179.7 139.3 179.7 139.3 L 181.6 139.3 L 181.6 150.7 L 179.9 150.7 Z M 184.6 137.2 L 184.6 135 L 186.6 135 L 186.6 137.2 L 184.6 137.2 Z M 184.6 150.7 L 184.6 139.3 L 186.6 139.3 L 186.6 150.7 L 184.6 150.7 Z M 192.9 149 C 193.1 149 193.4 149 193.7 149 C 193.7 149 194 150.7 194 150.7 C 193.5 150.8 193 150.9 192.6 150.9 C 191.9 150.9 191.3 150.7 190.9 150.5 C 190.5 150.3 190.3 150 190.1 149.6 C 189.9 149.3 189.9 148.5 189.9 147.4 C 189.87 147.36 189.9 140.8 189.9 140.8 L 188.4 140.8 L 188.4 139.3 L 189.9 139.3 L 189.9 136.5 L 191.8 135.3 L 191.8 139.3 L 193.7 139.3 L 193.7 140.8 L 191.8 140.8 C 191.8 140.8 191.79 147.47 191.8 147.5 C 191.8 148 191.8 148.4 191.9 148.5 C 192 148.7 192.1 148.8 192.2 148.9 C 192.4 149 192.6 149 192.9 149 C 192.9 149 192.9 149 192.9 149 Z M 203.4 147 C 203.4 147 205.4 147.3 205.4 147.3 C 205.1 148.4 204.5 149.4 203.7 150 C 202.8 150.6 201.7 151 200.4 151 C 198.7 151 197.4 150.4 196.4 149.4 C 195.5 148.4 195 147 195 145.1 C 195 143.2 195.5 141.7 196.5 140.6 C 197.5 139.6 198.7 139 200.3 139 C 201.8 139 203.1 139.6 204 140.6 C 205 141.6 205.5 143.1 205.5 145 C 205.5 145.1 205.5 145.3 205.5 145.5 C 205.5 145.5 197 145.5 197 145.5 C 197.1 146.7 197.4 147.7 198 148.4 C 198.7 149 199.5 149.4 200.4 149.4 C 201.1 149.4 201.7 149.2 202.2 148.8 C 202.7 148.4 203.1 147.8 203.4 147 Z M 197.1 143.9 C 197.1 143.9 203.5 143.9 203.5 143.9 C 203.4 142.9 203.1 142.2 202.7 141.7 C 202.1 141 201.3 140.6 200.3 140.6 C 199.4 140.6 198.7 140.9 198.1 141.5 C 197.5 142.1 197.2 142.9 197.1 143.9 Z M 215.3 150.7 C 215.3 150.7 215.26 149.26 215.3 149.3 C 214.5 150.4 213.5 151 212.1 151 C 211.2 151 210.3 150.7 209.6 150.2 C 208.8 149.7 208.2 149 207.8 148.1 C 207.4 147.2 207.2 146.2 207.2 145 C 207.2 143.9 207.4 142.8 207.7 141.9 C 208.1 141 208.7 140.3 209.4 139.8 C 210.2 139.3 211 139 212 139 C 212.7 139 213.3 139.2 213.8 139.5 C 214.4 139.8 214.8 140.1 215.1 140.6 C 215.13 140.61 215.1 135 215.1 135 L 217.1 135 L 217.1 150.7 L 215.3 150.7 Z M 209.1 145 C 209.1 146.5 209.5 147.6 210.1 148.3 C 210.7 149 211.4 149.4 212.3 149.4 C 213.1 149.4 213.8 149 214.4 148.3 C 215 147.6 215.3 146.6 215.3 145.2 C 215.3 143.6 215 142.5 214.4 141.7 C 213.8 141 213 140.6 212.2 140.6 C 211.3 140.6 210.6 141 210 141.7 C 209.4 142.4 209.1 143.5 209.1 145 Z M 229.6 149 C 229.8 149 230.1 149 230.4 149 C 230.4 149 230.7 150.7 230.7 150.7 C 230.2 150.8 229.7 150.9 229.2 150.9 C 228.5 150.9 228 150.7 227.6 150.5 C 227.2 150.3 227 150 226.8 149.6 C 226.6 149.3 226.6 148.5 226.6 147.4 C 226.56 147.36 226.6 140.8 226.6 140.8 L 225.1 140.8 L 225.1 139.3 L 226.6 139.3 L 226.6 136.5 L 228.5 135.3 L 228.5 139.3 L 230.4 139.3 L 230.4 140.8 L 228.5 140.8 C 228.5 140.8 228.49 147.47 228.5 147.5 C 228.5 148 228.5 148.4 228.6 148.5 C 228.7 148.7 228.8 148.8 228.9 148.9 C 229.1 149 229.3 149 229.6 149 C 229.6 149 229.6 149 229.6 149 Z M 231.6 145 C 231.6 142.9 232.2 141.3 233.4 140.3 C 234.3 139.5 235.5 139 237 139 C 238.5 139 239.8 139.6 240.8 140.6 C 241.8 141.6 242.3 143 242.3 144.8 C 242.3 146.3 242.1 147.5 241.6 148.3 C 241.2 149.1 240.5 149.8 239.7 150.3 C 238.9 150.7 237.9 151 237 151 C 235.4 151 234.1 150.4 233.1 149.4 C 232.1 148.4 231.6 146.9 231.6 145 Z M 233.6 145 C 233.6 146.5 233.9 147.6 234.5 148.3 C 235.2 149 236 149.4 237 149.4 C 237.9 149.4 238.7 149 239.3 148.3 C 240 147.5 240.3 146.4 240.3 144.9 C 240.3 143.5 240 142.5 239.3 141.7 C 238.7 141 237.9 140.6 237 140.6 C 236 140.6 235.2 141 234.5 141.7 C 233.9 142.4 233.6 143.5 233.6 145 Z M 254 149 C 254.3 149 254.5 149 254.9 149 C 254.9 149 255.2 150.7 255.2 150.7 C 254.6 150.8 254.1 150.9 253.7 150.9 C 253 150.9 252.5 150.7 252.1 150.5 C 251.7 150.3 251.4 150 251.3 149.6 C 251.1 149.3 251 148.5 251 147.4 C 251.02 147.36 251 140.8 251 140.8 L 249.6 140.8 L 249.6 139.3 L 251 139.3 L 251 136.5 L 252.9 135.3 L 252.9 139.3 L 254.9 139.3 L 254.9 140.8 L 252.9 140.8 C 252.9 140.8 252.95 147.47 252.9 147.5 C 252.9 148 253 148.4 253 148.5 C 253.1 148.7 253.2 148.8 253.4 148.9 C 253.5 149 253.8 149 254 149 C 254 149 254 149 254 149 Z M 264.6 147 C 264.6 147 266.6 147.3 266.6 147.3 C 266.3 148.4 265.7 149.4 264.8 150 C 264 150.6 262.9 151 261.6 151 C 259.9 151 258.6 150.4 257.6 149.4 C 256.6 148.4 256.1 147 256.1 145.1 C 256.1 143.2 256.6 141.7 257.6 140.6 C 258.6 139.6 259.9 139 261.5 139 C 263 139 264.2 139.6 265.2 140.6 C 266.2 141.6 266.7 143.1 266.7 145 C 266.7 145.1 266.6 145.3 266.6 145.5 C 266.6 145.5 258.1 145.5 258.1 145.5 C 258.2 146.7 258.6 147.7 259.2 148.4 C 259.8 149 260.6 149.4 261.6 149.4 C 262.3 149.4 262.9 149.2 263.4 148.8 C 263.9 148.4 264.3 147.8 264.6 147 Z M 258.2 143.9 C 258.2 143.9 264.6 143.9 264.6 143.9 C 264.5 142.9 264.3 142.2 263.9 141.7 C 263.3 141 262.5 140.6 261.5 140.6 C 260.6 140.6 259.9 140.9 259.2 141.5 C 258.6 142.1 258.3 142.9 258.2 143.9 Z M 276.5 146.5 C 276.5 146.5 278.4 146.8 278.4 146.8 C 278.2 148.1 277.6 149.1 276.8 149.8 C 275.9 150.6 274.9 151 273.6 151 C 272.1 151 270.8 150.5 269.8 149.4 C 268.9 148.4 268.4 146.9 268.4 145 C 268.4 143.8 268.6 142.7 269 141.8 C 269.4 140.9 270.1 140.2 270.9 139.7 C 271.7 139.3 272.6 139 273.6 139 C 274.9 139 275.9 139.4 276.7 140 C 277.5 140.6 278 141.5 278.2 142.6 C 278.2 142.6 276.3 142.9 276.3 142.9 C 276.1 142.2 275.8 141.6 275.3 141.2 C 274.9 140.8 274.3 140.6 273.7 140.6 C 272.7 140.6 271.9 141 271.3 141.7 C 270.7 142.4 270.4 143.5 270.4 145 C 270.4 146.5 270.7 147.6 271.3 148.3 C 271.9 149 272.6 149.4 273.6 149.4 C 274.4 149.4 275 149.1 275.5 148.7 C 276 148.2 276.3 147.5 276.5 146.5 Z M 280 150.7 L 280 135 L 281.9 135 C 281.9 135 281.95 140.61 281.9 140.6 C 282.9 139.6 284 139 285.4 139 C 286.2 139 286.9 139.2 287.6 139.5 C 288.2 139.9 288.6 140.3 288.9 140.9 C 289.2 141.5 289.3 142.4 289.3 143.5 C 289.31 143.47 289.3 150.7 289.3 150.7 L 287.4 150.7 C 287.4 150.7 287.37 143.47 287.4 143.5 C 287.4 142.5 287.2 141.8 286.7 141.4 C 286.3 140.9 285.7 140.7 285 140.7 C 284.4 140.7 283.9 140.9 283.4 141.1 C 282.8 141.4 282.5 141.8 282.3 142.4 C 282.1 142.9 281.9 143.6 281.9 144.5 C 281.95 144.46 281.9 150.7 281.9 150.7 L 280 150.7 Z M 292.3 150.7 L 292.3 139.3 L 294 139.3 C 294 139.3 293.99 140.92 294 140.9 C 294.8 139.7 296 139 297.6 139 C 298.3 139 298.9 139.2 299.5 139.4 C 300.1 139.7 300.5 140 300.8 140.4 C 301.1 140.8 301.3 141.3 301.4 141.8 C 301.5 142.2 301.5 142.8 301.5 143.7 C 301.52 143.69 301.5 150.7 301.5 150.7 L 299.6 150.7 C 299.6 150.7 299.59 143.76 299.6 143.8 C 299.6 143 299.5 142.4 299.4 142 C 299.2 141.6 298.9 141.3 298.6 141.1 C 298.2 140.8 297.7 140.7 297.2 140.7 C 296.4 140.7 295.7 141 295.1 141.5 C 294.5 142 294.2 143 294.2 144.5 C 294.19 144.47 294.2 150.7 294.2 150.7 L 292.3 150.7 Z M 304.5 137.2 L 304.5 135 L 306.4 135 L 306.4 137.2 L 304.5 137.2 Z M 304.5 150.7 L 304.5 139.3 L 306.4 139.3 L 306.4 150.7 L 304.5 150.7 Z M 316.8 146.5 C 316.8 146.5 318.7 146.8 318.7 146.8 C 318.5 148.1 318 149.1 317.1 149.8 C 316.3 150.6 315.2 151 314 151 C 312.4 151 311.2 150.5 310.2 149.4 C 309.3 148.4 308.8 146.9 308.8 145 C 308.8 143.8 309 142.7 309.4 141.8 C 309.8 140.9 310.4 140.2 311.3 139.7 C 312.1 139.3 313 139 314 139 C 315.2 139 316.2 139.4 317 140 C 317.8 140.6 318.3 141.5 318.5 142.6 C 318.5 142.6 316.7 142.9 316.7 142.9 C 316.5 142.2 316.2 141.6 315.7 141.2 C 315.3 140.8 314.7 140.6 314.1 140.6 C 313.1 140.6 312.3 141 311.7 141.7 C 311.1 142.4 310.8 143.5 310.8 145 C 310.8 146.5 311.1 147.6 311.7 148.3 C 312.2 149 313 149.4 314 149.4 C 314.7 149.4 315.3 149.1 315.9 148.7 C 316.4 148.2 316.7 147.5 316.8 146.5 Z M 328.2 150.7 C 328 150.3 327.9 149.8 327.8 149.3 C 327.1 149.9 326.4 150.3 325.8 150.6 C 325.1 150.8 324.4 151 323.6 151 C 322.4 151 321.4 150.7 320.7 150 C 320.1 149.4 319.7 148.6 319.7 147.7 C 319.7 147.1 319.8 146.6 320.1 146.2 C 320.4 145.7 320.7 145.3 321.1 145.1 C 321.5 144.8 322 144.6 322.5 144.4 C 322.9 144.3 323.4 144.2 324.2 144.1 C 325.8 143.9 326.9 143.7 327.7 143.5 C 327.7 143.2 327.7 143 327.7 143 C 327.7 142.2 327.5 141.6 327.1 141.3 C 326.6 140.9 325.9 140.6 324.9 140.6 C 324 140.6 323.3 140.8 322.9 141.1 C 322.5 141.4 322.2 142 321.9 142.8 C 321.9 142.8 320.1 142.6 320.1 142.6 C 320.2 141.7 320.5 141.1 320.9 140.6 C 321.3 140.1 321.9 139.7 322.6 139.4 C 323.4 139.2 324.2 139 325.2 139 C 326.2 139 327 139.2 327.6 139.4 C 328.2 139.6 328.6 139.9 328.9 140.2 C 329.2 140.6 329.4 141 329.5 141.6 C 329.6 141.9 329.6 142.5 329.6 143.3 C 329.6 143.3 329.6 145.9 329.6 145.9 C 329.6 147.7 329.7 148.9 329.7 149.3 C 329.8 149.8 330 150.3 330.2 150.7 C 330.23 150.7 328.2 150.7 328.2 150.7 C 328.2 150.7 328.21 150.7 328.2 150.7 Z M 327.7 145 C 327 145.3 325.9 145.5 324.5 145.7 C 323.7 145.8 323.1 146 322.8 146.1 C 322.5 146.2 322.2 146.4 322.1 146.7 C 321.9 147 321.8 147.3 321.8 147.6 C 321.8 148.2 322 148.6 322.4 148.9 C 322.8 149.3 323.3 149.4 324.1 149.4 C 324.8 149.4 325.5 149.3 326.1 149 C 326.6 148.6 327.1 148.2 327.3 147.6 C 327.6 147.2 327.7 146.5 327.7 145.7 C 327.7 145.7 327.7 145 327.7 145 Z M 332.6 150.7 L 332.6 135 L 334.5 135 L 334.5 150.7 L 332.6 150.7 Z M 337.5 150.7 L 337.5 135 L 339.4 135 L 339.4 150.7 L 337.5 150.7 Z M 343.5 155.3 C 343.2 155.3 342.8 155.3 342.3 155.1 C 342.3 155.1 342.1 153.3 342.1 153.3 C 342.5 153.4 342.9 153.5 343.2 153.5 C 343.6 153.5 344 153.4 344.2 153.2 C 344.5 153.1 344.7 152.9 344.9 152.6 C 345 152.4 345.2 152 345.4 151.2 C 345.5 151.1 345.5 150.9 345.6 150.7 C 345.62 150.73 341.3 139.3 341.3 139.3 L 343.4 139.3 C 343.4 139.3 345.75 145.9 345.7 145.9 C 346.1 146.7 346.3 147.6 346.6 148.5 C 346.8 147.7 347.1 146.8 347.4 145.9 C 347.37 145.94 349.8 139.3 349.8 139.3 L 351.7 139.3 C 351.7 139.3 347.4 150.9 347.4 150.9 C 346.9 152.2 346.6 153 346.3 153.5 C 346 154.1 345.6 154.6 345.1 154.9 C 344.7 155.2 344.2 155.3 343.5 155.3 C 343.5 155.3 343.5 155.3 343.5 155.3 Z " stroke="none" fill="#000"/>  </g>  <g id="Polygon7880">    <path d="M 14.2 124.3 L 14.2 108.6 L 16.4 108.6 L 24.7 120.9 L 24.7 108.6 L 26.7 108.6 L 26.7 124.3 L 24.5 124.3 L 16.2 111.9 L 16.2 124.3 L 14.2 124.3 Z M 29.2 118.6 C 29.2 116.5 29.8 114.9 31 113.9 C 31.9 113.1 33.1 112.6 34.5 112.6 C 36.1 112.6 37.4 113.2 38.4 114.2 C 39.4 115.2 39.9 116.6 39.9 118.4 C 39.9 119.9 39.7 121.1 39.2 121.9 C 38.8 122.7 38.1 123.4 37.3 123.9 C 36.5 124.3 35.5 124.6 34.5 124.6 C 32.9 124.6 31.7 124 30.7 123 C 29.7 122 29.2 120.5 29.2 118.6 Z M 31.2 118.6 C 31.2 120.1 31.5 121.2 32.1 121.9 C 32.8 122.6 33.6 123 34.5 123 C 35.5 123 36.3 122.6 36.9 121.9 C 37.6 121.1 37.9 120 37.9 118.5 C 37.9 117.1 37.6 116.1 36.9 115.3 C 36.3 114.6 35.5 114.2 34.5 114.2 C 33.6 114.2 32.8 114.6 32.1 115.3 C 31.5 116 31.2 117.1 31.2 118.6 Z M 45.5 122.6 C 45.7 122.6 46 122.6 46.4 122.6 C 46.4 122.6 46.6 124.3 46.6 124.3 C 46.1 124.4 45.6 124.5 45.2 124.5 C 44.5 124.5 43.9 124.3 43.6 124.1 C 43.2 123.9 42.9 123.6 42.7 123.2 C 42.6 122.9 42.5 122.1 42.5 121 C 42.5 120.96 42.5 114.4 42.5 114.4 L 41.1 114.4 L 41.1 112.9 L 42.5 112.9 L 42.5 110.1 L 44.4 108.9 L 44.4 112.9 L 46.4 112.9 L 46.4 114.4 L 44.4 114.4 C 44.4 114.4 44.42 121.07 44.4 121.1 C 44.4 121.6 44.5 122 44.5 122.1 C 44.6 122.3 44.7 122.4 44.9 122.5 C 45 122.6 45.2 122.6 45.5 122.6 C 45.5 122.6 45.5 122.6 45.5 122.6 Z M 54.3 124.3 L 54.3 112.9 L 56.1 112.9 C 56.1 112.9 56.09 114.62 56.1 114.6 C 56.5 113.8 56.9 113.3 57.3 113 C 57.7 112.8 58.1 112.6 58.6 112.6 C 59.2 112.6 59.9 112.8 60.5 113.3 C 60.5 113.3 59.9 115.1 59.9 115.1 C 59.4 114.8 58.9 114.6 58.5 114.6 C 58 114.6 57.7 114.8 57.3 115 C 57 115.3 56.7 115.6 56.6 116.1 C 56.4 116.8 56.3 117.5 56.3 118.3 C 56.28 118.33 56.3 124.3 56.3 124.3 L 54.3 124.3 Z M 69.5 120.6 C 69.5 120.6 71.5 120.9 71.5 120.9 C 71.2 122 70.6 123 69.8 123.6 C 68.9 124.2 67.8 124.6 66.5 124.6 C 64.8 124.6 63.5 124 62.5 123 C 61.5 122 61.1 120.6 61.1 118.7 C 61.1 116.8 61.5 115.3 62.5 114.2 C 63.5 113.2 64.8 112.6 66.4 112.6 C 67.9 112.6 69.2 113.2 70.1 114.2 C 71.1 115.2 71.6 116.7 71.6 118.6 C 71.6 118.7 71.6 118.9 71.6 119.1 C 71.6 119.1 63.1 119.1 63.1 119.1 C 63.1 120.3 63.5 121.3 64.1 122 C 64.8 122.6 65.5 123 66.5 123 C 67.2 123 67.8 122.8 68.3 122.4 C 68.8 122 69.2 121.4 69.5 120.6 Z M 63.2 117.5 C 63.2 117.5 69.5 117.5 69.5 117.5 C 69.4 116.5 69.2 115.8 68.8 115.3 C 68.2 114.6 67.4 114.2 66.4 114.2 C 65.5 114.2 64.8 114.5 64.2 115.1 C 63.6 115.7 63.2 116.5 63.2 117.5 Z M 81.2 128.7 C 81.2 128.7 81.21 123.09 81.2 123.1 C 80.9 123.5 80.5 123.9 79.9 124.1 C 79.4 124.4 78.8 124.6 78.2 124.6 C 76.9 124.6 75.7 124 74.7 122.9 C 73.7 121.9 73.3 120.4 73.3 118.5 C 73.3 117.3 73.5 116.3 73.9 115.4 C 74.2 114.5 74.8 113.8 75.6 113.3 C 76.3 112.9 77.2 112.6 78.1 112.6 C 79.5 112.6 80.6 113.2 81.4 114.4 C 81.4 114.42 81.4 112.9 81.4 112.9 L 83.1 112.9 L 83.1 128.7 L 81.2 128.7 Z M 75.2 118.6 C 75.2 120 75.6 121.1 76.2 121.9 C 76.8 122.6 77.5 123 78.4 123 C 79.2 123 79.9 122.6 80.5 121.9 C 81.1 121.2 81.4 120.2 81.4 118.7 C 81.4 117.2 81.1 116.1 80.5 115.3 C 79.8 114.5 79.1 114.2 78.3 114.2 C 77.4 114.2 76.7 114.5 76.1 115.2 C 75.5 115.9 75.2 117.1 75.2 118.6 Z M 93.6 124.3 C 93.6 124.3 93.64 122.63 93.6 122.6 C 92.8 123.9 91.5 124.6 90 124.6 C 89.4 124.6 88.7 124.4 88.1 124.2 C 87.6 123.9 87.1 123.6 86.8 123.2 C 86.6 122.8 86.4 122.3 86.2 121.8 C 86.2 121.4 86.1 120.8 86.1 120 C 86.12 119.96 86.1 112.9 86.1 112.9 L 88.1 112.9 C 88.1 112.9 88.06 119.22 88.1 119.2 C 88.1 120.2 88.1 120.9 88.2 121.3 C 88.3 121.8 88.6 122.2 89 122.5 C 89.3 122.8 89.8 122.9 90.4 122.9 C 91 122.9 91.5 122.7 92 122.5 C 92.6 122.2 92.9 121.7 93.1 121.2 C 93.3 120.7 93.4 120 93.4 119 C 93.44 119.01 93.4 112.9 93.4 112.9 L 95.4 112.9 L 95.4 124.3 L 93.6 124.3 Z M 98.4 110.8 L 98.4 108.6 L 100.3 108.6 L 100.3 110.8 L 98.4 110.8 Z M 98.4 124.3 L 98.4 112.9 L 100.3 112.9 L 100.3 124.3 L 98.4 124.3 Z M 103.3 124.3 L 103.3 112.9 L 105 112.9 C 105 112.9 105.01 114.62 105 114.6 C 105.5 113.8 105.9 113.3 106.2 113 C 106.6 112.8 107 112.6 107.5 112.6 C 108.1 112.6 108.8 112.8 109.5 113.3 C 109.5 113.3 108.8 115.1 108.8 115.1 C 108.3 114.8 107.9 114.6 107.4 114.6 C 107 114.6 106.6 114.8 106.2 115 C 105.9 115.3 105.7 115.6 105.5 116.1 C 105.3 116.8 105.2 117.5 105.2 118.3 C 105.2 118.33 105.2 124.3 105.2 124.3 L 103.3 124.3 Z M 118.4 120.6 C 118.4 120.6 120.4 120.9 120.4 120.9 C 120.1 122 119.5 123 118.7 123.6 C 117.8 124.2 116.7 124.6 115.4 124.6 C 113.7 124.6 112.4 124 111.4 123 C 110.5 122 110 120.6 110 118.7 C 110 116.8 110.5 115.3 111.5 114.2 C 112.4 113.2 113.7 112.6 115.3 112.6 C 116.8 112.6 118.1 113.2 119 114.2 C 120 115.2 120.5 116.7 120.5 118.6 C 120.5 118.7 120.5 118.9 120.5 119.1 C 120.5 119.1 112 119.1 112 119.1 C 112 120.3 112.4 121.3 113 122 C 113.7 122.6 114.5 123 115.4 123 C 116.1 123 116.7 122.8 117.2 122.4 C 117.7 122 118.1 121.4 118.4 120.6 Z M 112.1 117.5 C 112.1 117.5 118.4 117.5 118.4 117.5 C 118.4 116.5 118.1 115.8 117.7 115.3 C 117.1 114.6 116.3 114.2 115.3 114.2 C 114.4 114.2 113.7 114.5 113.1 115.1 C 112.5 115.7 112.1 116.5 112.1 117.5 Z M 130.3 124.3 C 130.3 124.3 130.25 122.86 130.3 122.9 C 129.5 124 128.5 124.6 127.1 124.6 C 126.2 124.6 125.3 124.3 124.6 123.8 C 123.8 123.3 123.2 122.6 122.8 121.7 C 122.4 120.8 122.2 119.8 122.2 118.6 C 122.2 117.5 122.3 116.4 122.7 115.5 C 123.1 114.6 123.7 113.9 124.4 113.4 C 125.2 112.9 126 112.6 127 112.6 C 127.7 112.6 128.3 112.8 128.8 113.1 C 129.4 113.4 129.8 113.7 130.1 114.2 C 130.12 114.21 130.1 108.6 130.1 108.6 L 132 108.6 L 132 124.3 L 130.3 124.3 Z M 124.1 118.6 C 124.1 120.1 124.4 121.2 125.1 121.9 C 125.7 122.6 126.4 123 127.2 123 C 128.1 123 128.8 122.6 129.4 121.9 C 130 121.2 130.3 120.2 130.3 118.8 C 130.3 117.2 130 116.1 129.4 115.3 C 128.8 114.6 128 114.2 127.2 114.2 C 126.3 114.2 125.6 114.6 125 115.3 C 124.4 116 124.1 117.1 124.1 118.6 Z M 141.7 124.3 L 141.7 114.4 L 140 114.4 L 140 112.9 L 141.7 112.9 C 141.7 112.9 141.66 111.68 141.7 111.7 C 141.7 110.9 141.7 110.3 141.9 110 C 142.1 109.5 142.4 109.1 142.8 108.8 C 143.3 108.4 144 108.3 144.8 108.3 C 145.4 108.3 146 108.4 146.6 108.5 C 146.6 108.5 146.3 110.2 146.3 110.2 C 145.9 110.1 145.6 110.1 145.2 110.1 C 144.6 110.1 144.2 110.2 144 110.4 C 143.7 110.7 143.6 111.2 143.6 111.8 C 143.58 111.84 143.6 112.9 143.6 112.9 L 145.8 112.9 L 145.8 114.4 L 143.6 114.4 L 143.6 124.3 L 141.7 124.3 Z M 146.6 118.6 C 146.6 116.5 147.2 114.9 148.4 113.9 C 149.3 113.1 150.5 112.6 151.9 112.6 C 153.5 112.6 154.8 113.2 155.8 114.2 C 156.8 115.2 157.3 116.6 157.3 118.4 C 157.3 119.9 157.1 121.1 156.6 121.9 C 156.2 122.7 155.5 123.4 154.7 123.9 C 153.9 124.3 152.9 124.6 151.9 124.6 C 150.3 124.6 149.1 124 148.1 123 C 147.1 122 146.6 120.5 146.6 118.6 Z M 148.6 118.6 C 148.6 120.1 148.9 121.2 149.5 121.9 C 150.2 122.6 151 123 151.9 123 C 152.9 123 153.7 122.6 154.3 121.9 C 155 121.1 155.3 120 155.3 118.5 C 155.3 117.1 155 116.1 154.3 115.3 C 153.7 114.6 152.9 114.2 151.9 114.2 C 151 114.2 150.2 114.6 149.5 115.3 C 148.9 116 148.6 117.1 148.6 118.6 Z M 159.5 124.3 L 159.5 112.9 L 161.3 112.9 C 161.3 112.9 161.27 114.62 161.3 114.6 C 161.7 113.8 162.1 113.3 162.5 113 C 162.9 112.8 163.3 112.6 163.7 112.6 C 164.4 112.6 165.1 112.8 165.7 113.3 C 165.7 113.3 165.1 115.1 165.1 115.1 C 164.6 114.8 164.1 114.6 163.6 114.6 C 163.2 114.6 162.8 114.8 162.5 115 C 162.2 115.3 161.9 115.6 161.8 116.1 C 161.6 116.8 161.5 117.5 161.5 118.3 C 161.46 118.33 161.5 124.3 161.5 124.3 L 159.5 124.3 Z M 176.4 122.6 C 176.6 122.6 176.9 122.6 177.2 122.6 C 177.2 122.6 177.5 124.3 177.5 124.3 C 176.9 124.4 176.5 124.5 176 124.5 C 175.3 124.5 174.8 124.3 174.4 124.1 C 174 123.9 173.7 123.6 173.6 123.2 C 173.4 122.9 173.3 122.1 173.3 121 C 173.34 120.96 173.3 114.4 173.3 114.4 L 171.9 114.4 L 171.9 112.9 L 173.3 112.9 L 173.3 110.1 L 175.3 108.9 L 175.3 112.9 L 177.2 112.9 L 177.2 114.4 L 175.3 114.4 C 175.3 114.4 175.26 121.07 175.3 121.1 C 175.3 121.6 175.3 122 175.4 122.1 C 175.4 122.3 175.5 122.4 175.7 122.5 C 175.9 122.6 176.1 122.6 176.4 122.6 C 176.4 122.6 176.4 122.6 176.4 122.6 Z M 179.1 124.3 L 179.1 108.6 L 181 108.6 C 181 108.6 181.03 114.21 181 114.2 C 181.9 113.2 183.1 112.6 184.4 112.6 C 185.3 112.6 186 112.8 186.7 113.1 C 187.3 113.5 187.7 113.9 188 114.5 C 188.3 115.1 188.4 116 188.4 117.1 C 188.39 117.07 188.4 124.3 188.4 124.3 L 186.5 124.3 C 186.5 124.3 186.46 117.07 186.5 117.1 C 186.5 116.1 186.2 115.4 185.8 115 C 185.4 114.5 184.8 114.3 184.1 114.3 C 183.5 114.3 182.9 114.5 182.4 114.7 C 181.9 115 181.6 115.4 181.4 116 C 181.1 116.5 181 117.2 181 118.1 C 181.03 118.06 181 124.3 181 124.3 L 179.1 124.3 Z M 199.1 120.6 C 199.1 120.6 201.1 120.9 201.1 120.9 C 200.8 122 200.2 123 199.4 123.6 C 198.5 124.2 197.4 124.6 196.1 124.6 C 194.5 124.6 193.1 124 192.2 123 C 191.2 122 190.7 120.6 190.7 118.7 C 190.7 116.8 191.2 115.3 192.2 114.2 C 193.2 113.2 194.4 112.6 196 112.6 C 197.5 112.6 198.8 113.2 199.8 114.2 C 200.7 115.2 201.2 116.7 201.2 118.6 C 201.2 118.7 201.2 118.9 201.2 119.1 C 201.2 119.1 192.7 119.1 192.7 119.1 C 192.8 120.3 193.1 121.3 193.8 122 C 194.4 122.6 195.2 123 196.1 123 C 196.8 123 197.4 122.8 198 122.4 C 198.5 122 198.8 121.4 199.1 120.6 Z M 192.8 117.5 C 192.8 117.5 199.2 117.5 199.2 117.5 C 199.1 116.5 198.8 115.8 198.4 115.3 C 197.8 114.6 197 114.2 196 114.2 C 195.2 114.2 194.4 114.5 193.8 115.1 C 193.2 115.7 192.9 116.5 192.8 117.5 Z M 217.5 124.3 C 217.3 123.9 217.2 123.4 217.1 122.9 C 216.4 123.5 215.7 123.9 215.1 124.2 C 214.4 124.4 213.7 124.6 212.9 124.6 C 211.7 124.6 210.7 124.3 210 123.6 C 209.4 123 209 122.2 209 121.3 C 209 120.7 209.2 120.2 209.4 119.8 C 209.7 119.3 210 118.9 210.4 118.7 C 210.8 118.4 211.3 118.2 211.8 118 C 212.2 117.9 212.8 117.8 213.5 117.7 C 215.1 117.5 216.2 117.3 217 117.1 C 217 116.8 217 116.6 217 116.6 C 217 115.8 216.8 115.2 216.4 114.9 C 215.9 114.5 215.2 114.2 214.2 114.2 C 213.3 114.2 212.6 114.4 212.2 114.7 C 211.8 115 211.5 115.6 211.2 116.4 C 211.2 116.4 209.4 116.2 209.4 116.2 C 209.5 115.3 209.8 114.7 210.2 114.2 C 210.6 113.7 211.2 113.3 211.9 113 C 212.7 112.8 213.5 112.6 214.5 112.6 C 215.5 112.6 216.3 112.8 216.9 113 C 217.5 113.2 217.9 113.5 218.2 113.8 C 218.5 114.2 218.7 114.6 218.8 115.2 C 218.9 115.5 218.9 116.1 218.9 116.9 C 218.9 116.9 218.9 119.5 218.9 119.5 C 218.9 121.3 219 122.5 219 122.9 C 219.1 123.4 219.3 123.9 219.5 124.3 C 219.53 124.3 217.5 124.3 217.5 124.3 C 217.5 124.3 217.51 124.3 217.5 124.3 Z M 217 118.6 C 216.3 118.9 215.2 119.1 213.8 119.3 C 213 119.4 212.4 119.6 212.1 119.7 C 211.8 119.8 211.5 120 211.4 120.3 C 211.2 120.6 211.1 120.9 211.1 121.2 C 211.1 121.8 211.3 122.2 211.7 122.5 C 212.1 122.9 212.6 123 213.4 123 C 214.1 123 214.8 122.9 215.4 122.6 C 216 122.2 216.4 121.8 216.7 121.2 C 216.9 120.8 217 120.1 217 119.3 C 217 119.3 217 118.6 217 118.6 Z M 221.9 128.7 L 221.9 112.9 L 223.7 112.9 C 223.7 112.9 223.68 114.38 223.7 114.4 C 224.1 113.8 224.6 113.4 225.1 113.1 C 225.6 112.8 226.2 112.6 227 112.6 C 228 112.6 228.8 112.9 229.6 113.4 C 230.3 113.9 230.9 114.6 231.3 115.5 C 231.6 116.4 231.8 117.4 231.8 118.5 C 231.8 119.7 231.6 120.7 231.2 121.7 C 230.8 122.6 230.2 123.3 229.4 123.8 C 228.6 124.3 227.7 124.6 226.8 124.6 C 226.2 124.6 225.6 124.4 225.1 124.2 C 224.6 123.9 224.2 123.5 223.9 123.1 C 223.85 123.12 223.9 128.7 223.9 128.7 L 221.9 128.7 Z M 223.7 118.7 C 223.7 120.1 224 121.2 224.6 121.9 C 225.2 122.6 225.9 123 226.7 123 C 227.6 123 228.3 122.6 228.9 121.9 C 229.5 121.2 229.8 120 229.8 118.5 C 229.8 117 229.5 116 228.9 115.2 C 228.3 114.5 227.6 114.2 226.8 114.2 C 226 114.2 225.3 114.5 224.6 115.3 C 224 116.1 223.7 117.2 223.7 118.7 Z M 234.2 128.7 L 234.2 112.9 L 235.9 112.9 C 235.9 112.9 235.91 114.38 235.9 114.4 C 236.3 113.8 236.8 113.4 237.3 113.1 C 237.8 112.8 238.5 112.6 239.2 112.6 C 240.2 112.6 241.1 112.9 241.8 113.4 C 242.5 113.9 243.1 114.6 243.5 115.5 C 243.9 116.4 244.1 117.4 244.1 118.5 C 244.1 119.7 243.8 120.7 243.4 121.7 C 243 122.6 242.4 123.3 241.6 123.8 C 240.8 124.3 240 124.6 239.1 124.6 C 238.4 124.6 237.9 124.4 237.3 124.2 C 236.8 123.9 236.4 123.5 236.1 123.1 C 236.09 123.12 236.1 128.7 236.1 128.7 L 234.2 128.7 Z M 235.9 118.7 C 235.9 120.1 236.2 121.2 236.8 121.9 C 237.4 122.6 238.1 123 239 123 C 239.8 123 240.5 122.6 241.2 121.9 C 241.8 121.2 242.1 120 242.1 118.5 C 242.1 117 241.8 116 241.2 115.2 C 240.6 114.5 239.9 114.2 239 114.2 C 238.2 114.2 237.5 114.5 236.9 115.3 C 236.2 116.1 235.9 117.2 235.9 118.7 Z M 246.4 124.3 L 246.4 112.9 L 248.1 112.9 C 248.1 112.9 248.11 114.62 248.1 114.6 C 248.6 113.8 249 113.3 249.3 113 C 249.7 112.8 250.1 112.6 250.6 112.6 C 251.2 112.6 251.9 112.8 252.6 113.3 C 252.6 113.3 251.9 115.1 251.9 115.1 C 251.4 114.8 251 114.6 250.5 114.6 C 250.1 114.6 249.7 114.8 249.3 115 C 249 115.3 248.8 115.6 248.6 116.1 C 248.4 116.8 248.3 117.5 248.3 118.3 C 248.3 118.33 248.3 124.3 248.3 124.3 L 246.4 124.3 Z M 261.5 120.6 C 261.5 120.6 263.5 120.9 263.5 120.9 C 263.2 122 262.6 123 261.8 123.6 C 260.9 124.2 259.8 124.6 258.5 124.6 C 256.8 124.6 255.5 124 254.5 123 C 253.6 122 253.1 120.6 253.1 118.7 C 253.1 116.8 253.6 115.3 254.6 114.2 C 255.5 113.2 256.8 112.6 258.4 112.6 C 259.9 112.6 261.2 113.2 262.1 114.2 C 263.1 115.2 263.6 116.7 263.6 118.6 C 263.6 118.7 263.6 118.9 263.6 119.1 C 263.6 119.1 255.1 119.1 255.1 119.1 C 255.1 120.3 255.5 121.3 256.1 122 C 256.8 122.6 257.6 123 258.5 123 C 259.2 123 259.8 122.8 260.3 122.4 C 260.8 122 261.2 121.4 261.5 120.6 Z M 255.2 117.5 C 255.2 117.5 261.5 117.5 261.5 117.5 C 261.5 116.5 261.2 115.8 260.8 115.3 C 260.2 114.6 259.4 114.2 258.4 114.2 C 257.5 114.2 256.8 114.5 256.2 115.1 C 255.6 115.7 255.2 116.5 255.2 117.5 Z M 265.9 124.3 L 265.9 112.9 L 267.7 112.9 C 267.7 112.9 267.69 114.52 267.7 114.5 C 268.5 113.3 269.7 112.6 271.3 112.6 C 272 112.6 272.6 112.8 273.2 113 C 273.8 113.3 274.2 113.6 274.5 114 C 274.8 114.4 275 114.9 275.1 115.4 C 275.2 115.8 275.2 116.4 275.2 117.3 C 275.22 117.29 275.2 124.3 275.2 124.3 L 273.3 124.3 C 273.3 124.3 273.29 117.36 273.3 117.4 C 273.3 116.6 273.2 116 273.1 115.6 C 272.9 115.2 272.6 114.9 272.3 114.7 C 271.9 114.4 271.4 114.3 270.9 114.3 C 270.1 114.3 269.4 114.6 268.8 115.1 C 268.2 115.6 267.9 116.6 267.9 118.1 C 267.88 118.07 267.9 124.3 267.9 124.3 L 265.9 124.3 Z M 281.6 122.6 C 281.8 122.6 282.1 122.6 282.4 122.6 C 282.4 122.6 282.7 124.3 282.7 124.3 C 282.1 124.4 281.7 124.5 281.2 124.5 C 280.5 124.5 280 124.3 279.6 124.1 C 279.2 123.9 278.9 123.6 278.8 123.2 C 278.6 122.9 278.5 122.1 278.5 121 C 278.54 120.96 278.5 114.4 278.5 114.4 L 277.1 114.4 L 277.1 112.9 L 278.5 112.9 L 278.5 110.1 L 280.5 108.9 L 280.5 112.9 L 282.4 112.9 L 282.4 114.4 L 280.5 114.4 C 280.5 114.4 280.46 121.07 280.5 121.1 C 280.5 121.6 280.5 122 280.6 122.1 C 280.6 122.3 280.7 122.4 280.9 122.5 C 281.1 122.6 281.3 122.6 281.6 122.6 C 281.6 122.6 281.6 122.6 281.6 122.6 Z M 284.3 110.8 L 284.3 108.6 L 286.2 108.6 L 286.2 110.8 L 284.3 110.8 Z M 284.3 124.3 L 284.3 112.9 L 286.2 112.9 L 286.2 124.3 L 284.3 124.3 Z M 296.6 120.1 C 296.6 120.1 298.5 120.4 298.5 120.4 C 298.3 121.7 297.8 122.7 296.9 123.4 C 296.1 124.2 295 124.6 293.8 124.6 C 292.2 124.6 291 124.1 290 123 C 289.1 122 288.6 120.5 288.6 118.6 C 288.6 117.4 288.8 116.3 289.2 115.4 C 289.6 114.5 290.2 113.8 291.1 113.3 C 291.9 112.9 292.8 112.6 293.8 112.6 C 295 112.6 296 113 296.8 113.6 C 297.6 114.2 298.1 115.1 298.3 116.2 C 298.3 116.2 296.5 116.5 296.5 116.5 C 296.3 115.8 296 115.2 295.5 114.8 C 295.1 114.4 294.5 114.2 293.9 114.2 C 292.9 114.2 292.1 114.6 291.5 115.3 C 290.9 116 290.6 117.1 290.6 118.6 C 290.6 120.1 290.9 121.2 291.5 121.9 C 292 122.6 292.8 123 293.8 123 C 294.5 123 295.2 122.7 295.7 122.3 C 296.2 121.8 296.5 121.1 296.6 120.1 Z M 308 120.6 C 308 120.6 310 120.9 310 120.9 C 309.7 122 309.1 123 308.2 123.6 C 307.4 124.2 306.3 124.6 305 124.6 C 303.3 124.6 302 124 301 123 C 300 122 299.5 120.6 299.5 118.7 C 299.5 116.8 300 115.3 301 114.2 C 302 113.2 303.3 112.6 304.9 112.6 C 306.4 112.6 307.6 113.2 308.6 114.2 C 309.6 115.2 310.1 116.7 310.1 118.6 C 310.1 118.7 310.1 118.9 310 119.1 C 310 119.1 301.5 119.1 301.5 119.1 C 301.6 120.3 302 121.3 302.6 122 C 303.2 122.6 304 123 305 123 C 305.7 123 306.3 122.8 306.8 122.4 C 307.3 122 307.7 121.4 308 120.6 Z M 301.6 117.5 C 301.6 117.5 308 117.5 308 117.5 C 307.9 116.5 307.7 115.8 307.3 115.3 C 306.7 114.6 305.9 114.2 304.9 114.2 C 304 114.2 303.3 114.5 302.6 115.1 C 302 115.7 301.7 116.5 301.6 117.5 Z M 311.6 120.9 C 311.6 120.9 313.6 120.6 313.6 120.6 C 313.7 121.4 314 122 314.5 122.4 C 314.9 122.8 315.6 123 316.5 123 C 317.4 123 318.1 122.8 318.5 122.4 C 318.9 122.1 319.1 121.6 319.1 121.2 C 319.1 120.7 318.9 120.4 318.6 120.1 C 318.3 120 317.6 119.7 316.6 119.5 C 315.2 119.1 314.2 118.8 313.6 118.5 C 313.1 118.3 312.7 117.9 312.4 117.5 C 312.1 117 312 116.5 312 115.9 C 312 115.4 312.1 114.9 312.3 114.5 C 312.6 114.1 312.9 113.7 313.3 113.4 C 313.6 113.2 314 113 314.5 112.9 C 315 112.7 315.6 112.6 316.2 112.6 C 317.1 112.6 317.9 112.8 318.5 113 C 319.2 113.3 319.7 113.6 320 114.1 C 320.3 114.5 320.6 115.1 320.7 115.8 C 320.7 115.8 318.8 116.1 318.8 116.1 C 318.7 115.5 318.5 115.1 318.1 114.7 C 317.6 114.4 317.1 114.2 316.3 114.2 C 315.4 114.2 314.8 114.4 314.4 114.7 C 314 115 313.8 115.3 313.8 115.7 C 313.8 115.9 313.9 116.2 314.1 116.4 C 314.2 116.6 314.5 116.8 314.8 116.9 C 315 117 315.6 117.1 316.5 117.4 C 317.9 117.8 318.8 118 319.4 118.3 C 319.9 118.5 320.4 118.9 320.7 119.3 C 321 119.7 321.1 120.3 321.1 121 C 321.1 121.6 320.9 122.2 320.6 122.8 C 320.2 123.3 319.6 123.8 318.9 124.1 C 318.2 124.4 317.4 124.6 316.5 124.6 C 315 124.6 313.9 124.3 313.1 123.6 C 312.4 123 311.9 122.1 311.6 120.9 Z M 323.4 124.3 L 323.4 108.6 L 325.4 108.6 C 325.4 108.6 325.35 114.21 325.4 114.2 C 326.3 113.2 327.4 112.6 328.8 112.6 C 329.6 112.6 330.3 112.8 331 113.1 C 331.6 113.5 332 113.9 332.3 114.5 C 332.6 115.1 332.7 116 332.7 117.1 C 332.71 117.07 332.7 124.3 332.7 124.3 L 330.8 124.3 C 330.8 124.3 330.78 117.07 330.8 117.1 C 330.8 116.1 330.6 115.4 330.1 115 C 329.7 114.5 329.1 114.3 328.4 114.3 C 327.8 114.3 327.3 114.5 326.8 114.7 C 326.3 115 325.9 115.4 325.7 116 C 325.5 116.5 325.4 117.2 325.4 118.1 C 325.35 118.06 325.4 124.3 325.4 124.3 L 323.4 124.3 Z M 335.7 110.8 L 335.7 108.6 L 337.6 108.6 L 337.6 110.8 L 335.7 110.8 Z M 335.7 124.3 L 335.7 112.9 L 337.6 112.9 L 337.6 124.3 L 335.7 124.3 Z M 340.5 128.7 L 340.5 112.9 L 342.3 112.9 C 342.3 112.9 342.3 114.38 342.3 114.4 C 342.7 113.8 343.2 113.4 343.7 113.1 C 344.2 112.8 344.9 112.6 345.6 112.6 C 346.6 112.6 347.4 112.9 348.2 113.4 C 348.9 113.9 349.5 114.6 349.9 115.5 C 350.3 116.4 350.4 117.4 350.4 118.5 C 350.4 119.7 350.2 120.7 349.8 121.7 C 349.4 122.6 348.8 123.3 348 123.8 C 347.2 124.3 346.4 124.6 345.5 124.6 C 344.8 124.6 344.3 124.4 343.7 124.2 C 343.2 123.9 342.8 123.5 342.5 123.1 C 342.48 123.12 342.5 128.7 342.5 128.7 L 340.5 128.7 Z M 342.3 118.7 C 342.3 120.1 342.6 121.2 343.2 121.9 C 343.8 122.6 344.5 123 345.3 123 C 346.2 123 346.9 122.6 347.6 121.9 C 348.2 121.2 348.5 120 348.5 118.5 C 348.5 117 348.2 116 347.6 115.2 C 347 114.5 346.3 114.2 345.4 114.2 C 344.6 114.2 343.9 114.5 343.2 115.3 C 342.6 116.1 342.3 117.2 342.3 118.7 Z " stroke="none" fill="#000"/>  </g>  <g id="Polygon7879">    <path d="M 11.6 97.9 L 11.6 82.2 L 13.7 82.2 L 13.7 97.9 L 11.6 97.9 Z M 24.5 97.9 C 24.5 97.9 24.5 96.46 24.5 96.5 C 23.8 97.6 22.7 98.2 21.3 98.2 C 20.4 98.2 19.6 97.9 18.8 97.4 C 18 96.9 17.4 96.2 17 95.3 C 16.6 94.4 16.4 93.4 16.4 92.2 C 16.4 91.1 16.6 90 17 89.1 C 17.3 88.2 17.9 87.5 18.7 87 C 19.4 86.5 20.3 86.2 21.2 86.2 C 21.9 86.2 22.5 86.4 23.1 86.7 C 23.6 87 24 87.3 24.4 87.8 C 24.37 87.81 24.4 82.2 24.4 82.2 L 26.3 82.2 L 26.3 97.9 L 24.5 97.9 Z M 18.4 92.2 C 18.4 93.7 18.7 94.8 19.3 95.5 C 19.9 96.2 20.7 96.6 21.5 96.6 C 22.3 96.6 23.1 96.2 23.6 95.5 C 24.2 94.8 24.5 93.8 24.5 92.4 C 24.5 90.8 24.2 89.7 23.6 88.9 C 23 88.2 22.3 87.8 21.4 87.8 C 20.5 87.8 19.8 88.2 19.2 88.9 C 18.7 89.6 18.4 90.7 18.4 92.2 Z M 37.1 94.2 C 37.1 94.2 39.1 94.5 39.1 94.5 C 38.8 95.6 38.2 96.6 37.4 97.2 C 36.5 97.8 35.4 98.2 34.1 98.2 C 32.5 98.2 31.1 97.6 30.2 96.6 C 29.2 95.6 28.7 94.2 28.7 92.3 C 28.7 90.4 29.2 88.9 30.2 87.8 C 31.2 86.8 32.4 86.2 34 86.2 C 35.5 86.2 36.8 86.8 37.8 87.8 C 38.7 88.8 39.2 90.3 39.2 92.2 C 39.2 92.3 39.2 92.5 39.2 92.7 C 39.2 92.7 30.7 92.7 30.7 92.7 C 30.8 93.9 31.1 94.9 31.7 95.6 C 32.4 96.2 33.2 96.6 34.1 96.6 C 34.8 96.6 35.4 96.4 35.9 96 C 36.4 95.6 36.8 95 37.1 94.2 Z M 30.8 91.1 C 30.8 91.1 37.2 91.1 37.2 91.1 C 37.1 90.1 36.8 89.4 36.4 88.9 C 35.8 88.2 35 87.8 34 87.8 C 33.1 87.8 32.4 88.1 31.8 88.7 C 31.2 89.3 30.9 90.1 30.8 91.1 Z M 49.4 97.9 C 49.2 97.5 49.1 97 49 96.5 C 48.3 97.1 47.6 97.5 46.9 97.8 C 46.3 98 45.6 98.2 44.8 98.2 C 43.6 98.2 42.6 97.9 41.9 97.2 C 41.2 96.6 40.9 95.8 40.9 94.9 C 40.9 94.3 41 93.8 41.3 93.4 C 41.5 92.9 41.9 92.5 42.3 92.3 C 42.7 92 43.2 91.8 43.7 91.6 C 44.1 91.5 44.6 91.4 45.4 91.3 C 47 91.1 48.1 90.9 48.8 90.7 C 48.9 90.4 48.9 90.2 48.9 90.2 C 48.9 89.4 48.7 88.8 48.3 88.5 C 47.8 88.1 47.1 87.8 46.1 87.8 C 45.2 87.8 44.5 88 44.1 88.3 C 43.7 88.6 43.3 89.2 43.1 90 C 43.1 90 41.2 89.8 41.2 89.8 C 41.4 88.9 41.7 88.3 42.1 87.8 C 42.5 87.3 43.1 86.9 43.8 86.6 C 44.5 86.4 45.4 86.2 46.4 86.2 C 47.4 86.2 48.2 86.4 48.8 86.6 C 49.4 86.8 49.8 87.1 50.1 87.4 C 50.4 87.8 50.6 88.2 50.7 88.8 C 50.8 89.1 50.8 89.7 50.8 90.5 C 50.8 90.5 50.8 93.1 50.8 93.1 C 50.8 94.9 50.8 96.1 50.9 96.5 C 51 97 51.2 97.5 51.4 97.9 C 51.42 97.9 49.4 97.9 49.4 97.9 C 49.4 97.9 49.4 97.9 49.4 97.9 Z M 48.8 92.2 C 48.1 92.5 47.1 92.7 45.7 92.9 C 44.9 93 44.3 93.2 44 93.3 C 43.7 93.4 43.4 93.6 43.2 93.9 C 43.1 94.2 43 94.5 43 94.8 C 43 95.4 43.2 95.8 43.6 96.1 C 43.9 96.5 44.5 96.6 45.3 96.6 C 46 96.6 46.7 96.5 47.3 96.2 C 47.8 95.8 48.3 95.4 48.5 94.8 C 48.7 94.4 48.8 93.7 48.8 92.9 C 48.8 92.9 48.8 92.2 48.8 92.2 Z M 53.8 97.9 L 53.8 82.2 L 55.7 82.2 L 55.7 97.9 L 53.8 97.9 Z M 65.3 97.9 L 65.3 88 L 63.6 88 L 63.6 86.5 L 65.3 86.5 C 65.3 86.5 65.26 85.28 65.3 85.3 C 65.3 84.5 65.3 83.9 65.5 83.6 C 65.7 83.1 66 82.7 66.5 82.4 C 66.9 82 67.6 81.9 68.4 81.9 C 69 81.9 69.6 82 70.2 82.1 C 70.2 82.1 69.9 83.8 69.9 83.8 C 69.5 83.7 69.2 83.7 68.8 83.7 C 68.2 83.7 67.8 83.8 67.6 84 C 67.3 84.3 67.2 84.8 67.2 85.4 C 67.19 85.44 67.2 86.5 67.2 86.5 L 69.4 86.5 L 69.4 88 L 67.2 88 L 67.2 97.9 L 65.3 97.9 Z M 70.2 92.2 C 70.2 90.1 70.8 88.5 72 87.5 C 72.9 86.7 74.1 86.2 75.5 86.2 C 77.1 86.2 78.4 86.8 79.4 87.8 C 80.4 88.8 80.9 90.2 80.9 92 C 80.9 93.5 80.7 94.7 80.2 95.5 C 79.8 96.3 79.1 97 78.3 97.5 C 77.5 97.9 76.5 98.2 75.5 98.2 C 73.9 98.2 72.7 97.6 71.7 96.6 C 70.7 95.6 70.2 94.1 70.2 92.2 Z M 72.2 92.2 C 72.2 93.7 72.5 94.8 73.1 95.5 C 73.8 96.2 74.6 96.6 75.5 96.6 C 76.5 96.6 77.3 96.2 77.9 95.5 C 78.6 94.7 78.9 93.6 78.9 92.1 C 78.9 90.7 78.6 89.7 77.9 88.9 C 77.3 88.2 76.5 87.8 75.5 87.8 C 74.6 87.8 73.8 88.2 73.1 88.9 C 72.5 89.6 72.2 90.7 72.2 92.2 Z M 83.1 97.9 L 83.1 86.5 L 84.9 86.5 C 84.9 86.5 84.87 88.22 84.9 88.2 C 85.3 87.4 85.7 86.9 86.1 86.6 C 86.5 86.4 86.9 86.2 87.3 86.2 C 88 86.2 88.7 86.4 89.3 86.9 C 89.3 86.9 88.7 88.7 88.7 88.7 C 88.2 88.4 87.7 88.2 87.2 88.2 C 86.8 88.2 86.4 88.4 86.1 88.6 C 85.8 88.9 85.5 89.2 85.4 89.7 C 85.2 90.4 85.1 91.1 85.1 91.9 C 85.06 91.93 85.1 97.9 85.1 97.9 L 83.1 97.9 Z M 96.6 97.9 L 96.6 82.2 L 98.5 82.2 C 98.5 82.2 98.52 87.81 98.5 87.8 C 99.4 86.8 100.6 86.2 101.9 86.2 C 102.8 86.2 103.5 86.4 104.1 86.7 C 104.8 87.1 105.2 87.5 105.5 88.1 C 105.7 88.7 105.9 89.6 105.9 90.7 C 105.88 90.67 105.9 97.9 105.9 97.9 L 103.9 97.9 C 103.9 97.9 103.95 90.67 103.9 90.7 C 103.9 89.7 103.7 89 103.3 88.6 C 102.9 88.1 102.3 87.9 101.5 87.9 C 101 87.9 100.4 88.1 99.9 88.3 C 99.4 88.6 99.1 89 98.8 89.6 C 98.6 90.1 98.5 90.8 98.5 91.7 C 98.52 91.66 98.5 97.9 98.5 97.9 L 96.6 97.9 Z M 108.8 84.4 L 108.8 82.2 L 110.8 82.2 L 110.8 84.4 L 108.8 84.4 Z M 108.8 97.9 L 108.8 86.5 L 110.8 86.5 L 110.8 97.9 L 108.8 97.9 Z M 113.4 98.8 C 113.4 98.8 115.2 99.1 115.2 99.1 C 115.3 99.7 115.5 100.1 115.9 100.4 C 116.4 100.8 117 100.9 117.9 100.9 C 118.8 100.9 119.4 100.8 119.9 100.4 C 120.4 100 120.7 99.5 120.9 98.9 C 121 98.5 121.1 97.7 121.1 96.4 C 120.2 97.4 119.2 97.9 117.9 97.9 C 116.3 97.9 115.1 97.3 114.3 96.2 C 113.4 95.1 113 93.7 113 92.1 C 113 91 113.2 90 113.6 89.1 C 114 88.2 114.5 87.5 115.3 87 C 116 86.5 116.9 86.2 117.9 86.2 C 119.3 86.2 120.4 86.8 121.2 87.9 C 121.24 87.87 121.2 86.5 121.2 86.5 L 123 86.5 C 123 86.5 123.02 96.36 123 96.4 C 123 98.1 122.8 99.4 122.5 100.1 C 122.1 100.9 121.5 101.5 120.8 101.9 C 120 102.3 119 102.5 117.9 102.5 C 116.5 102.5 115.4 102.2 114.6 101.6 C 113.7 101 113.3 100.1 113.4 98.8 Z M 115 92 C 115 93.5 115.3 94.6 115.8 95.3 C 116.4 96 117.2 96.3 118.1 96.3 C 119 96.3 119.7 96 120.3 95.3 C 120.9 94.6 121.2 93.5 121.2 92.1 C 121.2 90.7 120.9 89.6 120.3 88.9 C 119.7 88.2 118.9 87.8 118.1 87.8 C 117.2 87.8 116.5 88.2 115.9 88.9 C 115.3 89.6 115 90.6 115 92 Z M 125.9 97.9 L 125.9 82.2 L 127.9 82.2 C 127.9 82.2 127.88 87.81 127.9 87.8 C 128.8 86.8 129.9 86.2 131.3 86.2 C 132.1 86.2 132.9 86.4 133.5 86.7 C 134.1 87.1 134.6 87.5 134.8 88.1 C 135.1 88.7 135.2 89.6 135.2 90.7 C 135.24 90.67 135.2 97.9 135.2 97.9 L 133.3 97.9 C 133.3 97.9 133.3 90.67 133.3 90.7 C 133.3 89.7 133.1 89 132.7 88.6 C 132.3 88.1 131.7 87.9 130.9 87.9 C 130.3 87.9 129.8 88.1 129.3 88.3 C 128.8 88.6 128.4 89 128.2 89.6 C 128 90.1 127.9 90.8 127.9 91.7 C 127.88 91.66 127.9 97.9 127.9 97.9 L 125.9 97.9 Z M 146 94.2 C 146 94.2 148 94.5 148 94.5 C 147.7 95.6 147.1 96.6 146.2 97.2 C 145.4 97.8 144.3 98.2 143 98.2 C 141.3 98.2 140 97.6 139 96.6 C 138 95.6 137.5 94.2 137.5 92.3 C 137.5 90.4 138 88.9 139 87.8 C 140 86.8 141.3 86.2 142.9 86.2 C 144.4 86.2 145.6 86.8 146.6 87.8 C 147.6 88.8 148.1 90.3 148.1 92.2 C 148.1 92.3 148.1 92.5 148 92.7 C 148 92.7 139.5 92.7 139.5 92.7 C 139.6 93.9 140 94.9 140.6 95.6 C 141.2 96.2 142 96.6 143 96.6 C 143.7 96.6 144.3 96.4 144.8 96 C 145.3 95.6 145.7 95 146 94.2 Z M 139.6 91.1 C 139.6 91.1 146 91.1 146 91.1 C 145.9 90.1 145.7 89.4 145.3 88.9 C 144.7 88.2 143.9 87.8 142.9 87.8 C 142 87.8 141.3 88.1 140.6 88.7 C 140 89.3 139.7 90.1 139.6 91.1 Z M 150.4 97.9 L 150.4 86.5 L 152.1 86.5 C 152.1 86.5 152.14 88.22 152.1 88.2 C 152.6 87.4 153 86.9 153.4 86.6 C 153.7 86.4 154.2 86.2 154.6 86.2 C 155.3 86.2 155.9 86.4 156.6 86.9 C 156.6 86.9 155.9 88.7 155.9 88.7 C 155.5 88.4 155 88.2 154.5 88.2 C 154.1 88.2 153.7 88.4 153.4 88.6 C 153 88.9 152.8 89.2 152.7 89.7 C 152.4 90.4 152.3 91.1 152.3 91.9 C 152.33 91.93 152.3 97.9 152.3 97.9 L 150.4 97.9 Z M 157 93.2 L 157 91.2 L 162.9 91.2 L 162.9 93.2 L 157 93.2 Z M 165.1 102.3 L 165.1 86.5 L 166.8 86.5 C 166.8 86.5 166.83 87.98 166.8 88 C 167.2 87.4 167.7 87 168.2 86.7 C 168.8 86.4 169.4 86.2 170.1 86.2 C 171.1 86.2 172 86.5 172.7 87 C 173.5 87.5 174 88.2 174.4 89.1 C 174.8 90 175 91 175 92.1 C 175 93.3 174.8 94.3 174.3 95.3 C 173.9 96.2 173.3 96.9 172.5 97.4 C 171.7 97.9 170.9 98.2 170 98.2 C 169.4 98.2 168.8 98 168.3 97.8 C 167.8 97.5 167.3 97.1 167 96.7 C 167 96.72 167 102.3 167 102.3 L 165.1 102.3 Z M 166.8 92.3 C 166.8 93.7 167.1 94.8 167.7 95.5 C 168.3 96.2 169 96.6 169.9 96.6 C 170.7 96.6 171.5 96.2 172.1 95.5 C 172.7 94.8 173 93.6 173 92.1 C 173 90.6 172.7 89.6 172.1 88.8 C 171.5 88.1 170.8 87.8 170 87.8 C 169.1 87.8 168.4 88.1 167.8 88.9 C 167.1 89.7 166.8 90.8 166.8 92.3 Z M 185.1 94.2 C 185.1 94.2 187.1 94.5 187.1 94.5 C 186.8 95.6 186.2 96.6 185.4 97.2 C 184.5 97.8 183.4 98.2 182.1 98.2 C 180.4 98.2 179.1 97.6 178.1 96.6 C 177.1 95.6 176.7 94.2 176.7 92.3 C 176.7 90.4 177.2 88.9 178.1 87.8 C 179.1 86.8 180.4 86.2 182 86.2 C 183.5 86.2 184.8 86.8 185.7 87.8 C 186.7 88.8 187.2 90.3 187.2 92.2 C 187.2 92.3 187.2 92.5 187.2 92.7 C 187.2 92.7 178.7 92.7 178.7 92.7 C 178.7 93.9 179.1 94.9 179.7 95.6 C 180.4 96.2 181.2 96.6 182.1 96.6 C 182.8 96.6 183.4 96.4 183.9 96 C 184.4 95.6 184.8 95 185.1 94.2 Z M 178.8 91.1 C 178.8 91.1 185.1 91.1 185.1 91.1 C 185 90.1 184.8 89.4 184.4 88.9 C 183.8 88.2 183 87.8 182 87.8 C 181.1 87.8 180.4 88.1 179.8 88.7 C 179.2 89.3 178.8 90.1 178.8 91.1 Z M 189.5 97.9 L 189.5 86.5 L 191.3 86.5 C 191.3 86.5 191.26 88.22 191.3 88.2 C 191.7 87.4 192.1 86.9 192.5 86.6 C 192.9 86.4 193.3 86.2 193.7 86.2 C 194.4 86.2 195 86.4 195.7 86.9 C 195.7 86.9 195.1 88.7 195.1 88.7 C 194.6 88.4 194.1 88.2 193.6 88.2 C 193.2 88.2 192.8 88.4 192.5 88.6 C 192.2 88.9 191.9 89.2 191.8 89.7 C 191.6 90.4 191.5 91.1 191.5 91.9 C 191.45 91.93 191.5 97.9 191.5 97.9 L 189.5 97.9 Z M 197.3 97.9 L 197.3 88 L 195.6 88 L 195.6 86.5 L 197.3 86.5 C 197.3 86.5 197.33 85.28 197.3 85.3 C 197.3 84.5 197.4 83.9 197.5 83.6 C 197.7 83.1 198 82.7 198.5 82.4 C 199 82 199.6 81.9 200.5 81.9 C 201 81.9 201.6 82 202.3 82.1 C 202.3 82.1 202 83.8 202 83.8 C 201.6 83.7 201.2 83.7 200.9 83.7 C 200.3 83.7 199.9 83.8 199.6 84 C 199.4 84.3 199.3 84.8 199.3 85.4 C 199.25 85.44 199.3 86.5 199.3 86.5 L 201.5 86.5 L 201.5 88 L 199.3 88 L 199.3 97.9 L 197.3 97.9 Z M 202.3 92.2 C 202.3 90.1 202.8 88.5 204 87.5 C 205 86.7 206.2 86.2 207.6 86.2 C 209.2 86.2 210.5 86.8 211.5 87.8 C 212.4 88.8 212.9 90.2 212.9 92 C 212.9 93.5 212.7 94.7 212.3 95.5 C 211.8 96.3 211.2 97 210.4 97.5 C 209.5 97.9 208.6 98.2 207.6 98.2 C 206 98.2 204.7 97.6 203.7 96.6 C 202.8 95.6 202.3 94.1 202.3 92.2 Z M 204.2 92.2 C 204.2 93.7 204.6 94.8 205.2 95.5 C 205.8 96.2 206.6 96.6 207.6 96.6 C 208.6 96.6 209.4 96.2 210 95.5 C 210.6 94.7 211 93.6 211 92.1 C 211 90.7 210.6 89.7 210 88.9 C 209.4 88.2 208.6 87.8 207.6 87.8 C 206.6 87.8 205.8 88.2 205.2 88.9 C 204.6 89.6 204.2 90.7 204.2 92.2 Z M 215.2 97.9 L 215.2 86.5 L 216.9 86.5 C 216.9 86.5 216.93 88.22 216.9 88.2 C 217.4 87.4 217.8 86.9 218.2 86.6 C 218.5 86.4 219 86.2 219.4 86.2 C 220.1 86.2 220.7 86.4 221.4 86.9 C 221.4 86.9 220.7 88.7 220.7 88.7 C 220.3 88.4 219.8 88.2 219.3 88.2 C 218.9 88.2 218.5 88.4 218.2 88.6 C 217.8 88.9 217.6 89.2 217.4 89.7 C 217.2 90.4 217.1 91.1 217.1 91.9 C 217.13 91.93 217.1 97.9 217.1 97.9 L 215.2 97.9 Z M 222.5 97.9 L 222.5 86.5 L 224.3 86.5 C 224.3 86.5 224.27 88.1 224.3 88.1 C 224.6 87.5 225.1 87.1 225.7 86.7 C 226.3 86.4 227 86.2 227.7 86.2 C 228.6 86.2 229.3 86.4 229.8 86.8 C 230.3 87.1 230.7 87.6 231 88.2 C 231.9 86.9 233 86.2 234.5 86.2 C 235.6 86.2 236.5 86.6 237.1 87.2 C 237.7 87.8 238 88.8 238 90.1 C 238 90.07 238 97.9 238 97.9 L 236.1 97.9 C 236.1 97.9 236.08 90.72 236.1 90.7 C 236.1 89.9 236 89.4 235.9 89 C 235.8 88.7 235.5 88.4 235.2 88.2 C 234.9 88 234.5 87.9 234 87.9 C 233.2 87.9 232.6 88.2 232 88.7 C 231.5 89.2 231.3 90.1 231.3 91.3 C 231.25 91.28 231.3 97.9 231.3 97.9 L 229.3 97.9 C 229.3 97.9 229.32 90.49 229.3 90.5 C 229.3 89.6 229.2 89 228.8 88.6 C 228.5 88.1 228 87.9 227.3 87.9 C 226.8 87.9 226.3 88.1 225.8 88.3 C 225.3 88.6 225 89 224.8 89.6 C 224.6 90.2 224.5 90.9 224.5 92 C 224.47 91.98 224.5 97.9 224.5 97.9 L 222.5 97.9 Z M 240.9 84.4 L 240.9 82.2 L 242.8 82.2 L 242.8 84.4 L 240.9 84.4 Z M 240.9 97.9 L 240.9 86.5 L 242.8 86.5 L 242.8 97.9 L 240.9 97.9 Z M 245.8 97.9 L 245.8 86.5 L 247.5 86.5 C 247.5 86.5 247.49 88.12 247.5 88.1 C 248.3 86.9 249.5 86.2 251.1 86.2 C 251.8 86.2 252.4 86.4 253 86.6 C 253.6 86.9 254 87.2 254.3 87.6 C 254.6 88 254.8 88.5 254.9 89 C 255 89.4 255 90 255 90.9 C 255.02 90.89 255 97.9 255 97.9 L 253.1 97.9 C 253.1 97.9 253.09 90.96 253.1 91 C 253.1 90.2 253 89.6 252.9 89.2 C 252.7 88.8 252.4 88.5 252.1 88.3 C 251.7 88 251.2 87.9 250.7 87.9 C 249.9 87.9 249.2 88.2 248.6 88.7 C 248 89.2 247.7 90.2 247.7 91.7 C 247.69 91.67 247.7 97.9 247.7 97.9 L 245.8 97.9 Z M 257.6 98.8 C 257.6 98.8 259.5 99.1 259.5 99.1 C 259.6 99.7 259.8 100.1 260.2 100.4 C 260.6 100.8 261.3 100.9 262.1 100.9 C 263 100.9 263.7 100.8 264.2 100.4 C 264.7 100 265 99.5 265.2 98.9 C 265.3 98.5 265.3 97.7 265.3 96.4 C 264.5 97.4 263.4 97.9 262.2 97.9 C 260.6 97.9 259.4 97.3 258.5 96.2 C 257.7 95.1 257.2 93.7 257.2 92.1 C 257.2 91 257.4 90 257.8 89.1 C 258.2 88.2 258.8 87.5 259.6 87 C 260.3 86.5 261.2 86.2 262.2 86.2 C 263.5 86.2 264.6 86.8 265.5 87.9 C 265.52 87.87 265.5 86.5 265.5 86.5 L 267.3 86.5 C 267.3 86.5 267.3 96.36 267.3 96.4 C 267.3 98.1 267.1 99.4 266.8 100.1 C 266.4 100.9 265.8 101.5 265 101.9 C 264.3 102.3 263.3 102.5 262.1 102.5 C 260.8 102.5 259.7 102.2 258.8 101.6 C 258 101 257.6 100.1 257.6 98.8 Z M 259.2 92 C 259.2 93.5 259.5 94.6 260.1 95.3 C 260.7 96 261.5 96.3 262.4 96.3 C 263.2 96.3 264 96 264.6 95.3 C 265.2 94.6 265.5 93.5 265.5 92.1 C 265.5 90.7 265.2 89.6 264.6 88.9 C 263.9 88.2 263.2 87.8 262.3 87.8 C 261.5 87.8 260.7 88.2 260.1 88.9 C 259.5 89.6 259.2 90.6 259.2 92 Z M 276.3 97.9 L 276.3 82.2 L 278.2 82.2 L 278.2 97.9 L 276.3 97.9 Z M 289 94.2 C 289 94.2 291 94.5 291 94.5 C 290.7 95.6 290.1 96.6 289.3 97.2 C 288.4 97.8 287.3 98.2 286 98.2 C 284.3 98.2 283 97.6 282 96.6 C 281.1 95.6 280.6 94.2 280.6 92.3 C 280.6 90.4 281.1 88.9 282.1 87.8 C 283.1 86.8 284.3 86.2 285.9 86.2 C 287.4 86.2 288.7 86.8 289.6 87.8 C 290.6 88.8 291.1 90.3 291.1 92.2 C 291.1 92.3 291.1 92.5 291.1 92.7 C 291.1 92.7 282.6 92.7 282.6 92.7 C 282.6 93.9 283 94.9 283.6 95.6 C 284.3 96.2 285.1 96.6 286 96.6 C 286.7 96.6 287.3 96.4 287.8 96 C 288.3 95.6 288.7 95 289 94.2 Z M 282.7 91.1 C 282.7 91.1 289.1 91.1 289.1 91.1 C 289 90.1 288.7 89.4 288.3 88.9 C 287.7 88.2 286.9 87.8 285.9 87.8 C 285 87.8 284.3 88.1 283.7 88.7 C 283.1 89.3 282.7 90.1 282.7 91.1 Z M 301.3 97.9 C 301.1 97.5 301 97 300.9 96.5 C 300.2 97.1 299.5 97.5 298.8 97.8 C 298.2 98 297.5 98.2 296.7 98.2 C 295.5 98.2 294.5 97.9 293.8 97.2 C 293.1 96.6 292.8 95.8 292.8 94.9 C 292.8 94.3 292.9 93.8 293.2 93.4 C 293.4 92.9 293.8 92.5 294.2 92.3 C 294.6 92 295.1 91.8 295.6 91.6 C 296 91.5 296.5 91.4 297.3 91.3 C 298.9 91.1 300 90.9 300.7 90.7 C 300.8 90.4 300.8 90.2 300.8 90.2 C 300.8 89.4 300.6 88.8 300.2 88.5 C 299.7 88.1 299 87.8 298 87.8 C 297.1 87.8 296.4 88 296 88.3 C 295.6 88.6 295.2 89.2 295 90 C 295 90 293.1 89.8 293.1 89.8 C 293.3 88.9 293.6 88.3 294 87.8 C 294.4 87.3 294.9 86.9 295.7 86.6 C 296.4 86.4 297.3 86.2 298.3 86.2 C 299.3 86.2 300 86.4 300.7 86.6 C 301.3 86.8 301.7 87.1 302 87.4 C 302.3 87.8 302.5 88.2 302.6 88.8 C 302.7 89.1 302.7 89.7 302.7 90.5 C 302.7 90.5 302.7 93.1 302.7 93.1 C 302.7 94.9 302.7 96.1 302.8 96.5 C 302.9 97 303.1 97.5 303.3 97.9 C 303.31 97.9 301.3 97.9 301.3 97.9 C 301.3 97.9 301.29 97.9 301.3 97.9 Z M 300.7 92.2 C 300 92.5 299 92.7 297.6 92.9 C 296.8 93 296.2 93.2 295.9 93.3 C 295.6 93.4 295.3 93.6 295.1 93.9 C 295 94.2 294.9 94.5 294.9 94.8 C 294.9 95.4 295.1 95.8 295.5 96.1 C 295.8 96.5 296.4 96.6 297.2 96.6 C 297.9 96.6 298.6 96.5 299.2 96.2 C 299.7 95.8 300.2 95.4 300.4 94.8 C 300.6 94.4 300.7 93.7 300.7 92.9 C 300.7 92.9 300.7 92.2 300.7 92.2 Z M 305.7 97.9 L 305.7 86.5 L 307.4 86.5 C 307.4 86.5 307.41 88.22 307.4 88.2 C 307.9 87.4 308.3 86.9 308.6 86.6 C 309 86.4 309.4 86.2 309.9 86.2 C 310.5 86.2 311.2 86.4 311.9 86.9 C 311.9 86.9 311.2 88.7 311.2 88.7 C 310.7 88.4 310.3 88.2 309.8 88.2 C 309.4 88.2 309 88.4 308.6 88.6 C 308.3 88.9 308.1 89.2 307.9 89.7 C 307.7 90.4 307.6 91.1 307.6 91.9 C 307.61 91.93 307.6 97.9 307.6 97.9 L 305.7 97.9 Z M 313 97.9 L 313 86.5 L 314.8 86.5 C 314.8 86.5 314.76 88.12 314.8 88.1 C 315.6 86.9 316.8 86.2 318.4 86.2 C 319.1 86.2 319.7 86.4 320.3 86.6 C 320.9 86.9 321.3 87.2 321.6 87.6 C 321.9 88 322.1 88.5 322.2 89 C 322.3 89.4 322.3 90 322.3 90.9 C 322.29 90.89 322.3 97.9 322.3 97.9 L 320.4 97.9 C 320.4 97.9 320.36 90.96 320.4 91 C 320.4 90.2 320.3 89.6 320.1 89.2 C 320 88.8 319.7 88.5 319.3 88.3 C 318.9 88 318.5 87.9 318 87.9 C 317.2 87.9 316.4 88.2 315.9 88.7 C 315.3 89.2 315 90.2 315 91.7 C 314.96 91.67 315 97.9 315 97.9 L 313 97.9 Z M 333.1 94.2 C 333.1 94.2 335.1 94.5 335.1 94.5 C 334.7 95.6 334.2 96.6 333.3 97.2 C 332.5 97.8 331.4 98.2 330 98.2 C 328.4 98.2 327.1 97.6 326.1 96.6 C 325.1 95.6 324.6 94.2 324.6 92.3 C 324.6 90.4 325.1 88.9 326.1 87.8 C 327.1 86.8 328.4 86.2 329.9 86.2 C 331.5 86.2 332.7 86.8 333.7 87.8 C 334.6 88.8 335.1 90.3 335.1 92.2 C 335.1 92.3 335.1 92.5 335.1 92.7 C 335.1 92.7 326.6 92.7 326.6 92.7 C 326.7 93.9 327 94.9 327.7 95.6 C 328.3 96.2 329.1 96.6 330.1 96.6 C 330.8 96.6 331.4 96.4 331.9 96 C 332.4 95.6 332.8 95 333.1 94.2 Z M 326.7 91.1 C 326.7 91.1 333.1 91.1 333.1 91.1 C 333 90.1 332.8 89.4 332.4 88.9 C 331.7 88.2 330.9 87.8 330 87.8 C 329.1 87.8 328.3 88.1 327.7 88.7 C 327.1 89.3 326.8 90.1 326.7 91.1 Z M 337.5 97.9 L 337.5 86.5 L 339.2 86.5 C 339.2 86.5 339.21 88.22 339.2 88.2 C 339.7 87.4 340.1 86.9 340.4 86.6 C 340.8 86.4 341.2 86.2 341.7 86.2 C 342.3 86.2 343 86.4 343.7 86.9 C 343.7 86.9 343 88.7 343 88.7 C 342.5 88.4 342.1 88.2 341.6 88.2 C 341.2 88.2 340.8 88.4 340.4 88.6 C 340.1 88.9 339.9 89.2 339.7 89.7 C 339.5 90.4 339.4 91.1 339.4 91.9 C 339.4 91.93 339.4 97.9 339.4 97.9 L 337.5 97.9 Z M 344 94.5 C 344 94.5 346 94.2 346 94.2 C 346.1 95 346.4 95.6 346.9 96 C 347.3 96.4 348 96.6 348.9 96.6 C 349.8 96.6 350.5 96.4 350.9 96 C 351.3 95.7 351.5 95.2 351.5 94.8 C 351.5 94.3 351.3 94 351 93.7 C 350.7 93.6 350 93.3 349 93.1 C 347.6 92.7 346.6 92.4 346 92.1 C 345.5 91.9 345.1 91.5 344.8 91.1 C 344.5 90.6 344.4 90.1 344.4 89.5 C 344.4 89 344.5 88.5 344.7 88.1 C 344.9 87.7 345.3 87.3 345.7 87 C 346 86.8 346.4 86.6 346.9 86.5 C 347.4 86.3 348 86.2 348.6 86.2 C 349.5 86.2 350.2 86.4 350.9 86.6 C 351.6 86.9 352.1 87.2 352.4 87.7 C 352.7 88.1 353 88.7 353.1 89.4 C 353.1 89.4 351.2 89.7 351.2 89.7 C 351.1 89.1 350.9 88.7 350.5 88.3 C 350 88 349.5 87.8 348.7 87.8 C 347.8 87.8 347.2 88 346.8 88.3 C 346.4 88.6 346.2 88.9 346.2 89.3 C 346.2 89.5 346.3 89.8 346.5 90 C 346.6 90.2 346.9 90.4 347.2 90.5 C 347.4 90.6 348 90.7 348.9 91 C 350.3 91.4 351.2 91.6 351.8 91.9 C 352.3 92.1 352.7 92.5 353.1 92.9 C 353.4 93.3 353.5 93.9 353.5 94.6 C 353.5 95.2 353.3 95.8 353 96.4 C 352.6 96.9 352 97.4 351.3 97.7 C 350.6 98 349.8 98.2 348.9 98.2 C 347.4 98.2 346.3 97.9 345.5 97.2 C 344.8 96.6 344.3 95.7 344 94.5 Z " stroke="none" fill="#000"/>  </g>  <g id="Polygon7878">    <path d="M 65.3 63 L 61 55.4 L 59.1 55.4 L 59.1 63 L 55.2 63 L 55.2 43.5 C 55.2 43.5 62.52 43.46 62.5 43.5 C 64 43.5 65.3 43.7 66.4 44.3 C 67.4 44.8 68.2 45.5 68.8 46.4 C 69.3 47.3 69.6 48.3 69.6 49.4 C 69.6 50.7 69.2 51.9 68.5 52.9 C 67.7 54 66.6 54.7 65.1 55.1 C 65.12 55.08 69.8 63 69.8 63 L 65.3 63 Z M 59.1 52.4 C 59.1 52.4 62.38 52.44 62.4 52.4 C 63.4 52.4 64.2 52.2 64.8 51.7 C 65.3 51.2 65.5 50.4 65.5 49.5 C 65.5 48.6 65.3 47.9 64.8 47.4 C 64.2 47 63.4 46.7 62.4 46.7 C 62.38 46.7 59.1 46.7 59.1 46.7 L 59.1 52.4 Z M 87.6 54.9 C 87.6 55.5 87.5 56 87.4 56.4 C 87.4 56.4 76.1 56.4 76.1 56.4 C 76.2 57.5 76.6 58.4 77.3 59.1 C 78 59.7 78.8 60 79.8 60 C 81.3 60 82.3 59.4 82.9 58.1 C 82.9 58.1 87.2 58.1 87.2 58.1 C 86.7 59.6 85.9 60.8 84.6 61.8 C 83.3 62.8 81.8 63.3 79.9 63.3 C 78.4 63.3 77.1 62.9 75.9 62.3 C 74.7 61.6 73.8 60.7 73.1 59.4 C 72.5 58.2 72.1 56.8 72.1 55.2 C 72.1 53.6 72.4 52.2 73.1 51 C 73.8 49.8 74.7 48.9 75.8 48.2 C 77 47.6 78.4 47.2 79.9 47.2 C 81.4 47.2 82.7 47.6 83.9 48.2 C 85 48.8 85.9 49.7 86.6 50.9 C 87.2 52.1 87.6 53.4 87.6 54.9 C 87.6 54.9 87.6 54.9 87.6 54.9 Z M 83.5 53.8 C 83.5 52.8 83.1 52 82.4 51.4 C 81.7 50.8 80.8 50.5 79.8 50.5 C 78.8 50.5 78 50.7 77.3 51.3 C 76.7 51.9 76.3 52.7 76.1 53.8 C 76.1 53.8 83.5 53.8 83.5 53.8 Z M 89.4 55.2 C 89.4 53.6 89.7 52.2 90.4 51 C 91 49.8 91.9 48.9 93.1 48.2 C 94.3 47.6 95.6 47.2 97.1 47.2 C 99 47.2 100.6 47.7 101.8 48.7 C 103.1 49.6 103.9 51 104.4 52.7 C 104.4 52.7 100.1 52.7 100.1 52.7 C 99.9 52.1 99.5 51.5 99 51.1 C 98.5 50.8 97.8 50.6 97 50.6 C 95.9 50.6 95 51 94.4 51.8 C 93.7 52.6 93.4 53.8 93.4 55.2 C 93.4 56.7 93.7 57.9 94.4 58.7 C 95 59.5 95.9 59.9 97 59.9 C 98.6 59.9 99.7 59.2 100.1 57.8 C 100.1 57.8 104.4 57.8 104.4 57.8 C 103.9 59.4 103.1 60.8 101.8 61.8 C 100.6 62.8 99 63.3 97.1 63.3 C 95.6 63.3 94.3 62.9 93.1 62.3 C 91.9 61.6 91 60.7 90.4 59.5 C 89.7 58.3 89.4 56.8 89.4 55.2 C 89.4 55.2 89.4 55.2 89.4 55.2 Z M 114.1 63.3 C 112.7 63.3 111.3 62.9 110.1 62.3 C 108.9 61.6 108 60.7 107.3 59.4 C 106.6 58.2 106.3 56.8 106.3 55.2 C 106.3 53.7 106.6 52.3 107.3 51 C 108 49.8 109 48.9 110.2 48.2 C 111.4 47.6 112.8 47.2 114.3 47.2 C 115.8 47.2 117.1 47.6 118.3 48.2 C 119.5 48.9 120.5 49.8 121.2 51 C 121.9 52.3 122.2 53.7 122.2 55.2 C 122.2 56.8 121.9 58.2 121.2 59.4 C 120.4 60.7 119.5 61.6 118.3 62.3 C 117 62.9 115.7 63.3 114.1 63.3 C 114.1 63.3 114.1 63.3 114.1 63.3 Z M 114.1 59.8 C 114.9 59.8 115.5 59.7 116.2 59.3 C 116.8 59 117.3 58.5 117.6 57.8 C 118 57.1 118.2 56.2 118.2 55.2 C 118.2 53.8 117.8 52.6 117 51.8 C 116.3 51 115.3 50.7 114.2 50.7 C 113.1 50.7 112.1 51 111.4 51.8 C 110.6 52.6 110.3 53.8 110.3 55.2 C 110.3 56.7 110.6 57.9 111.4 58.6 C 112.1 59.4 113 59.8 114.1 59.8 C 114.1 59.8 114.1 59.8 114.1 59.8 Z M 144.4 47.3 C 146.3 47.3 147.8 47.8 149 49 C 150.2 50.2 150.7 51.8 150.7 53.9 C 150.75 53.9 150.7 63 150.7 63 L 146.8 63 C 146.8 63 146.83 54.43 146.8 54.4 C 146.8 53.2 146.5 52.3 145.9 51.6 C 145.3 51 144.4 50.7 143.4 50.7 C 142.3 50.7 141.5 51 140.8 51.6 C 140.2 52.3 139.9 53.2 139.9 54.4 C 139.91 54.43 139.9 63 139.9 63 L 136 63 C 136 63 135.99 54.43 136 54.4 C 136 53.2 135.7 52.3 135.1 51.6 C 134.4 51 133.6 50.7 132.5 50.7 C 131.5 50.7 130.6 51 130 51.6 C 129.4 52.3 129 53.2 129 54.4 C 129.05 54.43 129 63 129 63 L 125.1 63 L 125.1 47.5 L 129 47.5 C 129 47.5 129.05 49.36 129 49.4 C 129.5 48.7 130.2 48.2 131 47.8 C 131.8 47.5 132.7 47.3 133.6 47.3 C 134.8 47.3 135.9 47.5 136.9 48 C 137.8 48.5 138.5 49.3 139.1 50.2 C 139.6 49.3 140.3 48.6 141.3 48.1 C 142.2 47.5 143.3 47.3 144.4 47.3 C 144.4 47.3 144.4 47.3 144.4 47.3 Z M 173.7 47.3 C 175.6 47.3 177.2 47.8 178.3 49 C 179.5 50.2 180.1 51.8 180.1 53.9 C 180.09 53.9 180.1 63 180.1 63 L 176.2 63 C 176.2 63 176.17 54.43 176.2 54.4 C 176.2 53.2 175.9 52.3 175.2 51.6 C 174.6 51 173.8 50.7 172.7 50.7 C 171.7 50.7 170.8 51 170.2 51.6 C 169.6 52.3 169.3 53.2 169.3 54.4 C 169.25 54.43 169.3 63 169.3 63 L 165.3 63 C 165.3 63 165.33 54.43 165.3 54.4 C 165.3 53.2 165 52.3 164.4 51.6 C 163.8 51 163 50.7 161.9 50.7 C 160.8 50.7 160 51 159.3 51.6 C 158.7 52.3 158.4 53.2 158.4 54.4 C 158.39 54.43 158.4 63 158.4 63 L 154.5 63 L 154.5 47.5 L 158.4 47.5 C 158.4 47.5 158.39 49.36 158.4 49.4 C 158.9 48.7 159.5 48.2 160.3 47.8 C 161.1 47.5 162 47.3 163 47.3 C 164.2 47.3 165.2 47.5 166.2 48 C 167.2 48.5 167.9 49.3 168.4 50.2 C 168.9 49.3 169.6 48.6 170.6 48.1 C 171.6 47.5 172.6 47.3 173.7 47.3 C 173.7 47.3 173.7 47.3 173.7 47.3 Z M 198.2 54.9 C 198.2 55.5 198.2 56 198.1 56.4 C 198.1 56.4 186.8 56.4 186.8 56.4 C 186.9 57.5 187.3 58.4 188 59.1 C 188.6 59.7 189.5 60 190.5 60 C 192 60 193 59.4 193.6 58.1 C 193.6 58.1 197.8 58.1 197.8 58.1 C 197.4 59.6 196.5 60.8 195.3 61.8 C 194 62.8 192.4 63.3 190.6 63.3 C 189.1 63.3 187.8 62.9 186.6 62.3 C 185.4 61.6 184.5 60.7 183.8 59.4 C 183.1 58.2 182.8 56.8 182.8 55.2 C 182.8 53.6 183.1 52.2 183.8 51 C 184.4 49.8 185.4 48.9 186.5 48.2 C 187.7 47.6 189.1 47.2 190.6 47.2 C 192.1 47.2 193.4 47.6 194.6 48.2 C 195.7 48.8 196.6 49.7 197.3 50.9 C 197.9 52.1 198.2 53.4 198.2 54.9 C 198.2 54.9 198.2 54.9 198.2 54.9 Z M 194.2 53.8 C 194.2 52.8 193.8 52 193.1 51.4 C 192.4 50.8 191.5 50.5 190.5 50.5 C 189.5 50.5 188.7 50.7 188 51.3 C 187.4 51.9 187 52.7 186.8 53.8 C 186.8 53.8 194.2 53.8 194.2 53.8 Z M 209.7 47.3 C 211.5 47.3 213 47.8 214.2 49 C 215.3 50.2 215.9 51.8 215.9 53.9 C 215.87 53.9 215.9 63 215.9 63 L 212 63 C 212 63 211.95 54.43 212 54.4 C 212 53.2 211.6 52.3 211 51.6 C 210.4 50.9 209.6 50.6 208.5 50.6 C 207.4 50.6 206.6 50.9 205.9 51.6 C 205.3 52.3 205 53.2 205 54.4 C 205.01 54.43 205 63 205 63 L 201.1 63 L 201.1 47.5 L 205 47.5 C 205 47.5 205.01 49.42 205 49.4 C 205.5 48.7 206.2 48.2 207 47.8 C 207.8 47.5 208.7 47.3 209.7 47.3 C 209.7 47.3 209.7 47.3 209.7 47.3 Z M 218.6 55.2 C 218.6 53.6 218.9 52.2 219.5 51 C 220.2 49.8 221 48.9 222.1 48.2 C 223.2 47.6 224.4 47.2 225.7 47.2 C 226.7 47.2 227.7 47.5 228.6 47.9 C 229.5 48.3 230.2 48.9 230.8 49.6 C 230.77 49.64 230.8 42.3 230.8 42.3 L 234.7 42.3 L 234.7 63 L 230.8 63 C 230.8 63 230.77 60.7 230.8 60.7 C 230.3 61.5 229.6 62.1 228.7 62.6 C 227.8 63 226.8 63.3 225.7 63.3 C 224.4 63.3 223.2 62.9 222.1 62.2 C 221 61.6 220.2 60.6 219.5 59.4 C 218.9 58.2 218.6 56.8 218.6 55.2 C 218.6 55.2 218.6 55.2 218.6 55.2 Z M 230.8 55.2 C 230.8 54.3 230.6 53.5 230.2 52.8 C 229.9 52.1 229.4 51.6 228.7 51.2 C 228.1 50.9 227.4 50.7 226.7 50.7 C 226 50.7 225.3 50.9 224.7 51.2 C 224 51.6 223.5 52.1 223.2 52.8 C 222.8 53.4 222.6 54.3 222.6 55.2 C 222.6 56.1 222.8 56.9 223.2 57.6 C 223.5 58.3 224.1 58.9 224.7 59.2 C 225.3 59.6 226 59.8 226.7 59.8 C 227.4 59.8 228.1 59.6 228.7 59.3 C 229.4 58.9 229.9 58.4 230.2 57.7 C 230.6 57 230.8 56.2 230.8 55.2 C 230.8 55.2 230.8 55.2 230.8 55.2 Z M 237.6 55.2 C 237.6 53.6 237.9 52.2 238.5 51 C 239.1 49.8 240 48.9 241.1 48.2 C 242.1 47.6 243.3 47.2 244.7 47.2 C 245.8 47.2 246.8 47.5 247.7 47.9 C 248.6 48.4 249.3 49 249.8 49.7 C 249.78 49.7 249.8 47.5 249.8 47.5 L 253.7 47.5 L 253.7 63 L 249.8 63 C 249.8 63 249.78 60.73 249.8 60.7 C 249.3 61.5 248.6 62.1 247.7 62.5 C 246.8 63 245.8 63.3 244.6 63.3 C 243.3 63.3 242.1 62.9 241.1 62.2 C 240 61.6 239.1 60.6 238.5 59.4 C 237.9 58.2 237.6 56.8 237.6 55.2 C 237.6 55.2 237.6 55.2 237.6 55.2 Z M 249.8 55.2 C 249.8 54.3 249.6 53.5 249.2 52.8 C 248.8 52.1 248.3 51.6 247.7 51.2 C 247.1 50.9 246.4 50.7 245.7 50.7 C 244.9 50.7 244.3 50.9 243.6 51.2 C 243 51.6 242.5 52.1 242.1 52.8 C 241.8 53.4 241.6 54.3 241.6 55.2 C 241.6 56.1 241.8 56.9 242.1 57.6 C 242.5 58.3 243 58.9 243.7 59.2 C 244.3 59.6 245 59.8 245.7 59.8 C 246.4 59.8 247.1 59.6 247.7 59.3 C 248.3 58.9 248.8 58.4 249.2 57.7 C 249.6 57 249.8 56.2 249.8 55.2 C 249.8 55.2 249.8 55.2 249.8 55.2 Z M 262.1 50.7 C 262.1 50.7 262.13 58.21 262.1 58.2 C 262.1 58.7 262.3 59.1 262.5 59.3 C 262.8 59.6 263.2 59.7 263.8 59.7 C 263.78 59.7 265.6 59.7 265.6 59.7 L 265.6 63 C 265.6 63 263.14 63 263.1 63 C 259.8 63 258.2 61.4 258.2 58.2 C 258.18 58.18 258.2 50.7 258.2 50.7 L 256.3 50.7 L 256.3 47.5 L 258.2 47.5 L 258.2 43.7 L 262.1 43.7 L 262.1 47.5 L 265.6 47.5 L 265.6 50.7 L 262.1 50.7 Z M 270.4 45.6 C 269.7 45.6 269.2 45.4 268.7 45 C 268.2 44.5 268 44 268 43.3 C 268 42.7 268.2 42.1 268.7 41.7 C 269.2 41.3 269.7 41 270.4 41 C 271.1 41 271.7 41.3 272.1 41.7 C 272.6 42.1 272.8 42.7 272.8 43.3 C 272.8 44 272.6 44.5 272.1 45 C 271.7 45.4 271.1 45.6 270.4 45.6 C 270.4 45.6 270.4 45.6 270.4 45.6 Z M 272.3 47.5 L 272.3 63 L 268.4 63 L 268.4 47.5 L 272.3 47.5 Z M 283.1 63.3 C 281.6 63.3 280.3 62.9 279.1 62.3 C 277.9 61.6 276.9 60.7 276.3 59.4 C 275.6 58.2 275.2 56.8 275.2 55.2 C 275.2 53.7 275.6 52.3 276.3 51 C 277 49.8 277.9 48.9 279.2 48.2 C 280.4 47.6 281.7 47.2 283.2 47.2 C 284.7 47.2 286.1 47.6 287.3 48.2 C 288.5 48.9 289.4 49.8 290.1 51 C 290.8 52.3 291.2 53.7 291.2 55.2 C 291.2 56.8 290.8 58.2 290.1 59.4 C 289.4 60.7 288.4 61.6 287.2 62.3 C 286 62.9 284.6 63.3 283.1 63.3 C 283.1 63.3 283.1 63.3 283.1 63.3 Z M 283.1 59.8 C 283.8 59.8 284.5 59.7 285.1 59.3 C 285.7 59 286.2 58.5 286.6 57.8 C 287 57.1 287.2 56.2 287.2 55.2 C 287.2 53.8 286.8 52.6 286 51.8 C 285.2 51 284.3 50.7 283.2 50.7 C 282 50.7 281.1 51 280.3 51.8 C 279.6 52.6 279.2 53.8 279.2 55.2 C 279.2 56.7 279.6 57.9 280.3 58.6 C 281.1 59.4 282 59.8 283.1 59.8 C 283.1 59.8 283.1 59.8 283.1 59.8 Z M 302.7 47.3 C 304.5 47.3 306 47.8 307.2 49 C 308.3 50.2 308.9 51.8 308.9 53.9 C 308.86 53.9 308.9 63 308.9 63 L 304.9 63 C 304.9 63 304.94 54.43 304.9 54.4 C 304.9 53.2 304.6 52.3 304 51.6 C 303.4 50.9 302.6 50.6 301.5 50.6 C 300.4 50.6 299.6 50.9 298.9 51.6 C 298.3 52.3 298 53.2 298 54.4 C 297.99 54.43 298 63 298 63 L 294.1 63 L 294.1 47.5 L 298 47.5 C 298 47.5 297.99 49.42 298 49.4 C 298.5 48.7 299.2 48.2 300 47.8 C 300.8 47.5 301.7 47.3 302.7 47.3 C 302.7 47.3 302.7 47.3 302.7 47.3 Z " stroke="none" fill="#e4007e"/>  </g>  <g id="Polygon7877">    <path d="M 139 15.9 C 139 16.9 138.7 17.9 138.2 18.8 C 137.7 19.8 137 20.5 135.9 21.1 C 134.9 21.6 133.5 21.9 131.9 21.9 C 131.92 21.9 128.6 21.9 128.6 21.9 L 128.6 29.4 L 124.7 29.4 L 124.7 9.9 C 124.7 9.9 131.92 9.86 131.9 9.9 C 133.4 9.9 134.7 10.1 135.8 10.6 C 136.8 11.2 137.6 11.9 138.2 12.8 C 138.7 13.7 139 14.7 139 15.9 C 139 15.9 139 15.9 139 15.9 Z M 131.7 18.7 C 132.8 18.7 133.6 18.5 134.2 18 C 134.7 17.5 134.9 16.8 134.9 15.9 C 134.9 14 133.9 13 131.7 13 C 131.75 13.05 128.6 13 128.6 13 L 128.6 18.7 L 131.7 18.7 C 131.7 18.7 131.75 18.73 131.7 18.7 Z M 145.7 16.3 C 146.2 15.5 146.8 14.8 147.6 14.4 C 148.4 13.9 149.4 13.7 150.4 13.7 C 150.42 13.66 150.4 17.8 150.4 17.8 C 150.4 17.8 149.39 17.78 149.4 17.8 C 148.2 17.8 147.2 18.1 146.6 18.6 C 146 19.2 145.7 20.2 145.7 21.7 C 145.66 21.67 145.7 29.4 145.7 29.4 L 141.7 29.4 L 141.7 13.9 L 145.7 13.9 L 145.7 16.3 C 145.7 16.3 145.66 16.3 145.7 16.3 Z M 159.9 29.7 C 158.4 29.7 157.1 29.3 155.9 28.7 C 154.7 28 153.8 27.1 153.1 25.8 C 152.4 24.6 152.1 23.2 152.1 21.6 C 152.1 20.1 152.4 18.7 153.1 17.4 C 153.8 16.2 154.8 15.3 156 14.6 C 157.2 14 158.6 13.6 160.1 13.6 C 161.5 13.6 162.9 14 164.1 14.6 C 165.3 15.3 166.3 16.2 167 17.4 C 167.7 18.7 168 20.1 168 21.6 C 168 23.2 167.7 24.6 167 25.8 C 166.2 27.1 165.3 28 164 28.7 C 162.8 29.3 161.5 29.7 159.9 29.7 C 159.9 29.7 159.9 29.7 159.9 29.7 Z M 159.9 26.2 C 160.7 26.2 161.3 26.1 161.9 25.7 C 162.6 25.4 163.1 24.9 163.4 24.2 C 163.8 23.5 164 22.6 164 21.6 C 164 20.2 163.6 19 162.8 18.2 C 162.1 17.4 161.1 17.1 160 17.1 C 158.9 17.1 157.9 17.4 157.2 18.2 C 156.4 19 156.1 20.2 156.1 21.6 C 156.1 23.1 156.4 24.3 157.2 25 C 157.9 25.8 158.8 26.2 159.9 26.2 C 159.9 26.2 159.9 26.2 159.9 26.2 Z M 177.4 25.8 L 181.3 13.9 L 185.5 13.9 L 179.7 29.4 L 175 29.4 L 169.3 13.9 L 173.5 13.9 L 177.4 25.8 Z M 189.7 12 C 189 12 188.4 11.8 188 11.4 C 187.5 10.9 187.3 10.4 187.3 9.7 C 187.3 9.1 187.5 8.5 188 8.1 C 188.4 7.7 189 7.4 189.7 7.4 C 190.4 7.4 190.9 7.7 191.4 8.1 C 191.9 8.5 192.1 9.1 192.1 9.7 C 192.1 10.4 191.9 10.9 191.4 11.4 C 190.9 11.8 190.4 12 189.7 12 C 189.7 12 189.7 12 189.7 12 Z M 191.6 13.9 L 191.6 29.4 L 187.7 29.4 L 187.7 13.9 L 191.6 13.9 Z M 194.5 21.6 C 194.5 20 194.8 18.6 195.4 17.4 C 196 16.2 196.9 15.3 198 14.6 C 199 14 200.3 13.6 201.6 13.6 C 202.6 13.6 203.5 13.9 204.5 14.3 C 205.4 14.7 206.1 15.3 206.6 16 C 206.65 16.04 206.6 8.7 206.6 8.7 L 210.6 8.7 L 210.6 29.4 L 206.6 29.4 C 206.6 29.4 206.65 27.1 206.6 27.1 C 206.2 27.9 205.5 28.5 204.6 29 C 203.7 29.4 202.7 29.7 201.6 29.7 C 200.2 29.7 199 29.3 198 28.6 C 196.9 28 196 27 195.4 25.8 C 194.8 24.6 194.5 23.2 194.5 21.6 C 194.5 21.6 194.5 21.6 194.5 21.6 Z M 206.7 21.6 C 206.7 20.7 206.5 19.9 206.1 19.2 C 205.7 18.5 205.2 18 204.6 17.6 C 204 17.3 203.3 17.1 202.6 17.1 C 201.8 17.1 201.2 17.3 200.5 17.6 C 199.9 18 199.4 18.5 199 19.2 C 198.7 19.8 198.5 20.7 198.5 21.6 C 198.5 22.5 198.7 23.3 199 24 C 199.4 24.7 199.9 25.3 200.6 25.6 C 201.2 26 201.8 26.2 202.6 26.2 C 203.3 26.2 204 26 204.6 25.7 C 205.2 25.3 205.7 24.8 206.1 24.1 C 206.5 23.4 206.7 22.6 206.7 21.6 C 206.7 21.6 206.7 21.6 206.7 21.6 Z M 228.9 21.3 C 228.9 21.9 228.8 22.4 228.8 22.8 C 228.8 22.8 217.4 22.8 217.4 22.8 C 217.5 23.9 217.9 24.8 218.6 25.5 C 219.3 26.1 220.1 26.4 221.2 26.4 C 222.6 26.4 223.6 25.8 224.3 24.5 C 224.3 24.5 228.5 24.5 228.5 24.5 C 228 26 227.2 27.2 225.9 28.2 C 224.6 29.2 223.1 29.7 221.2 29.7 C 219.7 29.7 218.4 29.3 217.2 28.7 C 216 28 215.1 27.1 214.4 25.8 C 213.8 24.6 213.5 23.2 213.5 21.6 C 213.5 20 213.8 18.6 214.4 17.4 C 215.1 16.2 216 15.3 217.2 14.6 C 218.4 14 219.7 13.6 221.2 13.6 C 222.7 13.6 224 14 225.2 14.6 C 226.4 15.2 227.3 16.1 227.9 17.3 C 228.6 18.5 228.9 19.8 228.9 21.3 C 228.9 21.3 228.9 21.3 228.9 21.3 Z M 224.8 20.2 C 224.8 19.2 224.4 18.4 223.7 17.8 C 223 17.2 222.1 16.9 221.1 16.9 C 220.2 16.9 219.3 17.1 218.7 17.7 C 218 18.3 217.6 19.1 217.5 20.2 C 217.5 20.2 224.8 20.2 224.8 20.2 Z M 235.7 16.3 C 236.2 15.5 236.8 14.8 237.6 14.4 C 238.4 13.9 239.4 13.7 240.4 13.7 C 240.41 13.66 240.4 17.8 240.4 17.8 C 240.4 17.8 239.38 17.78 239.4 17.8 C 238.1 17.8 237.2 18.1 236.6 18.6 C 236 19.2 235.7 20.2 235.7 21.7 C 235.65 21.67 235.7 29.4 235.7 29.4 L 231.7 29.4 L 231.7 13.9 L 235.7 13.9 L 235.7 16.3 C 235.7 16.3 235.65 16.3 235.7 16.3 Z " stroke="none" fill="#e4007e"/>  </g></svg>