<?xml version="1.0" standalone="no"?><!DOCTYPE svg PUBLIC "-//W3C//DTD SVG 1.1//EN" "http://www.w3.org/Graphics/SVG/1.1/DTD/svg11.dtd"><svg xmlns="http://www.w3.org/2000/svg" version="1.1" width="364px" height="139.6px" viewBox="0 -2 364 139.6" style="top:-2px">  <desc>Automation &amp; Workflow Tools The heart of most learner projects and workplace improvements.</desc>  <defs/>  <g id="Polygon7081">    <path d="M 45.1 124.3 C 44.9 123.9 44.8 123.4 44.7 122.9 C 44 123.5 43.3 123.9 42.7 124.2 C 42 124.4 41.3 124.6 40.5 124.6 C 39.3 124.6 38.3 124.3 37.6 123.6 C 37 123 36.6 122.2 36.6 121.3 C 36.6 120.7 36.8 120.2 37 119.8 C 37.3 119.3 37.6 118.9 38 118.7 C 38.4 118.4 38.9 118.2 39.4 118 C 39.8 117.9 40.3 117.8 41.1 117.7 C 42.7 117.5 43.8 117.3 44.6 117.1 C 44.6 116.8 44.6 116.6 44.6 116.6 C 44.6 115.8 44.4 115.2 44 114.9 C 43.5 114.5 42.8 114.2 41.8 114.2 C 40.9 114.2 40.2 114.4 39.8 114.7 C 39.4 115 39.1 115.6 38.8 116.4 C 38.8 116.4 37 116.2 37 116.2 C 37.1 115.3 37.4 114.7 37.8 114.2 C 38.2 113.7 38.8 113.3 39.5 113 C 40.3 112.8 41.1 112.6 42.1 112.6 C 43.1 112.6 43.9 112.8 44.5 113 C 45.1 113.2 45.5 113.5 45.8 113.8 C 46.1 114.2 46.3 114.6 46.4 115.2 C 46.5 115.5 46.5 116.1 46.5 116.9 C 46.5 116.9 46.5 119.5 46.5 119.5 C 46.5 121.3 46.6 122.5 46.6 122.9 C 46.7 123.4 46.9 123.9 47.1 124.3 C 47.13 124.3 45.1 124.3 45.1 124.3 C 45.1 124.3 45.11 124.3 45.1 124.3 Z M 44.6 118.6 C 43.9 118.9 42.8 119.1 41.4 119.3 C 40.6 119.4 40 119.6 39.7 119.7 C 39.4 119.8 39.1 120 39 120.3 C 38.8 120.6 38.7 120.9 38.7 121.2 C 38.7 121.8 38.9 122.2 39.3 122.5 C 39.7 122.9 40.2 123 41 123 C 41.7 123 42.4 122.9 43 122.6 C 43.6 122.2 44 121.8 44.3 121.2 C 44.5 120.8 44.6 120.1 44.6 119.3 C 44.6 119.3 44.6 118.6 44.6 118.6 Z M 49.5 124.3 L 49.5 112.9 L 51.3 112.9 C 51.3 112.9 51.26 114.52 51.3 114.5 C 52.1 113.3 53.3 112.6 54.9 112.6 C 55.6 112.6 56.2 112.8 56.8 113 C 57.4 113.3 57.8 113.6 58.1 114 C 58.4 114.4 58.6 114.9 58.7 115.4 C 58.8 115.8 58.8 116.4 58.8 117.3 C 58.79 117.29 58.8 124.3 58.8 124.3 L 56.9 124.3 C 56.9 124.3 56.85 117.36 56.9 117.4 C 56.9 116.6 56.8 116 56.6 115.6 C 56.5 115.2 56.2 114.9 55.8 114.7 C 55.4 114.4 55 114.3 54.5 114.3 C 53.7 114.3 52.9 114.6 52.3 115.1 C 51.7 115.6 51.4 116.6 51.4 118.1 C 51.45 118.07 51.4 124.3 51.4 124.3 L 49.5 124.3 Z M 69.2 124.3 C 69.2 124.3 69.15 122.86 69.2 122.9 C 68.4 124 67.4 124.6 66 124.6 C 65.1 124.6 64.2 124.3 63.5 123.8 C 62.7 123.3 62.1 122.6 61.7 121.7 C 61.3 120.8 61.1 119.8 61.1 118.6 C 61.1 117.5 61.2 116.4 61.6 115.5 C 62 114.6 62.6 113.9 63.3 113.4 C 64.1 112.9 64.9 112.6 65.9 112.6 C 66.6 112.6 67.2 112.8 67.7 113.1 C 68.2 113.4 68.7 113.7 69 114.2 C 69.02 114.21 69 108.6 69 108.6 L 70.9 108.6 L 70.9 124.3 L 69.2 124.3 Z M 63 118.6 C 63 120.1 63.3 121.2 64 121.9 C 64.6 122.6 65.3 123 66.1 123 C 67 123 67.7 122.6 68.3 121.9 C 68.9 121.2 69.2 120.2 69.2 118.8 C 69.2 117.2 68.9 116.1 68.3 115.3 C 67.7 114.6 66.9 114.2 66.1 114.2 C 65.2 114.2 64.5 114.6 63.9 115.3 C 63.3 116 63 117.1 63 118.6 Z M 82.2 124.3 L 78.7 112.9 L 80.7 112.9 L 82.5 119.5 C 82.5 119.5 83.2 121.93 83.2 121.9 C 83.2 121.8 83.4 121 83.8 119.6 C 83.79 119.58 85.6 112.9 85.6 112.9 L 87.6 112.9 L 89.3 119.5 L 89.9 121.7 L 90.5 119.5 L 92.5 112.9 L 94.4 112.9 L 90.8 124.3 L 88.8 124.3 L 87 117.5 L 86.5 115.5 L 84.2 124.3 L 82.2 124.3 Z M 95.3 118.6 C 95.3 116.5 95.9 114.9 97 113.9 C 98 113.1 99.2 112.6 100.6 112.6 C 102.2 112.6 103.5 113.2 104.5 114.2 C 105.5 115.2 106 116.6 106 118.4 C 106 119.9 105.7 121.1 105.3 121.9 C 104.9 122.7 104.2 123.4 103.4 123.9 C 102.5 124.3 101.6 124.6 100.6 124.6 C 99 124.6 97.7 124 96.7 123 C 95.8 122 95.3 120.5 95.3 118.6 Z M 97.3 118.6 C 97.3 120.1 97.6 121.2 98.2 121.9 C 98.8 122.6 99.6 123 100.6 123 C 101.6 123 102.4 122.6 103 121.9 C 103.6 121.1 104 120 104 118.5 C 104 117.1 103.6 116.1 103 115.3 C 102.4 114.6 101.6 114.2 100.6 114.2 C 99.6 114.2 98.8 114.6 98.2 115.3 C 97.6 116 97.3 117.1 97.3 118.6 Z M 108.2 124.3 L 108.2 112.9 L 109.9 112.9 C 109.9 112.9 109.94 114.62 109.9 114.6 C 110.4 113.8 110.8 113.3 111.2 113 C 111.5 112.8 112 112.6 112.4 112.6 C 113.1 112.6 113.7 112.8 114.4 113.3 C 114.4 113.3 113.7 115.1 113.7 115.1 C 113.3 114.8 112.8 114.6 112.3 114.6 C 111.9 114.6 111.5 114.8 111.2 115 C 110.8 115.3 110.6 115.6 110.5 116.1 C 110.2 116.8 110.1 117.5 110.1 118.3 C 110.13 118.33 110.1 124.3 110.1 124.3 L 108.2 124.3 Z M 115.6 124.3 L 115.6 108.6 L 117.5 108.6 L 117.5 117.5 L 122.1 112.9 L 124.6 112.9 L 120.2 117.1 L 125 124.3 L 122.6 124.3 L 118.9 118.5 L 117.5 119.8 L 117.5 124.3 L 115.6 124.3 Z M 126.5 128.7 L 126.5 112.9 L 128.3 112.9 C 128.3 112.9 128.31 114.38 128.3 114.4 C 128.7 113.8 129.2 113.4 129.7 113.1 C 130.2 112.8 130.9 112.6 131.6 112.6 C 132.6 112.6 133.5 112.9 134.2 113.4 C 134.9 113.9 135.5 114.6 135.9 115.5 C 136.3 116.4 136.5 117.4 136.5 118.5 C 136.5 119.7 136.2 120.7 135.8 121.7 C 135.4 122.6 134.8 123.3 134 123.8 C 133.2 124.3 132.4 124.6 131.5 124.6 C 130.8 124.6 130.3 124.4 129.7 124.2 C 129.2 123.9 128.8 123.5 128.5 123.1 C 128.48 123.12 128.5 128.7 128.5 128.7 L 126.5 128.7 Z M 128.3 118.7 C 128.3 120.1 128.6 121.2 129.2 121.9 C 129.8 122.6 130.5 123 131.3 123 C 132.2 123 132.9 122.6 133.6 121.9 C 134.2 121.2 134.5 120 134.5 118.5 C 134.5 117 134.2 116 133.6 115.2 C 133 114.5 132.3 114.2 131.4 114.2 C 130.6 114.2 129.9 114.5 129.2 115.3 C 128.6 116.1 128.3 117.2 128.3 118.7 Z M 138.7 124.3 L 138.7 108.6 L 140.7 108.6 L 140.7 124.3 L 138.7 124.3 Z M 151.5 124.3 C 151.3 123.9 151.2 123.4 151.1 122.9 C 150.4 123.5 149.7 123.9 149 124.2 C 148.4 124.4 147.7 124.6 146.9 124.6 C 145.7 124.6 144.7 124.3 144 123.6 C 143.4 123 143 122.2 143 121.3 C 143 120.7 143.1 120.2 143.4 119.8 C 143.7 119.3 144 118.9 144.4 118.7 C 144.8 118.4 145.3 118.2 145.8 118 C 146.2 117.9 146.7 117.8 147.5 117.7 C 149.1 117.5 150.2 117.3 151 117.1 C 151 116.8 151 116.6 151 116.6 C 151 115.8 150.8 115.2 150.4 114.9 C 149.9 114.5 149.2 114.2 148.2 114.2 C 147.3 114.2 146.6 114.4 146.2 114.7 C 145.8 115 145.4 115.6 145.2 116.4 C 145.2 116.4 143.3 116.2 143.3 116.2 C 143.5 115.3 143.8 114.7 144.2 114.2 C 144.6 113.7 145.2 113.3 145.9 113 C 146.6 112.8 147.5 112.6 148.5 112.6 C 149.5 112.6 150.3 112.8 150.9 113 C 151.5 113.2 151.9 113.5 152.2 113.8 C 152.5 114.2 152.7 114.6 152.8 115.2 C 152.9 115.5 152.9 116.1 152.9 116.9 C 152.9 116.9 152.9 119.5 152.9 119.5 C 152.9 121.3 153 122.5 153 122.9 C 153.1 123.4 153.3 123.9 153.5 124.3 C 153.52 124.3 151.5 124.3 151.5 124.3 C 151.5 124.3 151.5 124.3 151.5 124.3 Z M 151 118.6 C 150.3 118.9 149.2 119.1 147.8 119.3 C 147 119.4 146.4 119.6 146.1 119.7 C 145.8 119.8 145.5 120 145.3 120.3 C 145.2 120.6 145.1 120.9 145.1 121.2 C 145.1 121.8 145.3 122.2 145.7 122.5 C 146.1 122.9 146.6 123 147.4 123 C 148.1 123 148.8 122.9 149.4 122.6 C 149.9 122.2 150.4 121.8 150.6 121.2 C 150.9 120.8 151 120.1 151 119.3 C 151 119.3 151 118.6 151 118.6 Z M 163.4 120.1 C 163.4 120.1 165.3 120.4 165.3 120.4 C 165 121.7 164.5 122.7 163.7 123.4 C 162.8 124.2 161.7 124.6 160.5 124.6 C 158.9 124.6 157.7 124.1 156.7 123 C 155.8 122 155.3 120.5 155.3 118.6 C 155.3 117.4 155.5 116.3 155.9 115.4 C 156.3 114.5 157 113.8 157.8 113.3 C 158.6 112.9 159.5 112.6 160.5 112.6 C 161.8 112.6 162.8 113 163.6 113.6 C 164.3 114.2 164.8 115.1 165.1 116.2 C 165.1 116.2 163.2 116.5 163.2 116.5 C 163 115.8 162.7 115.2 162.2 114.8 C 161.8 114.4 161.2 114.2 160.6 114.2 C 159.6 114.2 158.8 114.6 158.2 115.3 C 157.6 116 157.3 117.1 157.3 118.6 C 157.3 120.1 157.6 121.2 158.2 121.9 C 158.8 122.6 159.5 123 160.5 123 C 161.2 123 161.9 122.7 162.4 122.3 C 162.9 121.8 163.2 121.1 163.4 120.1 Z M 174.7 120.6 C 174.7 120.6 176.7 120.9 176.7 120.9 C 176.4 122 175.8 123 175 123.6 C 174.1 124.2 173 124.6 171.7 124.6 C 170 124.6 168.7 124 167.7 123 C 166.8 122 166.3 120.6 166.3 118.7 C 166.3 116.8 166.8 115.3 167.7 114.2 C 168.7 113.2 170 112.6 171.6 112.6 C 173.1 112.6 174.4 113.2 175.3 114.2 C 176.3 115.2 176.8 116.7 176.8 118.6 C 176.8 118.7 176.8 118.9 176.8 119.1 C 176.8 119.1 168.3 119.1 168.3 119.1 C 168.3 120.3 168.7 121.3 169.3 122 C 170 122.6 170.8 123 171.7 123 C 172.4 123 173 122.8 173.5 122.4 C 174 122 174.4 121.4 174.7 120.6 Z M 168.4 117.5 C 168.4 117.5 174.7 117.5 174.7 117.5 C 174.7 116.5 174.4 115.8 174 115.3 C 173.4 114.6 172.6 114.2 171.6 114.2 C 170.7 114.2 170 114.5 169.4 115.1 C 168.8 115.7 168.4 116.5 168.4 117.5 Z M 185.3 110.8 L 185.3 108.6 L 187.2 108.6 L 187.2 110.8 L 185.3 110.8 Z M 185.3 124.3 L 185.3 112.9 L 187.2 112.9 L 187.2 124.3 L 185.3 124.3 Z M 190.1 124.3 L 190.1 112.9 L 191.9 112.9 C 191.9 112.9 191.87 114.5 191.9 114.5 C 192.2 113.9 192.7 113.5 193.3 113.1 C 193.9 112.8 194.6 112.6 195.3 112.6 C 196.2 112.6 196.9 112.8 197.4 113.2 C 197.9 113.5 198.3 114 198.6 114.6 C 199.5 113.3 200.6 112.6 202.1 112.6 C 203.2 112.6 204.1 113 204.7 113.6 C 205.3 114.2 205.6 115.2 205.6 116.5 C 205.6 116.47 205.6 124.3 205.6 124.3 L 203.7 124.3 C 203.7 124.3 203.68 117.12 203.7 117.1 C 203.7 116.3 203.6 115.8 203.5 115.4 C 203.4 115.1 203.1 114.8 202.8 114.6 C 202.5 114.4 202.1 114.3 201.6 114.3 C 200.8 114.3 200.2 114.6 199.6 115.1 C 199.1 115.6 198.9 116.5 198.9 117.7 C 198.85 117.68 198.9 124.3 198.9 124.3 L 196.9 124.3 C 196.9 124.3 196.92 116.89 196.9 116.9 C 196.9 116 196.8 115.4 196.4 115 C 196.1 114.5 195.6 114.3 194.9 114.3 C 194.4 114.3 193.9 114.5 193.4 114.7 C 192.9 115 192.6 115.4 192.4 116 C 192.2 116.6 192.1 117.3 192.1 118.4 C 192.08 118.38 192.1 124.3 192.1 124.3 L 190.1 124.3 Z M 208.5 128.7 L 208.5 112.9 L 210.2 112.9 C 210.2 112.9 210.23 114.38 210.2 114.4 C 210.6 113.8 211.1 113.4 211.6 113.1 C 212.2 112.8 212.8 112.6 213.5 112.6 C 214.5 112.6 215.4 112.9 216.1 113.4 C 216.9 113.9 217.4 114.6 217.8 115.5 C 218.2 116.4 218.4 117.4 218.4 118.5 C 218.4 119.7 218.2 120.7 217.7 121.7 C 217.3 122.6 216.7 123.3 215.9 123.8 C 215.1 124.3 214.3 124.6 213.4 124.6 C 212.8 124.6 212.2 124.4 211.7 124.2 C 211.2 123.9 210.7 123.5 210.4 123.1 C 210.4 123.12 210.4 128.7 210.4 128.7 L 208.5 128.7 Z M 210.2 118.7 C 210.2 120.1 210.5 121.2 211.1 121.9 C 211.7 122.6 212.4 123 213.3 123 C 214.1 123 214.9 122.6 215.5 121.9 C 216.1 121.2 216.4 120 216.4 118.5 C 216.4 117 216.1 116 215.5 115.2 C 214.9 114.5 214.2 114.2 213.4 114.2 C 212.5 114.2 211.8 114.5 211.2 115.3 C 210.5 116.1 210.2 117.2 210.2 118.7 Z M 220.7 124.3 L 220.7 112.9 L 222.4 112.9 C 222.4 112.9 222.42 114.62 222.4 114.6 C 222.9 113.8 223.3 113.3 223.7 113 C 224 112.8 224.4 112.6 224.9 112.6 C 225.5 112.6 226.2 112.8 226.9 113.3 C 226.9 113.3 226.2 115.1 226.2 115.1 C 225.7 114.8 225.3 114.6 224.8 114.6 C 224.4 114.6 224 114.8 223.7 115 C 223.3 115.3 223.1 115.6 222.9 116.1 C 222.7 116.8 222.6 117.5 222.6 118.3 C 222.62 118.33 222.6 124.3 222.6 124.3 L 220.7 124.3 Z M 227.3 118.6 C 227.3 116.5 227.9 114.9 229.1 113.9 C 230.1 113.1 231.2 112.6 232.7 112.6 C 234.2 112.6 235.5 113.2 236.5 114.2 C 237.5 115.2 238 116.6 238 118.4 C 238 119.9 237.8 121.1 237.3 121.9 C 236.9 122.7 236.3 123.4 235.4 123.9 C 234.6 124.3 233.7 124.6 232.7 124.6 C 231.1 124.6 229.8 124 228.8 123 C 227.8 122 227.3 120.5 227.3 118.6 Z M 229.3 118.6 C 229.3 120.1 229.6 121.2 230.3 121.9 C 230.9 122.6 231.7 123 232.7 123 C 233.6 123 234.4 122.6 235.1 121.9 C 235.7 121.1 236 120 236 118.5 C 236 117.1 235.7 116.1 235 115.3 C 234.4 114.6 233.6 114.2 232.7 114.2 C 231.7 114.2 230.9 114.6 230.3 115.3 C 229.6 116 229.3 117.1 229.3 118.6 Z M 243.4 124.3 L 239.1 112.9 L 241.1 112.9 C 241.1 112.9 243.58 119.73 243.6 119.7 C 243.8 120.5 244.1 121.2 244.3 122 C 244.5 121.4 244.7 120.7 245 119.9 C 245.03 119.86 247.6 112.9 247.6 112.9 L 249.6 112.9 L 245.2 124.3 L 243.4 124.3 Z M 259.1 120.6 C 259.1 120.6 261.1 120.9 261.1 120.9 C 260.8 122 260.2 123 259.3 123.6 C 258.5 124.2 257.4 124.6 256.1 124.6 C 254.4 124.6 253.1 124 252.1 123 C 251.1 122 250.6 120.6 250.6 118.7 C 250.6 116.8 251.1 115.3 252.1 114.2 C 253.1 113.2 254.4 112.6 255.9 112.6 C 257.5 112.6 258.7 113.2 259.7 114.2 C 260.7 115.2 261.1 116.7 261.1 118.6 C 261.1 118.7 261.1 118.9 261.1 119.1 C 261.1 119.1 252.6 119.1 252.6 119.1 C 252.7 120.3 253 121.3 253.7 122 C 254.3 122.6 255.1 123 256.1 123 C 256.8 123 257.4 122.8 257.9 122.4 C 258.4 122 258.8 121.4 259.1 120.6 Z M 252.7 117.5 C 252.7 117.5 259.1 117.5 259.1 117.5 C 259 116.5 258.8 115.8 258.4 115.3 C 257.7 114.6 257 114.2 256 114.2 C 255.1 114.2 254.3 114.5 253.7 115.1 C 253.1 115.7 252.8 116.5 252.7 117.5 Z M 263.5 124.3 L 263.5 112.9 L 265.2 112.9 C 265.2 112.9 265.23 114.5 265.2 114.5 C 265.6 113.9 266.1 113.5 266.7 113.1 C 267.3 112.8 267.9 112.6 268.7 112.6 C 269.5 112.6 270.2 112.8 270.8 113.2 C 271.3 113.5 271.7 114 271.9 114.6 C 272.8 113.3 274 112.6 275.4 112.6 C 276.6 112.6 277.4 113 278 113.6 C 278.7 114.2 279 115.2 279 116.5 C 278.96 116.47 279 124.3 279 124.3 L 277 124.3 C 277 124.3 277.04 117.12 277 117.1 C 277 116.3 277 115.8 276.8 115.4 C 276.7 115.1 276.5 114.8 276.2 114.6 C 275.8 114.4 275.4 114.3 275 114.3 C 274.2 114.3 273.5 114.6 273 115.1 C 272.5 115.6 272.2 116.5 272.2 117.7 C 272.21 117.68 272.2 124.3 272.2 124.3 L 270.3 124.3 C 270.3 124.3 270.28 116.89 270.3 116.9 C 270.3 116 270.1 115.4 269.8 115 C 269.5 114.5 269 114.3 268.3 114.3 C 267.7 114.3 267.2 114.5 266.7 114.7 C 266.3 115 266 115.4 265.7 116 C 265.5 116.6 265.4 117.3 265.4 118.4 C 265.43 118.38 265.4 124.3 265.4 124.3 L 263.5 124.3 Z M 289.6 120.6 C 289.6 120.6 291.6 120.9 291.6 120.9 C 291.3 122 290.7 123 289.9 123.6 C 289 124.2 287.9 124.6 286.6 124.6 C 284.9 124.6 283.6 124 282.6 123 C 281.7 122 281.2 120.6 281.2 118.7 C 281.2 116.8 281.7 115.3 282.7 114.2 C 283.7 113.2 284.9 112.6 286.5 112.6 C 288 112.6 289.3 113.2 290.2 114.2 C 291.2 115.2 291.7 116.7 291.7 118.6 C 291.7 118.7 291.7 118.9 291.7 119.1 C 291.7 119.1 283.2 119.1 283.2 119.1 C 283.3 120.3 283.6 121.3 284.2 122 C 284.9 122.6 285.7 123 286.6 123 C 287.3 123 287.9 122.8 288.4 122.4 C 288.9 122 289.3 121.4 289.6 120.6 Z M 283.3 117.5 C 283.3 117.5 289.7 117.5 289.7 117.5 C 289.6 116.5 289.3 115.8 288.9 115.3 C 288.3 114.6 287.5 114.2 286.5 114.2 C 285.6 114.2 284.9 114.5 284.3 115.1 C 283.7 115.7 283.4 116.5 283.3 117.5 Z M 294.1 124.3 L 294.1 112.9 L 295.8 112.9 C 295.8 112.9 295.8 114.52 295.8 114.5 C 296.6 113.3 297.8 112.6 299.4 112.6 C 300.1 112.6 300.8 112.8 301.3 113 C 301.9 113.3 302.3 113.6 302.6 114 C 302.9 114.4 303.1 114.9 303.2 115.4 C 303.3 115.8 303.3 116.4 303.3 117.3 C 303.33 117.29 303.3 124.3 303.3 124.3 L 301.4 124.3 C 301.4 124.3 301.4 117.36 301.4 117.4 C 301.4 116.6 301.3 116 301.2 115.6 C 301 115.2 300.8 114.9 300.4 114.7 C 300 114.4 299.5 114.3 299 114.3 C 298.2 114.3 297.5 114.6 296.9 115.1 C 296.3 115.6 296 116.6 296 118.1 C 296 118.07 296 124.3 296 124.3 L 294.1 124.3 Z M 309.7 122.6 C 309.9 122.6 310.2 122.6 310.5 122.6 C 310.5 122.6 310.8 124.3 310.8 124.3 C 310.3 124.4 309.8 124.5 309.3 124.5 C 308.6 124.5 308.1 124.3 307.7 124.1 C 307.3 123.9 307 123.6 306.9 123.2 C 306.7 122.9 306.7 122.1 306.7 121 C 306.65 120.96 306.7 114.4 306.7 114.4 L 305.2 114.4 L 305.2 112.9 L 306.7 112.9 L 306.7 110.1 L 308.6 108.9 L 308.6 112.9 L 310.5 112.9 L 310.5 114.4 L 308.6 114.4 C 308.6 114.4 308.57 121.07 308.6 121.1 C 308.6 121.6 308.6 122 308.7 122.1 C 308.7 122.3 308.9 122.4 309 122.5 C 309.2 122.6 309.4 122.6 309.7 122.6 C 309.7 122.6 309.7 122.6 309.7 122.6 Z M 311.6 120.9 C 311.6 120.9 313.5 120.6 313.5 120.6 C 313.7 121.4 314 122 314.4 122.4 C 314.9 122.8 315.6 123 316.5 123 C 317.4 123 318 122.8 318.5 122.4 C 318.9 122.1 319.1 121.6 319.1 121.2 C 319.1 120.7 318.9 120.4 318.6 120.1 C 318.3 120 317.6 119.7 316.6 119.5 C 315.2 119.1 314.2 118.8 313.6 118.5 C 313.1 118.3 312.7 117.9 312.4 117.5 C 312.1 117 312 116.5 312 115.9 C 312 115.4 312.1 114.9 312.3 114.5 C 312.5 114.1 312.9 113.7 313.3 113.4 C 313.6 113.2 314 113 314.5 112.9 C 315 112.7 315.6 112.6 316.2 112.6 C 317.1 112.6 317.8 112.8 318.5 113 C 319.2 113.3 319.7 113.6 320 114.1 C 320.3 114.5 320.6 115.1 320.7 115.8 C 320.7 115.8 318.8 116.1 318.8 116.1 C 318.7 115.5 318.5 115.1 318 114.7 C 317.6 114.4 317 114.2 316.3 114.2 C 315.4 114.2 314.8 114.4 314.4 114.7 C 314 115 313.8 115.3 313.8 115.7 C 313.8 115.9 313.9 116.2 314.1 116.4 C 314.2 116.6 314.5 116.8 314.8 116.9 C 315 117 315.6 117.1 316.5 117.4 C 317.9 117.8 318.8 118 319.4 118.3 C 319.9 118.5 320.3 118.9 320.6 119.3 C 321 119.7 321.1 120.3 321.1 121 C 321.1 121.6 320.9 122.2 320.5 122.8 C 320.2 123.3 319.6 123.8 318.9 124.1 C 318.2 124.4 317.4 124.6 316.5 124.6 C 315 124.6 313.9 124.3 313.1 123.6 C 312.3 123 311.9 122.1 311.6 120.9 Z M 324 124.3 L 324 122.1 L 326.2 122.1 L 326.2 124.3 L 324 124.3 Z " stroke="none" fill="#000"/>  </g>  <g id="Polygon7080">    <path d="M 22.6 97.9 L 22.6 84 L 17.4 84 L 17.4 82.2 L 29.9 82.2 L 29.9 84 L 24.7 84 L 24.7 97.9 L 22.6 97.9 Z M 31.8 97.9 L 31.8 82.2 L 33.7 82.2 C 33.7 82.2 33.7 87.81 33.7 87.8 C 34.6 86.8 35.7 86.2 37.1 86.2 C 38 86.2 38.7 86.4 39.3 86.7 C 39.9 87.1 40.4 87.5 40.7 88.1 C 40.9 88.7 41.1 89.6 41.1 90.7 C 41.06 90.67 41.1 97.9 41.1 97.9 L 39.1 97.9 C 39.1 97.9 39.12 90.67 39.1 90.7 C 39.1 89.7 38.9 89 38.5 88.6 C 38.1 88.1 37.5 87.9 36.7 87.9 C 36.1 87.9 35.6 88.1 35.1 88.3 C 34.6 88.6 34.2 89 34 89.6 C 33.8 90.1 33.7 90.8 33.7 91.7 C 33.7 91.66 33.7 97.9 33.7 97.9 L 31.8 97.9 Z M 51.8 94.2 C 51.8 94.2 53.8 94.5 53.8 94.5 C 53.5 95.6 52.9 96.6 52.1 97.2 C 51.2 97.8 50.1 98.2 48.8 98.2 C 47.1 98.2 45.8 97.6 44.8 96.6 C 43.8 95.6 43.4 94.2 43.4 92.3 C 43.4 90.4 43.8 88.9 44.8 87.8 C 45.8 86.8 47.1 86.2 48.7 86.2 C 50.2 86.2 51.5 86.8 52.4 87.8 C 53.4 88.8 53.9 90.3 53.9 92.2 C 53.9 92.3 53.9 92.5 53.9 92.7 C 53.9 92.7 45.4 92.7 45.4 92.7 C 45.4 93.9 45.8 94.9 46.4 95.6 C 47.1 96.2 47.8 96.6 48.8 96.6 C 49.5 96.6 50.1 96.4 50.6 96 C 51.1 95.6 51.5 95 51.8 94.2 Z M 45.5 91.1 C 45.5 91.1 51.8 91.1 51.8 91.1 C 51.7 90.1 51.5 89.4 51.1 88.9 C 50.5 88.2 49.7 87.8 48.7 87.8 C 47.8 87.8 47.1 88.1 46.5 88.7 C 45.9 89.3 45.5 90.1 45.5 91.1 Z M 62.3 97.9 L 62.3 82.2 L 64.3 82.2 C 64.3 82.2 64.28 87.81 64.3 87.8 C 65.2 86.8 66.3 86.2 67.7 86.2 C 68.5 86.2 69.3 86.4 69.9 86.7 C 70.5 87.1 71 87.5 71.2 88.1 C 71.5 88.7 71.6 89.6 71.6 90.7 C 71.64 90.67 71.6 97.9 71.6 97.9 L 69.7 97.9 C 69.7 97.9 69.71 90.67 69.7 90.7 C 69.7 89.7 69.5 89 69.1 88.6 C 68.7 88.1 68.1 87.9 67.3 87.9 C 66.7 87.9 66.2 88.1 65.7 88.3 C 65.2 88.6 64.8 89 64.6 89.6 C 64.4 90.1 64.3 90.8 64.3 91.7 C 64.28 91.66 64.3 97.9 64.3 97.9 L 62.3 97.9 Z M 82.4 94.2 C 82.4 94.2 84.4 94.5 84.4 94.5 C 84.1 95.6 83.5 96.6 82.6 97.2 C 81.8 97.8 80.7 98.2 79.4 98.2 C 77.7 98.2 76.4 97.6 75.4 96.6 C 74.4 95.6 73.9 94.2 73.9 92.3 C 73.9 90.4 74.4 88.9 75.4 87.8 C 76.4 86.8 77.7 86.2 79.3 86.2 C 80.8 86.2 82 86.8 83 87.8 C 84 88.8 84.5 90.3 84.5 92.2 C 84.5 92.3 84.5 92.5 84.4 92.7 C 84.4 92.7 75.9 92.7 75.9 92.7 C 76 93.9 76.4 94.9 77 95.6 C 77.6 96.2 78.4 96.6 79.4 96.6 C 80.1 96.6 80.7 96.4 81.2 96 C 81.7 95.6 82.1 95 82.4 94.2 Z M 76 91.1 C 76 91.1 82.4 91.1 82.4 91.1 C 82.3 90.1 82.1 89.4 81.7 88.9 C 81.1 88.2 80.3 87.8 79.3 87.8 C 78.4 87.8 77.7 88.1 77 88.7 C 76.4 89.3 76.1 90.1 76 91.1 Z M 94.6 97.9 C 94.4 97.5 94.3 97 94.3 96.5 C 93.5 97.1 92.9 97.5 92.2 97.8 C 91.5 98 90.8 98.2 90.1 98.2 C 88.8 98.2 87.8 97.9 87.2 97.2 C 86.5 96.6 86.2 95.8 86.2 94.9 C 86.2 94.3 86.3 93.8 86.5 93.4 C 86.8 92.9 87.1 92.5 87.5 92.3 C 88 92 88.4 91.8 88.9 91.6 C 89.3 91.5 89.9 91.4 90.7 91.3 C 92.2 91.1 93.4 90.9 94.1 90.7 C 94.1 90.4 94.1 90.2 94.1 90.2 C 94.1 89.4 93.9 88.8 93.6 88.5 C 93.1 88.1 92.3 87.8 91.4 87.8 C 90.5 87.8 89.8 88 89.3 88.3 C 88.9 88.6 88.6 89.2 88.4 90 C 88.4 90 86.5 89.8 86.5 89.8 C 86.7 88.9 87 88.3 87.3 87.8 C 87.7 87.3 88.3 86.9 89.1 86.6 C 89.8 86.4 90.7 86.2 91.6 86.2 C 92.6 86.2 93.4 86.4 94 86.6 C 94.6 86.8 95.1 87.1 95.4 87.4 C 95.6 87.8 95.8 88.2 96 88.8 C 96 89.1 96.1 89.7 96.1 90.5 C 96.1 90.5 96.1 93.1 96.1 93.1 C 96.1 94.9 96.1 96.1 96.2 96.5 C 96.3 97 96.4 97.5 96.7 97.9 C 96.67 97.9 94.6 97.9 94.6 97.9 C 94.6 97.9 94.65 97.9 94.6 97.9 Z M 94.1 92.2 C 93.4 92.5 92.3 92.7 90.9 92.9 C 90.1 93 89.6 93.2 89.3 93.3 C 88.9 93.4 88.7 93.6 88.5 93.9 C 88.3 94.2 88.2 94.5 88.2 94.8 C 88.2 95.4 88.4 95.8 88.8 96.1 C 89.2 96.5 89.8 96.6 90.5 96.6 C 91.3 96.6 91.9 96.5 92.5 96.2 C 93.1 95.8 93.5 95.4 93.8 94.8 C 94 94.4 94.1 93.7 94.1 92.9 C 94.1 92.9 94.1 92.2 94.1 92.2 Z M 99 97.9 L 99 86.5 L 100.8 86.5 C 100.8 86.5 100.77 88.22 100.8 88.2 C 101.2 87.4 101.6 86.9 102 86.6 C 102.4 86.4 102.8 86.2 103.2 86.2 C 103.9 86.2 104.6 86.4 105.2 86.9 C 105.2 86.9 104.6 88.7 104.6 88.7 C 104.1 88.4 103.6 88.2 103.1 88.2 C 102.7 88.2 102.3 88.4 102 88.6 C 101.7 88.9 101.4 89.2 101.3 89.7 C 101.1 90.4 101 91.1 101 91.9 C 100.97 91.93 101 97.9 101 97.9 L 99 97.9 Z M 109.8 96.2 C 110 96.2 110.3 96.2 110.6 96.2 C 110.6 96.2 110.9 97.9 110.9 97.9 C 110.3 98 109.8 98.1 109.4 98.1 C 108.7 98.1 108.2 97.9 107.8 97.7 C 107.4 97.5 107.1 97.2 107 96.8 C 106.8 96.5 106.7 95.7 106.7 94.6 C 106.73 94.56 106.7 88 106.7 88 L 105.3 88 L 105.3 86.5 L 106.7 86.5 L 106.7 83.7 L 108.7 82.5 L 108.7 86.5 L 110.6 86.5 L 110.6 88 L 108.7 88 C 108.7 88 108.66 94.67 108.7 94.7 C 108.7 95.2 108.7 95.6 108.8 95.7 C 108.8 95.9 108.9 96 109.1 96.1 C 109.2 96.2 109.5 96.2 109.8 96.2 C 109.8 96.2 109.8 96.2 109.8 96.2 Z M 117.9 92.2 C 117.9 90.1 118.5 88.5 119.6 87.5 C 120.6 86.7 121.8 86.2 123.2 86.2 C 124.8 86.2 126.1 86.8 127.1 87.8 C 128.1 88.8 128.6 90.2 128.6 92 C 128.6 93.5 128.4 94.7 127.9 95.5 C 127.5 96.3 126.8 97 126 97.5 C 125.1 97.9 124.2 98.2 123.2 98.2 C 121.6 98.2 120.3 97.6 119.4 96.6 C 118.4 95.6 117.9 94.1 117.9 92.2 Z M 119.9 92.2 C 119.9 93.7 120.2 94.8 120.8 95.5 C 121.5 96.2 122.3 96.6 123.2 96.6 C 124.2 96.6 125 96.2 125.6 95.5 C 126.3 94.7 126.6 93.6 126.6 92.1 C 126.6 90.7 126.3 89.7 125.6 88.9 C 125 88.2 124.2 87.8 123.2 87.8 C 122.3 87.8 121.5 88.2 120.8 88.9 C 120.2 89.6 119.9 90.7 119.9 92.2 Z M 131.3 97.9 L 131.3 88 L 129.6 88 L 129.6 86.5 L 131.3 86.5 C 131.3 86.5 131.3 85.28 131.3 85.3 C 131.3 84.5 131.4 83.9 131.5 83.6 C 131.7 83.1 132 82.7 132.5 82.4 C 133 82 133.6 81.9 134.5 81.9 C 135 81.9 135.6 82 136.3 82.1 C 136.3 82.1 136 83.8 136 83.8 C 135.6 83.7 135.2 83.7 134.8 83.7 C 134.2 83.7 133.8 83.8 133.6 84 C 133.3 84.3 133.2 84.8 133.2 85.4 C 133.22 85.44 133.2 86.5 133.2 86.5 L 135.4 86.5 L 135.4 88 L 133.2 88 L 133.2 97.9 L 131.3 97.9 Z M 143.1 97.9 L 143.1 86.5 L 144.8 86.5 C 144.8 86.5 144.79 88.1 144.8 88.1 C 145.2 87.5 145.6 87.1 146.2 86.7 C 146.8 86.4 147.5 86.2 148.3 86.2 C 149.1 86.2 149.8 86.4 150.3 86.8 C 150.9 87.1 151.3 87.6 151.5 88.2 C 152.4 86.9 153.6 86.2 155 86.2 C 156.1 86.2 157 86.6 157.6 87.2 C 158.2 87.8 158.5 88.8 158.5 90.1 C 158.52 90.07 158.5 97.9 158.5 97.9 L 156.6 97.9 C 156.6 97.9 156.6 90.72 156.6 90.7 C 156.6 89.9 156.5 89.4 156.4 89 C 156.3 88.7 156.1 88.4 155.7 88.2 C 155.4 88 155 87.9 154.6 87.9 C 153.8 87.9 153.1 88.2 152.6 88.7 C 152 89.2 151.8 90.1 151.8 91.3 C 151.78 91.28 151.8 97.9 151.8 97.9 L 149.8 97.9 C 149.8 97.9 149.84 90.49 149.8 90.5 C 149.8 89.6 149.7 89 149.4 88.6 C 149.1 88.1 148.5 87.9 147.8 87.9 C 147.3 87.9 146.8 88.1 146.3 88.3 C 145.9 88.6 145.5 89 145.3 89.6 C 145.1 90.2 145 90.9 145 92 C 145 91.98 145 97.9 145 97.9 L 143.1 97.9 Z M 160.7 92.2 C 160.7 90.1 161.3 88.5 162.4 87.5 C 163.4 86.7 164.6 86.2 166 86.2 C 167.6 86.2 168.9 86.8 169.9 87.8 C 170.9 88.8 171.4 90.2 171.4 92 C 171.4 93.5 171.1 94.7 170.7 95.5 C 170.3 96.3 169.6 97 168.8 97.5 C 167.9 97.9 167 98.2 166 98.2 C 164.4 98.2 163.1 97.6 162.1 96.6 C 161.2 95.6 160.7 94.1 160.7 92.2 Z M 162.7 92.2 C 162.7 93.7 163 94.8 163.6 95.5 C 164.3 96.2 165.1 96.6 166 96.6 C 167 96.6 167.8 96.2 168.4 95.5 C 169.1 94.7 169.4 93.6 169.4 92.1 C 169.4 90.7 169.1 89.7 168.4 88.9 C 167.8 88.2 167 87.8 166 87.8 C 165.1 87.8 164.3 88.2 163.6 88.9 C 163 89.6 162.7 90.7 162.7 92.2 Z M 172.9 94.5 C 172.9 94.5 174.8 94.2 174.8 94.2 C 174.9 95 175.2 95.6 175.7 96 C 176.2 96.4 176.8 96.6 177.7 96.6 C 178.6 96.6 179.3 96.4 179.7 96 C 180.1 95.7 180.3 95.2 180.3 94.8 C 180.3 94.3 180.1 94 179.8 93.7 C 179.5 93.6 178.8 93.3 177.8 93.1 C 176.4 92.7 175.4 92.4 174.8 92.1 C 174.3 91.9 173.9 91.5 173.6 91.1 C 173.3 90.6 173.2 90.1 173.2 89.5 C 173.2 89 173.3 88.5 173.5 88.1 C 173.8 87.7 174.1 87.3 174.5 87 C 174.8 86.8 175.2 86.6 175.7 86.5 C 176.2 86.3 176.8 86.2 177.4 86.2 C 178.3 86.2 179.1 86.4 179.7 86.6 C 180.4 86.9 180.9 87.2 181.2 87.7 C 181.6 88.1 181.8 88.7 181.9 89.4 C 181.9 89.4 180 89.7 180 89.7 C 179.9 89.1 179.7 88.7 179.3 88.3 C 178.8 88 178.3 87.8 177.5 87.8 C 176.6 87.8 176 88 175.6 88.3 C 175.2 88.6 175 88.9 175 89.3 C 175 89.5 175.1 89.8 175.3 90 C 175.4 90.2 175.7 90.4 176 90.5 C 176.2 90.6 176.8 90.7 177.7 91 C 179.1 91.4 180.1 91.6 180.6 91.9 C 181.1 92.1 181.6 92.5 181.9 92.9 C 182.2 93.3 182.3 93.9 182.3 94.6 C 182.3 95.2 182.1 95.8 181.8 96.4 C 181.4 96.9 180.8 97.4 180.1 97.7 C 179.4 98 178.6 98.2 177.7 98.2 C 176.2 98.2 175.1 97.9 174.3 97.2 C 173.6 96.6 173.1 95.7 172.9 94.5 Z M 188 96.2 C 188.2 96.2 188.5 96.2 188.8 96.2 C 188.8 96.2 189.1 97.9 189.1 97.9 C 188.6 98 188.1 98.1 187.7 98.1 C 187 98.1 186.4 97.9 186 97.7 C 185.6 97.5 185.4 97.2 185.2 96.8 C 185.1 96.5 185 95.7 185 94.6 C 184.98 94.56 185 88 185 88 L 183.6 88 L 183.6 86.5 L 185 86.5 L 185 83.7 L 186.9 82.5 L 186.9 86.5 L 188.8 86.5 L 188.8 88 L 186.9 88 C 186.9 88 186.9 94.67 186.9 94.7 C 186.9 95.2 186.9 95.6 187 95.7 C 187.1 95.9 187.2 96 187.3 96.1 C 187.5 96.2 187.7 96.2 188 96.2 C 188 96.2 188 96.2 188 96.2 Z M 196.8 97.9 L 196.8 82.2 L 198.7 82.2 L 198.7 97.9 L 196.8 97.9 Z M 209.5 94.2 C 209.5 94.2 211.5 94.5 211.5 94.5 C 211.2 95.6 210.6 96.6 209.8 97.2 C 208.9 97.8 207.9 98.2 206.5 98.2 C 204.9 98.2 203.5 97.6 202.6 96.6 C 201.6 95.6 201.1 94.2 201.1 92.3 C 201.1 90.4 201.6 88.9 202.6 87.8 C 203.6 86.8 204.8 86.2 206.4 86.2 C 207.9 86.2 209.2 86.8 210.2 87.8 C 211.1 88.8 211.6 90.3 211.6 92.2 C 211.6 92.3 211.6 92.5 211.6 92.7 C 211.6 92.7 203.1 92.7 203.1 92.7 C 203.2 93.9 203.5 94.9 204.2 95.6 C 204.8 96.2 205.6 96.6 206.5 96.6 C 207.2 96.6 207.9 96.4 208.4 96 C 208.9 95.6 209.3 95 209.5 94.2 Z M 203.2 91.1 C 203.2 91.1 209.6 91.1 209.6 91.1 C 209.5 90.1 209.2 89.4 208.8 88.9 C 208.2 88.2 207.4 87.8 206.4 87.8 C 205.6 87.8 204.8 88.1 204.2 88.7 C 203.6 89.3 203.3 90.1 203.2 91.1 Z M 221.8 97.9 C 221.6 97.5 221.5 97 221.4 96.5 C 220.7 97.1 220 97.5 219.3 97.8 C 218.7 98 218 98.2 217.2 98.2 C 216 98.2 215 97.9 214.3 97.2 C 213.7 96.6 213.3 95.8 213.3 94.9 C 213.3 94.3 213.4 93.8 213.7 93.4 C 214 92.9 214.3 92.5 214.7 92.3 C 215.1 92 215.6 91.8 216.1 91.6 C 216.5 91.5 217 91.4 217.8 91.3 C 219.4 91.1 220.5 90.9 221.3 90.7 C 221.3 90.4 221.3 90.2 221.3 90.2 C 221.3 89.4 221.1 88.8 220.7 88.5 C 220.2 88.1 219.5 87.8 218.5 87.8 C 217.6 87.8 216.9 88 216.5 88.3 C 216.1 88.6 215.7 89.2 215.5 90 C 215.5 90 213.7 89.8 213.7 89.8 C 213.8 88.9 214.1 88.3 214.5 87.8 C 214.9 87.3 215.5 86.9 216.2 86.6 C 217 86.4 217.8 86.2 218.8 86.2 C 219.8 86.2 220.6 86.4 221.2 86.6 C 221.8 86.8 222.2 87.1 222.5 87.4 C 222.8 87.8 223 88.2 223.1 88.8 C 223.2 89.1 223.2 89.7 223.2 90.5 C 223.2 90.5 223.2 93.1 223.2 93.1 C 223.2 94.9 223.3 96.1 223.3 96.5 C 223.4 97 223.6 97.5 223.8 97.9 C 223.82 97.9 221.8 97.9 221.8 97.9 C 221.8 97.9 221.8 97.9 221.8 97.9 Z M 221.3 92.2 C 220.6 92.5 219.5 92.7 218.1 92.9 C 217.3 93 216.7 93.2 216.4 93.3 C 216.1 93.4 215.8 93.6 215.6 93.9 C 215.5 94.2 215.4 94.5 215.4 94.8 C 215.4 95.4 215.6 95.8 216 96.1 C 216.4 96.5 216.9 96.6 217.7 96.6 C 218.4 96.6 219.1 96.5 219.7 96.2 C 220.2 95.8 220.7 95.4 220.9 94.8 C 221.2 94.4 221.3 93.7 221.3 92.9 C 221.3 92.9 221.3 92.2 221.3 92.2 Z M 226.2 97.9 L 226.2 86.5 L 227.9 86.5 C 227.9 86.5 227.93 88.22 227.9 88.2 C 228.4 87.4 228.8 86.9 229.2 86.6 C 229.5 86.4 229.9 86.2 230.4 86.2 C 231 86.2 231.7 86.4 232.4 86.9 C 232.4 86.9 231.7 88.7 231.7 88.7 C 231.2 88.4 230.8 88.2 230.3 88.2 C 229.9 88.2 229.5 88.4 229.2 88.6 C 228.8 88.9 228.6 89.2 228.4 89.7 C 228.2 90.4 228.1 91.1 228.1 91.9 C 228.12 91.93 228.1 97.9 228.1 97.9 L 226.2 97.9 Z M 233.5 97.9 L 233.5 86.5 L 235.3 86.5 C 235.3 86.5 235.27 88.12 235.3 88.1 C 236.1 86.9 237.3 86.2 238.9 86.2 C 239.6 86.2 240.2 86.4 240.8 86.6 C 241.4 86.9 241.8 87.2 242.1 87.6 C 242.4 88 242.6 88.5 242.7 89 C 242.8 89.4 242.8 90 242.8 90.9 C 242.81 90.89 242.8 97.9 242.8 97.9 L 240.9 97.9 C 240.9 97.9 240.87 90.96 240.9 91 C 240.9 90.2 240.8 89.6 240.6 89.2 C 240.5 88.8 240.2 88.5 239.8 88.3 C 239.5 88 239 87.9 238.5 87.9 C 237.7 87.9 237 88.2 236.4 88.7 C 235.8 89.2 235.5 90.2 235.5 91.7 C 235.47 91.67 235.5 97.9 235.5 97.9 L 233.5 97.9 Z M 253.6 94.2 C 253.6 94.2 255.6 94.5 255.6 94.5 C 255.3 95.6 254.7 96.6 253.8 97.2 C 253 97.8 251.9 98.2 250.6 98.2 C 248.9 98.2 247.6 97.6 246.6 96.6 C 245.6 95.6 245.1 94.2 245.1 92.3 C 245.1 90.4 245.6 88.9 246.6 87.8 C 247.6 86.8 248.9 86.2 250.5 86.2 C 252 86.2 253.2 86.8 254.2 87.8 C 255.2 88.8 255.6 90.3 255.6 92.2 C 255.6 92.3 255.6 92.5 255.6 92.7 C 255.6 92.7 247.1 92.7 247.1 92.7 C 247.2 93.9 247.5 94.9 248.2 95.6 C 248.8 96.2 249.6 96.6 250.6 96.6 C 251.3 96.6 251.9 96.4 252.4 96 C 252.9 95.6 253.3 95 253.6 94.2 Z M 247.2 91.1 C 247.2 91.1 253.6 91.1 253.6 91.1 C 253.5 90.1 253.3 89.4 252.9 88.9 C 252.3 88.2 251.5 87.8 250.5 87.8 C 249.6 87.8 248.8 88.1 248.2 88.7 C 247.6 89.3 247.3 90.1 247.2 91.1 Z M 258 97.9 L 258 86.5 L 259.7 86.5 C 259.7 86.5 259.72 88.22 259.7 88.2 C 260.2 87.4 260.6 86.9 261 86.6 C 261.3 86.4 261.7 86.2 262.2 86.2 C 262.8 86.2 263.5 86.4 264.2 86.9 C 264.2 86.9 263.5 88.7 263.5 88.7 C 263 88.4 262.6 88.2 262.1 88.2 C 261.7 88.2 261.3 88.4 261 88.6 C 260.6 88.9 260.4 89.2 260.2 89.7 C 260 90.4 259.9 91.1 259.9 91.9 C 259.92 91.93 259.9 97.9 259.9 97.9 L 258 97.9 Z M 271.4 102.3 L 271.4 86.5 L 273.2 86.5 C 273.2 86.5 273.21 87.98 273.2 88 C 273.6 87.4 274.1 87 274.6 86.7 C 275.1 86.4 275.8 86.2 276.5 86.2 C 277.5 86.2 278.3 86.5 279.1 87 C 279.8 87.5 280.4 88.2 280.8 89.1 C 281.2 90 281.3 91 281.3 92.1 C 281.3 93.3 281.1 94.3 280.7 95.3 C 280.3 96.2 279.7 96.9 278.9 97.4 C 278.1 97.9 277.3 98.2 276.4 98.2 C 275.7 98.2 275.2 98 274.6 97.8 C 274.1 97.5 273.7 97.1 273.4 96.7 C 273.38 96.72 273.4 102.3 273.4 102.3 L 271.4 102.3 Z M 273.2 92.3 C 273.2 93.7 273.5 94.8 274.1 95.5 C 274.7 96.2 275.4 96.6 276.2 96.6 C 277.1 96.6 277.8 96.2 278.5 95.5 C 279.1 94.8 279.4 93.6 279.4 92.1 C 279.4 90.6 279.1 89.6 278.5 88.8 C 277.9 88.1 277.2 87.8 276.3 87.8 C 275.5 87.8 274.8 88.1 274.1 88.9 C 273.5 89.7 273.2 90.8 273.2 92.3 Z M 283.7 97.9 L 283.7 86.5 L 285.4 86.5 C 285.4 86.5 285.4 88.22 285.4 88.2 C 285.8 87.4 286.3 86.9 286.6 86.6 C 287 86.4 287.4 86.2 287.9 86.2 C 288.5 86.2 289.2 86.4 289.9 86.9 C 289.9 86.9 289.2 88.7 289.2 88.7 C 288.7 88.4 288.2 88.2 287.8 88.2 C 287.3 88.2 287 88.4 286.6 88.6 C 286.3 88.9 286.1 89.2 285.9 89.7 C 285.7 90.4 285.6 91.1 285.6 91.9 C 285.59 91.93 285.6 97.9 285.6 97.9 L 283.7 97.9 Z M 290.3 92.2 C 290.3 90.1 290.9 88.5 292 87.5 C 293 86.7 294.2 86.2 295.6 86.2 C 297.2 86.2 298.5 86.8 299.5 87.8 C 300.5 88.8 301 90.2 301 92 C 301 93.5 300.8 94.7 300.3 95.5 C 299.9 96.3 299.2 97 298.4 97.5 C 297.5 97.9 296.6 98.2 295.6 98.2 C 294 98.2 292.7 97.6 291.8 96.6 C 290.8 95.6 290.3 94.1 290.3 92.2 Z M 292.3 92.2 C 292.3 93.7 292.6 94.8 293.2 95.5 C 293.9 96.2 294.7 96.6 295.6 96.6 C 296.6 96.6 297.4 96.2 298 95.5 C 298.7 94.7 299 93.6 299 92.1 C 299 90.7 298.7 89.7 298 88.9 C 297.4 88.2 296.6 87.8 295.6 87.8 C 294.7 87.8 293.9 88.2 293.2 88.9 C 292.6 89.6 292.3 90.7 292.3 92.2 Z M 303.2 84.4 L 303.2 82.2 L 305.2 82.2 L 305.2 84.4 L 303.2 84.4 Z M 302.3 102.5 C 301.8 102.5 301.3 102.5 300.8 102.3 C 300.8 102.3 301.1 100.7 301.1 100.7 C 301.5 100.8 301.8 100.8 302.1 100.8 C 302.5 100.8 302.7 100.7 302.9 100.4 C 303.1 100.2 303.2 99.5 303.2 98.5 C 303.23 98.48 303.2 86.5 303.2 86.5 L 305.2 86.5 C 305.2 86.5 305.16 98.53 305.2 98.5 C 305.2 99.9 305 100.9 304.6 101.5 C 304.2 102.2 303.4 102.5 302.3 102.5 C 302.3 102.5 302.3 102.5 302.3 102.5 Z M 315.9 94.2 C 315.9 94.2 317.9 94.5 317.9 94.5 C 317.6 95.6 317 96.6 316.2 97.2 C 315.3 97.8 314.2 98.2 312.9 98.2 C 311.3 98.2 309.9 97.6 309 96.6 C 308 95.6 307.5 94.2 307.5 92.3 C 307.5 90.4 308 88.9 309 87.8 C 310 86.8 311.2 86.2 312.8 86.2 C 314.3 86.2 315.6 86.8 316.6 87.8 C 317.5 88.8 318 90.3 318 92.2 C 318 92.3 318 92.5 318 92.7 C 318 92.7 309.5 92.7 309.5 92.7 C 309.6 93.9 309.9 94.9 310.5 95.6 C 311.2 96.2 312 96.6 312.9 96.6 C 313.6 96.6 314.2 96.4 314.7 96 C 315.2 95.6 315.6 95 315.9 94.2 Z M 309.6 91.1 C 309.6 91.1 316 91.1 316 91.1 C 315.9 90.1 315.6 89.4 315.2 88.9 C 314.6 88.2 313.8 87.8 312.8 87.8 C 311.9 87.8 311.2 88.1 310.6 88.7 C 310 89.3 309.7 90.1 309.6 91.1 Z M 327.8 93.7 C 327.8 93.7 329.7 94 329.7 94 C 329.5 95.3 329 96.3 328.1 97 C 327.3 97.8 326.2 98.2 325 98.2 C 323.4 98.2 322.1 97.7 321.2 96.6 C 320.2 95.6 319.8 94.1 319.8 92.2 C 319.8 91 320 89.9 320.4 89 C 320.8 88.1 321.4 87.4 322.2 86.9 C 323.1 86.5 324 86.2 325 86.2 C 326.2 86.2 327.2 86.6 328 87.2 C 328.8 87.8 329.3 88.7 329.5 89.8 C 329.5 89.8 327.6 90.1 327.6 90.1 C 327.5 89.4 327.2 88.8 326.7 88.4 C 326.2 88 325.7 87.8 325 87.8 C 324.1 87.8 323.3 88.2 322.7 88.9 C 322.1 89.6 321.8 90.7 321.8 92.2 C 321.8 93.7 322.1 94.8 322.6 95.5 C 323.2 96.2 324 96.6 324.9 96.6 C 325.7 96.6 326.3 96.3 326.8 95.9 C 327.3 95.4 327.7 94.7 327.8 93.7 Z M 334.7 96.2 C 335 96.2 335.2 96.2 335.6 96.2 C 335.6 96.2 335.9 97.9 335.9 97.9 C 335.3 98 334.8 98.1 334.4 98.1 C 333.7 98.1 333.2 97.9 332.8 97.7 C 332.4 97.5 332.1 97.2 332 96.8 C 331.8 96.5 331.7 95.7 331.7 94.6 C 331.72 94.56 331.7 88 331.7 88 L 330.3 88 L 330.3 86.5 L 331.7 86.5 L 331.7 83.7 L 333.6 82.5 L 333.6 86.5 L 335.6 86.5 L 335.6 88 L 333.6 88 C 333.6 88 333.64 94.67 333.6 94.7 C 333.6 95.2 333.7 95.6 333.7 95.7 C 333.8 95.9 333.9 96 334.1 96.1 C 334.2 96.2 334.5 96.2 334.7 96.2 C 334.7 96.2 334.7 96.2 334.7 96.2 Z M 336.7 94.5 C 336.7 94.5 338.6 94.2 338.6 94.2 C 338.7 95 339 95.6 339.5 96 C 340 96.4 340.7 96.6 341.6 96.6 C 342.5 96.6 343.1 96.4 343.5 96 C 344 95.7 344.2 95.2 344.2 94.8 C 344.2 94.3 344 94 343.6 93.7 C 343.4 93.6 342.7 93.3 341.6 93.1 C 340.2 92.7 339.2 92.4 338.7 92.1 C 338.1 91.9 337.7 91.5 337.4 91.1 C 337.2 90.6 337 90.1 337 89.5 C 337 89 337.1 88.5 337.4 88.1 C 337.6 87.7 337.9 87.3 338.3 87 C 338.6 86.8 339 86.6 339.6 86.5 C 340.1 86.3 340.6 86.2 341.2 86.2 C 342.1 86.2 342.9 86.4 343.6 86.6 C 344.3 86.9 344.8 87.2 345.1 87.7 C 345.4 88.1 345.6 88.7 345.7 89.4 C 345.7 89.4 343.9 89.7 343.9 89.7 C 343.8 89.1 343.5 88.7 343.1 88.3 C 342.7 88 342.1 87.8 341.4 87.8 C 340.5 87.8 339.8 88 339.5 88.3 C 339.1 88.6 338.9 88.9 338.9 89.3 C 338.9 89.5 339 89.8 339.1 90 C 339.3 90.2 339.5 90.4 339.9 90.5 C 340.1 90.6 340.6 90.7 341.6 91 C 342.9 91.4 343.9 91.6 344.4 91.9 C 345 92.1 345.4 92.5 345.7 92.9 C 346 93.3 346.2 93.9 346.2 94.6 C 346.2 95.2 346 95.8 345.6 96.4 C 345.2 96.9 344.7 97.4 344 97.7 C 343.3 98 342.5 98.2 341.6 98.2 C 340.1 98.2 339 97.9 338.2 97.2 C 337.4 96.6 336.9 95.7 336.7 94.5 Z " stroke="none" fill="#000"/>  </g>  <g id="Polygon7079">    <path d="M 102.6 43.5 L 97.2 63 L 92.6 63 L 88.9 49.1 L 85.1 63 L 80.5 63 L 75.2 43.5 L 79.4 43.5 L 82.8 58.6 L 86.8 43.5 L 91.2 43.5 L 94.9 58.5 L 98.4 43.5 L 102.6 43.5 Z M 112.1 63.3 C 110.6 63.3 109.2 62.9 108 62.3 C 106.9 61.6 105.9 60.7 105.2 59.4 C 104.6 58.2 104.2 56.8 104.2 55.2 C 104.2 53.7 104.6 52.3 105.3 51 C 106 49.8 106.9 48.9 108.1 48.2 C 109.3 47.6 110.7 47.2 112.2 47.2 C 113.7 47.2 115 47.6 116.2 48.2 C 117.5 48.9 118.4 49.8 119.1 51 C 119.8 52.3 120.2 53.7 120.2 55.2 C 120.2 56.8 119.8 58.2 119.1 59.4 C 118.4 60.7 117.4 61.6 116.2 62.3 C 115 62.9 113.6 63.3 112.1 63.3 C 112.1 63.3 112.1 63.3 112.1 63.3 Z M 112.1 59.8 C 112.8 59.8 113.5 59.7 114.1 59.3 C 114.7 59 115.2 58.5 115.6 57.8 C 116 57.1 116.1 56.2 116.1 55.2 C 116.1 53.8 115.8 52.6 115 51.8 C 114.2 51 113.3 50.7 112.1 50.7 C 111 50.7 110.1 51 109.3 51.8 C 108.6 52.6 108.2 53.8 108.2 55.2 C 108.2 56.7 108.6 57.9 109.3 58.6 C 110 59.4 111 59.8 112.1 59.8 C 112.1 59.8 112.1 59.8 112.1 59.8 Z M 127 49.9 C 127.5 49.1 128.1 48.4 128.9 48 C 129.8 47.5 130.7 47.3 131.7 47.3 C 131.73 47.26 131.7 51.4 131.7 51.4 C 131.7 51.4 130.7 51.38 130.7 51.4 C 129.5 51.4 128.5 51.7 127.9 52.2 C 127.3 52.8 127 53.8 127 55.3 C 126.97 55.27 127 63 127 63 L 123.1 63 L 123.1 47.5 L 127 47.5 L 127 49.9 C 127 49.9 126.97 49.9 127 49.9 Z M 143.5 63 L 138.3 56.4 L 138.3 63 L 134.4 63 L 134.4 42.3 L 138.3 42.3 L 138.3 54.1 L 143.5 47.5 L 148.6 47.5 L 141.8 55.3 L 148.6 63 L 143.5 63 Z M 157.8 50.7 L 155.1 50.7 L 155.1 63 L 151.1 63 L 151.1 50.7 L 149.4 50.7 L 149.4 47.5 L 151.1 47.5 C 151.1 47.5 151.14 46.7 151.1 46.7 C 151.1 44.8 151.7 43.4 152.8 42.5 C 153.8 41.6 155.5 41.2 157.7 41.2 C 157.7 41.2 157.7 44.5 157.7 44.5 C 156.7 44.5 156 44.7 155.7 45 C 155.3 45.4 155.1 46 155.1 46.8 C 155.11 46.84 155.1 47.5 155.1 47.5 L 157.8 47.5 L 157.8 50.7 Z M 164.3 42.3 L 164.3 63 L 160.4 63 L 160.4 42.3 L 164.3 42.3 Z M 175 63.3 C 173.6 63.3 172.2 62.9 171 62.3 C 169.8 61.6 168.9 60.7 168.2 59.4 C 167.5 58.2 167.2 56.8 167.2 55.2 C 167.2 53.7 167.5 52.3 168.2 51 C 168.9 49.8 169.9 48.9 171.1 48.2 C 172.3 47.6 173.7 47.2 175.2 47.2 C 176.7 47.2 178 47.6 179.2 48.2 C 180.4 48.9 181.4 49.8 182.1 51 C 182.8 52.3 183.1 53.7 183.1 55.2 C 183.1 56.8 182.8 58.2 182.1 59.4 C 181.3 60.7 180.4 61.6 179.2 62.3 C 177.9 62.9 176.6 63.3 175 63.3 C 175 63.3 175 63.3 175 63.3 Z M 175 59.8 C 175.8 59.8 176.4 59.7 177.1 59.3 C 177.7 59 178.2 58.5 178.5 57.8 C 178.9 57.1 179.1 56.2 179.1 55.2 C 179.1 53.8 178.7 52.6 177.9 51.8 C 177.2 51 176.2 50.7 175.1 50.7 C 174 50.7 173 51 172.3 51.8 C 171.5 52.6 171.2 53.8 171.2 55.2 C 171.2 56.7 171.5 57.9 172.3 58.6 C 173 59.4 173.9 59.8 175 59.8 C 175 59.8 175 59.8 175 59.8 Z M 207.5 47.5 L 203 63 L 198.8 63 L 195.9 52.2 L 193.1 63 L 188.9 63 L 184.3 47.5 L 188.3 47.5 L 191 59.3 L 194 47.5 L 198.1 47.5 L 201 59.3 L 203.8 47.5 L 207.5 47.5 Z M 229.6 43.5 L 229.6 46.6 L 224.4 46.6 L 224.4 63 L 220.5 63 L 220.5 46.6 L 215.3 46.6 L 215.3 43.5 L 229.6 43.5 Z M 239.4 63.3 C 237.9 63.3 236.5 62.9 235.3 62.3 C 234.1 61.6 233.2 60.7 232.5 59.4 C 231.8 58.2 231.5 56.8 231.5 55.2 C 231.5 53.7 231.8 52.3 232.5 51 C 233.2 49.8 234.2 48.9 235.4 48.2 C 236.6 47.6 238 47.2 239.5 47.2 C 241 47.2 242.3 47.6 243.5 48.2 C 244.7 48.9 245.7 49.8 246.4 51 C 247.1 52.3 247.5 53.7 247.5 55.2 C 247.5 56.8 247.1 58.2 246.4 59.4 C 245.7 60.7 244.7 61.6 243.5 62.3 C 242.2 62.9 240.9 63.3 239.4 63.3 C 239.4 63.3 239.4 63.3 239.4 63.3 Z M 239.4 59.8 C 240.1 59.8 240.7 59.7 241.4 59.3 C 242 59 242.5 58.5 242.9 57.8 C 243.2 57.1 243.4 56.2 243.4 55.2 C 243.4 53.8 243 52.6 242.3 51.8 C 241.5 51 240.5 50.7 239.4 50.7 C 238.3 50.7 237.4 51 236.6 51.8 C 235.8 52.6 235.5 53.8 235.5 55.2 C 235.5 56.7 235.8 57.9 236.6 58.6 C 237.3 59.4 238.2 59.8 239.4 59.8 C 239.4 59.8 239.4 59.8 239.4 59.8 Z M 257.2 63.3 C 255.7 63.3 254.4 62.9 253.2 62.3 C 252 61.6 251.1 60.7 250.4 59.4 C 249.7 58.2 249.4 56.8 249.4 55.2 C 249.4 53.7 249.7 52.3 250.4 51 C 251.1 49.8 252.1 48.9 253.3 48.2 C 254.5 47.6 255.8 47.2 257.3 47.2 C 258.8 47.2 260.2 47.6 261.4 48.2 C 262.6 48.9 263.6 49.8 264.3 51 C 265 52.3 265.3 53.7 265.3 55.2 C 265.3 56.8 265 58.2 264.2 59.4 C 263.5 60.7 262.6 61.6 261.3 62.3 C 260.1 62.9 258.7 63.3 257.2 63.3 C 257.2 63.3 257.2 63.3 257.2 63.3 Z M 257.2 59.8 C 257.9 59.8 258.6 59.7 259.2 59.3 C 259.9 59 260.4 58.5 260.7 57.8 C 261.1 57.1 261.3 56.2 261.3 55.2 C 261.3 53.8 260.9 52.6 260.1 51.8 C 259.4 51 258.4 50.7 257.3 50.7 C 256.2 50.7 255.2 51 254.5 51.8 C 253.7 52.6 253.3 53.8 253.3 55.2 C 253.3 56.7 253.7 57.9 254.4 58.6 C 255.2 59.4 256.1 59.8 257.2 59.8 C 257.2 59.8 257.2 59.8 257.2 59.8 Z M 272.1 42.3 L 272.1 63 L 268.2 63 L 268.2 42.3 L 272.1 42.3 Z M 281.9 63.3 C 280.7 63.3 279.5 63 278.5 62.6 C 277.5 62.1 276.7 61.5 276.1 60.7 C 275.5 59.9 275.2 59.1 275.1 58.1 C 275.1 58.1 279.1 58.1 279.1 58.1 C 279.2 58.7 279.5 59.2 280 59.6 C 280.5 60 281.1 60.2 281.9 60.2 C 282.6 60.2 283.2 60 283.6 59.7 C 284.1 59.4 284.3 59 284.3 58.6 C 284.3 58.1 284 57.7 283.5 57.4 C 283 57.2 282.2 56.9 281.1 56.6 C 279.9 56.3 279 56 278.2 55.7 C 277.5 55.4 276.8 55 276.3 54.4 C 275.8 53.8 275.5 52.9 275.5 51.9 C 275.5 51 275.8 50.2 276.3 49.5 C 276.7 48.8 277.5 48.3 278.4 47.9 C 279.3 47.4 280.4 47.2 281.6 47.2 C 283.5 47.2 285 47.7 286.1 48.6 C 287.2 49.5 287.8 50.8 287.9 52.4 C 287.9 52.4 284.1 52.4 284.1 52.4 C 284.1 51.7 283.8 51.3 283.4 50.9 C 282.9 50.5 282.3 50.3 281.5 50.3 C 280.8 50.3 280.3 50.5 279.9 50.7 C 279.5 51 279.3 51.4 279.3 51.8 C 279.3 52.4 279.6 52.7 280.1 53 C 280.6 53.3 281.4 53.6 282.5 53.8 C 283.7 54.1 284.6 54.4 285.3 54.7 C 286 55 286.7 55.5 287.2 56.1 C 287.7 56.7 288 57.5 288 58.6 C 288 59.5 287.8 60.3 287.3 61 C 286.8 61.7 286.1 62.2 285.2 62.6 C 284.2 63.1 283.2 63.3 281.9 63.3 C 281.9 63.3 281.9 63.3 281.9 63.3 Z " stroke="none" fill="#e4007e"/>  </g>  <g id="Polygon7078">    <path d="M 96.3 25.7 L 88.5 25.7 L 87.3 29.4 L 83.1 29.4 L 90.2 9.8 L 94.7 9.8 L 101.8 29.4 L 97.6 29.4 L 96.3 25.7 Z M 95.3 22.5 L 92.4 14.4 L 89.6 22.5 L 95.3 22.5 Z M 119 13.9 L 119 29.4 L 115.1 29.4 C 115.1 29.4 115.09 27.44 115.1 27.4 C 114.6 28.1 113.9 28.6 113.1 29 C 112.3 29.4 111.4 29.6 110.5 29.6 C 109.3 29.6 108.2 29.3 107.2 28.8 C 106.3 28.3 105.6 27.6 105 26.6 C 104.5 25.6 104.3 24.4 104.3 23 C 104.25 22.99 104.3 13.9 104.3 13.9 L 108.2 13.9 C 108.2 13.9 108.17 22.43 108.2 22.4 C 108.2 23.7 108.5 24.6 109.1 25.3 C 109.7 25.9 110.6 26.3 111.6 26.3 C 112.7 26.3 113.5 25.9 114.2 25.3 C 114.8 24.6 115.1 23.7 115.1 22.4 C 115.09 22.43 115.1 13.9 115.1 13.9 L 119 13.9 Z M 127.5 17.1 C 127.5 17.1 127.46 24.61 127.5 24.6 C 127.5 25.1 127.6 25.5 127.8 25.7 C 128.1 26 128.5 26.1 129.1 26.1 C 129.12 26.1 130.9 26.1 130.9 26.1 L 130.9 29.4 C 130.9 29.4 128.47 29.4 128.5 29.4 C 125.2 29.4 123.5 27.8 123.5 24.6 C 123.52 24.58 123.5 17.1 123.5 17.1 L 121.7 17.1 L 121.7 13.9 L 123.5 13.9 L 123.5 10.1 L 127.5 10.1 L 127.5 13.9 L 130.9 13.9 L 130.9 17.1 L 127.5 17.1 Z M 140.7 29.7 C 139.2 29.7 137.8 29.3 136.6 28.7 C 135.4 28 134.5 27.1 133.8 25.8 C 133.1 24.6 132.8 23.2 132.8 21.6 C 132.8 20.1 133.1 18.7 133.8 17.4 C 134.5 16.2 135.5 15.3 136.7 14.6 C 137.9 14 139.3 13.6 140.8 13.6 C 142.3 13.6 143.6 14 144.8 14.6 C 146 15.3 147 16.2 147.7 17.4 C 148.4 18.7 148.7 20.1 148.7 21.6 C 148.7 23.2 148.4 24.6 147.7 25.8 C 146.9 27.1 146 28 144.8 28.7 C 143.5 29.3 142.2 29.7 140.7 29.7 C 140.7 29.7 140.7 29.7 140.7 29.7 Z M 140.7 26.2 C 141.4 26.2 142 26.1 142.7 25.7 C 143.3 25.4 143.8 24.9 144.2 24.2 C 144.5 23.5 144.7 22.6 144.7 21.6 C 144.7 20.2 144.3 19 143.5 18.2 C 142.8 17.4 141.8 17.1 140.7 17.1 C 139.6 17.1 138.6 17.4 137.9 18.2 C 137.1 19 136.8 20.2 136.8 21.6 C 136.8 23.1 137.1 24.3 137.9 25 C 138.6 25.8 139.5 26.2 140.7 26.2 C 140.7 26.2 140.7 26.2 140.7 26.2 Z M 170.9 13.7 C 172.8 13.7 174.3 14.2 175.5 15.4 C 176.7 16.6 177.2 18.2 177.2 20.3 C 177.25 20.3 177.2 29.4 177.2 29.4 L 173.3 29.4 C 173.3 29.4 173.33 20.83 173.3 20.8 C 173.3 19.6 173 18.7 172.4 18 C 171.8 17.4 170.9 17.1 169.9 17.1 C 168.8 17.1 168 17.4 167.3 18 C 166.7 18.7 166.4 19.6 166.4 20.8 C 166.41 20.83 166.4 29.4 166.4 29.4 L 162.5 29.4 C 162.5 29.4 162.49 20.83 162.5 20.8 C 162.5 19.6 162.2 18.7 161.6 18 C 161 17.4 160.1 17.1 159 17.1 C 158 17.1 157.1 17.4 156.5 18 C 155.9 18.7 155.5 19.6 155.5 20.8 C 155.55 20.83 155.5 29.4 155.5 29.4 L 151.6 29.4 L 151.6 13.9 L 155.5 13.9 C 155.5 13.9 155.55 15.76 155.5 15.8 C 156.1 15.1 156.7 14.6 157.5 14.2 C 158.3 13.9 159.2 13.7 160.1 13.7 C 161.3 13.7 162.4 13.9 163.4 14.4 C 164.3 14.9 165 15.7 165.6 16.6 C 166.1 15.7 166.8 15 167.8 14.5 C 168.7 13.9 169.8 13.7 170.9 13.7 C 170.9 13.7 170.9 13.7 170.9 13.7 Z M 180 21.6 C 180 20 180.3 18.6 180.9 17.4 C 181.5 16.2 182.4 15.3 183.4 14.6 C 184.5 14 185.7 13.6 187 13.6 C 188.2 13.6 189.2 13.9 190.1 14.3 C 191 14.8 191.6 15.4 192.2 16.1 C 192.17 16.1 192.2 13.9 192.2 13.9 L 196.1 13.9 L 196.1 29.4 L 192.2 29.4 C 192.2 29.4 192.17 27.13 192.2 27.1 C 191.7 27.9 191 28.5 190.1 28.9 C 189.2 29.4 188.2 29.7 187 29.7 C 185.7 29.7 184.5 29.3 183.4 28.6 C 182.4 28 181.5 27 180.9 25.8 C 180.3 24.6 180 23.2 180 21.6 C 180 21.6 180 21.6 180 21.6 Z M 192.2 21.6 C 192.2 20.7 192 19.9 191.6 19.2 C 191.2 18.5 190.7 18 190.1 17.6 C 189.5 17.3 188.8 17.1 188.1 17.1 C 187.3 17.1 186.7 17.3 186 17.6 C 185.4 18 184.9 18.5 184.5 19.2 C 184.2 19.8 184 20.7 184 21.6 C 184 22.5 184.2 23.3 184.5 24 C 184.9 24.7 185.4 25.3 186.1 25.6 C 186.7 26 187.3 26.2 188.1 26.2 C 188.8 26.2 189.5 26 190.1 25.7 C 190.7 25.3 191.2 24.8 191.6 24.1 C 192 23.4 192.2 22.6 192.2 21.6 C 192.2 21.6 192.2 21.6 192.2 21.6 Z M 204.5 17.1 C 204.5 17.1 204.52 24.61 204.5 24.6 C 204.5 25.1 204.6 25.5 204.9 25.7 C 205.1 26 205.6 26.1 206.2 26.1 C 206.17 26.1 208 26.1 208 26.1 L 208 29.4 C 208 29.4 205.53 29.4 205.5 29.4 C 202.2 29.4 200.6 27.8 200.6 24.6 C 200.57 24.58 200.6 17.1 200.6 17.1 L 198.7 17.1 L 198.7 13.9 L 200.6 13.9 L 200.6 10.1 L 204.5 10.1 L 204.5 13.9 L 208 13.9 L 208 17.1 L 204.5 17.1 Z M 212.8 12 C 212.1 12 211.5 11.8 211.1 11.4 C 210.6 10.9 210.4 10.4 210.4 9.7 C 210.4 9.1 210.6 8.5 211.1 8.1 C 211.5 7.7 212.1 7.4 212.8 7.4 C 213.5 7.4 214.1 7.7 214.5 8.1 C 215 8.5 215.2 9.1 215.2 9.7 C 215.2 10.4 215 10.9 214.5 11.4 C 214.1 11.8 213.5 12 212.8 12 C 212.8 12 212.8 12 212.8 12 Z M 214.7 13.9 L 214.7 29.4 L 210.8 29.4 L 210.8 13.9 L 214.7 13.9 Z M 225.5 29.7 C 224 29.7 222.7 29.3 221.5 28.7 C 220.3 28 219.3 27.1 218.6 25.8 C 218 24.6 217.6 23.2 217.6 21.6 C 217.6 20.1 218 18.7 218.7 17.4 C 219.4 16.2 220.3 15.3 221.5 14.6 C 222.8 14 224.1 13.6 225.6 13.6 C 227.1 13.6 228.4 14 229.7 14.6 C 230.9 15.3 231.8 16.2 232.5 17.4 C 233.2 18.7 233.6 20.1 233.6 21.6 C 233.6 23.2 233.2 24.6 232.5 25.8 C 231.8 27.1 230.8 28 229.6 28.7 C 228.4 29.3 227 29.7 225.5 29.7 C 225.5 29.7 225.5 29.7 225.5 29.7 Z M 225.5 26.2 C 226.2 26.2 226.9 26.1 227.5 25.7 C 228.1 25.4 228.6 24.9 229 24.2 C 229.4 23.5 229.5 22.6 229.5 21.6 C 229.5 20.2 229.2 19 228.4 18.2 C 227.6 17.4 226.7 17.1 225.5 17.1 C 224.4 17.1 223.5 17.4 222.7 18.2 C 222 19 221.6 20.2 221.6 21.6 C 221.6 23.1 222 24.3 222.7 25 C 223.4 25.8 224.4 26.2 225.5 26.2 C 225.5 26.2 225.5 26.2 225.5 26.2 Z M 245.1 13.7 C 246.9 13.7 248.4 14.2 249.5 15.4 C 250.7 16.6 251.2 18.2 251.2 20.3 C 251.25 20.3 251.2 29.4 251.2 29.4 L 247.3 29.4 C 247.3 29.4 247.33 20.83 247.3 20.8 C 247.3 19.6 247 18.7 246.4 18 C 245.8 17.3 244.9 17 243.9 17 C 242.8 17 241.9 17.3 241.3 18 C 240.7 18.7 240.4 19.6 240.4 20.8 C 240.39 20.83 240.4 29.4 240.4 29.4 L 236.5 29.4 L 236.5 13.9 L 240.4 13.9 C 240.4 13.9 240.39 15.82 240.4 15.8 C 240.9 15.1 241.6 14.6 242.4 14.2 C 243.2 13.9 244.1 13.7 245.1 13.7 C 245.1 13.7 245.1 13.7 245.1 13.7 Z M 276.7 29.4 C 276.7 29.4 274.55 27.3 274.5 27.3 C 272.7 28.9 270.5 29.7 267.9 29.7 C 266.5 29.7 265.2 29.5 264.1 29 C 263 28.5 262.2 27.8 261.6 26.9 C 261 26 260.7 24.9 260.7 23.7 C 260.7 22.5 261 21.3 261.8 20.3 C 262.5 19.2 263.6 18.4 265 17.8 C 264.5 17.2 264.1 16.6 263.9 16 C 263.7 15.4 263.6 14.8 263.6 14.2 C 263.6 13.3 263.8 12.5 264.3 11.7 C 264.7 11 265.4 10.5 266.3 10.1 C 267.1 9.6 268.2 9.4 269.3 9.4 C 270.5 9.4 271.5 9.7 272.3 10.1 C 273.2 10.6 273.8 11.2 274.2 11.9 C 274.6 12.6 274.8 13.5 274.7 14.4 C 274.7 14.4 270.9 14.4 270.9 14.4 C 271 13.8 270.8 13.3 270.5 13 C 270.2 12.7 269.7 12.5 269.2 12.5 C 268.7 12.5 268.2 12.6 267.9 12.9 C 267.5 13.3 267.4 13.7 267.4 14.1 C 267.4 14.6 267.5 15.1 267.8 15.5 C 268.1 16 268.5 16.5 269.2 17.2 C 269.2 17.2 274.1 22.1 274.1 22.1 C 274.1 22.1 274.2 22 274.2 22 C 274.2 21.9 274.2 21.9 274.2 21.9 C 274.24 21.87 275.8 19.2 275.8 19.2 L 279.9 19.2 C 279.9 19.2 277.96 22.65 278 22.7 C 277.6 23.4 277.2 24.1 276.8 24.7 C 276.76 24.72 281.5 29.4 281.5 29.4 L 276.7 29.4 Z M 268 26.5 C 269.6 26.5 270.9 25.9 272.1 24.9 C 272.1 24.9 267.3 20.1 267.3 20.1 C 265.5 20.9 264.5 22 264.5 23.5 C 264.5 24.4 264.9 25.1 265.5 25.6 C 266.1 26.2 267 26.5 268 26.5 C 268 26.5 268 26.5 268 26.5 Z " stroke="none" fill="#e4007e"/>  </g></svg>