<?xml version="1.0" standalone="no"?><!DOCTYPE svg PUBLIC "-//W3C//DTD SVG 1.1//EN" "http://www.w3.org/Graphics/SVG/1.1/DTD/svg11.dtd"><svg xmlns="http://www.w3.org/2000/svg" version="1.1" width="365.3px" height="203.6px" viewBox="0 -2 365.3 203.6" style="top:-2px">  <desc>Provider Recommendation Ideal for higher performing learners or employers with more mature digital systems. Please sc...</desc>  <defs/>  <g id="Polygon8696">    <path d="M 1.7 188.7 L 1.7 173 C 1.7 173 7.64 172.96 7.6 173 C 8.7 173 9.5 173 10 173.1 C 10.8 173.2 11.5 173.5 12 173.8 C 12.5 174.2 12.9 174.7 13.2 175.4 C 13.6 176 13.7 176.7 13.7 177.5 C 13.7 178.8 13.3 180 12.4 180.9 C 11.6 181.8 10 182.3 7.8 182.3 C 7.82 182.3 3.8 182.3 3.8 182.3 L 3.8 188.7 L 1.7 188.7 Z M 3.8 180.4 C 3.8 180.4 7.85 180.44 7.9 180.4 C 9.2 180.4 10.2 180.2 10.7 179.7 C 11.3 179.2 11.6 178.5 11.6 177.6 C 11.6 176.9 11.4 176.4 11.1 175.9 C 10.7 175.4 10.3 175.1 9.8 175 C 9.4 174.9 8.8 174.8 7.8 174.8 C 7.81 174.81 3.8 174.8 3.8 174.8 L 3.8 180.4 Z M 16.1 188.7 L 16.1 173 L 18 173 L 18 188.7 L 16.1 188.7 Z M 28.8 185 C 28.8 185 30.8 185.3 30.8 185.3 C 30.5 186.4 29.9 187.4 29.1 188 C 28.2 188.6 27.1 189 25.8 189 C 24.1 189 22.8 188.4 21.8 187.4 C 20.9 186.4 20.4 185 20.4 183.1 C 20.4 181.2 20.9 179.7 21.8 178.6 C 22.8 177.6 24.1 177 25.7 177 C 27.2 177 28.5 177.6 29.4 178.6 C 30.4 179.6 30.9 181.1 30.9 183 C 30.9 183.1 30.9 183.3 30.9 183.5 C 30.9 183.5 22.4 183.5 22.4 183.5 C 22.4 184.7 22.8 185.7 23.4 186.4 C 24.1 187 24.9 187.4 25.8 187.4 C 26.5 187.4 27.1 187.2 27.6 186.8 C 28.1 186.4 28.5 185.8 28.8 185 Z M 22.5 181.9 C 22.5 181.9 28.8 181.9 28.8 181.9 C 28.8 180.9 28.5 180.2 28.1 179.7 C 27.5 179 26.7 178.6 25.7 178.6 C 24.8 178.6 24.1 178.9 23.5 179.5 C 22.9 180.1 22.5 180.9 22.5 181.9 Z M 41.1 188.7 C 40.9 188.3 40.7 187.8 40.7 187.3 C 40 187.9 39.3 188.3 38.6 188.6 C 38 188.8 37.3 189 36.5 189 C 35.2 189 34.3 188.7 33.6 188 C 32.9 187.4 32.6 186.6 32.6 185.7 C 32.6 185.1 32.7 184.6 33 184.2 C 33.2 183.7 33.6 183.3 34 183.1 C 34.4 182.8 34.8 182.6 35.4 182.4 C 35.7 182.3 36.3 182.2 37.1 182.1 C 38.6 181.9 39.8 181.7 40.5 181.5 C 40.5 181.2 40.5 181 40.5 181 C 40.5 180.2 40.4 179.6 40 179.3 C 39.5 178.9 38.8 178.6 37.8 178.6 C 36.9 178.6 36.2 178.8 35.8 179.1 C 35.3 179.4 35 180 34.8 180.8 C 34.8 180.8 32.9 180.6 32.9 180.6 C 33.1 179.7 33.4 179.1 33.8 178.6 C 34.2 178.1 34.7 177.7 35.5 177.4 C 36.2 177.2 37.1 177 38.1 177 C 39 177 39.8 177.2 40.4 177.4 C 41.1 177.6 41.5 177.9 41.8 178.2 C 42.1 178.6 42.3 179 42.4 179.6 C 42.5 179.9 42.5 180.5 42.5 181.3 C 42.5 181.3 42.5 183.9 42.5 183.9 C 42.5 185.7 42.5 186.9 42.6 187.3 C 42.7 187.8 42.9 188.3 43.1 188.7 C 43.1 188.7 41.1 188.7 41.1 188.7 C 41.1 188.7 41.08 188.7 41.1 188.7 Z M 40.5 183 C 39.8 183.3 38.8 183.5 37.4 183.7 C 36.6 183.8 36 184 35.7 184.1 C 35.4 184.2 35.1 184.4 34.9 184.7 C 34.7 185 34.7 185.3 34.7 185.6 C 34.7 186.2 34.8 186.6 35.2 186.9 C 35.6 187.3 36.2 187.4 37 187.4 C 37.7 187.4 38.4 187.3 38.9 187 C 39.5 186.6 39.9 186.2 40.2 185.6 C 40.4 185.2 40.5 184.5 40.5 183.7 C 40.5 183.7 40.5 183 40.5 183 Z M 44.7 185.3 C 44.7 185.3 46.6 185 46.6 185 C 46.7 185.8 47 186.4 47.5 186.8 C 48 187.2 48.7 187.4 49.6 187.4 C 50.5 187.4 51.1 187.2 51.6 186.8 C 52 186.5 52.2 186 52.2 185.6 C 52.2 185.1 52 184.8 51.6 184.5 C 51.4 184.4 50.7 184.1 49.7 183.9 C 48.2 183.5 47.2 183.2 46.7 182.9 C 46.2 182.7 45.7 182.3 45.5 181.9 C 45.2 181.4 45 180.9 45 180.3 C 45 179.8 45.1 179.3 45.4 178.9 C 45.6 178.5 45.9 178.1 46.3 177.8 C 46.6 177.6 47 177.4 47.6 177.3 C 48.1 177.1 48.6 177 49.2 177 C 50.1 177 50.9 177.2 51.6 177.4 C 52.3 177.7 52.8 178 53.1 178.5 C 53.4 178.9 53.6 179.5 53.8 180.2 C 53.8 180.2 51.9 180.5 51.9 180.5 C 51.8 179.9 51.5 179.5 51.1 179.1 C 50.7 178.8 50.1 178.6 49.4 178.6 C 48.5 178.6 47.8 178.8 47.5 179.1 C 47.1 179.4 46.9 179.7 46.9 180.1 C 46.9 180.3 47 180.6 47.1 180.8 C 47.3 181 47.5 181.2 47.9 181.3 C 48.1 181.4 48.6 181.5 49.6 181.8 C 51 182.2 51.9 182.4 52.4 182.7 C 53 182.9 53.4 183.3 53.7 183.7 C 54 184.1 54.2 184.7 54.2 185.4 C 54.2 186 54 186.6 53.6 187.2 C 53.2 187.7 52.7 188.2 52 188.5 C 51.3 188.8 50.5 189 49.6 189 C 48.1 189 47 188.7 46.2 188 C 45.4 187.4 44.9 186.5 44.7 185.3 Z M 64.3 185 C 64.3 185 66.3 185.3 66.3 185.3 C 66 186.4 65.4 187.4 64.5 188 C 63.7 188.6 62.6 189 61.3 189 C 59.6 189 58.3 188.4 57.3 187.4 C 56.3 186.4 55.8 185 55.8 183.1 C 55.8 181.2 56.3 179.7 57.3 178.6 C 58.3 177.6 59.6 177 61.2 177 C 62.7 177 63.9 177.6 64.9 178.6 C 65.9 179.6 66.4 181.1 66.4 183 C 66.4 183.1 66.4 183.3 66.3 183.5 C 66.3 183.5 57.8 183.5 57.8 183.5 C 57.9 184.7 58.3 185.7 58.9 186.4 C 59.5 187 60.3 187.4 61.3 187.4 C 62 187.4 62.6 187.2 63.1 186.8 C 63.6 186.4 64 185.8 64.3 185 Z M 57.9 181.9 C 57.9 181.9 64.3 181.9 64.3 181.9 C 64.2 180.9 64 180.2 63.6 179.7 C 63 179 62.2 178.6 61.2 178.6 C 60.3 178.6 59.6 178.9 58.9 179.5 C 58.3 180.1 58 180.9 57.9 181.9 Z M 74 185.3 C 74 185.3 75.9 185 75.9 185 C 76 185.8 76.3 186.4 76.8 186.8 C 77.3 187.2 78 187.4 78.9 187.4 C 79.7 187.4 80.4 187.2 80.8 186.8 C 81.3 186.5 81.5 186 81.5 185.6 C 81.5 185.1 81.3 184.8 80.9 184.5 C 80.6 184.4 80 184.1 78.9 183.9 C 77.5 183.5 76.5 183.2 76 182.9 C 75.4 182.7 75 182.3 74.7 181.9 C 74.4 181.4 74.3 180.9 74.3 180.3 C 74.3 179.8 74.4 179.3 74.7 178.9 C 74.9 178.5 75.2 178.1 75.6 177.8 C 75.9 177.6 76.3 177.4 76.8 177.3 C 77.4 177.1 77.9 177 78.5 177 C 79.4 177 80.2 177.2 80.9 177.4 C 81.5 177.7 82 178 82.4 178.5 C 82.7 178.9 82.9 179.5 83 180.2 C 83 180.2 81.1 180.5 81.1 180.5 C 81.1 179.9 80.8 179.5 80.4 179.1 C 80 178.8 79.4 178.6 78.6 178.6 C 77.8 178.6 77.1 178.8 76.7 179.1 C 76.4 179.4 76.2 179.7 76.2 180.1 C 76.2 180.3 76.3 180.6 76.4 180.8 C 76.6 181 76.8 181.2 77.2 181.3 C 77.3 181.4 77.9 181.5 78.9 181.8 C 80.2 182.2 81.2 182.4 81.7 182.7 C 82.3 182.9 82.7 183.3 83 183.7 C 83.3 184.1 83.5 184.7 83.5 185.4 C 83.5 186 83.3 186.6 82.9 187.2 C 82.5 187.7 82 188.2 81.3 188.5 C 80.6 188.8 79.8 189 78.9 189 C 77.4 189 76.3 188.7 75.5 188 C 74.7 187.4 74.2 186.5 74 185.3 Z M 93.2 184.5 C 93.2 184.5 95.1 184.8 95.1 184.8 C 94.9 186.1 94.4 187.1 93.5 187.8 C 92.7 188.6 91.6 189 90.4 189 C 88.8 189 87.5 188.5 86.6 187.4 C 85.6 186.4 85.2 184.9 85.2 183 C 85.2 181.8 85.4 180.7 85.8 179.8 C 86.2 178.9 86.8 178.2 87.6 177.7 C 88.5 177.3 89.4 177 90.4 177 C 91.6 177 92.6 177.4 93.4 178 C 94.2 178.6 94.7 179.5 94.9 180.6 C 94.9 180.6 93 180.9 93 180.9 C 92.9 180.2 92.5 179.6 92.1 179.2 C 91.6 178.8 91.1 178.6 90.4 178.6 C 89.5 178.6 88.7 179 88.1 179.7 C 87.5 180.4 87.2 181.5 87.2 183 C 87.2 184.5 87.4 185.6 88 186.3 C 88.6 187 89.4 187.4 90.3 187.4 C 91.1 187.4 91.7 187.1 92.2 186.7 C 92.7 186.2 93.1 185.5 93.2 184.5 Z M 96.7 188.7 L 96.7 177.3 L 98.5 177.3 C 98.5 177.3 98.48 179.02 98.5 179 C 98.9 178.2 99.3 177.7 99.7 177.4 C 100.1 177.2 100.5 177 100.9 177 C 101.6 177 102.3 177.2 102.9 177.7 C 102.9 177.7 102.3 179.5 102.3 179.5 C 101.8 179.2 101.3 179 100.9 179 C 100.4 179 100.1 179.2 99.7 179.4 C 99.4 179.7 99.1 180 99 180.5 C 98.8 181.2 98.7 181.9 98.7 182.7 C 98.67 182.73 98.7 188.7 98.7 188.7 L 96.7 188.7 Z M 103.4 183 C 103.4 180.9 104 179.3 105.1 178.3 C 106.1 177.5 107.3 177 108.7 177 C 110.3 177 111.6 177.6 112.6 178.6 C 113.6 179.6 114.1 181 114.1 182.8 C 114.1 184.3 113.8 185.5 113.4 186.3 C 113 187.1 112.3 187.8 111.5 188.3 C 110.6 188.7 109.7 189 108.7 189 C 107.1 189 105.8 188.4 104.8 187.4 C 103.9 186.4 103.4 184.9 103.4 183 Z M 105.4 183 C 105.4 184.5 105.7 185.6 106.3 186.3 C 106.9 187 107.7 187.4 108.7 187.4 C 109.7 187.4 110.5 187 111.1 186.3 C 111.7 185.5 112.1 184.4 112.1 182.9 C 112.1 181.5 111.7 180.5 111.1 179.7 C 110.5 179 109.7 178.6 108.7 178.6 C 107.7 178.6 106.9 179 106.3 179.7 C 105.7 180.4 105.4 181.5 105.4 183 Z M 116.3 188.7 L 116.3 173 L 118.2 173 L 118.2 188.7 L 116.3 188.7 Z M 121.2 188.7 L 121.2 173 L 123.1 173 L 123.1 188.7 L 121.2 188.7 Z M 139.6 188.7 C 139.6 188.7 139.62 187.03 139.6 187 C 138.7 188.3 137.5 189 136 189 C 135.3 189 134.7 188.8 134.1 188.6 C 133.5 188.3 133.1 188 132.8 187.6 C 132.5 187.2 132.3 186.7 132.2 186.2 C 132.1 185.8 132.1 185.2 132.1 184.4 C 132.1 184.36 132.1 177.3 132.1 177.3 L 134 177.3 C 134 177.3 134.03 183.62 134 183.6 C 134 184.6 134.1 185.3 134.1 185.7 C 134.3 186.2 134.5 186.6 134.9 186.9 C 135.3 187.2 135.8 187.3 136.4 187.3 C 137 187.3 137.5 187.1 138 186.9 C 138.5 186.6 138.9 186.1 139.1 185.6 C 139.3 185.1 139.4 184.4 139.4 183.4 C 139.41 183.41 139.4 177.3 139.4 177.3 L 141.3 177.3 L 141.3 188.7 L 139.6 188.7 Z M 143.6 185.3 C 143.6 185.3 145.5 185 145.5 185 C 145.6 185.8 145.9 186.4 146.4 186.8 C 146.9 187.2 147.6 187.4 148.5 187.4 C 149.4 187.4 150 187.2 150.4 186.8 C 150.9 186.5 151.1 186 151.1 185.6 C 151.1 185.1 150.9 184.8 150.5 184.5 C 150.3 184.4 149.6 184.1 148.5 183.9 C 147.1 183.5 146.1 183.2 145.6 182.9 C 145 182.7 144.6 182.3 144.3 181.9 C 144.1 181.4 143.9 180.9 143.9 180.3 C 143.9 179.8 144 179.3 144.3 178.9 C 144.5 178.5 144.8 178.1 145.2 177.8 C 145.5 177.6 145.9 177.4 146.5 177.3 C 147 177.1 147.5 177 148.1 177 C 149 177 149.8 177.2 150.5 177.4 C 151.2 177.7 151.7 178 152 178.5 C 152.3 178.9 152.5 179.5 152.6 180.2 C 152.6 180.2 150.8 180.5 150.8 180.5 C 150.7 179.9 150.4 179.5 150 179.1 C 149.6 178.8 149 178.6 148.3 178.6 C 147.4 178.6 146.7 178.8 146.4 179.1 C 146 179.4 145.8 179.7 145.8 180.1 C 145.8 180.3 145.9 180.6 146 180.8 C 146.2 181 146.4 181.2 146.8 181.3 C 147 181.4 147.5 181.5 148.5 181.8 C 149.8 182.2 150.8 182.4 151.3 182.7 C 151.9 182.9 152.3 183.3 152.6 183.7 C 152.9 184.1 153.1 184.7 153.1 185.4 C 153.1 186 152.9 186.6 152.5 187.2 C 152.1 187.7 151.6 188.2 150.9 188.5 C 150.2 188.8 149.4 189 148.5 189 C 147 189 145.9 188.7 145.1 188 C 144.3 187.4 143.8 186.5 143.6 185.3 Z M 155.4 175.2 L 155.4 173 L 157.3 173 L 157.3 175.2 L 155.4 175.2 Z M 155.4 188.7 L 155.4 177.3 L 157.3 177.3 L 157.3 188.7 L 155.4 188.7 Z M 160.3 188.7 L 160.3 177.3 L 162 177.3 C 162 177.3 162 178.92 162 178.9 C 162.8 177.7 164 177 165.6 177 C 166.3 177 167 177.2 167.5 177.4 C 168.1 177.7 168.5 178 168.8 178.4 C 169.1 178.8 169.3 179.3 169.4 179.8 C 169.5 180.2 169.5 180.8 169.5 181.7 C 169.53 181.69 169.5 188.7 169.5 188.7 L 167.6 188.7 C 167.6 188.7 167.6 181.76 167.6 181.8 C 167.6 181 167.5 180.4 167.4 180 C 167.2 179.6 167 179.3 166.6 179.1 C 166.2 178.8 165.7 178.7 165.2 178.7 C 164.4 178.7 163.7 179 163.1 179.5 C 162.5 180 162.2 181 162.2 182.5 C 162.2 182.47 162.2 188.7 162.2 188.7 L 160.3 188.7 Z M 172.1 189.6 C 172.1 189.6 174 189.9 174 189.9 C 174.1 190.5 174.3 190.9 174.7 191.2 C 175.2 191.6 175.8 191.7 176.6 191.7 C 177.5 191.7 178.2 191.6 178.7 191.2 C 179.2 190.8 179.5 190.3 179.7 189.7 C 179.8 189.3 179.9 188.5 179.8 187.2 C 179 188.2 177.9 188.7 176.7 188.7 C 175.1 188.7 173.9 188.1 173 187 C 172.2 185.9 171.8 184.5 171.8 182.9 C 171.8 181.8 172 180.8 172.3 179.9 C 172.7 179 173.3 178.3 174.1 177.8 C 174.8 177.3 175.7 177 176.7 177 C 178 177 179.2 177.6 180 178.7 C 180.03 178.67 180 177.3 180 177.3 L 181.8 177.3 C 181.8 177.3 181.81 187.16 181.8 187.2 C 181.8 188.9 181.6 190.2 181.3 190.9 C 180.9 191.7 180.3 192.3 179.5 192.7 C 178.8 193.1 177.8 193.3 176.7 193.3 C 175.3 193.3 174.2 193 173.4 192.4 C 172.5 191.8 172.1 190.9 172.1 189.6 Z M 173.7 182.8 C 173.7 184.3 174 185.4 174.6 186.1 C 175.2 186.8 176 187.1 176.9 187.1 C 177.8 187.1 178.5 186.8 179.1 186.1 C 179.7 185.4 180 184.3 180 182.9 C 180 181.5 179.7 180.4 179.1 179.7 C 178.5 179 177.7 178.6 176.8 178.6 C 176 178.6 175.2 179 174.6 179.7 C 174 180.4 173.7 181.4 173.7 182.8 Z M 194.1 187 C 194.4 187 194.6 187 195 187 C 195 187 195.3 188.7 195.3 188.7 C 194.7 188.8 194.2 188.9 193.8 188.9 C 193.1 188.9 192.6 188.7 192.2 188.5 C 191.8 188.3 191.5 188 191.4 187.6 C 191.2 187.3 191.1 186.5 191.1 185.4 C 191.13 185.36 191.1 178.8 191.1 178.8 L 189.7 178.8 L 189.7 177.3 L 191.1 177.3 L 191.1 174.5 L 193.1 173.3 L 193.1 177.3 L 195 177.3 L 195 178.8 L 193.1 178.8 C 193.1 178.8 193.05 185.47 193.1 185.5 C 193.1 186 193.1 186.4 193.2 186.5 C 193.2 186.7 193.3 186.8 193.5 186.9 C 193.6 187 193.9 187 194.1 187 C 194.1 187 194.1 187 194.1 187 Z M 196.9 188.7 L 196.9 173 L 198.8 173 C 198.8 173 198.82 178.61 198.8 178.6 C 199.7 177.6 200.9 177 202.2 177 C 203.1 177 203.8 177.2 204.4 177.5 C 205.1 177.9 205.5 178.3 205.8 178.9 C 206 179.5 206.2 180.4 206.2 181.5 C 206.18 181.47 206.2 188.7 206.2 188.7 L 204.2 188.7 C 204.2 188.7 204.24 181.47 204.2 181.5 C 204.2 180.5 204 179.8 203.6 179.4 C 203.2 178.9 202.6 178.7 201.8 178.7 C 201.3 178.7 200.7 178.9 200.2 179.1 C 199.7 179.4 199.4 179.8 199.1 180.4 C 198.9 180.9 198.8 181.6 198.8 182.5 C 198.82 182.46 198.8 188.7 198.8 188.7 L 196.9 188.7 Z M 216.9 185 C 216.9 185 218.9 185.3 218.9 185.3 C 218.6 186.4 218 187.4 217.2 188 C 216.3 188.6 215.2 189 213.9 189 C 212.2 189 210.9 188.4 209.9 187.4 C 209 186.4 208.5 185 208.5 183.1 C 208.5 181.2 209 179.7 210 178.6 C 210.9 177.6 212.2 177 213.8 177 C 215.3 177 216.6 177.6 217.5 178.6 C 218.5 179.6 219 181.1 219 183 C 219 183.1 219 183.3 219 183.5 C 219 183.5 210.5 183.5 210.5 183.5 C 210.5 184.7 210.9 185.7 211.5 186.4 C 212.2 187 213 187.4 213.9 187.4 C 214.6 187.4 215.2 187.2 215.7 186.8 C 216.2 186.4 216.6 185.8 216.9 185 Z M 210.6 181.9 C 210.6 181.9 217 181.9 217 181.9 C 216.9 180.9 216.6 180.2 216.2 179.7 C 215.6 179 214.8 178.6 213.8 178.6 C 212.9 178.6 212.2 178.9 211.6 179.5 C 211 180.1 210.6 180.9 210.6 181.9 Z M 235.2 188.7 C 235 188.3 234.9 187.8 234.8 187.3 C 234.1 187.9 233.4 188.3 232.8 188.6 C 232.1 188.8 231.4 189 230.6 189 C 229.4 189 228.4 188.7 227.8 188 C 227.1 187.4 226.7 186.6 226.7 185.7 C 226.7 185.1 226.9 184.6 227.1 184.2 C 227.4 183.7 227.7 183.3 228.1 183.1 C 228.5 182.8 229 182.6 229.5 182.4 C 229.9 182.3 230.5 182.2 231.2 182.1 C 232.8 181.9 233.9 181.7 234.7 181.5 C 234.7 181.2 234.7 181 234.7 181 C 234.7 180.2 234.5 179.6 234.1 179.3 C 233.7 178.9 232.9 178.6 231.9 178.6 C 231 178.6 230.4 178.8 229.9 179.1 C 229.5 179.4 229.2 180 229 180.8 C 229 180.8 227.1 180.6 227.1 180.6 C 227.2 179.7 227.5 179.1 227.9 178.6 C 228.3 178.1 228.9 177.7 229.6 177.4 C 230.4 177.2 231.2 177 232.2 177 C 233.2 177 234 177.2 234.6 177.4 C 235.2 177.6 235.7 177.9 235.9 178.2 C 236.2 178.6 236.4 179 236.5 179.6 C 236.6 179.9 236.6 180.5 236.6 181.3 C 236.6 181.3 236.6 183.9 236.6 183.9 C 236.6 185.7 236.7 186.9 236.8 187.3 C 236.8 187.8 237 188.3 237.2 188.7 C 237.25 188.7 235.2 188.7 235.2 188.7 C 235.2 188.7 235.23 188.7 235.2 188.7 Z M 234.7 183 C 234 183.3 232.9 183.5 231.5 183.7 C 230.7 183.8 230.2 184 229.8 184.1 C 229.5 184.2 229.3 184.4 229.1 184.7 C 228.9 185 228.8 185.3 228.8 185.6 C 228.8 186.2 229 186.6 229.4 186.9 C 229.8 187.3 230.4 187.4 231.1 187.4 C 231.9 187.4 232.5 187.3 233.1 187 C 233.7 186.6 234.1 186.2 234.4 185.6 C 234.6 185.2 234.7 184.5 234.7 183.7 C 234.7 183.7 234.7 183 234.7 183 Z M 239.6 188.7 L 239.6 177.3 L 241.4 177.3 C 241.4 177.3 241.35 179.02 241.4 179 C 241.8 178.2 242.2 177.7 242.6 177.4 C 243 177.2 243.4 177 243.8 177 C 244.5 177 245.1 177.2 245.8 177.7 C 245.8 177.7 245.1 179.5 245.1 179.5 C 244.7 179.2 244.2 179 243.7 179 C 243.3 179 242.9 179.2 242.6 179.4 C 242.3 179.7 242 180 241.9 180.5 C 241.7 181.2 241.5 181.9 241.5 182.7 C 241.55 182.73 241.5 188.7 241.5 188.7 L 239.6 188.7 Z M 246.9 188.7 L 246.9 177.3 L 248.7 177.3 C 248.7 177.3 248.68 179.02 248.7 179 C 249.1 178.2 249.5 177.7 249.9 177.4 C 250.3 177.2 250.7 177 251.2 177 C 251.8 177 252.5 177.2 253.1 177.7 C 253.1 177.7 252.5 179.5 252.5 179.5 C 252 179.2 251.5 179 251.1 179 C 250.6 179 250.3 179.2 249.9 179.4 C 249.6 179.7 249.3 180 249.2 180.5 C 249 181.2 248.9 181.9 248.9 182.7 C 248.87 182.73 248.9 188.7 248.9 188.7 L 246.9 188.7 Z M 253.6 183 C 253.6 180.9 254.2 179.3 255.3 178.3 C 256.3 177.5 257.5 177 258.9 177 C 260.5 177 261.8 177.6 262.8 178.6 C 263.8 179.6 264.3 181 264.3 182.8 C 264.3 184.3 264 185.5 263.6 186.3 C 263.2 187.1 262.5 187.8 261.7 188.3 C 260.8 188.7 259.9 189 258.9 189 C 257.3 189 256 188.4 255 187.4 C 254.1 186.4 253.6 184.9 253.6 183 Z M 255.6 183 C 255.6 184.5 255.9 185.6 256.5 186.3 C 257.1 187 258 187.4 258.9 187.4 C 259.9 187.4 260.7 187 261.3 186.3 C 261.9 185.5 262.3 184.4 262.3 182.9 C 262.3 181.5 261.9 180.5 261.3 179.7 C 260.7 179 259.9 178.6 258.9 178.6 C 258 178.6 257.1 179 256.5 179.7 C 255.9 180.4 255.6 181.5 255.6 183 Z M 268.6 188.7 L 265.1 177.3 L 267.1 177.3 L 269 183.9 C 269 183.9 269.63 186.33 269.6 186.3 C 269.7 186.2 269.9 185.4 270.2 184 C 270.22 183.98 272 177.3 272 177.3 L 274 177.3 L 275.7 183.9 L 276.3 186.1 L 277 183.9 L 278.9 177.3 L 280.8 177.3 L 277.2 188.7 L 275.2 188.7 L 273.4 181.9 L 273 179.9 L 270.6 188.7 L 268.6 188.7 Z M 290.2 188.7 L 288.4 188.7 L 288.4 173 L 290.4 173 C 290.4 173 290.37 178.57 290.4 178.6 C 291.2 177.5 292.2 177 293.5 177 C 294.2 177 294.9 177.2 295.5 177.5 C 296.1 177.7 296.6 178.1 297 178.7 C 297.4 179.2 297.8 179.8 298 180.5 C 298.2 181.2 298.3 182 298.3 182.8 C 298.3 184.8 297.9 186.3 296.9 187.4 C 295.9 188.4 294.8 189 293.4 189 C 292.1 189 291 188.4 290.2 187.3 C 290.24 187.27 290.2 188.7 290.2 188.7 Z M 290.2 182.9 C 290.2 184.3 290.4 185.3 290.8 185.9 C 291.4 186.9 292.2 187.4 293.2 187.4 C 294.1 187.4 294.8 187 295.4 186.3 C 296.1 185.5 296.4 184.4 296.4 183 C 296.4 181.5 296.1 180.4 295.5 179.7 C 294.9 179 294.2 178.6 293.3 178.6 C 292.5 178.6 291.8 179 291.1 179.7 C 290.5 180.5 290.2 181.5 290.2 182.9 Z M 308.2 188.7 C 308.2 188.7 308.16 187.03 308.2 187 C 307.3 188.3 306.1 189 304.5 189 C 303.9 189 303.2 188.8 302.7 188.6 C 302.1 188.3 301.6 188 301.4 187.6 C 301.1 187.2 300.9 186.7 300.8 186.2 C 300.7 185.8 300.6 185.2 300.6 184.4 C 300.64 184.36 300.6 177.3 300.6 177.3 L 302.6 177.3 C 302.6 177.3 302.58 183.62 302.6 183.6 C 302.6 184.6 302.6 185.3 302.7 185.7 C 302.8 186.2 303.1 186.6 303.5 186.9 C 303.9 187.2 304.4 187.3 304.9 187.3 C 305.5 187.3 306.1 187.1 306.6 186.9 C 307.1 186.6 307.4 186.1 307.6 185.6 C 307.9 185.1 308 184.4 308 183.4 C 307.96 183.41 308 177.3 308 177.3 L 309.9 177.3 L 309.9 188.7 L 308.2 188.7 Z M 316.3 187 C 316.5 187 316.8 187 317.1 187 C 317.1 187 317.4 188.7 317.4 188.7 C 316.9 188.8 316.4 188.9 316 188.9 C 315.3 188.9 314.7 188.7 314.3 188.5 C 313.9 188.3 313.7 188 313.5 187.6 C 313.4 187.3 313.3 186.5 313.3 185.4 C 313.28 185.36 313.3 178.8 313.3 178.8 L 311.9 178.8 L 311.9 177.3 L 313.3 177.3 L 313.3 174.5 L 315.2 173.3 L 315.2 177.3 L 317.1 177.3 L 317.1 178.8 L 315.2 178.8 C 315.2 178.8 315.2 185.47 315.2 185.5 C 315.2 186 315.2 186.4 315.3 186.5 C 315.4 186.7 315.5 186.8 315.6 186.9 C 315.8 187 316 187 316.3 187 C 316.3 187 316.3 187 316.3 187 Z M 322.4 187 C 322.6 187 322.9 187 323.3 187 C 323.3 187 323.5 188.7 323.5 188.7 C 323 188.8 322.5 188.9 322.1 188.9 C 321.4 188.9 320.8 188.7 320.4 188.5 C 320.1 188.3 319.8 188 319.6 187.6 C 319.5 187.3 319.4 186.5 319.4 185.4 C 319.39 185.36 319.4 178.8 319.4 178.8 L 318 178.8 L 318 177.3 L 319.4 177.3 L 319.4 174.5 L 321.3 173.3 L 321.3 177.3 L 323.3 177.3 L 323.3 178.8 L 321.3 178.8 C 321.3 178.8 321.31 185.47 321.3 185.5 C 321.3 186 321.3 186.4 321.4 186.5 C 321.5 186.7 321.6 186.8 321.7 186.9 C 321.9 187 322.1 187 322.4 187 C 322.4 187 322.4 187 322.4 187 Z M 324.4 183 C 324.4 180.9 325 179.3 326.2 178.3 C 327.2 177.5 328.4 177 329.8 177 C 331.3 177 332.6 177.6 333.6 178.6 C 334.6 179.6 335.1 181 335.1 182.8 C 335.1 184.3 334.9 185.5 334.5 186.3 C 334 187.1 333.4 187.8 332.5 188.3 C 331.7 188.7 330.8 189 329.8 189 C 328.2 189 326.9 188.4 325.9 187.4 C 324.9 186.4 324.4 184.9 324.4 183 Z M 326.4 183 C 326.4 184.5 326.7 185.6 327.4 186.3 C 328 187 328.8 187.4 329.8 187.4 C 330.7 187.4 331.5 187 332.2 186.3 C 332.8 185.5 333.1 184.4 333.1 182.9 C 333.1 181.5 332.8 180.5 332.2 179.7 C 331.5 179 330.7 178.6 329.8 178.6 C 328.8 178.6 328 179 327.4 179.7 C 326.7 180.4 326.4 181.5 326.4 183 Z M 337.4 188.7 L 337.4 177.3 L 339.1 177.3 C 339.1 177.3 339.12 178.92 339.1 178.9 C 340 177.7 341.2 177 342.8 177 C 343.4 177 344.1 177.2 344.6 177.4 C 345.2 177.7 345.7 178 345.9 178.4 C 346.2 178.8 346.4 179.3 346.5 179.8 C 346.6 180.2 346.7 180.8 346.7 181.7 C 346.65 181.69 346.7 188.7 346.7 188.7 L 344.7 188.7 C 344.7 188.7 344.72 181.76 344.7 181.8 C 344.7 181 344.6 180.4 344.5 180 C 344.3 179.6 344.1 179.3 343.7 179.1 C 343.3 178.8 342.9 178.7 342.3 178.7 C 341.5 178.7 340.8 179 340.2 179.5 C 339.6 180 339.3 181 339.3 182.5 C 339.32 182.47 339.3 188.7 339.3 188.7 L 337.4 188.7 Z M 348.8 185.3 C 348.8 185.3 350.8 185 350.8 185 C 350.9 185.8 351.2 186.4 351.7 186.8 C 352.1 187.2 352.8 187.4 353.7 187.4 C 354.6 187.4 355.3 187.2 355.7 186.8 C 356.1 186.5 356.3 186 356.3 185.6 C 356.3 185.1 356.1 184.8 355.8 184.5 C 355.5 184.4 354.8 184.1 353.8 183.9 C 352.4 183.5 351.4 183.2 350.8 182.9 C 350.3 182.7 349.9 182.3 349.6 181.9 C 349.3 181.4 349.2 180.9 349.2 180.3 C 349.2 179.8 349.3 179.3 349.5 178.9 C 349.7 178.5 350.1 178.1 350.5 177.8 C 350.8 177.6 351.2 177.4 351.7 177.3 C 352.2 177.1 352.8 177 353.4 177 C 354.3 177 355 177.2 355.7 177.4 C 356.4 177.7 356.9 178 357.2 178.5 C 357.5 178.9 357.8 179.5 357.9 180.2 C 357.9 180.2 356 180.5 356 180.5 C 355.9 179.9 355.7 179.5 355.3 179.1 C 354.8 178.8 354.3 178.6 353.5 178.6 C 352.6 178.6 352 178.8 351.6 179.1 C 351.2 179.4 351 179.7 351 180.1 C 351 180.3 351.1 180.6 351.3 180.8 C 351.4 181 351.7 181.2 352 181.3 C 352.2 181.4 352.8 181.5 353.7 181.8 C 355.1 182.2 356 182.4 356.6 182.7 C 357.1 182.9 357.5 183.3 357.9 183.7 C 358.2 184.1 358.3 184.7 358.3 185.4 C 358.3 186 358.1 186.6 357.8 187.2 C 357.4 187.7 356.8 188.2 356.1 188.5 C 355.4 188.8 354.6 189 353.7 189 C 352.2 189 351.1 188.7 350.3 188 C 349.6 187.4 349.1 186.5 348.8 185.3 Z M 361.2 188.7 L 361.2 186.5 L 363.4 186.5 L 363.4 188.7 L 361.2 188.7 Z " stroke="none" fill="#000"/>  </g>  <g id="Polygon8695">    <path d="M 116.3 150.7 C 116.3 150.7 116.3 149.26 116.3 149.3 C 115.6 150.4 114.5 151 113.1 151 C 112.2 151 111.4 150.7 110.6 150.2 C 109.8 149.7 109.2 149 108.8 148.1 C 108.4 147.2 108.2 146.2 108.2 145 C 108.2 143.9 108.4 142.8 108.8 141.9 C 109.2 141 109.7 140.3 110.5 139.8 C 111.2 139.3 112.1 139 113 139 C 113.7 139 114.3 139.2 114.9 139.5 C 115.4 139.8 115.8 140.1 116.2 140.6 C 116.17 140.61 116.2 135 116.2 135 L 118.1 135 L 118.1 150.7 L 116.3 150.7 Z M 110.2 145 C 110.2 146.5 110.5 147.6 111.1 148.3 C 111.7 149 112.5 149.4 113.3 149.4 C 114.1 149.4 114.9 149 115.4 148.3 C 116 147.6 116.3 146.6 116.3 145.2 C 116.3 143.6 116 142.5 115.4 141.7 C 114.8 141 114.1 140.6 113.2 140.6 C 112.3 140.6 111.6 141 111.1 141.7 C 110.5 142.4 110.2 143.5 110.2 145 Z M 121.1 137.2 L 121.1 135 L 123.1 135 L 123.1 137.2 L 121.1 137.2 Z M 121.1 150.7 L 121.1 139.3 L 123.1 139.3 L 123.1 150.7 L 121.1 150.7 Z M 125.7 151.6 C 125.7 151.6 127.5 151.9 127.5 151.9 C 127.6 152.5 127.8 152.9 128.2 153.2 C 128.7 153.6 129.3 153.7 130.2 153.7 C 131.1 153.7 131.8 153.6 132.2 153.2 C 132.7 152.8 133.1 152.3 133.2 151.7 C 133.3 151.3 133.4 150.5 133.4 149.2 C 132.5 150.2 131.5 150.7 130.2 150.7 C 128.6 150.7 127.4 150.1 126.6 149 C 125.7 147.9 125.3 146.5 125.3 144.9 C 125.3 143.8 125.5 142.8 125.9 141.9 C 126.3 141 126.8 140.3 127.6 139.8 C 128.3 139.3 129.2 139 130.2 139 C 131.6 139 132.7 139.6 133.6 140.7 C 133.55 140.67 133.6 139.3 133.6 139.3 L 135.3 139.3 C 135.3 139.3 135.34 149.16 135.3 149.2 C 135.3 150.9 135.2 152.2 134.8 152.9 C 134.4 153.7 133.9 154.3 133.1 154.7 C 132.3 155.1 131.3 155.3 130.2 155.3 C 128.8 155.3 127.7 155 126.9 154.4 C 126 153.8 125.6 152.9 125.7 151.6 Z M 127.3 144.8 C 127.3 146.3 127.6 147.4 128.2 148.1 C 128.8 148.8 129.5 149.1 130.4 149.1 C 131.3 149.1 132 148.8 132.6 148.1 C 133.2 147.4 133.5 146.3 133.5 144.9 C 133.5 143.5 133.2 142.4 132.6 141.7 C 132 141 131.2 140.6 130.4 140.6 C 129.5 140.6 128.8 141 128.2 141.7 C 127.6 142.4 127.3 143.4 127.3 144.8 Z M 138.3 137.2 L 138.3 135 L 140.2 135 L 140.2 137.2 L 138.3 137.2 Z M 138.3 150.7 L 138.3 139.3 L 140.2 139.3 L 140.2 150.7 L 138.3 150.7 Z M 146.5 149 C 146.7 149 147 149 147.4 149 C 147.4 149 147.6 150.7 147.6 150.7 C 147.1 150.8 146.6 150.9 146.2 150.9 C 145.5 150.9 144.9 150.7 144.6 150.5 C 144.2 150.3 143.9 150 143.7 149.6 C 143.6 149.3 143.5 148.5 143.5 147.4 C 143.5 147.36 143.5 140.8 143.5 140.8 L 142.1 140.8 L 142.1 139.3 L 143.5 139.3 L 143.5 136.5 L 145.4 135.3 L 145.4 139.3 L 147.4 139.3 L 147.4 140.8 L 145.4 140.8 C 145.4 140.8 145.42 147.47 145.4 147.5 C 145.4 148 145.5 148.4 145.5 148.5 C 145.6 148.7 145.7 148.8 145.9 148.9 C 146 149 146.2 149 146.5 149 C 146.5 149 146.5 149 146.5 149 Z M 157.1 150.7 C 156.9 150.3 156.8 149.8 156.7 149.3 C 156 149.9 155.3 150.3 154.6 150.6 C 154 150.8 153.3 151 152.5 151 C 151.2 151 150.3 150.7 149.6 150 C 148.9 149.4 148.6 148.6 148.6 147.7 C 148.6 147.1 148.7 146.6 149 146.2 C 149.2 145.7 149.6 145.3 150 145.1 C 150.4 144.8 150.9 144.6 151.4 144.4 C 151.8 144.3 152.3 144.2 153.1 144.1 C 154.7 143.9 155.8 143.7 156.5 143.5 C 156.5 143.2 156.6 143 156.6 143 C 156.6 142.2 156.4 141.6 156 141.3 C 155.5 140.9 154.8 140.6 153.8 140.6 C 152.9 140.6 152.2 140.8 151.8 141.1 C 151.4 141.4 151 142 150.8 142.8 C 150.8 142.8 148.9 142.6 148.9 142.6 C 149.1 141.7 149.4 141.1 149.8 140.6 C 150.2 140.1 150.7 139.7 151.5 139.4 C 152.2 139.2 153.1 139 154.1 139 C 155.1 139 155.8 139.2 156.5 139.4 C 157.1 139.6 157.5 139.9 157.8 140.2 C 158.1 140.6 158.3 141 158.4 141.6 C 158.5 141.9 158.5 142.5 158.5 143.3 C 158.5 143.3 158.5 145.9 158.5 145.9 C 158.5 147.7 158.5 148.9 158.6 149.3 C 158.7 149.8 158.9 150.3 159.1 150.7 C 159.11 150.7 157.1 150.7 157.1 150.7 C 157.1 150.7 157.09 150.7 157.1 150.7 Z M 156.5 145 C 155.8 145.3 154.8 145.5 153.4 145.7 C 152.6 145.8 152 146 151.7 146.1 C 151.4 146.2 151.1 146.4 150.9 146.7 C 150.8 147 150.7 147.3 150.7 147.6 C 150.7 148.2 150.9 148.6 151.3 148.9 C 151.6 149.3 152.2 149.4 153 149.4 C 153.7 149.4 154.4 149.3 155 149 C 155.5 148.6 156 148.2 156.2 147.6 C 156.4 147.2 156.5 146.5 156.5 145.7 C 156.5 145.7 156.5 145 156.5 145 Z M 161.5 150.7 L 161.5 135 L 163.4 135 L 163.4 150.7 L 161.5 150.7 Z M 171.7 147.3 C 171.7 147.3 173.6 147 173.6 147 C 173.7 147.8 174 148.4 174.5 148.8 C 175 149.2 175.7 149.4 176.6 149.4 C 177.5 149.4 178.1 149.2 178.6 148.8 C 179 148.5 179.2 148 179.2 147.6 C 179.2 147.1 179 146.8 178.6 146.5 C 178.4 146.4 177.7 146.1 176.7 145.9 C 175.2 145.5 174.3 145.2 173.7 144.9 C 173.2 144.7 172.7 144.3 172.5 143.9 C 172.2 143.4 172 142.9 172 142.3 C 172 141.8 172.2 141.3 172.4 140.9 C 172.6 140.5 172.9 140.1 173.3 139.8 C 173.6 139.6 174.1 139.4 174.6 139.3 C 175.1 139.1 175.6 139 176.2 139 C 177.1 139 177.9 139.2 178.6 139.4 C 179.3 139.7 179.8 140 180.1 140.5 C 180.4 140.9 180.6 141.5 180.8 142.2 C 180.8 142.2 178.9 142.5 178.9 142.5 C 178.8 141.9 178.5 141.5 178.1 141.1 C 177.7 140.8 177.1 140.6 176.4 140.6 C 175.5 140.6 174.9 140.8 174.5 141.1 C 174.1 141.4 173.9 141.7 173.9 142.1 C 173.9 142.3 174 142.6 174.1 142.8 C 174.3 143 174.6 143.2 174.9 143.3 C 175.1 143.4 175.7 143.5 176.6 143.8 C 178 144.2 178.9 144.4 179.5 144.7 C 180 144.9 180.4 145.3 180.7 145.7 C 181 146.1 181.2 146.7 181.2 147.4 C 181.2 148 181 148.6 180.6 149.2 C 180.3 149.7 179.7 150.2 179 150.5 C 178.3 150.8 177.5 151 176.6 151 C 175.1 151 174 150.7 173.2 150 C 172.4 149.4 171.9 148.5 171.7 147.3 Z M 184.7 155.3 C 184.3 155.3 183.9 155.3 183.4 155.1 C 183.4 155.1 183.2 153.3 183.2 153.3 C 183.6 153.4 184 153.5 184.3 153.5 C 184.7 153.5 185.1 153.4 185.3 153.2 C 185.6 153.1 185.8 152.9 186 152.6 C 186.1 152.4 186.3 152 186.6 151.2 C 186.6 151.1 186.6 150.9 186.7 150.7 C 186.73 150.73 182.4 139.3 182.4 139.3 L 184.5 139.3 C 184.5 139.3 186.86 145.9 186.9 145.9 C 187.2 146.7 187.4 147.6 187.7 148.5 C 187.9 147.7 188.2 146.8 188.5 145.9 C 188.48 145.94 190.9 139.3 190.9 139.3 L 192.9 139.3 C 192.9 139.3 188.51 150.9 188.5 150.9 C 188 152.2 187.7 153 187.4 153.5 C 187.1 154.1 186.7 154.6 186.2 154.9 C 185.8 155.2 185.3 155.3 184.7 155.3 C 184.7 155.3 184.7 155.3 184.7 155.3 Z M 193.7 147.3 C 193.7 147.3 195.6 147 195.6 147 C 195.7 147.8 196 148.4 196.5 148.8 C 197 149.2 197.7 149.4 198.6 149.4 C 199.5 149.4 200.1 149.2 200.6 148.8 C 201 148.5 201.2 148 201.2 147.6 C 201.2 147.1 201 146.8 200.6 146.5 C 200.4 146.4 199.7 146.1 198.7 145.9 C 197.2 145.5 196.3 145.2 195.7 144.9 C 195.2 144.7 194.7 144.3 194.5 143.9 C 194.2 143.4 194 142.9 194 142.3 C 194 141.8 194.2 141.3 194.4 140.9 C 194.6 140.5 194.9 140.1 195.3 139.8 C 195.6 139.6 196.1 139.4 196.6 139.3 C 197.1 139.1 197.6 139 198.2 139 C 199.1 139 199.9 139.2 200.6 139.4 C 201.3 139.7 201.8 140 202.1 140.5 C 202.4 140.9 202.6 141.5 202.8 142.2 C 202.8 142.2 200.9 142.5 200.9 142.5 C 200.8 141.9 200.5 141.5 200.1 141.1 C 199.7 140.8 199.1 140.6 198.4 140.6 C 197.5 140.6 196.9 140.8 196.5 141.1 C 196.1 141.4 195.9 141.7 195.9 142.1 C 195.9 142.3 196 142.6 196.1 142.8 C 196.3 143 196.6 143.2 196.9 143.3 C 197.1 143.4 197.7 143.5 198.6 143.8 C 200 144.2 200.9 144.4 201.5 144.7 C 202 144.9 202.4 145.3 202.7 145.7 C 203 146.1 203.2 146.7 203.2 147.4 C 203.2 148 203 148.6 202.6 149.2 C 202.3 149.7 201.7 150.2 201 150.5 C 200.3 150.8 199.5 151 198.6 151 C 197.1 151 196 150.7 195.2 150 C 194.4 149.4 193.9 148.5 193.7 147.3 Z M 208.9 149 C 209.1 149 209.4 149 209.7 149 C 209.7 149 210 150.7 210 150.7 C 209.5 150.8 209 150.9 208.5 150.9 C 207.8 150.9 207.3 150.7 206.9 150.5 C 206.5 150.3 206.2 150 206.1 149.6 C 205.9 149.3 205.8 148.5 205.8 147.4 C 205.85 147.36 205.8 140.8 205.8 140.8 L 204.4 140.8 L 204.4 139.3 L 205.8 139.3 L 205.8 136.5 L 207.8 135.3 L 207.8 139.3 L 209.7 139.3 L 209.7 140.8 L 207.8 140.8 C 207.8 140.8 207.77 147.47 207.8 147.5 C 207.8 148 207.8 148.4 207.9 148.5 C 207.9 148.7 208.1 148.8 208.2 148.9 C 208.4 149 208.6 149 208.9 149 C 208.9 149 208.9 149 208.9 149 Z M 219.4 147 C 219.4 147 221.4 147.3 221.4 147.3 C 221.1 148.4 220.5 149.4 219.7 150 C 218.8 150.6 217.7 151 216.4 151 C 214.7 151 213.4 150.4 212.4 149.4 C 211.5 148.4 211 147 211 145.1 C 211 143.2 211.5 141.7 212.4 140.6 C 213.4 139.6 214.7 139 216.3 139 C 217.8 139 219.1 139.6 220 140.6 C 221 141.6 221.5 143.1 221.5 145 C 221.5 145.1 221.5 145.3 221.5 145.5 C 221.5 145.5 213 145.5 213 145.5 C 213 146.7 213.4 147.7 214 148.4 C 214.7 149 215.5 149.4 216.4 149.4 C 217.1 149.4 217.7 149.2 218.2 148.8 C 218.7 148.4 219.1 147.8 219.4 147 Z M 213.1 143.9 C 213.1 143.9 219.4 143.9 219.4 143.9 C 219.4 142.9 219.1 142.2 218.7 141.7 C 218.1 141 217.3 140.6 216.3 140.6 C 215.4 140.6 214.7 140.9 214.1 141.5 C 213.5 142.1 213.1 142.9 213.1 143.9 Z M 223.8 150.7 L 223.8 139.3 L 225.6 139.3 C 225.6 139.3 225.57 140.9 225.6 140.9 C 225.9 140.3 226.4 139.9 227 139.5 C 227.6 139.2 228.3 139 229 139 C 229.9 139 230.6 139.2 231.1 139.6 C 231.6 139.9 232 140.4 232.3 141 C 233.2 139.7 234.3 139 235.8 139 C 236.9 139 237.8 139.4 238.4 140 C 239 140.6 239.3 141.6 239.3 142.9 C 239.3 142.87 239.3 150.7 239.3 150.7 L 237.4 150.7 C 237.4 150.7 237.38 143.52 237.4 143.5 C 237.4 142.7 237.3 142.2 237.2 141.8 C 237.1 141.5 236.8 141.2 236.5 141 C 236.2 140.8 235.8 140.7 235.3 140.7 C 234.5 140.7 233.9 141 233.3 141.5 C 232.8 142 232.6 142.9 232.6 144.1 C 232.55 144.08 232.6 150.7 232.6 150.7 L 230.6 150.7 C 230.6 150.7 230.62 143.29 230.6 143.3 C 230.6 142.4 230.5 141.8 230.1 141.4 C 229.8 140.9 229.3 140.7 228.6 140.7 C 228.1 140.7 227.6 140.9 227.1 141.1 C 226.6 141.4 226.3 141.8 226.1 142.4 C 225.9 143 225.8 143.7 225.8 144.8 C 225.78 144.78 225.8 150.7 225.8 150.7 L 223.8 150.7 Z M 241.4 147.3 C 241.4 147.3 243.3 147 243.3 147 C 243.4 147.8 243.7 148.4 244.2 148.8 C 244.7 149.2 245.4 149.4 246.3 149.4 C 247.1 149.4 247.8 149.2 248.2 148.8 C 248.7 148.5 248.9 148 248.9 147.6 C 248.9 147.1 248.7 146.8 248.3 146.5 C 248 146.4 247.4 146.1 246.3 145.9 C 244.9 145.5 243.9 145.2 243.4 144.9 C 242.8 144.7 242.4 144.3 242.1 143.9 C 241.9 143.4 241.7 142.9 241.7 142.3 C 241.7 141.8 241.8 141.3 242.1 140.9 C 242.3 140.5 242.6 140.1 243 139.8 C 243.3 139.6 243.7 139.4 244.2 139.3 C 244.8 139.1 245.3 139 245.9 139 C 246.8 139 247.6 139.2 248.3 139.4 C 249 139.7 249.5 140 249.8 140.5 C 250.1 140.9 250.3 141.5 250.4 142.2 C 250.4 142.2 248.5 142.5 248.5 142.5 C 248.5 141.9 248.2 141.5 247.8 141.1 C 247.4 140.8 246.8 140.6 246.1 140.6 C 245.2 140.6 244.5 140.8 244.2 141.1 C 243.8 141.4 243.6 141.7 243.6 142.1 C 243.6 142.3 243.7 142.6 243.8 142.8 C 244 143 244.2 143.2 244.6 143.3 C 244.8 143.4 245.3 143.5 246.3 143.8 C 247.6 144.2 248.6 144.4 249.1 144.7 C 249.7 144.9 250.1 145.3 250.4 145.7 C 250.7 146.1 250.9 146.7 250.9 147.4 C 250.9 148 250.7 148.6 250.3 149.2 C 249.9 149.7 249.4 150.2 248.7 150.5 C 248 150.8 247.2 151 246.3 151 C 244.8 151 243.7 150.7 242.9 150 C 242.1 149.4 241.6 148.5 241.4 147.3 Z M 253.7 150.7 L 253.7 148.5 L 255.9 148.5 L 255.9 150.7 L 253.7 150.7 Z " stroke="none" fill="#000"/>  </g>  <g id="Polygon8694">    <path d="M 31.8 118.6 C 31.8 116.5 32.4 114.9 33.5 113.9 C 34.5 113.1 35.7 112.6 37.1 112.6 C 38.7 112.6 40 113.2 41 114.2 C 42 115.2 42.5 116.6 42.5 118.4 C 42.5 119.9 42.2 121.1 41.8 121.9 C 41.4 122.7 40.7 123.4 39.9 123.9 C 39 124.3 38.1 124.6 37.1 124.6 C 35.5 124.6 34.2 124 33.2 123 C 32.3 122 31.8 120.5 31.8 118.6 Z M 33.8 118.6 C 33.8 120.1 34.1 121.2 34.7 121.9 C 35.3 122.6 36.1 123 37.1 123 C 38.1 123 38.9 122.6 39.5 121.9 C 40.1 121.1 40.5 120 40.5 118.5 C 40.5 117.1 40.1 116.1 39.5 115.3 C 38.9 114.6 38.1 114.2 37.1 114.2 C 36.1 114.2 35.3 114.6 34.7 115.3 C 34.1 116 33.8 117.1 33.8 118.6 Z M 44.7 124.3 L 44.7 112.9 L 46.4 112.9 C 46.4 112.9 46.44 114.62 46.4 114.6 C 46.9 113.8 47.3 113.3 47.7 113 C 48 112.8 48.5 112.6 48.9 112.6 C 49.6 112.6 50.2 112.8 50.9 113.3 C 50.9 113.3 50.2 115.1 50.2 115.1 C 49.8 114.8 49.3 114.6 48.8 114.6 C 48.4 114.6 48 114.8 47.7 115 C 47.3 115.3 47.1 115.6 47 116.1 C 46.7 116.8 46.6 117.5 46.6 118.3 C 46.63 118.33 46.6 124.3 46.6 124.3 L 44.7 124.3 Z M 66 120.6 C 66 120.6 68 120.9 68 120.9 C 67.7 122 67.1 123 66.2 123.6 C 65.4 124.2 64.3 124.6 63 124.6 C 61.3 124.6 60 124 59 123 C 58 122 57.5 120.6 57.5 118.7 C 57.5 116.8 58 115.3 59 114.2 C 60 113.2 61.3 112.6 62.8 112.6 C 64.4 112.6 65.6 113.2 66.6 114.2 C 67.5 115.2 68 116.7 68 118.6 C 68 118.7 68 118.9 68 119.1 C 68 119.1 59.5 119.1 59.5 119.1 C 59.6 120.3 59.9 121.3 60.6 122 C 61.2 122.6 62 123 63 123 C 63.7 123 64.3 122.8 64.8 122.4 C 65.3 122 65.7 121.4 66 120.6 Z M 59.6 117.5 C 59.6 117.5 66 117.5 66 117.5 C 65.9 116.5 65.7 115.8 65.3 115.3 C 64.6 114.6 63.8 114.2 62.9 114.2 C 62 114.2 61.2 114.5 60.6 115.1 C 60 115.7 59.7 116.5 59.6 117.5 Z M 70.4 124.3 L 70.4 112.9 L 72.1 112.9 C 72.1 112.9 72.12 114.5 72.1 114.5 C 72.5 113.9 73 113.5 73.6 113.1 C 74.1 112.8 74.8 112.6 75.6 112.6 C 76.4 112.6 77.1 112.8 77.7 113.2 C 78.2 113.5 78.6 114 78.8 114.6 C 79.7 113.3 80.9 112.6 82.3 112.6 C 83.5 112.6 84.3 113 84.9 113.6 C 85.5 114.2 85.9 115.2 85.9 116.5 C 85.85 116.47 85.9 124.3 85.9 124.3 L 83.9 124.3 C 83.9 124.3 83.93 117.12 83.9 117.1 C 83.9 116.3 83.9 115.8 83.7 115.4 C 83.6 115.1 83.4 114.8 83.1 114.6 C 82.7 114.4 82.3 114.3 81.9 114.3 C 81.1 114.3 80.4 114.6 79.9 115.1 C 79.4 115.6 79.1 116.5 79.1 117.7 C 79.11 117.68 79.1 124.3 79.1 124.3 L 77.2 124.3 C 77.2 124.3 77.17 116.89 77.2 116.9 C 77.2 116 77 115.4 76.7 115 C 76.4 114.5 75.9 114.3 75.2 114.3 C 74.6 114.3 74.1 114.5 73.6 114.7 C 73.2 115 72.8 115.4 72.6 116 C 72.4 116.6 72.3 117.3 72.3 118.4 C 72.33 118.38 72.3 124.3 72.3 124.3 L 70.4 124.3 Z M 88.7 128.7 L 88.7 112.9 L 90.5 112.9 C 90.5 112.9 90.48 114.38 90.5 114.4 C 90.9 113.8 91.4 113.4 91.9 113.1 C 92.4 112.8 93 112.6 93.8 112.6 C 94.8 112.6 95.6 112.9 96.4 113.4 C 97.1 113.9 97.7 114.6 98.1 115.5 C 98.4 116.4 98.6 117.4 98.6 118.5 C 98.6 119.7 98.4 120.7 98 121.7 C 97.6 122.6 97 123.3 96.2 123.8 C 95.4 124.3 94.5 124.6 93.7 124.6 C 93 124.6 92.4 124.4 91.9 124.2 C 91.4 123.9 91 123.5 90.7 123.1 C 90.65 123.12 90.7 128.7 90.7 128.7 L 88.7 128.7 Z M 90.5 118.7 C 90.5 120.1 90.8 121.2 91.4 121.9 C 92 122.6 92.7 123 93.5 123 C 94.4 123 95.1 122.6 95.7 121.9 C 96.3 121.2 96.6 120 96.6 118.5 C 96.6 117 96.3 116 95.8 115.2 C 95.2 114.5 94.4 114.2 93.6 114.2 C 92.8 114.2 92.1 114.5 91.4 115.3 C 90.8 116.1 90.5 117.2 90.5 118.7 Z M 100.9 124.3 L 100.9 108.6 L 102.8 108.6 L 102.8 124.3 L 100.9 124.3 Z M 105.1 118.6 C 105.1 116.5 105.7 114.9 106.9 113.9 C 107.9 113.1 109.1 112.6 110.5 112.6 C 112 112.6 113.3 113.2 114.3 114.2 C 115.3 115.2 115.8 116.6 115.8 118.4 C 115.8 119.9 115.6 121.1 115.2 121.9 C 114.7 122.7 114.1 123.4 113.2 123.9 C 112.4 124.3 111.5 124.6 110.5 124.6 C 108.9 124.6 107.6 124 106.6 123 C 105.6 122 105.1 120.5 105.1 118.6 Z M 107.1 118.6 C 107.1 120.1 107.4 121.2 108.1 121.9 C 108.7 122.6 109.5 123 110.5 123 C 111.4 123 112.2 122.6 112.9 121.9 C 113.5 121.1 113.8 120 113.8 118.5 C 113.8 117.1 113.5 116.1 112.9 115.3 C 112.2 114.6 111.4 114.2 110.5 114.2 C 109.5 114.2 108.7 114.6 108.1 115.3 C 107.4 116 107.1 117.1 107.1 118.6 Z M 119.2 128.9 C 118.9 128.9 118.5 128.9 118 128.7 C 118 128.7 117.8 126.9 117.8 126.9 C 118.2 127 118.6 127.1 118.9 127.1 C 119.3 127.1 119.7 127 119.9 126.8 C 120.2 126.7 120.4 126.5 120.6 126.2 C 120.7 126 120.9 125.6 121.1 124.8 C 121.2 124.7 121.2 124.5 121.3 124.3 C 121.31 124.33 117 112.9 117 112.9 L 119.1 112.9 C 119.1 112.9 121.44 119.5 121.4 119.5 C 121.7 120.3 122 121.2 122.3 122.1 C 122.5 121.3 122.8 120.4 123.1 119.5 C 123.06 119.54 125.5 112.9 125.5 112.9 L 127.4 112.9 C 127.4 112.9 123.1 124.5 123.1 124.5 C 122.6 125.8 122.3 126.6 122 127.1 C 121.7 127.7 121.3 128.2 120.8 128.5 C 120.4 128.8 119.9 128.9 119.2 128.9 C 119.2 128.9 119.2 128.9 119.2 128.9 Z M 136.9 120.6 C 136.9 120.6 138.9 120.9 138.9 120.9 C 138.6 122 138 123 137.1 123.6 C 136.3 124.2 135.2 124.6 133.9 124.6 C 132.2 124.6 130.9 124 129.9 123 C 128.9 122 128.4 120.6 128.4 118.7 C 128.4 116.8 128.9 115.3 129.9 114.2 C 130.9 113.2 132.2 112.6 133.8 112.6 C 135.3 112.6 136.5 113.2 137.5 114.2 C 138.5 115.2 139 116.7 139 118.6 C 139 118.7 138.9 118.9 138.9 119.1 C 138.9 119.1 130.4 119.1 130.4 119.1 C 130.5 120.3 130.9 121.3 131.5 122 C 132.1 122.6 132.9 123 133.9 123 C 134.6 123 135.2 122.8 135.7 122.4 C 136.2 122 136.6 121.4 136.9 120.6 Z M 130.5 117.5 C 130.5 117.5 136.9 117.5 136.9 117.5 C 136.8 116.5 136.6 115.8 136.2 115.3 C 135.6 114.6 134.8 114.2 133.8 114.2 C 132.9 114.2 132.1 114.5 131.5 115.1 C 130.9 115.7 130.6 116.5 130.5 117.5 Z M 141.3 124.3 L 141.3 112.9 L 143 112.9 C 143 112.9 143.03 114.62 143 114.6 C 143.5 113.8 143.9 113.3 144.3 113 C 144.6 112.8 145.1 112.6 145.5 112.6 C 146.2 112.6 146.8 112.8 147.5 113.3 C 147.5 113.3 146.8 115.1 146.8 115.1 C 146.4 114.8 145.9 114.6 145.4 114.6 C 145 114.6 144.6 114.8 144.3 115 C 143.9 115.3 143.7 115.6 143.5 116.1 C 143.3 116.8 143.2 117.5 143.2 118.3 C 143.23 118.33 143.2 124.3 143.2 124.3 L 141.3 124.3 Z M 147.9 120.9 C 147.9 120.9 149.8 120.6 149.8 120.6 C 149.9 121.4 150.2 122 150.7 122.4 C 151.2 122.8 151.9 123 152.7 123 C 153.6 123 154.3 122.8 154.7 122.4 C 155.1 122.1 155.4 121.6 155.4 121.2 C 155.4 120.7 155.2 120.4 154.8 120.1 C 154.5 120 153.9 119.7 152.8 119.5 C 151.4 119.1 150.4 118.8 149.9 118.5 C 149.3 118.3 148.9 117.9 148.6 117.5 C 148.3 117 148.2 116.5 148.2 115.9 C 148.2 115.4 148.3 114.9 148.5 114.5 C 148.8 114.1 149.1 113.7 149.5 113.4 C 149.8 113.2 150.2 113 150.7 112.9 C 151.2 112.7 151.8 112.6 152.4 112.6 C 153.3 112.6 154.1 112.8 154.7 113 C 155.4 113.3 155.9 113.6 156.2 114.1 C 156.6 114.5 156.8 115.1 156.9 115.8 C 156.9 115.8 155 116.1 155 116.1 C 154.9 115.5 154.7 115.1 154.3 114.7 C 153.9 114.4 153.3 114.2 152.5 114.2 C 151.6 114.2 151 114.4 150.6 114.7 C 150.2 115 150.1 115.3 150.1 115.7 C 150.1 115.9 150.1 116.2 150.3 116.4 C 150.5 116.6 150.7 116.8 151 116.9 C 151.2 117 151.8 117.1 152.7 117.4 C 154.1 117.8 155.1 118 155.6 118.3 C 156.1 118.5 156.6 118.9 156.9 119.3 C 157.2 119.7 157.3 120.3 157.3 121 C 157.3 121.6 157.2 122.2 156.8 122.8 C 156.4 123.3 155.9 123.8 155.2 124.1 C 154.4 124.4 153.6 124.6 152.7 124.6 C 151.3 124.6 150.1 124.3 149.4 123.6 C 148.6 123 148.1 122.1 147.9 120.9 Z M 167.9 124.3 L 164.4 112.9 L 166.4 112.9 L 168.2 119.5 C 168.2 119.5 168.86 121.93 168.9 121.9 C 168.9 121.8 169.1 121 169.4 119.6 C 169.45 119.58 171.3 112.9 171.3 112.9 L 173.3 112.9 L 175 119.5 L 175.5 121.7 L 176.2 119.5 L 178.1 112.9 L 180 112.9 L 176.5 124.3 L 174.4 124.3 L 172.6 117.5 L 172.2 115.5 L 169.9 124.3 L 167.9 124.3 Z M 181.7 110.8 L 181.7 108.6 L 183.6 108.6 L 183.6 110.8 L 181.7 110.8 Z M 181.7 124.3 L 181.7 112.9 L 183.6 112.9 L 183.6 124.3 L 181.7 124.3 Z M 189.9 122.6 C 190.1 122.6 190.4 122.6 190.8 122.6 C 190.8 122.6 191 124.3 191 124.3 C 190.5 124.4 190 124.5 189.6 124.5 C 188.9 124.5 188.3 124.3 187.9 124.1 C 187.5 123.9 187.3 123.6 187.1 123.2 C 187 122.9 186.9 122.1 186.9 121 C 186.88 120.96 186.9 114.4 186.9 114.4 L 185.5 114.4 L 185.5 112.9 L 186.9 112.9 L 186.9 110.1 L 188.8 108.9 L 188.8 112.9 L 190.8 112.9 L 190.8 114.4 L 188.8 114.4 C 188.8 114.4 188.81 121.07 188.8 121.1 C 188.8 121.6 188.8 122 188.9 122.1 C 189 122.3 189.1 122.4 189.2 122.5 C 189.4 122.6 189.6 122.6 189.9 122.6 C 189.9 122.6 189.9 122.6 189.9 122.6 Z M 192.6 124.3 L 192.6 108.6 L 194.6 108.6 C 194.6 108.6 194.57 114.21 194.6 114.2 C 195.5 113.2 196.6 112.6 198 112.6 C 198.8 112.6 199.6 112.8 200.2 113.1 C 200.8 113.5 201.3 113.9 201.5 114.5 C 201.8 115.1 201.9 116 201.9 117.1 C 201.93 117.07 201.9 124.3 201.9 124.3 L 200 124.3 C 200 124.3 200 117.07 200 117.1 C 200 116.1 199.8 115.4 199.4 115 C 199 114.5 198.4 114.3 197.6 114.3 C 197 114.3 196.5 114.5 196 114.7 C 195.5 115 195.1 115.4 194.9 116 C 194.7 116.5 194.6 117.2 194.6 118.1 C 194.57 118.06 194.6 124.3 194.6 124.3 L 192.6 124.3 Z M 211 124.3 L 211 112.9 L 212.7 112.9 C 212.7 112.9 212.72 114.5 212.7 114.5 C 213.1 113.9 213.6 113.5 214.1 113.1 C 214.7 112.8 215.4 112.6 216.2 112.6 C 217 112.6 217.7 112.8 218.3 113.2 C 218.8 113.5 219.2 114 219.4 114.6 C 220.3 113.3 221.5 112.6 222.9 112.6 C 224.1 112.6 224.9 113 225.5 113.6 C 226.1 114.2 226.4 115.2 226.4 116.5 C 226.45 116.47 226.4 124.3 226.4 124.3 L 224.5 124.3 C 224.5 124.3 224.52 117.12 224.5 117.1 C 224.5 116.3 224.5 115.8 224.3 115.4 C 224.2 115.1 224 114.8 223.7 114.6 C 223.3 114.4 222.9 114.3 222.5 114.3 C 221.7 114.3 221 114.6 220.5 115.1 C 220 115.6 219.7 116.5 219.7 117.7 C 219.7 117.68 219.7 124.3 219.7 124.3 L 217.8 124.3 C 217.8 124.3 217.77 116.89 217.8 116.9 C 217.8 116 217.6 115.4 217.3 115 C 217 114.5 216.5 114.3 215.7 114.3 C 215.2 114.3 214.7 114.5 214.2 114.7 C 213.8 115 213.4 115.4 213.2 116 C 213 116.6 212.9 117.3 212.9 118.4 C 212.92 118.38 212.9 124.3 212.9 124.3 L 211 124.3 Z M 228.6 118.6 C 228.6 116.5 229.2 114.9 230.4 113.9 C 231.3 113.1 232.5 112.6 233.9 112.6 C 235.5 112.6 236.8 113.2 237.8 114.2 C 238.8 115.2 239.3 116.6 239.3 118.4 C 239.3 119.9 239.1 121.1 238.6 121.9 C 238.2 122.7 237.5 123.4 236.7 123.9 C 235.9 124.3 234.9 124.6 233.9 124.6 C 232.3 124.6 231.1 124 230.1 123 C 229.1 122 228.6 120.5 228.6 118.6 Z M 230.6 118.6 C 230.6 120.1 230.9 121.2 231.5 121.9 C 232.2 122.6 233 123 233.9 123 C 234.9 123 235.7 122.6 236.3 121.9 C 237 121.1 237.3 120 237.3 118.5 C 237.3 117.1 237 116.1 236.3 115.3 C 235.7 114.6 234.9 114.2 233.9 114.2 C 233 114.2 232.2 114.6 231.5 115.3 C 230.9 116 230.6 117.1 230.6 118.6 Z M 241.5 124.3 L 241.5 112.9 L 243.3 112.9 C 243.3 112.9 243.27 114.62 243.3 114.6 C 243.7 113.8 244.1 113.3 244.5 113 C 244.9 112.8 245.3 112.6 245.7 112.6 C 246.4 112.6 247.1 112.8 247.7 113.3 C 247.7 113.3 247.1 115.1 247.1 115.1 C 246.6 114.8 246.1 114.6 245.6 114.6 C 245.2 114.6 244.8 114.8 244.5 115 C 244.2 115.3 243.9 115.6 243.8 116.1 C 243.6 116.8 243.5 117.5 243.5 118.3 C 243.46 118.33 243.5 124.3 243.5 124.3 L 241.5 124.3 Z M 256.7 120.6 C 256.7 120.6 258.7 120.9 258.7 120.9 C 258.4 122 257.8 123 256.9 123.6 C 256.1 124.2 255 124.6 253.7 124.6 C 252 124.6 250.7 124 249.7 123 C 248.7 122 248.2 120.6 248.2 118.7 C 248.2 116.8 248.7 115.3 249.7 114.2 C 250.7 113.2 252 112.6 253.6 112.6 C 255.1 112.6 256.3 113.2 257.3 114.2 C 258.3 115.2 258.7 116.7 258.7 118.6 C 258.7 118.7 258.7 118.9 258.7 119.1 C 258.7 119.1 250.2 119.1 250.2 119.1 C 250.3 120.3 250.7 121.3 251.3 122 C 251.9 122.6 252.7 123 253.7 123 C 254.4 123 255 122.8 255.5 122.4 C 256 122 256.4 121.4 256.7 120.6 Z M 250.3 117.5 C 250.3 117.5 256.7 117.5 256.7 117.5 C 256.6 116.5 256.4 115.8 256 115.3 C 255.4 114.6 254.6 114.2 253.6 114.2 C 252.7 114.2 251.9 114.5 251.3 115.1 C 250.7 115.7 250.4 116.5 250.3 117.5 Z M 267.2 124.3 L 267.2 112.9 L 269 112.9 C 269 112.9 268.95 114.5 269 114.5 C 269.3 113.9 269.8 113.5 270.4 113.1 C 271 112.8 271.7 112.6 272.4 112.6 C 273.3 112.6 274 112.8 274.5 113.2 C 275 113.5 275.4 114 275.6 114.6 C 276.5 113.3 277.7 112.6 279.2 112.6 C 280.3 112.6 281.2 113 281.8 113.6 C 282.4 114.2 282.7 115.2 282.7 116.5 C 282.68 116.47 282.7 124.3 282.7 124.3 L 280.8 124.3 C 280.8 124.3 280.76 117.12 280.8 117.1 C 280.8 116.3 280.7 115.8 280.6 115.4 C 280.4 115.1 280.2 114.8 279.9 114.6 C 279.6 114.4 279.2 114.3 278.7 114.3 C 277.9 114.3 277.3 114.6 276.7 115.1 C 276.2 115.6 275.9 116.5 275.9 117.7 C 275.94 117.68 275.9 124.3 275.9 124.3 L 274 124.3 C 274 124.3 274 116.89 274 116.9 C 274 116 273.8 115.4 273.5 115 C 273.2 114.5 272.7 114.3 272 114.3 C 271.4 114.3 270.9 114.5 270.5 114.7 C 270 115 269.7 115.4 269.5 116 C 269.3 116.6 269.2 117.3 269.2 118.4 C 269.16 118.38 269.2 124.3 269.2 124.3 L 267.2 124.3 Z M 293.4 124.3 C 293.2 123.9 293.1 123.4 293 122.9 C 292.3 123.5 291.6 123.9 290.9 124.2 C 290.3 124.4 289.6 124.6 288.8 124.6 C 287.5 124.6 286.6 124.3 285.9 123.6 C 285.2 123 284.9 122.2 284.9 121.3 C 284.9 120.7 285 120.2 285.3 119.8 C 285.5 119.3 285.9 118.9 286.3 118.7 C 286.7 118.4 287.2 118.2 287.7 118 C 288 117.9 288.6 117.8 289.4 117.7 C 290.9 117.5 292.1 117.3 292.8 117.1 C 292.8 116.8 292.8 116.6 292.8 116.6 C 292.8 115.8 292.7 115.2 292.3 114.9 C 291.8 114.5 291.1 114.2 290.1 114.2 C 289.2 114.2 288.5 114.4 288.1 114.7 C 287.6 115 287.3 115.6 287.1 116.4 C 287.1 116.4 285.2 116.2 285.2 116.2 C 285.4 115.3 285.7 114.7 286.1 114.2 C 286.5 113.7 287 113.3 287.8 113 C 288.5 112.8 289.4 112.6 290.4 112.6 C 291.3 112.6 292.1 112.8 292.7 113 C 293.4 113.2 293.8 113.5 294.1 113.8 C 294.4 114.2 294.6 114.6 294.7 115.2 C 294.8 115.5 294.8 116.1 294.8 116.9 C 294.8 116.9 294.8 119.5 294.8 119.5 C 294.8 121.3 294.8 122.5 294.9 122.9 C 295 123.4 295.2 123.9 295.4 124.3 C 295.4 124.3 293.4 124.3 293.4 124.3 C 293.4 124.3 293.38 124.3 293.4 124.3 Z M 292.8 118.6 C 292.1 118.9 291.1 119.1 289.7 119.3 C 288.9 119.4 288.3 119.6 288 119.7 C 287.7 119.8 287.4 120 287.2 120.3 C 287 120.6 287 120.9 287 121.2 C 287 121.8 287.2 122.2 287.5 122.5 C 287.9 122.9 288.5 123 289.3 123 C 290 123 290.7 122.9 291.2 122.6 C 291.8 122.2 292.2 121.8 292.5 121.2 C 292.7 120.8 292.8 120.1 292.8 119.3 C 292.8 119.3 292.8 118.6 292.8 118.6 Z M 301.2 122.6 C 301.4 122.6 301.7 122.6 302 122.6 C 302 122.6 302.3 124.3 302.3 124.3 C 301.7 124.4 301.3 124.5 300.8 124.5 C 300.1 124.5 299.6 124.3 299.2 124.1 C 298.8 123.9 298.5 123.6 298.4 123.2 C 298.2 122.9 298.1 122.1 298.1 121 C 298.14 120.96 298.1 114.4 298.1 114.4 L 296.7 114.4 L 296.7 112.9 L 298.1 112.9 L 298.1 110.1 L 300.1 108.9 L 300.1 112.9 L 302 112.9 L 302 114.4 L 300.1 114.4 C 300.1 114.4 300.06 121.07 300.1 121.1 C 300.1 121.6 300.1 122 300.2 122.1 C 300.2 122.3 300.3 122.4 300.5 122.5 C 300.7 122.6 300.9 122.6 301.2 122.6 C 301.2 122.6 301.2 122.6 301.2 122.6 Z M 311.4 124.3 C 311.4 124.3 311.37 122.63 311.4 122.6 C 310.5 123.9 309.3 124.6 307.8 124.6 C 307.1 124.6 306.5 124.4 305.9 124.2 C 305.3 123.9 304.9 123.6 304.6 123.2 C 304.3 122.8 304.1 122.3 304 121.8 C 303.9 121.4 303.9 120.8 303.9 120 C 303.85 119.96 303.9 112.9 303.9 112.9 L 305.8 112.9 C 305.8 112.9 305.79 119.22 305.8 119.2 C 305.8 120.2 305.8 120.9 305.9 121.3 C 306 121.8 306.3 122.2 306.7 122.5 C 307.1 122.8 307.6 122.9 308.1 122.9 C 308.7 122.9 309.3 122.7 309.8 122.5 C 310.3 122.2 310.6 121.7 310.9 121.2 C 311.1 120.7 311.2 120 311.2 119 C 311.17 119.01 311.2 112.9 311.2 112.9 L 313.1 112.9 L 313.1 124.3 L 311.4 124.3 Z M 316.1 124.3 L 316.1 112.9 L 317.9 112.9 C 317.9 112.9 317.85 114.62 317.9 114.6 C 318.3 113.8 318.7 113.3 319.1 113 C 319.5 112.8 319.9 112.6 320.3 112.6 C 321 112.6 321.6 112.8 322.3 113.3 C 322.3 113.3 321.6 115.1 321.6 115.1 C 321.2 114.8 320.7 114.6 320.2 114.6 C 319.8 114.6 319.4 114.8 319.1 115 C 318.8 115.3 318.5 115.6 318.4 116.1 C 318.2 116.8 318 117.5 318 118.3 C 318.05 118.33 318 124.3 318 124.3 L 316.1 124.3 Z M 331.3 120.6 C 331.3 120.6 333.3 120.9 333.3 120.9 C 333 122 332.4 123 331.5 123.6 C 330.7 124.2 329.6 124.6 328.3 124.6 C 326.6 124.6 325.3 124 324.3 123 C 323.3 122 322.8 120.6 322.8 118.7 C 322.8 116.8 323.3 115.3 324.3 114.2 C 325.3 113.2 326.6 112.6 328.1 112.6 C 329.7 112.6 330.9 113.2 331.9 114.2 C 332.8 115.2 333.3 116.7 333.3 118.6 C 333.3 118.7 333.3 118.9 333.3 119.1 C 333.3 119.1 324.8 119.1 324.8 119.1 C 324.9 120.3 325.2 121.3 325.9 122 C 326.5 122.6 327.3 123 328.3 123 C 329 123 329.6 122.8 330.1 122.4 C 330.6 122 331 121.4 331.3 120.6 Z M 324.9 117.5 C 324.9 117.5 331.3 117.5 331.3 117.5 C 331.2 116.5 331 115.8 330.6 115.3 C 329.9 114.6 329.1 114.2 328.2 114.2 C 327.3 114.2 326.5 114.5 325.9 115.1 C 325.3 115.7 325 116.5 324.9 117.5 Z " stroke="none" fill="#000"/>  </g>  <g id="Polygon8693">    <path d="M 12.3 97.9 L 12.3 82.2 L 14.4 82.2 L 14.4 97.9 L 12.3 97.9 Z M 25.2 97.9 C 25.2 97.9 25.19 96.46 25.2 96.5 C 24.5 97.6 23.4 98.2 22 98.2 C 21.1 98.2 20.3 97.9 19.5 97.4 C 18.7 96.9 18.1 96.2 17.7 95.3 C 17.3 94.4 17.1 93.4 17.1 92.2 C 17.1 91.1 17.3 90 17.7 89.1 C 18 88.2 18.6 87.5 19.4 87 C 20.1 86.5 21 86.2 21.9 86.2 C 22.6 86.2 23.2 86.4 23.7 86.7 C 24.3 87 24.7 87.3 25.1 87.8 C 25.06 87.81 25.1 82.2 25.1 82.2 L 27 82.2 L 27 97.9 L 25.2 97.9 Z M 19.1 92.2 C 19.1 93.7 19.4 94.8 20 95.5 C 20.6 96.2 21.3 96.6 22.2 96.6 C 23 96.6 23.7 96.2 24.3 95.5 C 24.9 94.8 25.2 93.8 25.2 92.4 C 25.2 90.8 24.9 89.7 24.3 88.9 C 23.7 88.2 23 87.8 22.1 87.8 C 21.2 87.8 20.5 88.2 19.9 88.9 C 19.4 89.6 19.1 90.7 19.1 92.2 Z M 37.8 94.2 C 37.8 94.2 39.8 94.5 39.8 94.5 C 39.5 95.6 38.9 96.6 38.1 97.2 C 37.2 97.8 36.1 98.2 34.8 98.2 C 33.1 98.2 31.8 97.6 30.8 96.6 C 29.9 95.6 29.4 94.2 29.4 92.3 C 29.4 90.4 29.9 88.9 30.9 87.8 C 31.8 86.8 33.1 86.2 34.7 86.2 C 36.2 86.2 37.5 86.8 38.4 87.8 C 39.4 88.8 39.9 90.3 39.9 92.2 C 39.9 92.3 39.9 92.5 39.9 92.7 C 39.9 92.7 31.4 92.7 31.4 92.7 C 31.4 93.9 31.8 94.9 32.4 95.6 C 33.1 96.2 33.9 96.6 34.8 96.6 C 35.5 96.6 36.1 96.4 36.6 96 C 37.1 95.6 37.5 95 37.8 94.2 Z M 31.5 91.1 C 31.5 91.1 37.9 91.1 37.9 91.1 C 37.8 90.1 37.5 89.4 37.1 88.9 C 36.5 88.2 35.7 87.8 34.7 87.8 C 33.8 87.8 33.1 88.1 32.5 88.7 C 31.9 89.3 31.5 90.1 31.5 91.1 Z M 50.1 97.9 C 49.9 97.5 49.8 97 49.7 96.5 C 49 97.1 48.3 97.5 47.6 97.8 C 47 98 46.3 98.2 45.5 98.2 C 44.2 98.2 43.3 97.9 42.6 97.2 C 41.9 96.6 41.6 95.8 41.6 94.9 C 41.6 94.3 41.7 93.8 42 93.4 C 42.2 92.9 42.6 92.5 43 92.3 C 43.4 92 43.9 91.8 44.4 91.6 C 44.8 91.5 45.3 91.4 46.1 91.3 C 47.7 91.1 48.8 90.9 49.5 90.7 C 49.5 90.4 49.5 90.2 49.5 90.2 C 49.5 89.4 49.4 88.8 49 88.5 C 48.5 88.1 47.8 87.8 46.8 87.8 C 45.9 87.8 45.2 88 44.8 88.3 C 44.4 88.6 44 89.2 43.8 90 C 43.8 90 41.9 89.8 41.9 89.8 C 42.1 88.9 42.4 88.3 42.8 87.8 C 43.2 87.3 43.7 86.9 44.5 86.6 C 45.2 86.4 46.1 86.2 47.1 86.2 C 48.1 86.2 48.8 86.4 49.5 86.6 C 50.1 86.8 50.5 87.1 50.8 87.4 C 51.1 87.8 51.3 88.2 51.4 88.8 C 51.5 89.1 51.5 89.7 51.5 90.5 C 51.5 90.5 51.5 93.1 51.5 93.1 C 51.5 94.9 51.5 96.1 51.6 96.5 C 51.7 97 51.9 97.5 52.1 97.9 C 52.11 97.9 50.1 97.9 50.1 97.9 C 50.1 97.9 50.09 97.9 50.1 97.9 Z M 49.5 92.2 C 48.8 92.5 47.8 92.7 46.4 92.9 C 45.6 93 45 93.2 44.7 93.3 C 44.4 93.4 44.1 93.6 43.9 93.9 C 43.8 94.2 43.7 94.5 43.7 94.8 C 43.7 95.4 43.9 95.8 44.2 96.1 C 44.6 96.5 45.2 96.6 46 96.6 C 46.7 96.6 47.4 96.5 47.9 96.2 C 48.5 95.8 49 95.4 49.2 94.8 C 49.4 94.4 49.5 93.7 49.5 92.9 C 49.5 92.9 49.5 92.2 49.5 92.2 Z M 54.4 97.9 L 54.4 82.2 L 56.4 82.2 L 56.4 97.9 L 54.4 97.9 Z M 66 97.9 L 66 88 L 64.2 88 L 64.2 86.5 L 66 86.5 C 66 86.5 65.95 85.28 66 85.3 C 66 84.5 66 83.9 66.2 83.6 C 66.3 83.1 66.7 82.7 67.1 82.4 C 67.6 82 68.3 81.9 69.1 81.9 C 69.7 81.9 70.3 82 70.9 82.1 C 70.9 82.1 70.6 83.8 70.6 83.8 C 70.2 83.7 69.8 83.7 69.5 83.7 C 68.9 83.7 68.5 83.8 68.2 84 C 68 84.3 67.9 84.8 67.9 85.4 C 67.88 85.44 67.9 86.5 67.9 86.5 L 70.1 86.5 L 70.1 88 L 67.9 88 L 67.9 97.9 L 66 97.9 Z M 70.9 92.2 C 70.9 90.1 71.5 88.5 72.6 87.5 C 73.6 86.7 74.8 86.2 76.2 86.2 C 77.8 86.2 79.1 86.8 80.1 87.8 C 81.1 88.8 81.6 90.2 81.6 92 C 81.6 93.5 81.4 94.7 80.9 95.5 C 80.5 96.3 79.8 97 79 97.5 C 78.1 97.9 77.2 98.2 76.2 98.2 C 74.6 98.2 73.3 97.6 72.4 96.6 C 71.4 95.6 70.9 94.1 70.9 92.2 Z M 72.9 92.2 C 72.9 93.7 73.2 94.8 73.8 95.5 C 74.5 96.2 75.3 96.6 76.2 96.6 C 77.2 96.6 78 96.2 78.6 95.5 C 79.3 94.7 79.6 93.6 79.6 92.1 C 79.6 90.7 79.3 89.7 78.6 88.9 C 78 88.2 77.2 87.8 76.2 87.8 C 75.3 87.8 74.5 88.2 73.8 88.9 C 73.2 89.6 72.9 90.7 72.9 92.2 Z M 83.8 97.9 L 83.8 86.5 L 85.6 86.5 C 85.6 86.5 85.56 88.22 85.6 88.2 C 86 87.4 86.4 86.9 86.8 86.6 C 87.2 86.4 87.6 86.2 88 86.2 C 88.7 86.2 89.3 86.4 90 86.9 C 90 86.9 89.3 88.7 89.3 88.7 C 88.9 88.4 88.4 88.2 87.9 88.2 C 87.5 88.2 87.1 88.4 86.8 88.6 C 86.5 88.9 86.2 89.2 86.1 89.7 C 85.9 90.4 85.8 91.1 85.8 91.9 C 85.75 91.93 85.8 97.9 85.8 97.9 L 83.8 97.9 Z M 97.3 97.9 L 97.3 82.2 L 99.2 82.2 C 99.2 82.2 99.21 87.81 99.2 87.8 C 100.1 86.8 101.3 86.2 102.6 86.2 C 103.5 86.2 104.2 86.4 104.8 86.7 C 105.5 87.1 105.9 87.5 106.2 88.1 C 106.4 88.7 106.6 89.6 106.6 90.7 C 106.57 90.67 106.6 97.9 106.6 97.9 L 104.6 97.9 C 104.6 97.9 104.64 90.67 104.6 90.7 C 104.6 89.7 104.4 89 104 88.6 C 103.6 88.1 103 87.9 102.2 87.9 C 101.7 87.9 101.1 88.1 100.6 88.3 C 100.1 88.6 99.7 89 99.5 89.6 C 99.3 90.1 99.2 90.8 99.2 91.7 C 99.21 91.66 99.2 97.9 99.2 97.9 L 97.3 97.9 Z M 109.5 84.4 L 109.5 82.2 L 111.5 82.2 L 111.5 84.4 L 109.5 84.4 Z M 109.5 97.9 L 109.5 86.5 L 111.5 86.5 L 111.5 97.9 L 109.5 97.9 Z M 114 98.8 C 114 98.8 115.9 99.1 115.9 99.1 C 116 99.7 116.2 100.1 116.6 100.4 C 117.1 100.8 117.7 100.9 118.5 100.9 C 119.4 100.9 120.1 100.8 120.6 100.4 C 121.1 100 121.4 99.5 121.6 98.9 C 121.7 98.5 121.8 97.7 121.7 96.4 C 120.9 97.4 119.9 97.9 118.6 97.9 C 117 97.9 115.8 97.3 114.9 96.2 C 114.1 95.1 113.7 93.7 113.7 92.1 C 113.7 91 113.9 90 114.2 89.1 C 114.6 88.2 115.2 87.5 116 87 C 116.7 86.5 117.6 86.2 118.6 86.2 C 119.9 86.2 121.1 86.8 121.9 87.9 C 121.93 87.87 121.9 86.5 121.9 86.5 L 123.7 86.5 C 123.7 86.5 123.71 96.36 123.7 96.4 C 123.7 98.1 123.5 99.4 123.2 100.1 C 122.8 100.9 122.2 101.5 121.5 101.9 C 120.7 102.3 119.7 102.5 118.6 102.5 C 117.2 102.5 116.1 102.2 115.3 101.6 C 114.4 101 114 100.1 114 98.8 Z M 115.6 92 C 115.6 93.5 115.9 94.6 116.5 95.3 C 117.1 96 117.9 96.3 118.8 96.3 C 119.7 96.3 120.4 96 121 95.3 C 121.6 94.6 121.9 93.5 121.9 92.1 C 121.9 90.7 121.6 89.6 121 88.9 C 120.4 88.2 119.6 87.8 118.7 87.8 C 117.9 87.8 117.2 88.2 116.5 88.9 C 115.9 89.6 115.6 90.6 115.6 92 Z M 126.6 97.9 L 126.6 82.2 L 128.6 82.2 C 128.6 82.2 128.57 87.81 128.6 87.8 C 129.5 86.8 130.6 86.2 132 86.2 C 132.8 86.2 133.6 86.4 134.2 86.7 C 134.8 87.1 135.3 87.5 135.5 88.1 C 135.8 88.7 135.9 89.6 135.9 90.7 C 135.93 90.67 135.9 97.9 135.9 97.9 L 134 97.9 C 134 97.9 133.99 90.67 134 90.7 C 134 89.7 133.8 89 133.4 88.6 C 132.9 88.1 132.4 87.9 131.6 87.9 C 131 87.9 130.5 88.1 130 88.3 C 129.5 88.6 129.1 89 128.9 89.6 C 128.7 90.1 128.6 90.8 128.6 91.7 C 128.57 91.66 128.6 97.9 128.6 97.9 L 126.6 97.9 Z M 146.7 94.2 C 146.7 94.2 148.7 94.5 148.7 94.5 C 148.4 95.6 147.8 96.6 146.9 97.2 C 146.1 97.8 145 98.2 143.7 98.2 C 142 98.2 140.7 97.6 139.7 96.6 C 138.7 95.6 138.2 94.2 138.2 92.3 C 138.2 90.4 138.7 88.9 139.7 87.8 C 140.7 86.8 142 86.2 143.6 86.2 C 145.1 86.2 146.3 86.8 147.3 87.8 C 148.3 88.8 148.7 90.3 148.7 92.2 C 148.7 92.3 148.7 92.5 148.7 92.7 C 148.7 92.7 140.2 92.7 140.2 92.7 C 140.3 93.9 140.7 94.9 141.3 95.6 C 141.9 96.2 142.7 96.6 143.7 96.6 C 144.4 96.6 145 96.4 145.5 96 C 146 95.6 146.4 95 146.7 94.2 Z M 140.3 91.1 C 140.3 91.1 146.7 91.1 146.7 91.1 C 146.6 90.1 146.4 89.4 146 88.9 C 145.4 88.2 144.6 87.8 143.6 87.8 C 142.7 87.8 141.9 88.1 141.3 88.7 C 140.7 89.3 140.4 90.1 140.3 91.1 Z M 151.1 97.9 L 151.1 86.5 L 152.8 86.5 C 152.8 86.5 152.83 88.22 152.8 88.2 C 153.3 87.4 153.7 86.9 154.1 86.6 C 154.4 86.4 154.8 86.2 155.3 86.2 C 155.9 86.2 156.6 86.4 157.3 86.9 C 157.3 86.9 156.6 88.7 156.6 88.7 C 156.1 88.4 155.7 88.2 155.2 88.2 C 154.8 88.2 154.4 88.4 154.1 88.6 C 153.7 88.9 153.5 89.2 153.3 89.7 C 153.1 90.4 153 91.1 153 91.9 C 153.02 91.93 153 97.9 153 97.9 L 151.1 97.9 Z M 157.7 93.2 L 157.7 91.2 L 163.6 91.2 L 163.6 93.2 L 157.7 93.2 Z M 165.8 102.3 L 165.8 86.5 L 167.5 86.5 C 167.5 86.5 167.52 87.98 167.5 88 C 167.9 87.4 168.4 87 168.9 86.7 C 169.5 86.4 170.1 86.2 170.8 86.2 C 171.8 86.2 172.7 86.5 173.4 87 C 174.2 87.5 174.7 88.2 175.1 89.1 C 175.5 90 175.7 91 175.7 92.1 C 175.7 93.3 175.5 94.3 175 95.3 C 174.6 96.2 174 96.9 173.2 97.4 C 172.4 97.9 171.6 98.2 170.7 98.2 C 170 98.2 169.5 98 169 97.8 C 168.4 97.5 168 97.1 167.7 96.7 C 167.69 96.72 167.7 102.3 167.7 102.3 L 165.8 102.3 Z M 167.5 92.3 C 167.5 93.7 167.8 94.8 168.4 95.5 C 169 96.2 169.7 96.6 170.6 96.6 C 171.4 96.6 172.2 96.2 172.8 95.5 C 173.4 94.8 173.7 93.6 173.7 92.1 C 173.7 90.6 173.4 89.6 172.8 88.8 C 172.2 88.1 171.5 87.8 170.6 87.8 C 169.8 87.8 169.1 88.1 168.5 88.9 C 167.8 89.7 167.5 90.8 167.5 92.3 Z M 185.8 94.2 C 185.8 94.2 187.8 94.5 187.8 94.5 C 187.5 95.6 186.9 96.6 186.1 97.2 C 185.2 97.8 184.1 98.2 182.8 98.2 C 181.1 98.2 179.8 97.6 178.8 96.6 C 177.8 95.6 177.3 94.2 177.3 92.3 C 177.3 90.4 177.8 88.9 178.8 87.8 C 179.8 86.8 181.1 86.2 182.7 86.2 C 184.2 86.2 185.4 86.8 186.4 87.8 C 187.4 88.8 187.9 90.3 187.9 92.2 C 187.9 92.3 187.9 92.5 187.9 92.7 C 187.9 92.7 179.3 92.7 179.3 92.7 C 179.4 93.9 179.8 94.9 180.4 95.6 C 181 96.2 181.8 96.6 182.8 96.6 C 183.5 96.6 184.1 96.4 184.6 96 C 185.1 95.6 185.5 95 185.8 94.2 Z M 179.5 91.1 C 179.5 91.1 185.8 91.1 185.8 91.1 C 185.7 90.1 185.5 89.4 185.1 88.9 C 184.5 88.2 183.7 87.8 182.7 87.8 C 181.8 87.8 181.1 88.1 180.5 88.7 C 179.9 89.3 179.5 90.1 179.5 91.1 Z M 190.2 97.9 L 190.2 86.5 L 191.9 86.5 C 191.9 86.5 191.95 88.22 191.9 88.2 C 192.4 87.4 192.8 86.9 193.2 86.6 C 193.6 86.4 194 86.2 194.4 86.2 C 195.1 86.2 195.7 86.4 196.4 86.9 C 196.4 86.9 195.7 88.7 195.7 88.7 C 195.3 88.4 194.8 88.2 194.3 88.2 C 193.9 88.2 193.5 88.4 193.2 88.6 C 192.8 88.9 192.6 89.2 192.5 89.7 C 192.2 90.4 192.1 91.1 192.1 91.9 C 192.14 91.93 192.1 97.9 192.1 97.9 L 190.2 97.9 Z M 198 97.9 L 198 88 L 196.3 88 L 196.3 86.5 L 198 86.5 C 198 86.5 198.02 85.28 198 85.3 C 198 84.5 198.1 83.9 198.2 83.6 C 198.4 83.1 198.7 82.7 199.2 82.4 C 199.7 82 200.3 81.9 201.2 81.9 C 201.7 81.9 202.3 82 203 82.1 C 203 82.1 202.7 83.8 202.7 83.8 C 202.3 83.7 201.9 83.7 201.6 83.7 C 201 83.7 200.5 83.8 200.3 84 C 200.1 84.3 199.9 84.8 199.9 85.4 C 199.94 85.44 199.9 86.5 199.9 86.5 L 202.2 86.5 L 202.2 88 L 199.9 88 L 199.9 97.9 L 198 97.9 Z M 202.9 92.2 C 202.9 90.1 203.5 88.5 204.7 87.5 C 205.7 86.7 206.9 86.2 208.3 86.2 C 209.9 86.2 211.1 86.8 212.1 87.8 C 213.1 88.8 213.6 90.2 213.6 92 C 213.6 93.5 213.4 94.7 213 95.5 C 212.5 96.3 211.9 97 211.1 97.5 C 210.2 97.9 209.3 98.2 208.3 98.2 C 206.7 98.2 205.4 97.6 204.4 96.6 C 203.4 95.6 202.9 94.1 202.9 92.2 Z M 204.9 92.2 C 204.9 93.7 205.3 94.8 205.9 95.5 C 206.5 96.2 207.3 96.6 208.3 96.6 C 209.3 96.6 210.1 96.2 210.7 95.5 C 211.3 94.7 211.6 93.6 211.6 92.1 C 211.6 90.7 211.3 89.7 210.7 88.9 C 210 88.2 209.3 87.8 208.3 87.8 C 207.3 87.8 206.5 88.2 205.9 88.9 C 205.3 89.6 204.9 90.7 204.9 92.2 Z M 215.9 97.9 L 215.9 86.5 L 217.6 86.5 C 217.6 86.5 217.62 88.22 217.6 88.2 C 218.1 87.4 218.5 86.9 218.9 86.6 C 219.2 86.4 219.6 86.2 220.1 86.2 C 220.7 86.2 221.4 86.4 222.1 86.9 C 222.1 86.9 221.4 88.7 221.4 88.7 C 220.9 88.4 220.5 88.2 220 88.2 C 219.6 88.2 219.2 88.4 218.9 88.6 C 218.5 88.9 218.3 89.2 218.1 89.7 C 217.9 90.4 217.8 91.1 217.8 91.9 C 217.82 91.93 217.8 97.9 217.8 97.9 L 215.9 97.9 Z M 223.2 97.9 L 223.2 86.5 L 225 86.5 C 225 86.5 224.96 88.1 225 88.1 C 225.3 87.5 225.8 87.1 226.4 86.7 C 227 86.4 227.7 86.2 228.4 86.2 C 229.3 86.2 230 86.4 230.5 86.8 C 231 87.1 231.4 87.6 231.6 88.2 C 232.5 86.9 233.7 86.2 235.2 86.2 C 236.3 86.2 237.2 86.6 237.8 87.2 C 238.4 87.8 238.7 88.8 238.7 90.1 C 238.69 90.07 238.7 97.9 238.7 97.9 L 236.8 97.9 C 236.8 97.9 236.76 90.72 236.8 90.7 C 236.8 89.9 236.7 89.4 236.6 89 C 236.5 88.7 236.2 88.4 235.9 88.2 C 235.6 88 235.2 87.9 234.7 87.9 C 233.9 87.9 233.3 88.2 232.7 88.7 C 232.2 89.2 231.9 90.1 231.9 91.3 C 231.94 91.28 231.9 97.9 231.9 97.9 L 230 97.9 C 230 97.9 230.01 90.49 230 90.5 C 230 89.6 229.9 89 229.5 88.6 C 229.2 88.1 228.7 87.9 228 87.9 C 227.4 87.9 226.9 88.1 226.5 88.3 C 226 88.6 225.7 89 225.5 89.6 C 225.3 90.2 225.2 90.9 225.2 92 C 225.16 91.98 225.2 97.9 225.2 97.9 L 223.2 97.9 Z M 241.6 84.4 L 241.6 82.2 L 243.5 82.2 L 243.5 84.4 L 241.6 84.4 Z M 241.6 97.9 L 241.6 86.5 L 243.5 86.5 L 243.5 97.9 L 241.6 97.9 Z M 246.4 97.9 L 246.4 86.5 L 248.2 86.5 C 248.2 86.5 248.18 88.12 248.2 88.1 C 249 86.9 250.2 86.2 251.8 86.2 C 252.5 86.2 253.1 86.4 253.7 86.6 C 254.3 86.9 254.7 87.2 255 87.6 C 255.3 88 255.5 88.5 255.6 89 C 255.7 89.4 255.7 90 255.7 90.9 C 255.71 90.89 255.7 97.9 255.7 97.9 L 253.8 97.9 C 253.8 97.9 253.78 90.96 253.8 91 C 253.8 90.2 253.7 89.6 253.6 89.2 C 253.4 88.8 253.1 88.5 252.8 88.3 C 252.4 88 251.9 87.9 251.4 87.9 C 250.6 87.9 249.9 88.2 249.3 88.7 C 248.7 89.2 248.4 90.2 248.4 91.7 C 248.38 91.67 248.4 97.9 248.4 97.9 L 246.4 97.9 Z M 258.3 98.8 C 258.3 98.8 260.2 99.1 260.2 99.1 C 260.3 99.7 260.5 100.1 260.9 100.4 C 261.3 100.8 262 100.9 262.8 100.9 C 263.7 100.9 264.4 100.8 264.9 100.4 C 265.4 100 265.7 99.5 265.9 98.9 C 266 98.5 266 97.7 266 96.4 C 265.2 97.4 264.1 97.9 262.9 97.9 C 261.3 97.9 260.1 97.3 259.2 96.2 C 258.4 95.1 257.9 93.7 257.9 92.1 C 257.9 91 258.1 90 258.5 89.1 C 258.9 88.2 259.5 87.5 260.2 87 C 261 86.5 261.9 86.2 262.9 86.2 C 264.2 86.2 265.3 86.8 266.2 87.9 C 266.21 87.87 266.2 86.5 266.2 86.5 L 268 86.5 C 268 86.5 267.99 96.36 268 96.4 C 268 98.1 267.8 99.4 267.4 100.1 C 267.1 100.9 266.5 101.5 265.7 101.9 C 264.9 102.3 264 102.5 262.8 102.5 C 261.5 102.5 260.4 102.2 259.5 101.6 C 258.7 101 258.3 100.1 258.3 98.8 Z M 259.9 92 C 259.9 93.5 260.2 94.6 260.8 95.3 C 261.4 96 262.2 96.3 263.1 96.3 C 263.9 96.3 264.7 96 265.3 95.3 C 265.9 94.6 266.2 93.5 266.2 92.1 C 266.2 90.7 265.9 89.6 265.3 88.9 C 264.6 88.2 263.9 87.8 263 87.8 C 262.2 87.8 261.4 88.2 260.8 88.9 C 260.2 89.6 259.9 90.6 259.9 92 Z M 277 97.9 L 277 82.2 L 278.9 82.2 L 278.9 97.9 L 277 97.9 Z M 289.7 94.2 C 289.7 94.2 291.7 94.5 291.7 94.5 C 291.4 95.6 290.8 96.6 290 97.2 C 289.1 97.8 288 98.2 286.7 98.2 C 285 98.2 283.7 97.6 282.7 96.6 C 281.8 95.6 281.3 94.2 281.3 92.3 C 281.3 90.4 281.8 88.9 282.8 87.8 C 283.7 86.8 285 86.2 286.6 86.2 C 288.1 86.2 289.4 86.8 290.3 87.8 C 291.3 88.8 291.8 90.3 291.8 92.2 C 291.8 92.3 291.8 92.5 291.8 92.7 C 291.8 92.7 283.3 92.7 283.3 92.7 C 283.3 93.9 283.7 94.9 284.3 95.6 C 285 96.2 285.8 96.6 286.7 96.6 C 287.4 96.6 288 96.4 288.5 96 C 289 95.6 289.4 95 289.7 94.2 Z M 283.4 91.1 C 283.4 91.1 289.7 91.1 289.7 91.1 C 289.7 90.1 289.4 89.4 289 88.9 C 288.4 88.2 287.6 87.8 286.6 87.8 C 285.7 87.8 285 88.1 284.4 88.7 C 283.8 89.3 283.4 90.1 283.4 91.1 Z M 302 97.9 C 301.8 97.5 301.7 97 301.6 96.5 C 300.9 97.1 300.2 97.5 299.5 97.8 C 298.9 98 298.2 98.2 297.4 98.2 C 296.1 98.2 295.2 97.9 294.5 97.2 C 293.8 96.6 293.5 95.8 293.5 94.9 C 293.5 94.3 293.6 93.8 293.9 93.4 C 294.1 92.9 294.5 92.5 294.9 92.3 C 295.3 92 295.7 91.8 296.3 91.6 C 296.6 91.5 297.2 91.4 298 91.3 C 299.5 91.1 300.7 90.9 301.4 90.7 C 301.4 90.4 301.4 90.2 301.4 90.2 C 301.4 89.4 301.3 88.8 300.9 88.5 C 300.4 88.1 299.7 87.8 298.7 87.8 C 297.8 87.8 297.1 88 296.7 88.3 C 296.2 88.6 295.9 89.2 295.7 90 C 295.7 90 293.8 89.8 293.8 89.8 C 294 88.9 294.3 88.3 294.7 87.8 C 295.1 87.3 295.6 86.9 296.4 86.6 C 297.1 86.4 298 86.2 299 86.2 C 299.9 86.2 300.7 86.4 301.3 86.6 C 302 86.8 302.4 87.1 302.7 87.4 C 303 87.8 303.2 88.2 303.3 88.8 C 303.4 89.1 303.4 89.7 303.4 90.5 C 303.4 90.5 303.4 93.1 303.4 93.1 C 303.4 94.9 303.4 96.1 303.5 96.5 C 303.6 97 303.8 97.5 304 97.9 C 304 97.9 302 97.9 302 97.9 C 302 97.9 301.98 97.9 302 97.9 Z M 301.4 92.2 C 300.7 92.5 299.7 92.7 298.3 92.9 C 297.5 93 296.9 93.2 296.6 93.3 C 296.3 93.4 296 93.6 295.8 93.9 C 295.6 94.2 295.6 94.5 295.6 94.8 C 295.6 95.4 295.8 95.8 296.1 96.1 C 296.5 96.5 297.1 96.6 297.9 96.6 C 298.6 96.6 299.3 96.5 299.8 96.2 C 300.4 95.8 300.8 95.4 301.1 94.8 C 301.3 94.4 301.4 93.7 301.4 92.9 C 301.4 92.9 301.4 92.2 301.4 92.2 Z M 306.4 97.9 L 306.4 86.5 L 308.1 86.5 C 308.1 86.5 308.1 88.22 308.1 88.2 C 308.5 87.4 309 86.9 309.3 86.6 C 309.7 86.4 310.1 86.2 310.6 86.2 C 311.2 86.2 311.9 86.4 312.6 86.9 C 312.6 86.9 311.9 88.7 311.9 88.7 C 311.4 88.4 311 88.2 310.5 88.2 C 310.1 88.2 309.7 88.4 309.3 88.6 C 309 88.9 308.8 89.2 308.6 89.7 C 308.4 90.4 308.3 91.1 308.3 91.9 C 308.3 91.93 308.3 97.9 308.3 97.9 L 306.4 97.9 Z M 313.7 97.9 L 313.7 86.5 L 315.5 86.5 C 315.5 86.5 315.45 88.12 315.5 88.1 C 316.3 86.9 317.5 86.2 319.1 86.2 C 319.8 86.2 320.4 86.4 321 86.6 C 321.6 86.9 322 87.2 322.3 87.6 C 322.6 88 322.8 88.5 322.9 89 C 322.9 89.4 323 90 323 90.9 C 322.98 90.89 323 97.9 323 97.9 L 321 97.9 C 321 97.9 321.05 90.96 321 91 C 321 90.2 321 89.6 320.8 89.2 C 320.7 88.8 320.4 88.5 320 88.3 C 319.6 88 319.2 87.9 318.7 87.9 C 317.9 87.9 317.1 88.2 316.5 88.7 C 315.9 89.2 315.6 90.2 315.6 91.7 C 315.64 91.67 315.6 97.9 315.6 97.9 L 313.7 97.9 Z M 333.8 94.2 C 333.8 94.2 335.8 94.5 335.8 94.5 C 335.4 95.6 334.9 96.6 334 97.2 C 333.2 97.8 332.1 98.2 330.7 98.2 C 329.1 98.2 327.7 97.6 326.8 96.6 C 325.8 95.6 325.3 94.2 325.3 92.3 C 325.3 90.4 325.8 88.9 326.8 87.8 C 327.8 86.8 329.1 86.2 330.6 86.2 C 332.2 86.2 333.4 86.8 334.4 87.8 C 335.3 88.8 335.8 90.3 335.8 92.2 C 335.8 92.3 335.8 92.5 335.8 92.7 C 335.8 92.7 327.3 92.7 327.3 92.7 C 327.4 93.9 327.7 94.9 328.4 95.6 C 329 96.2 329.8 96.6 330.7 96.6 C 331.5 96.6 332.1 96.4 332.6 96 C 333.1 95.6 333.5 95 333.8 94.2 Z M 327.4 91.1 C 327.4 91.1 333.8 91.1 333.8 91.1 C 333.7 90.1 333.4 89.4 333 88.9 C 332.4 88.2 331.6 87.8 330.7 87.8 C 329.8 87.8 329 88.1 328.4 88.7 C 327.8 89.3 327.5 90.1 327.4 91.1 Z M 338.2 97.9 L 338.2 86.5 L 339.9 86.5 C 339.9 86.5 339.9 88.22 339.9 88.2 C 340.3 87.4 340.8 86.9 341.1 86.6 C 341.5 86.4 341.9 86.2 342.4 86.2 C 343 86.2 343.7 86.4 344.4 86.9 C 344.4 86.9 343.7 88.7 343.7 88.7 C 343.2 88.4 342.7 88.2 342.3 88.2 C 341.9 88.2 341.5 88.4 341.1 88.6 C 340.8 88.9 340.6 89.2 340.4 89.7 C 340.2 90.4 340.1 91.1 340.1 91.9 C 340.09 91.93 340.1 97.9 340.1 97.9 L 338.2 97.9 Z M 344.7 94.5 C 344.7 94.5 346.6 94.2 346.6 94.2 C 346.8 95 347.1 95.6 347.5 96 C 348 96.4 348.7 96.6 349.6 96.6 C 350.5 96.6 351.1 96.4 351.6 96 C 352 95.7 352.2 95.2 352.2 94.8 C 352.2 94.3 352 94 351.7 93.7 C 351.4 93.6 350.7 93.3 349.7 93.1 C 348.3 92.7 347.3 92.4 346.7 92.1 C 346.2 91.9 345.8 91.5 345.5 91.1 C 345.2 90.6 345.1 90.1 345.1 89.5 C 345.1 89 345.2 88.5 345.4 88.1 C 345.6 87.7 346 87.3 346.4 87 C 346.7 86.8 347.1 86.6 347.6 86.5 C 348.1 86.3 348.7 86.2 349.3 86.2 C 350.2 86.2 350.9 86.4 351.6 86.6 C 352.3 86.9 352.8 87.2 353.1 87.7 C 353.4 88.1 353.7 88.7 353.8 89.4 C 353.8 89.4 351.9 89.7 351.9 89.7 C 351.8 89.1 351.6 88.7 351.1 88.3 C 350.7 88 350.1 87.8 349.4 87.8 C 348.5 87.8 347.9 88 347.5 88.3 C 347.1 88.6 346.9 88.9 346.9 89.3 C 346.9 89.5 347 89.8 347.2 90 C 347.3 90.2 347.6 90.4 347.9 90.5 C 348.1 90.6 348.7 90.7 349.6 91 C 351 91.4 351.9 91.6 352.5 91.9 C 353 92.1 353.4 92.5 353.7 92.9 C 354.1 93.3 354.2 93.9 354.2 94.6 C 354.2 95.2 354 95.8 353.6 96.4 C 353.3 96.9 352.7 97.4 352 97.7 C 351.3 98 350.5 98.2 349.6 98.2 C 348.1 98.2 347 97.9 346.2 97.2 C 345.4 96.6 344.9 95.7 344.7 94.5 Z " stroke="none" fill="#000"/>  </g>  <g id="Polygon8692">    <path d="M 66 63 L 61.6 55.4 L 59.8 55.4 L 59.8 63 L 55.9 63 L 55.9 43.5 C 55.9 43.5 63.21 43.46 63.2 43.5 C 64.7 43.5 66 43.7 67.1 44.3 C 68.1 44.8 68.9 45.5 69.5 46.4 C 70 47.3 70.3 48.3 70.3 49.4 C 70.3 50.7 69.9 51.9 69.1 52.9 C 68.4 54 67.3 54.7 65.8 55.1 C 65.81 55.08 70.5 63 70.5 63 L 66 63 Z M 59.8 52.4 C 59.8 52.4 63.07 52.44 63.1 52.4 C 64.1 52.4 64.9 52.2 65.4 51.7 C 66 51.2 66.2 50.4 66.2 49.5 C 66.2 48.6 66 47.9 65.4 47.4 C 64.9 47 64.1 46.7 63.1 46.7 C 63.07 46.7 59.8 46.7 59.8 46.7 L 59.8 52.4 Z M 88.2 54.9 C 88.2 55.5 88.2 56 88.1 56.4 C 88.1 56.4 76.8 56.4 76.8 56.4 C 76.9 57.5 77.3 58.4 78 59.1 C 78.7 59.7 79.5 60 80.5 60 C 82 60 83 59.4 83.6 58.1 C 83.6 58.1 87.8 58.1 87.8 58.1 C 87.4 59.6 86.5 60.8 85.3 61.8 C 84 62.8 82.4 63.3 80.6 63.3 C 79.1 63.3 77.8 62.9 76.6 62.3 C 75.4 61.6 74.5 60.7 73.8 59.4 C 73.1 58.2 72.8 56.8 72.8 55.2 C 72.8 53.6 73.1 52.2 73.8 51 C 74.4 49.8 75.4 48.9 76.5 48.2 C 77.7 47.6 79.1 47.2 80.6 47.2 C 82.1 47.2 83.4 47.6 84.6 48.2 C 85.7 48.8 86.6 49.7 87.3 50.9 C 87.9 52.1 88.2 53.4 88.2 54.9 C 88.2 54.9 88.2 54.9 88.2 54.9 Z M 84.2 53.8 C 84.2 52.8 83.8 52 83.1 51.4 C 82.4 50.8 81.5 50.5 80.5 50.5 C 79.5 50.5 78.7 50.7 78 51.3 C 77.4 51.9 77 52.7 76.8 53.8 C 76.8 53.8 84.2 53.8 84.2 53.8 Z M 90.1 55.2 C 90.1 53.6 90.4 52.2 91.1 51 C 91.7 49.8 92.6 48.9 93.8 48.2 C 94.9 47.6 96.3 47.2 97.8 47.2 C 99.7 47.2 101.3 47.7 102.5 48.7 C 103.8 49.6 104.6 51 105.1 52.7 C 105.1 52.7 100.8 52.7 100.8 52.7 C 100.6 52.1 100.2 51.5 99.7 51.1 C 99.2 50.8 98.5 50.6 97.7 50.6 C 96.6 50.6 95.7 51 95.1 51.8 C 94.4 52.6 94.1 53.8 94.1 55.2 C 94.1 56.7 94.4 57.9 95.1 58.7 C 95.7 59.5 96.6 59.9 97.7 59.9 C 99.3 59.9 100.4 59.2 100.8 57.8 C 100.8 57.8 105.1 57.8 105.1 57.8 C 104.6 59.4 103.8 60.8 102.5 61.8 C 101.2 62.8 99.7 63.3 97.8 63.3 C 96.3 63.3 94.9 62.9 93.8 62.3 C 92.6 61.6 91.7 60.7 91.1 59.5 C 90.4 58.3 90.1 56.8 90.1 55.2 C 90.1 55.2 90.1 55.2 90.1 55.2 Z M 114.8 63.3 C 113.3 63.3 112 62.9 110.8 62.3 C 109.6 61.6 108.7 60.7 108 59.4 C 107.3 58.2 107 56.8 107 55.2 C 107 53.7 107.3 52.3 108 51 C 108.7 49.8 109.7 48.9 110.9 48.2 C 112.1 47.6 113.5 47.2 115 47.2 C 116.4 47.2 117.8 47.6 119 48.2 C 120.2 48.9 121.2 49.8 121.9 51 C 122.6 52.3 122.9 53.7 122.9 55.2 C 122.9 56.8 122.6 58.2 121.9 59.4 C 121.1 60.7 120.2 61.6 118.9 62.3 C 117.7 62.9 116.4 63.3 114.8 63.3 C 114.8 63.3 114.8 63.3 114.8 63.3 Z M 114.8 59.8 C 115.5 59.8 116.2 59.7 116.8 59.3 C 117.5 59 118 58.5 118.3 57.8 C 118.7 57.1 118.9 56.2 118.9 55.2 C 118.9 53.8 118.5 52.6 117.7 51.8 C 117 51 116 50.7 114.9 50.7 C 113.8 50.7 112.8 51 112.1 51.8 C 111.3 52.6 110.9 53.8 110.9 55.2 C 110.9 56.7 111.3 57.9 112.1 58.6 C 112.8 59.4 113.7 59.8 114.8 59.8 C 114.8 59.8 114.8 59.8 114.8 59.8 Z M 145.1 47.3 C 147 47.3 148.5 47.8 149.7 49 C 150.9 50.2 151.4 51.8 151.4 53.9 C 151.43 53.9 151.4 63 151.4 63 L 147.5 63 C 147.5 63 147.51 54.43 147.5 54.4 C 147.5 53.2 147.2 52.3 146.6 51.6 C 146 51 145.1 50.7 144.1 50.7 C 143 50.7 142.2 51 141.5 51.6 C 140.9 52.3 140.6 53.2 140.6 54.4 C 140.6 54.43 140.6 63 140.6 63 L 136.7 63 C 136.7 63 136.68 54.43 136.7 54.4 C 136.7 53.2 136.4 52.3 135.8 51.6 C 135.1 51 134.3 50.7 133.2 50.7 C 132.2 50.7 131.3 51 130.7 51.6 C 130 52.3 129.7 53.2 129.7 54.4 C 129.73 54.43 129.7 63 129.7 63 L 125.8 63 L 125.8 47.5 L 129.7 47.5 C 129.7 47.5 129.73 49.36 129.7 49.4 C 130.2 48.7 130.9 48.2 131.7 47.8 C 132.5 47.5 133.3 47.3 134.3 47.3 C 135.5 47.3 136.6 47.5 137.5 48 C 138.5 48.5 139.2 49.3 139.8 50.2 C 140.3 49.3 141 48.6 142 48.1 C 142.9 47.5 144 47.3 145.1 47.3 C 145.1 47.3 145.1 47.3 145.1 47.3 Z M 174.4 47.3 C 176.3 47.3 177.9 47.8 179 49 C 180.2 50.2 180.8 51.8 180.8 53.9 C 180.78 53.9 180.8 63 180.8 63 L 176.9 63 C 176.9 63 176.86 54.43 176.9 54.4 C 176.9 53.2 176.6 52.3 175.9 51.6 C 175.3 51 174.5 50.7 173.4 50.7 C 172.4 50.7 171.5 51 170.9 51.6 C 170.3 52.3 169.9 53.2 169.9 54.4 C 169.94 54.43 169.9 63 169.9 63 L 166 63 C 166 63 166.02 54.43 166 54.4 C 166 53.2 165.7 52.3 165.1 51.6 C 164.5 51 163.6 50.7 162.6 50.7 C 161.5 50.7 160.6 51 160 51.6 C 159.4 52.3 159.1 53.2 159.1 54.4 C 159.08 54.43 159.1 63 159.1 63 L 155.2 63 L 155.2 47.5 L 159.1 47.5 C 159.1 47.5 159.08 49.36 159.1 49.4 C 159.6 48.7 160.2 48.2 161 47.8 C 161.8 47.5 162.7 47.3 163.6 47.3 C 164.9 47.3 165.9 47.5 166.9 48 C 167.8 48.5 168.6 49.3 169.1 50.2 C 169.6 49.3 170.3 48.6 171.3 48.1 C 172.3 47.5 173.3 47.3 174.4 47.3 C 174.4 47.3 174.4 47.3 174.4 47.3 Z M 198.9 54.9 C 198.9 55.5 198.9 56 198.8 56.4 C 198.8 56.4 187.5 56.4 187.5 56.4 C 187.6 57.5 188 58.4 188.6 59.1 C 189.3 59.7 190.2 60 191.2 60 C 192.6 60 193.7 59.4 194.3 58.1 C 194.3 58.1 198.5 58.1 198.5 58.1 C 198.1 59.6 197.2 60.8 196 61.8 C 194.7 62.8 193.1 63.3 191.3 63.3 C 189.8 63.3 188.4 62.9 187.3 62.3 C 186.1 61.6 185.2 60.7 184.5 59.4 C 183.8 58.2 183.5 56.8 183.5 55.2 C 183.5 53.6 183.8 52.2 184.5 51 C 185.1 49.8 186 48.9 187.2 48.2 C 188.4 47.6 189.7 47.2 191.3 47.2 C 192.8 47.2 194.1 47.6 195.2 48.2 C 196.4 48.8 197.3 49.7 198 50.9 C 198.6 52.1 198.9 53.4 198.9 54.9 C 198.9 54.9 198.9 54.9 198.9 54.9 Z M 194.9 53.8 C 194.8 52.8 194.5 52 193.8 51.4 C 193.1 50.8 192.2 50.5 191.2 50.5 C 190.2 50.5 189.4 50.7 188.7 51.3 C 188.1 51.9 187.6 52.7 187.5 53.8 C 187.5 53.8 194.9 53.8 194.9 53.8 Z M 210.4 47.3 C 212.2 47.3 213.7 47.8 214.9 49 C 216 50.2 216.6 51.8 216.6 53.9 C 216.56 53.9 216.6 63 216.6 63 L 212.6 63 C 212.6 63 212.64 54.43 212.6 54.4 C 212.6 53.2 212.3 52.3 211.7 51.6 C 211.1 50.9 210.3 50.6 209.2 50.6 C 208.1 50.6 207.3 50.9 206.6 51.6 C 206 52.3 205.7 53.2 205.7 54.4 C 205.7 54.43 205.7 63 205.7 63 L 201.8 63 L 201.8 47.5 L 205.7 47.5 C 205.7 47.5 205.7 49.42 205.7 49.4 C 206.2 48.7 206.9 48.2 207.7 47.8 C 208.5 47.5 209.4 47.3 210.4 47.3 C 210.4 47.3 210.4 47.3 210.4 47.3 Z M 219.3 55.2 C 219.3 53.6 219.6 52.2 220.2 51 C 220.8 49.8 221.7 48.9 222.8 48.2 C 223.9 47.6 225.1 47.2 226.4 47.2 C 227.4 47.2 228.4 47.5 229.3 47.9 C 230.2 48.3 230.9 48.9 231.5 49.6 C 231.46 49.64 231.5 42.3 231.5 42.3 L 235.4 42.3 L 235.4 63 L 231.5 63 C 231.5 63 231.46 60.7 231.5 60.7 C 231 61.5 230.3 62.1 229.4 62.6 C 228.5 63 227.5 63.3 226.4 63.3 C 225.1 63.3 223.9 62.9 222.8 62.2 C 221.7 61.6 220.8 60.6 220.2 59.4 C 219.6 58.2 219.3 56.8 219.3 55.2 C 219.3 55.2 219.3 55.2 219.3 55.2 Z M 231.5 55.2 C 231.5 54.3 231.3 53.5 230.9 52.8 C 230.6 52.1 230 51.6 229.4 51.2 C 228.8 50.9 228.1 50.7 227.4 50.7 C 226.6 50.7 226 50.9 225.4 51.2 C 224.7 51.6 224.2 52.1 223.9 52.8 C 223.5 53.4 223.3 54.3 223.3 55.2 C 223.3 56.1 223.5 56.9 223.9 57.6 C 224.2 58.3 224.7 58.9 225.4 59.2 C 226 59.6 226.7 59.8 227.4 59.8 C 228.1 59.8 228.8 59.6 229.4 59.3 C 230 58.9 230.6 58.4 230.9 57.7 C 231.3 57 231.5 56.2 231.5 55.2 C 231.5 55.2 231.5 55.2 231.5 55.2 Z M 238.3 55.2 C 238.3 53.6 238.6 52.2 239.2 51 C 239.8 49.8 240.7 48.9 241.7 48.2 C 242.8 47.6 244 47.2 245.3 47.2 C 246.5 47.2 247.5 47.5 248.4 47.9 C 249.3 48.4 249.9 49 250.5 49.7 C 250.47 49.7 250.5 47.5 250.5 47.5 L 254.4 47.5 L 254.4 63 L 250.5 63 C 250.5 63 250.47 60.73 250.5 60.7 C 250 61.5 249.3 62.1 248.4 62.5 C 247.5 63 246.5 63.3 245.3 63.3 C 244 63.3 242.8 62.9 241.7 62.2 C 240.7 61.6 239.8 60.6 239.2 59.4 C 238.6 58.2 238.3 56.8 238.3 55.2 C 238.3 55.2 238.3 55.2 238.3 55.2 Z M 250.5 55.2 C 250.5 54.3 250.3 53.5 249.9 52.8 C 249.5 52.1 249 51.6 248.4 51.2 C 247.8 50.9 247.1 50.7 246.4 50.7 C 245.6 50.7 245 50.9 244.3 51.2 C 243.7 51.6 243.2 52.1 242.8 52.8 C 242.5 53.4 242.3 54.3 242.3 55.2 C 242.3 56.1 242.5 56.9 242.8 57.6 C 243.2 58.3 243.7 58.9 244.4 59.2 C 245 59.6 245.6 59.8 246.4 59.8 C 247.1 59.8 247.8 59.6 248.4 59.3 C 249 58.9 249.5 58.4 249.9 57.7 C 250.3 57 250.5 56.2 250.5 55.2 C 250.5 55.2 250.5 55.2 250.5 55.2 Z M 262.8 50.7 C 262.8 50.7 262.82 58.21 262.8 58.2 C 262.8 58.7 262.9 59.1 263.2 59.3 C 263.4 59.6 263.9 59.7 264.5 59.7 C 264.47 59.7 266.3 59.7 266.3 59.7 L 266.3 63 C 266.3 63 263.83 63 263.8 63 C 260.5 63 258.9 61.4 258.9 58.2 C 258.87 58.18 258.9 50.7 258.9 50.7 L 257 50.7 L 257 47.5 L 258.9 47.5 L 258.9 43.7 L 262.8 43.7 L 262.8 47.5 L 266.3 47.5 L 266.3 50.7 L 262.8 50.7 Z M 271.1 45.6 C 270.4 45.6 269.8 45.4 269.4 45 C 268.9 44.5 268.7 44 268.7 43.3 C 268.7 42.7 268.9 42.1 269.4 41.7 C 269.8 41.3 270.4 41 271.1 41 C 271.8 41 272.4 41.3 272.8 41.7 C 273.3 42.1 273.5 42.7 273.5 43.3 C 273.5 44 273.3 44.5 272.8 45 C 272.4 45.4 271.8 45.6 271.1 45.6 C 271.1 45.6 271.1 45.6 271.1 45.6 Z M 273 47.5 L 273 63 L 269.1 63 L 269.1 47.5 L 273 47.5 Z M 283.8 63.3 C 282.3 63.3 281 62.9 279.8 62.3 C 278.6 61.6 277.6 60.7 276.9 59.4 C 276.3 58.2 275.9 56.8 275.9 55.2 C 275.9 53.7 276.3 52.3 277 51 C 277.7 49.8 278.6 48.9 279.8 48.2 C 281.1 47.6 282.4 47.2 283.9 47.2 C 285.4 47.2 286.7 47.6 288 48.2 C 289.2 48.9 290.1 49.8 290.8 51 C 291.5 52.3 291.9 53.7 291.9 55.2 C 291.9 56.8 291.5 58.2 290.8 59.4 C 290.1 60.7 289.1 61.6 287.9 62.3 C 286.7 62.9 285.3 63.3 283.8 63.3 C 283.8 63.3 283.8 63.3 283.8 63.3 Z M 283.8 59.8 C 284.5 59.8 285.2 59.7 285.8 59.3 C 286.4 59 286.9 58.5 287.3 57.8 C 287.7 57.1 287.8 56.2 287.8 55.2 C 287.8 53.8 287.5 52.6 286.7 51.8 C 285.9 51 285 50.7 283.8 50.7 C 282.7 50.7 281.8 51 281 51.8 C 280.3 52.6 279.9 53.8 279.9 55.2 C 279.9 56.7 280.3 57.9 281 58.6 C 281.7 59.4 282.7 59.8 283.8 59.8 C 283.8 59.8 283.8 59.8 283.8 59.8 Z M 303.4 47.3 C 305.2 47.3 306.7 47.8 307.8 49 C 309 50.2 309.5 51.8 309.5 53.9 C 309.55 53.9 309.5 63 309.5 63 L 305.6 63 C 305.6 63 305.63 54.43 305.6 54.4 C 305.6 53.2 305.3 52.3 304.7 51.6 C 304.1 50.9 303.2 50.6 302.2 50.6 C 301.1 50.6 300.2 50.9 299.6 51.6 C 299 52.3 298.7 53.2 298.7 54.4 C 298.68 54.43 298.7 63 298.7 63 L 294.8 63 L 294.8 47.5 L 298.7 47.5 C 298.7 47.5 298.68 49.42 298.7 49.4 C 299.2 48.7 299.9 48.2 300.7 47.8 C 301.5 47.5 302.4 47.3 303.4 47.3 C 303.4 47.3 303.4 47.3 303.4 47.3 Z " stroke="none" fill="#e4007e"/>  </g>  <g id="Polygon8691">    <path d="M 139.7 15.9 C 139.7 16.9 139.4 17.9 138.9 18.8 C 138.4 19.8 137.6 20.5 136.6 21.1 C 135.5 21.6 134.2 21.9 132.6 21.9 C 132.6 21.9 129.3 21.9 129.3 21.9 L 129.3 29.4 L 125.4 29.4 L 125.4 9.9 C 125.4 9.9 132.6 9.86 132.6 9.9 C 134.1 9.9 135.4 10.1 136.5 10.6 C 137.5 11.2 138.3 11.9 138.9 12.8 C 139.4 13.7 139.7 14.7 139.7 15.9 C 139.7 15.9 139.7 15.9 139.7 15.9 Z M 132.4 18.7 C 133.5 18.7 134.3 18.5 134.8 18 C 135.4 17.5 135.6 16.8 135.6 15.9 C 135.6 14 134.6 13 132.4 13 C 132.44 13.05 129.3 13 129.3 13 L 129.3 18.7 L 132.4 18.7 C 132.4 18.7 132.44 18.73 132.4 18.7 Z M 146.4 16.3 C 146.9 15.5 147.5 14.8 148.3 14.4 C 149.1 13.9 150.1 13.7 151.1 13.7 C 151.11 13.66 151.1 17.8 151.1 17.8 C 151.1 17.8 150.08 17.78 150.1 17.8 C 148.8 17.8 147.9 18.1 147.3 18.6 C 146.7 19.2 146.4 20.2 146.4 21.7 C 146.35 21.67 146.4 29.4 146.4 29.4 L 142.4 29.4 L 142.4 13.9 L 146.4 13.9 L 146.4 16.3 C 146.4 16.3 146.35 16.3 146.4 16.3 Z M 160.6 29.7 C 159.1 29.7 157.8 29.3 156.6 28.7 C 155.4 28 154.5 27.1 153.8 25.8 C 153.1 24.6 152.8 23.2 152.8 21.6 C 152.8 20.1 153.1 18.7 153.8 17.4 C 154.5 16.2 155.5 15.3 156.7 14.6 C 157.9 14 159.3 13.6 160.7 13.6 C 162.2 13.6 163.6 14 164.8 14.6 C 166 15.3 167 16.2 167.7 17.4 C 168.4 18.7 168.7 20.1 168.7 21.6 C 168.7 23.2 168.4 24.6 167.6 25.8 C 166.9 27.1 166 28 164.7 28.7 C 163.5 29.3 162.1 29.7 160.6 29.7 C 160.6 29.7 160.6 29.7 160.6 29.7 Z M 160.6 26.2 C 161.3 26.2 162 26.1 162.6 25.7 C 163.3 25.4 163.8 24.9 164.1 24.2 C 164.5 23.5 164.7 22.6 164.7 21.6 C 164.7 20.2 164.3 19 163.5 18.2 C 162.8 17.4 161.8 17.1 160.7 17.1 C 159.6 17.1 158.6 17.4 157.9 18.2 C 157.1 19 156.7 20.2 156.7 21.6 C 156.7 23.1 157.1 24.3 157.8 25 C 158.6 25.8 159.5 26.2 160.6 26.2 C 160.6 26.2 160.6 26.2 160.6 26.2 Z M 178.1 25.8 L 182 13.9 L 186.2 13.9 L 180.4 29.4 L 175.7 29.4 L 170 13.9 L 174.2 13.9 L 178.1 25.8 Z M 190.4 12 C 189.7 12 189.1 11.8 188.6 11.4 C 188.2 10.9 188 10.4 188 9.7 C 188 9.1 188.2 8.5 188.6 8.1 C 189.1 7.7 189.7 7.4 190.4 7.4 C 191.1 7.4 191.6 7.7 192.1 8.1 C 192.5 8.5 192.8 9.1 192.8 9.7 C 192.8 10.4 192.5 10.9 192.1 11.4 C 191.6 11.8 191.1 12 190.4 12 C 190.4 12 190.4 12 190.4 12 Z M 192.3 13.9 L 192.3 29.4 L 188.4 29.4 L 188.4 13.9 L 192.3 13.9 Z M 195.2 21.6 C 195.2 20 195.5 18.6 196.1 17.4 C 196.7 16.2 197.6 15.3 198.7 14.6 C 199.7 14 200.9 13.6 202.3 13.6 C 203.3 13.6 204.2 13.9 205.2 14.3 C 206.1 14.7 206.8 15.3 207.3 16 C 207.34 16.04 207.3 8.7 207.3 8.7 L 211.3 8.7 L 211.3 29.4 L 207.3 29.4 C 207.3 29.4 207.34 27.1 207.3 27.1 C 206.9 27.9 206.2 28.5 205.3 29 C 204.4 29.4 203.4 29.7 202.2 29.7 C 200.9 29.7 199.7 29.3 198.7 28.6 C 197.6 28 196.7 27 196.1 25.8 C 195.5 24.6 195.2 23.2 195.2 21.6 C 195.2 21.6 195.2 21.6 195.2 21.6 Z M 207.4 21.6 C 207.4 20.7 207.2 19.9 206.8 19.2 C 206.4 18.5 205.9 18 205.3 17.6 C 204.7 17.3 204 17.1 203.2 17.1 C 202.5 17.1 201.8 17.3 201.2 17.6 C 200.6 18 200.1 18.5 199.7 19.2 C 199.4 19.8 199.2 20.7 199.2 21.6 C 199.2 22.5 199.4 23.3 199.7 24 C 200.1 24.7 200.6 25.3 201.2 25.6 C 201.9 26 202.5 26.2 203.2 26.2 C 204 26.2 204.7 26 205.3 25.7 C 205.9 25.3 206.4 24.8 206.8 24.1 C 207.2 23.4 207.4 22.6 207.4 21.6 C 207.4 21.6 207.4 21.6 207.4 21.6 Z M 229.6 21.3 C 229.6 21.9 229.5 22.4 229.5 22.8 C 229.5 22.8 218.1 22.8 218.1 22.8 C 218.2 23.9 218.6 24.8 219.3 25.5 C 220 26.1 220.8 26.4 221.8 26.4 C 223.3 26.4 224.3 25.8 224.9 24.5 C 224.9 24.5 229.2 24.5 229.2 24.5 C 228.7 26 227.9 27.2 226.6 28.2 C 225.3 29.2 223.8 29.7 221.9 29.7 C 220.4 29.7 219.1 29.3 217.9 28.7 C 216.7 28 215.8 27.1 215.1 25.8 C 214.5 24.6 214.1 23.2 214.1 21.6 C 214.1 20 214.5 18.6 215.1 17.4 C 215.8 16.2 216.7 15.3 217.9 14.6 C 219 14 220.4 13.6 221.9 13.6 C 223.4 13.6 224.7 14 225.9 14.6 C 227.1 15.2 228 16.1 228.6 17.3 C 229.2 18.5 229.6 19.8 229.6 21.3 C 229.6 21.3 229.6 21.3 229.6 21.3 Z M 225.5 20.2 C 225.5 19.2 225.1 18.4 224.4 17.8 C 223.7 17.2 222.8 16.9 221.8 16.9 C 220.8 16.9 220 17.1 219.4 17.7 C 218.7 18.3 218.3 19.1 218.1 20.2 C 218.1 20.2 225.5 20.2 225.5 20.2 Z M 236.3 16.3 C 236.8 15.5 237.5 14.8 238.3 14.4 C 239.1 13.9 240.1 13.7 241.1 13.7 C 241.1 13.66 241.1 17.8 241.1 17.8 C 241.1 17.8 240.07 17.78 240.1 17.8 C 238.8 17.8 237.9 18.1 237.3 18.6 C 236.7 19.2 236.3 20.2 236.3 21.7 C 236.34 21.67 236.3 29.4 236.3 29.4 L 232.4 29.4 L 232.4 13.9 L 236.3 13.9 L 236.3 16.3 C 236.3 16.3 236.34 16.3 236.3 16.3 Z " stroke="none" fill="#e4007e"/>  </g></svg>