<?xml version="1.0" standalone="no"?><!DOCTYPE svg PUBLIC "-//W3C//DTD SVG 1.1//EN" "http://www.w3.org/Graphics/SVG/1.1/DTD/svg11.dtd"><svg xmlns="http://www.w3.org/2000/svg" version="1.1" width="364px" height="139.6px" viewBox="0 -2 364 139.6" style="top:-2px">  <desc>Low Code AI Platforms Supports lightweight AI solution development.</desc>  <defs/>  <g id="Polygon8048">    <path d="M 124.8 124.3 C 124.8 124.3 124.76 122.86 124.8 122.9 C 124 124 123 124.6 121.6 124.6 C 120.7 124.6 119.8 124.3 119.1 123.8 C 118.3 123.3 117.7 122.6 117.3 121.7 C 116.9 120.8 116.7 119.8 116.7 118.6 C 116.7 117.5 116.8 116.4 117.2 115.5 C 117.6 114.6 118.2 113.9 118.9 113.4 C 119.7 112.9 120.5 112.6 121.5 112.6 C 122.2 112.6 122.8 112.8 123.3 113.1 C 123.9 113.4 124.3 113.7 124.6 114.2 C 124.63 114.21 124.6 108.6 124.6 108.6 L 126.6 108.6 L 126.6 124.3 L 124.8 124.3 Z M 118.6 118.6 C 118.6 120.1 119 121.2 119.6 121.9 C 120.2 122.6 120.9 123 121.8 123 C 122.6 123 123.3 122.6 123.9 121.9 C 124.5 121.2 124.8 120.2 124.8 118.8 C 124.8 117.2 124.5 116.1 123.9 115.3 C 123.3 114.6 122.5 114.2 121.7 114.2 C 120.8 114.2 120.1 114.6 119.5 115.3 C 118.9 116 118.6 117.1 118.6 118.6 Z M 137.4 120.6 C 137.4 120.6 139.4 120.9 139.4 120.9 C 139.1 122 138.5 123 137.6 123.6 C 136.8 124.2 135.7 124.6 134.4 124.6 C 132.7 124.6 131.4 124 130.4 123 C 129.4 122 128.9 120.6 128.9 118.7 C 128.9 116.8 129.4 115.3 130.4 114.2 C 131.4 113.2 132.7 112.6 134.3 112.6 C 135.8 112.6 137 113.2 138 114.2 C 139 115.2 139.5 116.7 139.5 118.6 C 139.5 118.7 139.5 118.9 139.5 119.1 C 139.5 119.1 130.9 119.1 130.9 119.1 C 131 120.3 131.4 121.3 132 122 C 132.6 122.6 133.4 123 134.4 123 C 135.1 123 135.7 122.8 136.2 122.4 C 136.7 122 137.1 121.4 137.4 120.6 Z M 131.1 117.5 C 131.1 117.5 137.4 117.5 137.4 117.5 C 137.3 116.5 137.1 115.8 136.7 115.3 C 136.1 114.6 135.3 114.2 134.3 114.2 C 133.4 114.2 132.7 114.5 132.1 115.1 C 131.5 115.7 131.1 116.5 131.1 117.5 Z M 145 124.3 L 140.7 112.9 L 142.7 112.9 C 142.7 112.9 145.15 119.73 145.1 119.7 C 145.4 120.5 145.7 121.2 145.9 122 C 146.1 121.4 146.3 120.7 146.6 119.9 C 146.6 119.86 149.1 112.9 149.1 112.9 L 151.1 112.9 L 146.8 124.3 L 145 124.3 Z M 160.6 120.6 C 160.6 120.6 162.6 120.9 162.6 120.9 C 162.3 122 161.7 123 160.9 123.6 C 160 124.2 158.9 124.6 157.6 124.6 C 156 124.6 154.6 124 153.7 123 C 152.7 122 152.2 120.6 152.2 118.7 C 152.2 116.8 152.7 115.3 153.7 114.2 C 154.7 113.2 155.9 112.6 157.5 112.6 C 159 112.6 160.3 113.2 161.3 114.2 C 162.2 115.2 162.7 116.7 162.7 118.6 C 162.7 118.7 162.7 118.9 162.7 119.1 C 162.7 119.1 154.2 119.1 154.2 119.1 C 154.3 120.3 154.6 121.3 155.2 122 C 155.9 122.6 156.7 123 157.6 123 C 158.3 123 158.9 122.8 159.4 122.4 C 159.9 122 160.3 121.4 160.6 120.6 Z M 154.3 117.5 C 154.3 117.5 160.7 117.5 160.7 117.5 C 160.6 116.5 160.3 115.8 159.9 115.3 C 159.3 114.6 158.5 114.2 157.5 114.2 C 156.6 114.2 155.9 114.5 155.3 115.1 C 154.7 115.7 154.4 116.5 154.3 117.5 Z M 165 124.3 L 165 108.6 L 167 108.6 L 167 124.3 L 165 124.3 Z M 169.2 118.6 C 169.2 116.5 169.8 114.9 171 113.9 C 172 113.1 173.2 112.6 174.6 112.6 C 176.1 112.6 177.4 113.2 178.4 114.2 C 179.4 115.2 179.9 116.6 179.9 118.4 C 179.9 119.9 179.7 121.1 179.3 121.9 C 178.8 122.7 178.2 123.4 177.3 123.9 C 176.5 124.3 175.6 124.6 174.6 124.6 C 173 124.6 171.7 124 170.7 123 C 169.7 122 169.2 120.5 169.2 118.6 Z M 171.2 118.6 C 171.2 120.1 171.5 121.2 172.2 121.9 C 172.8 122.6 173.6 123 174.6 123 C 175.5 123 176.3 122.6 177 121.9 C 177.6 121.1 177.9 120 177.9 118.5 C 177.9 117.1 177.6 116.1 177 115.3 C 176.3 114.6 175.5 114.2 174.6 114.2 C 173.6 114.2 172.8 114.6 172.2 115.3 C 171.5 116 171.2 117.1 171.2 118.6 Z M 182.2 128.7 L 182.2 112.9 L 183.9 112.9 C 183.9 112.9 183.95 114.38 183.9 114.4 C 184.4 113.8 184.8 113.4 185.4 113.1 C 185.9 112.8 186.5 112.6 187.3 112.6 C 188.2 112.6 189.1 112.9 189.8 113.4 C 190.6 113.9 191.1 114.6 191.5 115.5 C 191.9 116.4 192.1 117.4 192.1 118.5 C 192.1 119.7 191.9 120.7 191.5 121.7 C 191 122.6 190.4 123.3 189.6 123.8 C 188.8 124.3 188 124.6 187.1 124.6 C 186.5 124.6 185.9 124.4 185.4 124.2 C 184.9 123.9 184.4 123.5 184.1 123.1 C 184.12 123.12 184.1 128.7 184.1 128.7 L 182.2 128.7 Z M 183.9 118.7 C 183.9 120.1 184.2 121.2 184.8 121.9 C 185.4 122.6 186.1 123 187 123 C 187.8 123 188.6 122.6 189.2 121.9 C 189.8 121.2 190.1 120 190.1 118.5 C 190.1 117 189.8 116 189.2 115.2 C 188.6 114.5 187.9 114.2 187.1 114.2 C 186.3 114.2 185.5 114.5 184.9 115.3 C 184.3 116.1 183.9 117.2 183.9 118.7 Z M 194.4 124.3 L 194.4 112.9 L 196.2 112.9 C 196.2 112.9 196.15 114.5 196.2 114.5 C 196.5 113.9 197 113.5 197.6 113.1 C 198.2 112.8 198.9 112.6 199.6 112.6 C 200.5 112.6 201.1 112.8 201.7 113.2 C 202.2 113.5 202.6 114 202.8 114.6 C 203.7 113.3 204.9 112.6 206.4 112.6 C 207.5 112.6 208.4 113 209 113.6 C 209.6 114.2 209.9 115.2 209.9 116.5 C 209.88 116.47 209.9 124.3 209.9 124.3 L 208 124.3 C 208 124.3 207.96 117.12 208 117.1 C 208 116.3 207.9 115.8 207.8 115.4 C 207.6 115.1 207.4 114.8 207.1 114.6 C 206.8 114.4 206.4 114.3 205.9 114.3 C 205.1 114.3 204.5 114.6 203.9 115.1 C 203.4 115.6 203.1 116.5 203.1 117.7 C 203.13 117.68 203.1 124.3 203.1 124.3 L 201.2 124.3 C 201.2 124.3 201.2 116.89 201.2 116.9 C 201.2 116 201 115.4 200.7 115 C 200.4 114.5 199.9 114.3 199.2 114.3 C 198.6 114.3 198.1 114.5 197.7 114.7 C 197.2 115 196.9 115.4 196.7 116 C 196.5 116.6 196.4 117.3 196.4 118.4 C 196.36 118.38 196.4 124.3 196.4 124.3 L 194.4 124.3 Z M 220.6 120.6 C 220.6 120.6 222.6 120.9 222.6 120.9 C 222.2 122 221.7 123 220.8 123.6 C 220 124.2 218.9 124.6 217.5 124.6 C 215.9 124.6 214.5 124 213.6 123 C 212.6 122 212.1 120.6 212.1 118.7 C 212.1 116.8 212.6 115.3 213.6 114.2 C 214.6 113.2 215.9 112.6 217.4 112.6 C 219 112.6 220.2 113.2 221.2 114.2 C 222.1 115.2 222.6 116.7 222.6 118.6 C 222.6 118.7 222.6 118.9 222.6 119.1 C 222.6 119.1 214.1 119.1 214.1 119.1 C 214.2 120.3 214.5 121.3 215.2 122 C 215.8 122.6 216.6 123 217.6 123 C 218.3 123 218.9 122.8 219.4 122.4 C 219.9 122 220.3 121.4 220.6 120.6 Z M 214.2 117.5 C 214.2 117.5 220.6 117.5 220.6 117.5 C 220.5 116.5 220.3 115.8 219.8 115.3 C 219.2 114.6 218.4 114.2 217.5 114.2 C 216.6 114.2 215.8 114.5 215.2 115.1 C 214.6 115.7 214.3 116.5 214.2 117.5 Z M 225 124.3 L 225 112.9 L 226.7 112.9 C 226.7 112.9 226.72 114.52 226.7 114.5 C 227.6 113.3 228.8 112.6 230.4 112.6 C 231 112.6 231.7 112.8 232.3 113 C 232.8 113.3 233.3 113.6 233.5 114 C 233.8 114.4 234 114.9 234.1 115.4 C 234.2 115.8 234.3 116.4 234.3 117.3 C 234.25 117.29 234.3 124.3 234.3 124.3 L 232.3 124.3 C 232.3 124.3 232.32 117.36 232.3 117.4 C 232.3 116.6 232.2 116 232.1 115.6 C 231.9 115.2 231.7 114.9 231.3 114.7 C 230.9 114.4 230.5 114.3 229.9 114.3 C 229.1 114.3 228.4 114.6 227.8 115.1 C 227.2 115.6 226.9 116.6 226.9 118.1 C 226.92 118.07 226.9 124.3 226.9 124.3 L 225 124.3 Z M 240.6 122.6 C 240.8 122.6 241.1 122.6 241.4 122.6 C 241.4 122.6 241.7 124.3 241.7 124.3 C 241.2 124.4 240.7 124.5 240.3 124.5 C 239.6 124.5 239 124.3 238.6 124.1 C 238.2 123.9 238 123.6 237.8 123.2 C 237.7 122.9 237.6 122.1 237.6 121 C 237.57 120.96 237.6 114.4 237.6 114.4 L 236.2 114.4 L 236.2 112.9 L 237.6 112.9 L 237.6 110.1 L 239.5 108.9 L 239.5 112.9 L 241.4 112.9 L 241.4 114.4 L 239.5 114.4 C 239.5 114.4 239.5 121.07 239.5 121.1 C 239.5 121.6 239.5 122 239.6 122.1 C 239.7 122.3 239.8 122.4 239.9 122.5 C 240.1 122.6 240.3 122.6 240.6 122.6 C 240.6 122.6 240.6 122.6 240.6 122.6 Z M 243.9 124.3 L 243.9 122.1 L 246.1 122.1 L 246.1 124.3 L 243.9 124.3 Z " stroke="none" fill="#000"/>  </g>  <g id="Polygon8047">    <path d="M 30.1 92.8 C 30.1 92.8 32 92.7 32 92.7 C 32.1 93.5 32.3 94.1 32.7 94.6 C 33 95.1 33.6 95.5 34.3 95.8 C 35 96.1 35.8 96.3 36.7 96.3 C 37.5 96.3 38.2 96.2 38.8 95.9 C 39.4 95.7 39.9 95.4 40.1 95 C 40.4 94.6 40.6 94.1 40.6 93.6 C 40.6 93.1 40.5 92.7 40.2 92.3 C 39.9 92 39.4 91.7 38.7 91.4 C 38.3 91.2 37.4 91 35.9 90.6 C 34.5 90.3 33.5 90 32.9 89.7 C 32.2 89.3 31.6 88.8 31.2 88.2 C 30.9 87.6 30.7 87 30.7 86.2 C 30.7 85.4 30.9 84.7 31.3 84 C 31.8 83.3 32.5 82.8 33.3 82.4 C 34.2 82.1 35.2 81.9 36.2 81.9 C 37.4 81.9 38.4 82.1 39.3 82.5 C 40.2 82.8 40.9 83.4 41.4 84.1 C 41.8 84.8 42.1 85.7 42.1 86.6 C 42.1 86.6 40.1 86.7 40.1 86.7 C 40 85.7 39.7 85 39 84.5 C 38.4 84 37.5 83.7 36.3 83.7 C 35 83.7 34.1 84 33.5 84.4 C 33 84.9 32.7 85.4 32.7 86.1 C 32.7 86.7 32.9 87.1 33.3 87.5 C 33.7 87.8 34.7 88.2 36.4 88.6 C 38.1 89 39.3 89.3 39.9 89.6 C 40.8 90 41.5 90.6 41.9 91.2 C 42.4 91.9 42.6 92.6 42.6 93.5 C 42.6 94.3 42.4 95.1 41.9 95.8 C 41.4 96.6 40.7 97.1 39.8 97.6 C 38.9 98 37.9 98.2 36.8 98.2 C 35.4 98.2 34.2 98 33.2 97.5 C 32.2 97.1 31.5 96.5 30.9 95.7 C 30.4 94.8 30.1 93.9 30.1 92.8 Z M 52.7 97.9 C 52.7 97.9 52.68 96.23 52.7 96.2 C 51.8 97.5 50.6 98.2 49.1 98.2 C 48.4 98.2 47.8 98 47.2 97.8 C 46.6 97.5 46.2 97.2 45.9 96.8 C 45.6 96.4 45.4 95.9 45.3 95.4 C 45.2 95 45.2 94.4 45.2 93.6 C 45.16 93.56 45.2 86.5 45.2 86.5 L 47.1 86.5 C 47.1 86.5 47.09 92.82 47.1 92.8 C 47.1 93.8 47.1 94.5 47.2 94.9 C 47.3 95.4 47.6 95.8 48 96.1 C 48.4 96.4 48.9 96.5 49.4 96.5 C 50 96.5 50.6 96.3 51.1 96.1 C 51.6 95.8 51.9 95.3 52.2 94.8 C 52.4 94.3 52.5 93.6 52.5 92.6 C 52.48 92.61 52.5 86.5 52.5 86.5 L 54.4 86.5 L 54.4 97.9 L 52.7 97.9 Z M 57.4 102.3 L 57.4 86.5 L 59.2 86.5 C 59.2 86.5 59.2 87.98 59.2 88 C 59.6 87.4 60.1 87 60.6 86.7 C 61.1 86.4 61.8 86.2 62.5 86.2 C 63.5 86.2 64.3 86.5 65.1 87 C 65.8 87.5 66.4 88.2 66.8 89.1 C 67.2 90 67.3 91 67.3 92.1 C 67.3 93.3 67.1 94.3 66.7 95.3 C 66.3 96.2 65.7 96.9 64.9 97.4 C 64.1 97.9 63.2 98.2 62.4 98.2 C 61.7 98.2 61.1 98 60.6 97.8 C 60.1 97.5 59.7 97.1 59.4 96.7 C 59.37 96.72 59.4 102.3 59.4 102.3 L 57.4 102.3 Z M 59.2 92.3 C 59.2 93.7 59.5 94.8 60.1 95.5 C 60.7 96.2 61.4 96.6 62.2 96.6 C 63.1 96.6 63.8 96.2 64.4 95.5 C 65.1 94.8 65.4 93.6 65.4 92.1 C 65.4 90.6 65.1 89.6 64.5 88.8 C 63.9 88.1 63.2 87.8 62.3 87.8 C 61.5 87.8 60.8 88.1 60.1 88.9 C 59.5 89.7 59.2 90.8 59.2 92.3 Z M 69.7 102.3 L 69.7 86.5 L 71.4 86.5 C 71.4 86.5 71.44 87.98 71.4 88 C 71.9 87.4 72.3 87 72.8 86.7 C 73.4 86.4 74 86.2 74.7 86.2 C 75.7 86.2 76.6 86.5 77.3 87 C 78.1 87.5 78.6 88.2 79 89.1 C 79.4 90 79.6 91 79.6 92.1 C 79.6 93.3 79.4 94.3 78.9 95.3 C 78.5 96.2 77.9 96.9 77.1 97.4 C 76.3 97.9 75.5 98.2 74.6 98.2 C 74 98.2 73.4 98 72.9 97.8 C 72.4 97.5 71.9 97.1 71.6 96.7 C 71.61 96.72 71.6 102.3 71.6 102.3 L 69.7 102.3 Z M 71.4 92.3 C 71.4 93.7 71.7 94.8 72.3 95.5 C 72.9 96.2 73.6 96.6 74.5 96.6 C 75.3 96.6 76.1 96.2 76.7 95.5 C 77.3 94.8 77.6 93.6 77.6 92.1 C 77.6 90.6 77.3 89.6 76.7 88.8 C 76.1 88.1 75.4 87.8 74.6 87.8 C 73.7 87.8 73 88.1 72.4 88.9 C 71.7 89.7 71.4 90.8 71.4 92.3 Z M 81.2 92.2 C 81.2 90.1 81.8 88.5 83 87.5 C 83.9 86.7 85.1 86.2 86.5 86.2 C 88.1 86.2 89.4 86.8 90.4 87.8 C 91.4 88.8 91.9 90.2 91.9 92 C 91.9 93.5 91.7 94.7 91.2 95.5 C 90.8 96.3 90.1 97 89.3 97.5 C 88.5 97.9 87.5 98.2 86.5 98.2 C 84.9 98.2 83.7 97.6 82.7 96.6 C 81.7 95.6 81.2 94.1 81.2 92.2 Z M 83.2 92.2 C 83.2 93.7 83.5 94.8 84.1 95.5 C 84.8 96.2 85.6 96.6 86.5 96.6 C 87.5 96.6 88.3 96.2 88.9 95.5 C 89.6 94.7 89.9 93.6 89.9 92.1 C 89.9 90.7 89.6 89.7 88.9 88.9 C 88.3 88.2 87.5 87.8 86.5 87.8 C 85.6 87.8 84.8 88.2 84.1 88.9 C 83.5 89.6 83.2 90.7 83.2 92.2 Z M 94.1 97.9 L 94.1 86.5 L 95.9 86.5 C 95.9 86.5 95.86 88.22 95.9 88.2 C 96.3 87.4 96.7 86.9 97.1 86.6 C 97.5 86.4 97.9 86.2 98.3 86.2 C 99 86.2 99.6 86.4 100.3 86.9 C 100.3 86.9 99.7 88.7 99.7 88.7 C 99.2 88.4 98.7 88.2 98.2 88.2 C 97.8 88.2 97.4 88.4 97.1 88.6 C 96.8 88.9 96.5 89.2 96.4 89.7 C 96.2 90.4 96.1 91.1 96.1 91.9 C 96.06 91.93 96.1 97.9 96.1 97.9 L 94.1 97.9 Z M 104.8 96.2 C 105.1 96.2 105.3 96.2 105.7 96.2 C 105.7 96.2 106 97.9 106 97.9 C 105.4 98 104.9 98.1 104.5 98.1 C 103.8 98.1 103.3 97.9 102.9 97.7 C 102.5 97.5 102.2 97.2 102.1 96.8 C 101.9 96.5 101.8 95.7 101.8 94.6 C 101.82 94.56 101.8 88 101.8 88 L 100.4 88 L 100.4 86.5 L 101.8 86.5 L 101.8 83.7 L 103.7 82.5 L 103.7 86.5 L 105.7 86.5 L 105.7 88 L 103.7 88 C 103.7 88 103.75 94.67 103.7 94.7 C 103.7 95.2 103.8 95.6 103.8 95.7 C 103.9 95.9 104 96 104.2 96.1 C 104.3 96.2 104.6 96.2 104.8 96.2 C 104.8 96.2 104.8 96.2 104.8 96.2 Z M 106.8 94.5 C 106.8 94.5 108.7 94.2 108.7 94.2 C 108.8 95 109.1 95.6 109.6 96 C 110.1 96.4 110.8 96.6 111.7 96.6 C 112.6 96.6 113.2 96.4 113.7 96 C 114.1 95.7 114.3 95.2 114.3 94.8 C 114.3 94.3 114.1 94 113.7 93.7 C 113.5 93.6 112.8 93.3 111.8 93.1 C 110.3 92.7 109.3 92.4 108.8 92.1 C 108.3 91.9 107.8 91.5 107.6 91.1 C 107.3 90.6 107.1 90.1 107.1 89.5 C 107.1 89 107.2 88.5 107.5 88.1 C 107.7 87.7 108 87.3 108.4 87 C 108.7 86.8 109.1 86.6 109.7 86.5 C 110.2 86.3 110.7 86.2 111.3 86.2 C 112.2 86.2 113 86.4 113.7 86.6 C 114.4 86.9 114.9 87.2 115.2 87.7 C 115.5 88.1 115.7 88.7 115.9 89.4 C 115.9 89.4 114 89.7 114 89.7 C 113.9 89.1 113.6 88.7 113.2 88.3 C 112.8 88 112.2 87.8 111.5 87.8 C 110.6 87.8 109.9 88 109.6 88.3 C 109.2 88.6 109 88.9 109 89.3 C 109 89.5 109.1 89.8 109.2 90 C 109.4 90.2 109.6 90.4 110 90.5 C 110.2 90.6 110.7 90.7 111.7 91 C 113.1 91.4 114 91.6 114.5 91.9 C 115.1 92.1 115.5 92.5 115.8 92.9 C 116.1 93.3 116.3 93.9 116.3 94.6 C 116.3 95.2 116.1 95.8 115.7 96.4 C 115.3 96.9 114.8 97.4 114.1 97.7 C 113.4 98 112.6 98.2 111.7 98.2 C 110.2 98.2 109.1 97.9 108.3 97.2 C 107.5 96.6 107 95.7 106.8 94.5 Z M 124.7 97.9 L 124.7 82.2 L 126.6 82.2 L 126.6 97.9 L 124.7 97.9 Z M 129.6 84.4 L 129.6 82.2 L 131.5 82.2 L 131.5 84.4 L 129.6 84.4 Z M 129.6 97.9 L 129.6 86.5 L 131.5 86.5 L 131.5 97.9 L 129.6 97.9 Z M 134.1 98.8 C 134.1 98.8 136 99.1 136 99.1 C 136.1 99.7 136.3 100.1 136.7 100.4 C 137.1 100.8 137.8 100.9 138.6 100.9 C 139.5 100.9 140.2 100.8 140.7 100.4 C 141.2 100 141.5 99.5 141.7 98.9 C 141.8 98.5 141.8 97.7 141.8 96.4 C 141 97.4 139.9 97.9 138.7 97.9 C 137.1 97.9 135.9 97.3 135 96.2 C 134.2 95.1 133.7 93.7 133.7 92.1 C 133.7 91 133.9 90 134.3 89.1 C 134.7 88.2 135.3 87.5 136 87 C 136.8 86.5 137.7 86.2 138.7 86.2 C 140 86.2 141.1 86.8 142 87.9 C 142 87.87 142 86.5 142 86.5 L 143.8 86.5 C 143.8 86.5 143.78 96.36 143.8 96.4 C 143.8 98.1 143.6 99.4 143.2 100.1 C 142.9 100.9 142.3 101.5 141.5 101.9 C 140.7 102.3 139.8 102.5 138.6 102.5 C 137.3 102.5 136.2 102.2 135.3 101.6 C 134.5 101 134.1 100.1 134.1 98.8 Z M 135.7 92 C 135.7 93.5 136 94.6 136.6 95.3 C 137.2 96 137.9 96.3 138.8 96.3 C 139.7 96.3 140.5 96 141.1 95.3 C 141.7 94.6 142 93.5 142 92.1 C 142 90.7 141.7 89.6 141 88.9 C 140.4 88.2 139.7 87.8 138.8 87.8 C 138 87.8 137.2 88.2 136.6 88.9 C 136 89.6 135.7 90.6 135.7 92 Z M 146.7 97.9 L 146.7 82.2 L 148.6 82.2 C 148.6 82.2 148.64 87.81 148.6 87.8 C 149.5 86.8 150.7 86.2 152.1 86.2 C 152.9 86.2 153.6 86.4 154.3 86.7 C 154.9 87.1 155.3 87.5 155.6 88.1 C 155.9 88.7 156 89.6 156 90.7 C 156 90.67 156 97.9 156 97.9 L 154.1 97.9 C 154.1 97.9 154.06 90.67 154.1 90.7 C 154.1 89.7 153.9 89 153.4 88.6 C 153 88.1 152.4 87.9 151.7 87.9 C 151.1 87.9 150.5 88.1 150 88.3 C 149.5 88.6 149.2 89 149 89.6 C 148.7 90.1 148.6 90.8 148.6 91.7 C 148.64 91.66 148.6 97.9 148.6 97.9 L 146.7 97.9 Z M 162.3 96.2 C 162.5 96.2 162.8 96.2 163.2 96.2 C 163.2 96.2 163.4 97.9 163.4 97.9 C 162.9 98 162.4 98.1 162 98.1 C 161.3 98.1 160.7 97.9 160.3 97.7 C 160 97.5 159.7 97.2 159.5 96.8 C 159.4 96.5 159.3 95.7 159.3 94.6 C 159.3 94.56 159.3 88 159.3 88 L 157.9 88 L 157.9 86.5 L 159.3 86.5 L 159.3 83.7 L 161.2 82.5 L 161.2 86.5 L 163.2 86.5 L 163.2 88 L 161.2 88 C 161.2 88 161.22 94.67 161.2 94.7 C 161.2 95.2 161.3 95.6 161.3 95.7 C 161.4 95.9 161.5 96 161.7 96.1 C 161.8 96.2 162 96.2 162.3 96.2 C 162.3 96.2 162.3 96.2 162.3 96.2 Z M 167.2 97.9 L 163.7 86.5 L 165.7 86.5 L 167.5 93.1 C 167.5 93.1 168.16 95.53 168.2 95.5 C 168.2 95.4 168.4 94.6 168.7 93.2 C 168.75 93.18 170.6 86.5 170.6 86.5 L 172.6 86.5 L 174.3 93.1 L 174.8 95.3 L 175.5 93.1 L 177.4 86.5 L 179.3 86.5 L 175.8 97.9 L 173.7 97.9 L 171.9 91.1 L 171.5 89.1 L 169.2 97.9 L 167.2 97.9 Z M 188.8 94.2 C 188.8 94.2 190.7 94.5 190.7 94.5 C 190.4 95.6 189.8 96.6 189 97.2 C 188.1 97.8 187.1 98.2 185.7 98.2 C 184.1 98.2 182.7 97.6 181.8 96.6 C 180.8 95.6 180.3 94.2 180.3 92.3 C 180.3 90.4 180.8 88.9 181.8 87.8 C 182.8 86.8 184 86.2 185.6 86.2 C 187.1 86.2 188.4 86.8 189.4 87.8 C 190.3 88.8 190.8 90.3 190.8 92.2 C 190.8 92.3 190.8 92.5 190.8 92.7 C 190.8 92.7 182.3 92.7 182.3 92.7 C 182.4 93.9 182.7 94.9 183.4 95.6 C 184 96.2 184.8 96.6 185.7 96.6 C 186.5 96.6 187.1 96.4 187.6 96 C 188.1 95.6 188.5 95 188.8 94.2 Z M 182.4 91.1 C 182.4 91.1 188.8 91.1 188.8 91.1 C 188.7 90.1 188.4 89.4 188 88.9 C 187.4 88.2 186.6 87.8 185.6 87.8 C 184.8 87.8 184 88.1 183.4 88.7 C 182.8 89.3 182.5 90.1 182.4 91.1 Z M 193.2 84.4 L 193.2 82.2 L 195.1 82.2 L 195.1 84.4 L 193.2 84.4 Z M 193.2 97.9 L 193.2 86.5 L 195.1 86.5 L 195.1 97.9 L 193.2 97.9 Z M 197.7 98.8 C 197.7 98.8 199.6 99.1 199.6 99.1 C 199.7 99.7 199.9 100.1 200.2 100.4 C 200.7 100.8 201.4 100.9 202.2 100.9 C 203.1 100.9 203.8 100.8 204.3 100.4 C 204.8 100 205.1 99.5 205.3 98.9 C 205.4 98.5 205.4 97.7 205.4 96.4 C 204.6 97.4 203.5 97.9 202.3 97.9 C 200.7 97.9 199.5 97.3 198.6 96.2 C 197.8 95.1 197.3 93.7 197.3 92.1 C 197.3 91 197.5 90 197.9 89.1 C 198.3 88.2 198.9 87.5 199.6 87 C 200.4 86.5 201.3 86.2 202.3 86.2 C 203.6 86.2 204.7 86.8 205.6 87.9 C 205.59 87.87 205.6 86.5 205.6 86.5 L 207.4 86.5 C 207.4 86.5 207.38 96.36 207.4 96.4 C 207.4 98.1 207.2 99.4 206.8 100.1 C 206.5 100.9 205.9 101.5 205.1 101.9 C 204.3 102.3 203.4 102.5 202.2 102.5 C 200.9 102.5 199.8 102.2 198.9 101.6 C 198.1 101 197.7 100.1 197.7 98.8 Z M 199.3 92 C 199.3 93.5 199.6 94.6 200.2 95.3 C 200.8 96 201.5 96.3 202.4 96.3 C 203.3 96.3 204.1 96 204.7 95.3 C 205.3 94.6 205.6 93.5 205.6 92.1 C 205.6 90.7 205.3 89.6 204.6 88.9 C 204 88.2 203.3 87.8 202.4 87.8 C 201.5 87.8 200.8 88.2 200.2 88.9 C 199.6 89.6 199.3 90.6 199.3 92 Z M 210.3 97.9 L 210.3 82.2 L 212.2 82.2 C 212.2 82.2 212.23 87.81 212.2 87.8 C 213.1 86.8 214.3 86.2 215.6 86.2 C 216.5 86.2 217.2 86.4 217.9 86.7 C 218.5 87.1 218.9 87.5 219.2 88.1 C 219.5 88.7 219.6 89.6 219.6 90.7 C 219.59 90.67 219.6 97.9 219.6 97.9 L 217.7 97.9 C 217.7 97.9 217.66 90.67 217.7 90.7 C 217.7 89.7 217.4 89 217 88.6 C 216.6 88.1 216 87.9 215.3 87.9 C 214.7 87.9 214.1 88.1 213.6 88.3 C 213.1 88.6 212.8 89 212.6 89.6 C 212.3 90.1 212.2 90.8 212.2 91.7 C 212.23 91.66 212.2 97.9 212.2 97.9 L 210.3 97.9 Z M 225.9 96.2 C 226.1 96.2 226.4 96.2 226.8 96.2 C 226.8 96.2 227 97.9 227 97.9 C 226.5 98 226 98.1 225.6 98.1 C 224.9 98.1 224.3 97.9 223.9 97.7 C 223.6 97.5 223.3 97.2 223.1 96.8 C 223 96.5 222.9 95.7 222.9 94.6 C 222.89 94.56 222.9 88 222.9 88 L 221.5 88 L 221.5 86.5 L 222.9 86.5 L 222.9 83.7 L 224.8 82.5 L 224.8 86.5 L 226.8 86.5 L 226.8 88 L 224.8 88 C 224.8 88 224.81 94.67 224.8 94.7 C 224.8 95.2 224.8 95.6 224.9 95.7 C 225 95.9 225.1 96 225.2 96.1 C 225.4 96.2 225.6 96.2 225.9 96.2 C 225.9 96.2 225.9 96.2 225.9 96.2 Z M 232.1 97.9 L 238.1 82.2 L 240.4 82.2 L 246.8 97.9 L 244.4 97.9 L 242.6 93.1 L 236 93.1 L 234.3 97.9 L 232.1 97.9 Z M 236.6 91.4 L 241.9 91.4 C 241.9 91.4 240.3 87.08 240.3 87.1 C 239.8 85.8 239.4 84.7 239.2 83.8 C 239 84.8 238.7 85.8 238.3 86.8 C 238.34 86.82 236.6 91.4 236.6 91.4 Z M 248.8 97.9 L 248.8 82.2 L 250.9 82.2 L 250.9 97.9 L 248.8 97.9 Z M 259.7 94.5 C 259.7 94.5 261.6 94.2 261.6 94.2 C 261.7 95 262 95.6 262.5 96 C 263 96.4 263.7 96.6 264.5 96.6 C 265.4 96.6 266.1 96.4 266.5 96 C 266.9 95.7 267.2 95.2 267.2 94.8 C 267.2 94.3 267 94 266.6 93.7 C 266.3 93.6 265.7 93.3 264.6 93.1 C 263.2 92.7 262.2 92.4 261.7 92.1 C 261.1 91.9 260.7 91.5 260.4 91.1 C 260.1 90.6 260 90.1 260 89.5 C 260 89 260.1 88.5 260.3 88.1 C 260.6 87.7 260.9 87.3 261.3 87 C 261.6 86.8 262 86.6 262.5 86.5 C 263 86.3 263.6 86.2 264.2 86.2 C 265.1 86.2 265.9 86.4 266.6 86.6 C 267.2 86.9 267.7 87.2 268 87.7 C 268.4 88.1 268.6 88.7 268.7 89.4 C 268.7 89.4 266.8 89.7 266.8 89.7 C 266.7 89.1 266.5 88.7 266.1 88.3 C 265.7 88 265.1 87.8 264.3 87.8 C 263.4 87.8 262.8 88 262.4 88.3 C 262.1 88.6 261.9 88.9 261.9 89.3 C 261.9 89.5 261.9 89.8 262.1 90 C 262.3 90.2 262.5 90.4 262.8 90.5 C 263 90.6 263.6 90.7 264.5 91 C 265.9 91.4 266.9 91.6 267.4 91.9 C 268 92.1 268.4 92.5 268.7 92.9 C 269 93.3 269.1 93.9 269.1 94.6 C 269.1 95.2 269 95.8 268.6 96.4 C 268.2 96.9 267.7 97.4 267 97.7 C 266.2 98 265.4 98.2 264.5 98.2 C 263.1 98.2 261.9 97.9 261.2 97.2 C 260.4 96.6 259.9 95.7 259.7 94.5 Z M 270.7 92.2 C 270.7 90.1 271.3 88.5 272.5 87.5 C 273.5 86.7 274.7 86.2 276.1 86.2 C 277.6 86.2 278.9 86.8 279.9 87.8 C 280.9 88.8 281.4 90.2 281.4 92 C 281.4 93.5 281.2 94.7 280.8 95.5 C 280.3 96.3 279.7 97 278.8 97.5 C 278 97.9 277.1 98.2 276.1 98.2 C 274.5 98.2 273.2 97.6 272.2 96.6 C 271.2 95.6 270.7 94.1 270.7 92.2 Z M 272.7 92.2 C 272.7 93.7 273 94.8 273.7 95.5 C 274.3 96.2 275.1 96.6 276.1 96.6 C 277 96.6 277.8 96.2 278.5 95.5 C 279.1 94.7 279.4 93.6 279.4 92.1 C 279.4 90.7 279.1 89.7 278.5 88.9 C 277.8 88.2 277 87.8 276.1 87.8 C 275.1 87.8 274.3 88.2 273.7 88.9 C 273 89.6 272.7 90.7 272.7 92.2 Z M 283.6 97.9 L 283.6 82.2 L 285.6 82.2 L 285.6 97.9 L 283.6 97.9 Z M 296 97.9 C 296 97.9 296.04 96.23 296 96.2 C 295.2 97.5 293.9 98.2 292.4 98.2 C 291.8 98.2 291.1 98 290.5 97.8 C 290 97.5 289.5 97.2 289.2 96.8 C 289 96.4 288.8 95.9 288.6 95.4 C 288.6 95 288.5 94.4 288.5 93.6 C 288.52 93.56 288.5 86.5 288.5 86.5 L 290.5 86.5 C 290.5 86.5 290.46 92.82 290.5 92.8 C 290.5 93.8 290.5 94.5 290.6 94.9 C 290.7 95.4 291 95.8 291.3 96.1 C 291.7 96.4 292.2 96.5 292.8 96.5 C 293.4 96.5 293.9 96.3 294.4 96.1 C 295 95.8 295.3 95.3 295.5 94.8 C 295.7 94.3 295.8 93.6 295.8 92.6 C 295.84 92.61 295.8 86.5 295.8 86.5 L 297.8 86.5 L 297.8 97.9 L 296 97.9 Z M 304.2 96.2 C 304.4 96.2 304.7 96.2 305 96.2 C 305 96.2 305.3 97.9 305.3 97.9 C 304.8 98 304.3 98.1 303.8 98.1 C 303.1 98.1 302.6 97.9 302.2 97.7 C 301.8 97.5 301.6 97.2 301.4 96.8 C 301.2 96.5 301.2 95.7 301.2 94.6 C 301.16 94.56 301.2 88 301.2 88 L 299.7 88 L 299.7 86.5 L 301.2 86.5 L 301.2 83.7 L 303.1 82.5 L 303.1 86.5 L 305 86.5 L 305 88 L 303.1 88 C 303.1 88 303.08 94.67 303.1 94.7 C 303.1 95.2 303.1 95.6 303.2 95.7 C 303.2 95.9 303.4 96 303.5 96.1 C 303.7 96.2 303.9 96.2 304.2 96.2 C 304.2 96.2 304.2 96.2 304.2 96.2 Z M 306.9 84.4 L 306.9 82.2 L 308.9 82.2 L 308.9 84.4 L 306.9 84.4 Z M 306.9 97.9 L 306.9 86.5 L 308.9 86.5 L 308.9 97.9 L 306.9 97.9 Z M 311.1 92.2 C 311.1 90.1 311.7 88.5 312.8 87.5 C 313.8 86.7 315 86.2 316.4 86.2 C 318 86.2 319.3 86.8 320.3 87.8 C 321.3 88.8 321.8 90.2 321.8 92 C 321.8 93.5 321.6 94.7 321.1 95.5 C 320.7 96.3 320 97 319.2 97.5 C 318.3 97.9 317.4 98.2 316.4 98.2 C 314.8 98.2 313.5 97.6 312.6 96.6 C 311.6 95.6 311.1 94.1 311.1 92.2 Z M 313.1 92.2 C 313.1 93.7 313.4 94.8 314 95.5 C 314.7 96.2 315.5 96.6 316.4 96.6 C 317.4 96.6 318.2 96.2 318.8 95.5 C 319.5 94.7 319.8 93.6 319.8 92.1 C 319.8 90.7 319.5 89.7 318.8 88.9 C 318.2 88.2 317.4 87.8 316.4 87.8 C 315.5 87.8 314.7 88.2 314 88.9 C 313.4 89.6 313.1 90.7 313.1 92.2 Z M 324 97.9 L 324 86.5 L 325.8 86.5 C 325.8 86.5 325.78 88.12 325.8 88.1 C 326.6 86.9 327.8 86.2 329.4 86.2 C 330.1 86.2 330.7 86.4 331.3 86.6 C 331.9 86.9 332.3 87.2 332.6 87.6 C 332.9 88 333.1 88.5 333.2 89 C 333.3 89.4 333.3 90 333.3 90.9 C 333.31 90.89 333.3 97.9 333.3 97.9 L 331.4 97.9 C 331.4 97.9 331.37 90.96 331.4 91 C 331.4 90.2 331.3 89.6 331.1 89.2 C 331 88.8 330.7 88.5 330.3 88.3 C 330 88 329.5 87.9 329 87.9 C 328.2 87.9 327.5 88.2 326.9 88.7 C 326.3 89.2 326 90.2 326 91.7 C 325.97 91.67 326 97.9 326 97.9 L 324 97.9 Z " stroke="none" fill="#000"/>  </g>  <g id="Polygon8046">    <path d="M 109.6 59.3 L 101.8 59.3 L 100.5 63 L 96.4 63 L 103.4 43.4 L 108 43.4 L 115 63 L 110.9 63 L 109.6 59.3 Z M 108.5 56.1 L 105.7 48 L 102.9 56.1 L 108.5 56.1 Z M 121.6 43.5 L 121.6 63 L 117.6 63 L 117.6 43.5 L 121.6 43.5 Z M 146.3 49.5 C 146.3 50.5 146.1 51.5 145.6 52.4 C 145.1 53.4 144.3 54.1 143.3 54.7 C 142.2 55.2 140.9 55.5 139.3 55.5 C 139.28 55.5 136 55.5 136 55.5 L 136 63 L 132.1 63 L 132.1 43.5 C 132.1 43.5 139.28 43.46 139.3 43.5 C 140.8 43.5 142.1 43.7 143.1 44.2 C 144.2 44.8 145 45.5 145.5 46.4 C 146.1 47.3 146.3 48.3 146.3 49.5 C 146.3 49.5 146.3 49.5 146.3 49.5 Z M 139.1 52.3 C 140.2 52.3 141 52.1 141.5 51.6 C 142 51.1 142.3 50.4 142.3 49.5 C 142.3 47.6 141.2 46.6 139.1 46.6 C 139.11 46.65 136 46.6 136 46.6 L 136 52.3 L 139.1 52.3 C 139.1 52.3 139.11 52.33 139.1 52.3 Z M 153 42.3 L 153 63 L 149.1 63 L 149.1 42.3 L 153 42.3 Z M 155.9 55.2 C 155.9 53.6 156.2 52.2 156.8 51 C 157.4 49.8 158.3 48.9 159.4 48.2 C 160.4 47.6 161.6 47.2 163 47.2 C 164.1 47.2 165.1 47.5 166 47.9 C 166.9 48.4 167.6 49 168.1 49.7 C 168.09 49.7 168.1 47.5 168.1 47.5 L 172 47.5 L 172 63 L 168.1 63 C 168.1 63 168.09 60.73 168.1 60.7 C 167.6 61.5 166.9 62.1 166 62.5 C 165.1 63 164.1 63.3 162.9 63.3 C 161.6 63.3 160.4 62.9 159.4 62.2 C 158.3 61.6 157.4 60.6 156.8 59.4 C 156.2 58.2 155.9 56.8 155.9 55.2 C 155.9 55.2 155.9 55.2 155.9 55.2 Z M 168.1 55.2 C 168.1 54.3 167.9 53.5 167.5 52.8 C 167.2 52.1 166.7 51.6 166 51.2 C 165.4 50.9 164.7 50.7 164 50.7 C 163.2 50.7 162.6 50.9 162 51.2 C 161.3 51.6 160.8 52.1 160.5 52.8 C 160.1 53.4 159.9 54.3 159.9 55.2 C 159.9 56.1 160.1 56.9 160.5 57.6 C 160.8 58.3 161.3 58.9 162 59.2 C 162.6 59.6 163.3 59.8 164 59.8 C 164.7 59.8 165.4 59.6 166 59.3 C 166.7 58.9 167.2 58.4 167.5 57.7 C 167.9 57 168.1 56.2 168.1 55.2 C 168.1 55.2 168.1 55.2 168.1 55.2 Z M 180.4 50.7 C 180.4 50.7 180.44 58.21 180.4 58.2 C 180.4 58.7 180.6 59.1 180.8 59.3 C 181.1 59.6 181.5 59.7 182.1 59.7 C 182.09 59.7 183.9 59.7 183.9 59.7 L 183.9 63 C 183.9 63 181.45 63 181.4 63 C 178.1 63 176.5 61.4 176.5 58.2 C 176.49 58.18 176.5 50.7 176.5 50.7 L 174.6 50.7 L 174.6 47.5 L 176.5 47.5 L 176.5 43.7 L 180.4 43.7 L 180.4 47.5 L 183.9 47.5 L 183.9 50.7 L 180.4 50.7 Z M 193.9 50.7 L 191.1 50.7 L 191.1 63 L 187.2 63 L 187.2 50.7 L 185.4 50.7 L 185.4 47.5 L 187.2 47.5 C 187.2 47.5 187.16 46.7 187.2 46.7 C 187.2 44.8 187.7 43.4 188.8 42.5 C 189.9 41.6 191.5 41.2 193.7 41.2 C 193.7 41.2 193.7 44.5 193.7 44.5 C 192.7 44.5 192.1 44.7 191.7 45 C 191.3 45.4 191.1 46 191.1 46.8 C 191.13 46.84 191.1 47.5 191.1 47.5 L 193.9 47.5 L 193.9 50.7 Z M 203.3 63.3 C 201.8 63.3 200.4 62.9 199.3 62.3 C 198.1 61.6 197.1 60.7 196.4 59.4 C 195.8 58.2 195.4 56.8 195.4 55.2 C 195.4 53.7 195.8 52.3 196.5 51 C 197.2 49.8 198.1 48.9 199.3 48.2 C 200.6 47.6 201.9 47.2 203.4 47.2 C 204.9 47.2 206.2 47.6 207.5 48.2 C 208.7 48.9 209.6 49.8 210.3 51 C 211 52.3 211.4 53.7 211.4 55.2 C 211.4 56.8 211 58.2 210.3 59.4 C 209.6 60.7 208.6 61.6 207.4 62.3 C 206.2 62.9 204.8 63.3 203.3 63.3 C 203.3 63.3 203.3 63.3 203.3 63.3 Z M 203.3 59.8 C 204 59.8 204.7 59.7 205.3 59.3 C 205.9 59 206.4 58.5 206.8 57.8 C 207.2 57.1 207.3 56.2 207.3 55.2 C 207.3 53.8 207 52.6 206.2 51.8 C 205.4 51 204.5 50.7 203.3 50.7 C 202.2 50.7 201.3 51 200.5 51.8 C 199.8 52.6 199.4 53.8 199.4 55.2 C 199.4 56.7 199.8 57.9 200.5 58.6 C 201.2 59.4 202.2 59.8 203.3 59.8 C 203.3 59.8 203.3 59.8 203.3 59.8 Z M 218.2 49.9 C 218.7 49.1 219.3 48.4 220.2 48 C 221 47.5 221.9 47.3 222.9 47.3 C 222.94 47.26 222.9 51.4 222.9 51.4 C 222.9 51.4 221.91 51.38 221.9 51.4 C 220.7 51.4 219.7 51.7 219.1 52.2 C 218.5 52.8 218.2 53.8 218.2 55.3 C 218.18 55.27 218.2 63 218.2 63 L 214.3 63 L 214.3 47.5 L 218.2 47.5 L 218.2 49.9 C 218.2 49.9 218.18 49.9 218.2 49.9 Z M 244.8 47.3 C 246.7 47.3 248.3 47.8 249.4 49 C 250.6 50.2 251.2 51.8 251.2 53.9 C 251.19 53.9 251.2 63 251.2 63 L 247.3 63 C 247.3 63 247.27 54.43 247.3 54.4 C 247.3 53.2 247 52.3 246.3 51.6 C 245.7 51 244.9 50.7 243.8 50.7 C 242.8 50.7 241.9 51 241.3 51.6 C 240.7 52.3 240.4 53.2 240.4 54.4 C 240.36 54.43 240.4 63 240.4 63 L 236.4 63 C 236.4 63 236.44 54.43 236.4 54.4 C 236.4 53.2 236.1 52.3 235.5 51.6 C 234.9 51 234.1 50.7 233 50.7 C 231.9 50.7 231.1 51 230.4 51.6 C 229.8 52.3 229.5 53.2 229.5 54.4 C 229.49 54.43 229.5 63 229.5 63 L 225.6 63 L 225.6 47.5 L 229.5 47.5 C 229.5 47.5 229.49 49.36 229.5 49.4 C 230 48.7 230.6 48.2 231.4 47.8 C 232.2 47.5 233.1 47.3 234.1 47.3 C 235.3 47.3 236.4 47.5 237.3 48 C 238.3 48.5 239 49.3 239.5 50.2 C 240 49.3 240.8 48.6 241.7 48.1 C 242.7 47.5 243.7 47.3 244.8 47.3 C 244.8 47.3 244.8 47.3 244.8 47.3 Z M 260.9 63.3 C 259.6 63.3 258.4 63 257.4 62.6 C 256.4 62.1 255.6 61.5 255 60.7 C 254.5 59.9 254.1 59.1 254.1 58.1 C 254.1 58.1 258 58.1 258 58.1 C 258.1 58.7 258.4 59.2 258.9 59.6 C 259.4 60 260.1 60.2 260.8 60.2 C 261.6 60.2 262.2 60 262.6 59.7 C 263 59.4 263.2 59 263.2 58.6 C 263.2 58.1 262.9 57.7 262.4 57.4 C 261.9 57.2 261.1 56.9 260 56.6 C 258.8 56.3 257.9 56 257.1 55.7 C 256.4 55.4 255.8 55 255.2 54.4 C 254.7 53.8 254.4 52.9 254.4 51.9 C 254.4 51 254.7 50.2 255.2 49.5 C 255.7 48.8 256.4 48.3 257.3 47.9 C 258.2 47.4 259.3 47.2 260.6 47.2 C 262.4 47.2 263.9 47.7 265 48.6 C 266.1 49.5 266.7 50.8 266.8 52.4 C 266.8 52.4 263.1 52.4 263.1 52.4 C 263 51.7 262.8 51.3 262.3 50.9 C 261.8 50.5 261.2 50.3 260.5 50.3 C 259.8 50.3 259.2 50.5 258.8 50.7 C 258.4 51 258.2 51.4 258.2 51.8 C 258.2 52.4 258.5 52.7 259 53 C 259.6 53.3 260.4 53.6 261.5 53.8 C 262.6 54.1 263.5 54.4 264.2 54.7 C 265 55 265.6 55.5 266.1 56.1 C 266.7 56.7 266.9 57.5 267 58.6 C 267 59.5 266.7 60.3 266.2 61 C 265.7 61.7 265 62.2 264.1 62.6 C 263.2 63.1 262.1 63.3 260.9 63.3 C 260.9 63.3 260.9 63.3 260.9 63.3 Z " stroke="none" fill="#e4007e"/>  </g>  <g id="Polygon8045">    <path d="M 114.7 26.3 L 121.1 26.3 L 121.1 29.4 L 110.7 29.4 L 110.7 9.9 L 114.7 9.9 L 114.7 26.3 Z M 130.5 29.7 C 129 29.7 127.6 29.3 126.4 28.7 C 125.2 28 124.3 27.1 123.6 25.8 C 122.9 24.6 122.6 23.2 122.6 21.6 C 122.6 20.1 123 18.7 123.7 17.4 C 124.4 16.2 125.3 15.3 126.5 14.6 C 127.7 14 129.1 13.6 130.6 13.6 C 132.1 13.6 133.4 14 134.6 14.6 C 135.9 15.3 136.8 16.2 137.5 17.4 C 138.2 18.7 138.6 20.1 138.6 21.6 C 138.6 23.2 138.2 24.6 137.5 25.8 C 136.8 27.1 135.8 28 134.6 28.7 C 133.4 29.3 132 29.7 130.5 29.7 C 130.5 29.7 130.5 29.7 130.5 29.7 Z M 130.5 26.2 C 131.2 26.2 131.9 26.1 132.5 25.7 C 133.1 25.4 133.6 24.9 134 24.2 C 134.3 23.5 134.5 22.6 134.5 21.6 C 134.5 20.2 134.1 19 133.4 18.2 C 132.6 17.4 131.6 17.1 130.5 17.1 C 129.4 17.1 128.5 17.4 127.7 18.2 C 127 19 126.6 20.2 126.6 21.6 C 126.6 23.1 127 24.3 127.7 25 C 128.4 25.8 129.4 26.2 130.5 26.2 C 130.5 26.2 130.5 26.2 130.5 26.2 Z M 163 13.9 L 158.4 29.4 L 154.2 29.4 L 151.4 18.6 L 148.5 29.4 L 144.3 29.4 L 139.7 13.9 L 143.7 13.9 L 146.4 25.7 L 149.4 13.9 L 153.5 13.9 L 156.5 25.7 L 159.2 13.9 L 163 13.9 Z M 177 17.8 L 177 21.1 L 165.1 21.1 L 165.1 17.8 L 177 17.8 Z M 180.5 19.6 C 180.5 17.7 180.9 16 181.8 14.4 C 182.6 12.9 183.8 11.7 185.3 10.9 C 186.8 10 188.5 9.6 190.4 9.6 C 192.5 9.6 194.5 10.2 196.1 11.3 C 197.7 12.4 198.9 14 199.5 15.9 C 199.5 15.9 195 15.9 195 15.9 C 194.6 15 194 14.3 193.2 13.8 C 192.3 13.4 191.4 13.1 190.3 13.1 C 189.2 13.1 188.2 13.4 187.3 13.9 C 186.4 14.5 185.7 15.2 185.2 16.2 C 184.7 17.2 184.5 18.3 184.5 19.6 C 184.5 20.9 184.7 22 185.2 23 C 185.7 24 186.4 24.7 187.3 25.3 C 188.2 25.8 189.2 26.1 190.3 26.1 C 191.4 26.1 192.3 25.8 193.2 25.4 C 194 24.9 194.6 24.2 195 23.2 C 195 23.2 199.5 23.2 199.5 23.2 C 198.9 25.2 197.8 26.8 196.1 27.9 C 194.5 29 192.6 29.6 190.4 29.6 C 188.5 29.6 186.8 29.1 185.3 28.3 C 183.8 27.4 182.6 26.3 181.8 24.8 C 180.9 23.2 180.5 21.5 180.5 19.6 C 180.5 19.6 180.5 19.6 180.5 19.6 Z M 209.8 29.7 C 208.3 29.7 207 29.3 205.8 28.7 C 204.6 28 203.6 27.1 203 25.8 C 202.3 24.6 201.9 23.2 201.9 21.6 C 201.9 20.1 202.3 18.7 203 17.4 C 203.7 16.2 204.6 15.3 205.8 14.6 C 207.1 14 208.4 13.6 209.9 13.6 C 211.4 13.6 212.8 14 214 14.6 C 215.2 15.3 216.1 16.2 216.8 17.4 C 217.5 18.7 217.9 20.1 217.9 21.6 C 217.9 23.2 217.5 24.6 216.8 25.8 C 216.1 27.1 215.1 28 213.9 28.7 C 212.7 29.3 211.3 29.7 209.8 29.7 C 209.8 29.7 209.8 29.7 209.8 29.7 Z M 209.8 26.2 C 210.5 26.2 211.2 26.1 211.8 25.7 C 212.4 25.4 212.9 24.9 213.3 24.2 C 213.7 23.5 213.9 22.6 213.9 21.6 C 213.9 20.2 213.5 19 212.7 18.2 C 211.9 17.4 211 17.1 209.9 17.1 C 208.7 17.1 207.8 17.4 207 18.2 C 206.3 19 205.9 20.2 205.9 21.6 C 205.9 23.1 206.3 24.3 207 25 C 207.7 25.8 208.7 26.2 209.8 26.2 C 209.8 26.2 209.8 26.2 209.8 26.2 Z M 219.8 21.6 C 219.8 20 220.1 18.6 220.7 17.4 C 221.3 16.2 222.2 15.3 223.3 14.6 C 224.3 14 225.6 13.6 226.9 13.6 C 227.9 13.6 228.8 13.9 229.8 14.3 C 230.7 14.7 231.4 15.3 231.9 16 C 231.94 16.04 231.9 8.7 231.9 8.7 L 235.9 8.7 L 235.9 29.4 L 231.9 29.4 C 231.9 29.4 231.94 27.1 231.9 27.1 C 231.5 27.9 230.8 28.5 229.9 29 C 229 29.4 228 29.7 226.8 29.7 C 225.5 29.7 224.3 29.3 223.3 28.6 C 222.2 28 221.3 27 220.7 25.8 C 220.1 24.6 219.8 23.2 219.8 21.6 C 219.8 21.6 219.8 21.6 219.8 21.6 Z M 232 21.6 C 232 20.7 231.8 19.9 231.4 19.2 C 231 18.5 230.5 18 229.9 17.6 C 229.3 17.3 228.6 17.1 227.9 17.1 C 227.1 17.1 226.5 17.3 225.8 17.6 C 225.2 18 224.7 18.5 224.3 19.2 C 224 19.8 223.8 20.7 223.8 21.6 C 223.8 22.5 224 23.3 224.3 24 C 224.7 24.7 225.2 25.3 225.9 25.6 C 226.5 26 227.1 26.2 227.9 26.2 C 228.6 26.2 229.3 26 229.9 25.7 C 230.5 25.3 231 24.8 231.4 24.1 C 231.8 23.4 232 22.6 232 21.6 C 232 21.6 232 21.6 232 21.6 Z M 254.2 21.3 C 254.2 21.9 254.1 22.4 254.1 22.8 C 254.1 22.8 242.7 22.8 242.7 22.8 C 242.8 23.9 243.2 24.8 243.9 25.5 C 244.6 26.1 245.4 26.4 246.4 26.4 C 247.9 26.4 248.9 25.8 249.6 24.5 C 249.6 24.5 253.8 24.5 253.8 24.5 C 253.3 26 252.5 27.2 251.2 28.2 C 249.9 29.2 248.4 29.7 246.5 29.7 C 245 29.7 243.7 29.3 242.5 28.7 C 241.3 28 240.4 27.1 239.7 25.8 C 239.1 24.6 238.7 23.2 238.7 21.6 C 238.7 20 239.1 18.6 239.7 17.4 C 240.4 16.2 241.3 15.3 242.5 14.6 C 243.6 14 245 13.6 246.5 13.6 C 248 13.6 249.3 14 250.5 14.6 C 251.7 15.2 252.6 16.1 253.2 17.3 C 253.9 18.5 254.2 19.8 254.2 21.3 C 254.2 21.3 254.2 21.3 254.2 21.3 Z M 250.1 20.2 C 250.1 19.2 249.7 18.4 249 17.8 C 248.3 17.2 247.4 16.9 246.4 16.9 C 245.4 16.9 244.6 17.1 244 17.7 C 243.3 18.3 242.9 19.1 242.8 20.2 C 242.8 20.2 250.1 20.2 250.1 20.2 Z " stroke="none" fill="#e4007e"/>  </g></svg>