<?xml version="1.0" standalone="no"?><!DOCTYPE svg PUBLIC "-//W3C//DTD SVG 1.1//EN" "http://www.w3.org/Graphics/SVG/1.1/DTD/svg11.dtd"><svg xmlns="http://www.w3.org/2000/svg" version="1.1" width="364px" height="136.6px" viewBox="0 -2 364 136.6" style="top:-2px">  <desc>API &amp; Integration Tools Helps learners understand how systems connect and automate data flows.</desc>  <defs/>  <g id="Polygon8496">    <path d="M 155.8 117.1 L 155.8 107.2 L 154.1 107.2 L 154.1 105.7 L 155.8 105.7 C 155.8 105.7 155.8 104.59 155.8 104.6 C 155.8 103.5 156 102.6 156.5 102 C 157 101.4 157.8 101.1 158.8 101.1 C 159.5 101.1 160.2 101.2 160.8 101.3 C 160.8 101.3 160.5 103 160.5 103 C 160.1 102.9 159.8 102.9 159.5 102.9 C 158.8 102.9 158.3 103 158.1 103.3 C 157.9 103.5 157.7 104.1 157.7 105 C 157.73 104.95 157.7 105.7 157.7 105.7 L 159.9 105.7 L 159.9 107.2 L 157.7 107.2 L 157.7 117.1 L 155.8 117.1 Z M 161.4 117.1 L 161.4 101.4 L 163.3 101.4 L 163.3 117.1 L 161.4 117.1 Z M 165.6 111.4 C 165.6 109.3 166.2 107.7 167.3 106.7 C 168.3 105.9 169.5 105.4 170.9 105.4 C 172.5 105.4 173.8 106 174.8 107 C 175.8 108 176.3 109.4 176.3 111.2 C 176.3 112.7 176 113.9 175.6 114.7 C 175.2 115.5 174.5 116.2 173.7 116.7 C 172.8 117.1 171.9 117.4 170.9 117.4 C 169.3 117.4 168 116.8 167 115.8 C 166.1 114.8 165.6 113.3 165.6 111.4 Z M 167.6 111.4 C 167.6 112.9 167.9 114 168.5 114.7 C 169.1 115.4 169.9 115.8 170.9 115.8 C 171.9 115.8 172.7 115.4 173.3 114.7 C 173.9 113.9 174.3 112.8 174.3 111.3 C 174.3 109.9 173.9 108.9 173.3 108.1 C 172.7 107.4 171.9 107 170.9 107 C 169.9 107 169.1 107.4 168.5 108.1 C 167.9 108.8 167.6 109.9 167.6 111.4 Z M 180.6 117.1 L 177.1 105.7 L 179.1 105.7 L 180.9 112.3 C 180.9 112.3 181.62 114.73 181.6 114.7 C 181.7 114.6 181.8 113.8 182.2 112.4 C 182.21 112.38 184 105.7 184 105.7 L 186 105.7 L 187.7 112.3 L 188.3 114.5 L 188.9 112.3 L 190.9 105.7 L 192.8 105.7 L 189.2 117.1 L 187.2 117.1 L 185.4 110.3 L 185 108.3 L 182.6 117.1 L 180.6 117.1 Z M 193.6 113.7 C 193.6 113.7 195.5 113.4 195.5 113.4 C 195.7 114.2 196 114.8 196.4 115.2 C 196.9 115.6 197.6 115.8 198.5 115.8 C 199.4 115.8 200 115.6 200.5 115.2 C 200.9 114.9 201.1 114.4 201.1 114 C 201.1 113.5 200.9 113.2 200.6 112.9 C 200.3 112.8 199.6 112.5 198.6 112.3 C 197.2 111.9 196.2 111.6 195.6 111.3 C 195.1 111.1 194.7 110.7 194.4 110.3 C 194.1 109.8 194 109.3 194 108.7 C 194 108.2 194.1 107.7 194.3 107.3 C 194.5 106.9 194.9 106.5 195.3 106.2 C 195.6 106 196 105.8 196.5 105.7 C 197 105.5 197.6 105.4 198.2 105.4 C 199.1 105.4 199.8 105.6 200.5 105.8 C 201.2 106.1 201.7 106.4 202 106.9 C 202.3 107.3 202.6 107.9 202.7 108.6 C 202.7 108.6 200.8 108.9 200.8 108.9 C 200.7 108.3 200.5 107.9 200 107.5 C 199.6 107.2 199 107 198.3 107 C 197.4 107 196.8 107.2 196.4 107.5 C 196 107.8 195.8 108.1 195.8 108.5 C 195.8 108.7 195.9 109 196.1 109.2 C 196.2 109.4 196.5 109.6 196.8 109.7 C 197 109.8 197.6 109.9 198.5 110.2 C 199.9 110.6 200.8 110.8 201.4 111.1 C 201.9 111.3 202.3 111.7 202.6 112.1 C 203 112.5 203.1 113.1 203.1 113.8 C 203.1 114.4 202.9 115 202.5 115.6 C 202.2 116.1 201.6 116.6 200.9 116.9 C 200.2 117.2 199.4 117.4 198.5 117.4 C 197 117.4 195.9 117.1 195.1 116.4 C 194.3 115.8 193.8 114.9 193.6 113.7 Z M 206 117.1 L 206 114.9 L 208.2 114.9 L 208.2 117.1 L 206 117.1 Z " stroke="none" fill="#000"/>  </g>  <g id="Polygon8495">    <path d="M 5.9 87.3 C 5.9 87.3 7.8 87 7.8 87 C 7.9 87.8 8.2 88.4 8.7 88.8 C 9.2 89.2 9.9 89.4 10.8 89.4 C 11.7 89.4 12.3 89.2 12.8 88.8 C 13.2 88.5 13.4 88 13.4 87.6 C 13.4 87.1 13.2 86.8 12.8 86.5 C 12.6 86.4 11.9 86.1 10.9 85.9 C 9.4 85.5 8.5 85.2 7.9 84.9 C 7.4 84.7 6.9 84.3 6.7 83.9 C 6.4 83.4 6.2 82.9 6.2 82.3 C 6.2 81.8 6.4 81.3 6.6 80.9 C 6.8 80.5 7.1 80.1 7.5 79.8 C 7.8 79.6 8.2 79.4 8.8 79.3 C 9.3 79.1 9.8 79 10.4 79 C 11.3 79 12.1 79.2 12.8 79.4 C 13.5 79.7 14 80 14.3 80.5 C 14.6 80.9 14.8 81.5 15 82.2 C 15 82.2 13.1 82.5 13.1 82.5 C 13 81.9 12.7 81.5 12.3 81.1 C 11.9 80.8 11.3 80.6 10.6 80.6 C 9.7 80.6 9.1 80.8 8.7 81.1 C 8.3 81.4 8.1 81.7 8.1 82.1 C 8.1 82.3 8.2 82.6 8.3 82.8 C 8.5 83 8.7 83.2 9.1 83.3 C 9.3 83.4 9.8 83.5 10.8 83.8 C 12.2 84.2 13.1 84.4 13.7 84.7 C 14.2 84.9 14.6 85.3 14.9 85.7 C 15.2 86.1 15.4 86.7 15.4 87.4 C 15.4 88 15.2 88.6 14.8 89.2 C 14.4 89.7 13.9 90.2 13.2 90.5 C 12.5 90.8 11.7 91 10.8 91 C 9.3 91 8.2 90.7 7.4 90 C 6.6 89.4 6.1 88.5 5.9 87.3 Z M 18.8 95.3 C 18.5 95.3 18.1 95.3 17.6 95.1 C 17.6 95.1 17.4 93.3 17.4 93.3 C 17.8 93.4 18.2 93.5 18.5 93.5 C 18.9 93.5 19.3 93.4 19.5 93.2 C 19.8 93.1 20 92.9 20.2 92.6 C 20.3 92.4 20.5 92 20.7 91.2 C 20.8 91.1 20.8 90.9 20.9 90.7 C 20.92 90.73 16.6 79.3 16.6 79.3 L 18.7 79.3 C 18.7 79.3 21.05 85.9 21 85.9 C 21.4 86.7 21.6 87.6 21.9 88.5 C 22.1 87.7 22.4 86.8 22.7 85.9 C 22.67 85.94 25.1 79.3 25.1 79.3 L 27 79.3 C 27 79.3 22.7 90.9 22.7 90.9 C 22.2 92.2 21.9 93 21.6 93.5 C 21.3 94.1 20.9 94.6 20.4 94.9 C 20 95.2 19.5 95.3 18.8 95.3 C 18.8 95.3 18.8 95.3 18.8 95.3 Z M 27.9 87.3 C 27.9 87.3 29.8 87 29.8 87 C 29.9 87.8 30.2 88.4 30.7 88.8 C 31.2 89.2 31.9 89.4 32.8 89.4 C 33.7 89.4 34.3 89.2 34.8 88.8 C 35.2 88.5 35.4 88 35.4 87.6 C 35.4 87.1 35.2 86.8 34.8 86.5 C 34.6 86.4 33.9 86.1 32.9 85.9 C 31.4 85.5 30.5 85.2 29.9 84.9 C 29.4 84.7 28.9 84.3 28.7 83.9 C 28.4 83.4 28.2 82.9 28.2 82.3 C 28.2 81.8 28.4 81.3 28.6 80.9 C 28.8 80.5 29.1 80.1 29.5 79.8 C 29.8 79.6 30.2 79.4 30.8 79.3 C 31.3 79.1 31.8 79 32.4 79 C 33.3 79 34.1 79.2 34.8 79.4 C 35.5 79.7 36 80 36.3 80.5 C 36.6 80.9 36.8 81.5 37 82.2 C 37 82.2 35.1 82.5 35.1 82.5 C 35 81.9 34.7 81.5 34.3 81.1 C 33.9 80.8 33.3 80.6 32.6 80.6 C 31.7 80.6 31.1 80.8 30.7 81.1 C 30.3 81.4 30.1 81.7 30.1 82.1 C 30.1 82.3 30.2 82.6 30.3 82.8 C 30.5 83 30.7 83.2 31.1 83.3 C 31.3 83.4 31.8 83.5 32.8 83.8 C 34.2 84.2 35.1 84.4 35.7 84.7 C 36.2 84.9 36.6 85.3 36.9 85.7 C 37.2 86.1 37.4 86.7 37.4 87.4 C 37.4 88 37.2 88.6 36.8 89.2 C 36.4 89.7 35.9 90.2 35.2 90.5 C 34.5 90.8 33.7 91 32.8 91 C 31.3 91 30.2 90.7 29.4 90 C 28.6 89.4 28.1 88.5 27.9 87.3 Z M 43.1 89 C 43.3 89 43.6 89 43.9 89 C 43.9 89 44.2 90.7 44.2 90.7 C 43.6 90.8 43.2 90.9 42.7 90.9 C 42 90.9 41.5 90.7 41.1 90.5 C 40.7 90.3 40.4 90 40.3 89.6 C 40.1 89.3 40 88.5 40 87.4 C 40.04 87.36 40 80.8 40 80.8 L 38.6 80.8 L 38.6 79.3 L 40 79.3 L 40 76.5 L 42 75.3 L 42 79.3 L 43.9 79.3 L 43.9 80.8 L 42 80.8 C 42 80.8 41.96 87.47 42 87.5 C 42 88 42 88.4 42.1 88.5 C 42.1 88.7 42.2 88.8 42.4 88.9 C 42.6 89 42.8 89 43.1 89 C 43.1 89 43.1 89 43.1 89 Z M 53.6 87 C 53.6 87 55.6 87.3 55.6 87.3 C 55.3 88.4 54.7 89.4 53.9 90 C 53 90.6 51.9 91 50.6 91 C 48.9 91 47.6 90.4 46.6 89.4 C 45.6 88.4 45.2 87 45.2 85.1 C 45.2 83.2 45.6 81.7 46.6 80.6 C 47.6 79.6 48.9 79 50.5 79 C 52 79 53.3 79.6 54.2 80.6 C 55.2 81.6 55.7 83.1 55.7 85 C 55.7 85.1 55.7 85.3 55.7 85.5 C 55.7 85.5 47.2 85.5 47.2 85.5 C 47.2 86.7 47.6 87.7 48.2 88.4 C 48.9 89 49.6 89.4 50.6 89.4 C 51.3 89.4 51.9 89.2 52.4 88.8 C 52.9 88.4 53.3 87.8 53.6 87 Z M 47.3 83.9 C 47.3 83.9 53.6 83.9 53.6 83.9 C 53.5 82.9 53.3 82.2 52.9 81.7 C 52.3 81 51.5 80.6 50.5 80.6 C 49.6 80.6 48.9 80.9 48.3 81.5 C 47.7 82.1 47.3 82.9 47.3 83.9 Z M 58 90.7 L 58 79.3 L 59.8 79.3 C 59.8 79.3 59.76 80.9 59.8 80.9 C 60.1 80.3 60.6 79.9 61.2 79.5 C 61.8 79.2 62.5 79 63.2 79 C 64.1 79 64.8 79.2 65.3 79.6 C 65.8 79.9 66.2 80.4 66.4 81 C 67.3 79.7 68.5 79 70 79 C 71.1 79 72 79.4 72.6 80 C 73.2 80.6 73.5 81.6 73.5 82.9 C 73.49 82.87 73.5 90.7 73.5 90.7 L 71.6 90.7 C 71.6 90.7 71.57 83.52 71.6 83.5 C 71.6 82.7 71.5 82.2 71.4 81.8 C 71.3 81.5 71 81.2 70.7 81 C 70.4 80.8 70 80.7 69.5 80.7 C 68.7 80.7 68.1 81 67.5 81.5 C 67 82 66.7 82.9 66.7 84.1 C 66.75 84.08 66.7 90.7 66.7 90.7 L 64.8 90.7 C 64.8 90.7 64.81 83.29 64.8 83.3 C 64.8 82.4 64.7 81.8 64.3 81.4 C 64 80.9 63.5 80.7 62.8 80.7 C 62.2 80.7 61.7 80.9 61.3 81.1 C 60.8 81.4 60.5 81.8 60.3 82.4 C 60.1 83 60 83.7 60 84.8 C 59.97 84.78 60 90.7 60 90.7 L 58 90.7 Z M 75.6 87.3 C 75.6 87.3 77.5 87 77.5 87 C 77.6 87.8 77.9 88.4 78.4 88.8 C 78.9 89.2 79.6 89.4 80.5 89.4 C 81.3 89.4 82 89.2 82.4 88.8 C 82.9 88.5 83.1 88 83.1 87.6 C 83.1 87.1 82.9 86.8 82.5 86.5 C 82.2 86.4 81.6 86.1 80.5 85.9 C 79.1 85.5 78.1 85.2 77.6 84.9 C 77 84.7 76.6 84.3 76.3 83.9 C 76.1 83.4 75.9 82.9 75.9 82.3 C 75.9 81.8 76 81.3 76.3 80.9 C 76.5 80.5 76.8 80.1 77.2 79.8 C 77.5 79.6 77.9 79.4 78.4 79.3 C 79 79.1 79.5 79 80.1 79 C 81 79 81.8 79.2 82.5 79.4 C 83.1 79.7 83.6 80 84 80.5 C 84.3 80.9 84.5 81.5 84.6 82.2 C 84.6 82.2 82.7 82.5 82.7 82.5 C 82.7 81.9 82.4 81.5 82 81.1 C 81.6 80.8 81 80.6 80.2 80.6 C 79.4 80.6 78.7 80.8 78.3 81.1 C 78 81.4 77.8 81.7 77.8 82.1 C 77.8 82.3 77.9 82.6 78 82.8 C 78.2 83 78.4 83.2 78.8 83.3 C 78.9 83.4 79.5 83.5 80.5 83.8 C 81.8 84.2 82.8 84.4 83.3 84.7 C 83.9 84.9 84.3 85.3 84.6 85.7 C 84.9 86.1 85.1 86.7 85.1 87.4 C 85.1 88 84.9 88.6 84.5 89.2 C 84.1 89.7 83.6 90.2 82.9 90.5 C 82.2 90.8 81.4 91 80.5 91 C 79 91 77.9 90.7 77.1 90 C 76.3 89.4 75.8 88.5 75.6 87.3 Z M 100.9 86.5 C 100.9 86.5 102.8 86.8 102.8 86.8 C 102.6 88.1 102.1 89.1 101.2 89.8 C 100.4 90.6 99.3 91 98.1 91 C 96.5 91 95.3 90.5 94.3 89.4 C 93.4 88.4 92.9 86.9 92.9 85 C 92.9 83.8 93.1 82.7 93.5 81.8 C 93.9 80.9 94.5 80.2 95.4 79.7 C 96.2 79.3 97.1 79 98.1 79 C 99.3 79 100.3 79.4 101.1 80 C 101.9 80.6 102.4 81.5 102.6 82.6 C 102.6 82.6 100.8 82.9 100.8 82.9 C 100.6 82.2 100.3 81.6 99.8 81.2 C 99.4 80.8 98.8 80.6 98.2 80.6 C 97.2 80.6 96.4 81 95.8 81.7 C 95.2 82.4 94.9 83.5 94.9 85 C 94.9 86.5 95.2 87.6 95.7 88.3 C 96.3 89 97.1 89.4 98 89.4 C 98.8 89.4 99.4 89.1 100 88.7 C 100.5 88.2 100.8 87.5 100.9 86.5 Z M 103.8 85 C 103.8 82.9 104.3 81.3 105.5 80.3 C 106.5 79.5 107.7 79 109.1 79 C 110.7 79 112 79.6 112.9 80.6 C 113.9 81.6 114.4 83 114.4 84.8 C 114.4 86.3 114.2 87.5 113.8 88.3 C 113.3 89.1 112.7 89.8 111.9 90.3 C 111 90.7 110.1 91 109.1 91 C 107.5 91 106.2 90.4 105.2 89.4 C 104.2 88.4 103.8 86.9 103.8 85 Z M 105.7 85 C 105.7 86.5 106.1 87.6 106.7 88.3 C 107.3 89 108.1 89.4 109.1 89.4 C 110.1 89.4 110.9 89 111.5 88.3 C 112.1 87.5 112.5 86.4 112.5 84.9 C 112.5 83.5 112.1 82.5 111.5 81.7 C 110.9 81 110.1 80.6 109.1 80.6 C 108.1 80.6 107.3 81 106.7 81.7 C 106.1 82.4 105.7 83.5 105.7 85 Z M 116.7 90.7 L 116.7 79.3 L 118.4 79.3 C 118.4 79.3 118.45 80.92 118.4 80.9 C 119.3 79.7 120.5 79 122.1 79 C 122.8 79 123.4 79.2 124 79.4 C 124.6 79.7 125 80 125.3 80.4 C 125.6 80.8 125.8 81.3 125.9 81.8 C 125.9 82.2 126 82.8 126 83.7 C 125.98 83.69 126 90.7 126 90.7 L 124 90.7 C 124 90.7 124.04 83.76 124 83.8 C 124 83 124 82.4 123.8 82 C 123.7 81.6 123.4 81.3 123 81.1 C 122.6 80.8 122.2 80.7 121.7 80.7 C 120.8 80.7 120.1 81 119.5 81.5 C 118.9 82 118.6 83 118.6 84.5 C 118.64 84.47 118.6 90.7 118.6 90.7 L 116.7 90.7 Z M 128.9 90.7 L 128.9 79.3 L 130.7 79.3 C 130.7 79.3 130.68 80.92 130.7 80.9 C 131.5 79.7 132.7 79 134.3 79 C 135 79 135.6 79.2 136.2 79.4 C 136.8 79.7 137.2 80 137.5 80.4 C 137.8 80.8 138 81.3 138.1 81.8 C 138.2 82.2 138.2 82.8 138.2 83.7 C 138.21 83.69 138.2 90.7 138.2 90.7 L 136.3 90.7 C 136.3 90.7 136.28 83.76 136.3 83.8 C 136.3 83 136.2 82.4 136.1 82 C 135.9 81.6 135.6 81.3 135.3 81.1 C 134.9 80.8 134.4 80.7 133.9 80.7 C 133.1 80.7 132.4 81 131.8 81.5 C 131.2 82 130.9 83 130.9 84.5 C 130.88 84.47 130.9 90.7 130.9 90.7 L 128.9 90.7 Z M 149 87 C 149 87 151 87.3 151 87.3 C 150.7 88.4 150.1 89.4 149.2 90 C 148.4 90.6 147.3 91 146 91 C 144.3 91 143 90.4 142 89.4 C 141 88.4 140.5 87 140.5 85.1 C 140.5 83.2 141 81.7 142 80.6 C 143 79.6 144.3 79 145.9 79 C 147.4 79 148.6 79.6 149.6 80.6 C 150.6 81.6 151.1 83.1 151.1 85 C 151.1 85.1 151 85.3 151 85.5 C 151 85.5 142.5 85.5 142.5 85.5 C 142.6 86.7 143 87.7 143.6 88.4 C 144.2 89 145 89.4 146 89.4 C 146.7 89.4 147.3 89.2 147.8 88.8 C 148.3 88.4 148.7 87.8 149 87 Z M 142.6 83.9 C 142.6 83.9 149 83.9 149 83.9 C 148.9 82.9 148.7 82.2 148.3 81.7 C 147.7 81 146.9 80.6 145.9 80.6 C 145 80.6 144.2 80.9 143.6 81.5 C 143 82.1 142.7 82.9 142.6 83.9 Z M 160.9 86.5 C 160.9 86.5 162.8 86.8 162.8 86.8 C 162.6 88.1 162 89.1 161.2 89.8 C 160.3 90.6 159.3 91 158 91 C 156.5 91 155.2 90.5 154.2 89.4 C 153.3 88.4 152.8 86.9 152.8 85 C 152.8 83.8 153 82.7 153.4 81.8 C 153.8 80.9 154.5 80.2 155.3 79.7 C 156.1 79.3 157 79 158 79 C 159.3 79 160.3 79.4 161.1 80 C 161.9 80.6 162.4 81.5 162.6 82.6 C 162.6 82.6 160.7 82.9 160.7 82.9 C 160.5 82.2 160.2 81.6 159.7 81.2 C 159.3 80.8 158.7 80.6 158.1 80.6 C 157.1 80.6 156.3 81 155.7 81.7 C 155.1 82.4 154.8 83.5 154.8 85 C 154.8 86.5 155.1 87.6 155.7 88.3 C 156.3 89 157 89.4 158 89.4 C 158.7 89.4 159.4 89.1 159.9 88.7 C 160.4 88.2 160.7 87.5 160.9 86.5 Z M 167.8 89 C 168 89 168.3 89 168.6 89 C 168.6 89 168.9 90.7 168.9 90.7 C 168.4 90.8 167.9 90.9 167.5 90.9 C 166.8 90.9 166.2 90.7 165.8 90.5 C 165.4 90.3 165.2 90 165 89.6 C 164.8 89.3 164.8 88.5 164.8 87.4 C 164.77 87.36 164.8 80.8 164.8 80.8 L 163.4 80.8 L 163.4 79.3 L 164.8 79.3 L 164.8 76.5 L 166.7 75.3 L 166.7 79.3 L 168.6 79.3 L 168.6 80.8 L 166.7 80.8 C 166.7 80.8 166.69 87.47 166.7 87.5 C 166.7 88 166.7 88.4 166.8 88.5 C 166.9 88.7 167 88.8 167.1 88.9 C 167.3 89 167.5 89 167.8 89 C 167.8 89 167.8 89 167.8 89 Z M 184.5 90.7 C 184.3 90.3 184.1 89.8 184.1 89.3 C 183.4 89.9 182.7 90.3 182 90.6 C 181.4 90.8 180.6 91 179.9 91 C 178.6 91 177.7 90.7 177 90 C 176.3 89.4 176 88.6 176 87.7 C 176 87.1 176.1 86.6 176.4 86.2 C 176.6 85.7 177 85.3 177.4 85.1 C 177.8 84.8 178.2 84.6 178.8 84.4 C 179.1 84.3 179.7 84.2 180.5 84.1 C 182 83.9 183.2 83.7 183.9 83.5 C 183.9 83.2 183.9 83 183.9 83 C 183.9 82.2 183.7 81.6 183.4 81.3 C 182.9 80.9 182.2 80.6 181.2 80.6 C 180.3 80.6 179.6 80.8 179.2 81.1 C 178.7 81.4 178.4 82 178.2 82.8 C 178.2 82.8 176.3 82.6 176.3 82.6 C 176.5 81.7 176.8 81.1 177.2 80.6 C 177.6 80.1 178.1 79.7 178.9 79.4 C 179.6 79.2 180.5 79 181.5 79 C 182.4 79 183.2 79.2 183.8 79.4 C 184.4 79.6 184.9 79.9 185.2 80.2 C 185.5 80.6 185.7 81 185.8 81.6 C 185.8 81.9 185.9 82.5 185.9 83.3 C 185.9 83.3 185.9 85.9 185.9 85.9 C 185.9 87.7 185.9 88.9 186 89.3 C 186.1 89.8 186.2 90.3 186.5 90.7 C 186.49 90.7 184.5 90.7 184.5 90.7 C 184.5 90.7 184.47 90.7 184.5 90.7 Z M 183.9 85 C 183.2 85.3 182.2 85.5 180.8 85.7 C 180 85.8 179.4 86 179.1 86.1 C 178.7 86.2 178.5 86.4 178.3 86.7 C 178.1 87 178 87.3 178 87.6 C 178 88.2 178.2 88.6 178.6 88.9 C 179 89.3 179.6 89.4 180.3 89.4 C 181.1 89.4 181.8 89.3 182.3 89 C 182.9 88.6 183.3 88.2 183.6 87.6 C 183.8 87.2 183.9 86.5 183.9 85.7 C 183.9 85.7 183.9 85 183.9 85 Z M 188.9 90.7 L 188.9 79.3 L 190.6 79.3 C 190.6 79.3 190.61 80.92 190.6 80.9 C 191.5 79.7 192.7 79 194.2 79 C 194.9 79 195.6 79.2 196.1 79.4 C 196.7 79.7 197.1 80 197.4 80.4 C 197.7 80.8 197.9 81.3 198 81.8 C 198.1 82.2 198.1 82.8 198.1 83.7 C 198.14 83.69 198.1 90.7 198.1 90.7 L 196.2 90.7 C 196.2 90.7 196.21 83.76 196.2 83.8 C 196.2 83 196.1 82.4 196 82 C 195.8 81.6 195.6 81.3 195.2 81.1 C 194.8 80.8 194.4 80.7 193.8 80.7 C 193 80.7 192.3 81 191.7 81.5 C 191.1 82 190.8 83 190.8 84.5 C 190.81 84.47 190.8 90.7 190.8 90.7 L 188.9 90.7 Z M 208.5 90.7 C 208.5 90.7 208.51 89.26 208.5 89.3 C 207.8 90.4 206.7 91 205.3 91 C 204.4 91 203.6 90.7 202.8 90.2 C 202 89.7 201.5 89 201 88.1 C 200.6 87.2 200.4 86.2 200.4 85 C 200.4 83.9 200.6 82.8 201 81.9 C 201.4 81 201.9 80.3 202.7 79.8 C 203.4 79.3 204.3 79 205.2 79 C 205.9 79 206.5 79.2 207.1 79.5 C 207.6 79.8 208 80.1 208.4 80.6 C 208.38 80.61 208.4 75 208.4 75 L 210.3 75 L 210.3 90.7 L 208.5 90.7 Z M 202.4 85 C 202.4 86.5 202.7 87.6 203.3 88.3 C 203.9 89 204.7 89.4 205.5 89.4 C 206.3 89.4 207.1 89 207.7 88.3 C 208.2 87.6 208.5 86.6 208.5 85.2 C 208.5 83.6 208.2 82.5 207.6 81.7 C 207 81 206.3 80.6 205.4 80.6 C 204.6 80.6 203.8 81 203.3 81.7 C 202.7 82.4 202.4 83.5 202.4 85 Z M 227.3 90.7 C 227.1 90.3 227 89.8 226.9 89.3 C 226.2 89.9 225.5 90.3 224.8 90.6 C 224.2 90.8 223.5 91 222.7 91 C 221.4 91 220.5 90.7 219.8 90 C 219.1 89.4 218.8 88.6 218.8 87.7 C 218.8 87.1 218.9 86.6 219.2 86.2 C 219.4 85.7 219.8 85.3 220.2 85.1 C 220.6 84.8 221.1 84.6 221.6 84.4 C 222 84.3 222.5 84.2 223.3 84.1 C 224.9 83.9 226 83.7 226.7 83.5 C 226.7 83.2 226.8 83 226.8 83 C 226.8 82.2 226.6 81.6 226.2 81.3 C 225.7 80.9 225 80.6 224 80.6 C 223.1 80.6 222.4 80.8 222 81.1 C 221.6 81.4 221.2 82 221 82.8 C 221 82.8 219.1 82.6 219.1 82.6 C 219.3 81.7 219.6 81.1 220 80.6 C 220.4 80.1 220.9 79.7 221.7 79.4 C 222.4 79.2 223.3 79 224.3 79 C 225.3 79 226 79.2 226.7 79.4 C 227.3 79.6 227.7 79.9 228 80.2 C 228.3 80.6 228.5 81 228.6 81.6 C 228.7 81.9 228.7 82.5 228.7 83.3 C 228.7 83.3 228.7 85.9 228.7 85.9 C 228.7 87.7 228.7 88.9 228.8 89.3 C 228.9 89.8 229.1 90.3 229.3 90.7 C 229.31 90.7 227.3 90.7 227.3 90.7 C 227.3 90.7 227.29 90.7 227.3 90.7 Z M 226.7 85 C 226 85.3 225 85.5 223.6 85.7 C 222.8 85.8 222.2 86 221.9 86.1 C 221.6 86.2 221.3 86.4 221.1 86.7 C 221 87 220.9 87.3 220.9 87.6 C 220.9 88.2 221.1 88.6 221.4 88.9 C 221.8 89.3 222.4 89.4 223.2 89.4 C 223.9 89.4 224.6 89.3 225.2 89 C 225.7 88.6 226.2 88.2 226.4 87.6 C 226.6 87.2 226.7 86.5 226.7 85.7 C 226.7 85.7 226.7 85 226.7 85 Z M 239.2 90.7 C 239.2 90.7 239.17 89.03 239.2 89 C 238.3 90.3 237.1 91 235.5 91 C 234.9 91 234.2 90.8 233.7 90.6 C 233.1 90.3 232.6 90 232.4 89.6 C 232.1 89.2 231.9 88.7 231.8 88.2 C 231.7 87.8 231.6 87.2 231.6 86.4 C 231.65 86.36 231.6 79.3 231.6 79.3 L 233.6 79.3 C 233.6 79.3 233.58 85.62 233.6 85.6 C 233.6 86.6 233.6 87.3 233.7 87.7 C 233.8 88.2 234.1 88.6 234.5 88.9 C 234.9 89.2 235.4 89.3 235.9 89.3 C 236.5 89.3 237.1 89.1 237.6 88.9 C 238.1 88.6 238.4 88.1 238.6 87.6 C 238.9 87.1 239 86.4 239 85.4 C 238.96 85.41 239 79.3 239 79.3 L 240.9 79.3 L 240.9 90.7 L 239.2 90.7 Z M 247.3 89 C 247.5 89 247.8 89 248.1 89 C 248.1 89 248.4 90.7 248.4 90.7 C 247.9 90.8 247.4 90.9 247 90.9 C 246.3 90.9 245.7 90.7 245.3 90.5 C 244.9 90.3 244.7 90 244.5 89.6 C 244.4 89.3 244.3 88.5 244.3 87.4 C 244.28 87.36 244.3 80.8 244.3 80.8 L 242.9 80.8 L 242.9 79.3 L 244.3 79.3 L 244.3 76.5 L 246.2 75.3 L 246.2 79.3 L 248.1 79.3 L 248.1 80.8 L 246.2 80.8 C 246.2 80.8 246.21 87.47 246.2 87.5 C 246.2 88 246.2 88.4 246.3 88.5 C 246.4 88.7 246.5 88.8 246.6 88.9 C 246.8 89 247 89 247.3 89 C 247.3 89 247.3 89 247.3 89 Z M 249.3 85 C 249.3 82.9 249.9 81.3 251.1 80.3 C 252.1 79.5 253.3 79 254.7 79 C 256.2 79 257.5 79.6 258.5 80.6 C 259.5 81.6 260 83 260 84.8 C 260 86.3 259.8 87.5 259.3 88.3 C 258.9 89.1 258.3 89.8 257.4 90.3 C 256.6 90.7 255.7 91 254.7 91 C 253.1 91 251.8 90.4 250.8 89.4 C 249.8 88.4 249.3 86.9 249.3 85 Z M 251.3 85 C 251.3 86.5 251.6 87.6 252.3 88.3 C 252.9 89 253.7 89.4 254.7 89.4 C 255.6 89.4 256.4 89 257.1 88.3 C 257.7 87.5 258 86.4 258 84.9 C 258 83.5 257.7 82.5 257.1 81.7 C 256.4 81 255.6 80.6 254.7 80.6 C 253.7 80.6 252.9 81 252.3 81.7 C 251.6 82.4 251.3 83.5 251.3 85 Z M 262.3 90.7 L 262.3 79.3 L 264 79.3 C 264 79.3 264 80.9 264 80.9 C 264.4 80.3 264.8 79.9 265.4 79.5 C 266 79.2 266.7 79 267.5 79 C 268.3 79 269 79.2 269.5 79.6 C 270.1 79.9 270.5 80.4 270.7 81 C 271.6 79.7 272.8 79 274.2 79 C 275.3 79 276.2 79.4 276.8 80 C 277.4 80.6 277.7 81.6 277.7 82.9 C 277.73 82.87 277.7 90.7 277.7 90.7 L 275.8 90.7 C 275.8 90.7 275.81 83.52 275.8 83.5 C 275.8 82.7 275.7 82.2 275.6 81.8 C 275.5 81.5 275.3 81.2 274.9 81 C 274.6 80.8 274.2 80.7 273.8 80.7 C 273 80.7 272.3 81 271.8 81.5 C 271.3 82 271 82.9 271 84.1 C 270.99 84.08 271 90.7 271 90.7 L 269.1 90.7 C 269.1 90.7 269.05 83.29 269.1 83.3 C 269.1 82.4 268.9 81.8 268.6 81.4 C 268.3 80.9 267.8 80.7 267 80.7 C 266.5 80.7 266 80.9 265.5 81.1 C 265.1 81.4 264.7 81.8 264.5 82.4 C 264.3 83 264.2 83.7 264.2 84.8 C 264.21 84.78 264.2 90.7 264.2 90.7 L 262.3 90.7 Z M 288.4 90.7 C 288.2 90.3 288.1 89.8 288 89.3 C 287.3 89.9 286.6 90.3 286 90.6 C 285.3 90.8 284.6 91 283.8 91 C 282.6 91 281.6 90.7 281 90 C 280.3 89.4 279.9 88.6 279.9 87.7 C 279.9 87.1 280.1 86.6 280.3 86.2 C 280.6 85.7 280.9 85.3 281.3 85.1 C 281.7 84.8 282.2 84.6 282.7 84.4 C 283.1 84.3 283.7 84.2 284.4 84.1 C 286 83.9 287.1 83.7 287.9 83.5 C 287.9 83.2 287.9 83 287.9 83 C 287.9 82.2 287.7 81.6 287.3 81.3 C 286.9 80.9 286.1 80.6 285.1 80.6 C 284.2 80.6 283.6 80.8 283.1 81.1 C 282.7 81.4 282.4 82 282.2 82.8 C 282.2 82.8 280.3 82.6 280.3 82.6 C 280.5 81.7 280.7 81.1 281.1 80.6 C 281.5 80.1 282.1 79.7 282.8 79.4 C 283.6 79.2 284.4 79 285.4 79 C 286.4 79 287.2 79.2 287.8 79.4 C 288.4 79.6 288.9 79.9 289.1 80.2 C 289.4 80.6 289.6 81 289.7 81.6 C 289.8 81.9 289.8 82.5 289.8 83.3 C 289.8 83.3 289.8 85.9 289.8 85.9 C 289.8 87.7 289.9 88.9 290 89.3 C 290 89.8 290.2 90.3 290.5 90.7 C 290.45 90.7 288.4 90.7 288.4 90.7 C 288.4 90.7 288.43 90.7 288.4 90.7 Z M 287.9 85 C 287.2 85.3 286.1 85.5 284.7 85.7 C 283.9 85.8 283.4 86 283 86.1 C 282.7 86.2 282.5 86.4 282.3 86.7 C 282.1 87 282 87.3 282 87.6 C 282 88.2 282.2 88.6 282.6 88.9 C 283 89.3 283.6 89.4 284.3 89.4 C 285.1 89.4 285.7 89.3 286.3 89 C 286.9 88.6 287.3 88.2 287.6 87.6 C 287.8 87.2 287.9 86.5 287.9 85.7 C 287.9 85.7 287.9 85 287.9 85 Z M 296.2 89 C 296.4 89 296.7 89 297.1 89 C 297.1 89 297.3 90.7 297.3 90.7 C 296.8 90.8 296.3 90.9 295.9 90.9 C 295.2 90.9 294.6 90.7 294.2 90.5 C 293.9 90.3 293.6 90 293.4 89.6 C 293.3 89.3 293.2 88.5 293.2 87.4 C 293.19 87.36 293.2 80.8 293.2 80.8 L 291.8 80.8 L 291.8 79.3 L 293.2 79.3 L 293.2 76.5 L 295.1 75.3 L 295.1 79.3 L 297.1 79.3 L 297.1 80.8 L 295.1 80.8 C 295.1 80.8 295.11 87.47 295.1 87.5 C 295.1 88 295.1 88.4 295.2 88.5 C 295.3 88.7 295.4 88.8 295.5 88.9 C 295.7 89 295.9 89 296.2 89 C 296.2 89 296.2 89 296.2 89 Z M 306.8 87 C 306.8 87 308.8 87.3 308.8 87.3 C 308.4 88.4 307.9 89.4 307 90 C 306.2 90.6 305.1 91 303.7 91 C 302.1 91 300.7 90.4 299.8 89.4 C 298.8 88.4 298.3 87 298.3 85.1 C 298.3 83.2 298.8 81.7 299.8 80.6 C 300.8 79.6 302.1 79 303.6 79 C 305.2 79 306.4 79.6 307.4 80.6 C 308.3 81.6 308.8 83.1 308.8 85 C 308.8 85.1 308.8 85.3 308.8 85.5 C 308.8 85.5 300.3 85.5 300.3 85.5 C 300.4 86.7 300.7 87.7 301.4 88.4 C 302 89 302.8 89.4 303.8 89.4 C 304.5 89.4 305.1 89.2 305.6 88.8 C 306.1 88.4 306.5 87.8 306.8 87 Z M 300.4 83.9 C 300.4 83.9 306.8 83.9 306.8 83.9 C 306.7 82.9 306.5 82.2 306 81.7 C 305.4 81 304.6 80.6 303.7 80.6 C 302.8 80.6 302 80.9 301.4 81.5 C 300.8 82.1 300.5 82.9 300.4 83.9 Z M 324.7 90.7 C 324.7 90.7 324.7 89.26 324.7 89.3 C 324 90.4 322.9 91 321.5 91 C 320.6 91 319.8 90.7 319 90.2 C 318.2 89.7 317.6 89 317.2 88.1 C 316.8 87.2 316.6 86.2 316.6 85 C 316.6 83.9 316.8 82.8 317.2 81.9 C 317.5 81 318.1 80.3 318.9 79.8 C 319.6 79.3 320.5 79 321.4 79 C 322.1 79 322.7 79.2 323.3 79.5 C 323.8 79.8 324.2 80.1 324.6 80.6 C 324.57 80.61 324.6 75 324.6 75 L 326.5 75 L 326.5 90.7 L 324.7 90.7 Z M 318.6 85 C 318.6 86.5 318.9 87.6 319.5 88.3 C 320.1 89 320.9 89.4 321.7 89.4 C 322.5 89.4 323.3 89 323.8 88.3 C 324.4 87.6 324.7 86.6 324.7 85.2 C 324.7 83.6 324.4 82.5 323.8 81.7 C 323.2 81 322.5 80.6 321.6 80.6 C 320.7 80.6 320 81 319.5 81.7 C 318.9 82.4 318.6 83.5 318.6 85 Z M 337.4 90.7 C 337.2 90.3 337 89.8 337 89.3 C 336.3 89.9 335.6 90.3 334.9 90.6 C 334.2 90.8 333.5 91 332.8 91 C 331.5 91 330.6 90.7 329.9 90 C 329.2 89.4 328.9 88.6 328.9 87.7 C 328.9 87.1 329 86.6 329.3 86.2 C 329.5 85.7 329.8 85.3 330.3 85.1 C 330.7 84.8 331.1 84.6 331.6 84.4 C 332 84.3 332.6 84.2 333.4 84.1 C 334.9 83.9 336.1 83.7 336.8 83.5 C 336.8 83.2 336.8 83 336.8 83 C 336.8 82.2 336.6 81.6 336.3 81.3 C 335.8 80.9 335.1 80.6 334.1 80.6 C 333.2 80.6 332.5 80.8 332.1 81.1 C 331.6 81.4 331.3 82 331.1 82.8 C 331.1 82.8 329.2 82.6 329.2 82.6 C 329.4 81.7 329.7 81.1 330.1 80.6 C 330.5 80.1 331 79.7 331.8 79.4 C 332.5 79.2 333.4 79 334.4 79 C 335.3 79 336.1 79.2 336.7 79.4 C 337.3 79.6 337.8 79.9 338.1 80.2 C 338.4 80.6 338.6 81 338.7 81.6 C 338.7 81.9 338.8 82.5 338.8 83.3 C 338.8 83.3 338.8 85.9 338.8 85.9 C 338.8 87.7 338.8 88.9 338.9 89.3 C 339 89.8 339.1 90.3 339.4 90.7 C 339.38 90.7 337.4 90.7 337.4 90.7 C 337.4 90.7 337.36 90.7 337.4 90.7 Z M 336.8 85 C 336.1 85.3 335.1 85.5 333.7 85.7 C 332.9 85.8 332.3 86 332 86.1 C 331.6 86.2 331.4 86.4 331.2 86.7 C 331 87 330.9 87.3 330.9 87.6 C 330.9 88.2 331.1 88.6 331.5 88.9 C 331.9 89.3 332.5 89.4 333.2 89.4 C 334 89.4 334.6 89.3 335.2 89 C 335.8 88.6 336.2 88.2 336.5 87.6 C 336.7 87.2 336.8 86.5 336.8 85.7 C 336.8 85.7 336.8 85 336.8 85 Z M 345.1 89 C 345.4 89 345.6 89 346 89 C 346 89 346.3 90.7 346.3 90.7 C 345.7 90.8 345.2 90.9 344.8 90.9 C 344.1 90.9 343.6 90.7 343.2 90.5 C 342.8 90.3 342.5 90 342.4 89.6 C 342.2 89.3 342.1 88.5 342.1 87.4 C 342.12 87.36 342.1 80.8 342.1 80.8 L 340.7 80.8 L 340.7 79.3 L 342.1 79.3 L 342.1 76.5 L 344 75.3 L 344 79.3 L 346 79.3 L 346 80.8 L 344 80.8 C 344 80.8 344.04 87.47 344 87.5 C 344 88 344.1 88.4 344.1 88.5 C 344.2 88.7 344.3 88.8 344.5 88.9 C 344.6 89 344.9 89 345.1 89 C 345.1 89 345.1 89 345.1 89 Z M 355.7 90.7 C 355.5 90.3 355.4 89.8 355.3 89.3 C 354.6 89.9 353.9 90.3 353.3 90.6 C 352.6 90.8 351.9 91 351.1 91 C 349.9 91 348.9 90.7 348.2 90 C 347.6 89.4 347.2 88.6 347.2 87.7 C 347.2 87.1 347.4 86.6 347.6 86.2 C 347.9 85.7 348.2 85.3 348.6 85.1 C 349 84.8 349.5 84.6 350 84.4 C 350.4 84.3 350.9 84.2 351.7 84.1 C 353.3 83.9 354.4 83.7 355.2 83.5 C 355.2 83.2 355.2 83 355.2 83 C 355.2 82.2 355 81.6 354.6 81.3 C 354.1 80.9 353.4 80.6 352.4 80.6 C 351.5 80.6 350.8 80.8 350.4 81.1 C 350 81.4 349.7 82 349.4 82.8 C 349.4 82.8 347.6 82.6 347.6 82.6 C 347.7 81.7 348 81.1 348.4 80.6 C 348.8 80.1 349.4 79.7 350.1 79.4 C 350.9 79.2 351.7 79 352.7 79 C 353.7 79 354.5 79.2 355.1 79.4 C 355.7 79.6 356.1 79.9 356.4 80.2 C 356.7 80.6 356.9 81 357 81.6 C 357.1 81.9 357.1 82.5 357.1 83.3 C 357.1 83.3 357.1 85.9 357.1 85.9 C 357.1 87.7 357.2 88.9 357.2 89.3 C 357.3 89.8 357.5 90.3 357.7 90.7 C 357.73 90.7 355.7 90.7 355.7 90.7 C 355.7 90.7 355.71 90.7 355.7 90.7 Z M 355.2 85 C 354.5 85.3 353.4 85.5 352 85.7 C 351.2 85.8 350.6 86 350.3 86.1 C 350 86.2 349.7 86.4 349.6 86.7 C 349.4 87 349.3 87.3 349.3 87.6 C 349.3 88.2 349.5 88.6 349.9 88.9 C 350.3 89.3 350.8 89.4 351.6 89.4 C 352.3 89.4 353 89.3 353.6 89 C 354.2 88.6 354.6 88.2 354.9 87.6 C 355.1 87.2 355.2 86.5 355.2 85.7 C 355.2 85.7 355.2 85 355.2 85 Z " stroke="none" fill="#000"/>  </g>  <g id="Polygon8494">    <path d="M 31.5 64.3 L 31.5 48.6 L 33.5 48.6 L 33.5 55 L 41.7 55 L 41.7 48.6 L 43.8 48.6 L 43.8 64.3 L 41.7 64.3 L 41.7 56.9 L 33.5 56.9 L 33.5 64.3 L 31.5 64.3 Z M 54.8 60.6 C 54.8 60.6 56.8 60.9 56.8 60.9 C 56.5 62 55.9 63 55.1 63.6 C 54.2 64.2 53.1 64.6 51.8 64.6 C 50.2 64.6 48.8 64 47.9 63 C 46.9 62 46.4 60.6 46.4 58.7 C 46.4 56.8 46.9 55.3 47.9 54.2 C 48.9 53.2 50.1 52.6 51.7 52.6 C 53.2 52.6 54.5 53.2 55.5 54.2 C 56.4 55.2 56.9 56.7 56.9 58.6 C 56.9 58.7 56.9 58.9 56.9 59.1 C 56.9 59.1 48.4 59.1 48.4 59.1 C 48.5 60.3 48.8 61.3 49.5 62 C 50.1 62.6 50.9 63 51.8 63 C 52.5 63 53.1 62.8 53.7 62.4 C 54.2 62 54.6 61.4 54.8 60.6 Z M 48.5 57.5 C 48.5 57.5 54.9 57.5 54.9 57.5 C 54.8 56.5 54.5 55.8 54.1 55.3 C 53.5 54.6 52.7 54.2 51.7 54.2 C 50.9 54.2 50.1 54.5 49.5 55.1 C 48.9 55.7 48.6 56.5 48.5 57.5 Z M 59.2 64.3 L 59.2 48.6 L 61.2 48.6 L 61.2 64.3 L 59.2 64.3 Z M 64.2 68.7 L 64.2 52.9 L 65.9 52.9 C 65.9 52.9 65.92 54.38 65.9 54.4 C 66.3 53.8 66.8 53.4 67.3 53.1 C 67.8 52.8 68.5 52.6 69.2 52.6 C 70.2 52.6 71.1 52.9 71.8 53.4 C 72.6 53.9 73.1 54.6 73.5 55.5 C 73.9 56.4 74.1 57.4 74.1 58.5 C 74.1 59.7 73.9 60.7 73.4 61.7 C 73 62.6 72.4 63.3 71.6 63.8 C 70.8 64.3 70 64.6 69.1 64.6 C 68.4 64.6 67.9 64.4 67.4 64.2 C 66.8 63.9 66.4 63.5 66.1 63.1 C 66.09 63.12 66.1 68.7 66.1 68.7 L 64.2 68.7 Z M 65.9 58.7 C 65.9 60.1 66.2 61.2 66.8 61.9 C 67.4 62.6 68.1 63 69 63 C 69.8 63 70.6 62.6 71.2 61.9 C 71.8 61.2 72.1 60 72.1 58.5 C 72.1 57 71.8 56 71.2 55.2 C 70.6 54.5 69.9 54.2 69 54.2 C 68.2 54.2 67.5 54.5 66.9 55.3 C 66.2 56.1 65.9 57.2 65.9 58.7 Z M 75.6 60.9 C 75.6 60.9 77.5 60.6 77.5 60.6 C 77.6 61.4 77.9 62 78.4 62.4 C 78.9 62.8 79.6 63 80.5 63 C 81.4 63 82 62.8 82.5 62.4 C 82.9 62.1 83.1 61.6 83.1 61.2 C 83.1 60.7 82.9 60.4 82.5 60.1 C 82.3 60 81.6 59.7 80.6 59.5 C 79.1 59.1 78.2 58.8 77.6 58.5 C 77.1 58.3 76.6 57.9 76.4 57.5 C 76.1 57 75.9 56.5 75.9 55.9 C 75.9 55.4 76.1 54.9 76.3 54.5 C 76.5 54.1 76.8 53.7 77.2 53.4 C 77.5 53.2 78 53 78.5 52.9 C 79 52.7 79.5 52.6 80.1 52.6 C 81 52.6 81.8 52.8 82.5 53 C 83.2 53.3 83.7 53.6 84 54.1 C 84.3 54.5 84.5 55.1 84.7 55.8 C 84.7 55.8 82.8 56.1 82.8 56.1 C 82.7 55.5 82.4 55.1 82 54.7 C 81.6 54.4 81 54.2 80.3 54.2 C 79.4 54.2 78.8 54.4 78.4 54.7 C 78 55 77.8 55.3 77.8 55.7 C 77.8 55.9 77.9 56.2 78 56.4 C 78.2 56.6 78.5 56.8 78.8 56.9 C 79 57 79.6 57.1 80.5 57.4 C 81.9 57.8 82.8 58 83.4 58.3 C 83.9 58.5 84.3 58.9 84.6 59.3 C 84.9 59.7 85.1 60.3 85.1 61 C 85.1 61.6 84.9 62.2 84.5 62.8 C 84.2 63.3 83.6 63.8 82.9 64.1 C 82.2 64.4 81.4 64.6 80.5 64.6 C 79 64.6 77.9 64.3 77.1 63.6 C 76.3 63 75.8 62.1 75.6 60.9 Z M 93.5 64.3 L 93.5 48.6 L 95.4 48.6 L 95.4 64.3 L 93.5 64.3 Z M 106.2 60.6 C 106.2 60.6 108.2 60.9 108.2 60.9 C 107.9 62 107.3 63 106.4 63.6 C 105.6 64.2 104.5 64.6 103.2 64.6 C 101.5 64.6 100.2 64 99.2 63 C 98.2 62 97.7 60.6 97.7 58.7 C 97.7 56.8 98.2 55.3 99.2 54.2 C 100.2 53.2 101.5 52.6 103.1 52.6 C 104.6 52.6 105.8 53.2 106.8 54.2 C 107.8 55.2 108.3 56.7 108.3 58.6 C 108.3 58.7 108.3 58.9 108.3 59.1 C 108.3 59.1 99.7 59.1 99.7 59.1 C 99.8 60.3 100.2 61.3 100.8 62 C 101.4 62.6 102.2 63 103.2 63 C 103.9 63 104.5 62.8 105 62.4 C 105.5 62 105.9 61.4 106.2 60.6 Z M 99.9 57.5 C 99.9 57.5 106.2 57.5 106.2 57.5 C 106.1 56.5 105.9 55.8 105.5 55.3 C 104.9 54.6 104.1 54.2 103.1 54.2 C 102.2 54.2 101.5 54.5 100.9 55.1 C 100.3 55.7 99.9 56.5 99.9 57.5 Z M 118.5 64.3 C 118.3 63.9 118.1 63.4 118.1 62.9 C 117.4 63.5 116.7 63.9 116 64.2 C 115.3 64.4 114.6 64.6 113.9 64.6 C 112.6 64.6 111.7 64.3 111 63.6 C 110.3 63 110 62.2 110 61.3 C 110 60.7 110.1 60.2 110.4 59.8 C 110.6 59.3 110.9 58.9 111.4 58.7 C 111.8 58.4 112.2 58.2 112.7 58 C 113.1 57.9 113.7 57.8 114.5 57.7 C 116 57.5 117.2 57.3 117.9 57.1 C 117.9 56.8 117.9 56.6 117.9 56.6 C 117.9 55.8 117.7 55.2 117.4 54.9 C 116.9 54.5 116.1 54.2 115.2 54.2 C 114.3 54.2 113.6 54.4 113.2 54.7 C 112.7 55 112.4 55.6 112.2 56.4 C 112.2 56.4 110.3 56.2 110.3 56.2 C 110.5 55.3 110.8 54.7 111.2 54.2 C 111.5 53.7 112.1 53.3 112.9 53 C 113.6 52.8 114.5 52.6 115.5 52.6 C 116.4 52.6 117.2 52.8 117.8 53 C 118.4 53.2 118.9 53.5 119.2 53.8 C 119.5 54.2 119.7 54.6 119.8 55.2 C 119.8 55.5 119.9 56.1 119.9 56.9 C 119.9 56.9 119.9 59.5 119.9 59.5 C 119.9 61.3 119.9 62.5 120 62.9 C 120.1 63.4 120.2 63.9 120.5 64.3 C 120.48 64.3 118.5 64.3 118.5 64.3 C 118.5 64.3 118.46 64.3 118.5 64.3 Z M 117.9 58.6 C 117.2 58.9 116.2 59.1 114.8 59.3 C 114 59.4 113.4 59.6 113.1 59.7 C 112.7 59.8 112.5 60 112.3 60.3 C 112.1 60.6 112 60.9 112 61.2 C 112 61.8 112.2 62.2 112.6 62.5 C 113 62.9 113.6 63 114.3 63 C 115.1 63 115.7 62.9 116.3 62.6 C 116.9 62.2 117.3 61.8 117.6 61.2 C 117.8 60.8 117.9 60.1 117.9 59.3 C 117.9 59.3 117.9 58.6 117.9 58.6 Z M 122.8 64.3 L 122.8 52.9 L 124.6 52.9 C 124.6 52.9 124.58 54.62 124.6 54.6 C 125 53.8 125.4 53.3 125.8 53 C 126.2 52.8 126.6 52.6 127.1 52.6 C 127.7 52.6 128.4 52.8 129 53.3 C 129 53.3 128.4 55.1 128.4 55.1 C 127.9 54.8 127.4 54.6 127 54.6 C 126.5 54.6 126.2 54.8 125.8 55 C 125.5 55.3 125.2 55.6 125.1 56.1 C 124.9 56.8 124.8 57.5 124.8 58.3 C 124.78 58.33 124.8 64.3 124.8 64.3 L 122.8 64.3 Z M 130.2 64.3 L 130.2 52.9 L 131.9 52.9 C 131.9 52.9 131.93 54.52 131.9 54.5 C 132.8 53.3 134 52.6 135.6 52.6 C 136.2 52.6 136.9 52.8 137.5 53 C 138 53.3 138.5 53.6 138.8 54 C 139 54.4 139.2 54.9 139.4 55.4 C 139.4 55.8 139.5 56.4 139.5 57.3 C 139.46 57.29 139.5 64.3 139.5 64.3 L 137.5 64.3 C 137.5 64.3 137.53 57.36 137.5 57.4 C 137.5 56.6 137.5 56 137.3 55.6 C 137.2 55.2 136.9 54.9 136.5 54.7 C 136.1 54.4 135.7 54.3 135.2 54.3 C 134.3 54.3 133.6 54.6 133 55.1 C 132.4 55.6 132.1 56.6 132.1 58.1 C 132.12 58.07 132.1 64.3 132.1 64.3 L 130.2 64.3 Z M 150.2 60.6 C 150.2 60.6 152.2 60.9 152.2 60.9 C 151.9 62 151.3 63 150.5 63.6 C 149.6 64.2 148.5 64.6 147.2 64.6 C 145.5 64.6 144.2 64 143.2 63 C 142.3 62 141.8 60.6 141.8 58.7 C 141.8 56.8 142.3 55.3 143.3 54.2 C 144.3 53.2 145.5 52.6 147.1 52.6 C 148.6 52.6 149.9 53.2 150.8 54.2 C 151.8 55.2 152.3 56.7 152.3 58.6 C 152.3 58.7 152.3 58.9 152.3 59.1 C 152.3 59.1 143.8 59.1 143.8 59.1 C 143.8 60.3 144.2 61.3 144.8 62 C 145.5 62.6 146.3 63 147.2 63 C 147.9 63 148.5 62.8 149 62.4 C 149.5 62 149.9 61.4 150.2 60.6 Z M 143.9 57.5 C 143.9 57.5 150.3 57.5 150.3 57.5 C 150.2 56.5 149.9 55.8 149.5 55.3 C 148.9 54.6 148.1 54.2 147.1 54.2 C 146.2 54.2 145.5 54.5 144.9 55.1 C 144.3 55.7 144 56.5 143.9 57.5 Z M 154.6 64.3 L 154.6 52.9 L 156.4 52.9 C 156.4 52.9 156.38 54.62 156.4 54.6 C 156.8 53.8 157.2 53.3 157.6 53 C 158 52.8 158.4 52.6 158.8 52.6 C 159.5 52.6 160.2 52.8 160.8 53.3 C 160.8 53.3 160.2 55.1 160.2 55.1 C 159.7 54.8 159.2 54.6 158.8 54.6 C 158.3 54.6 158 54.8 157.6 55 C 157.3 55.3 157 55.6 156.9 56.1 C 156.7 56.8 156.6 57.5 156.6 58.3 C 156.57 58.33 156.6 64.3 156.6 64.3 L 154.6 64.3 Z M 161.2 60.9 C 161.2 60.9 163.1 60.6 163.1 60.6 C 163.2 61.4 163.5 62 164 62.4 C 164.5 62.8 165.2 63 166.1 63 C 167 63 167.6 62.8 168.1 62.4 C 168.5 62.1 168.7 61.6 168.7 61.2 C 168.7 60.7 168.5 60.4 168.1 60.1 C 167.9 60 167.2 59.7 166.2 59.5 C 164.7 59.1 163.8 58.8 163.2 58.5 C 162.7 58.3 162.2 57.9 162 57.5 C 161.7 57 161.5 56.5 161.5 55.9 C 161.5 55.4 161.7 54.9 161.9 54.5 C 162.1 54.1 162.4 53.7 162.8 53.4 C 163.1 53.2 163.5 53 164.1 52.9 C 164.6 52.7 165.1 52.6 165.7 52.6 C 166.6 52.6 167.4 52.8 168.1 53 C 168.8 53.3 169.3 53.6 169.6 54.1 C 169.9 54.5 170.1 55.1 170.3 55.8 C 170.3 55.8 168.4 56.1 168.4 56.1 C 168.3 55.5 168 55.1 167.6 54.7 C 167.2 54.4 166.6 54.2 165.9 54.2 C 165 54.2 164.4 54.4 164 54.7 C 163.6 55 163.4 55.3 163.4 55.7 C 163.4 55.9 163.5 56.2 163.6 56.4 C 163.8 56.6 164 56.8 164.4 56.9 C 164.6 57 165.1 57.1 166.1 57.4 C 167.5 57.8 168.4 58 169 58.3 C 169.5 58.5 169.9 58.9 170.2 59.3 C 170.5 59.7 170.7 60.3 170.7 61 C 170.7 61.6 170.5 62.2 170.1 62.8 C 169.7 63.3 169.2 63.8 168.5 64.1 C 167.8 64.4 167 64.6 166.1 64.6 C 164.6 64.6 163.5 64.3 162.7 63.6 C 161.9 63 161.4 62.1 161.2 60.9 Z M 186.6 64.3 C 186.6 64.3 186.58 62.63 186.6 62.6 C 185.7 63.9 184.5 64.6 183 64.6 C 182.3 64.6 181.7 64.4 181.1 64.2 C 180.5 63.9 180.1 63.6 179.8 63.2 C 179.5 62.8 179.3 62.3 179.2 61.8 C 179.1 61.4 179.1 60.8 179.1 60 C 179.06 59.96 179.1 52.9 179.1 52.9 L 181 52.9 C 181 52.9 180.99 59.22 181 59.2 C 181 60.2 181 60.9 181.1 61.3 C 181.2 61.8 181.5 62.2 181.9 62.5 C 182.3 62.8 182.8 62.9 183.3 62.9 C 183.9 62.9 184.5 62.7 185 62.5 C 185.5 62.2 185.8 61.7 186.1 61.2 C 186.3 60.7 186.4 60 186.4 59 C 186.37 59.01 186.4 52.9 186.4 52.9 L 188.3 52.9 L 188.3 64.3 L 186.6 64.3 Z M 191.3 64.3 L 191.3 52.9 L 193.1 52.9 C 193.1 52.9 193.07 54.52 193.1 54.5 C 193.9 53.3 195.1 52.6 196.7 52.6 C 197.4 52.6 198 52.8 198.6 53 C 199.2 53.3 199.6 53.6 199.9 54 C 200.2 54.4 200.4 54.9 200.5 55.4 C 200.6 55.8 200.6 56.4 200.6 57.3 C 200.6 57.29 200.6 64.3 200.6 64.3 L 198.7 64.3 C 198.7 64.3 198.67 57.36 198.7 57.4 C 198.7 56.6 198.6 56 198.4 55.6 C 198.3 55.2 198 54.9 197.6 54.7 C 197.3 54.4 196.8 54.3 196.3 54.3 C 195.5 54.3 194.8 54.6 194.2 55.1 C 193.6 55.6 193.3 56.6 193.3 58.1 C 193.27 58.07 193.3 64.3 193.3 64.3 L 191.3 64.3 Z M 211 64.3 C 211 64.3 210.97 62.86 211 62.9 C 210.2 64 209.2 64.6 207.8 64.6 C 206.9 64.6 206 64.3 205.3 63.8 C 204.5 63.3 203.9 62.6 203.5 61.7 C 203.1 60.8 202.9 59.8 202.9 58.6 C 202.9 57.5 203.1 56.4 203.4 55.5 C 203.8 54.6 204.4 53.9 205.1 53.4 C 205.9 52.9 206.8 52.6 207.7 52.6 C 208.4 52.6 209 52.8 209.5 53.1 C 210.1 53.4 210.5 53.7 210.8 54.2 C 210.84 54.21 210.8 48.6 210.8 48.6 L 212.8 48.6 L 212.8 64.3 L 211 64.3 Z M 204.9 58.6 C 204.9 60.1 205.2 61.2 205.8 61.9 C 206.4 62.6 207.1 63 208 63 C 208.8 63 209.5 62.6 210.1 61.9 C 210.7 61.2 211 60.2 211 58.8 C 211 57.2 210.7 56.1 210.1 55.3 C 209.5 54.6 208.8 54.2 207.9 54.2 C 207 54.2 206.3 54.6 205.7 55.3 C 205.1 56 204.9 57.1 204.9 58.6 Z M 223.6 60.6 C 223.6 60.6 225.6 60.9 225.6 60.9 C 225.3 62 224.7 63 223.9 63.6 C 223 64.2 221.9 64.6 220.6 64.6 C 218.9 64.6 217.6 64 216.6 63 C 215.6 62 215.2 60.6 215.2 58.7 C 215.2 56.8 215.7 55.3 216.6 54.2 C 217.6 53.2 218.9 52.6 220.5 52.6 C 222 52.6 223.3 53.2 224.2 54.2 C 225.2 55.2 225.7 56.7 225.7 58.6 C 225.7 58.7 225.7 58.9 225.7 59.1 C 225.7 59.1 217.2 59.1 217.2 59.1 C 217.2 60.3 217.6 61.3 218.2 62 C 218.9 62.6 219.7 63 220.6 63 C 221.3 63 221.9 62.8 222.4 62.4 C 222.9 62 223.3 61.4 223.6 60.6 Z M 217.3 57.5 C 217.3 57.5 223.6 57.5 223.6 57.5 C 223.5 56.5 223.3 55.8 222.9 55.3 C 222.3 54.6 221.5 54.2 220.5 54.2 C 219.6 54.2 218.9 54.5 218.3 55.1 C 217.7 55.7 217.3 56.5 217.3 57.5 Z M 228 64.3 L 228 52.9 L 229.8 52.9 C 229.8 52.9 229.76 54.62 229.8 54.6 C 230.2 53.8 230.6 53.3 231 53 C 231.4 52.8 231.8 52.6 232.2 52.6 C 232.9 52.6 233.5 52.8 234.2 53.3 C 234.2 53.3 233.6 55.1 233.6 55.1 C 233.1 54.8 232.6 54.6 232.1 54.6 C 231.7 54.6 231.3 54.8 231 55 C 230.7 55.3 230.4 55.6 230.3 56.1 C 230.1 56.8 230 57.5 230 58.3 C 229.95 58.33 230 64.3 230 64.3 L 228 64.3 Z M 234.6 60.9 C 234.6 60.9 236.5 60.6 236.5 60.6 C 236.6 61.4 236.9 62 237.4 62.4 C 237.9 62.8 238.6 63 239.5 63 C 240.3 63 241 62.8 241.4 62.4 C 241.9 62.1 242.1 61.6 242.1 61.2 C 242.1 60.7 241.9 60.4 241.5 60.1 C 241.2 60 240.6 59.7 239.5 59.5 C 238.1 59.1 237.1 58.8 236.6 58.5 C 236 58.3 235.6 57.9 235.3 57.5 C 235.1 57 234.9 56.5 234.9 55.9 C 234.9 55.4 235 54.9 235.3 54.5 C 235.5 54.1 235.8 53.7 236.2 53.4 C 236.5 53.2 236.9 53 237.4 52.9 C 238 52.7 238.5 52.6 239.1 52.6 C 240 52.6 240.8 52.8 241.5 53 C 242.1 53.3 242.6 53.6 243 54.1 C 243.3 54.5 243.5 55.1 243.6 55.8 C 243.6 55.8 241.7 56.1 241.7 56.1 C 241.7 55.5 241.4 55.1 241 54.7 C 240.6 54.4 240 54.2 239.3 54.2 C 238.4 54.2 237.7 54.4 237.4 54.7 C 237 55 236.8 55.3 236.8 55.7 C 236.8 55.9 236.9 56.2 237 56.4 C 237.2 56.6 237.4 56.8 237.8 56.9 C 238 57 238.5 57.1 239.5 57.4 C 240.8 57.8 241.8 58 242.3 58.3 C 242.9 58.5 243.3 58.9 243.6 59.3 C 243.9 59.7 244.1 60.3 244.1 61 C 244.1 61.6 243.9 62.2 243.5 62.8 C 243.1 63.3 242.6 63.8 241.9 64.1 C 241.2 64.4 240.4 64.6 239.5 64.6 C 238 64.6 236.9 64.3 236.1 63.6 C 235.3 63 234.8 62.1 234.6 60.9 Z M 249.7 62.6 C 250 62.6 250.2 62.6 250.6 62.6 C 250.6 62.6 250.9 64.3 250.9 64.3 C 250.3 64.4 249.8 64.5 249.4 64.5 C 248.7 64.5 248.2 64.3 247.8 64.1 C 247.4 63.9 247.1 63.6 247 63.2 C 246.8 62.9 246.7 62.1 246.7 61 C 246.72 60.96 246.7 54.4 246.7 54.4 L 245.3 54.4 L 245.3 52.9 L 246.7 52.9 L 246.7 50.1 L 248.6 48.9 L 248.6 52.9 L 250.6 52.9 L 250.6 54.4 L 248.6 54.4 C 248.6 54.4 248.64 61.07 248.6 61.1 C 248.6 61.6 248.7 62 248.7 62.1 C 248.8 62.3 248.9 62.4 249.1 62.5 C 249.2 62.6 249.5 62.6 249.7 62.6 C 249.7 62.6 249.7 62.6 249.7 62.6 Z M 260.3 64.3 C 260.1 63.9 260 63.4 259.9 62.9 C 259.2 63.5 258.5 63.9 257.9 64.2 C 257.2 64.4 256.5 64.6 255.7 64.6 C 254.5 64.6 253.5 64.3 252.8 63.6 C 252.2 63 251.8 62.2 251.8 61.3 C 251.8 60.7 252 60.2 252.2 59.8 C 252.5 59.3 252.8 58.9 253.2 58.7 C 253.6 58.4 254.1 58.2 254.6 58 C 255 57.9 255.5 57.8 256.3 57.7 C 257.9 57.5 259 57.3 259.8 57.1 C 259.8 56.8 259.8 56.6 259.8 56.6 C 259.8 55.8 259.6 55.2 259.2 54.9 C 258.7 54.5 258 54.2 257 54.2 C 256.1 54.2 255.4 54.4 255 54.7 C 254.6 55 254.3 55.6 254 56.4 C 254 56.4 252.2 56.2 252.2 56.2 C 252.3 55.3 252.6 54.7 253 54.2 C 253.4 53.7 254 53.3 254.7 53 C 255.5 52.8 256.3 52.6 257.3 52.6 C 258.3 52.6 259.1 52.8 259.7 53 C 260.3 53.2 260.7 53.5 261 53.8 C 261.3 54.2 261.5 54.6 261.6 55.2 C 261.7 55.5 261.7 56.1 261.7 56.9 C 261.7 56.9 261.7 59.5 261.7 59.5 C 261.7 61.3 261.8 62.5 261.8 62.9 C 261.9 63.4 262.1 63.9 262.3 64.3 C 262.33 64.3 260.3 64.3 260.3 64.3 C 260.3 64.3 260.31 64.3 260.3 64.3 Z M 259.8 58.6 C 259.1 58.9 258 59.1 256.6 59.3 C 255.8 59.4 255.2 59.6 254.9 59.7 C 254.6 59.8 254.3 60 254.2 60.3 C 254 60.6 253.9 60.9 253.9 61.2 C 253.9 61.8 254.1 62.2 254.5 62.5 C 254.9 62.9 255.4 63 256.2 63 C 256.9 63 257.6 62.9 258.2 62.6 C 258.8 62.2 259.2 61.8 259.5 61.2 C 259.7 60.8 259.8 60.1 259.8 59.3 C 259.8 59.3 259.8 58.6 259.8 58.6 Z M 264.7 64.3 L 264.7 52.9 L 266.5 52.9 C 266.5 52.9 266.45 54.52 266.5 54.5 C 267.3 53.3 268.5 52.6 270.1 52.6 C 270.8 52.6 271.4 52.8 272 53 C 272.6 53.3 273 53.6 273.3 54 C 273.6 54.4 273.8 54.9 273.9 55.4 C 273.9 55.8 274 56.4 274 57.3 C 273.98 57.29 274 64.3 274 64.3 L 272.1 64.3 C 272.1 64.3 272.05 57.36 272.1 57.4 C 272.1 56.6 272 56 271.8 55.6 C 271.7 55.2 271.4 54.9 271 54.7 C 270.6 54.4 270.2 54.3 269.7 54.3 C 268.9 54.3 268.1 54.6 267.5 55.1 C 266.9 55.6 266.6 56.6 266.6 58.1 C 266.65 58.07 266.6 64.3 266.6 64.3 L 264.7 64.3 Z M 284.4 64.3 C 284.4 64.3 284.35 62.86 284.4 62.9 C 283.6 64 282.6 64.6 281.2 64.6 C 280.3 64.6 279.4 64.3 278.7 63.8 C 277.9 63.3 277.3 62.6 276.9 61.7 C 276.5 60.8 276.3 59.8 276.3 58.6 C 276.3 57.5 276.4 56.4 276.8 55.5 C 277.2 54.6 277.8 53.9 278.5 53.4 C 279.3 52.9 280.1 52.6 281.1 52.6 C 281.8 52.6 282.4 52.8 282.9 53.1 C 283.4 53.4 283.9 53.7 284.2 54.2 C 284.22 54.21 284.2 48.6 284.2 48.6 L 286.1 48.6 L 286.1 64.3 L 284.4 64.3 Z M 278.2 58.6 C 278.2 60.1 278.5 61.2 279.2 61.9 C 279.8 62.6 280.5 63 281.3 63 C 282.2 63 282.9 62.6 283.5 61.9 C 284.1 61.2 284.4 60.2 284.4 58.8 C 284.4 57.2 284.1 56.1 283.5 55.3 C 282.9 54.6 282.1 54.2 281.3 54.2 C 280.4 54.2 279.7 54.6 279.1 55.3 C 278.5 56 278.2 57.1 278.2 58.6 Z M 295.3 64.3 L 295.3 48.6 L 297.2 48.6 C 297.2 48.6 297.23 54.21 297.2 54.2 C 298.1 53.2 299.3 52.6 300.6 52.6 C 301.5 52.6 302.2 52.8 302.8 53.1 C 303.5 53.5 303.9 53.9 304.2 54.5 C 304.5 55.1 304.6 56 304.6 57.1 C 304.59 57.07 304.6 64.3 304.6 64.3 L 302.7 64.3 C 302.7 64.3 302.66 57.07 302.7 57.1 C 302.7 56.1 302.4 55.4 302 55 C 301.6 54.5 301 54.3 300.2 54.3 C 299.7 54.3 299.1 54.5 298.6 54.7 C 298.1 55 297.8 55.4 297.6 56 C 297.3 56.5 297.2 57.2 297.2 58.1 C 297.23 58.06 297.2 64.3 297.2 64.3 L 295.3 64.3 Z M 306.8 58.6 C 306.8 56.5 307.4 54.9 308.6 53.9 C 309.6 53.1 310.8 52.6 312.2 52.6 C 313.7 52.6 315 53.2 316 54.2 C 317 55.2 317.5 56.6 317.5 58.4 C 317.5 59.9 317.3 61.1 316.8 61.9 C 316.4 62.7 315.8 63.4 314.9 63.9 C 314.1 64.3 313.2 64.6 312.2 64.6 C 310.6 64.6 309.3 64 308.3 63 C 307.3 62 306.8 60.5 306.8 58.6 Z M 308.8 58.6 C 308.8 60.1 309.1 61.2 309.8 61.9 C 310.4 62.6 311.2 63 312.2 63 C 313.1 63 313.9 62.6 314.6 61.9 C 315.2 61.1 315.5 60 315.5 58.5 C 315.5 57.1 315.2 56.1 314.6 55.3 C 313.9 54.6 313.1 54.2 312.2 54.2 C 311.2 54.2 310.4 54.6 309.8 55.3 C 309.1 56 308.8 57.1 308.8 58.6 Z M 321.9 64.3 L 318.4 52.9 L 320.4 52.9 L 322.2 59.5 C 322.2 59.5 322.87 61.93 322.9 61.9 C 322.9 61.8 323.1 61 323.5 59.6 C 323.46 59.58 325.3 52.9 325.3 52.9 L 327.3 52.9 L 329 59.5 L 329.5 61.7 L 330.2 59.5 L 332.2 52.9 L 334 52.9 L 330.5 64.3 L 328.5 64.3 L 326.6 57.5 L 326.2 55.5 L 323.9 64.3 L 321.9 64.3 Z " stroke="none" fill="#000"/>  </g>  <g id="Polygon8493">    <path d="M 35.7 25.7 L 27.9 25.7 L 26.7 29.4 L 22.5 29.4 L 29.6 9.8 L 34.1 9.8 L 41.2 29.4 L 37 29.4 L 35.7 25.7 Z M 34.7 22.5 L 31.8 14.4 L 29 22.5 L 34.7 22.5 Z M 58 15.9 C 58 16.9 57.8 17.9 57.3 18.8 C 56.8 19.8 56 20.5 55 21.1 C 53.9 21.6 52.6 21.9 51 21.9 C 50.98 21.9 47.7 21.9 47.7 21.9 L 47.7 29.4 L 43.8 29.4 L 43.8 9.9 C 43.8 9.9 50.98 9.86 51 9.9 C 52.5 9.9 53.8 10.1 54.8 10.6 C 55.9 11.2 56.7 11.9 57.2 12.8 C 57.8 13.7 58 14.7 58 15.9 C 58 15.9 58 15.9 58 15.9 Z M 50.8 18.7 C 51.9 18.7 52.7 18.5 53.2 18 C 53.7 17.5 54 16.8 54 15.9 C 54 14 52.9 13 50.8 13 C 50.81 13.05 47.7 13 47.7 13 L 47.7 18.7 L 50.8 18.7 C 50.8 18.7 50.81 18.73 50.8 18.7 Z M 64.7 9.9 L 64.7 29.4 L 60.8 29.4 L 60.8 9.9 L 64.7 9.9 Z M 90.3 29.4 C 90.3 29.4 88.17 27.3 88.2 27.3 C 86.4 28.9 84.1 29.7 81.5 29.7 C 80.1 29.7 78.8 29.5 77.7 29 C 76.6 28.5 75.8 27.8 75.2 26.9 C 74.6 26 74.3 24.9 74.3 23.7 C 74.3 22.5 74.7 21.3 75.4 20.3 C 76.1 19.2 77.2 18.4 78.6 17.8 C 78.1 17.2 77.8 16.6 77.5 16 C 77.3 15.4 77.2 14.8 77.2 14.2 C 77.2 13.3 77.4 12.5 77.9 11.7 C 78.4 11 79 10.5 79.9 10.1 C 80.8 9.6 81.8 9.4 82.9 9.4 C 84.1 9.4 85.1 9.7 86 10.1 C 86.8 10.6 87.4 11.2 87.8 11.9 C 88.2 12.6 88.4 13.5 88.4 14.4 C 88.4 14.4 84.6 14.4 84.6 14.4 C 84.6 13.8 84.4 13.3 84.1 13 C 83.8 12.7 83.4 12.5 82.8 12.5 C 82.3 12.5 81.9 12.6 81.5 12.9 C 81.2 13.3 81 13.7 81 14.1 C 81 14.6 81.1 15.1 81.4 15.5 C 81.7 16 82.2 16.5 82.8 17.2 C 82.8 17.2 87.7 22.1 87.7 22.1 C 87.8 22.1 87.8 22 87.8 22 C 87.8 21.9 87.8 21.9 87.9 21.9 C 87.86 21.87 89.5 19.2 89.5 19.2 L 93.5 19.2 C 93.5 19.2 91.58 22.65 91.6 22.7 C 91.2 23.4 90.8 24.1 90.4 24.7 C 90.38 24.72 95.1 29.4 95.1 29.4 L 90.3 29.4 Z M 81.6 26.5 C 83.2 26.5 84.5 25.9 85.7 24.9 C 85.7 24.9 80.9 20.1 80.9 20.1 C 79.1 20.9 78.2 22 78.2 23.5 C 78.2 24.4 78.5 25.1 79.1 25.6 C 79.8 26.2 80.6 26.5 81.6 26.5 C 81.6 26.5 81.6 26.5 81.6 26.5 Z M 107.6 9.9 L 107.6 29.4 L 103.7 29.4 L 103.7 9.9 L 107.6 9.9 Z M 120.1 13.7 C 121.9 13.7 123.4 14.2 124.6 15.4 C 125.7 16.6 126.3 18.2 126.3 20.3 C 126.27 20.3 126.3 29.4 126.3 29.4 L 122.4 29.4 C 122.4 29.4 122.35 20.83 122.4 20.8 C 122.4 19.6 122 18.7 121.4 18 C 120.8 17.3 120 17 118.9 17 C 117.8 17 117 17.3 116.3 18 C 115.7 18.7 115.4 19.6 115.4 20.8 C 115.41 20.83 115.4 29.4 115.4 29.4 L 111.5 29.4 L 111.5 13.9 L 115.4 13.9 C 115.4 13.9 115.41 15.82 115.4 15.8 C 115.9 15.1 116.6 14.6 117.4 14.2 C 118.2 13.9 119.1 13.7 120.1 13.7 C 120.1 13.7 120.1 13.7 120.1 13.7 Z M 134.6 17.1 C 134.6 17.1 134.56 24.61 134.6 24.6 C 134.6 25.1 134.7 25.5 134.9 25.7 C 135.2 26 135.6 26.1 136.2 26.1 C 136.21 26.1 138 26.1 138 26.1 L 138 29.4 C 138 29.4 135.57 29.4 135.6 29.4 C 132.3 29.4 130.6 27.8 130.6 24.6 C 130.61 24.58 130.6 17.1 130.6 17.1 L 128.8 17.1 L 128.8 13.9 L 130.6 13.9 L 130.6 10.1 L 134.6 10.1 L 134.6 13.9 L 138 13.9 L 138 17.1 L 134.6 17.1 Z M 155.3 21.3 C 155.3 21.9 155.2 22.4 155.2 22.8 C 155.2 22.8 143.8 22.8 143.8 22.8 C 143.9 23.9 144.3 24.8 145 25.5 C 145.7 26.1 146.5 26.4 147.6 26.4 C 149 26.4 150 25.8 150.7 24.5 C 150.7 24.5 154.9 24.5 154.9 24.5 C 154.4 26 153.6 27.2 152.3 28.2 C 151 29.2 149.5 29.7 147.6 29.7 C 146.1 29.7 144.8 29.3 143.6 28.7 C 142.4 28 141.5 27.1 140.8 25.8 C 140.2 24.6 139.9 23.2 139.9 21.6 C 139.9 20 140.2 18.6 140.8 17.4 C 141.5 16.2 142.4 15.3 143.6 14.6 C 144.8 14 146.1 13.6 147.6 13.6 C 149.1 13.6 150.4 14 151.6 14.6 C 152.8 15.2 153.7 16.1 154.3 17.3 C 155 18.5 155.3 19.8 155.3 21.3 C 155.3 21.3 155.3 21.3 155.3 21.3 Z M 151.2 20.2 C 151.2 19.2 150.8 18.4 150.1 17.8 C 149.4 17.2 148.6 16.9 147.5 16.9 C 146.6 16.9 145.7 17.1 145.1 17.7 C 144.4 18.3 144 19.1 143.9 20.2 C 143.9 20.2 151.2 20.2 151.2 20.2 Z M 164.2 13.6 C 165.4 13.6 166.4 13.9 167.3 14.3 C 168.1 14.8 168.8 15.4 169.3 16.1 C 169.34 16.1 169.3 13.9 169.3 13.9 L 173.3 13.9 C 173.3 13.9 173.29 29.51 173.3 29.5 C 173.3 30.9 173 32.2 172.4 33.4 C 171.8 34.5 171 35.4 169.8 36 C 168.7 36.7 167.3 37 165.6 37 C 163.4 37 161.6 36.5 160.2 35.5 C 158.8 34.5 158 33.1 157.8 31.3 C 157.8 31.3 161.7 31.3 161.7 31.3 C 161.9 32 162.3 32.6 163 33 C 163.7 33.4 164.5 33.6 165.5 33.6 C 166.6 33.6 167.6 33.3 168.3 32.6 C 169 31.9 169.3 30.9 169.3 29.5 C 169.3 29.5 169.3 27.1 169.3 27.1 C 168.8 27.8 168.1 28.4 167.3 28.9 C 166.4 29.4 165.4 29.7 164.2 29.7 C 162.9 29.7 161.7 29.3 160.6 28.6 C 159.5 28 158.7 27 158.1 25.8 C 157.4 24.6 157.1 23.2 157.1 21.6 C 157.1 20 157.4 18.6 158.1 17.4 C 158.7 16.2 159.5 15.3 160.6 14.6 C 161.7 14 162.9 13.6 164.2 13.6 C 164.2 13.6 164.2 13.6 164.2 13.6 Z M 169.3 21.6 C 169.3 20.7 169.2 19.9 168.8 19.2 C 168.4 18.5 167.9 18 167.3 17.6 C 166.6 17.3 165.9 17.1 165.2 17.1 C 164.5 17.1 163.8 17.3 163.2 17.6 C 162.6 18 162.1 18.5 161.7 19.2 C 161.3 19.8 161.1 20.7 161.1 21.6 C 161.1 22.5 161.3 23.3 161.7 24 C 162.1 24.7 162.6 25.3 163.2 25.6 C 163.8 26 164.5 26.2 165.2 26.2 C 165.9 26.2 166.6 26 167.3 25.7 C 167.9 25.3 168.4 24.8 168.8 24.1 C 169.2 23.4 169.3 22.6 169.3 21.6 C 169.3 21.6 169.3 21.6 169.3 21.6 Z M 181 16.3 C 181.5 15.5 182.2 14.8 183 14.4 C 183.8 13.9 184.8 13.7 185.8 13.7 C 185.8 13.66 185.8 17.8 185.8 17.8 C 185.8 17.8 184.76 17.78 184.8 17.8 C 183.5 17.8 182.6 18.1 182 18.6 C 181.4 19.2 181 20.2 181 21.7 C 181.04 21.67 181 29.4 181 29.4 L 177.1 29.4 L 177.1 13.9 L 181 13.9 L 181 16.3 C 181 16.3 181.04 16.3 181 16.3 Z M 187.4 21.6 C 187.4 20 187.7 18.6 188.4 17.4 C 189 16.2 189.8 15.3 190.9 14.6 C 192 14 193.2 13.6 194.5 13.6 C 195.7 13.6 196.7 13.9 197.5 14.3 C 198.4 14.8 199.1 15.4 199.6 16.1 C 199.63 16.1 199.6 13.9 199.6 13.9 L 203.6 13.9 L 203.6 29.4 L 199.6 29.4 C 199.6 29.4 199.63 27.13 199.6 27.1 C 199.1 27.9 198.4 28.5 197.5 28.9 C 196.7 29.4 195.6 29.7 194.5 29.7 C 193.2 29.7 192 29.3 190.9 28.6 C 189.8 28 189 27 188.4 25.8 C 187.7 24.6 187.4 23.2 187.4 21.6 C 187.4 21.6 187.4 21.6 187.4 21.6 Z M 199.6 21.6 C 199.6 20.7 199.4 19.9 199.1 19.2 C 198.7 18.5 198.2 18 197.6 17.6 C 196.9 17.3 196.2 17.1 195.5 17.1 C 194.8 17.1 194.1 17.3 193.5 17.6 C 192.9 18 192.4 18.5 192 19.2 C 191.6 19.8 191.4 20.7 191.4 21.6 C 191.4 22.5 191.6 23.3 192 24 C 192.4 24.7 192.9 25.3 193.5 25.6 C 194.1 26 194.8 26.2 195.5 26.2 C 196.2 26.2 196.9 26 197.6 25.7 C 198.2 25.3 198.7 24.8 199.1 24.1 C 199.4 23.4 199.6 22.6 199.6 21.6 C 199.6 21.6 199.6 21.6 199.6 21.6 Z M 212 17.1 C 212 17.1 211.98 24.61 212 24.6 C 212 25.1 212.1 25.5 212.4 25.7 C 212.6 26 213 26.1 213.6 26.1 C 213.63 26.1 215.5 26.1 215.5 26.1 L 215.5 29.4 C 215.5 29.4 212.99 29.4 213 29.4 C 209.7 29.4 208 27.8 208 24.6 C 208.03 24.58 208 17.1 208 17.1 L 206.2 17.1 L 206.2 13.9 L 208 13.9 L 208 10.1 L 212 10.1 L 212 13.9 L 215.5 13.9 L 215.5 17.1 L 212 17.1 Z M 220.3 12 C 219.6 12 219 11.8 218.5 11.4 C 218.1 10.9 217.9 10.4 217.9 9.7 C 217.9 9.1 218.1 8.5 218.5 8.1 C 219 7.7 219.6 7.4 220.3 7.4 C 221 7.4 221.5 7.7 222 8.1 C 222.4 8.5 222.7 9.1 222.7 9.7 C 222.7 10.4 222.4 10.9 222 11.4 C 221.5 11.8 221 12 220.3 12 C 220.3 12 220.3 12 220.3 12 Z M 222.2 13.9 L 222.2 29.4 L 218.3 29.4 L 218.3 13.9 L 222.2 13.9 Z M 233 29.7 C 231.5 29.7 230.1 29.3 228.9 28.7 C 227.7 28 226.8 27.1 226.1 25.8 C 225.4 24.6 225.1 23.2 225.1 21.6 C 225.1 20.1 225.4 18.7 226.1 17.4 C 226.8 16.2 227.8 15.3 229 14.6 C 230.2 14 231.6 13.6 233.1 13.6 C 234.6 13.6 235.9 14 237.1 14.6 C 238.3 15.3 239.3 16.2 240 17.4 C 240.7 18.7 241 20.1 241 21.6 C 241 23.2 240.7 24.6 240 25.8 C 239.2 27.1 238.3 28 237.1 28.7 C 235.8 29.3 234.5 29.7 233 29.7 C 233 29.7 233 29.7 233 29.7 Z M 233 26.2 C 233.7 26.2 234.3 26.1 235 25.7 C 235.6 25.4 236.1 24.9 236.5 24.2 C 236.8 23.5 237 22.6 237 21.6 C 237 20.2 236.6 19 235.9 18.2 C 235.1 17.4 234.1 17.1 233 17.1 C 231.9 17.1 231 17.4 230.2 18.2 C 229.4 19 229.1 20.2 229.1 21.6 C 229.1 23.1 229.4 24.3 230.2 25 C 230.9 25.8 231.8 26.2 233 26.2 C 233 26.2 233 26.2 233 26.2 Z M 252.5 13.7 C 254.4 13.7 255.9 14.2 257 15.4 C 258.1 16.6 258.7 18.2 258.7 20.3 C 258.71 20.3 258.7 29.4 258.7 29.4 L 254.8 29.4 C 254.8 29.4 254.79 20.83 254.8 20.8 C 254.8 19.6 254.5 18.7 253.9 18 C 253.3 17.3 252.4 17 251.3 17 C 250.3 17 249.4 17.3 248.8 18 C 248.2 18.7 247.8 19.6 247.8 20.8 C 247.85 20.83 247.8 29.4 247.8 29.4 L 243.9 29.4 L 243.9 13.9 L 247.8 13.9 C 247.8 13.9 247.85 15.82 247.8 15.8 C 248.4 15.1 249 14.6 249.8 14.2 C 250.7 13.9 251.6 13.7 252.5 13.7 C 252.5 13.7 252.5 13.7 252.5 13.7 Z M 282.4 9.9 L 282.4 13 L 277.2 13 L 277.2 29.4 L 273.3 29.4 L 273.3 13 L 268.1 13 L 268.1 9.9 L 282.4 9.9 Z M 292.1 29.7 C 290.6 29.7 289.3 29.3 288.1 28.7 C 286.9 28 286 27.1 285.3 25.8 C 284.6 24.6 284.3 23.2 284.3 21.6 C 284.3 20.1 284.6 18.7 285.3 17.4 C 286 16.2 287 15.3 288.2 14.6 C 289.4 14 290.8 13.6 292.3 13.6 C 293.7 13.6 295.1 14 296.3 14.6 C 297.5 15.3 298.5 16.2 299.2 17.4 C 299.9 18.7 300.2 20.1 300.2 21.6 C 300.2 23.2 299.9 24.6 299.2 25.8 C 298.4 27.1 297.5 28 296.2 28.7 C 295 29.3 293.7 29.7 292.1 29.7 C 292.1 29.7 292.1 29.7 292.1 29.7 Z M 292.1 26.2 C 292.9 26.2 293.5 26.1 294.1 25.7 C 294.8 25.4 295.3 24.9 295.6 24.2 C 296 23.5 296.2 22.6 296.2 21.6 C 296.2 20.2 295.8 19 295 18.2 C 294.3 17.4 293.3 17.1 292.2 17.1 C 291.1 17.1 290.1 17.4 289.4 18.2 C 288.6 19 288.3 20.2 288.3 21.6 C 288.3 23.1 288.6 24.3 289.4 25 C 290.1 25.8 291 26.2 292.1 26.2 C 292.1 26.2 292.1 26.2 292.1 26.2 Z M 310 29.7 C 308.5 29.7 307.2 29.3 306 28.7 C 304.8 28 303.8 27.1 303.2 25.8 C 302.5 24.6 302.1 23.2 302.1 21.6 C 302.1 20.1 302.5 18.7 303.2 17.4 C 303.9 16.2 304.8 15.3 306.1 14.6 C 307.3 14 308.6 13.6 310.1 13.6 C 311.6 13.6 313 14 314.2 14.6 C 315.4 15.3 316.3 16.2 317 17.4 C 317.7 18.7 318.1 20.1 318.1 21.6 C 318.1 23.2 317.7 24.6 317 25.8 C 316.3 27.1 315.3 28 314.1 28.7 C 312.9 29.3 311.5 29.7 310 29.7 C 310 29.7 310 29.7 310 29.7 Z M 310 26.2 C 310.7 26.2 311.4 26.1 312 25.7 C 312.6 25.4 313.1 24.9 313.5 24.2 C 313.9 23.5 314.1 22.6 314.1 21.6 C 314.1 20.2 313.7 19 312.9 18.2 C 312.1 17.4 311.2 17.1 310.1 17.1 C 308.9 17.1 308 17.4 307.2 18.2 C 306.5 19 306.1 20.2 306.1 21.6 C 306.1 23.1 306.5 24.3 307.2 25 C 308 25.8 308.9 26.2 310 26.2 C 310 26.2 310 26.2 310 26.2 Z M 324.9 8.7 L 324.9 29.4 L 321 29.4 L 321 8.7 L 324.9 8.7 Z M 334.7 29.7 C 333.4 29.7 332.3 29.4 331.3 29 C 330.3 28.5 329.5 27.9 328.9 27.1 C 328.3 26.3 328 25.5 327.9 24.5 C 327.9 24.5 331.9 24.5 331.9 24.5 C 331.9 25.1 332.2 25.6 332.8 26 C 333.3 26.4 333.9 26.6 334.7 26.6 C 335.4 26.6 336 26.4 336.4 26.1 C 336.8 25.8 337.1 25.4 337.1 25 C 337.1 24.5 336.8 24.1 336.3 23.8 C 335.8 23.6 335 23.3 333.8 23 C 332.7 22.7 331.7 22.4 331 22.1 C 330.3 21.8 329.6 21.4 329.1 20.8 C 328.6 20.2 328.3 19.3 328.3 18.3 C 328.3 17.4 328.5 16.6 329 15.9 C 329.5 15.2 330.2 14.7 331.2 14.3 C 332.1 13.8 333.2 13.6 334.4 13.6 C 336.3 13.6 337.7 14.1 338.8 15 C 339.9 15.9 340.6 17.2 340.7 18.8 C 340.7 18.8 336.9 18.8 336.9 18.8 C 336.9 18.1 336.6 17.7 336.1 17.3 C 335.7 16.9 335.1 16.7 334.3 16.7 C 333.6 16.7 333.1 16.9 332.7 17.1 C 332.3 17.4 332.1 17.8 332.1 18.2 C 332.1 18.8 332.4 19.1 332.9 19.4 C 333.4 19.7 334.2 20 335.3 20.2 C 336.4 20.5 337.4 20.8 338.1 21.1 C 338.8 21.4 339.4 21.9 340 22.5 C 340.5 23.1 340.8 23.9 340.8 25 C 340.8 25.9 340.6 26.7 340.1 27.4 C 339.6 28.1 338.9 28.6 337.9 29 C 337 29.5 335.9 29.7 334.7 29.7 C 334.7 29.7 334.7 29.7 334.7 29.7 Z " stroke="none" fill="#e4007e"/>  </g></svg>