<?xml version="1.0" standalone="no"?><!DOCTYPE svg PUBLIC "-//W3C//DTD SVG 1.1//EN" "http://www.w3.org/Graphics/SVG/1.1/DTD/svg11.dtd"><svg xmlns="http://www.w3.org/2000/svg" version="1.1" width="421.4px" height="82.7px" viewBox="0 -8 421.4 82.7" style="top:-8px">  <desc>Tier 1 Core Tech Stack</desc>  <defs/>  <g id="Polygon6761">    <path d="M 121 44.9 C 121 43.4 121.4 42 122.1 40.8 C 122.8 39.6 123.7 38.7 124.9 38 C 126 37.3 127.4 37 128.8 37 C 130.6 37 132.1 37.4 133.3 38.3 C 134.6 39.2 135.5 40.4 136.1 42 C 136.1 42 132.5 42 132.5 42 C 132.2 41.2 131.7 40.7 131 40.3 C 130.4 40 129.7 39.8 128.8 39.8 C 127.9 39.8 127.1 40 126.4 40.4 C 125.7 40.8 125.2 41.4 124.8 42.2 C 124.4 42.9 124.2 43.8 124.2 44.9 C 124.2 45.9 124.4 46.8 124.8 47.5 C 125.2 48.3 125.7 48.9 126.4 49.3 C 127.1 49.7 127.9 49.9 128.8 49.9 C 129.7 49.9 130.4 49.8 131 49.4 C 131.7 49 132.2 48.5 132.5 47.7 C 132.5 47.7 136.1 47.7 136.1 47.7 C 135.5 49.3 134.6 50.5 133.4 51.4 C 132.1 52.3 130.6 52.7 128.8 52.7 C 127.4 52.7 126 52.4 124.9 51.7 C 123.7 51 122.8 50.1 122.1 48.9 C 121.4 47.7 121 46.4 121 44.9 C 121 44.9 121 44.9 121 44.9 Z M 144.1 52.8 C 142.9 52.8 141.9 52.5 140.9 52 C 140 51.5 139.3 50.7 138.7 49.8 C 138.2 48.8 137.9 47.7 137.9 46.5 C 137.9 45.2 138.2 44.1 138.7 43.2 C 139.3 42.2 140 41.5 141 41 C 142 40.4 143 40.2 144.2 40.2 C 145.4 40.2 146.4 40.4 147.4 41 C 148.3 41.5 149.1 42.2 149.6 43.2 C 150.2 44.1 150.5 45.2 150.5 46.5 C 150.5 47.7 150.2 48.8 149.6 49.8 C 149.1 50.7 148.3 51.5 147.3 52 C 146.4 52.5 145.3 52.8 144.1 52.8 C 144.1 52.8 144.1 52.8 144.1 52.8 Z M 144.1 50.1 C 144.7 50.1 145.2 49.9 145.7 49.7 C 146.2 49.4 146.6 49 146.9 48.4 C 147.1 47.9 147.3 47.2 147.3 46.5 C 147.3 45.3 147 44.4 146.4 43.8 C 145.8 43.2 145 42.9 144.1 42.9 C 143.3 42.9 142.5 43.2 141.9 43.8 C 141.3 44.4 141 45.3 141 46.5 C 141 47.6 141.3 48.5 141.9 49.1 C 142.5 49.8 143.2 50.1 144.1 50.1 C 144.1 50.1 144.1 50.1 144.1 50.1 Z M 155.8 42.3 C 156.2 41.6 156.7 41.1 157.4 40.7 C 158 40.4 158.7 40.2 159.5 40.2 C 159.55 40.2 159.5 43.4 159.5 43.4 C 159.5 43.4 158.73 43.43 158.7 43.4 C 157.8 43.4 157 43.7 156.5 44.1 C 156.1 44.6 155.8 45.4 155.8 46.5 C 155.81 46.49 155.8 52.6 155.8 52.6 L 152.7 52.6 L 152.7 40.4 L 155.8 40.4 L 155.8 42.3 C 155.8 42.3 155.81 42.27 155.8 42.3 Z M 172.9 46.2 C 172.9 46.6 172.9 47 172.9 47.4 C 172.9 47.4 163.9 47.4 163.9 47.4 C 164 48.3 164.3 49 164.9 49.5 C 165.4 50 166.1 50.2 166.9 50.2 C 168 50.2 168.8 49.7 169.3 48.7 C 169.3 48.7 172.6 48.7 172.6 48.7 C 172.3 49.9 171.6 50.9 170.6 51.6 C 169.6 52.4 168.4 52.8 166.9 52.8 C 165.8 52.8 164.7 52.5 163.8 52 C 162.9 51.5 162.1 50.7 161.6 49.8 C 161.1 48.8 160.8 47.7 160.8 46.5 C 160.8 45.2 161.1 44.1 161.6 43.1 C 162.1 42.2 162.8 41.5 163.8 40.9 C 164.7 40.4 165.7 40.2 166.9 40.2 C 168.1 40.2 169.1 40.4 170.1 40.9 C 171 41.4 171.7 42.1 172.2 43 C 172.7 44 172.9 45 172.9 46.2 C 172.9 46.2 172.9 46.2 172.9 46.2 Z M 169.8 45.3 C 169.7 44.5 169.5 43.9 168.9 43.4 C 168.3 42.9 167.7 42.7 166.9 42.7 C 166.1 42.7 165.4 42.9 164.9 43.4 C 164.4 43.9 164.1 44.5 164 45.3 C 164 45.3 169.8 45.3 169.8 45.3 Z M 190.9 37.2 L 190.9 39.7 L 186.8 39.7 L 186.8 52.6 L 183.7 52.6 L 183.7 39.7 L 179.6 39.7 L 179.6 37.2 L 190.9 37.2 Z M 204.4 46.2 C 204.4 46.6 204.4 47 204.4 47.4 C 204.4 47.4 195.5 47.4 195.5 47.4 C 195.5 48.3 195.8 49 196.4 49.5 C 196.9 50 197.6 50.2 198.4 50.2 C 199.5 50.2 200.3 49.7 200.8 48.7 C 200.8 48.7 204.1 48.7 204.1 48.7 C 203.8 49.9 203.1 50.9 202.1 51.6 C 201.1 52.4 199.9 52.8 198.4 52.8 C 197.3 52.8 196.2 52.5 195.3 52 C 194.4 51.5 193.6 50.7 193.1 49.8 C 192.6 48.8 192.3 47.7 192.3 46.5 C 192.3 45.2 192.6 44.1 193.1 43.1 C 193.6 42.2 194.3 41.5 195.3 40.9 C 196.2 40.4 197.2 40.2 198.4 40.2 C 199.6 40.2 200.6 40.4 201.6 40.9 C 202.5 41.4 203.2 42.1 203.7 43 C 204.2 44 204.4 45 204.4 46.2 C 204.4 46.2 204.4 46.2 204.4 46.2 Z M 201.3 45.3 C 201.2 44.5 201 43.9 200.4 43.4 C 199.8 42.9 199.2 42.7 198.4 42.7 C 197.6 42.7 197 42.9 196.4 43.4 C 195.9 43.9 195.6 44.5 195.5 45.3 C 195.5 45.3 201.3 45.3 201.3 45.3 Z M 205.9 46.5 C 205.9 45.2 206.2 44.1 206.7 43.2 C 207.2 42.2 207.9 41.5 208.8 41 C 209.7 40.4 210.8 40.2 211.9 40.2 C 213.4 40.2 214.7 40.6 215.7 41.3 C 216.7 42.1 217.3 43.1 217.7 44.5 C 217.7 44.5 214.3 44.5 214.3 44.5 C 214.2 44 213.9 43.5 213.5 43.2 C 213 42.9 212.5 42.8 211.9 42.8 C 211 42.8 210.3 43.1 209.8 43.8 C 209.3 44.4 209 45.3 209 46.5 C 209 47.6 209.3 48.5 209.8 49.2 C 210.3 49.8 211 50.1 211.9 50.1 C 213.2 50.1 214 49.6 214.3 48.4 C 214.3 48.4 217.7 48.4 217.7 48.4 C 217.3 49.8 216.7 50.8 215.7 51.6 C 214.7 52.4 213.4 52.8 211.9 52.8 C 210.8 52.8 209.7 52.5 208.8 52 C 207.9 51.5 207.2 50.7 206.7 49.8 C 206.2 48.8 205.9 47.7 205.9 46.5 C 205.9 46.5 205.9 46.5 205.9 46.5 Z M 226.8 40.2 C 227.7 40.2 228.5 40.4 229.3 40.8 C 230 41.2 230.5 41.8 230.9 42.6 C 231.4 43.4 231.6 44.3 231.6 45.4 C 231.55 45.41 231.6 52.6 231.6 52.6 L 228.5 52.6 C 228.5 52.6 228.47 45.83 228.5 45.8 C 228.5 44.9 228.2 44.1 227.7 43.6 C 227.3 43.1 226.6 42.8 225.8 42.8 C 224.9 42.8 224.2 43.1 223.8 43.6 C 223.3 44.1 223 44.9 223 45.8 C 223.02 45.83 223 52.6 223 52.6 L 219.9 52.6 L 219.9 36.3 L 223 36.3 C 223 36.3 223.02 41.89 223 41.9 C 223.4 41.4 223.9 41 224.6 40.6 C 225.3 40.3 226 40.2 226.8 40.2 C 226.8 40.2 226.8 40.2 226.8 40.2 Z M 245 52.7 C 243.9 52.7 243 52.5 242.1 52.2 C 241.3 51.8 240.6 51.3 240.1 50.6 C 239.6 49.9 239.3 49.1 239.3 48.1 C 239.3 48.1 242.6 48.1 242.6 48.1 C 242.7 48.8 242.9 49.3 243.3 49.6 C 243.7 50 244.2 50.2 245 50.2 C 245.7 50.2 246.2 50 246.6 49.7 C 247.1 49.3 247.3 48.9 247.3 48.3 C 247.3 47.9 247.1 47.5 246.8 47.2 C 246.6 46.9 246.2 46.7 245.8 46.5 C 245.4 46.3 244.8 46.1 244.1 45.9 C 243.1 45.6 242.3 45.4 241.6 45.1 C 241 44.8 240.5 44.4 240 43.8 C 239.6 43.2 239.4 42.4 239.4 41.5 C 239.4 40.5 239.6 39.8 240 39.1 C 240.5 38.4 241.1 37.9 242 37.5 C 242.8 37.2 243.7 37 244.8 37 C 246.4 37 247.6 37.4 248.6 38.1 C 249.6 38.9 250.2 40 250.3 41.4 C 250.3 41.4 246.9 41.4 246.9 41.4 C 246.9 40.8 246.6 40.4 246.2 40.1 C 245.8 39.7 245.2 39.5 244.6 39.5 C 244 39.5 243.5 39.7 243.1 40 C 242.8 40.3 242.6 40.8 242.6 41.3 C 242.6 41.8 242.7 42.1 243 42.4 C 243.3 42.6 243.6 42.9 244 43 C 244.4 43.2 245 43.4 245.7 43.6 C 246.7 43.9 247.5 44.2 248.1 44.5 C 248.8 44.8 249.3 45.2 249.8 45.8 C 250.2 46.4 250.5 47.2 250.5 48.1 C 250.5 48.9 250.2 49.7 249.8 50.4 C 249.4 51.1 248.8 51.7 247.9 52.1 C 247.1 52.5 246.1 52.7 245 52.7 C 245 52.7 245 52.7 245 52.7 Z M 256.7 42.9 C 256.7 42.9 256.7 48.8 256.7 48.8 C 256.7 49.2 256.8 49.5 257 49.7 C 257.2 49.9 257.5 50 258 50 C 258 49.97 259.4 50 259.4 50 L 259.4 52.6 C 259.4 52.6 257.49 52.56 257.5 52.6 C 254.9 52.6 253.6 51.3 253.6 48.8 C 253.6 48.78 253.6 42.9 253.6 42.9 L 252.1 42.9 L 252.1 40.4 L 253.6 40.4 L 253.6 37.4 L 256.7 37.4 L 256.7 40.4 L 259.4 40.4 L 259.4 42.9 L 256.7 42.9 Z M 260.9 46.4 C 260.9 45.2 261.1 44.1 261.6 43.1 C 262.1 42.2 262.8 41.5 263.6 40.9 C 264.4 40.4 265.4 40.2 266.4 40.2 C 267.3 40.2 268.1 40.4 268.8 40.7 C 269.5 41.1 270 41.6 270.4 42.1 C 270.45 42.11 270.4 40.4 270.4 40.4 L 273.6 40.4 L 273.6 52.6 L 270.4 52.6 C 270.4 52.6 270.45 50.78 270.4 50.8 C 270.1 51.4 269.5 51.8 268.8 52.2 C 268.1 52.6 267.3 52.8 266.4 52.8 C 265.4 52.8 264.4 52.5 263.6 52 C 262.8 51.4 262.1 50.7 261.6 49.7 C 261.1 48.8 260.9 47.7 260.9 46.4 C 260.9 46.4 260.9 46.4 260.9 46.4 Z M 270.4 46.5 C 270.4 45.7 270.3 45.1 270 44.5 C 269.7 44 269.3 43.6 268.8 43.3 C 268.3 43 267.8 42.9 267.2 42.9 C 266.6 42.9 266.1 43 265.6 43.3 C 265.1 43.6 264.8 44 264.5 44.5 C 264.2 45.1 264 45.7 264 46.4 C 264 47.2 264.2 47.8 264.5 48.3 C 264.8 48.9 265.2 49.3 265.6 49.6 C 266.1 49.9 266.7 50.1 267.2 50.1 C 267.8 50.1 268.3 49.9 268.8 49.6 C 269.3 49.3 269.7 48.9 270 48.4 C 270.3 47.9 270.4 47.2 270.4 46.5 C 270.4 46.5 270.4 46.5 270.4 46.5 Z M 275.8 46.5 C 275.8 45.2 276 44.1 276.5 43.2 C 277.1 42.2 277.8 41.5 278.7 41 C 279.6 40.4 280.6 40.2 281.8 40.2 C 283.3 40.2 284.6 40.6 285.6 41.3 C 286.5 42.1 287.2 43.1 287.5 44.5 C 287.5 44.5 284.2 44.5 284.2 44.5 C 284 44 283.7 43.5 283.3 43.2 C 282.9 42.9 282.4 42.8 281.8 42.8 C 280.9 42.8 280.2 43.1 279.7 43.8 C 279.2 44.4 278.9 45.3 278.9 46.5 C 278.9 47.6 279.2 48.5 279.7 49.2 C 280.2 49.8 280.9 50.1 281.8 50.1 C 283 50.1 283.8 49.6 284.2 48.4 C 284.2 48.4 287.5 48.4 287.5 48.4 C 287.2 49.8 286.5 50.8 285.5 51.6 C 284.5 52.4 283.3 52.8 281.8 52.8 C 280.6 52.8 279.6 52.5 278.7 52 C 277.8 51.5 277.1 50.7 276.5 49.8 C 276 48.8 275.8 47.7 275.8 46.5 C 275.8 46.5 275.8 46.5 275.8 46.5 Z M 297 52.6 L 292.9 47.4 L 292.9 52.6 L 289.8 52.6 L 289.8 36.3 L 292.9 36.3 L 292.9 45.5 L 297 40.4 L 301 40.4 L 295.6 46.5 L 301 52.6 L 297 52.6 Z " stroke="none" fill="#fff"/>  </g>  <g id="Polygon6760">    <path d="M 186.9 1.5 L 186.9 3 L 178.9 3 L 178.9 23.3 L 177.2 23.3 L 177.2 3 L 169.3 3 L 169.3 1.5 L 186.9 1.5 Z M 191.5 1.5 L 191.5 23.3 L 189.8 23.3 L 189.8 1.5 L 191.5 1.5 Z M 208 1.5 L 208 3 L 198.1 3 L 198.1 11.6 L 207.7 11.6 L 207.7 13.1 L 198.1 13.1 L 198.1 21.8 L 208.2 21.8 L 208.2 23.3 L 196.5 23.3 L 196.5 1.5 L 208 1.5 Z M 211.9 1.5 C 211.9 1.5 217.43 1.5 217.4 1.5 C 221.8 1.5 224.1 3.7 224.1 7.2 C 224.1 10 222.4 11.9 219.5 12.5 C 221 13.2 221.7 13.8 223.1 16.1 C 223.12 16.06 227.8 23.3 227.8 23.3 L 225.7 23.3 C 225.7 23.3 221.56 16.64 221.6 16.6 C 219.7 13.7 218.4 13 216.2 13 C 216.24 13.02 213.6 13 213.6 13 L 213.6 23.3 L 211.9 23.3 L 211.9 1.5 Z M 216.1 11.5 C 219.8 11.5 222.4 10.6 222.4 7.2 C 222.4 4 220.1 3 217 3 C 217.01 3.01 213.6 3 213.6 3 L 213.6 11.5 C 213.6 11.5 216.12 11.49 216.1 11.5 Z M 246.5 1.2 L 246.5 23.3 L 244.8 23.3 L 244.8 4 L 240.3 7.5 L 239.4 6.3 L 245.7 1.2 L 246.5 1.2 Z " stroke="none" fill="#fff"/>  </g></svg>