<?xml version="1.0" standalone="no"?><!DOCTYPE svg PUBLIC "-//W3C//DTD SVG 1.1//EN" "http://www.w3.org/Graphics/SVG/1.1/DTD/svg11.dtd"><svg xmlns="http://www.w3.org/2000/svg" version="1.1" width="364px" height="131.6px" viewBox="0 -2 364 131.6" style="top:-2px">  <desc>Process Mapping Tools Supports workflow analysis, identifying inefficiencies, and planning automation solutions.</desc>  <defs/>  <g id="Polygon6954">    <path d="M 34.8 121.5 L 34.8 105.7 L 36.6 105.7 C 36.6 105.7 36.56 107.18 36.6 107.2 C 37 106.6 37.4 106.2 38 105.9 C 38.5 105.6 39.1 105.4 39.9 105.4 C 40.8 105.4 41.7 105.7 42.4 106.2 C 43.2 106.7 43.8 107.4 44.1 108.3 C 44.5 109.2 44.7 110.2 44.7 111.3 C 44.7 112.5 44.5 113.5 44.1 114.5 C 43.7 115.4 43 116.1 42.2 116.6 C 41.4 117.1 40.6 117.4 39.7 117.4 C 39.1 117.4 38.5 117.2 38 117 C 37.5 116.7 37.1 116.3 36.7 115.9 C 36.73 115.92 36.7 121.5 36.7 121.5 L 34.8 121.5 Z M 36.5 111.5 C 36.5 112.9 36.8 114 37.4 114.7 C 38 115.4 38.8 115.8 39.6 115.8 C 40.5 115.8 41.2 115.4 41.8 114.7 C 42.4 114 42.7 112.8 42.7 111.3 C 42.7 109.8 42.4 108.8 41.8 108 C 41.2 107.3 40.5 107 39.7 107 C 38.9 107 38.1 107.3 37.5 108.1 C 36.9 108.9 36.5 110 36.5 111.5 Z M 47 117.1 L 47 101.4 L 48.9 101.4 L 48.9 117.1 L 47 117.1 Z M 59.8 117.1 C 59.6 116.7 59.4 116.2 59.4 115.7 C 58.6 116.3 58 116.7 57.3 117 C 56.6 117.2 55.9 117.4 55.2 117.4 C 53.9 117.4 52.9 117.1 52.3 116.4 C 51.6 115.8 51.3 115 51.3 114.1 C 51.3 113.5 51.4 113 51.6 112.6 C 51.9 112.1 52.2 111.7 52.6 111.5 C 53.1 111.2 53.5 111 54 110.8 C 54.4 110.7 55 110.6 55.8 110.5 C 57.3 110.3 58.5 110.1 59.2 109.9 C 59.2 109.6 59.2 109.4 59.2 109.4 C 59.2 108.6 59 108 58.7 107.7 C 58.2 107.3 57.4 107 56.5 107 C 55.6 107 54.9 107.2 54.5 107.5 C 54 107.8 53.7 108.4 53.5 109.2 C 53.5 109.2 51.6 109 51.6 109 C 51.8 108.1 52.1 107.5 52.4 107 C 52.8 106.5 53.4 106.1 54.2 105.8 C 54.9 105.6 55.8 105.4 56.7 105.4 C 57.7 105.4 58.5 105.6 59.1 105.8 C 59.7 106 60.2 106.3 60.5 106.6 C 60.7 107 60.9 107.4 61.1 108 C 61.1 108.3 61.2 108.9 61.2 109.7 C 61.2 109.7 61.2 112.3 61.2 112.3 C 61.2 114.1 61.2 115.3 61.3 115.7 C 61.4 116.2 61.5 116.7 61.8 117.1 C 61.77 117.1 59.8 117.1 59.8 117.1 C 59.8 117.1 59.75 117.1 59.8 117.1 Z M 59.2 111.4 C 58.5 111.7 57.5 111.9 56 112.1 C 55.3 112.2 54.7 112.4 54.4 112.5 C 54 112.6 53.8 112.8 53.6 113.1 C 53.4 113.4 53.3 113.7 53.3 114 C 53.3 114.6 53.5 115 53.9 115.3 C 54.3 115.7 54.9 115.8 55.6 115.8 C 56.4 115.8 57 115.7 57.6 115.4 C 58.2 115 58.6 114.6 58.9 114 C 59.1 113.6 59.2 112.9 59.2 112.1 C 59.2 112.1 59.2 111.4 59.2 111.4 Z M 64.2 117.1 L 64.2 105.7 L 65.9 105.7 C 65.9 105.7 65.9 107.32 65.9 107.3 C 66.7 106.1 67.9 105.4 69.5 105.4 C 70.2 105.4 70.8 105.6 71.4 105.8 C 72 106.1 72.4 106.4 72.7 106.8 C 73 107.2 73.2 107.7 73.3 108.2 C 73.4 108.6 73.4 109.2 73.4 110.1 C 73.43 110.09 73.4 117.1 73.4 117.1 L 71.5 117.1 C 71.5 117.1 71.49 110.16 71.5 110.2 C 71.5 109.4 71.4 108.8 71.3 108.4 C 71.1 108 70.9 107.7 70.5 107.5 C 70.1 107.2 69.6 107.1 69.1 107.1 C 68.3 107.1 67.6 107.4 67 107.9 C 66.4 108.4 66.1 109.4 66.1 110.9 C 66.09 110.87 66.1 117.1 66.1 117.1 L 64.2 117.1 Z M 76.4 117.1 L 76.4 105.7 L 78.1 105.7 C 78.1 105.7 78.13 107.32 78.1 107.3 C 79 106.1 80.2 105.4 81.8 105.4 C 82.5 105.4 83.1 105.6 83.7 105.8 C 84.2 106.1 84.7 106.4 85 106.8 C 85.2 107.2 85.4 107.7 85.6 108.2 C 85.6 108.6 85.7 109.2 85.7 110.1 C 85.66 110.09 85.7 117.1 85.7 117.1 L 83.7 117.1 C 83.7 117.1 83.73 110.16 83.7 110.2 C 83.7 109.4 83.7 108.8 83.5 108.4 C 83.4 108 83.1 107.7 82.7 107.5 C 82.3 107.2 81.9 107.1 81.4 107.1 C 80.5 107.1 79.8 107.4 79.2 107.9 C 78.6 108.4 78.3 109.4 78.3 110.9 C 78.33 110.87 78.3 117.1 78.3 117.1 L 76.4 117.1 Z M 88.6 103.6 L 88.6 101.4 L 90.6 101.4 L 90.6 103.6 L 88.6 103.6 Z M 88.6 117.1 L 88.6 105.7 L 90.6 105.7 L 90.6 117.1 L 88.6 117.1 Z M 93.5 117.1 L 93.5 105.7 L 95.3 105.7 C 95.3 105.7 95.26 107.32 95.3 107.3 C 96.1 106.1 97.3 105.4 98.9 105.4 C 99.6 105.4 100.2 105.6 100.8 105.8 C 101.4 106.1 101.8 106.4 102.1 106.8 C 102.4 107.2 102.6 107.7 102.7 108.2 C 102.8 108.6 102.8 109.2 102.8 110.1 C 102.79 110.09 102.8 117.1 102.8 117.1 L 100.9 117.1 C 100.9 117.1 100.85 110.16 100.9 110.2 C 100.9 109.4 100.8 108.8 100.6 108.4 C 100.5 108 100.2 107.7 99.8 107.5 C 99.4 107.2 99 107.1 98.5 107.1 C 97.7 107.1 96.9 107.4 96.3 107.9 C 95.7 108.4 95.4 109.4 95.4 110.9 C 95.45 110.87 95.4 117.1 95.4 117.1 L 93.5 117.1 Z M 105.4 118 C 105.4 118 107.3 118.3 107.3 118.3 C 107.4 118.9 107.6 119.3 107.9 119.6 C 108.4 120 109.1 120.1 109.9 120.1 C 110.8 120.1 111.5 120 112 119.6 C 112.5 119.2 112.8 118.7 113 118.1 C 113.1 117.7 113.1 116.9 113.1 115.6 C 112.3 116.6 111.2 117.1 109.9 117.1 C 108.4 117.1 107.2 116.5 106.3 115.4 C 105.4 114.3 105 112.9 105 111.3 C 105 110.2 105.2 109.2 105.6 108.3 C 106 107.4 106.6 106.7 107.3 106.2 C 108.1 105.7 108.9 105.4 110 105.4 C 111.3 105.4 112.4 106 113.3 107.1 C 113.28 107.07 113.3 105.7 113.3 105.7 L 115.1 105.7 C 115.1 105.7 115.06 115.56 115.1 115.6 C 115.1 117.3 114.9 118.6 114.5 119.3 C 114.2 120.1 113.6 120.7 112.8 121.1 C 112 121.5 111.1 121.7 109.9 121.7 C 108.5 121.7 107.4 121.4 106.6 120.8 C 105.8 120.2 105.4 119.3 105.4 118 Z M 107 111.2 C 107 112.7 107.3 113.8 107.9 114.5 C 108.5 115.2 109.2 115.5 110.1 115.5 C 111 115.5 111.8 115.2 112.4 114.5 C 113 113.8 113.3 112.7 113.3 111.3 C 113.3 109.9 112.9 108.8 112.3 108.1 C 111.7 107.4 111 107 110.1 107 C 109.2 107 108.5 107.4 107.9 108.1 C 107.3 108.8 107 109.8 107 111.2 Z M 131.9 117.1 C 131.7 116.7 131.6 116.2 131.5 115.7 C 130.8 116.3 130.1 116.7 129.5 117 C 128.8 117.2 128.1 117.4 127.3 117.4 C 126.1 117.4 125.1 117.1 124.5 116.4 C 123.8 115.8 123.4 115 123.4 114.1 C 123.4 113.5 123.6 113 123.8 112.6 C 124.1 112.1 124.4 111.7 124.8 111.5 C 125.2 111.2 125.7 111 126.2 110.8 C 126.6 110.7 127.2 110.6 127.9 110.5 C 129.5 110.3 130.6 110.1 131.4 109.9 C 131.4 109.6 131.4 109.4 131.4 109.4 C 131.4 108.6 131.2 108 130.8 107.7 C 130.4 107.3 129.6 107 128.6 107 C 127.7 107 127.1 107.2 126.6 107.5 C 126.2 107.8 125.9 108.4 125.7 109.2 C 125.7 109.2 123.8 109 123.8 109 C 123.9 108.1 124.2 107.5 124.6 107 C 125 106.5 125.6 106.1 126.3 105.8 C 127.1 105.6 127.9 105.4 128.9 105.4 C 129.9 105.4 130.7 105.6 131.3 105.8 C 131.9 106 132.4 106.3 132.6 106.6 C 132.9 107 133.1 107.4 133.2 108 C 133.3 108.3 133.3 108.9 133.3 109.7 C 133.3 109.7 133.3 112.3 133.3 112.3 C 133.3 114.1 133.4 115.3 133.5 115.7 C 133.5 116.2 133.7 116.7 133.9 117.1 C 133.95 117.1 131.9 117.1 131.9 117.1 C 131.9 117.1 131.93 117.1 131.9 117.1 Z M 131.4 111.4 C 130.7 111.7 129.6 111.9 128.2 112.1 C 127.4 112.2 126.9 112.4 126.5 112.5 C 126.2 112.6 126 112.8 125.8 113.1 C 125.6 113.4 125.5 113.7 125.5 114 C 125.5 114.6 125.7 115 126.1 115.3 C 126.5 115.7 127.1 115.8 127.8 115.8 C 128.5 115.8 129.2 115.7 129.8 115.4 C 130.4 115 130.8 114.6 131.1 114 C 131.3 113.6 131.4 112.9 131.4 112.1 C 131.4 112.1 131.4 111.4 131.4 111.4 Z M 143.8 117.1 C 143.8 117.1 143.81 115.43 143.8 115.4 C 142.9 116.7 141.7 117.4 140.2 117.4 C 139.5 117.4 138.9 117.2 138.3 117 C 137.7 116.7 137.3 116.4 137 116 C 136.7 115.6 136.5 115.1 136.4 114.6 C 136.3 114.2 136.3 113.6 136.3 112.8 C 136.29 112.76 136.3 105.7 136.3 105.7 L 138.2 105.7 C 138.2 105.7 138.22 112.02 138.2 112 C 138.2 113 138.3 113.7 138.3 114.1 C 138.5 114.6 138.7 115 139.1 115.3 C 139.5 115.6 140 115.7 140.6 115.7 C 141.2 115.7 141.7 115.5 142.2 115.3 C 142.7 115 143.1 114.5 143.3 114 C 143.5 113.5 143.6 112.8 143.6 111.8 C 143.61 111.81 143.6 105.7 143.6 105.7 L 145.5 105.7 L 145.5 117.1 L 143.8 117.1 Z M 151.9 115.4 C 152.2 115.4 152.4 115.4 152.8 115.4 C 152.8 115.4 153.1 117.1 153.1 117.1 C 152.5 117.2 152 117.3 151.6 117.3 C 150.9 117.3 150.4 117.1 150 116.9 C 149.6 116.7 149.3 116.4 149.2 116 C 149 115.7 148.9 114.9 148.9 113.8 C 148.92 113.76 148.9 107.2 148.9 107.2 L 147.5 107.2 L 147.5 105.7 L 148.9 105.7 L 148.9 102.9 L 150.8 101.7 L 150.8 105.7 L 152.8 105.7 L 152.8 107.2 L 150.8 107.2 C 150.8 107.2 150.85 113.87 150.8 113.9 C 150.8 114.4 150.9 114.8 150.9 114.9 C 151 115.1 151.1 115.2 151.3 115.3 C 151.4 115.4 151.7 115.4 151.9 115.4 C 151.9 115.4 151.9 115.4 151.9 115.4 Z M 154 111.4 C 154 109.3 154.5 107.7 155.7 106.7 C 156.7 105.9 157.9 105.4 159.3 105.4 C 160.9 105.4 162.2 106 163.2 107 C 164.2 108 164.7 109.4 164.7 111.2 C 164.7 112.7 164.4 113.9 164 114.7 C 163.5 115.5 162.9 116.2 162.1 116.7 C 161.2 117.1 160.3 117.4 159.3 117.4 C 157.7 117.4 156.4 116.8 155.4 115.8 C 154.5 114.8 154 113.3 154 111.4 Z M 155.9 111.4 C 155.9 112.9 156.3 114 156.9 114.7 C 157.5 115.4 158.3 115.8 159.3 115.8 C 160.3 115.8 161.1 115.4 161.7 114.7 C 162.3 113.9 162.7 112.8 162.7 111.3 C 162.7 109.9 162.3 108.9 161.7 108.1 C 161.1 107.4 160.3 107 159.3 107 C 158.3 107 157.5 107.4 156.9 108.1 C 156.3 108.8 155.9 109.9 155.9 111.4 Z M 166.9 117.1 L 166.9 105.7 L 168.6 105.7 C 168.6 105.7 168.65 107.3 168.6 107.3 C 169 106.7 169.5 106.3 170.1 105.9 C 170.7 105.6 171.3 105.4 172.1 105.4 C 173 105.4 173.6 105.6 174.2 106 C 174.7 106.3 175.1 106.8 175.3 107.4 C 176.2 106.1 177.4 105.4 178.9 105.4 C 180 105.4 180.9 105.8 181.5 106.4 C 182.1 107 182.4 108 182.4 109.3 C 182.37 109.27 182.4 117.1 182.4 117.1 L 180.5 117.1 C 180.5 117.1 180.45 109.92 180.5 109.9 C 180.5 109.1 180.4 108.6 180.3 108.2 C 180.1 107.9 179.9 107.6 179.6 107.4 C 179.3 107.2 178.9 107.1 178.4 107.1 C 177.6 107.1 177 107.4 176.4 107.9 C 175.9 108.4 175.6 109.3 175.6 110.5 C 175.63 110.48 175.6 117.1 175.6 117.1 L 173.7 117.1 C 173.7 117.1 173.7 109.69 173.7 109.7 C 173.7 108.8 173.5 108.2 173.2 107.8 C 172.9 107.3 172.4 107.1 171.7 107.1 C 171.1 107.1 170.6 107.3 170.2 107.5 C 169.7 107.8 169.4 108.2 169.2 108.8 C 169 109.4 168.9 110.1 168.9 111.2 C 168.85 111.18 168.9 117.1 168.9 117.1 L 166.9 117.1 Z M 193.1 117.1 C 192.9 116.7 192.7 116.2 192.7 115.7 C 192 116.3 191.3 116.7 190.6 117 C 190 117.2 189.2 117.4 188.5 117.4 C 187.2 117.4 186.3 117.1 185.6 116.4 C 184.9 115.8 184.6 115 184.6 114.1 C 184.6 113.5 184.7 113 185 112.6 C 185.2 112.1 185.6 111.7 186 111.5 C 186.4 111.2 186.8 111 187.4 110.8 C 187.7 110.7 188.3 110.6 189.1 110.5 C 190.6 110.3 191.8 110.1 192.5 109.9 C 192.5 109.6 192.5 109.4 192.5 109.4 C 192.5 108.6 192.4 108 192 107.7 C 191.5 107.3 190.8 107 189.8 107 C 188.9 107 188.2 107.2 187.8 107.5 C 187.3 107.8 187 108.4 186.8 109.2 C 186.8 109.2 184.9 109 184.9 109 C 185.1 108.1 185.4 107.5 185.8 107 C 186.2 106.5 186.7 106.1 187.5 105.8 C 188.2 105.6 189.1 105.4 190.1 105.4 C 191 105.4 191.8 105.6 192.4 105.8 C 193 106 193.5 106.3 193.8 106.6 C 194.1 107 194.3 107.4 194.4 108 C 194.4 108.3 194.5 108.9 194.5 109.7 C 194.5 109.7 194.5 112.3 194.5 112.3 C 194.5 114.1 194.5 115.3 194.6 115.7 C 194.7 116.2 194.9 116.7 195.1 117.1 C 195.09 117.1 193.1 117.1 193.1 117.1 C 193.1 117.1 193.07 117.1 193.1 117.1 Z M 192.5 111.4 C 191.8 111.7 190.8 111.9 189.4 112.1 C 188.6 112.2 188 112.4 187.7 112.5 C 187.4 112.6 187.1 112.8 186.9 113.1 C 186.7 113.4 186.7 113.7 186.7 114 C 186.7 114.6 186.8 115 187.2 115.3 C 187.6 115.7 188.2 115.8 188.9 115.8 C 189.7 115.8 190.4 115.7 190.9 115.4 C 191.5 115 191.9 114.6 192.2 114 C 192.4 113.6 192.5 112.9 192.5 112.1 C 192.5 112.1 192.5 111.4 192.5 111.4 Z M 200.9 115.4 C 201.1 115.4 201.3 115.4 201.7 115.4 C 201.7 115.4 202 117.1 202 117.1 C 201.4 117.2 200.9 117.3 200.5 117.3 C 199.8 117.3 199.3 117.1 198.9 116.9 C 198.5 116.7 198.2 116.4 198.1 116 C 197.9 115.7 197.8 114.9 197.8 113.8 C 197.83 113.76 197.8 107.2 197.8 107.2 L 196.4 107.2 L 196.4 105.7 L 197.8 105.7 L 197.8 102.9 L 199.8 101.7 L 199.8 105.7 L 201.7 105.7 L 201.7 107.2 L 199.8 107.2 C 199.8 107.2 199.76 113.87 199.8 113.9 C 199.8 114.4 199.8 114.8 199.9 114.9 C 199.9 115.1 200 115.2 200.2 115.3 C 200.3 115.4 200.6 115.4 200.9 115.4 C 200.9 115.4 200.9 115.4 200.9 115.4 Z M 203.6 103.6 L 203.6 101.4 L 205.5 101.4 L 205.5 103.6 L 203.6 103.6 Z M 203.6 117.1 L 203.6 105.7 L 205.5 105.7 L 205.5 117.1 L 203.6 117.1 Z M 207.8 111.4 C 207.8 109.3 208.3 107.7 209.5 106.7 C 210.5 105.9 211.7 105.4 213.1 105.4 C 214.7 105.4 216 106 217 107 C 217.9 108 218.4 109.4 218.4 111.2 C 218.4 112.7 218.2 113.9 217.8 114.7 C 217.3 115.5 216.7 116.2 215.9 116.7 C 215 117.1 214.1 117.4 213.1 117.4 C 211.5 117.4 210.2 116.8 209.2 115.8 C 208.3 114.8 207.8 113.3 207.8 111.4 Z M 209.7 111.4 C 209.7 112.9 210.1 114 210.7 114.7 C 211.3 115.4 212.1 115.8 213.1 115.8 C 214.1 115.8 214.9 115.4 215.5 114.7 C 216.1 113.9 216.5 112.8 216.5 111.3 C 216.5 109.9 216.1 108.9 215.5 108.1 C 214.9 107.4 214.1 107 213.1 107 C 212.1 107 211.3 107.4 210.7 108.1 C 210.1 108.8 209.7 109.9 209.7 111.4 Z M 220.7 117.1 L 220.7 105.7 L 222.5 105.7 C 222.5 105.7 222.45 107.32 222.5 107.3 C 223.3 106.1 224.5 105.4 226.1 105.4 C 226.8 105.4 227.4 105.6 228 105.8 C 228.6 106.1 229 106.4 229.3 106.8 C 229.6 107.2 229.8 107.7 229.9 108.2 C 229.9 108.6 230 109.2 230 110.1 C 229.98 110.09 230 117.1 230 117.1 L 228.1 117.1 C 228.1 117.1 228.05 110.16 228.1 110.2 C 228.1 109.4 228 108.8 227.8 108.4 C 227.7 108 227.4 107.7 227 107.5 C 226.6 107.2 226.2 107.1 225.7 107.1 C 224.9 107.1 224.1 107.4 223.5 107.9 C 222.9 108.4 222.6 109.4 222.6 110.9 C 222.65 110.87 222.6 117.1 222.6 117.1 L 220.7 117.1 Z M 238.3 113.7 C 238.3 113.7 240.2 113.4 240.2 113.4 C 240.3 114.2 240.6 114.8 241.1 115.2 C 241.6 115.6 242.3 115.8 243.2 115.8 C 244 115.8 244.7 115.6 245.1 115.2 C 245.6 114.9 245.8 114.4 245.8 114 C 245.8 113.5 245.6 113.2 245.2 112.9 C 244.9 112.8 244.3 112.5 243.2 112.3 C 241.8 111.9 240.8 111.6 240.3 111.3 C 239.7 111.1 239.3 110.7 239 110.3 C 238.8 109.8 238.6 109.3 238.6 108.7 C 238.6 108.2 238.7 107.7 239 107.3 C 239.2 106.9 239.5 106.5 239.9 106.2 C 240.2 106 240.6 105.8 241.1 105.7 C 241.7 105.5 242.2 105.4 242.8 105.4 C 243.7 105.4 244.5 105.6 245.2 105.8 C 245.8 106.1 246.3 106.4 246.7 106.9 C 247 107.3 247.2 107.9 247.3 108.6 C 247.3 108.6 245.4 108.9 245.4 108.9 C 245.4 108.3 245.1 107.9 244.7 107.5 C 244.3 107.2 243.7 107 243 107 C 242.1 107 241.4 107.2 241 107.5 C 240.7 107.8 240.5 108.1 240.5 108.5 C 240.5 108.7 240.6 109 240.7 109.2 C 240.9 109.4 241.1 109.6 241.5 109.7 C 241.7 109.8 242.2 109.9 243.2 110.2 C 244.5 110.6 245.5 110.8 246 111.1 C 246.6 111.3 247 111.7 247.3 112.1 C 247.6 112.5 247.8 113.1 247.8 113.8 C 247.8 114.4 247.6 115 247.2 115.6 C 246.8 116.1 246.3 116.6 245.6 116.9 C 244.9 117.2 244.1 117.4 243.2 117.4 C 241.7 117.4 240.6 117.1 239.8 116.4 C 239 115.8 238.5 114.9 238.3 113.7 Z M 249.3 111.4 C 249.3 109.3 249.9 107.7 251.1 106.7 C 252.1 105.9 253.3 105.4 254.7 105.4 C 256.3 105.4 257.5 106 258.5 107 C 259.5 108 260 109.4 260 111.2 C 260 112.7 259.8 113.9 259.4 114.7 C 258.9 115.5 258.3 116.2 257.4 116.7 C 256.6 117.1 255.7 117.4 254.7 117.4 C 253.1 117.4 251.8 116.8 250.8 115.8 C 249.8 114.8 249.3 113.3 249.3 111.4 Z M 251.3 111.4 C 251.3 112.9 251.6 114 252.3 114.7 C 252.9 115.4 253.7 115.8 254.7 115.8 C 255.7 115.8 256.4 115.4 257.1 114.7 C 257.7 113.9 258 112.8 258 111.3 C 258 109.9 257.7 108.9 257.1 108.1 C 256.4 107.4 255.6 107 254.7 107 C 253.7 107 252.9 107.4 252.3 108.1 C 251.6 108.8 251.3 109.9 251.3 111.4 Z M 262.3 117.1 L 262.3 101.4 L 264.2 101.4 L 264.2 117.1 L 262.3 117.1 Z M 274.7 117.1 C 274.7 117.1 274.66 115.43 274.7 115.4 C 273.8 116.7 272.6 117.4 271 117.4 C 270.4 117.4 269.7 117.2 269.2 117 C 268.6 116.7 268.1 116.4 267.9 116 C 267.6 115.6 267.4 115.1 267.3 114.6 C 267.2 114.2 267.1 113.6 267.1 112.8 C 267.14 112.76 267.1 105.7 267.1 105.7 L 269.1 105.7 C 269.1 105.7 269.08 112.02 269.1 112 C 269.1 113 269.1 113.7 269.2 114.1 C 269.3 114.6 269.6 115 270 115.3 C 270.4 115.6 270.8 115.7 271.4 115.7 C 272 115.7 272.6 115.5 273.1 115.3 C 273.6 115 273.9 114.5 274.1 114 C 274.4 113.5 274.5 112.8 274.5 111.8 C 274.46 111.81 274.5 105.7 274.5 105.7 L 276.4 105.7 L 276.4 117.1 L 274.7 117.1 Z M 282.8 115.4 C 283 115.4 283.3 115.4 283.6 115.4 C 283.6 115.4 283.9 117.1 283.9 117.1 C 283.4 117.2 282.9 117.3 282.5 117.3 C 281.8 117.3 281.2 117.1 280.8 116.9 C 280.4 116.7 280.2 116.4 280 116 C 279.9 115.7 279.8 114.9 279.8 113.8 C 279.77 113.76 279.8 107.2 279.8 107.2 L 278.4 107.2 L 278.4 105.7 L 279.8 105.7 L 279.8 102.9 L 281.7 101.7 L 281.7 105.7 L 283.6 105.7 L 283.6 107.2 L 281.7 107.2 C 281.7 107.2 281.7 113.87 281.7 113.9 C 281.7 114.4 281.7 114.8 281.8 114.9 C 281.9 115.1 282 115.2 282.1 115.3 C 282.3 115.4 282.5 115.4 282.8 115.4 C 282.8 115.4 282.8 115.4 282.8 115.4 Z M 285.5 103.6 L 285.5 101.4 L 287.5 101.4 L 287.5 103.6 L 285.5 103.6 Z M 285.5 117.1 L 285.5 105.7 L 287.5 105.7 L 287.5 117.1 L 285.5 117.1 Z M 289.7 111.4 C 289.7 109.3 290.3 107.7 291.5 106.7 C 292.4 105.9 293.6 105.4 295 105.4 C 296.6 105.4 297.9 106 298.9 107 C 299.9 108 300.4 109.4 300.4 111.2 C 300.4 112.7 300.2 113.9 299.7 114.7 C 299.3 115.5 298.6 116.2 297.8 116.7 C 297 117.1 296 117.4 295 117.4 C 293.5 117.4 292.2 116.8 291.2 115.8 C 290.2 114.8 289.7 113.3 289.7 111.4 Z M 291.7 111.4 C 291.7 112.9 292 114 292.6 114.7 C 293.3 115.4 294.1 115.8 295 115.8 C 296 115.8 296.8 115.4 297.4 114.7 C 298.1 113.9 298.4 112.8 298.4 111.3 C 298.4 109.9 298.1 108.9 297.4 108.1 C 296.8 107.4 296 107 295 107 C 294.1 107 293.3 107.4 292.6 108.1 C 292 108.8 291.7 109.9 291.7 111.4 Z M 302.7 117.1 L 302.7 105.7 L 304.4 105.7 C 304.4 105.7 304.4 107.32 304.4 107.3 C 305.2 106.1 306.4 105.4 308 105.4 C 308.7 105.4 309.3 105.6 309.9 105.8 C 310.5 106.1 310.9 106.4 311.2 106.8 C 311.5 107.2 311.7 107.7 311.8 108.2 C 311.9 108.6 311.9 109.2 311.9 110.1 C 311.93 110.09 311.9 117.1 311.9 117.1 L 310 117.1 C 310 117.1 309.99 110.16 310 110.2 C 310 109.4 309.9 108.8 309.8 108.4 C 309.6 108 309.3 107.7 309 107.5 C 308.6 107.2 308.1 107.1 307.6 107.1 C 306.8 107.1 306.1 107.4 305.5 107.9 C 304.9 108.4 304.6 109.4 304.6 110.9 C 304.59 110.87 304.6 117.1 304.6 117.1 L 302.7 117.1 Z M 314.1 113.7 C 314.1 113.7 316 113.4 316 113.4 C 316.1 114.2 316.4 114.8 316.9 115.2 C 317.4 115.6 318.1 115.8 319 115.8 C 319.9 115.8 320.5 115.6 321 115.2 C 321.4 114.9 321.6 114.4 321.6 114 C 321.6 113.5 321.4 113.2 321 112.9 C 320.8 112.8 320.1 112.5 319.1 112.3 C 317.6 111.9 316.7 111.6 316.1 111.3 C 315.6 111.1 315.1 110.7 314.9 110.3 C 314.6 109.8 314.4 109.3 314.4 108.7 C 314.4 108.2 314.6 107.7 314.8 107.3 C 315 106.9 315.3 106.5 315.7 106.2 C 316 106 316.4 105.8 317 105.7 C 317.5 105.5 318 105.4 318.6 105.4 C 319.5 105.4 320.3 105.6 321 105.8 C 321.7 106.1 322.2 106.4 322.5 106.9 C 322.8 107.3 323 107.9 323.2 108.6 C 323.2 108.6 321.3 108.9 321.3 108.9 C 321.2 108.3 320.9 107.9 320.5 107.5 C 320.1 107.2 319.5 107 318.8 107 C 317.9 107 317.3 107.2 316.9 107.5 C 316.5 107.8 316.3 108.1 316.3 108.5 C 316.3 108.7 316.4 109 316.5 109.2 C 316.7 109.4 316.9 109.6 317.3 109.7 C 317.5 109.8 318 109.9 319 110.2 C 320.4 110.6 321.3 110.8 321.9 111.1 C 322.4 111.3 322.8 111.7 323.1 112.1 C 323.4 112.5 323.6 113.1 323.6 113.8 C 323.6 114.4 323.4 115 323 115.6 C 322.7 116.1 322.1 116.6 321.4 116.9 C 320.7 117.2 319.9 117.4 319 117.4 C 317.5 117.4 316.4 117.1 315.6 116.4 C 314.8 115.8 314.3 114.9 314.1 113.7 Z M 326.4 117.1 L 326.4 114.9 L 328.6 114.9 L 328.6 117.1 L 326.4 117.1 Z " stroke="none" fill="#000"/>  </g>  <g id="Polygon6953">    <path d="M 43.4 77.2 L 43.4 75 L 45.3 75 L 45.3 77.2 L 43.4 77.2 Z M 43.4 90.7 L 43.4 79.3 L 45.3 79.3 L 45.3 90.7 L 43.4 90.7 Z M 55.7 90.7 C 55.7 90.7 55.66 89.26 55.7 89.3 C 54.9 90.4 53.9 91 52.5 91 C 51.6 91 50.7 90.7 50 90.2 C 49.2 89.7 48.6 89 48.2 88.1 C 47.8 87.2 47.6 86.2 47.6 85 C 47.6 83.9 47.8 82.8 48.1 81.9 C 48.5 81 49.1 80.3 49.8 79.8 C 50.6 79.3 51.4 79 52.4 79 C 53.1 79 53.7 79.2 54.2 79.5 C 54.8 79.8 55.2 80.1 55.5 80.6 C 55.53 80.61 55.5 75 55.5 75 L 57.5 75 L 57.5 90.7 L 55.7 90.7 Z M 49.5 85 C 49.5 86.5 49.9 87.6 50.5 88.3 C 51.1 89 51.8 89.4 52.7 89.4 C 53.5 89.4 54.2 89 54.8 88.3 C 55.4 87.6 55.7 86.6 55.7 85.2 C 55.7 83.6 55.4 82.5 54.8 81.7 C 54.2 81 53.4 80.6 52.6 80.6 C 51.7 80.6 51 81 50.4 81.7 C 49.8 82.4 49.5 83.5 49.5 85 Z M 68.3 87 C 68.3 87 70.3 87.3 70.3 87.3 C 70 88.4 69.4 89.4 68.6 90 C 67.7 90.6 66.6 91 65.3 91 C 63.6 91 62.3 90.4 61.3 89.4 C 60.3 88.4 59.8 87 59.8 85.1 C 59.8 83.2 60.3 81.7 61.3 80.6 C 62.3 79.6 63.6 79 65.2 79 C 66.7 79 67.9 79.6 68.9 80.6 C 69.9 81.6 70.4 83.1 70.4 85 C 70.4 85.1 70.4 85.3 70.4 85.5 C 70.4 85.5 61.8 85.5 61.8 85.5 C 61.9 86.7 62.3 87.7 62.9 88.4 C 63.5 89 64.3 89.4 65.3 89.4 C 66 89.4 66.6 89.2 67.1 88.8 C 67.6 88.4 68 87.8 68.3 87 Z M 62 83.9 C 62 83.9 68.3 83.9 68.3 83.9 C 68.2 82.9 68 82.2 67.6 81.7 C 67 81 66.2 80.6 65.2 80.6 C 64.3 80.6 63.6 80.9 63 81.5 C 62.4 82.1 62 82.9 62 83.9 Z M 72.7 90.7 L 72.7 79.3 L 74.5 79.3 C 74.5 79.3 74.47 80.92 74.5 80.9 C 75.3 79.7 76.5 79 78.1 79 C 78.8 79 79.4 79.2 80 79.4 C 80.6 79.7 81 80 81.3 80.4 C 81.6 80.8 81.8 81.3 81.9 81.8 C 82 82.2 82 82.8 82 83.7 C 82 83.69 82 90.7 82 90.7 L 80.1 90.7 C 80.1 90.7 80.07 83.76 80.1 83.8 C 80.1 83 80 82.4 79.8 82 C 79.7 81.6 79.4 81.3 79 81.1 C 78.7 80.8 78.2 80.7 77.7 80.7 C 76.9 80.7 76.2 81 75.6 81.5 C 75 82 74.7 83 74.7 84.5 C 74.66 84.47 74.7 90.7 74.7 90.7 L 72.7 90.7 Z M 88.3 89 C 88.6 89 88.8 89 89.2 89 C 89.2 89 89.5 90.7 89.5 90.7 C 88.9 90.8 88.4 90.9 88 90.9 C 87.3 90.9 86.8 90.7 86.4 90.5 C 86 90.3 85.7 90 85.6 89.6 C 85.4 89.3 85.3 88.5 85.3 87.4 C 85.32 87.36 85.3 80.8 85.3 80.8 L 83.9 80.8 L 83.9 79.3 L 85.3 79.3 L 85.3 76.5 L 87.2 75.3 L 87.2 79.3 L 89.2 79.3 L 89.2 80.8 L 87.2 80.8 C 87.2 80.8 87.24 87.47 87.2 87.5 C 87.2 88 87.3 88.4 87.3 88.5 C 87.4 88.7 87.5 88.8 87.7 88.9 C 87.8 89 88.1 89 88.3 89 C 88.3 89 88.3 89 88.3 89 Z M 91.1 77.2 L 91.1 75 L 93 75 L 93 77.2 L 91.1 77.2 Z M 91.1 90.7 L 91.1 79.3 L 93 79.3 L 93 90.7 L 91.1 90.7 Z M 96.4 90.7 L 96.4 80.8 L 94.7 80.8 L 94.7 79.3 L 96.4 79.3 C 96.4 79.3 96.43 78.08 96.4 78.1 C 96.4 77.3 96.5 76.7 96.6 76.4 C 96.8 75.9 97.1 75.5 97.6 75.2 C 98.1 74.8 98.7 74.7 99.6 74.7 C 100.1 74.7 100.7 74.8 101.4 74.9 C 101.4 74.9 101.1 76.6 101.1 76.6 C 100.7 76.5 100.3 76.5 100 76.5 C 99.4 76.5 99 76.6 98.7 76.8 C 98.5 77.1 98.3 77.6 98.3 78.2 C 98.35 78.24 98.3 79.3 98.3 79.3 L 100.6 79.3 L 100.6 80.8 L 98.3 80.8 L 98.3 90.7 L 96.4 90.7 Z M 103.2 95.3 C 102.9 95.3 102.4 95.3 102 95.1 C 102 95.1 101.8 93.3 101.8 93.3 C 102.2 93.4 102.6 93.5 102.9 93.5 C 103.3 93.5 103.7 93.4 103.9 93.2 C 104.2 93.1 104.4 92.9 104.5 92.6 C 104.7 92.4 104.9 92 105.1 91.2 C 105.2 91.1 105.2 90.9 105.3 90.7 C 105.31 90.73 101 79.3 101 79.3 L 103.1 79.3 C 103.1 79.3 105.44 85.9 105.4 85.9 C 105.7 86.7 106 87.6 106.3 88.5 C 106.5 87.7 106.8 86.8 107.1 85.9 C 107.06 85.94 109.5 79.3 109.5 79.3 L 111.4 79.3 C 111.4 79.3 107.09 90.9 107.1 90.9 C 106.6 92.2 106.3 93 106 93.5 C 105.7 94.1 105.3 94.6 104.8 94.9 C 104.4 95.2 103.9 95.3 103.2 95.3 C 103.2 95.3 103.2 95.3 103.2 95.3 Z M 113.1 77.2 L 113.1 75 L 115 75 L 115 77.2 L 113.1 77.2 Z M 113.1 90.7 L 113.1 79.3 L 115 79.3 L 115 90.7 L 113.1 90.7 Z M 118 90.7 L 118 79.3 L 119.7 79.3 C 119.7 79.3 119.71 80.92 119.7 80.9 C 120.5 79.7 121.8 79 123.3 79 C 124 79 124.7 79.2 125.2 79.4 C 125.8 79.7 126.2 80 126.5 80.4 C 126.8 80.8 127 81.3 127.1 81.8 C 127.2 82.2 127.2 82.8 127.2 83.7 C 127.24 83.69 127.2 90.7 127.2 90.7 L 125.3 90.7 C 125.3 90.7 125.3 83.76 125.3 83.8 C 125.3 83 125.2 82.4 125.1 82 C 124.9 81.6 124.7 81.3 124.3 81.1 C 123.9 80.8 123.4 80.7 122.9 80.7 C 122.1 80.7 121.4 81 120.8 81.5 C 120.2 82 119.9 83 119.9 84.5 C 119.9 84.47 119.9 90.7 119.9 90.7 L 118 90.7 Z M 129.8 91.6 C 129.8 91.6 131.7 91.9 131.7 91.9 C 131.8 92.5 132 92.9 132.4 93.2 C 132.9 93.6 133.5 93.7 134.3 93.7 C 135.2 93.7 135.9 93.6 136.4 93.2 C 136.9 92.8 137.2 92.3 137.4 91.7 C 137.5 91.3 137.6 90.5 137.5 89.2 C 136.7 90.2 135.6 90.7 134.4 90.7 C 132.8 90.7 131.6 90.1 130.7 89 C 129.9 87.9 129.5 86.5 129.5 84.9 C 129.5 83.8 129.7 82.8 130 81.9 C 130.4 81 131 80.3 131.8 79.8 C 132.5 79.3 133.4 79 134.4 79 C 135.7 79 136.9 79.6 137.7 80.7 C 137.73 80.67 137.7 79.3 137.7 79.3 L 139.5 79.3 C 139.5 79.3 139.51 89.16 139.5 89.2 C 139.5 90.9 139.3 92.2 139 92.9 C 138.6 93.7 138 94.3 137.3 94.7 C 136.5 95.1 135.5 95.3 134.4 95.3 C 133 95.3 131.9 95 131.1 94.4 C 130.2 93.8 129.8 92.9 129.8 91.6 Z M 131.4 84.8 C 131.4 86.3 131.7 87.4 132.3 88.1 C 132.9 88.8 133.7 89.1 134.6 89.1 C 135.5 89.1 136.2 88.8 136.8 88.1 C 137.4 87.4 137.7 86.3 137.7 84.9 C 137.7 83.5 137.4 82.4 136.8 81.7 C 136.2 81 135.4 80.6 134.5 80.6 C 133.7 80.6 133 81 132.3 81.7 C 131.7 82.4 131.4 83.4 131.4 84.8 Z M 148.6 77.2 L 148.6 75 L 150.5 75 L 150.5 77.2 L 148.6 77.2 Z M 148.6 90.7 L 148.6 79.3 L 150.5 79.3 L 150.5 90.7 L 148.6 90.7 Z M 153.4 90.7 L 153.4 79.3 L 155.2 79.3 C 155.2 79.3 155.18 80.92 155.2 80.9 C 156 79.7 157.2 79 158.8 79 C 159.5 79 160.1 79.2 160.7 79.4 C 161.3 79.7 161.7 80 162 80.4 C 162.3 80.8 162.5 81.3 162.6 81.8 C 162.7 82.2 162.7 82.8 162.7 83.7 C 162.71 83.69 162.7 90.7 162.7 90.7 L 160.8 90.7 C 160.8 90.7 160.77 83.76 160.8 83.8 C 160.8 83 160.7 82.4 160.5 82 C 160.4 81.6 160.1 81.3 159.7 81.1 C 159.4 80.8 158.9 80.7 158.4 80.7 C 157.6 80.7 156.9 81 156.3 81.5 C 155.7 82 155.4 83 155.4 84.5 C 155.37 84.47 155.4 90.7 155.4 90.7 L 153.4 90.7 Z M 173.5 87 C 173.5 87 175.5 87.3 175.5 87.3 C 175.2 88.4 174.6 89.4 173.7 90 C 172.9 90.6 171.8 91 170.5 91 C 168.8 91 167.5 90.4 166.5 89.4 C 165.5 88.4 165 87 165 85.1 C 165 83.2 165.5 81.7 166.5 80.6 C 167.5 79.6 168.8 79 170.4 79 C 171.9 79 173.1 79.6 174.1 80.6 C 175.1 81.6 175.5 83.1 175.5 85 C 175.5 85.1 175.5 85.3 175.5 85.5 C 175.5 85.5 167 85.5 167 85.5 C 167.1 86.7 167.5 87.7 168.1 88.4 C 168.7 89 169.5 89.4 170.5 89.4 C 171.2 89.4 171.8 89.2 172.3 88.8 C 172.8 88.4 173.2 87.8 173.5 87 Z M 167.1 83.9 C 167.1 83.9 173.5 83.9 173.5 83.9 C 173.4 82.9 173.2 82.2 172.8 81.7 C 172.2 81 171.4 80.6 170.4 80.6 C 169.5 80.6 168.7 80.9 168.1 81.5 C 167.5 82.1 167.2 82.9 167.1 83.9 Z M 178.4 90.7 L 178.4 80.8 L 176.7 80.8 L 176.7 79.3 L 178.4 79.3 C 178.4 79.3 178.37 78.08 178.4 78.1 C 178.4 77.3 178.4 76.7 178.6 76.4 C 178.8 75.9 179.1 75.5 179.6 75.2 C 180 74.8 180.7 74.7 181.5 74.7 C 182.1 74.7 182.7 74.8 183.3 74.9 C 183.3 74.9 183 76.6 183 76.6 C 182.6 76.5 182.3 76.5 181.9 76.5 C 181.3 76.5 180.9 76.6 180.7 76.8 C 180.4 77.1 180.3 77.6 180.3 78.2 C 180.29 78.24 180.3 79.3 180.3 79.3 L 182.5 79.3 L 182.5 80.8 L 180.3 80.8 L 180.3 90.7 L 178.4 90.7 Z M 184.5 90.7 L 184.5 80.8 L 182.8 80.8 L 182.8 79.3 L 184.5 79.3 C 184.5 79.3 184.53 78.19 184.5 78.2 C 184.5 77.1 184.8 76.2 185.3 75.6 C 185.8 75 186.5 74.7 187.6 74.7 C 188.3 74.7 188.9 74.8 189.5 74.9 C 189.5 74.9 189.2 76.6 189.2 76.6 C 188.9 76.5 188.5 76.5 188.2 76.5 C 187.5 76.5 187.1 76.6 186.8 76.9 C 186.6 77.1 186.5 77.7 186.5 78.6 C 186.47 78.55 186.5 79.3 186.5 79.3 L 188.7 79.3 L 188.7 80.8 L 186.5 80.8 L 186.5 90.7 L 184.5 90.7 Z M 190.1 77.2 L 190.1 75 L 192.1 75 L 192.1 77.2 L 190.1 77.2 Z M 190.1 90.7 L 190.1 79.3 L 192.1 79.3 L 192.1 90.7 L 190.1 90.7 Z M 202.5 86.5 C 202.5 86.5 204.4 86.8 204.4 86.8 C 204.2 88.1 203.6 89.1 202.8 89.8 C 201.9 90.6 200.9 91 199.6 91 C 198.1 91 196.8 90.5 195.9 89.4 C 194.9 88.4 194.4 86.9 194.4 85 C 194.4 83.8 194.6 82.7 195 81.8 C 195.4 80.9 196.1 80.2 196.9 79.7 C 197.7 79.3 198.6 79 199.6 79 C 200.9 79 201.9 79.4 202.7 80 C 203.5 80.6 204 81.5 204.2 82.6 C 204.2 82.6 202.3 82.9 202.3 82.9 C 202.1 82.2 201.8 81.6 201.4 81.2 C 200.9 80.8 200.3 80.6 199.7 80.6 C 198.7 80.6 197.9 81 197.3 81.7 C 196.7 82.4 196.4 83.5 196.4 85 C 196.4 86.5 196.7 87.6 197.3 88.3 C 197.9 89 198.6 89.4 199.6 89.4 C 200.4 89.4 201 89.1 201.5 88.7 C 202 88.2 202.3 87.5 202.5 86.5 Z M 206 77.2 L 206 75 L 208 75 L 208 77.2 L 206 77.2 Z M 206 90.7 L 206 79.3 L 208 79.3 L 208 90.7 L 206 90.7 Z M 218.7 87 C 218.7 87 220.7 87.3 220.7 87.3 C 220.4 88.4 219.8 89.4 219 90 C 218.1 90.6 217 91 215.7 91 C 214 91 212.7 90.4 211.7 89.4 C 210.8 88.4 210.3 87 210.3 85.1 C 210.3 83.2 210.8 81.7 211.7 80.6 C 212.7 79.6 214 79 215.6 79 C 217.1 79 218.4 79.6 219.3 80.6 C 220.3 81.6 220.8 83.1 220.8 85 C 220.8 85.1 220.8 85.3 220.8 85.5 C 220.8 85.5 212.3 85.5 212.3 85.5 C 212.3 86.7 212.7 87.7 213.3 88.4 C 214 89 214.8 89.4 215.7 89.4 C 216.4 89.4 217 89.2 217.5 88.8 C 218 88.4 218.4 87.8 218.7 87 Z M 212.4 83.9 C 212.4 83.9 218.7 83.9 218.7 83.9 C 218.7 82.9 218.4 82.2 218 81.7 C 217.4 81 216.6 80.6 215.6 80.6 C 214.7 80.6 214 80.9 213.4 81.5 C 212.8 82.1 212.4 82.9 212.4 83.9 Z M 223.1 90.7 L 223.1 79.3 L 224.9 79.3 C 224.9 79.3 224.88 80.92 224.9 80.9 C 225.7 79.7 226.9 79 228.5 79 C 229.2 79 229.8 79.2 230.4 79.4 C 231 79.7 231.4 80 231.7 80.4 C 232 80.8 232.2 81.3 232.3 81.8 C 232.4 82.2 232.4 82.8 232.4 83.7 C 232.41 83.69 232.4 90.7 232.4 90.7 L 230.5 90.7 C 230.5 90.7 230.48 83.76 230.5 83.8 C 230.5 83 230.4 82.4 230.3 82 C 230.1 81.6 229.8 81.3 229.5 81.1 C 229.1 80.8 228.6 80.7 228.1 80.7 C 227.3 80.7 226.6 81 226 81.5 C 225.4 82 225.1 83 225.1 84.5 C 225.08 84.47 225.1 90.7 225.1 90.7 L 223.1 90.7 Z M 242.8 86.5 C 242.8 86.5 244.7 86.8 244.7 86.8 C 244.5 88.1 244 89.1 243.1 89.8 C 242.3 90.6 241.2 91 240 91 C 238.4 91 237.2 90.5 236.2 89.4 C 235.3 88.4 234.8 86.9 234.8 85 C 234.8 83.8 235 82.7 235.4 81.8 C 235.8 80.9 236.4 80.2 237.3 79.7 C 238.1 79.3 239 79 240 79 C 241.2 79 242.2 79.4 243 80 C 243.8 80.6 244.3 81.5 244.5 82.6 C 244.5 82.6 242.7 82.9 242.7 82.9 C 242.5 82.2 242.2 81.6 241.7 81.2 C 241.3 80.8 240.7 80.6 240.1 80.6 C 239.1 80.6 238.3 81 237.7 81.7 C 237.1 82.4 236.8 83.5 236.8 85 C 236.8 86.5 237.1 87.6 237.7 88.3 C 238.2 89 239 89.4 240 89.4 C 240.7 89.4 241.3 89.1 241.9 88.7 C 242.4 88.2 242.7 87.5 242.8 86.5 Z M 246.4 77.2 L 246.4 75 L 248.3 75 L 248.3 77.2 L 246.4 77.2 Z M 246.4 90.7 L 246.4 79.3 L 248.3 79.3 L 248.3 90.7 L 246.4 90.7 Z M 259.1 87 C 259.1 87 261.1 87.3 261.1 87.3 C 260.8 88.4 260.2 89.4 259.3 90 C 258.5 90.6 257.4 91 256.1 91 C 254.4 91 253.1 90.4 252.1 89.4 C 251.1 88.4 250.6 87 250.6 85.1 C 250.6 83.2 251.1 81.7 252.1 80.6 C 253.1 79.6 254.4 79 255.9 79 C 257.5 79 258.7 79.6 259.7 80.6 C 260.7 81.6 261.1 83.1 261.1 85 C 261.1 85.1 261.1 85.3 261.1 85.5 C 261.1 85.5 252.6 85.5 252.6 85.5 C 252.7 86.7 253 87.7 253.7 88.4 C 254.3 89 255.1 89.4 256.1 89.4 C 256.8 89.4 257.4 89.2 257.9 88.8 C 258.4 88.4 258.8 87.8 259.1 87 Z M 252.7 83.9 C 252.7 83.9 259.1 83.9 259.1 83.9 C 259 82.9 258.8 82.2 258.4 81.7 C 257.7 81 257 80.6 256 80.6 C 255.1 80.6 254.3 80.9 253.7 81.5 C 253.1 82.1 252.8 82.9 252.7 83.9 Z M 262.7 87.3 C 262.7 87.3 264.6 87 264.6 87 C 264.7 87.8 265 88.4 265.5 88.8 C 266 89.2 266.7 89.4 267.6 89.4 C 268.5 89.4 269.1 89.2 269.6 88.8 C 270 88.5 270.2 88 270.2 87.6 C 270.2 87.1 270 86.8 269.6 86.5 C 269.4 86.4 268.7 86.1 267.7 85.9 C 266.2 85.5 265.3 85.2 264.7 84.9 C 264.2 84.7 263.8 84.3 263.5 83.9 C 263.2 83.4 263 82.9 263 82.3 C 263 81.8 263.2 81.3 263.4 80.9 C 263.6 80.5 263.9 80.1 264.3 79.8 C 264.6 79.6 265.1 79.4 265.6 79.3 C 266.1 79.1 266.7 79 267.2 79 C 268.1 79 268.9 79.2 269.6 79.4 C 270.3 79.7 270.8 80 271.1 80.5 C 271.4 80.9 271.6 81.5 271.8 82.2 C 271.8 82.2 269.9 82.5 269.9 82.5 C 269.8 81.9 269.5 81.5 269.1 81.1 C 268.7 80.8 268.1 80.6 267.4 80.6 C 266.5 80.6 265.9 80.8 265.5 81.1 C 265.1 81.4 264.9 81.7 264.9 82.1 C 264.9 82.3 265 82.6 265.2 82.8 C 265.3 83 265.6 83.2 265.9 83.3 C 266.1 83.4 266.7 83.5 267.6 83.8 C 269 84.2 269.9 84.4 270.5 84.7 C 271 84.9 271.4 85.3 271.7 85.7 C 272 86.1 272.2 86.7 272.2 87.4 C 272.2 88 272 88.6 271.6 89.2 C 271.3 89.7 270.7 90.2 270 90.5 C 269.3 90.8 268.5 91 267.6 91 C 266.1 91 265 90.7 264.2 90 C 263.4 89.4 262.9 88.5 262.7 87.3 Z M 275 90.7 L 275 88.5 L 277.2 88.5 C 277.2 88.5 277.21 90.7 277.2 90.7 C 277.2 91.5 277.1 92.2 276.8 92.7 C 276.5 93.2 276 93.5 275.4 93.8 C 275.4 93.8 274.9 93 274.9 93 C 275.3 92.8 275.6 92.5 275.8 92.2 C 276 91.9 276.1 91.4 276.1 90.7 C 276.1 90.7 275 90.7 275 90.7 Z M 294.6 90.7 C 294.4 90.3 294.2 89.8 294.2 89.3 C 293.5 89.9 292.8 90.3 292.1 90.6 C 291.4 90.8 290.7 91 290 91 C 288.7 91 287.8 90.7 287.1 90 C 286.4 89.4 286.1 88.6 286.1 87.7 C 286.1 87.1 286.2 86.6 286.5 86.2 C 286.7 85.7 287 85.3 287.4 85.1 C 287.9 84.8 288.3 84.6 288.8 84.4 C 289.2 84.3 289.8 84.2 290.6 84.1 C 292.1 83.9 293.3 83.7 294 83.5 C 294 83.2 294 83 294 83 C 294 82.2 293.8 81.6 293.5 81.3 C 293 80.9 292.2 80.6 291.3 80.6 C 290.4 80.6 289.7 80.8 289.3 81.1 C 288.8 81.4 288.5 82 288.3 82.8 C 288.3 82.8 286.4 82.6 286.4 82.6 C 286.6 81.7 286.9 81.1 287.3 80.6 C 287.6 80.1 288.2 79.7 289 79.4 C 289.7 79.2 290.6 79 291.5 79 C 292.5 79 293.3 79.2 293.9 79.4 C 294.5 79.6 295 79.9 295.3 80.2 C 295.6 80.6 295.8 81 295.9 81.6 C 295.9 81.9 296 82.5 296 83.3 C 296 83.3 296 85.9 296 85.9 C 296 87.7 296 88.9 296.1 89.3 C 296.2 89.8 296.3 90.3 296.6 90.7 C 296.58 90.7 294.6 90.7 294.6 90.7 C 294.6 90.7 294.56 90.7 294.6 90.7 Z M 294 85 C 293.3 85.3 292.3 85.5 290.8 85.7 C 290.1 85.8 289.5 86 289.2 86.1 C 288.8 86.2 288.6 86.4 288.4 86.7 C 288.2 87 288.1 87.3 288.1 87.6 C 288.1 88.2 288.3 88.6 288.7 88.9 C 289.1 89.3 289.7 89.4 290.4 89.4 C 291.2 89.4 291.8 89.3 292.4 89 C 293 88.6 293.4 88.2 293.7 87.6 C 293.9 87.2 294 86.5 294 85.7 C 294 85.7 294 85 294 85 Z M 299 90.7 L 299 79.3 L 300.7 79.3 C 300.7 79.3 300.7 80.92 300.7 80.9 C 301.5 79.7 302.7 79 304.3 79 C 305 79 305.7 79.2 306.2 79.4 C 306.8 79.7 307.2 80 307.5 80.4 C 307.8 80.8 308 81.3 308.1 81.8 C 308.2 82.2 308.2 82.8 308.2 83.7 C 308.23 83.69 308.2 90.7 308.2 90.7 L 306.3 90.7 C 306.3 90.7 306.3 83.76 306.3 83.8 C 306.3 83 306.2 82.4 306.1 82 C 305.9 81.6 305.7 81.3 305.3 81.1 C 304.9 80.8 304.4 80.7 303.9 80.7 C 303.1 80.7 302.4 81 301.8 81.5 C 301.2 82 300.9 83 300.9 84.5 C 300.89 84.47 300.9 90.7 300.9 90.7 L 299 90.7 Z M 318.6 90.7 C 318.6 90.7 318.6 89.26 318.6 89.3 C 317.9 90.4 316.8 91 315.4 91 C 314.5 91 313.7 90.7 312.9 90.2 C 312.1 89.7 311.5 89 311.1 88.1 C 310.7 87.2 310.5 86.2 310.5 85 C 310.5 83.9 310.7 82.8 311.1 81.9 C 311.4 81 312 80.3 312.8 79.8 C 313.5 79.3 314.4 79 315.3 79 C 316 79 316.6 79.2 317.2 79.5 C 317.7 79.8 318.1 80.1 318.5 80.6 C 318.47 80.61 318.5 75 318.5 75 L 320.4 75 L 320.4 90.7 L 318.6 90.7 Z M 312.5 85 C 312.5 86.5 312.8 87.6 313.4 88.3 C 314 89 314.8 89.4 315.6 89.4 C 316.4 89.4 317.2 89 317.7 88.3 C 318.3 87.6 318.6 86.6 318.6 85.2 C 318.6 83.6 318.3 82.5 317.7 81.7 C 317.1 81 316.4 80.6 315.5 80.6 C 314.6 80.6 313.9 81 313.3 81.7 C 312.8 82.4 312.5 83.5 312.5 85 Z " stroke="none" fill="#000"/>  </g>  <g id="Polygon6952">    <path d="M 47.2 59.2 C 47.2 59.2 49.2 59.1 49.2 59.1 C 49.3 59.9 49.5 60.5 49.8 61 C 50.2 61.5 50.7 61.9 51.4 62.2 C 52.1 62.5 52.9 62.7 53.8 62.7 C 54.6 62.7 55.3 62.6 55.9 62.3 C 56.5 62.1 57 61.8 57.3 61.4 C 57.6 61 57.7 60.5 57.7 60 C 57.7 59.5 57.6 59.1 57.3 58.7 C 57 58.4 56.6 58.1 55.9 57.8 C 55.5 57.6 54.5 57.4 53.1 57 C 51.6 56.7 50.6 56.4 50.1 56.1 C 49.3 55.7 48.7 55.2 48.4 54.6 C 48 54 47.8 53.4 47.8 52.6 C 47.8 51.8 48 51.1 48.5 50.4 C 48.9 49.7 49.6 49.2 50.5 48.8 C 51.3 48.5 52.3 48.3 53.4 48.3 C 54.5 48.3 55.6 48.5 56.4 48.9 C 57.3 49.2 58 49.8 58.5 50.5 C 59 51.2 59.2 52.1 59.3 53 C 59.3 53 57.3 53.1 57.3 53.1 C 57.2 52.1 56.8 51.4 56.2 50.9 C 55.6 50.4 54.7 50.1 53.4 50.1 C 52.2 50.1 51.3 50.4 50.7 50.8 C 50.1 51.3 49.8 51.8 49.8 52.5 C 49.8 53.1 50 53.5 50.4 53.9 C 50.8 54.2 51.9 54.6 53.6 55 C 55.3 55.4 56.4 55.7 57.1 56 C 58 56.4 58.7 57 59.1 57.6 C 59.5 58.3 59.8 59 59.8 59.9 C 59.8 60.7 59.5 61.5 59 62.2 C 58.6 63 57.9 63.5 57 64 C 56.1 64.4 55.1 64.6 53.9 64.6 C 52.5 64.6 51.3 64.4 50.3 63.9 C 49.4 63.5 48.6 62.9 48.1 62.1 C 47.5 61.2 47.2 60.3 47.2 59.2 Z M 69.8 64.3 C 69.8 64.3 69.83 62.63 69.8 62.6 C 68.9 63.9 67.7 64.6 66.2 64.6 C 65.5 64.6 64.9 64.4 64.3 64.2 C 63.7 63.9 63.3 63.6 63 63.2 C 62.7 62.8 62.5 62.3 62.4 61.8 C 62.3 61.4 62.3 60.8 62.3 60 C 62.31 59.96 62.3 52.9 62.3 52.9 L 64.2 52.9 C 64.2 52.9 64.24 59.22 64.2 59.2 C 64.2 60.2 64.3 60.9 64.4 61.3 C 64.5 61.8 64.7 62.2 65.1 62.5 C 65.5 62.8 66 62.9 66.6 62.9 C 67.2 62.9 67.7 62.7 68.2 62.5 C 68.7 62.2 69.1 61.7 69.3 61.2 C 69.5 60.7 69.6 60 69.6 59 C 69.62 59.01 69.6 52.9 69.6 52.9 L 71.6 52.9 L 71.6 64.3 L 69.8 64.3 Z M 74.6 68.7 L 74.6 52.9 L 76.3 52.9 C 76.3 52.9 76.35 54.38 76.3 54.4 C 76.8 53.8 77.2 53.4 77.8 53.1 C 78.3 52.8 78.9 52.6 79.7 52.6 C 80.6 52.6 81.5 52.9 82.2 53.4 C 83 53.9 83.5 54.6 83.9 55.5 C 84.3 56.4 84.5 57.4 84.5 58.5 C 84.5 59.7 84.3 60.7 83.9 61.7 C 83.4 62.6 82.8 63.3 82 63.8 C 81.2 64.3 80.4 64.6 79.5 64.6 C 78.9 64.6 78.3 64.4 77.8 64.2 C 77.3 63.9 76.9 63.5 76.5 63.1 C 76.52 63.12 76.5 68.7 76.5 68.7 L 74.6 68.7 Z M 76.3 58.7 C 76.3 60.1 76.6 61.2 77.2 61.9 C 77.8 62.6 78.5 63 79.4 63 C 80.2 63 81 62.6 81.6 61.9 C 82.2 61.2 82.5 60 82.5 58.5 C 82.5 57 82.2 56 81.6 55.2 C 81 54.5 80.3 54.2 79.5 54.2 C 78.7 54.2 77.9 54.5 77.3 55.3 C 76.7 56.1 76.3 57.2 76.3 58.7 Z M 86.8 68.7 L 86.8 52.9 L 88.6 52.9 C 88.6 52.9 88.58 54.38 88.6 54.4 C 89 53.8 89.5 53.4 90 53.1 C 90.5 52.8 91.1 52.6 91.9 52.6 C 92.9 52.6 93.7 52.9 94.5 53.4 C 95.2 53.9 95.8 54.6 96.2 55.5 C 96.5 56.4 96.7 57.4 96.7 58.5 C 96.7 59.7 96.5 60.7 96.1 61.7 C 95.7 62.6 95.1 63.3 94.3 63.8 C 93.5 64.3 92.6 64.6 91.8 64.6 C 91.1 64.6 90.5 64.4 90 64.2 C 89.5 63.9 89.1 63.5 88.8 63.1 C 88.76 63.12 88.8 68.7 88.8 68.7 L 86.8 68.7 Z M 88.6 58.7 C 88.6 60.1 88.9 61.2 89.5 61.9 C 90.1 62.6 90.8 63 91.6 63 C 92.5 63 93.2 62.6 93.8 61.9 C 94.4 61.2 94.8 60 94.8 58.5 C 94.8 57 94.5 56 93.9 55.2 C 93.3 54.5 92.5 54.2 91.7 54.2 C 90.9 54.2 90.2 54.5 89.5 55.3 C 88.9 56.1 88.6 57.2 88.6 58.7 Z M 98.3 58.6 C 98.3 56.5 98.9 54.9 100.1 53.9 C 101.1 53.1 102.3 52.6 103.7 52.6 C 105.3 52.6 106.5 53.2 107.5 54.2 C 108.5 55.2 109 56.6 109 58.4 C 109 59.9 108.8 61.1 108.4 61.9 C 107.9 62.7 107.3 63.4 106.4 63.9 C 105.6 64.3 104.7 64.6 103.7 64.6 C 102.1 64.6 100.8 64 99.8 63 C 98.8 62 98.3 60.5 98.3 58.6 Z M 100.3 58.6 C 100.3 60.1 100.6 61.2 101.3 61.9 C 101.9 62.6 102.7 63 103.7 63 C 104.6 63 105.4 62.6 106.1 61.9 C 106.7 61.1 107 60 107 58.5 C 107 57.1 106.7 56.1 106.1 55.3 C 105.4 54.6 104.6 54.2 103.7 54.2 C 102.7 54.2 101.9 54.6 101.3 55.3 C 100.6 56 100.3 57.1 100.3 58.6 Z M 111.3 64.3 L 111.3 52.9 L 113 52.9 C 113 52.9 113.01 54.62 113 54.6 C 113.5 53.8 113.9 53.3 114.2 53 C 114.6 52.8 115 52.6 115.5 52.6 C 116.1 52.6 116.8 52.8 117.5 53.3 C 117.5 53.3 116.8 55.1 116.8 55.1 C 116.3 54.8 115.9 54.6 115.4 54.6 C 115 54.6 114.6 54.8 114.2 55 C 113.9 55.3 113.7 55.6 113.5 56.1 C 113.3 56.8 113.2 57.5 113.2 58.3 C 113.21 58.33 113.2 64.3 113.2 64.3 L 111.3 64.3 Z M 122 62.6 C 122.2 62.6 122.5 62.6 122.8 62.6 C 122.8 62.6 123.1 64.3 123.1 64.3 C 122.6 64.4 122.1 64.5 121.7 64.5 C 121 64.5 120.4 64.3 120 64.1 C 119.6 63.9 119.4 63.6 119.2 63.2 C 119.1 62.9 119 62.1 119 61 C 118.97 60.96 119 54.4 119 54.4 L 117.6 54.4 L 117.6 52.9 L 119 52.9 L 119 50.1 L 120.9 48.9 L 120.9 52.9 L 122.8 52.9 L 122.8 54.4 L 120.9 54.4 C 120.9 54.4 120.9 61.07 120.9 61.1 C 120.9 61.6 120.9 62 121 62.1 C 121.1 62.3 121.2 62.4 121.3 62.5 C 121.5 62.6 121.7 62.6 122 62.6 C 122 62.6 122 62.6 122 62.6 Z M 124 60.9 C 124 60.9 125.9 60.6 125.9 60.6 C 126 61.4 126.3 62 126.8 62.4 C 127.3 62.8 127.9 63 128.8 63 C 129.7 63 130.4 62.8 130.8 62.4 C 131.2 62.1 131.4 61.6 131.4 61.2 C 131.4 60.7 131.3 60.4 130.9 60.1 C 130.6 60 130 59.7 128.9 59.5 C 127.5 59.1 126.5 58.8 126 58.5 C 125.4 58.3 125 57.9 124.7 57.5 C 124.4 57 124.3 56.5 124.3 55.9 C 124.3 55.4 124.4 54.9 124.6 54.5 C 124.9 54.1 125.2 53.7 125.6 53.4 C 125.9 53.2 126.3 53 126.8 52.9 C 127.3 52.7 127.9 52.6 128.5 52.6 C 129.4 52.6 130.2 52.8 130.8 53 C 131.5 53.3 132 53.6 132.3 54.1 C 132.7 54.5 132.9 55.1 133 55.8 C 133 55.8 131.1 56.1 131.1 56.1 C 131 55.5 130.8 55.1 130.4 54.7 C 130 54.4 129.4 54.2 128.6 54.2 C 127.7 54.2 127.1 54.4 126.7 54.7 C 126.3 55 126.2 55.3 126.2 55.7 C 126.2 55.9 126.2 56.2 126.4 56.4 C 126.5 56.6 126.8 56.8 127.1 56.9 C 127.3 57 127.9 57.1 128.8 57.4 C 130.2 57.8 131.2 58 131.7 58.3 C 132.2 58.5 132.7 58.9 133 59.3 C 133.3 59.7 133.4 60.3 133.4 61 C 133.4 61.6 133.2 62.2 132.9 62.8 C 132.5 63.3 132 63.8 131.2 64.1 C 130.5 64.4 129.7 64.6 128.8 64.6 C 127.4 64.6 126.2 64.3 125.4 63.6 C 124.7 63 124.2 62.1 124 60.9 Z M 144 64.3 L 140.5 52.9 L 142.5 52.9 L 144.3 59.5 C 144.3 59.5 144.95 61.93 144.9 61.9 C 145 61.8 145.2 61 145.5 59.6 C 145.54 59.58 147.4 52.9 147.4 52.9 L 149.3 52.9 L 151.1 59.5 L 151.6 61.7 L 152.3 59.5 L 154.2 52.9 L 156.1 52.9 L 152.5 64.3 L 150.5 64.3 L 148.7 57.5 L 148.3 55.5 L 146 64.3 L 144 64.3 Z M 157 58.6 C 157 56.5 157.6 54.9 158.8 53.9 C 159.8 53.1 161 52.6 162.4 52.6 C 163.9 52.6 165.2 53.2 166.2 54.2 C 167.2 55.2 167.7 56.6 167.7 58.4 C 167.7 59.9 167.5 61.1 167 61.9 C 166.6 62.7 166 63.4 165.1 63.9 C 164.3 64.3 163.4 64.6 162.4 64.6 C 160.8 64.6 159.5 64 158.5 63 C 157.5 62 157 60.5 157 58.6 Z M 159 58.6 C 159 60.1 159.3 61.2 160 61.9 C 160.6 62.6 161.4 63 162.4 63 C 163.3 63 164.1 62.6 164.8 61.9 C 165.4 61.1 165.7 60 165.7 58.5 C 165.7 57.1 165.4 56.1 164.8 55.3 C 164.1 54.6 163.3 54.2 162.4 54.2 C 161.4 54.2 160.6 54.6 160 55.3 C 159.3 56 159 57.1 159 58.6 Z M 169.9 64.3 L 169.9 52.9 L 171.7 52.9 C 171.7 52.9 171.69 54.62 171.7 54.6 C 172.1 53.8 172.5 53.3 172.9 53 C 173.3 52.8 173.7 52.6 174.2 52.6 C 174.8 52.6 175.5 52.8 176.1 53.3 C 176.1 53.3 175.5 55.1 175.5 55.1 C 175 54.8 174.5 54.6 174.1 54.6 C 173.6 54.6 173.3 54.8 172.9 55 C 172.6 55.3 172.3 55.6 172.2 56.1 C 172 56.8 171.9 57.5 171.9 58.3 C 171.88 58.33 171.9 64.3 171.9 64.3 L 169.9 64.3 Z M 177.3 64.3 L 177.3 48.6 L 179.2 48.6 L 179.2 57.5 L 183.8 52.9 L 186.3 52.9 L 182 57.1 L 186.8 64.3 L 184.4 64.3 L 180.6 58.5 L 179.2 59.8 L 179.2 64.3 L 177.3 64.3 Z M 188.8 64.3 L 188.8 54.4 L 187.1 54.4 L 187.1 52.9 L 188.8 52.9 C 188.8 52.9 188.81 51.79 188.8 51.8 C 188.8 50.7 189.1 49.8 189.5 49.2 C 190 48.6 190.8 48.3 191.8 48.3 C 192.6 48.3 193.2 48.4 193.8 48.5 C 193.8 48.5 193.5 50.2 193.5 50.2 C 193.1 50.1 192.8 50.1 192.5 50.1 C 191.8 50.1 191.4 50.2 191.1 50.5 C 190.9 50.7 190.7 51.3 190.7 52.2 C 190.74 52.15 190.7 52.9 190.7 52.9 L 193 52.9 L 193 54.4 L 190.7 54.4 L 190.7 64.3 L 188.8 64.3 Z M 194.4 64.3 L 194.4 48.6 L 196.3 48.6 L 196.3 64.3 L 194.4 64.3 Z M 198.6 58.6 C 198.6 56.5 199.2 54.9 200.3 53.9 C 201.3 53.1 202.5 52.6 203.9 52.6 C 205.5 52.6 206.8 53.2 207.8 54.2 C 208.8 55.2 209.3 56.6 209.3 58.4 C 209.3 59.9 209 61.1 208.6 61.9 C 208.2 62.7 207.5 63.4 206.7 63.9 C 205.8 64.3 204.9 64.6 203.9 64.6 C 202.3 64.6 201 64 200.1 63 C 199.1 62 198.6 60.5 198.6 58.6 Z M 200.6 58.6 C 200.6 60.1 200.9 61.2 201.5 61.9 C 202.2 62.6 203 63 203.9 63 C 204.9 63 205.7 62.6 206.3 61.9 C 207 61.1 207.3 60 207.3 58.5 C 207.3 57.1 207 56.1 206.3 55.3 C 205.7 54.6 204.9 54.2 203.9 54.2 C 203 54.2 202.2 54.6 201.5 55.3 C 200.9 56 200.6 57.1 200.6 58.6 Z M 213.6 64.3 L 210.1 52.9 L 212.1 52.9 L 214 59.5 C 214 59.5 214.63 61.93 214.6 61.9 C 214.7 61.8 214.9 61 215.2 59.6 C 215.22 59.58 217 52.9 217 52.9 L 219 52.9 L 220.7 59.5 L 221.3 61.7 L 222 59.5 L 223.9 52.9 L 225.8 52.9 L 222.2 64.3 L 220.2 64.3 L 218.4 57.5 L 218 55.5 L 215.7 64.3 L 213.6 64.3 Z M 241.4 64.3 C 241.2 63.9 241 63.4 241 62.9 C 240.3 63.5 239.6 63.9 238.9 64.2 C 238.2 64.4 237.5 64.6 236.8 64.6 C 235.5 64.6 234.6 64.3 233.9 63.6 C 233.2 63 232.9 62.2 232.9 61.3 C 232.9 60.7 233 60.2 233.3 59.8 C 233.5 59.3 233.8 58.9 234.3 58.7 C 234.7 58.4 235.1 58.2 235.6 58 C 236 57.9 236.6 57.8 237.4 57.7 C 238.9 57.5 240.1 57.3 240.8 57.1 C 240.8 56.8 240.8 56.6 240.8 56.6 C 240.8 55.8 240.6 55.2 240.3 54.9 C 239.8 54.5 239 54.2 238.1 54.2 C 237.2 54.2 236.5 54.4 236.1 54.7 C 235.6 55 235.3 55.6 235.1 56.4 C 235.1 56.4 233.2 56.2 233.2 56.2 C 233.4 55.3 233.7 54.7 234.1 54.2 C 234.4 53.7 235 53.3 235.8 53 C 236.5 52.8 237.4 52.6 238.4 52.6 C 239.3 52.6 240.1 52.8 240.7 53 C 241.3 53.2 241.8 53.5 242.1 53.8 C 242.4 54.2 242.6 54.6 242.7 55.2 C 242.7 55.5 242.8 56.1 242.8 56.9 C 242.8 56.9 242.8 59.5 242.8 59.5 C 242.8 61.3 242.8 62.5 242.9 62.9 C 243 63.4 243.1 63.9 243.4 64.3 C 243.38 64.3 241.4 64.3 241.4 64.3 C 241.4 64.3 241.36 64.3 241.4 64.3 Z M 240.8 58.6 C 240.1 58.9 239.1 59.1 237.7 59.3 C 236.9 59.4 236.3 59.6 236 59.7 C 235.6 59.8 235.4 60 235.2 60.3 C 235 60.6 234.9 60.9 234.9 61.2 C 234.9 61.8 235.1 62.2 235.5 62.5 C 235.9 62.9 236.5 63 237.2 63 C 238 63 238.6 62.9 239.2 62.6 C 239.8 62.2 240.2 61.8 240.5 61.2 C 240.7 60.8 240.8 60.1 240.8 59.3 C 240.8 59.3 240.8 58.6 240.8 58.6 Z M 245.8 64.3 L 245.8 52.9 L 247.5 52.9 C 247.5 52.9 247.5 54.52 247.5 54.5 C 248.3 53.3 249.6 52.6 251.1 52.6 C 251.8 52.6 252.5 52.8 253 53 C 253.6 53.3 254 53.6 254.3 54 C 254.6 54.4 254.8 54.9 254.9 55.4 C 255 55.8 255 56.4 255 57.3 C 255.04 57.29 255 64.3 255 64.3 L 253.1 64.3 C 253.1 64.3 253.1 57.36 253.1 57.4 C 253.1 56.6 253 56 252.9 55.6 C 252.7 55.2 252.5 54.9 252.1 54.7 C 251.7 54.4 251.2 54.3 250.7 54.3 C 249.9 54.3 249.2 54.6 248.6 55.1 C 248 55.6 247.7 56.6 247.7 58.1 C 247.7 58.07 247.7 64.3 247.7 64.3 L 245.8 64.3 Z M 265.8 64.3 C 265.6 63.9 265.5 63.4 265.4 62.9 C 264.7 63.5 264 63.9 263.4 64.2 C 262.7 64.4 262 64.6 261.2 64.6 C 260 64.6 259 64.3 258.4 63.6 C 257.7 63 257.3 62.2 257.3 61.3 C 257.3 60.7 257.5 60.2 257.7 59.8 C 258 59.3 258.3 58.9 258.7 58.7 C 259.1 58.4 259.6 58.2 260.1 58 C 260.5 57.9 261.1 57.8 261.8 57.7 C 263.4 57.5 264.5 57.3 265.3 57.1 C 265.3 56.8 265.3 56.6 265.3 56.6 C 265.3 55.8 265.1 55.2 264.7 54.9 C 264.3 54.5 263.5 54.2 262.5 54.2 C 261.6 54.2 261 54.4 260.5 54.7 C 260.1 55 259.8 55.6 259.6 56.4 C 259.6 56.4 257.7 56.2 257.7 56.2 C 257.8 55.3 258.1 54.7 258.5 54.2 C 258.9 53.7 259.5 53.3 260.2 53 C 261 52.8 261.8 52.6 262.8 52.6 C 263.8 52.6 264.6 52.8 265.2 53 C 265.8 53.2 266.3 53.5 266.5 53.8 C 266.8 54.2 267 54.6 267.1 55.2 C 267.2 55.5 267.2 56.1 267.2 56.9 C 267.2 56.9 267.2 59.5 267.2 59.5 C 267.2 61.3 267.3 62.5 267.4 62.9 C 267.4 63.4 267.6 63.9 267.9 64.3 C 267.85 64.3 265.8 64.3 265.8 64.3 C 265.8 64.3 265.83 64.3 265.8 64.3 Z M 265.3 58.6 C 264.6 58.9 263.5 59.1 262.1 59.3 C 261.3 59.4 260.8 59.6 260.4 59.7 C 260.1 59.8 259.9 60 259.7 60.3 C 259.5 60.6 259.4 60.9 259.4 61.2 C 259.4 61.8 259.6 62.2 260 62.5 C 260.4 62.9 261 63 261.7 63 C 262.5 63 263.1 62.9 263.7 62.6 C 264.3 62.2 264.7 61.8 265 61.2 C 265.2 60.8 265.3 60.1 265.3 59.3 C 265.3 59.3 265.3 58.6 265.3 58.6 Z M 270.2 64.3 L 270.2 48.6 L 272.1 48.6 L 272.1 64.3 L 270.2 64.3 Z M 276.3 68.9 C 275.9 68.9 275.5 68.9 275 68.7 C 275 68.7 274.8 66.9 274.8 66.9 C 275.2 67 275.6 67.1 275.9 67.1 C 276.4 67.1 276.7 67 277 66.8 C 277.2 66.7 277.4 66.5 277.6 66.2 C 277.7 66 277.9 65.6 278.2 64.8 C 278.2 64.7 278.3 64.5 278.4 64.3 C 278.36 64.33 274 52.9 274 52.9 L 276.1 52.9 C 276.1 52.9 278.49 59.5 278.5 59.5 C 278.8 60.3 279.1 61.2 279.3 62.1 C 279.5 61.3 279.8 60.4 280.1 59.5 C 280.11 59.54 282.5 52.9 282.5 52.9 L 284.5 52.9 C 284.5 52.9 280.14 64.5 280.1 64.5 C 279.7 65.8 279.3 66.6 279.1 67.1 C 278.7 67.7 278.3 68.2 277.9 68.5 C 277.4 68.8 276.9 68.9 276.3 68.9 C 276.3 68.9 276.3 68.9 276.3 68.9 Z M 285.3 60.9 C 285.3 60.9 287.3 60.6 287.3 60.6 C 287.4 61.4 287.7 62 288.2 62.4 C 288.6 62.8 289.3 63 290.2 63 C 291.1 63 291.8 62.8 292.2 62.4 C 292.6 62.1 292.8 61.6 292.8 61.2 C 292.8 60.7 292.6 60.4 292.3 60.1 C 292 60 291.3 59.7 290.3 59.5 C 288.9 59.1 287.9 58.8 287.3 58.5 C 286.8 58.3 286.4 57.9 286.1 57.5 C 285.8 57 285.7 56.5 285.7 55.9 C 285.7 55.4 285.8 54.9 286 54.5 C 286.3 54.1 286.6 53.7 287 53.4 C 287.3 53.2 287.7 53 288.2 52.9 C 288.7 52.7 289.3 52.6 289.9 52.6 C 290.8 52.6 291.6 52.8 292.2 53 C 292.9 53.3 293.4 53.6 293.7 54.1 C 294.1 54.5 294.3 55.1 294.4 55.8 C 294.4 55.8 292.5 56.1 292.5 56.1 C 292.4 55.5 292.2 55.1 291.8 54.7 C 291.3 54.4 290.8 54.2 290 54.2 C 289.1 54.2 288.5 54.4 288.1 54.7 C 287.7 55 287.5 55.3 287.5 55.7 C 287.5 55.9 287.6 56.2 287.8 56.4 C 287.9 56.6 288.2 56.8 288.5 56.9 C 288.7 57 289.3 57.1 290.2 57.4 C 291.6 57.8 292.5 58 293.1 58.3 C 293.6 58.5 294.1 58.9 294.4 59.3 C 294.7 59.7 294.8 60.3 294.8 61 C 294.8 61.6 294.6 62.2 294.3 62.8 C 293.9 63.3 293.3 63.8 292.6 64.1 C 291.9 64.4 291.1 64.6 290.2 64.6 C 288.7 64.6 287.6 64.3 286.8 63.6 C 286.1 63 285.6 62.1 285.3 60.9 Z M 297.1 50.8 L 297.1 48.6 L 299.1 48.6 L 299.1 50.8 L 297.1 50.8 Z M 297.1 64.3 L 297.1 52.9 L 299.1 52.9 L 299.1 64.3 L 297.1 64.3 Z M 301.2 60.9 C 301.2 60.9 303.1 60.6 303.1 60.6 C 303.3 61.4 303.6 62 304 62.4 C 304.5 62.8 305.2 63 306.1 63 C 307 63 307.7 62.8 308.1 62.4 C 308.5 62.1 308.7 61.6 308.7 61.2 C 308.7 60.7 308.5 60.4 308.2 60.1 C 307.9 60 307.2 59.7 306.2 59.5 C 304.8 59.1 303.8 58.8 303.2 58.5 C 302.7 58.3 302.3 57.9 302 57.5 C 301.7 57 301.6 56.5 301.6 55.9 C 301.6 55.4 301.7 54.9 301.9 54.5 C 302.1 54.1 302.5 53.7 302.9 53.4 C 303.2 53.2 303.6 53 304.1 52.9 C 304.6 52.7 305.2 52.6 305.8 52.6 C 306.7 52.6 307.4 52.8 308.1 53 C 308.8 53.3 309.3 53.6 309.6 54.1 C 309.9 54.5 310.2 55.1 310.3 55.8 C 310.3 55.8 308.4 56.1 308.4 56.1 C 308.3 55.5 308.1 55.1 307.6 54.7 C 307.2 54.4 306.7 54.2 305.9 54.2 C 305 54.2 304.4 54.4 304 54.7 C 303.6 55 303.4 55.3 303.4 55.7 C 303.4 55.9 303.5 56.2 303.7 56.4 C 303.8 56.6 304.1 56.8 304.4 56.9 C 304.6 57 305.2 57.1 306.1 57.4 C 307.5 57.8 308.4 58 309 58.3 C 309.5 58.5 309.9 58.9 310.2 59.3 C 310.6 59.7 310.7 60.3 310.7 61 C 310.7 61.6 310.5 62.2 310.1 62.8 C 309.8 63.3 309.2 63.8 308.5 64.1 C 307.8 64.4 307 64.6 306.1 64.6 C 304.6 64.6 303.5 64.3 302.7 63.6 C 301.9 63 301.5 62.1 301.2 60.9 Z M 313.5 64.3 L 313.5 62.1 L 315.7 62.1 C 315.7 62.1 315.72 64.3 315.7 64.3 C 315.7 65.1 315.6 65.8 315.3 66.3 C 315 66.8 314.5 67.1 313.9 67.4 C 313.9 67.4 313.4 66.6 313.4 66.6 C 313.8 66.4 314.1 66.1 314.3 65.8 C 314.5 65.5 314.6 65 314.6 64.3 C 314.61 64.3 313.5 64.3 313.5 64.3 Z " stroke="none" fill="#000"/>  </g>  <g id="Polygon6951">    <path d="M 34.9 15.9 C 34.9 16.9 34.6 17.9 34.1 18.8 C 33.6 19.8 32.9 20.5 31.8 21.1 C 30.8 21.6 29.4 21.9 27.8 21.9 C 27.83 21.9 24.6 21.9 24.6 21.9 L 24.6 29.4 L 20.6 29.4 L 20.6 9.9 C 20.6 9.9 27.83 9.86 27.8 9.9 C 29.3 9.9 30.6 10.1 31.7 10.6 C 32.8 11.2 33.6 11.9 34.1 12.8 C 34.6 13.7 34.9 14.7 34.9 15.9 C 34.9 15.9 34.9 15.9 34.9 15.9 Z M 27.7 18.7 C 28.7 18.7 29.5 18.5 30.1 18 C 30.6 17.5 30.9 16.8 30.9 15.9 C 30.9 14 29.8 13 27.7 13 C 27.66 13.05 24.6 13 24.6 13 L 24.6 18.7 L 27.7 18.7 C 27.7 18.7 27.66 18.73 27.7 18.7 Z M 41.6 16.3 C 42.1 15.5 42.7 14.8 43.5 14.4 C 44.4 13.9 45.3 13.7 46.3 13.7 C 46.33 13.66 46.3 17.8 46.3 17.8 C 46.3 17.8 45.3 17.78 45.3 17.8 C 44.1 17.8 43.1 18.1 42.5 18.6 C 41.9 19.2 41.6 20.2 41.6 21.7 C 41.57 21.67 41.6 29.4 41.6 29.4 L 37.7 29.4 L 37.7 13.9 L 41.6 13.9 L 41.6 16.3 C 41.6 16.3 41.57 16.3 41.6 16.3 Z M 55.9 29.7 C 54.4 29.7 53 29.3 51.8 28.7 C 50.6 28 49.7 27.1 49 25.8 C 48.3 24.6 48 23.2 48 21.6 C 48 20.1 48.3 18.7 49 17.4 C 49.7 16.2 50.7 15.3 51.9 14.6 C 53.1 14 54.5 13.6 56 13.6 C 57.5 13.6 58.8 14 60 14.6 C 61.2 15.3 62.2 16.2 62.9 17.4 C 63.6 18.7 63.9 20.1 63.9 21.6 C 63.9 23.2 63.6 24.6 62.9 25.8 C 62.1 27.1 61.2 28 60 28.7 C 58.7 29.3 57.4 29.7 55.9 29.7 C 55.9 29.7 55.9 29.7 55.9 29.7 Z M 55.9 26.2 C 56.6 26.2 57.2 26.1 57.9 25.7 C 58.5 25.4 59 24.9 59.4 24.2 C 59.7 23.5 59.9 22.6 59.9 21.6 C 59.9 20.2 59.5 19 58.8 18.2 C 58 17.4 57 17.1 55.9 17.1 C 54.8 17.1 53.9 17.4 53.1 18.2 C 52.3 19 52 20.2 52 21.6 C 52 23.1 52.3 24.3 53.1 25 C 53.8 25.8 54.7 26.2 55.9 26.2 C 55.9 26.2 55.9 26.2 55.9 26.2 Z M 65.8 21.6 C 65.8 20 66.1 18.6 66.8 17.4 C 67.5 16.2 68.4 15.3 69.5 14.6 C 70.7 14 72 13.6 73.5 13.6 C 75.4 13.6 77 14.1 78.3 15.1 C 79.5 16 80.4 17.4 80.8 19.1 C 80.8 19.1 76.6 19.1 76.6 19.1 C 76.3 18.5 76 17.9 75.4 17.5 C 74.9 17.2 74.2 17 73.5 17 C 72.3 17 71.5 17.4 70.8 18.2 C 70.2 19 69.8 20.2 69.8 21.6 C 69.8 23.1 70.2 24.3 70.8 25.1 C 71.5 25.9 72.3 26.3 73.5 26.3 C 75.1 26.3 76.1 25.6 76.6 24.2 C 76.6 24.2 80.8 24.2 80.8 24.2 C 80.4 25.8 79.5 27.2 78.3 28.2 C 77 29.2 75.4 29.7 73.5 29.7 C 72 29.7 70.7 29.3 69.5 28.7 C 68.4 28 67.5 27.1 66.8 25.9 C 66.1 24.7 65.8 23.2 65.8 21.6 C 65.8 21.6 65.8 21.6 65.8 21.6 Z M 98.1 21.3 C 98.1 21.9 98.1 22.4 98 22.8 C 98 22.8 86.7 22.8 86.7 22.8 C 86.7 23.9 87.1 24.8 87.8 25.5 C 88.5 26.1 89.4 26.4 90.4 26.4 C 91.8 26.4 92.9 25.8 93.5 24.5 C 93.5 24.5 97.7 24.5 97.7 24.5 C 97.3 26 96.4 27.2 95.1 28.2 C 93.9 29.2 92.3 29.7 90.5 29.7 C 89 29.7 87.6 29.3 86.4 28.7 C 85.3 28 84.3 27.1 83.7 25.8 C 83 24.6 82.7 23.2 82.7 21.6 C 82.7 20 83 18.6 83.7 17.4 C 84.3 16.2 85.2 15.3 86.4 14.6 C 87.6 14 88.9 13.6 90.5 13.6 C 91.9 13.6 93.3 14 94.4 14.6 C 95.6 15.2 96.5 16.1 97.1 17.3 C 97.8 18.5 98.1 19.8 98.1 21.3 C 98.1 21.3 98.1 21.3 98.1 21.3 Z M 94 20.2 C 94 19.2 93.7 18.4 93 17.8 C 92.2 17.2 91.4 16.9 90.3 16.9 C 89.4 16.9 88.6 17.1 87.9 17.7 C 87.2 18.3 86.8 19.1 86.7 20.2 C 86.7 20.2 94 20.2 94 20.2 Z M 106.9 29.7 C 105.6 29.7 104.5 29.4 103.5 29 C 102.5 28.5 101.7 27.9 101.1 27.1 C 100.5 26.3 100.2 25.5 100.1 24.5 C 100.1 24.5 104.1 24.5 104.1 24.5 C 104.1 25.1 104.4 25.6 105 26 C 105.5 26.4 106.1 26.6 106.9 26.6 C 107.6 26.6 108.2 26.4 108.6 26.1 C 109 25.8 109.2 25.4 109.2 25 C 109.2 24.5 109 24.1 108.5 23.8 C 108 23.6 107.1 23.3 106 23 C 104.9 22.7 103.9 22.4 103.2 22.1 C 102.4 21.8 101.8 21.4 101.3 20.8 C 100.8 20.2 100.5 19.3 100.5 18.3 C 100.5 17.4 100.7 16.6 101.2 15.9 C 101.7 15.2 102.4 14.7 103.4 14.3 C 104.3 13.8 105.4 13.6 106.6 13.6 C 108.5 13.6 109.9 14.1 111 15 C 112.1 15.9 112.7 17.2 112.9 18.8 C 112.9 18.8 109.1 18.8 109.1 18.8 C 109.1 18.1 108.8 17.7 108.3 17.3 C 107.9 16.9 107.3 16.7 106.5 16.7 C 105.8 16.7 105.2 16.9 104.9 17.1 C 104.5 17.4 104.3 17.8 104.3 18.2 C 104.3 18.8 104.6 19.1 105.1 19.4 C 105.6 19.7 106.4 20 107.5 20.2 C 108.6 20.5 109.6 20.8 110.3 21.1 C 111 21.4 111.6 21.9 112.2 22.5 C 112.7 23.1 113 23.9 113 25 C 113 25.9 112.8 26.7 112.3 27.4 C 111.8 28.1 111.1 28.6 110.1 29 C 109.2 29.5 108.1 29.7 106.9 29.7 C 106.9 29.7 106.9 29.7 106.9 29.7 Z M 122.2 29.7 C 120.9 29.7 119.7 29.4 118.7 29 C 117.7 28.5 116.9 27.9 116.3 27.1 C 115.8 26.3 115.4 25.5 115.4 24.5 C 115.4 24.5 119.3 24.5 119.3 24.5 C 119.4 25.1 119.7 25.6 120.2 26 C 120.7 26.4 121.4 26.6 122.1 26.6 C 122.9 26.6 123.5 26.4 123.9 26.1 C 124.3 25.8 124.5 25.4 124.5 25 C 124.5 24.5 124.3 24.1 123.7 23.8 C 123.2 23.6 122.4 23.3 121.3 23 C 120.1 22.7 119.2 22.4 118.4 22.1 C 117.7 21.8 117.1 21.4 116.5 20.8 C 116 20.2 115.7 19.3 115.7 18.3 C 115.7 17.4 116 16.6 116.5 15.9 C 117 15.2 117.7 14.7 118.6 14.3 C 119.5 13.8 120.6 13.6 121.9 13.6 C 123.7 13.6 125.2 14.1 126.3 15 C 127.4 15.9 128 17.2 128.1 18.8 C 128.1 18.8 124.4 18.8 124.4 18.8 C 124.3 18.1 124.1 17.7 123.6 17.3 C 123.1 16.9 122.5 16.7 121.8 16.7 C 121.1 16.7 120.5 16.9 120.1 17.1 C 119.7 17.4 119.6 17.8 119.6 18.2 C 119.6 18.8 119.8 19.1 120.3 19.4 C 120.9 19.7 121.7 20 122.8 20.2 C 123.9 20.5 124.8 20.8 125.5 21.1 C 126.3 21.4 126.9 21.9 127.4 22.5 C 128 23.1 128.2 23.9 128.3 25 C 128.3 25.9 128 26.7 127.5 27.4 C 127 28.1 126.3 28.6 125.4 29 C 124.5 29.5 123.4 29.7 122.2 29.7 C 122.2 29.7 122.2 29.7 122.2 29.7 Z M 159.5 9.9 L 159.5 29.4 L 155.5 29.4 L 155.5 16.7 L 150.3 29.4 L 147.3 29.4 L 142.1 16.7 L 142.1 29.4 L 138.1 29.4 L 138.1 9.9 L 142.6 9.9 L 148.8 24.4 L 155 9.9 L 159.5 9.9 Z M 162.3 21.6 C 162.3 20 162.6 18.6 163.2 17.4 C 163.9 16.2 164.7 15.3 165.8 14.6 C 166.9 14 168.1 13.6 169.4 13.6 C 170.5 13.6 171.6 13.9 172.4 14.3 C 173.3 14.8 174 15.4 174.5 16.1 C 174.52 16.1 174.5 13.9 174.5 13.9 L 178.5 13.9 L 178.5 29.4 L 174.5 29.4 C 174.5 29.4 174.52 27.13 174.5 27.1 C 174 27.9 173.3 28.5 172.4 28.9 C 171.5 29.4 170.5 29.7 169.4 29.7 C 168.1 29.7 166.9 29.3 165.8 28.6 C 164.7 28 163.9 27 163.2 25.8 C 162.6 24.6 162.3 23.2 162.3 21.6 C 162.3 21.6 162.3 21.6 162.3 21.6 Z M 174.5 21.6 C 174.5 20.7 174.3 19.9 174 19.2 C 173.6 18.5 173.1 18 172.4 17.6 C 171.8 17.3 171.1 17.1 170.4 17.1 C 169.7 17.1 169 17.3 168.4 17.6 C 167.8 18 167.3 18.5 166.9 19.2 C 166.5 19.8 166.3 20.7 166.3 21.6 C 166.3 22.5 166.5 23.3 166.9 24 C 167.3 24.7 167.8 25.3 168.4 25.6 C 169 26 169.7 26.2 170.4 26.2 C 171.1 26.2 171.8 26 172.4 25.7 C 173.1 25.3 173.6 24.8 174 24.1 C 174.3 23.4 174.5 22.6 174.5 21.6 C 174.5 21.6 174.5 21.6 174.5 21.6 Z M 186.2 16.1 C 186.7 15.4 187.4 14.8 188.3 14.3 C 189.2 13.9 190.2 13.6 191.3 13.6 C 192.7 13.6 193.9 14 194.9 14.6 C 196 15.3 196.9 16.2 197.5 17.4 C 198.1 18.6 198.4 20 198.4 21.6 C 198.4 23.2 198.1 24.6 197.5 25.8 C 196.9 27 196 28 194.9 28.6 C 193.9 29.3 192.7 29.7 191.3 29.7 C 190.2 29.7 189.2 29.4 188.3 29 C 187.5 28.5 186.8 27.9 186.2 27.2 C 186.22 27.19 186.2 36.8 186.2 36.8 L 182.3 36.8 L 182.3 13.9 L 186.2 13.9 L 186.2 16.1 C 186.2 16.1 186.22 16.13 186.2 16.1 Z M 194.4 21.6 C 194.4 20.7 194.2 19.8 193.9 19.2 C 193.5 18.5 193 18 192.3 17.6 C 191.7 17.3 191 17.1 190.3 17.1 C 189.6 17.1 188.9 17.3 188.3 17.6 C 187.7 18 187.2 18.5 186.8 19.2 C 186.4 19.9 186.2 20.7 186.2 21.6 C 186.2 22.6 186.4 23.4 186.8 24.1 C 187.2 24.8 187.7 25.3 188.3 25.7 C 188.9 26 189.6 26.2 190.3 26.2 C 191 26.2 191.7 26 192.3 25.6 C 193 25.3 193.5 24.7 193.9 24.1 C 194.2 23.4 194.4 22.5 194.4 21.6 C 194.4 21.6 194.4 21.6 194.4 21.6 Z M 205.2 16.1 C 205.7 15.4 206.4 14.8 207.3 14.3 C 208.2 13.9 209.2 13.6 210.3 13.6 C 211.7 13.6 212.9 14 213.9 14.6 C 215 15.3 215.8 16.2 216.5 17.4 C 217.1 18.6 217.4 20 217.4 21.6 C 217.4 23.2 217.1 24.6 216.5 25.8 C 215.8 27 215 28 213.9 28.6 C 212.9 29.3 211.7 29.7 210.3 29.7 C 209.2 29.7 208.2 29.4 207.3 29 C 206.5 28.5 205.7 27.9 205.2 27.2 C 205.2 27.19 205.2 36.8 205.2 36.8 L 201.3 36.8 L 201.3 13.9 L 205.2 13.9 L 205.2 16.1 C 205.2 16.1 205.2 16.13 205.2 16.1 Z M 213.4 21.6 C 213.4 20.7 213.2 19.8 212.8 19.2 C 212.5 18.5 211.9 18 211.3 17.6 C 210.7 17.3 210 17.1 209.3 17.1 C 208.6 17.1 207.9 17.3 207.3 17.6 C 206.7 18 206.2 18.5 205.8 19.2 C 205.4 19.9 205.2 20.7 205.2 21.6 C 205.2 22.6 205.4 23.4 205.8 24.1 C 206.2 24.8 206.7 25.3 207.3 25.7 C 207.9 26 208.6 26.2 209.3 26.2 C 210 26.2 210.7 26 211.3 25.6 C 211.9 25.3 212.5 24.7 212.8 24.1 C 213.2 23.4 213.4 22.5 213.4 21.6 C 213.4 21.6 213.4 21.6 213.4 21.6 Z M 222.3 12 C 221.6 12 221 11.8 220.5 11.4 C 220.1 10.9 219.8 10.4 219.8 9.7 C 219.8 9.1 220.1 8.5 220.5 8.1 C 221 7.7 221.6 7.4 222.3 7.4 C 222.9 7.4 223.5 7.7 224 8.1 C 224.4 8.5 224.7 9.1 224.7 9.7 C 224.7 10.4 224.4 10.9 224 11.4 C 223.5 11.8 222.9 12 222.3 12 C 222.3 12 222.3 12 222.3 12 Z M 224.2 13.9 L 224.2 29.4 L 220.3 29.4 L 220.3 13.9 L 224.2 13.9 Z M 236.6 13.7 C 238.5 13.7 240 14.2 241.1 15.4 C 242.3 16.6 242.8 18.2 242.8 20.3 C 242.84 20.3 242.8 29.4 242.8 29.4 L 238.9 29.4 C 238.9 29.4 238.92 20.83 238.9 20.8 C 238.9 19.6 238.6 18.7 238 18 C 237.4 17.3 236.5 17 235.5 17 C 234.4 17 233.5 17.3 232.9 18 C 232.3 18.7 232 19.6 232 20.8 C 231.97 20.83 232 29.4 232 29.4 L 228.1 29.4 L 228.1 13.9 L 232 13.9 C 232 13.9 231.97 15.82 232 15.8 C 232.5 15.1 233.2 14.6 234 14.2 C 234.8 13.9 235.7 13.7 236.6 13.7 C 236.6 13.7 236.6 13.7 236.6 13.7 Z M 252.6 13.6 C 253.8 13.6 254.8 13.9 255.7 14.3 C 256.6 14.8 257.3 15.4 257.8 16.1 C 257.76 16.1 257.8 13.9 257.8 13.9 L 261.7 13.9 C 261.7 13.9 261.71 29.51 261.7 29.5 C 261.7 30.9 261.4 32.2 260.8 33.4 C 260.3 34.5 259.4 35.4 258.2 36 C 257.1 36.7 255.7 37 254 37 C 251.8 37 250 36.5 248.6 35.5 C 247.2 34.5 246.4 33.1 246.2 31.3 C 246.2 31.3 250.1 31.3 250.1 31.3 C 250.3 32 250.8 32.6 251.4 33 C 252.1 33.4 253 33.6 253.9 33.6 C 255.1 33.6 256 33.3 256.7 32.6 C 257.4 31.9 257.8 30.9 257.8 29.5 C 257.8 29.5 257.8 27.1 257.8 27.1 C 257.3 27.8 256.6 28.4 255.7 28.9 C 254.8 29.4 253.8 29.7 252.6 29.7 C 251.3 29.7 250.1 29.3 249.1 28.6 C 248 28 247.1 27 246.5 25.8 C 245.9 24.6 245.6 23.2 245.6 21.6 C 245.6 20 245.9 18.6 246.5 17.4 C 247.1 16.2 248 15.3 249 14.6 C 250.1 14 251.3 13.6 252.6 13.6 C 252.6 13.6 252.6 13.6 252.6 13.6 Z M 257.8 21.6 C 257.8 20.7 257.6 19.9 257.2 19.2 C 256.8 18.5 256.3 18 255.7 17.6 C 255.1 17.3 254.4 17.1 253.6 17.1 C 252.9 17.1 252.2 17.3 251.6 17.6 C 251 18 250.5 18.5 250.1 19.2 C 249.7 19.8 249.6 20.7 249.6 21.6 C 249.6 22.5 249.7 23.3 250.1 24 C 250.5 24.7 251 25.3 251.6 25.6 C 252.3 26 252.9 26.2 253.6 26.2 C 254.4 26.2 255.1 26 255.7 25.7 C 256.3 25.3 256.8 24.8 257.2 24.1 C 257.6 23.4 257.8 22.6 257.8 21.6 C 257.8 21.6 257.8 21.6 257.8 21.6 Z M 285.5 9.9 L 285.5 13 L 280.3 13 L 280.3 29.4 L 276.4 29.4 L 276.4 13 L 271.2 13 L 271.2 9.9 L 285.5 9.9 Z M 295.3 29.7 C 293.8 29.7 292.4 29.3 291.2 28.7 C 290 28 289.1 27.1 288.4 25.8 C 287.7 24.6 287.4 23.2 287.4 21.6 C 287.4 20.1 287.7 18.7 288.4 17.4 C 289.1 16.2 290.1 15.3 291.3 14.6 C 292.5 14 293.9 13.6 295.4 13.6 C 296.9 13.6 298.2 14 299.4 14.6 C 300.6 15.3 301.6 16.2 302.3 17.4 C 303 18.7 303.3 20.1 303.3 21.6 C 303.3 23.2 303 24.6 302.3 25.8 C 301.5 27.1 300.6 28 299.4 28.7 C 298.1 29.3 296.8 29.7 295.3 29.7 C 295.3 29.7 295.3 29.7 295.3 29.7 Z M 295.3 26.2 C 296 26.2 296.6 26.1 297.3 25.7 C 297.9 25.4 298.4 24.9 298.8 24.2 C 299.1 23.5 299.3 22.6 299.3 21.6 C 299.3 20.2 298.9 19 298.1 18.2 C 297.4 17.4 296.4 17.1 295.3 17.1 C 294.2 17.1 293.2 17.4 292.5 18.2 C 291.7 19 291.4 20.2 291.4 21.6 C 291.4 23.1 291.7 24.3 292.5 25 C 293.2 25.8 294.1 26.2 295.3 26.2 C 295.3 26.2 295.3 26.2 295.3 26.2 Z M 313.1 29.7 C 311.6 29.7 310.3 29.3 309.1 28.7 C 307.9 28 307 27.1 306.3 25.8 C 305.6 24.6 305.2 23.2 305.2 21.6 C 305.2 20.1 305.6 18.7 306.3 17.4 C 307 16.2 308 15.3 309.2 14.6 C 310.4 14 311.7 13.6 313.2 13.6 C 314.7 13.6 316.1 14 317.3 14.6 C 318.5 15.3 319.5 16.2 320.2 17.4 C 320.9 18.7 321.2 20.1 321.2 21.6 C 321.2 23.2 320.8 24.6 320.1 25.8 C 319.4 27.1 318.4 28 317.2 28.7 C 316 29.3 314.6 29.7 313.1 29.7 C 313.1 29.7 313.1 29.7 313.1 29.7 Z M 313.1 26.2 C 313.8 26.2 314.5 26.1 315.1 25.7 C 315.7 25.4 316.2 24.9 316.6 24.2 C 317 23.5 317.2 22.6 317.2 21.6 C 317.2 20.2 316.8 19 316 18.2 C 315.2 17.4 314.3 17.1 313.2 17.1 C 312.1 17.1 311.1 17.4 310.4 18.2 C 309.6 19 309.2 20.2 309.2 21.6 C 309.2 23.1 309.6 24.3 310.3 25 C 311.1 25.8 312 26.2 313.1 26.2 C 313.1 26.2 313.1 26.2 313.1 26.2 Z M 328 8.7 L 328 29.4 L 324.1 29.4 L 324.1 8.7 L 328 8.7 Z M 337.8 29.7 C 336.5 29.7 335.4 29.4 334.4 29 C 333.4 28.5 332.6 27.9 332 27.1 C 331.4 26.3 331.1 25.5 331 24.5 C 331 24.5 335 24.5 335 24.5 C 335.1 25.1 335.4 25.6 335.9 26 C 336.4 26.4 337 26.6 337.8 26.6 C 338.5 26.6 339.1 26.4 339.5 26.1 C 340 25.8 340.2 25.4 340.2 25 C 340.2 24.5 339.9 24.1 339.4 23.8 C 338.9 23.6 338.1 23.3 336.9 23 C 335.8 22.7 334.8 22.4 334.1 22.1 C 333.4 21.8 332.7 21.4 332.2 20.8 C 331.7 20.2 331.4 19.3 331.4 18.3 C 331.4 17.4 331.6 16.6 332.1 15.9 C 332.6 15.2 333.3 14.7 334.3 14.3 C 335.2 13.8 336.3 13.6 337.5 13.6 C 339.4 13.6 340.9 14.1 342 15 C 343.1 15.9 343.7 17.2 343.8 18.8 C 343.8 18.8 340 18.8 340 18.8 C 340 18.1 339.7 17.7 339.3 17.3 C 338.8 16.9 338.2 16.7 337.4 16.7 C 336.7 16.7 336.2 16.9 335.8 17.1 C 335.4 17.4 335.2 17.8 335.2 18.2 C 335.2 18.8 335.5 19.1 336 19.4 C 336.5 19.7 337.3 20 338.4 20.2 C 339.5 20.5 340.5 20.8 341.2 21.1 C 341.9 21.4 342.6 21.9 343.1 22.5 C 343.6 23.1 343.9 23.9 343.9 25 C 343.9 25.9 343.7 26.7 343.2 27.4 C 342.7 28.1 342 28.6 341 29 C 340.1 29.5 339 29.7 337.8 29.7 C 337.8 29.7 337.8 29.7 337.8 29.7 Z " stroke="none" fill="#e4007e"/>  </g></svg>