<?xml version="1.0" standalone="no"?><!DOCTYPE svg PUBLIC "-//W3C//DTD SVG 1.1//EN" "http://www.w3.org/Graphics/SVG/1.1/DTD/svg11.dtd"><svg xmlns="http://www.w3.org/2000/svg" version="1.1" width="346px" height="139.6px" viewBox="0 -2 346 139.6" style="top:-2px">  <desc>Agentic AI &amp; Multi Step Systems Advanced tools requiring coding knowledge and developer software.</desc>  <defs/>  <g id="Polygon7983">    <path d="M 1.5 124.3 L 1.5 108.6 L 3.4 108.6 L 3.4 117.5 L 8 112.9 L 10.5 112.9 L 6.1 117.1 L 10.9 124.3 L 8.5 124.3 L 4.8 118.5 L 3.4 119.8 L 3.4 124.3 L 1.5 124.3 Z M 12.5 124.3 L 12.5 112.9 L 14.2 112.9 C 14.2 112.9 14.19 114.52 14.2 114.5 C 15 113.3 16.2 112.6 17.8 112.6 C 18.5 112.6 19.1 112.8 19.7 113 C 20.3 113.3 20.7 113.6 21 114 C 21.3 114.4 21.5 114.9 21.6 115.4 C 21.7 115.8 21.7 116.4 21.7 117.3 C 21.72 117.29 21.7 124.3 21.7 124.3 L 19.8 124.3 C 19.8 124.3 19.79 117.36 19.8 117.4 C 19.8 116.6 19.7 116 19.6 115.6 C 19.4 115.2 19.1 114.9 18.8 114.7 C 18.4 114.4 17.9 114.3 17.4 114.3 C 16.6 114.3 15.9 114.6 15.3 115.1 C 14.7 115.6 14.4 116.6 14.4 118.1 C 14.38 118.07 14.4 124.3 14.4 124.3 L 12.5 124.3 Z M 24 118.6 C 24 116.5 24.6 114.9 25.7 113.9 C 26.7 113.1 27.9 112.6 29.3 112.6 C 30.9 112.6 32.2 113.2 33.2 114.2 C 34.2 115.2 34.7 116.6 34.7 118.4 C 34.7 119.9 34.4 121.1 34 121.9 C 33.6 122.7 32.9 123.4 32.1 123.9 C 31.2 124.3 30.3 124.6 29.3 124.6 C 27.7 124.6 26.4 124 25.4 123 C 24.5 122 24 120.5 24 118.6 Z M 26 118.6 C 26 120.1 26.3 121.2 26.9 121.9 C 27.5 122.6 28.3 123 29.3 123 C 30.3 123 31.1 122.6 31.7 121.9 C 32.3 121.1 32.7 120 32.7 118.5 C 32.7 117.1 32.3 116.1 31.7 115.3 C 31.1 114.6 30.3 114.2 29.3 114.2 C 28.3 114.2 27.5 114.6 26.9 115.3 C 26.3 116 26 117.1 26 118.6 Z M 39 124.3 L 35.5 112.9 L 37.5 112.9 L 39.3 119.5 C 39.3 119.5 40.03 121.93 40 121.9 C 40.1 121.8 40.3 121 40.6 119.6 C 40.62 119.58 42.4 112.9 42.4 112.9 L 44.4 112.9 L 46.1 119.5 L 46.7 121.7 L 47.4 119.5 L 49.3 112.9 L 51.2 112.9 L 47.6 124.3 L 45.6 124.3 L 43.8 117.5 L 43.4 115.5 L 41 124.3 L 39 124.3 Z M 52.8 124.3 L 52.8 108.6 L 54.7 108.6 L 54.7 124.3 L 52.8 124.3 Z M 65.5 120.6 C 65.5 120.6 67.5 120.9 67.5 120.9 C 67.2 122 66.6 123 65.8 123.6 C 64.9 124.2 63.8 124.6 62.5 124.6 C 60.8 124.6 59.5 124 58.5 123 C 57.5 122 57.1 120.6 57.1 118.7 C 57.1 116.8 57.5 115.3 58.5 114.2 C 59.5 113.2 60.8 112.6 62.4 112.6 C 63.9 112.6 65.2 113.2 66.1 114.2 C 67.1 115.2 67.6 116.7 67.6 118.6 C 67.6 118.7 67.6 118.9 67.6 119.1 C 67.6 119.1 59 119.1 59 119.1 C 59.1 120.3 59.5 121.3 60.1 122 C 60.8 122.6 61.5 123 62.5 123 C 63.2 123 63.8 122.8 64.3 122.4 C 64.8 122 65.2 121.4 65.5 120.6 Z M 59.2 117.5 C 59.2 117.5 65.5 117.5 65.5 117.5 C 65.4 116.5 65.2 115.8 64.8 115.3 C 64.2 114.6 63.4 114.2 62.4 114.2 C 61.5 114.2 60.8 114.5 60.2 115.1 C 59.6 115.7 59.2 116.5 59.2 117.5 Z M 77.3 124.3 C 77.3 124.3 77.33 122.86 77.3 122.9 C 76.6 124 75.5 124.6 74.1 124.6 C 73.2 124.6 72.4 124.3 71.6 123.8 C 70.9 123.3 70.3 122.6 69.9 121.7 C 69.4 120.8 69.2 119.8 69.2 118.6 C 69.2 117.5 69.4 116.4 69.8 115.5 C 70.2 114.6 70.8 113.9 71.5 113.4 C 72.3 112.9 73.1 112.6 74.1 112.6 C 74.7 112.6 75.4 112.8 75.9 113.1 C 76.4 113.4 76.9 113.7 77.2 114.2 C 77.2 114.21 77.2 108.6 77.2 108.6 L 79.1 108.6 L 79.1 124.3 L 77.3 124.3 Z M 71.2 118.6 C 71.2 120.1 71.5 121.2 72.1 121.9 C 72.8 122.6 73.5 123 74.3 123 C 75.2 123 75.9 122.6 76.5 121.9 C 77.1 121.2 77.4 120.2 77.4 118.8 C 77.4 117.2 77.1 116.1 76.5 115.3 C 75.9 114.6 75.1 114.2 74.2 114.2 C 73.4 114.2 72.7 114.6 72.1 115.3 C 71.5 116 71.2 117.1 71.2 118.6 Z M 81.8 125.2 C 81.8 125.2 83.7 125.5 83.7 125.5 C 83.8 126.1 84 126.5 84.3 126.8 C 84.8 127.2 85.5 127.3 86.3 127.3 C 87.2 127.3 87.9 127.2 88.4 126.8 C 88.9 126.4 89.2 125.9 89.4 125.3 C 89.5 124.9 89.5 124.1 89.5 122.8 C 88.7 123.8 87.6 124.3 86.4 124.3 C 84.8 124.3 83.6 123.7 82.7 122.6 C 81.9 121.5 81.4 120.1 81.4 118.5 C 81.4 117.4 81.6 116.4 82 115.5 C 82.4 114.6 83 113.9 83.7 113.4 C 84.5 112.9 85.4 112.6 86.4 112.6 C 87.7 112.6 88.8 113.2 89.7 114.3 C 89.7 114.27 89.7 112.9 89.7 112.9 L 91.5 112.9 C 91.5 112.9 91.48 122.76 91.5 122.8 C 91.5 124.5 91.3 125.8 90.9 126.5 C 90.6 127.3 90 127.9 89.2 128.3 C 88.4 128.7 87.5 128.9 86.3 128.9 C 85 128.9 83.9 128.6 83 128 C 82.2 127.4 81.8 126.5 81.8 125.2 Z M 83.4 118.4 C 83.4 119.9 83.7 121 84.3 121.7 C 84.9 122.4 85.6 122.7 86.5 122.7 C 87.4 122.7 88.2 122.4 88.8 121.7 C 89.4 121 89.7 119.9 89.7 118.5 C 89.7 117.1 89.4 116 88.7 115.3 C 88.1 114.6 87.4 114.2 86.5 114.2 C 85.6 114.2 84.9 114.6 84.3 115.3 C 83.7 116 83.4 117 83.4 118.4 Z M 102.2 120.6 C 102.2 120.6 104.2 120.9 104.2 120.9 C 103.9 122 103.3 123 102.5 123.6 C 101.6 124.2 100.5 124.6 99.2 124.6 C 97.5 124.6 96.2 124 95.2 123 C 94.2 122 93.8 120.6 93.8 118.7 C 93.8 116.8 94.3 115.3 95.2 114.2 C 96.2 113.2 97.5 112.6 99.1 112.6 C 100.6 112.6 101.9 113.2 102.8 114.2 C 103.8 115.2 104.3 116.7 104.3 118.6 C 104.3 118.7 104.3 118.9 104.3 119.1 C 104.3 119.1 95.8 119.1 95.8 119.1 C 95.8 120.3 96.2 121.3 96.8 122 C 97.5 122.6 98.3 123 99.2 123 C 99.9 123 100.5 122.8 101 122.4 C 101.5 122 101.9 121.4 102.2 120.6 Z M 95.9 117.5 C 95.9 117.5 102.2 117.5 102.2 117.5 C 102.1 116.5 101.9 115.8 101.5 115.3 C 100.9 114.6 100.1 114.2 99.1 114.2 C 98.2 114.2 97.5 114.5 96.9 115.1 C 96.3 115.7 95.9 116.5 95.9 117.5 Z M 120.4 124.3 C 120.2 123.9 120.1 123.4 120.1 122.9 C 119.3 123.5 118.7 123.9 118 124.2 C 117.3 124.4 116.6 124.6 115.9 124.6 C 114.6 124.6 113.6 124.3 113 123.6 C 112.3 123 112 122.2 112 121.3 C 112 120.7 112.1 120.2 112.3 119.8 C 112.6 119.3 112.9 118.9 113.3 118.7 C 113.8 118.4 114.2 118.2 114.7 118 C 115.1 117.9 115.7 117.8 116.4 117.7 C 118 117.5 119.2 117.3 119.9 117.1 C 119.9 116.8 119.9 116.6 119.9 116.6 C 119.9 115.8 119.7 115.2 119.4 114.9 C 118.9 114.5 118.1 114.2 117.2 114.2 C 116.2 114.2 115.6 114.4 115.1 114.7 C 114.7 115 114.4 115.6 114.2 116.4 C 114.2 116.4 112.3 116.2 112.3 116.2 C 112.5 115.3 112.7 114.7 113.1 114.2 C 113.5 113.7 114.1 113.3 114.8 113 C 115.6 112.8 116.5 112.6 117.4 112.6 C 118.4 112.6 119.2 112.8 119.8 113 C 120.4 113.2 120.9 113.5 121.2 113.8 C 121.4 114.2 121.6 114.6 121.8 115.2 C 121.8 115.5 121.9 116.1 121.9 116.9 C 121.9 116.9 121.9 119.5 121.9 119.5 C 121.9 121.3 121.9 122.5 122 122.9 C 122.1 123.4 122.2 123.9 122.5 124.3 C 122.47 124.3 120.4 124.3 120.4 124.3 C 120.4 124.3 120.45 124.3 120.4 124.3 Z M 119.9 118.6 C 119.2 118.9 118.1 119.1 116.7 119.3 C 115.9 119.4 115.4 119.6 115.1 119.7 C 114.7 119.8 114.5 120 114.3 120.3 C 114.1 120.6 114 120.9 114 121.2 C 114 121.8 114.2 122.2 114.6 122.5 C 115 122.9 115.6 123 116.3 123 C 117.1 123 117.7 122.9 118.3 122.6 C 118.9 122.2 119.3 121.8 119.6 121.2 C 119.8 120.8 119.9 120.1 119.9 119.3 C 119.9 119.3 119.9 118.6 119.9 118.6 Z M 124.8 124.3 L 124.8 112.9 L 126.6 112.9 C 126.6 112.9 126.59 114.52 126.6 114.5 C 127.4 113.3 128.6 112.6 130.2 112.6 C 130.9 112.6 131.5 112.8 132.1 113 C 132.7 113.3 133.1 113.6 133.4 114 C 133.7 114.4 133.9 114.9 134 115.4 C 134.1 115.8 134.1 116.4 134.1 117.3 C 134.12 117.29 134.1 124.3 134.1 124.3 L 132.2 124.3 C 132.2 124.3 132.19 117.36 132.2 117.4 C 132.2 116.6 132.1 116 132 115.6 C 131.8 115.2 131.5 114.9 131.2 114.7 C 130.8 114.4 130.3 114.3 129.8 114.3 C 129 114.3 128.3 114.6 127.7 115.1 C 127.1 115.6 126.8 116.6 126.8 118.1 C 126.78 118.07 126.8 124.3 126.8 124.3 L 124.8 124.3 Z M 144.5 124.3 C 144.5 124.3 144.49 122.86 144.5 122.9 C 143.8 124 142.7 124.6 141.3 124.6 C 140.4 124.6 139.6 124.3 138.8 123.8 C 138 123.3 137.4 122.6 137 121.7 C 136.6 120.8 136.4 119.8 136.4 118.6 C 136.4 117.5 136.6 116.4 137 115.5 C 137.3 114.6 137.9 113.9 138.7 113.4 C 139.4 112.9 140.3 112.6 141.2 112.6 C 141.9 112.6 142.5 112.8 143 113.1 C 143.6 113.4 144 113.7 144.4 114.2 C 144.36 114.21 144.4 108.6 144.4 108.6 L 146.3 108.6 L 146.3 124.3 L 144.5 124.3 Z M 138.4 118.6 C 138.4 120.1 138.7 121.2 139.3 121.9 C 139.9 122.6 140.6 123 141.5 123 C 142.3 123 143 122.6 143.6 121.9 C 144.2 121.2 144.5 120.2 144.5 118.8 C 144.5 117.2 144.2 116.1 143.6 115.3 C 143 114.6 142.3 114.2 141.4 114.2 C 140.5 114.2 139.8 114.6 139.2 115.3 C 138.7 116 138.4 117.1 138.4 118.6 Z M 162.7 124.3 C 162.7 124.3 162.7 122.86 162.7 122.9 C 162 124 160.9 124.6 159.5 124.6 C 158.6 124.6 157.8 124.3 157 123.8 C 156.2 123.3 155.6 122.6 155.2 121.7 C 154.8 120.8 154.6 119.8 154.6 118.6 C 154.6 117.5 154.8 116.4 155.2 115.5 C 155.5 114.6 156.1 113.9 156.9 113.4 C 157.6 112.9 158.5 112.6 159.4 112.6 C 160.1 112.6 160.7 112.8 161.3 113.1 C 161.8 113.4 162.2 113.7 162.6 114.2 C 162.57 114.21 162.6 108.6 162.6 108.6 L 164.5 108.6 L 164.5 124.3 L 162.7 124.3 Z M 156.6 118.6 C 156.6 120.1 156.9 121.2 157.5 121.9 C 158.1 122.6 158.9 123 159.7 123 C 160.5 123 161.3 122.6 161.8 121.9 C 162.4 121.2 162.7 120.2 162.7 118.8 C 162.7 117.2 162.4 116.1 161.8 115.3 C 161.2 114.6 160.5 114.2 159.6 114.2 C 158.7 114.2 158 114.6 157.5 115.3 C 156.9 116 156.6 117.1 156.6 118.6 Z M 175.3 120.6 C 175.3 120.6 177.3 120.9 177.3 120.9 C 177 122 176.4 123 175.6 123.6 C 174.7 124.2 173.6 124.6 172.3 124.6 C 170.7 124.6 169.3 124 168.4 123 C 167.4 122 166.9 120.6 166.9 118.7 C 166.9 116.8 167.4 115.3 168.4 114.2 C 169.4 113.2 170.6 112.6 172.2 112.6 C 173.7 112.6 175 113.2 176 114.2 C 176.9 115.2 177.4 116.7 177.4 118.6 C 177.4 118.7 177.4 118.9 177.4 119.1 C 177.4 119.1 168.9 119.1 168.9 119.1 C 169 120.3 169.3 121.3 169.9 122 C 170.6 122.6 171.4 123 172.3 123 C 173 123 173.6 122.8 174.1 122.4 C 174.7 122 175 121.4 175.3 120.6 Z M 169 117.5 C 169 117.5 175.4 117.5 175.4 117.5 C 175.3 116.5 175 115.8 174.6 115.3 C 174 114.6 173.2 114.2 172.2 114.2 C 171.3 114.2 170.6 114.5 170 115.1 C 169.4 115.7 169.1 116.5 169 117.5 Z M 182.9 124.3 L 178.6 112.9 L 180.6 112.9 C 180.6 112.9 183.09 119.73 183.1 119.7 C 183.4 120.5 183.6 121.2 183.8 122 C 184 121.4 184.2 120.7 184.5 119.9 C 184.54 119.86 187.1 112.9 187.1 112.9 L 189.1 112.9 L 184.7 124.3 L 182.9 124.3 Z M 198.6 120.6 C 198.6 120.6 200.6 120.9 200.6 120.9 C 200.3 122 199.7 123 198.8 123.6 C 198 124.2 196.9 124.6 195.6 124.6 C 193.9 124.6 192.6 124 191.6 123 C 190.6 122 190.1 120.6 190.1 118.7 C 190.1 116.8 190.6 115.3 191.6 114.2 C 192.6 113.2 193.9 112.6 195.5 112.6 C 197 112.6 198.2 113.2 199.2 114.2 C 200.2 115.2 200.6 116.7 200.6 118.6 C 200.6 118.7 200.6 118.9 200.6 119.1 C 200.6 119.1 192.1 119.1 192.1 119.1 C 192.2 120.3 192.5 121.3 193.2 122 C 193.8 122.6 194.6 123 195.6 123 C 196.3 123 196.9 122.8 197.4 122.4 C 197.9 122 198.3 121.4 198.6 120.6 Z M 192.2 117.5 C 192.2 117.5 198.6 117.5 198.6 117.5 C 198.5 116.5 198.3 115.8 197.9 115.3 C 197.3 114.6 196.5 114.2 195.5 114.2 C 194.6 114.2 193.8 114.5 193.2 115.1 C 192.6 115.7 192.3 116.5 192.2 117.5 Z M 203 124.3 L 203 108.6 L 204.9 108.6 L 204.9 124.3 L 203 124.3 Z M 207.2 118.6 C 207.2 116.5 207.8 114.9 208.9 113.9 C 209.9 113.1 211.1 112.6 212.5 112.6 C 214.1 112.6 215.4 113.2 216.4 114.2 C 217.4 115.2 217.9 116.6 217.9 118.4 C 217.9 119.9 217.6 121.1 217.2 121.9 C 216.8 122.7 216.1 123.4 215.3 123.9 C 214.4 124.3 213.5 124.6 212.5 124.6 C 210.9 124.6 209.6 124 208.6 123 C 207.7 122 207.2 120.5 207.2 118.6 Z M 209.2 118.6 C 209.2 120.1 209.5 121.2 210.1 121.9 C 210.8 122.6 211.6 123 212.5 123 C 213.5 123 214.3 122.6 214.9 121.9 C 215.6 121.1 215.9 120 215.9 118.5 C 215.9 117.1 215.6 116.1 214.9 115.3 C 214.3 114.6 213.5 114.2 212.5 114.2 C 211.6 114.2 210.8 114.6 210.1 115.3 C 209.5 116 209.2 117.1 209.2 118.6 Z M 220.1 128.7 L 220.1 112.9 L 221.9 112.9 C 221.9 112.9 221.89 114.38 221.9 114.4 C 222.3 113.8 222.8 113.4 223.3 113.1 C 223.8 112.8 224.5 112.6 225.2 112.6 C 226.2 112.6 227 112.9 227.8 113.4 C 228.5 113.9 229.1 114.6 229.5 115.5 C 229.8 116.4 230 117.4 230 118.5 C 230 119.7 229.8 120.7 229.4 121.7 C 229 122.6 228.4 123.3 227.6 123.8 C 226.8 124.3 225.9 124.6 225.1 124.6 C 224.4 124.6 223.8 124.4 223.3 124.2 C 222.8 123.9 222.4 123.5 222.1 123.1 C 222.06 123.12 222.1 128.7 222.1 128.7 L 220.1 128.7 Z M 221.9 118.7 C 221.9 120.1 222.2 121.2 222.8 121.9 C 223.4 122.6 224.1 123 224.9 123 C 225.8 123 226.5 122.6 227.1 121.9 C 227.7 121.2 228.1 120 228.1 118.5 C 228.1 117 227.8 116 227.2 115.2 C 226.6 114.5 225.8 114.2 225 114.2 C 224.2 114.2 223.5 114.5 222.8 115.3 C 222.2 116.1 221.9 117.2 221.9 118.7 Z M 240.2 120.6 C 240.2 120.6 242.2 120.9 242.2 120.9 C 241.9 122 241.3 123 240.4 123.6 C 239.6 124.2 238.5 124.6 237.2 124.6 C 235.5 124.6 234.2 124 233.2 123 C 232.2 122 231.7 120.6 231.7 118.7 C 231.7 116.8 232.2 115.3 233.2 114.2 C 234.2 113.2 235.5 112.6 237 112.6 C 238.6 112.6 239.8 113.2 240.8 114.2 C 241.8 115.2 242.2 116.7 242.2 118.6 C 242.2 118.7 242.2 118.9 242.2 119.1 C 242.2 119.1 233.7 119.1 233.7 119.1 C 233.8 120.3 234.1 121.3 234.8 122 C 235.4 122.6 236.2 123 237.2 123 C 237.9 123 238.5 122.8 239 122.4 C 239.5 122 239.9 121.4 240.2 120.6 Z M 233.8 117.5 C 233.8 117.5 240.2 117.5 240.2 117.5 C 240.1 116.5 239.9 115.8 239.5 115.3 C 238.8 114.6 238 114.2 237.1 114.2 C 236.2 114.2 235.4 114.5 234.8 115.1 C 234.2 115.7 233.9 116.5 233.8 117.5 Z M 244.6 124.3 L 244.6 112.9 L 246.3 112.9 C 246.3 112.9 246.32 114.62 246.3 114.6 C 246.8 113.8 247.2 113.3 247.5 113 C 247.9 112.8 248.3 112.6 248.8 112.6 C 249.4 112.6 250.1 112.8 250.8 113.3 C 250.8 113.3 250.1 115.1 250.1 115.1 C 249.6 114.8 249.2 114.6 248.7 114.6 C 248.3 114.6 247.9 114.8 247.6 115 C 247.2 115.3 247 115.6 246.8 116.1 C 246.6 116.8 246.5 117.5 246.5 118.3 C 246.51 118.33 246.5 124.3 246.5 124.3 L 244.6 124.3 Z M 257.1 120.9 C 257.1 120.9 259 120.6 259 120.6 C 259.1 121.4 259.4 122 259.9 122.4 C 260.4 122.8 261.1 123 262 123 C 262.9 123 263.5 122.8 264 122.4 C 264.4 122.1 264.6 121.6 264.6 121.2 C 264.6 120.7 264.4 120.4 264 120.1 C 263.8 120 263.1 119.7 262.1 119.5 C 260.7 119.1 259.7 118.8 259.1 118.5 C 258.6 118.3 258.2 117.9 257.9 117.5 C 257.6 117 257.4 116.5 257.4 115.9 C 257.4 115.4 257.6 114.9 257.8 114.5 C 258 114.1 258.3 113.7 258.7 113.4 C 259 113.2 259.5 113 260 112.9 C 260.5 112.7 261.1 112.6 261.6 112.6 C 262.5 112.6 263.3 112.8 264 113 C 264.7 113.3 265.2 113.6 265.5 114.1 C 265.8 114.5 266 115.1 266.2 115.8 C 266.2 115.8 264.3 116.1 264.3 116.1 C 264.2 115.5 263.9 115.1 263.5 114.7 C 263.1 114.4 262.5 114.2 261.8 114.2 C 260.9 114.2 260.3 114.4 259.9 114.7 C 259.5 115 259.3 115.3 259.3 115.7 C 259.3 115.9 259.4 116.2 259.6 116.4 C 259.7 116.6 260 116.8 260.3 116.9 C 260.5 117 261.1 117.1 262 117.4 C 263.4 117.8 264.3 118 264.9 118.3 C 265.4 118.5 265.8 118.9 266.1 119.3 C 266.4 119.7 266.6 120.3 266.6 121 C 266.6 121.6 266.4 122.2 266 122.8 C 265.7 123.3 265.1 123.8 264.4 124.1 C 263.7 124.4 262.9 124.6 262 124.6 C 260.5 124.6 259.4 124.3 258.6 123.6 C 257.8 123 257.3 122.1 257.1 120.9 Z M 268.2 118.6 C 268.2 116.5 268.8 114.9 269.9 113.9 C 270.9 113.1 272.1 112.6 273.5 112.6 C 275.1 112.6 276.4 113.2 277.4 114.2 C 278.4 115.2 278.9 116.6 278.9 118.4 C 278.9 119.9 278.6 121.1 278.2 121.9 C 277.8 122.7 277.1 123.4 276.3 123.9 C 275.4 124.3 274.5 124.6 273.5 124.6 C 271.9 124.6 270.6 124 269.7 123 C 268.7 122 268.2 120.5 268.2 118.6 Z M 270.2 118.6 C 270.2 120.1 270.5 121.2 271.1 121.9 C 271.8 122.6 272.6 123 273.5 123 C 274.5 123 275.3 122.6 275.9 121.9 C 276.6 121.1 276.9 120 276.9 118.5 C 276.9 117.1 276.6 116.1 275.9 115.3 C 275.3 114.6 274.5 114.2 273.5 114.2 C 272.6 114.2 271.8 114.6 271.1 115.3 C 270.5 116 270.2 117.1 270.2 118.6 Z M 281.6 124.3 L 281.6 114.4 L 279.9 114.4 L 279.9 112.9 L 281.6 112.9 C 281.6 112.9 281.6 111.68 281.6 111.7 C 281.6 110.9 281.7 110.3 281.8 110 C 282 109.5 282.3 109.1 282.8 108.8 C 283.3 108.4 283.9 108.3 284.8 108.3 C 285.3 108.3 285.9 108.4 286.6 108.5 C 286.6 108.5 286.3 110.2 286.3 110.2 C 285.9 110.1 285.5 110.1 285.1 110.1 C 284.5 110.1 284.1 110.2 283.9 110.4 C 283.6 110.7 283.5 111.2 283.5 111.8 C 283.52 111.84 283.5 112.9 283.5 112.9 L 285.7 112.9 L 285.7 114.4 L 283.5 114.4 L 283.5 124.3 L 281.6 124.3 Z M 290.6 122.6 C 290.8 122.6 291.1 122.6 291.5 122.6 C 291.5 122.6 291.7 124.3 291.7 124.3 C 291.2 124.4 290.7 124.5 290.3 124.5 C 289.6 124.5 289 124.3 288.7 124.1 C 288.3 123.9 288 123.6 287.8 123.2 C 287.7 122.9 287.6 122.1 287.6 121 C 287.6 120.96 287.6 114.4 287.6 114.4 L 286.2 114.4 L 286.2 112.9 L 287.6 112.9 L 287.6 110.1 L 289.5 108.9 L 289.5 112.9 L 291.5 112.9 L 291.5 114.4 L 289.5 114.4 C 289.5 114.4 289.53 121.07 289.5 121.1 C 289.5 121.6 289.6 122 289.6 122.1 C 289.7 122.3 289.8 122.4 290 122.5 C 290.1 122.6 290.3 122.6 290.6 122.6 C 290.6 122.6 290.6 122.6 290.6 122.6 Z M 295.5 124.3 L 292 112.9 L 294 112.9 L 295.8 119.5 C 295.8 119.5 296.46 121.93 296.5 121.9 C 296.5 121.8 296.7 121 297.1 119.6 C 297.06 119.58 298.9 112.9 298.9 112.9 L 300.9 112.9 L 302.6 119.5 L 303.1 121.7 L 303.8 119.5 L 305.7 112.9 L 307.6 112.9 L 304.1 124.3 L 302.1 124.3 L 300.2 117.5 L 299.8 115.5 L 297.5 124.3 L 295.5 124.3 Z M 317.1 124.3 C 316.9 123.9 316.7 123.4 316.7 122.9 C 316 123.5 315.3 123.9 314.6 124.2 C 314 124.4 313.3 124.6 312.5 124.6 C 311.2 124.6 310.3 124.3 309.6 123.6 C 308.9 123 308.6 122.2 308.6 121.3 C 308.6 120.7 308.7 120.2 309 119.8 C 309.2 119.3 309.6 118.9 310 118.7 C 310.4 118.4 310.8 118.2 311.4 118 C 311.7 117.9 312.3 117.8 313.1 117.7 C 314.6 117.5 315.8 117.3 316.5 117.1 C 316.5 116.8 316.5 116.6 316.5 116.6 C 316.5 115.8 316.4 115.2 316 114.9 C 315.5 114.5 314.8 114.2 313.8 114.2 C 312.9 114.2 312.2 114.4 311.8 114.7 C 311.3 115 311 115.6 310.8 116.4 C 310.8 116.4 308.9 116.2 308.9 116.2 C 309.1 115.3 309.4 114.7 309.8 114.2 C 310.2 113.7 310.7 113.3 311.5 113 C 312.2 112.8 313.1 112.6 314.1 112.6 C 315 112.6 315.8 112.8 316.4 113 C 317.1 113.2 317.5 113.5 317.8 113.8 C 318.1 114.2 318.3 114.6 318.4 115.2 C 318.5 115.5 318.5 116.1 318.5 116.9 C 318.5 116.9 318.5 119.5 318.5 119.5 C 318.5 121.3 318.5 122.5 318.6 122.9 C 318.7 123.4 318.9 123.9 319.1 124.3 C 319.1 124.3 317.1 124.3 317.1 124.3 C 317.1 124.3 317.08 124.3 317.1 124.3 Z M 316.5 118.6 C 315.8 118.9 314.8 119.1 313.4 119.3 C 312.6 119.4 312 119.6 311.7 119.7 C 311.4 119.8 311.1 120 310.9 120.3 C 310.7 120.6 310.7 120.9 310.7 121.2 C 310.7 121.8 310.8 122.2 311.2 122.5 C 311.6 122.9 312.2 123 313 123 C 313.7 123 314.4 122.9 314.9 122.6 C 315.5 122.2 315.9 121.8 316.2 121.2 C 316.4 120.8 316.5 120.1 316.5 119.3 C 316.5 119.3 316.5 118.6 316.5 118.6 Z M 321.5 124.3 L 321.5 112.9 L 323.2 112.9 C 323.2 112.9 323.2 114.62 323.2 114.6 C 323.6 113.8 324.1 113.3 324.4 113 C 324.8 112.8 325.2 112.6 325.7 112.6 C 326.3 112.6 327 112.8 327.7 113.3 C 327.7 113.3 327 115.1 327 115.1 C 326.5 114.8 326 114.6 325.6 114.6 C 325.2 114.6 324.8 114.8 324.4 115 C 324.1 115.3 323.9 115.6 323.7 116.1 C 323.5 116.8 323.4 117.5 323.4 118.3 C 323.4 118.33 323.4 124.3 323.4 124.3 L 321.5 124.3 Z M 336.6 120.6 C 336.6 120.6 338.6 120.9 338.6 120.9 C 338.3 122 337.7 123 336.9 123.6 C 336 124.2 334.9 124.6 333.6 124.6 C 331.9 124.6 330.6 124 329.6 123 C 328.7 122 328.2 120.6 328.2 118.7 C 328.2 116.8 328.7 115.3 329.6 114.2 C 330.6 113.2 331.9 112.6 333.5 112.6 C 335 112.6 336.3 113.2 337.2 114.2 C 338.2 115.2 338.7 116.7 338.7 118.6 C 338.7 118.7 338.7 118.9 338.7 119.1 C 338.7 119.1 330.2 119.1 330.2 119.1 C 330.2 120.3 330.6 121.3 331.2 122 C 331.9 122.6 332.7 123 333.6 123 C 334.3 123 334.9 122.8 335.4 122.4 C 335.9 122 336.3 121.4 336.6 120.6 Z M 330.3 117.5 C 330.3 117.5 336.6 117.5 336.6 117.5 C 336.6 116.5 336.3 115.8 335.9 115.3 C 335.3 114.6 334.5 114.2 333.5 114.2 C 332.6 114.2 331.9 114.5 331.3 115.1 C 330.7 115.7 330.3 116.5 330.3 117.5 Z M 341.6 124.3 L 341.6 122.1 L 343.8 122.1 L 343.8 124.3 L 341.6 124.3 Z " stroke="none" fill="#000"/>  </g>  <g id="Polygon7982">    <path d="M 16.3 97.9 L 22.3 82.2 L 24.6 82.2 L 31 97.9 L 28.6 97.9 L 26.8 93.1 L 20.2 93.1 L 18.5 97.9 L 16.3 97.9 Z M 20.8 91.4 L 26.2 91.4 C 26.2 91.4 24.51 87.08 24.5 87.1 C 24 85.8 23.6 84.7 23.4 83.8 C 23.2 84.8 22.9 85.8 22.5 86.8 C 22.55 86.82 20.8 91.4 20.8 91.4 Z M 39.8 97.9 C 39.8 97.9 39.83 96.46 39.8 96.5 C 39.1 97.6 38 98.2 36.6 98.2 C 35.7 98.2 34.9 97.9 34.1 97.4 C 33.4 96.9 32.8 96.2 32.4 95.3 C 31.9 94.4 31.7 93.4 31.7 92.2 C 31.7 91.1 31.9 90 32.3 89.1 C 32.7 88.2 33.3 87.5 34 87 C 34.8 86.5 35.6 86.2 36.6 86.2 C 37.2 86.2 37.9 86.4 38.4 86.7 C 38.9 87 39.4 87.3 39.7 87.8 C 39.7 87.81 39.7 82.2 39.7 82.2 L 41.6 82.2 L 41.6 97.9 L 39.8 97.9 Z M 33.7 92.2 C 33.7 93.7 34 94.8 34.6 95.5 C 35.3 96.2 36 96.6 36.8 96.6 C 37.7 96.6 38.4 96.2 39 95.5 C 39.6 94.8 39.9 93.8 39.9 92.4 C 39.9 90.8 39.6 89.7 39 88.9 C 38.4 88.2 37.6 87.8 36.7 87.8 C 35.9 87.8 35.2 88.2 34.6 88.9 C 34 89.6 33.7 90.7 33.7 92.2 Z M 47.8 97.9 L 43.5 86.5 L 45.5 86.5 C 45.5 86.5 47.99 93.33 48 93.3 C 48.3 94.1 48.5 94.8 48.7 95.6 C 48.9 95 49.1 94.3 49.4 93.5 C 49.44 93.46 52 86.5 52 86.5 L 54 86.5 L 49.6 97.9 L 47.8 97.9 Z M 63.5 97.9 C 63.3 97.5 63.2 97 63.1 96.5 C 62.4 97.1 61.7 97.5 61 97.8 C 60.4 98 59.7 98.2 58.9 98.2 C 57.7 98.2 56.7 97.9 56 97.2 C 55.3 96.6 55 95.8 55 94.9 C 55 94.3 55.1 93.8 55.4 93.4 C 55.6 92.9 56 92.5 56.4 92.3 C 56.8 92 57.3 91.8 57.8 91.6 C 58.2 91.5 58.7 91.4 59.5 91.3 C 61.1 91.1 62.2 90.9 63 90.7 C 63 90.4 63 90.2 63 90.2 C 63 89.4 62.8 88.8 62.4 88.5 C 61.9 88.1 61.2 87.8 60.2 87.8 C 59.3 87.8 58.6 88 58.2 88.3 C 57.8 88.6 57.4 89.2 57.2 90 C 57.2 90 55.3 89.8 55.3 89.8 C 55.5 88.9 55.8 88.3 56.2 87.8 C 56.6 87.3 57.2 86.9 57.9 86.6 C 58.6 86.4 59.5 86.2 60.5 86.2 C 61.5 86.2 62.3 86.4 62.9 86.6 C 63.5 86.8 63.9 87.1 64.2 87.4 C 64.5 87.8 64.7 88.2 64.8 88.8 C 64.9 89.1 64.9 89.7 64.9 90.5 C 64.9 90.5 64.9 93.1 64.9 93.1 C 64.9 94.9 64.9 96.1 65 96.5 C 65.1 97 65.3 97.5 65.5 97.9 C 65.52 97.9 63.5 97.9 63.5 97.9 C 63.5 97.9 63.5 97.9 63.5 97.9 Z M 63 92.2 C 62.2 92.5 61.2 92.7 59.8 92.9 C 59 93 58.4 93.2 58.1 93.3 C 57.8 93.4 57.5 93.6 57.3 93.9 C 57.2 94.2 57.1 94.5 57.1 94.8 C 57.1 95.4 57.3 95.8 57.7 96.1 C 58 96.5 58.6 96.6 59.4 96.6 C 60.1 96.6 60.8 96.5 61.4 96.2 C 61.9 95.8 62.4 95.4 62.6 94.8 C 62.8 94.4 63 93.7 63 92.9 C 63 92.9 63 92.2 63 92.2 Z M 67.9 97.9 L 67.9 86.5 L 69.6 86.5 C 69.6 86.5 69.64 88.12 69.6 88.1 C 70.5 86.9 71.7 86.2 73.3 86.2 C 74 86.2 74.6 86.4 75.2 86.6 C 75.7 86.9 76.2 87.2 76.5 87.6 C 76.8 88 77 88.5 77.1 89 C 77.1 89.4 77.2 90 77.2 90.9 C 77.17 90.89 77.2 97.9 77.2 97.9 L 75.2 97.9 C 75.2 97.9 75.24 90.96 75.2 91 C 75.2 90.2 75.2 89.6 75 89.2 C 74.9 88.8 74.6 88.5 74.2 88.3 C 73.8 88 73.4 87.9 72.9 87.9 C 72 87.9 71.3 88.2 70.7 88.7 C 70.1 89.2 69.8 90.2 69.8 91.7 C 69.84 91.67 69.8 97.9 69.8 97.9 L 67.9 97.9 Z M 87.6 93.7 C 87.6 93.7 89.5 94 89.5 94 C 89.3 95.3 88.7 96.3 87.9 97 C 87 97.8 86 98.2 84.7 98.2 C 83.2 98.2 81.9 97.7 81 96.6 C 80 95.6 79.5 94.1 79.5 92.2 C 79.5 91 79.8 89.9 80.2 89 C 80.6 88.1 81.2 87.4 82 86.9 C 82.9 86.5 83.8 86.2 84.7 86.2 C 86 86.2 87 86.6 87.8 87.2 C 88.6 87.8 89.1 88.7 89.3 89.8 C 89.3 89.8 87.4 90.1 87.4 90.1 C 87.2 89.4 86.9 88.8 86.5 88.4 C 86 88 85.5 87.8 84.8 87.8 C 83.8 87.8 83.1 88.2 82.4 88.9 C 81.8 89.6 81.5 90.7 81.5 92.2 C 81.5 93.7 81.8 94.8 82.4 95.5 C 83 96.2 83.8 96.6 84.7 96.6 C 85.5 96.6 86.1 96.3 86.6 95.9 C 87.1 95.4 87.4 94.7 87.6 93.7 Z M 98.9 94.2 C 98.9 94.2 100.9 94.5 100.9 94.5 C 100.6 95.6 100 96.6 99.2 97.2 C 98.3 97.8 97.3 98.2 95.9 98.2 C 94.3 98.2 92.9 97.6 92 96.6 C 91 95.6 90.5 94.2 90.5 92.3 C 90.5 90.4 91 88.9 92 87.8 C 93 86.8 94.2 86.2 95.8 86.2 C 97.3 86.2 98.6 86.8 99.6 87.8 C 100.5 88.8 101 90.3 101 92.2 C 101 92.3 101 92.5 101 92.7 C 101 92.7 92.5 92.7 92.5 92.7 C 92.6 93.9 92.9 94.9 93.6 95.6 C 94.2 96.2 95 96.6 95.9 96.6 C 96.6 96.6 97.3 96.4 97.8 96 C 98.3 95.6 98.7 95 98.9 94.2 Z M 92.6 91.1 C 92.6 91.1 99 91.1 99 91.1 C 98.9 90.1 98.6 89.4 98.2 88.9 C 97.6 88.2 96.8 87.8 95.8 87.8 C 95 87.8 94.2 88.1 93.6 88.7 C 93 89.3 92.7 90.1 92.6 91.1 Z M 110.8 97.9 C 110.8 97.9 110.77 96.46 110.8 96.5 C 110.1 97.6 109 98.2 107.6 98.2 C 106.7 98.2 105.8 97.9 105.1 97.4 C 104.3 96.9 103.7 96.2 103.3 95.3 C 102.9 94.4 102.7 93.4 102.7 92.2 C 102.7 91.1 102.9 90 103.2 89.1 C 103.6 88.2 104.2 87.5 105 87 C 105.7 86.5 106.6 86.2 107.5 86.2 C 108.2 86.2 108.8 86.4 109.3 86.7 C 109.9 87 110.3 87.3 110.6 87.8 C 110.65 87.81 110.6 82.2 110.6 82.2 L 112.6 82.2 L 112.6 97.9 L 110.8 97.9 Z M 104.7 92.2 C 104.7 93.7 105 94.8 105.6 95.5 C 106.2 96.2 106.9 96.6 107.8 96.6 C 108.6 96.6 109.3 96.2 109.9 95.5 C 110.5 94.8 110.8 93.8 110.8 92.4 C 110.8 90.8 110.5 89.7 109.9 88.9 C 109.3 88.2 108.6 87.8 107.7 87.8 C 106.8 87.8 106.1 88.2 105.5 88.9 C 105 89.6 104.7 90.7 104.7 92.2 Z M 125.1 96.2 C 125.3 96.2 125.6 96.2 125.9 96.2 C 125.9 96.2 126.2 97.9 126.2 97.9 C 125.7 98 125.2 98.1 124.8 98.1 C 124.1 98.1 123.5 97.9 123.1 97.7 C 122.7 97.5 122.5 97.2 122.3 96.8 C 122.2 96.5 122.1 95.7 122.1 94.6 C 122.08 94.56 122.1 88 122.1 88 L 120.7 88 L 120.7 86.5 L 122.1 86.5 L 122.1 83.7 L 124 82.5 L 124 86.5 L 125.9 86.5 L 125.9 88 L 124 88 C 124 88 124 94.67 124 94.7 C 124 95.2 124 95.6 124.1 95.7 C 124.2 95.9 124.3 96 124.4 96.1 C 124.6 96.2 124.8 96.2 125.1 96.2 C 125.1 96.2 125.1 96.2 125.1 96.2 Z M 127.1 92.2 C 127.1 90.1 127.7 88.5 128.9 87.5 C 129.9 86.7 131.1 86.2 132.5 86.2 C 134 86.2 135.3 86.8 136.3 87.8 C 137.3 88.8 137.8 90.2 137.8 92 C 137.8 93.5 137.6 94.7 137.1 95.5 C 136.7 96.3 136.1 97 135.2 97.5 C 134.4 97.9 133.5 98.2 132.5 98.2 C 130.9 98.2 129.6 97.6 128.6 96.6 C 127.6 95.6 127.1 94.1 127.1 92.2 Z M 129.1 92.2 C 129.1 93.7 129.4 94.8 130.1 95.5 C 130.7 96.2 131.5 96.6 132.5 96.6 C 133.4 96.6 134.2 96.2 134.9 95.5 C 135.5 94.7 135.8 93.6 135.8 92.1 C 135.8 90.7 135.5 89.7 134.9 88.9 C 134.2 88.2 133.4 87.8 132.5 87.8 C 131.5 87.8 130.7 88.2 130.1 88.9 C 129.4 89.6 129.1 90.7 129.1 92.2 Z M 139.3 92.2 C 139.3 90.1 139.9 88.5 141.1 87.5 C 142.1 86.7 143.3 86.2 144.7 86.2 C 146.3 86.2 147.5 86.8 148.5 87.8 C 149.5 88.8 150 90.2 150 92 C 150 93.5 149.8 94.7 149.4 95.5 C 148.9 96.3 148.3 97 147.5 97.5 C 146.6 97.9 145.7 98.2 144.7 98.2 C 143.1 98.2 141.8 97.6 140.8 96.6 C 139.8 95.6 139.3 94.1 139.3 92.2 Z M 141.3 92.2 C 141.3 93.7 141.7 94.8 142.3 95.5 C 142.9 96.2 143.7 96.6 144.7 96.6 C 145.7 96.6 146.5 96.2 147.1 95.5 C 147.7 94.7 148 93.6 148 92.1 C 148 90.7 147.7 89.7 147.1 88.9 C 146.4 88.2 145.7 87.8 144.7 87.8 C 143.7 87.8 142.9 88.2 142.3 88.9 C 141.7 89.6 141.3 90.7 141.3 92.2 Z M 152.3 97.9 L 152.3 82.2 L 154.2 82.2 L 154.2 97.9 L 152.3 97.9 Z M 156.4 94.5 C 156.4 94.5 158.3 94.2 158.3 94.2 C 158.4 95 158.7 95.6 159.2 96 C 159.7 96.4 160.4 96.6 161.3 96.6 C 162.2 96.6 162.8 96.4 163.3 96 C 163.7 95.7 163.9 95.2 163.9 94.8 C 163.9 94.3 163.7 94 163.3 93.7 C 163.1 93.6 162.4 93.3 161.4 93.1 C 159.9 92.7 159 92.4 158.4 92.1 C 157.9 91.9 157.4 91.5 157.2 91.1 C 156.9 90.6 156.7 90.1 156.7 89.5 C 156.7 89 156.9 88.5 157.1 88.1 C 157.3 87.7 157.6 87.3 158 87 C 158.3 86.8 158.8 86.6 159.3 86.5 C 159.8 86.3 160.3 86.2 160.9 86.2 C 161.8 86.2 162.6 86.4 163.3 86.6 C 164 86.9 164.5 87.2 164.8 87.7 C 165.1 88.1 165.3 88.7 165.5 89.4 C 165.5 89.4 163.6 89.7 163.6 89.7 C 163.5 89.1 163.2 88.7 162.8 88.3 C 162.4 88 161.8 87.8 161.1 87.8 C 160.2 87.8 159.6 88 159.2 88.3 C 158.8 88.6 158.6 88.9 158.6 89.3 C 158.6 89.5 158.7 89.8 158.8 90 C 159 90.2 159.3 90.4 159.6 90.5 C 159.8 90.6 160.3 90.7 161.3 91 C 162.7 91.4 163.6 91.6 164.2 91.9 C 164.7 92.1 165.1 92.5 165.4 92.9 C 165.7 93.3 165.9 93.9 165.9 94.6 C 165.9 95.2 165.7 95.8 165.3 96.4 C 165 96.9 164.4 97.4 163.7 97.7 C 163 98 162.2 98.2 161.3 98.2 C 159.8 98.2 158.7 97.9 157.9 97.2 C 157.1 96.6 156.6 95.7 156.4 94.5 Z M 174.3 97.9 L 174.3 86.5 L 176 86.5 C 176 86.5 176.02 88.22 176 88.2 C 176.5 87.4 176.9 86.9 177.3 86.6 C 177.6 86.4 178 86.2 178.5 86.2 C 179.1 86.2 179.8 86.4 180.5 86.9 C 180.5 86.9 179.8 88.7 179.8 88.7 C 179.3 88.4 178.9 88.2 178.4 88.2 C 178 88.2 177.6 88.4 177.3 88.6 C 176.9 88.9 176.7 89.2 176.5 89.7 C 176.3 90.4 176.2 91.1 176.2 91.9 C 176.22 91.93 176.2 97.9 176.2 97.9 L 174.3 97.9 Z M 189.4 94.2 C 189.4 94.2 191.4 94.5 191.4 94.5 C 191.1 95.6 190.5 96.6 189.7 97.2 C 188.8 97.8 187.7 98.2 186.4 98.2 C 184.8 98.2 183.4 97.6 182.5 96.6 C 181.5 95.6 181 94.2 181 92.3 C 181 90.4 181.5 88.9 182.5 87.8 C 183.5 86.8 184.7 86.2 186.3 86.2 C 187.8 86.2 189.1 86.8 190.1 87.8 C 191 88.8 191.5 90.3 191.5 92.2 C 191.5 92.3 191.5 92.5 191.5 92.7 C 191.5 92.7 183 92.7 183 92.7 C 183.1 93.9 183.4 94.9 184 95.6 C 184.7 96.2 185.5 96.6 186.4 96.6 C 187.1 96.6 187.7 96.4 188.2 96 C 188.7 95.6 189.1 95 189.4 94.2 Z M 183.1 91.1 C 183.1 91.1 189.5 91.1 189.5 91.1 C 189.4 90.1 189.1 89.4 188.7 88.9 C 188.1 88.2 187.3 87.8 186.3 87.8 C 185.4 87.8 184.7 88.1 184.1 88.7 C 183.5 89.3 183.2 90.1 183.1 91.1 Z M 201.1 102.3 C 201.1 102.3 201.14 96.69 201.1 96.7 C 200.8 97.1 200.4 97.5 199.9 97.7 C 199.3 98 198.8 98.2 198.2 98.2 C 196.8 98.2 195.6 97.6 194.7 96.5 C 193.7 95.5 193.2 94 193.2 92.1 C 193.2 90.9 193.4 89.9 193.8 89 C 194.2 88.1 194.8 87.4 195.5 86.9 C 196.3 86.5 197.1 86.2 198 86.2 C 199.4 86.2 200.5 86.8 201.3 88 C 201.33 88.02 201.3 86.5 201.3 86.5 L 203.1 86.5 L 203.1 102.3 L 201.1 102.3 Z M 195.2 92.2 C 195.2 93.6 195.5 94.7 196.1 95.5 C 196.7 96.2 197.5 96.6 198.3 96.6 C 199.1 96.6 199.8 96.2 200.4 95.5 C 201 94.8 201.3 93.8 201.3 92.3 C 201.3 90.8 201 89.7 200.4 88.9 C 199.8 88.1 199 87.8 198.2 87.8 C 197.3 87.8 196.6 88.1 196.1 88.8 C 195.5 89.5 195.2 90.7 195.2 92.2 Z M 213.6 97.9 C 213.6 97.9 213.58 96.23 213.6 96.2 C 212.7 97.5 211.5 98.2 210 98.2 C 209.3 98.2 208.7 98 208.1 97.8 C 207.5 97.5 207.1 97.2 206.8 96.8 C 206.5 96.4 206.3 95.9 206.2 95.4 C 206.1 95 206.1 94.4 206.1 93.6 C 206.06 93.56 206.1 86.5 206.1 86.5 L 208 86.5 C 208 86.5 207.99 92.82 208 92.8 C 208 93.8 208 94.5 208.1 94.9 C 208.2 95.4 208.5 95.8 208.9 96.1 C 209.3 96.4 209.8 96.5 210.3 96.5 C 210.9 96.5 211.5 96.3 212 96.1 C 212.5 95.8 212.8 95.3 213.1 94.8 C 213.3 94.3 213.4 93.6 213.4 92.6 C 213.37 92.61 213.4 86.5 213.4 86.5 L 215.3 86.5 L 215.3 97.9 L 213.6 97.9 Z M 218.3 84.4 L 218.3 82.2 L 220.3 82.2 L 220.3 84.4 L 218.3 84.4 Z M 218.3 97.9 L 218.3 86.5 L 220.3 86.5 L 220.3 97.9 L 218.3 97.9 Z M 223.2 97.9 L 223.2 86.5 L 224.9 86.5 C 224.9 86.5 224.94 88.22 224.9 88.2 C 225.4 87.4 225.8 86.9 226.2 86.6 C 226.5 86.4 227 86.2 227.4 86.2 C 228.1 86.2 228.7 86.4 229.4 86.9 C 229.4 86.9 228.7 88.7 228.7 88.7 C 228.3 88.4 227.8 88.2 227.3 88.2 C 226.9 88.2 226.5 88.4 226.2 88.6 C 225.8 88.9 225.6 89.2 225.5 89.7 C 225.2 90.4 225.1 91.1 225.1 91.9 C 225.14 91.93 225.1 97.9 225.1 97.9 L 223.2 97.9 Z M 230.6 84.4 L 230.6 82.2 L 232.5 82.2 L 232.5 84.4 L 230.6 84.4 Z M 230.6 97.9 L 230.6 86.5 L 232.5 86.5 L 232.5 97.9 L 230.6 97.9 Z M 235.4 97.9 L 235.4 86.5 L 237.2 86.5 C 237.2 86.5 237.18 88.12 237.2 88.1 C 238 86.9 239.2 86.2 240.8 86.2 C 241.5 86.2 242.1 86.4 242.7 86.6 C 243.3 86.9 243.7 87.2 244 87.6 C 244.3 88 244.5 88.5 244.6 89 C 244.7 89.4 244.7 90 244.7 90.9 C 244.71 90.89 244.7 97.9 244.7 97.9 L 242.8 97.9 C 242.8 97.9 242.77 90.96 242.8 91 C 242.8 90.2 242.7 89.6 242.5 89.2 C 242.4 88.8 242.1 88.5 241.7 88.3 C 241.4 88 240.9 87.9 240.4 87.9 C 239.6 87.9 238.9 88.2 238.3 88.7 C 237.7 89.2 237.4 90.2 237.4 91.7 C 237.37 91.67 237.4 97.9 237.4 97.9 L 235.4 97.9 Z M 247.3 98.8 C 247.3 98.8 249.2 99.1 249.2 99.1 C 249.3 99.7 249.5 100.1 249.9 100.4 C 250.3 100.8 251 100.9 251.8 100.9 C 252.7 100.9 253.4 100.8 253.9 100.4 C 254.4 100 254.7 99.5 254.9 98.9 C 255 98.5 255 97.7 255 96.4 C 254.2 97.4 253.1 97.9 251.9 97.9 C 250.3 97.9 249.1 97.3 248.2 96.2 C 247.4 95.1 246.9 93.7 246.9 92.1 C 246.9 91 247.1 90 247.5 89.1 C 247.9 88.2 248.5 87.5 249.2 87 C 250 86.5 250.9 86.2 251.9 86.2 C 253.2 86.2 254.3 86.8 255.2 87.9 C 255.2 87.87 255.2 86.5 255.2 86.5 L 257 86.5 C 257 86.5 256.99 96.36 257 96.4 C 257 98.1 256.8 99.4 256.4 100.1 C 256.1 100.9 255.5 101.5 254.7 101.9 C 253.9 102.3 253 102.5 251.8 102.5 C 250.5 102.5 249.4 102.2 248.5 101.6 C 247.7 101 247.3 100.1 247.3 98.8 Z M 248.9 92 C 248.9 93.5 249.2 94.6 249.8 95.3 C 250.4 96 251.1 96.3 252 96.3 C 252.9 96.3 253.7 96 254.3 95.3 C 254.9 94.6 255.2 93.5 255.2 92.1 C 255.2 90.7 254.9 89.6 254.3 88.9 C 253.6 88.2 252.9 87.8 252 87.8 C 251.2 87.8 250.4 88.2 249.8 88.9 C 249.2 89.6 248.9 90.6 248.9 92 Z M 273.5 93.7 C 273.5 93.7 275.4 94 275.4 94 C 275.2 95.3 274.6 96.3 273.8 97 C 272.9 97.8 271.9 98.2 270.6 98.2 C 269.1 98.2 267.8 97.7 266.9 96.6 C 265.9 95.6 265.4 94.1 265.4 92.2 C 265.4 91 265.6 89.9 266 89 C 266.5 88.1 267.1 87.4 267.9 86.9 C 268.7 86.5 269.6 86.2 270.6 86.2 C 271.9 86.2 272.9 86.6 273.7 87.2 C 274.5 87.8 275 88.7 275.2 89.8 C 275.2 89.8 273.3 90.1 273.3 90.1 C 273.1 89.4 272.8 88.8 272.4 88.4 C 271.9 88 271.3 87.8 270.7 87.8 C 269.7 87.8 268.9 88.2 268.3 88.9 C 267.7 89.6 267.4 90.7 267.4 92.2 C 267.4 93.7 267.7 94.8 268.3 95.5 C 268.9 96.2 269.7 96.6 270.6 96.6 C 271.4 96.6 272 96.3 272.5 95.9 C 273 95.4 273.3 94.7 273.5 93.7 Z M 276.3 92.2 C 276.3 90.1 276.9 88.5 278.1 87.5 C 279 86.7 280.2 86.2 281.7 86.2 C 283.2 86.2 284.5 86.8 285.5 87.8 C 286.5 88.8 287 90.2 287 92 C 287 93.5 286.8 94.7 286.3 95.5 C 285.9 96.3 285.2 97 284.4 97.5 C 283.6 97.9 282.6 98.2 281.7 98.2 C 280.1 98.2 278.8 97.6 277.8 96.6 C 276.8 95.6 276.3 94.1 276.3 92.2 Z M 278.3 92.2 C 278.3 93.7 278.6 94.8 279.2 95.5 C 279.9 96.2 280.7 96.6 281.7 96.6 C 282.6 96.6 283.4 96.2 284 95.5 C 284.7 94.7 285 93.6 285 92.1 C 285 90.7 284.7 89.7 284 88.9 C 283.4 88.2 282.6 87.8 281.7 87.8 C 280.7 87.8 279.9 88.2 279.2 88.9 C 278.6 89.6 278.3 90.7 278.3 92.2 Z M 296.7 97.9 C 296.7 97.9 296.66 96.46 296.7 96.5 C 295.9 97.6 294.9 98.2 293.5 98.2 C 292.6 98.2 291.7 97.9 291 97.4 C 290.2 96.9 289.6 96.2 289.2 95.3 C 288.8 94.4 288.6 93.4 288.6 92.2 C 288.6 91.1 288.7 90 289.1 89.1 C 289.5 88.2 290.1 87.5 290.8 87 C 291.6 86.5 292.4 86.2 293.4 86.2 C 294.1 86.2 294.7 86.4 295.2 86.7 C 295.8 87 296.2 87.3 296.5 87.8 C 296.53 87.81 296.5 82.2 296.5 82.2 L 298.5 82.2 L 298.5 97.9 L 296.7 97.9 Z M 290.5 92.2 C 290.5 93.7 290.9 94.8 291.5 95.5 C 292.1 96.2 292.8 96.6 293.6 96.6 C 294.5 96.6 295.2 96.2 295.8 95.5 C 296.4 94.8 296.7 93.8 296.7 92.4 C 296.7 90.8 296.4 89.7 295.8 88.9 C 295.2 88.2 294.4 87.8 293.6 87.8 C 292.7 87.8 292 88.2 291.4 88.9 C 290.8 89.6 290.5 90.7 290.5 92.2 Z M 301.5 84.4 L 301.5 82.2 L 303.4 82.2 L 303.4 84.4 L 301.5 84.4 Z M 301.5 97.9 L 301.5 86.5 L 303.4 86.5 L 303.4 97.9 L 301.5 97.9 Z M 306.4 97.9 L 306.4 86.5 L 308.1 86.5 C 308.1 86.5 308.12 88.12 308.1 88.1 C 309 86.9 310.2 86.2 311.7 86.2 C 312.4 86.2 313.1 86.4 313.6 86.6 C 314.2 86.9 314.7 87.2 314.9 87.6 C 315.2 88 315.4 88.5 315.5 89 C 315.6 89.4 315.6 90 315.6 90.9 C 315.65 90.89 315.6 97.9 315.6 97.9 L 313.7 97.9 C 313.7 97.9 313.72 90.96 313.7 91 C 313.7 90.2 313.6 89.6 313.5 89.2 C 313.3 88.8 313.1 88.5 312.7 88.3 C 312.3 88 311.9 87.9 311.3 87.9 C 310.5 87.9 309.8 88.2 309.2 88.7 C 308.6 89.2 308.3 90.2 308.3 91.7 C 308.31 91.67 308.3 97.9 308.3 97.9 L 306.4 97.9 Z M 318.3 98.8 C 318.3 98.8 320.1 99.1 320.1 99.1 C 320.2 99.7 320.4 100.1 320.8 100.4 C 321.3 100.8 321.9 100.9 322.8 100.9 C 323.7 100.9 324.3 100.8 324.8 100.4 C 325.3 100 325.7 99.5 325.8 98.9 C 325.9 98.5 326 97.7 326 96.4 C 325.1 97.4 324.1 97.9 322.8 97.9 C 321.2 97.9 320 97.3 319.2 96.2 C 318.3 95.1 317.9 93.7 317.9 92.1 C 317.9 91 318.1 90 318.5 89.1 C 318.9 88.2 319.4 87.5 320.2 87 C 320.9 86.5 321.8 86.2 322.8 86.2 C 324.2 86.2 325.3 86.8 326.1 87.9 C 326.14 87.87 326.1 86.5 326.1 86.5 L 327.9 86.5 C 327.9 86.5 327.93 96.36 327.9 96.4 C 327.9 98.1 327.7 99.4 327.4 100.1 C 327 100.9 326.5 101.5 325.7 101.9 C 324.9 102.3 323.9 102.5 322.8 102.5 C 321.4 102.5 320.3 102.2 319.5 101.6 C 318.6 101 318.2 100.1 318.3 98.8 Z M 319.9 92 C 319.9 93.5 320.2 94.6 320.8 95.3 C 321.3 96 322.1 96.3 323 96.3 C 323.9 96.3 324.6 96 325.2 95.3 C 325.8 94.6 326.1 93.5 326.1 92.1 C 326.1 90.7 325.8 89.6 325.2 88.9 C 324.6 88.2 323.8 87.8 323 87.8 C 322.1 87.8 321.4 88.2 320.8 88.9 C 320.2 89.6 319.9 90.6 319.9 92 Z " stroke="none" fill="#000"/>  </g>  <g id="Polygon7981">    <path d="M 56.5 43.5 L 56.5 63 L 52.5 63 L 52.5 50.3 L 47.3 63 L 44.3 63 L 39.1 50.3 L 39.1 63 L 35.2 63 L 35.2 43.5 L 39.6 43.5 L 45.8 58 L 52 43.5 L 56.5 43.5 Z M 75 47.5 L 75 63 L 71 63 C 71 63 71.02 61.04 71 61 C 70.5 61.7 69.9 62.2 69 62.6 C 68.2 63 67.4 63.2 66.4 63.2 C 65.2 63.2 64.1 62.9 63.2 62.4 C 62.2 61.9 61.5 61.2 61 60.2 C 60.4 59.2 60.2 58 60.2 56.6 C 60.18 56.59 60.2 47.5 60.2 47.5 L 64.1 47.5 C 64.1 47.5 64.1 56.03 64.1 56 C 64.1 57.3 64.4 58.2 65 58.9 C 65.6 59.5 66.5 59.9 67.5 59.9 C 68.6 59.9 69.5 59.5 70.1 58.9 C 70.7 58.2 71 57.3 71 56 C 71.02 56.03 71 47.5 71 47.5 L 75 47.5 Z M 82.8 42.3 L 82.8 63 L 78.8 63 L 78.8 42.3 L 82.8 42.3 Z M 91.2 50.7 C 91.2 50.7 91.18 58.21 91.2 58.2 C 91.2 58.7 91.3 59.1 91.6 59.3 C 91.8 59.6 92.2 59.7 92.8 59.7 C 92.83 59.7 94.7 59.7 94.7 59.7 L 94.7 63 C 94.7 63 92.19 63 92.2 63 C 88.9 63 87.2 61.4 87.2 58.2 C 87.23 58.18 87.2 50.7 87.2 50.7 L 85.4 50.7 L 85.4 47.5 L 87.2 47.5 L 87.2 43.7 L 91.2 43.7 L 91.2 47.5 L 94.7 47.5 L 94.7 50.7 L 91.2 50.7 Z M 99.5 45.6 C 98.8 45.6 98.2 45.4 97.7 45 C 97.3 44.5 97.1 44 97.1 43.3 C 97.1 42.7 97.3 42.1 97.7 41.7 C 98.2 41.3 98.8 41 99.5 41 C 100.2 41 100.7 41.3 101.2 41.7 C 101.6 42.1 101.9 42.7 101.9 43.3 C 101.9 44 101.6 44.5 101.2 45 C 100.7 45.4 100.2 45.6 99.5 45.6 C 99.5 45.6 99.5 45.6 99.5 45.6 Z M 101.4 47.5 L 101.4 63 L 97.5 63 L 97.5 47.5 L 101.4 47.5 Z M 117.2 51.4 L 117.2 54.7 L 105.3 54.7 L 105.3 51.4 L 117.2 51.4 Z M 128.3 63.2 C 127 63.2 125.7 63 124.7 62.5 C 123.6 62 122.7 61.4 122.1 60.5 C 121.4 59.6 121.1 58.6 121.1 57.4 C 121.1 57.4 125.3 57.4 125.3 57.4 C 125.3 58.2 125.6 58.8 126.1 59.3 C 126.6 59.7 127.4 60 128.3 60 C 129.2 60 129.9 59.8 130.4 59.3 C 130.9 58.9 131.2 58.3 131.2 57.6 C 131.2 57 131 56.5 130.7 56.2 C 130.3 55.8 129.9 55.5 129.3 55.3 C 128.8 55.1 128.1 54.8 127.1 54.6 C 125.9 54.2 124.8 53.8 124 53.5 C 123.2 53.1 122.6 52.6 122 51.8 C 121.4 51.1 121.1 50.1 121.1 48.9 C 121.1 47.7 121.4 46.7 122 45.8 C 122.6 45 123.4 44.3 124.4 43.9 C 125.5 43.4 126.7 43.2 128 43.2 C 130 43.2 131.7 43.7 132.9 44.6 C 134.2 45.6 134.9 47 135 48.7 C 135 48.7 130.7 48.7 130.7 48.7 C 130.7 48.1 130.4 47.5 129.9 47.1 C 129.3 46.6 128.6 46.4 127.7 46.4 C 127 46.4 126.4 46.6 125.9 47 C 125.5 47.4 125.2 48 125.2 48.7 C 125.2 49.2 125.4 49.7 125.7 50 C 126.1 50.4 126.5 50.6 127 50.9 C 127.5 51.1 128.3 51.3 129.2 51.6 C 130.5 52 131.5 52.4 132.3 52.7 C 133.1 53.1 133.8 53.7 134.4 54.4 C 135 55.2 135.3 56.1 135.3 57.3 C 135.3 58.4 135 59.4 134.4 60.3 C 133.9 61.2 133.1 61.9 132.1 62.4 C 131 62.9 129.8 63.2 128.3 63.2 C 128.3 63.2 128.3 63.2 128.3 63.2 Z M 143.2 50.7 C 143.2 50.7 143.2 58.21 143.2 58.2 C 143.2 58.7 143.3 59.1 143.6 59.3 C 143.8 59.6 144.3 59.7 144.9 59.7 C 144.85 59.7 146.7 59.7 146.7 59.7 L 146.7 63 C 146.7 63 144.21 63 144.2 63 C 140.9 63 139.3 61.4 139.3 58.2 C 139.25 58.18 139.3 50.7 139.3 50.7 L 137.4 50.7 L 137.4 47.5 L 139.3 47.5 L 139.3 43.7 L 143.2 43.7 L 143.2 47.5 L 146.7 47.5 L 146.7 50.7 L 143.2 50.7 Z M 163.9 54.9 C 163.9 55.5 163.9 56 163.8 56.4 C 163.8 56.4 152.5 56.4 152.5 56.4 C 152.6 57.5 153 58.4 153.6 59.1 C 154.3 59.7 155.2 60 156.2 60 C 157.6 60 158.7 59.4 159.3 58.1 C 159.3 58.1 163.5 58.1 163.5 58.1 C 163.1 59.6 162.2 60.8 161 61.8 C 159.7 62.8 158.1 63.3 156.3 63.3 C 154.8 63.3 153.4 62.9 152.3 62.3 C 151.1 61.6 150.1 60.7 149.5 59.4 C 148.8 58.2 148.5 56.8 148.5 55.2 C 148.5 53.6 148.8 52.2 149.5 51 C 150.1 49.8 151 48.9 152.2 48.2 C 153.4 47.6 154.7 47.2 156.3 47.2 C 157.8 47.2 159.1 47.6 160.2 48.2 C 161.4 48.8 162.3 49.7 163 50.9 C 163.6 52.1 163.9 53.4 163.9 54.9 C 163.9 54.9 163.9 54.9 163.9 54.9 Z M 159.9 53.8 C 159.8 52.8 159.5 52 158.8 51.4 C 158.1 50.8 157.2 50.5 156.2 50.5 C 155.2 50.5 154.4 50.7 153.7 51.3 C 153.1 51.9 152.6 52.7 152.5 53.8 C 152.5 53.8 159.9 53.8 159.9 53.8 Z M 170.7 49.7 C 171.2 49 171.9 48.4 172.8 47.9 C 173.7 47.5 174.7 47.2 175.8 47.2 C 177.1 47.2 178.3 47.6 179.4 48.2 C 180.5 48.9 181.3 49.8 182 51 C 182.6 52.2 182.9 53.6 182.9 55.2 C 182.9 56.8 182.6 58.2 182 59.4 C 181.3 60.6 180.5 61.6 179.4 62.2 C 178.3 62.9 177.1 63.3 175.8 63.3 C 174.7 63.3 173.7 63 172.8 62.6 C 171.9 62.1 171.2 61.5 170.7 60.8 C 170.7 60.79 170.7 70.4 170.7 70.4 L 166.8 70.4 L 166.8 47.5 L 170.7 47.5 L 170.7 49.7 C 170.7 49.7 170.7 49.73 170.7 49.7 Z M 178.9 55.2 C 178.9 54.3 178.7 53.4 178.3 52.8 C 177.9 52.1 177.4 51.6 176.8 51.2 C 176.2 50.9 175.5 50.7 174.8 50.7 C 174.1 50.7 173.4 50.9 172.8 51.2 C 172.2 51.6 171.7 52.1 171.3 52.8 C 170.9 53.5 170.7 54.3 170.7 55.2 C 170.7 56.2 170.9 57 171.3 57.7 C 171.7 58.4 172.2 58.9 172.8 59.3 C 173.4 59.6 174.1 59.8 174.8 59.8 C 175.5 59.8 176.2 59.6 176.8 59.2 C 177.4 58.9 177.9 58.3 178.3 57.7 C 178.7 57 178.9 56.1 178.9 55.2 C 178.9 55.2 178.9 55.2 178.9 55.2 Z M 199.2 63.2 C 197.8 63.2 196.6 63 195.5 62.5 C 194.4 62 193.5 61.4 192.9 60.5 C 192.3 59.6 191.9 58.6 191.9 57.4 C 191.9 57.4 196.1 57.4 196.1 57.4 C 196.2 58.2 196.5 58.8 197 59.3 C 197.5 59.7 198.2 60 199.1 60 C 200 60 200.7 59.8 201.2 59.3 C 201.8 58.9 202 58.3 202 57.6 C 202 57 201.9 56.5 201.5 56.2 C 201.1 55.8 200.7 55.5 200.2 55.3 C 199.6 55.1 198.9 54.8 198 54.6 C 196.7 54.2 195.7 53.8 194.9 53.5 C 194.1 53.1 193.4 52.6 192.8 51.8 C 192.3 51.1 192 50.1 192 48.9 C 192 47.7 192.3 46.7 192.8 45.8 C 193.4 45 194.2 44.3 195.3 43.9 C 196.3 43.4 197.5 43.2 198.9 43.2 C 200.9 43.2 202.5 43.7 203.8 44.6 C 205 45.6 205.7 47 205.9 48.7 C 205.9 48.7 201.6 48.7 201.6 48.7 C 201.5 48.1 201.2 47.5 200.7 47.1 C 200.2 46.6 199.5 46.4 198.6 46.4 C 197.8 46.4 197.2 46.6 196.8 47 C 196.3 47.4 196.1 48 196.1 48.7 C 196.1 49.2 196.2 49.7 196.6 50 C 196.9 50.4 197.4 50.6 197.9 50.9 C 198.4 51.1 199.1 51.3 200 51.6 C 201.3 52 202.3 52.4 203.1 52.7 C 204 53.1 204.6 53.7 205.2 54.4 C 205.8 55.2 206.1 56.1 206.1 57.3 C 206.1 58.4 205.8 59.4 205.3 60.3 C 204.7 61.2 203.9 61.9 202.9 62.4 C 201.9 62.9 200.6 63.2 199.2 63.2 C 199.2 63.2 199.2 63.2 199.2 63.2 Z M 224.3 47.5 L 214.7 70.3 L 210.5 70.3 L 213.9 62.6 L 207.7 47.5 L 212.1 47.5 L 216.1 58.3 L 220.1 47.5 L 224.3 47.5 Z M 232.4 63.3 C 231.1 63.3 229.9 63 228.9 62.6 C 227.9 62.1 227.1 61.5 226.5 60.7 C 226 59.9 225.6 59.1 225.6 58.1 C 225.6 58.1 229.5 58.1 229.5 58.1 C 229.6 58.7 229.9 59.2 230.4 59.6 C 230.9 60 231.6 60.2 232.3 60.2 C 233.1 60.2 233.7 60 234.1 59.7 C 234.5 59.4 234.7 59 234.7 58.6 C 234.7 58.1 234.4 57.7 233.9 57.4 C 233.4 57.2 232.6 56.9 231.5 56.6 C 230.3 56.3 229.4 56 228.6 55.7 C 227.9 55.4 227.3 55 226.7 54.4 C 226.2 53.8 225.9 52.9 225.9 51.9 C 225.9 51 226.2 50.2 226.7 49.5 C 227.2 48.8 227.9 48.3 228.8 47.9 C 229.7 47.4 230.8 47.2 232.1 47.2 C 233.9 47.2 235.4 47.7 236.5 48.6 C 237.6 49.5 238.2 50.8 238.3 52.4 C 238.3 52.4 234.6 52.4 234.6 52.4 C 234.5 51.7 234.3 51.3 233.8 50.9 C 233.3 50.5 232.7 50.3 232 50.3 C 231.3 50.3 230.7 50.5 230.3 50.7 C 229.9 51 229.7 51.4 229.7 51.8 C 229.7 52.4 230 52.7 230.5 53 C 231.1 53.3 231.9 53.6 233 53.8 C 234.1 54.1 235 54.4 235.7 54.7 C 236.5 55 237.1 55.5 237.6 56.1 C 238.2 56.7 238.4 57.5 238.5 58.6 C 238.5 59.5 238.2 60.3 237.7 61 C 237.2 61.7 236.5 62.2 235.6 62.6 C 234.7 63.1 233.6 63.3 232.4 63.3 C 232.4 63.3 232.4 63.3 232.4 63.3 Z M 246.2 50.7 C 246.2 50.7 246.24 58.21 246.2 58.2 C 246.2 58.7 246.4 59.1 246.6 59.3 C 246.9 59.6 247.3 59.7 247.9 59.7 C 247.89 59.7 249.7 59.7 249.7 59.7 L 249.7 63 C 249.7 63 247.25 63 247.2 63 C 243.9 63 242.3 61.4 242.3 58.2 C 242.29 58.18 242.3 50.7 242.3 50.7 L 240.4 50.7 L 240.4 47.5 L 242.3 47.5 L 242.3 43.7 L 246.2 43.7 L 246.2 47.5 L 249.7 47.5 L 249.7 50.7 L 246.2 50.7 Z M 267 54.9 C 267 55.5 266.9 56 266.8 56.4 C 266.8 56.4 255.5 56.4 255.5 56.4 C 255.6 57.5 256 58.4 256.7 59.1 C 257.4 59.7 258.2 60 259.2 60 C 260.7 60 261.7 59.4 262.3 58.1 C 262.3 58.1 266.6 58.1 266.6 58.1 C 266.1 59.6 265.3 60.8 264 61.8 C 262.7 62.8 261.2 63.3 259.3 63.3 C 257.8 63.3 256.5 62.9 255.3 62.3 C 254.1 61.6 253.2 60.7 252.5 59.4 C 251.9 58.2 251.5 56.8 251.5 55.2 C 251.5 53.6 251.9 52.2 252.5 51 C 253.2 49.8 254.1 48.9 255.3 48.2 C 256.4 47.6 257.8 47.2 259.3 47.2 C 260.8 47.2 262.1 47.6 263.3 48.2 C 264.4 48.8 265.4 49.7 266 50.9 C 266.6 52.1 267 53.4 267 54.9 C 267 54.9 267 54.9 267 54.9 Z M 262.9 53.8 C 262.9 52.8 262.5 52 261.8 51.4 C 261.1 50.8 260.2 50.5 259.2 50.5 C 258.2 50.5 257.4 50.7 256.8 51.3 C 256.1 51.9 255.7 52.7 255.5 53.8 C 255.5 53.8 262.9 53.8 262.9 53.8 Z M 289.1 47.3 C 291 47.3 292.5 47.8 293.7 49 C 294.9 50.2 295.4 51.8 295.4 53.9 C 295.44 53.9 295.4 63 295.4 63 L 291.5 63 C 291.5 63 291.52 54.43 291.5 54.4 C 291.5 53.2 291.2 52.3 290.6 51.6 C 290 51 289.1 50.7 288.1 50.7 C 287 50.7 286.2 51 285.5 51.6 C 284.9 52.3 284.6 53.2 284.6 54.4 C 284.6 54.43 284.6 63 284.6 63 L 280.7 63 C 280.7 63 280.68 54.43 280.7 54.4 C 280.7 53.2 280.4 52.3 279.8 51.6 C 279.1 51 278.3 50.7 277.2 50.7 C 276.2 50.7 275.3 51 274.7 51.6 C 274 52.3 273.7 53.2 273.7 54.4 C 273.74 54.43 273.7 63 273.7 63 L 269.8 63 L 269.8 47.5 L 273.7 47.5 C 273.7 47.5 273.74 49.36 273.7 49.4 C 274.2 48.7 274.9 48.2 275.7 47.8 C 276.5 47.5 277.3 47.3 278.3 47.3 C 279.5 47.3 280.6 47.5 281.5 48 C 282.5 48.5 283.2 49.3 283.8 50.2 C 284.3 49.3 285 48.6 286 48.1 C 286.9 47.5 288 47.3 289.1 47.3 C 289.1 47.3 289.1 47.3 289.1 47.3 Z M 305.1 63.3 C 303.8 63.3 302.7 63 301.7 62.6 C 300.7 62.1 299.9 61.5 299.3 60.7 C 298.7 59.9 298.4 59.1 298.3 58.1 C 298.3 58.1 302.3 58.1 302.3 58.1 C 302.3 58.7 302.6 59.2 303.1 59.6 C 303.7 60 304.3 60.2 305.1 60.2 C 305.8 60.2 306.4 60 306.8 59.7 C 307.2 59.4 307.4 59 307.4 58.6 C 307.4 58.1 307.2 57.7 306.7 57.4 C 306.2 57.2 305.3 56.9 304.2 56.6 C 303.1 56.3 302.1 56 301.4 55.7 C 300.6 55.4 300 55 299.5 54.4 C 298.9 53.8 298.7 52.9 298.7 51.9 C 298.7 51 298.9 50.2 299.4 49.5 C 299.9 48.8 300.6 48.3 301.6 47.9 C 302.5 47.4 303.6 47.2 304.8 47.2 C 306.7 47.2 308.1 47.7 309.2 48.6 C 310.3 49.5 310.9 50.8 311.1 52.4 C 311.1 52.4 307.3 52.4 307.3 52.4 C 307.3 51.7 307 51.3 306.5 50.9 C 306.1 50.5 305.5 50.3 304.7 50.3 C 304 50.3 303.4 50.5 303.1 50.7 C 302.7 51 302.5 51.4 302.5 51.8 C 302.5 52.4 302.8 52.7 303.3 53 C 303.8 53.3 304.6 53.6 305.7 53.8 C 306.8 54.1 307.8 54.4 308.5 54.7 C 309.2 55 309.8 55.5 310.4 56.1 C 310.9 56.7 311.2 57.5 311.2 58.6 C 311.2 59.5 311 60.3 310.5 61 C 310 61.7 309.3 62.2 308.3 62.6 C 307.4 63.1 306.3 63.3 305.1 63.3 C 305.1 63.3 305.1 63.3 305.1 63.3 Z " stroke="none" fill="#e4007e"/>  </g>  <g id="Polygon7980">    <path d="M 100.1 25.7 L 92.4 25.7 L 91.1 29.4 L 87 29.4 L 94 9.8 L 98.5 9.8 L 105.6 29.4 L 101.4 29.4 L 100.1 25.7 Z M 99.1 22.5 L 96.2 14.4 L 93.4 22.5 L 99.1 22.5 Z M 114.3 13.6 C 115.4 13.6 116.5 13.9 117.3 14.3 C 118.2 14.8 118.9 15.4 119.4 16.1 C 119.4 16.1 119.4 13.9 119.4 13.9 L 123.4 13.9 C 123.4 13.9 123.35 29.51 123.4 29.5 C 123.4 30.9 123.1 32.2 122.5 33.4 C 121.9 34.5 121 35.4 119.9 36 C 118.7 36.7 117.3 37 115.7 37 C 113.5 37 111.7 36.5 110.3 35.5 C 108.9 34.5 108.1 33.1 107.9 31.3 C 107.9 31.3 111.8 31.3 111.8 31.3 C 112 32 112.4 32.6 113.1 33 C 113.8 33.4 114.6 33.6 115.6 33.6 C 116.7 33.6 117.6 33.3 118.3 32.6 C 119 31.9 119.4 30.9 119.4 29.5 C 119.4 29.5 119.4 27.1 119.4 27.1 C 118.9 27.8 118.2 28.4 117.3 28.9 C 116.4 29.4 115.4 29.7 114.3 29.7 C 113 29.7 111.8 29.3 110.7 28.6 C 109.6 28 108.8 27 108.1 25.8 C 107.5 24.6 107.2 23.2 107.2 21.6 C 107.2 20 107.5 18.6 108.1 17.4 C 108.8 16.2 109.6 15.3 110.7 14.6 C 111.8 14 113 13.6 114.3 13.6 C 114.3 13.6 114.3 13.6 114.3 13.6 Z M 119.4 21.6 C 119.4 20.7 119.2 19.9 118.8 19.2 C 118.5 18.5 118 18 117.3 17.6 C 116.7 17.3 116 17.1 115.3 17.1 C 114.6 17.1 113.9 17.3 113.3 17.6 C 112.7 18 112.2 18.5 111.8 19.2 C 111.4 19.8 111.2 20.7 111.2 21.6 C 111.2 22.5 111.4 23.3 111.8 24 C 112.2 24.7 112.7 25.3 113.3 25.6 C 113.9 26 114.6 26.2 115.3 26.2 C 116 26.2 116.7 26 117.3 25.7 C 118 25.3 118.5 24.8 118.8 24.1 C 119.2 23.4 119.4 22.6 119.4 21.6 C 119.4 21.6 119.4 21.6 119.4 21.6 Z M 141.6 21.3 C 141.6 21.9 141.6 22.4 141.5 22.8 C 141.5 22.8 130.2 22.8 130.2 22.8 C 130.2 23.9 130.6 24.8 131.3 25.5 C 132 26.1 132.9 26.4 133.9 26.4 C 135.3 26.4 136.4 25.8 137 24.5 C 137 24.5 141.2 24.5 141.2 24.5 C 140.8 26 139.9 27.2 138.6 28.2 C 137.4 29.2 135.8 29.7 134 29.7 C 132.5 29.7 131.1 29.3 129.9 28.7 C 128.8 28 127.8 27.1 127.2 25.8 C 126.5 24.6 126.2 23.2 126.2 21.6 C 126.2 20 126.5 18.6 127.2 17.4 C 127.8 16.2 128.7 15.3 129.9 14.6 C 131.1 14 132.4 13.6 134 13.6 C 135.4 13.6 136.8 14 137.9 14.6 C 139.1 15.2 140 16.1 140.6 17.3 C 141.3 18.5 141.6 19.8 141.6 21.3 C 141.6 21.3 141.6 21.3 141.6 21.3 Z M 137.5 20.2 C 137.5 19.2 137.2 18.4 136.5 17.8 C 135.7 17.2 134.9 16.9 133.9 16.9 C 132.9 16.9 132.1 17.1 131.4 17.7 C 130.7 18.3 130.3 19.1 130.2 20.2 C 130.2 20.2 137.5 20.2 137.5 20.2 Z M 153.1 13.7 C 154.9 13.7 156.4 14.2 157.5 15.4 C 158.7 16.6 159.2 18.2 159.2 20.3 C 159.25 20.3 159.2 29.4 159.2 29.4 L 155.3 29.4 C 155.3 29.4 155.33 20.83 155.3 20.8 C 155.3 19.6 155 18.7 154.4 18 C 153.8 17.3 152.9 17 151.9 17 C 150.8 17 149.9 17.3 149.3 18 C 148.7 18.7 148.4 19.6 148.4 20.8 C 148.38 20.83 148.4 29.4 148.4 29.4 L 144.5 29.4 L 144.5 13.9 L 148.4 13.9 C 148.4 13.9 148.38 15.82 148.4 15.8 C 148.9 15.1 149.6 14.6 150.4 14.2 C 151.2 13.9 152.1 13.7 153.1 13.7 C 153.1 13.7 153.1 13.7 153.1 13.7 Z M 167.5 17.1 C 167.5 17.1 167.53 24.61 167.5 24.6 C 167.5 25.1 167.7 25.5 167.9 25.7 C 168.2 26 168.6 26.1 169.2 26.1 C 169.19 26.1 171 26.1 171 26.1 L 171 29.4 C 171 29.4 168.54 29.4 168.5 29.4 C 165.2 29.4 163.6 27.8 163.6 24.6 C 163.59 24.58 163.6 17.1 163.6 17.1 L 161.7 17.1 L 161.7 13.9 L 163.6 13.9 L 163.6 10.1 L 167.5 10.1 L 167.5 13.9 L 171 13.9 L 171 17.1 L 167.5 17.1 Z M 175.8 12 C 175.1 12 174.6 11.8 174.1 11.4 C 173.6 10.9 173.4 10.4 173.4 9.7 C 173.4 9.1 173.6 8.5 174.1 8.1 C 174.6 7.7 175.1 7.4 175.8 7.4 C 176.5 7.4 177.1 7.7 177.5 8.1 C 178 8.5 178.2 9.1 178.2 9.7 C 178.2 10.4 178 10.9 177.5 11.4 C 177.1 11.8 176.5 12 175.8 12 C 175.8 12 175.8 12 175.8 12 Z M 177.8 13.9 L 177.8 29.4 L 173.8 29.4 L 173.8 13.9 L 177.8 13.9 Z M 180.6 21.6 C 180.6 20 180.9 18.6 181.6 17.4 C 182.2 16.2 183.1 15.3 184.3 14.6 C 185.5 14 186.8 13.6 188.3 13.6 C 190.2 13.6 191.8 14.1 193.1 15.1 C 194.3 16 195.2 17.4 195.6 19.1 C 195.6 19.1 191.4 19.1 191.4 19.1 C 191.1 18.5 190.8 17.9 190.2 17.5 C 189.7 17.2 189 17 188.3 17 C 187.1 17 186.2 17.4 185.6 18.2 C 184.9 19 184.6 20.2 184.6 21.6 C 184.6 23.1 184.9 24.3 185.6 25.1 C 186.2 25.9 187.1 26.3 188.3 26.3 C 189.8 26.3 190.9 25.6 191.4 24.2 C 191.4 24.2 195.6 24.2 195.6 24.2 C 195.2 25.8 194.3 27.2 193 28.2 C 191.8 29.2 190.2 29.7 188.3 29.7 C 186.8 29.7 185.5 29.3 184.3 28.7 C 183.1 28 182.2 27.1 181.6 25.9 C 180.9 24.7 180.6 23.2 180.6 21.6 C 180.6 21.6 180.6 21.6 180.6 21.6 Z M 217.1 25.7 L 209.3 25.7 L 208 29.4 L 203.9 29.4 L 211 9.8 L 215.5 9.8 L 222.6 29.4 L 218.4 29.4 L 217.1 25.7 Z M 216.1 22.5 L 213.2 14.4 L 210.4 22.5 L 216.1 22.5 Z M 229.1 9.9 L 229.1 29.4 L 225.2 29.4 L 225.2 9.9 L 229.1 9.9 Z M 254.7 29.4 C 254.7 29.4 252.54 27.3 252.5 27.3 C 250.7 28.9 248.5 29.7 245.9 29.7 C 244.5 29.7 243.2 29.5 242.1 29 C 241 28.5 240.2 27.8 239.6 26.9 C 239 26 238.7 24.9 238.7 23.7 C 238.7 22.5 239 21.3 239.8 20.3 C 240.5 19.2 241.6 18.4 243 17.8 C 242.5 17.2 242.1 16.6 241.9 16 C 241.7 15.4 241.6 14.8 241.6 14.2 C 241.6 13.3 241.8 12.5 242.3 11.7 C 242.7 11 243.4 10.5 244.3 10.1 C 245.1 9.6 246.1 9.4 247.3 9.4 C 248.5 9.4 249.5 9.7 250.3 10.1 C 251.2 10.6 251.8 11.2 252.2 11.9 C 252.6 12.6 252.8 13.5 252.7 14.4 C 252.7 14.4 248.9 14.4 248.9 14.4 C 248.9 13.8 248.8 13.3 248.5 13 C 248.2 12.7 247.7 12.5 247.2 12.5 C 246.7 12.5 246.2 12.6 245.9 12.9 C 245.5 13.3 245.4 13.7 245.4 14.1 C 245.4 14.6 245.5 15.1 245.8 15.5 C 246.1 16 246.5 16.5 247.2 17.2 C 247.2 17.2 252.1 22.1 252.1 22.1 C 252.1 22.1 252.2 22 252.2 22 C 252.2 21.9 252.2 21.9 252.2 21.9 C 252.23 21.87 253.8 19.2 253.8 19.2 L 257.9 19.2 C 257.9 19.2 255.96 22.65 256 22.7 C 255.6 23.4 255.2 24.1 254.8 24.7 C 254.75 24.72 259.5 29.4 259.5 29.4 L 254.7 29.4 Z M 246 26.5 C 247.5 26.5 248.9 25.9 250.1 24.9 C 250.1 24.9 245.3 20.1 245.3 20.1 C 243.4 20.9 242.5 22 242.5 23.5 C 242.5 24.4 242.9 25.1 243.5 25.6 C 244.1 26.2 245 26.5 246 26.5 C 246 26.5 246 26.5 246 26.5 Z " stroke="none" fill="#e4007e"/>  </g></svg>