<?xml version="1.0" standalone="no"?><!DOCTYPE svg PUBLIC "-//W3C//DTD SVG 1.1//EN" "http://www.w3.org/Graphics/SVG/1.1/DTD/svg11.dtd"><svg xmlns="http://www.w3.org/2000/svg" version="1.1" width="1679.1px" height="37.6px" viewBox="0 -7 1679.1 37.6" style="top:-7px">  <desc>Please note, the tools mentioned in this guide are only suggested, and alternatives may be used where they support th...</desc>  <defs/>  <g id="Polygon6424">    <path d="M 39.8 16 L 39.8 0.3 C 39.8 0.3 44.88 0.27 44.9 0.3 C 46.8 0.3 48.1 0.3 48.7 0.5 C 49.6 0.7 50.3 1.3 50.9 2 C 51.5 2.8 51.8 3.9 51.8 5.1 C 51.8 6.1 51.7 6.9 51.3 7.6 C 51 8.2 50.5 8.7 50 9.1 C 49.4 9.5 48.9 9.7 48.3 9.9 C 47.6 10 46.5 10.1 45 10.1 C 45.03 10.08 43 10.1 43 10.1 L 43 16 L 39.8 16 Z M 43 2.9 L 43 7.4 C 43 7.4 44.7 7.4 44.7 7.4 C 46 7.4 46.8 7.3 47.2 7.2 C 47.6 7 48 6.7 48.2 6.4 C 48.4 6 48.6 5.6 48.6 5.2 C 48.6 4.6 48.4 4.1 48.1 3.7 C 47.7 3.4 47.3 3.1 46.8 3 C 46.4 3 45.6 2.9 44.5 2.9 C 44.5 2.93 43 2.9 43 2.9 Z M 54.4 16 L 54.4 0.3 L 57.5 0.3 L 57.5 16 L 54.4 16 Z M 67.2 12.4 C 67.2 12.4 70.2 12.9 70.2 12.9 C 69.8 14 69.2 14.8 68.3 15.4 C 67.5 16 66.4 16.3 65.2 16.3 C 63.2 16.3 61.7 15.6 60.8 14.3 C 60 13.3 59.7 12 59.7 10.4 C 59.7 8.5 60.2 7 61.1 6 C 62.1 4.9 63.4 4.4 64.9 4.4 C 66.6 4.4 67.9 4.9 68.9 6 C 69.9 7.2 70.4 8.9 70.3 11.2 C 70.3 11.2 62.8 11.2 62.8 11.2 C 62.8 12.1 63 12.8 63.5 13.3 C 64 13.8 64.5 14 65.2 14 C 65.7 14 66.1 13.9 66.4 13.6 C 66.7 13.4 67 13 67.2 12.4 Z M 67.3 9.3 C 67.3 8.5 67.1 7.8 66.6 7.3 C 66.2 6.9 65.7 6.7 65.1 6.7 C 64.4 6.7 63.9 6.9 63.4 7.4 C 63 7.9 62.8 8.5 62.8 9.3 C 62.8 9.3 67.3 9.3 67.3 9.3 Z M 75 8.1 C 75 8.1 72.3 7.6 72.3 7.6 C 72.6 6.5 73.1 5.7 73.9 5.1 C 74.6 4.6 75.8 4.4 77.2 4.4 C 78.6 4.4 79.6 4.5 80.2 4.8 C 80.9 5.1 81.4 5.6 81.6 6 C 81.9 6.5 82 7.4 82 8.7 C 82 8.7 82 12.3 82 12.3 C 82 13.3 82.1 14 82.2 14.5 C 82.2 15 82.4 15.5 82.7 16 C 82.7 16 79.7 16 79.7 16 C 79.6 15.8 79.5 15.5 79.4 15.1 C 79.4 14.9 79.3 14.8 79.3 14.8 C 78.8 15.3 78.2 15.6 77.7 15.9 C 77.1 16.1 76.4 16.3 75.8 16.3 C 74.6 16.3 73.7 16 73 15.3 C 72.3 14.7 72 13.9 72 12.9 C 72 12.3 72.1 11.7 72.4 11.2 C 72.8 10.7 73.2 10.3 73.7 10 C 74.3 9.7 75.1 9.5 76.1 9.3 C 77.6 9 78.5 8.8 79.1 8.6 C 79.1 8.6 79.1 8.3 79.1 8.3 C 79.1 7.7 78.9 7.3 78.6 7 C 78.4 6.8 77.8 6.7 77 6.7 C 76.5 6.7 76.1 6.8 75.8 7 C 75.5 7.2 75.2 7.6 75 8.1 Z M 79.1 10.5 C 78.7 10.7 78.1 10.8 77.2 11 C 76.4 11.2 75.9 11.4 75.6 11.5 C 75.2 11.8 75 12.2 75 12.6 C 75 13 75.2 13.4 75.5 13.7 C 75.8 14 76.2 14.1 76.7 14.1 C 77.2 14.1 77.7 14 78.2 13.6 C 78.6 13.3 78.8 13 79 12.6 C 79 12.4 79.1 11.9 79.1 11.1 C 79.1 11.1 79.1 10.5 79.1 10.5 Z M 84 12.8 C 84 12.8 87 12.3 87 12.3 C 87.1 12.9 87.4 13.3 87.8 13.6 C 88.2 13.9 88.7 14.1 89.4 14.1 C 90.2 14.1 90.8 14 91.2 13.7 C 91.4 13.5 91.6 13.2 91.6 12.9 C 91.6 12.6 91.5 12.4 91.4 12.3 C 91.2 12.1 90.9 12 90.4 11.9 C 87.9 11.4 86.4 10.9 85.7 10.4 C 84.8 9.8 84.4 8.9 84.4 7.9 C 84.4 6.9 84.8 6 85.5 5.4 C 86.3 4.7 87.5 4.4 89.2 4.4 C 90.7 4.4 91.9 4.6 92.7 5.1 C 93.4 5.6 93.9 6.4 94.2 7.4 C 94.2 7.4 91.4 7.9 91.4 7.9 C 91.3 7.5 91 7.1 90.7 6.9 C 90.3 6.6 89.9 6.5 89.2 6.5 C 88.4 6.5 87.9 6.6 87.5 6.9 C 87.3 7 87.2 7.2 87.2 7.5 C 87.2 7.7 87.3 7.9 87.5 8 C 87.7 8.2 88.7 8.5 90.3 8.9 C 91.9 9.2 93 9.7 93.7 10.2 C 94.3 10.7 94.6 11.5 94.6 12.5 C 94.6 13.5 94.2 14.4 93.3 15.1 C 92.4 15.9 91.1 16.3 89.4 16.3 C 87.9 16.3 86.6 16 85.7 15.3 C 84.8 14.7 84.2 13.8 84 12.8 Z M 103.9 12.4 C 103.9 12.4 106.9 12.9 106.9 12.9 C 106.5 14 105.9 14.8 105 15.4 C 104.2 16 103.2 16.3 101.9 16.3 C 99.9 16.3 98.5 15.6 97.5 14.3 C 96.7 13.3 96.4 12 96.4 10.4 C 96.4 8.5 96.9 7 97.9 6 C 98.8 4.9 100.1 4.4 101.6 4.4 C 103.3 4.4 104.6 4.9 105.6 6 C 106.6 7.2 107.1 8.9 107 11.2 C 107 11.2 99.5 11.2 99.5 11.2 C 99.5 12.1 99.7 12.8 100.2 13.3 C 100.7 13.8 101.2 14 101.9 14 C 102.4 14 102.8 13.9 103.1 13.6 C 103.4 13.4 103.7 13 103.9 12.4 Z M 104 9.3 C 104 8.5 103.8 7.8 103.4 7.3 C 102.9 6.9 102.4 6.7 101.8 6.7 C 101.1 6.7 100.6 6.9 100.2 7.4 C 99.7 7.9 99.5 8.5 99.5 9.3 C 99.5 9.3 104 9.3 104 9.3 Z M 126 16 L 123 16 C 123 16 122.96 10.19 123 10.2 C 123 9 122.9 8.2 122.8 7.8 C 122.6 7.4 122.4 7.2 122.1 7 C 121.8 6.8 121.5 6.7 121.1 6.7 C 120.6 6.7 120.1 6.8 119.7 7.1 C 119.3 7.4 119 7.8 118.8 8.2 C 118.7 8.7 118.6 9.6 118.6 10.8 C 118.6 10.85 118.6 16 118.6 16 L 115.6 16 L 115.6 4.6 L 118.4 4.6 C 118.4 4.6 118.38 6.28 118.4 6.3 C 119.4 5 120.6 4.4 122.1 4.4 C 122.8 4.4 123.4 4.5 124 4.7 C 124.5 5 124.9 5.3 125.2 5.6 C 125.5 6 125.7 6.4 125.8 6.9 C 125.9 7.4 126 8 126 8.9 C 125.98 8.93 126 16 126 16 Z M 128.3 10.2 C 128.3 9.1 128.6 8.2 129.1 7.2 C 129.6 6.3 130.3 5.6 131.2 5.1 C 132.1 4.6 133.1 4.4 134.2 4.4 C 135.9 4.4 137.4 4.9 138.5 6 C 139.6 7.2 140.1 8.6 140.1 10.3 C 140.1 12 139.6 13.4 138.4 14.6 C 137.3 15.7 135.9 16.3 134.2 16.3 C 133.2 16.3 132.2 16 131.2 15.6 C 130.3 15.1 129.6 14.4 129.1 13.5 C 128.6 12.6 128.3 11.5 128.3 10.2 Z M 131.4 10.3 C 131.4 11.4 131.7 12.3 132.2 12.9 C 132.8 13.5 133.4 13.8 134.2 13.8 C 135 13.8 135.7 13.5 136.2 12.9 C 136.7 12.3 137 11.4 137 10.3 C 137 9.2 136.7 8.3 136.2 7.7 C 135.7 7.1 135 6.8 134.2 6.8 C 133.4 6.8 132.8 7.1 132.2 7.7 C 131.7 8.3 131.4 9.2 131.4 10.3 Z M 147.7 4.6 L 147.7 7 L 145.6 7 C 145.6 7 145.64 11.61 145.6 11.6 C 145.6 12.5 145.7 13.1 145.7 13.2 C 145.7 13.4 145.8 13.5 146 13.6 C 146.1 13.7 146.3 13.8 146.5 13.8 C 146.8 13.8 147.2 13.7 147.7 13.5 C 147.7 13.5 148 15.8 148 15.8 C 147.3 16.1 146.5 16.3 145.6 16.3 C 145 16.3 144.5 16.2 144.1 16 C 143.7 15.8 143.3 15.6 143.1 15.3 C 142.9 15 142.8 14.6 142.7 14.1 C 142.6 13.8 142.6 13.1 142.6 12 C 142.62 11.99 142.6 7 142.6 7 L 141.2 7 L 141.2 4.6 L 142.6 4.6 L 142.6 2.3 L 145.6 0.6 L 145.6 4.6 L 147.7 4.6 Z M 156.4 12.4 C 156.4 12.4 159.4 12.9 159.4 12.9 C 159 14 158.4 14.8 157.6 15.4 C 156.8 16 155.7 16.3 154.5 16.3 C 152.5 16.3 151 15.6 150 14.3 C 149.3 13.3 148.9 12 148.9 10.4 C 148.9 8.5 149.4 7 150.4 6 C 151.4 4.9 152.6 4.4 154.2 4.4 C 155.8 4.4 157.2 4.9 158.2 6 C 159.2 7.2 159.6 8.9 159.6 11.2 C 159.6 11.2 152 11.2 152 11.2 C 152 12.1 152.3 12.8 152.7 13.3 C 153.2 13.8 153.8 14 154.5 14 C 155 14 155.4 13.9 155.7 13.6 C 156 13.4 156.2 13 156.4 12.4 Z M 156.6 9.3 C 156.6 8.5 156.3 7.8 155.9 7.3 C 155.5 6.9 155 6.7 154.3 6.7 C 153.7 6.7 153.1 6.9 152.7 7.4 C 152.3 7.9 152.1 8.5 152.1 9.3 C 152.1 9.3 156.6 9.3 156.6 9.3 Z M 162 13 L 165 13 C 165 13 164.98 15.16 165 15.2 C 165 16 164.9 16.7 164.8 17.2 C 164.6 17.7 164.3 18.2 163.9 18.6 C 163.5 19 163 19.3 162.3 19.5 C 162.3 19.5 161.7 18.3 161.7 18.3 C 162.3 18.1 162.8 17.8 163 17.5 C 163.3 17.1 163.4 16.6 163.4 16 C 163.42 16.02 162 16 162 16 L 162 13 Z M 179.5 4.6 L 179.5 7 L 177.4 7 C 177.4 7 177.43 11.61 177.4 11.6 C 177.4 12.5 177.5 13.1 177.5 13.2 C 177.5 13.4 177.6 13.5 177.8 13.6 C 177.9 13.7 178.1 13.8 178.3 13.8 C 178.5 13.8 179 13.7 179.5 13.5 C 179.5 13.5 179.7 15.8 179.7 15.8 C 179 16.1 178.2 16.3 177.4 16.3 C 176.8 16.3 176.3 16.2 175.9 16 C 175.4 15.8 175.1 15.6 174.9 15.3 C 174.7 15 174.6 14.6 174.5 14.1 C 174.4 13.8 174.4 13.1 174.4 12 C 174.4 11.99 174.4 7 174.4 7 L 173 7 L 173 4.6 L 174.4 4.6 L 174.4 2.3 L 177.4 0.6 L 177.4 4.6 L 179.5 4.6 Z M 184.6 0.3 C 184.6 0.3 184.6 6.06 184.6 6.1 C 185.6 4.9 186.7 4.4 188.1 4.4 C 188.8 4.4 189.4 4.5 190 4.7 C 190.5 5 190.9 5.3 191.2 5.7 C 191.5 6.1 191.7 6.6 191.8 7.1 C 191.9 7.5 192 8.3 192 9.3 C 191.97 9.32 192 16 192 16 L 188.9 16 C 188.9 16 188.95 9.99 188.9 10 C 188.9 8.8 188.9 8 188.8 7.7 C 188.7 7.4 188.5 7.1 188.2 6.9 C 187.9 6.8 187.5 6.7 187.1 6.7 C 186.6 6.7 186.1 6.8 185.7 7 C 185.3 7.3 185.1 7.6 184.9 8.1 C 184.7 8.6 184.6 9.3 184.6 10.3 C 184.6 10.3 184.6 16 184.6 16 L 181.6 16 L 181.6 0.3 L 184.6 0.3 Z M 201.6 12.4 C 201.6 12.4 204.6 12.9 204.6 12.9 C 204.3 14 203.6 14.8 202.8 15.4 C 202 16 200.9 16.3 199.7 16.3 C 197.7 16.3 196.2 15.6 195.3 14.3 C 194.5 13.3 194.1 12 194.1 10.4 C 194.1 8.5 194.6 7 195.6 6 C 196.6 4.9 197.9 4.4 199.4 4.4 C 201.1 4.4 202.4 4.9 203.4 6 C 204.4 7.2 204.8 8.9 204.8 11.2 C 204.8 11.2 197.2 11.2 197.2 11.2 C 197.3 12.1 197.5 12.8 198 13.3 C 198.4 13.8 199 14 199.7 14 C 200.2 14 200.6 13.9 200.9 13.6 C 201.2 13.4 201.5 13 201.6 12.4 Z M 201.8 9.3 C 201.8 8.5 201.6 7.8 201.1 7.3 C 200.7 6.9 200.2 6.7 199.6 6.7 C 198.9 6.7 198.4 6.9 197.9 7.4 C 197.5 7.9 197.3 8.5 197.3 9.3 C 197.3 9.3 201.8 9.3 201.8 9.3 Z M 218.6 4.6 L 218.6 7 L 216.5 7 C 216.5 7 216.54 11.61 216.5 11.6 C 216.5 12.5 216.6 13.1 216.6 13.2 C 216.6 13.4 216.7 13.5 216.9 13.6 C 217 13.7 217.2 13.8 217.4 13.8 C 217.7 13.8 218.1 13.7 218.6 13.5 C 218.6 13.5 218.9 15.8 218.9 15.8 C 218.2 16.1 217.4 16.3 216.5 16.3 C 215.9 16.3 215.4 16.2 215 16 C 214.6 15.8 214.2 15.6 214 15.3 C 213.8 15 213.7 14.6 213.6 14.1 C 213.5 13.8 213.5 13.1 213.5 12 C 213.51 11.99 213.5 7 213.5 7 L 212.1 7 L 212.1 4.6 L 213.5 4.6 L 213.5 2.3 L 216.5 0.6 L 216.5 4.6 L 218.6 4.6 Z M 220 10.2 C 220 9.1 220.2 8.2 220.7 7.2 C 221.2 6.3 221.9 5.6 222.8 5.1 C 223.7 4.6 224.8 4.4 225.9 4.4 C 227.6 4.4 229 4.9 230.1 6 C 231.2 7.2 231.8 8.6 231.8 10.3 C 231.8 12 231.2 13.4 230.1 14.6 C 229 15.7 227.6 16.3 225.9 16.3 C 224.9 16.3 223.9 16 222.9 15.6 C 222 15.1 221.2 14.4 220.7 13.5 C 220.2 12.6 220 11.5 220 10.2 Z M 223.1 10.3 C 223.1 11.4 223.4 12.3 223.9 12.9 C 224.4 13.5 225.1 13.8 225.9 13.8 C 226.7 13.8 227.3 13.5 227.9 12.9 C 228.4 12.3 228.7 11.4 228.7 10.3 C 228.7 9.2 228.4 8.3 227.9 7.7 C 227.3 7.1 226.7 6.8 225.9 6.8 C 225.1 6.8 224.4 7.1 223.9 7.7 C 223.4 8.3 223.1 9.2 223.1 10.3 Z M 233.4 10.2 C 233.4 9.1 233.7 8.2 234.2 7.2 C 234.7 6.3 235.4 5.6 236.3 5.1 C 237.2 4.6 238.2 4.4 239.3 4.4 C 241 4.4 242.5 4.9 243.6 6 C 244.7 7.2 245.2 8.6 245.2 10.3 C 245.2 12 244.7 13.4 243.5 14.6 C 242.4 15.7 241 16.3 239.3 16.3 C 238.3 16.3 237.3 16 236.3 15.6 C 235.4 15.1 234.7 14.4 234.2 13.5 C 233.7 12.6 233.4 11.5 233.4 10.2 Z M 236.5 10.3 C 236.5 11.4 236.8 12.3 237.3 12.9 C 237.9 13.5 238.5 13.8 239.3 13.8 C 240.1 13.8 240.8 13.5 241.3 12.9 C 241.8 12.3 242.1 11.4 242.1 10.3 C 242.1 9.2 241.8 8.3 241.3 7.7 C 240.8 7.1 240.1 6.8 239.3 6.8 C 238.5 6.8 237.9 7.1 237.3 7.7 C 236.8 8.3 236.5 9.2 236.5 10.3 Z M 247.6 16 L 247.6 0.3 L 250.6 0.3 L 250.6 16 L 247.6 16 Z M 252.6 12.8 C 252.6 12.8 255.7 12.3 255.7 12.3 C 255.8 12.9 256 13.3 256.4 13.6 C 256.8 13.9 257.4 14.1 258.1 14.1 C 258.9 14.1 259.5 14 259.9 13.7 C 260.1 13.5 260.3 13.2 260.3 12.9 C 260.3 12.6 260.2 12.4 260 12.3 C 259.9 12.1 259.6 12 259 11.9 C 256.6 11.4 255.1 10.9 254.4 10.4 C 253.5 9.8 253 8.9 253 7.9 C 253 6.9 253.4 6 254.2 5.4 C 255 4.7 256.2 4.4 257.8 4.4 C 259.4 4.4 260.6 4.6 261.3 5.1 C 262.1 5.6 262.6 6.4 262.9 7.4 C 262.9 7.4 260 7.9 260 7.9 C 259.9 7.5 259.7 7.1 259.4 6.9 C 259 6.6 258.5 6.5 257.9 6.5 C 257.1 6.5 256.5 6.6 256.2 6.9 C 256 7 255.8 7.2 255.8 7.5 C 255.8 7.7 255.9 7.9 256.1 8 C 256.4 8.2 257.4 8.5 259 8.9 C 260.6 9.2 261.7 9.7 262.3 10.2 C 263 10.7 263.3 11.5 263.3 12.5 C 263.3 13.5 262.8 14.4 262 15.1 C 261.1 15.9 259.8 16.3 258.1 16.3 C 256.5 16.3 255.3 16 254.4 15.3 C 253.5 14.7 252.9 13.8 252.6 12.8 Z M 271.8 4.6 L 274.6 4.6 C 274.6 4.6 274.59 6.17 274.6 6.2 C 275.6 5 276.8 4.4 278.1 4.4 C 278.9 4.4 279.5 4.5 280.1 4.8 C 280.6 5.1 281 5.6 281.4 6.2 C 281.9 5.6 282.4 5.1 283 4.8 C 283.6 4.5 284.2 4.4 284.9 4.4 C 285.7 4.4 286.4 4.5 287 4.9 C 287.6 5.2 288 5.7 288.3 6.4 C 288.5 6.8 288.6 7.6 288.6 8.7 C 288.59 8.72 288.6 16 288.6 16 L 285.6 16 C 285.6 16 285.57 9.5 285.6 9.5 C 285.6 8.4 285.5 7.6 285.3 7.3 C 285 6.9 284.6 6.7 284 6.7 C 283.5 6.7 283.2 6.8 282.8 7 C 282.4 7.3 282.1 7.7 282 8.2 C 281.8 8.7 281.7 9.5 281.7 10.5 C 281.73 10.54 281.7 16 281.7 16 L 278.7 16 C 278.7 16 278.71 9.76 278.7 9.8 C 278.7 8.7 278.7 7.9 278.5 7.6 C 278.4 7.3 278.3 7.1 278 6.9 C 277.8 6.7 277.5 6.7 277.1 6.7 C 276.7 6.7 276.2 6.8 275.9 7 C 275.5 7.3 275.2 7.6 275.1 8.1 C 274.9 8.6 274.8 9.4 274.8 10.5 C 274.83 10.47 274.8 16 274.8 16 L 271.8 16 L 271.8 4.6 Z M 298.2 12.4 C 298.2 12.4 301.2 12.9 301.2 12.9 C 300.8 14 300.2 14.8 299.4 15.4 C 298.5 16 297.5 16.3 296.3 16.3 C 294.3 16.3 292.8 15.6 291.8 14.3 C 291.1 13.3 290.7 12 290.7 10.4 C 290.7 8.5 291.2 7 292.2 6 C 293.2 4.9 294.4 4.4 295.9 4.4 C 297.6 4.4 299 4.9 300 6 C 300.9 7.2 301.4 8.9 301.4 11.2 C 301.4 11.2 293.8 11.2 293.8 11.2 C 293.8 12.1 294.1 12.8 294.5 13.3 C 295 13.8 295.6 14 296.3 14 C 296.8 14 297.2 13.9 297.5 13.6 C 297.8 13.4 298 13 298.2 12.4 Z M 298.4 9.3 C 298.4 8.5 298.1 7.8 297.7 7.3 C 297.3 6.9 296.7 6.7 296.1 6.7 C 295.5 6.7 294.9 6.9 294.5 7.4 C 294.1 7.9 293.9 8.5 293.9 9.3 C 293.9 9.3 298.4 9.3 298.4 9.3 Z M 314.2 16 L 311.2 16 C 311.2 16 311.19 10.19 311.2 10.2 C 311.2 9 311.1 8.2 311 7.8 C 310.9 7.4 310.7 7.2 310.4 7 C 310.1 6.8 309.7 6.7 309.3 6.7 C 308.8 6.7 308.3 6.8 307.9 7.1 C 307.5 7.4 307.2 7.8 307.1 8.2 C 306.9 8.7 306.8 9.6 306.8 10.8 C 306.83 10.85 306.8 16 306.8 16 L 303.8 16 L 303.8 4.6 L 306.6 4.6 C 306.6 4.6 306.62 6.28 306.6 6.3 C 307.6 5 308.9 4.4 310.4 4.4 C 311 4.4 311.7 4.5 312.2 4.7 C 312.8 5 313.2 5.3 313.5 5.6 C 313.7 6 313.9 6.4 314 6.9 C 314.2 7.4 314.2 8 314.2 8.9 C 314.21 8.93 314.2 16 314.2 16 Z M 322.5 4.6 L 322.5 7 L 320.4 7 C 320.4 7 320.44 11.61 320.4 11.6 C 320.4 12.5 320.5 13.1 320.5 13.2 C 320.5 13.4 320.6 13.5 320.8 13.6 C 320.9 13.7 321.1 13.8 321.3 13.8 C 321.6 13.8 322 13.7 322.5 13.5 C 322.5 13.5 322.8 15.8 322.8 15.8 C 322 16.1 321.3 16.3 320.4 16.3 C 319.8 16.3 319.3 16.2 318.9 16 C 318.5 15.8 318.1 15.6 317.9 15.3 C 317.7 15 317.6 14.6 317.5 14.1 C 317.4 13.8 317.4 13.1 317.4 12 C 317.41 11.99 317.4 7 317.4 7 L 316 7 L 316 4.6 L 317.4 4.6 L 317.4 2.3 L 320.4 0.6 L 320.4 4.6 L 322.5 4.6 Z M 324.6 3.1 L 324.6 0.3 L 327.6 0.3 L 327.6 3.1 L 324.6 3.1 Z M 324.6 16 L 324.6 4.6 L 327.6 4.6 L 327.6 16 L 324.6 16 Z M 330 10.2 C 330 9.1 330.3 8.2 330.8 7.2 C 331.2 6.3 331.9 5.6 332.9 5.1 C 333.8 4.6 334.8 4.4 335.9 4.4 C 337.6 4.4 339 4.9 340.1 6 C 341.2 7.2 341.8 8.6 341.8 10.3 C 341.8 12 341.2 13.4 340.1 14.6 C 339 15.7 337.6 16.3 335.9 16.3 C 334.9 16.3 333.9 16 332.9 15.6 C 332 15.1 331.2 14.4 330.8 13.5 C 330.3 12.6 330 11.5 330 10.2 Z M 333.1 10.3 C 333.1 11.4 333.4 12.3 333.9 12.9 C 334.4 13.5 335.1 13.8 335.9 13.8 C 336.7 13.8 337.3 13.5 337.9 12.9 C 338.4 12.3 338.7 11.4 338.7 10.3 C 338.7 9.2 338.4 8.3 337.9 7.7 C 337.3 7.1 336.7 6.8 335.9 6.8 C 335.1 6.8 334.4 7.1 333.9 7.7 C 333.4 8.3 333.1 9.2 333.1 10.3 Z M 354.5 16 L 351.5 16 C 351.5 16 351.51 10.19 351.5 10.2 C 351.5 9 351.4 8.2 351.3 7.8 C 351.2 7.4 351 7.2 350.7 7 C 350.4 6.8 350 6.7 349.6 6.7 C 349.1 6.7 348.6 6.8 348.2 7.1 C 347.8 7.4 347.5 7.8 347.4 8.2 C 347.2 8.7 347.1 9.6 347.1 10.8 C 347.15 10.85 347.1 16 347.1 16 L 344.1 16 L 344.1 4.6 L 346.9 4.6 C 346.9 4.6 346.93 6.28 346.9 6.3 C 347.9 5 349.2 4.4 350.7 4.4 C 351.4 4.4 352 4.5 352.5 4.7 C 353.1 5 353.5 5.3 353.8 5.6 C 354.1 6 354.2 6.4 354.4 6.9 C 354.5 7.4 354.5 8 354.5 8.9 C 354.53 8.93 354.5 16 354.5 16 Z M 364.2 12.4 C 364.2 12.4 367.2 12.9 367.2 12.9 C 366.8 14 366.2 14.8 365.4 15.4 C 364.5 16 363.5 16.3 362.2 16.3 C 360.3 16.3 358.8 15.6 357.8 14.3 C 357.1 13.3 356.7 12 356.7 10.4 C 356.7 8.5 357.2 7 358.2 6 C 359.2 4.9 360.4 4.4 361.9 4.4 C 363.6 4.4 365 4.9 366 6 C 366.9 7.2 367.4 8.9 367.4 11.2 C 367.4 11.2 359.8 11.2 359.8 11.2 C 359.8 12.1 360.1 12.8 360.5 13.3 C 361 13.8 361.6 14 362.3 14 C 362.7 14 363.1 13.9 363.5 13.6 C 363.8 13.4 364 13 364.2 12.4 Z M 364.4 9.3 C 364.3 8.5 364.1 7.8 363.7 7.3 C 363.3 6.9 362.7 6.7 362.1 6.7 C 361.5 6.7 360.9 6.9 360.5 7.4 C 360.1 7.9 359.8 8.5 359.9 9.3 C 359.9 9.3 364.4 9.3 364.4 9.3 Z M 380.3 16 L 377.5 16 C 377.5 16 377.48 14.34 377.5 14.3 C 377 15 376.5 15.5 375.8 15.8 C 375.2 16.1 374.6 16.3 373.9 16.3 C 372.6 16.3 371.5 15.7 370.5 14.7 C 369.6 13.6 369.1 12.2 369.1 10.3 C 369.1 8.3 369.6 6.9 370.5 5.9 C 371.4 4.9 372.6 4.4 374 4.4 C 375.2 4.4 376.3 4.9 377.3 5.9 C 377.27 5.94 377.3 0.3 377.3 0.3 L 380.3 0.3 L 380.3 16 Z M 372.2 10.1 C 372.2 11.3 372.4 12.2 372.7 12.7 C 373.2 13.5 373.9 13.9 374.8 13.9 C 375.5 13.9 376.1 13.6 376.5 13 C 377 12.4 377.3 11.5 377.3 10.4 C 377.3 9 377 8.1 376.6 7.5 C 376.1 6.9 375.5 6.7 374.8 6.7 C 374 6.7 373.4 6.9 373 7.5 C 372.5 8.1 372.2 8.9 372.2 10.1 Z M 389.4 3.1 L 389.4 0.3 L 392.4 0.3 L 392.4 3.1 L 389.4 3.1 Z M 389.4 16 L 389.4 4.6 L 392.4 4.6 L 392.4 16 L 389.4 16 Z M 405.9 16 L 402.8 16 C 402.8 16 402.85 10.19 402.8 10.2 C 402.8 9 402.8 8.2 402.7 7.8 C 402.5 7.4 402.3 7.2 402 7 C 401.7 6.8 401.4 6.7 401 6.7 C 400.5 6.7 400 6.8 399.6 7.1 C 399.2 7.4 398.9 7.8 398.7 8.2 C 398.6 8.7 398.5 9.6 398.5 10.8 C 398.48 10.85 398.5 16 398.5 16 L 395.5 16 L 395.5 4.6 L 398.3 4.6 C 398.3 4.6 398.27 6.28 398.3 6.3 C 399.3 5 400.5 4.4 402 4.4 C 402.7 4.4 403.3 4.5 403.9 4.7 C 404.4 5 404.8 5.3 405.1 5.6 C 405.4 6 405.6 6.4 405.7 6.9 C 405.8 7.4 405.9 8 405.9 8.9 C 405.86 8.93 405.9 16 405.9 16 Z M 420.3 4.6 L 420.3 7 L 418.2 7 C 418.2 7 418.21 11.61 418.2 11.6 C 418.2 12.5 418.2 13.1 418.3 13.2 C 418.3 13.4 418.4 13.5 418.5 13.6 C 418.7 13.7 418.8 13.8 419 13.8 C 419.3 13.8 419.7 13.7 420.3 13.5 C 420.3 13.5 420.5 15.8 420.5 15.8 C 419.8 16.1 419 16.3 418.1 16.3 C 417.6 16.3 417.1 16.2 416.7 16 C 416.2 15.8 415.9 15.6 415.7 15.3 C 415.5 15 415.4 14.6 415.3 14.1 C 415.2 13.8 415.2 13.1 415.2 12 C 415.18 11.99 415.2 7 415.2 7 L 413.8 7 L 413.8 4.6 L 415.2 4.6 L 415.2 2.3 L 418.2 0.6 L 418.2 4.6 L 420.3 4.6 Z M 425.4 0.3 C 425.4 0.3 425.37 6.06 425.4 6.1 C 426.3 4.9 427.5 4.4 428.9 4.4 C 429.6 4.4 430.2 4.5 430.7 4.7 C 431.3 5 431.7 5.3 432 5.7 C 432.3 6.1 432.5 6.6 432.6 7.1 C 432.7 7.5 432.7 8.3 432.7 9.3 C 432.74 9.32 432.7 16 432.7 16 L 429.7 16 C 429.7 16 429.72 9.99 429.7 10 C 429.7 8.8 429.7 8 429.6 7.7 C 429.4 7.4 429.2 7.1 428.9 6.9 C 428.7 6.8 428.3 6.7 427.9 6.7 C 427.4 6.7 426.9 6.8 426.5 7 C 426.1 7.3 425.8 7.6 425.6 8.1 C 425.5 8.6 425.4 9.3 425.4 10.3 C 425.37 10.3 425.4 16 425.4 16 L 422.4 16 L 422.4 0.3 L 425.4 0.3 Z M 435.8 3.1 L 435.8 0.3 L 438.8 0.3 L 438.8 3.1 L 435.8 3.1 Z M 435.8 16 L 435.8 4.6 L 438.8 4.6 L 438.8 16 L 435.8 16 Z M 440.9 12.8 C 440.9 12.8 443.9 12.3 443.9 12.3 C 444 12.9 444.3 13.3 444.7 13.6 C 445.1 13.9 445.6 14.1 446.3 14.1 C 447.1 14.1 447.7 14 448.1 13.7 C 448.3 13.5 448.5 13.2 448.5 12.9 C 448.5 12.6 448.4 12.4 448.3 12.3 C 448.1 12.1 447.8 12 447.3 11.9 C 444.8 11.4 443.3 10.9 442.6 10.4 C 441.7 9.8 441.3 8.9 441.3 7.9 C 441.3 6.9 441.7 6 442.4 5.4 C 443.2 4.7 444.4 4.4 446.1 4.4 C 447.6 4.4 448.8 4.6 449.6 5.1 C 450.3 5.6 450.8 6.4 451.1 7.4 C 451.1 7.4 448.3 7.9 448.3 7.9 C 448.2 7.5 447.9 7.1 447.6 6.9 C 447.2 6.6 446.8 6.5 446.1 6.5 C 445.3 6.5 444.8 6.6 444.4 6.9 C 444.2 7 444.1 7.2 444.1 7.5 C 444.1 7.7 444.2 7.9 444.4 8 C 444.6 8.2 445.6 8.5 447.2 8.9 C 448.8 9.2 449.9 9.7 450.6 10.2 C 451.2 10.7 451.5 11.5 451.5 12.5 C 451.5 13.5 451.1 14.4 450.2 15.1 C 449.3 15.9 448 16.3 446.3 16.3 C 444.8 16.3 443.5 16 442.6 15.3 C 441.7 14.7 441.1 13.8 440.9 12.8 Z M 460 17.1 C 460 17 460 16.9 460 16.8 C 460 16.8 463.4 17.2 463.4 17.2 C 463.5 17.6 463.6 17.9 463.8 18 C 464.1 18.2 464.6 18.3 465.2 18.3 C 466 18.3 466.6 18.2 467 18 C 467.2 17.8 467.4 17.6 467.6 17.2 C 467.6 17 467.7 16.5 467.7 15.8 C 467.7 15.8 467.7 14.2 467.7 14.2 C 466.8 15.4 465.7 16 464.3 16 C 462.7 16 461.5 15.4 460.6 14.1 C 459.9 13 459.6 11.8 459.6 10.2 C 459.6 8.3 460 6.9 461 5.9 C 461.9 4.9 463 4.4 464.4 4.4 C 465.8 4.4 467 5 467.9 6.2 C 467.89 6.21 467.9 4.6 467.9 4.6 L 470.7 4.6 C 470.7 4.6 470.71 14.85 470.7 14.8 C 470.7 16.2 470.6 17.2 470.4 17.9 C 470.2 18.5 469.8 19.1 469.4 19.4 C 469 19.8 468.5 20.1 467.8 20.3 C 467.2 20.5 466.3 20.6 465.3 20.6 C 463.4 20.6 462 20.3 461.2 19.7 C 460.4 19 460 18.2 460 17.1 C 460 17.1 460 17.1 460 17.1 Z M 462.7 10.1 C 462.7 11.3 462.9 12.2 463.4 12.7 C 463.9 13.3 464.4 13.6 465.1 13.6 C 465.9 13.6 466.5 13.3 467 12.7 C 467.5 12.1 467.7 11.3 467.7 10.2 C 467.7 9 467.5 8.1 467 7.5 C 466.5 6.9 465.9 6.7 465.2 6.7 C 464.4 6.7 463.9 6.9 463.4 7.5 C 462.9 8.1 462.7 8.9 462.7 10.1 Z M 481.2 16 C 481.2 16 481.21 14.31 481.2 14.3 C 480.8 14.9 480.2 15.4 479.6 15.7 C 478.9 16.1 478.2 16.3 477.4 16.3 C 476.7 16.3 476 16.1 475.4 15.8 C 474.8 15.4 474.3 15 474 14.4 C 473.8 13.7 473.6 12.9 473.6 11.8 C 473.64 11.83 473.6 4.6 473.6 4.6 L 476.7 4.6 C 476.7 4.6 476.65 9.85 476.7 9.9 C 476.7 11.5 476.7 12.4 476.8 12.8 C 476.9 13.2 477.1 13.4 477.4 13.7 C 477.7 13.9 478.1 14 478.5 14 C 479.1 14 479.5 13.8 479.9 13.6 C 480.3 13.3 480.6 12.9 480.8 12.5 C 480.9 12.1 481 11.1 481 9.4 C 480.99 9.42 481 4.6 481 4.6 L 484 4.6 L 484 16 L 481.2 16 Z M 487.1 3.1 L 487.1 0.3 L 490.2 0.3 L 490.2 3.1 L 487.1 3.1 Z M 487.1 16 L 487.1 4.6 L 490.2 4.6 L 490.2 16 L 487.1 16 Z M 503.7 16 L 500.9 16 C 500.9 16 500.91 14.34 500.9 14.3 C 500.4 15 499.9 15.5 499.3 15.8 C 498.6 16.1 498 16.3 497.3 16.3 C 496 16.3 494.9 15.7 494 14.7 C 493 13.6 492.6 12.2 492.6 10.3 C 492.6 8.3 493 6.9 493.9 5.9 C 494.8 4.9 496 4.4 497.4 4.4 C 498.7 4.4 499.8 4.9 500.7 5.9 C 500.7 5.94 500.7 0.3 500.7 0.3 L 503.7 0.3 L 503.7 16 Z M 495.7 10.1 C 495.7 11.3 495.8 12.2 496.2 12.7 C 496.6 13.5 497.3 13.9 498.2 13.9 C 498.9 13.9 499.5 13.6 500 13 C 500.5 12.4 500.7 11.5 500.7 10.4 C 500.7 9 500.5 8.1 500 7.5 C 499.5 6.9 498.9 6.7 498.2 6.7 C 497.5 6.7 496.9 6.9 496.4 7.5 C 495.9 8.1 495.7 8.9 495.7 10.1 Z M 513.3 12.4 C 513.3 12.4 516.3 12.9 516.3 12.9 C 515.9 14 515.3 14.8 514.5 15.4 C 513.6 16 512.6 16.3 511.3 16.3 C 509.4 16.3 507.9 15.6 506.9 14.3 C 506.2 13.3 505.8 12 505.8 10.4 C 505.8 8.5 506.3 7 507.3 6 C 508.3 4.9 509.5 4.4 511 4.4 C 512.7 4.4 514.1 4.9 515.1 6 C 516 7.2 516.5 8.9 516.5 11.2 C 516.5 11.2 508.9 11.2 508.9 11.2 C 508.9 12.1 509.2 12.8 509.6 13.3 C 510.1 13.8 510.7 14 511.4 14 C 511.8 14 512.2 13.9 512.6 13.6 C 512.9 13.4 513.1 13 513.3 12.4 Z M 513.5 9.3 C 513.4 8.5 513.2 7.8 512.8 7.3 C 512.4 6.9 511.8 6.7 511.2 6.7 C 510.6 6.7 510 6.9 509.6 7.4 C 509.2 7.9 508.9 8.5 509 9.3 C 509 9.3 513.5 9.3 513.5 9.3 Z M 527.3 8.1 C 527.3 8.1 524.6 7.6 524.6 7.6 C 524.9 6.5 525.4 5.7 526.1 5.1 C 526.9 4.6 528 4.4 529.5 4.4 C 530.8 4.4 531.8 4.5 532.5 4.8 C 533.2 5.1 533.6 5.6 533.9 6 C 534.2 6.5 534.3 7.4 534.3 8.7 C 534.3 8.7 534.3 12.3 534.3 12.3 C 534.3 13.3 534.3 14 534.4 14.5 C 534.5 15 534.7 15.5 535 16 C 535 16 532 16 532 16 C 531.9 15.8 531.8 15.5 531.7 15.1 C 531.6 14.9 531.6 14.8 531.6 14.8 C 531.1 15.3 530.5 15.6 529.9 15.9 C 529.3 16.1 528.7 16.3 528 16.3 C 526.9 16.3 525.9 16 525.3 15.3 C 524.6 14.7 524.2 13.9 524.2 12.9 C 524.2 12.3 524.4 11.7 524.7 11.2 C 525 10.7 525.4 10.3 526 10 C 526.6 9.7 527.4 9.5 528.4 9.3 C 529.8 9 530.8 8.8 531.3 8.6 C 531.3 8.6 531.3 8.3 531.3 8.3 C 531.3 7.7 531.2 7.3 530.9 7 C 530.6 6.8 530.1 6.7 529.3 6.7 C 528.7 6.7 528.3 6.8 528 7 C 527.7 7.2 527.5 7.6 527.3 8.1 Z M 531.3 10.5 C 530.9 10.7 530.3 10.8 529.5 11 C 528.7 11.2 528.1 11.4 527.9 11.5 C 527.5 11.8 527.3 12.2 527.3 12.6 C 527.3 13 527.4 13.4 527.7 13.7 C 528 14 528.4 14.1 528.9 14.1 C 529.5 14.1 530 14 530.5 13.6 C 530.9 13.3 531.1 13 531.2 12.6 C 531.3 12.4 531.3 11.9 531.3 11.1 C 531.3 11.1 531.3 10.5 531.3 10.5 Z M 540.2 16 L 537.1 16 L 537.1 4.6 L 539.9 4.6 C 539.9 4.6 539.95 6.23 539.9 6.2 C 540.4 5.5 540.9 5 541.2 4.7 C 541.6 4.5 542.1 4.4 542.5 4.4 C 543.2 4.4 543.9 4.5 544.5 4.9 C 544.5 4.9 543.6 7.6 543.6 7.6 C 543.1 7.2 542.6 7.1 542.2 7.1 C 541.8 7.1 541.4 7.2 541.1 7.4 C 540.8 7.6 540.6 8.1 540.4 8.7 C 540.2 9.3 540.2 10.6 540.2 12.5 C 540.16 12.49 540.2 16 540.2 16 Z M 552.4 12.4 C 552.4 12.4 555.4 12.9 555.4 12.9 C 555.1 14 554.5 14.8 553.6 15.4 C 552.8 16 551.7 16.3 550.5 16.3 C 548.5 16.3 547 15.6 546.1 14.3 C 545.3 13.3 545 12 545 10.4 C 545 8.5 545.4 7 546.4 6 C 547.4 4.9 548.7 4.4 550.2 4.4 C 551.9 4.4 553.2 4.9 554.2 6 C 555.2 7.2 555.7 8.9 555.6 11.2 C 555.6 11.2 548 11.2 548 11.2 C 548.1 12.1 548.3 12.8 548.8 13.3 C 549.2 13.8 549.8 14 550.5 14 C 551 14 551.4 13.9 551.7 13.6 C 552 13.4 552.3 13 552.4 12.4 Z M 552.6 9.3 C 552.6 8.5 552.4 7.8 551.9 7.3 C 551.5 6.9 551 6.7 550.4 6.7 C 549.7 6.7 549.2 6.9 548.7 7.4 C 548.3 7.9 548.1 8.5 548.1 9.3 C 548.1 9.3 552.6 9.3 552.6 9.3 Z M 563.5 10.2 C 563.5 9.1 563.7 8.2 564.2 7.2 C 564.7 6.3 565.4 5.6 566.3 5.1 C 567.2 4.6 568.2 4.4 569.4 4.4 C 571.1 4.4 572.5 4.9 573.6 6 C 574.7 7.2 575.3 8.6 575.3 10.3 C 575.3 12 574.7 13.4 573.6 14.6 C 572.5 15.7 571.1 16.3 569.4 16.3 C 568.3 16.3 567.3 16 566.4 15.6 C 565.4 15.1 564.7 14.4 564.2 13.5 C 563.7 12.6 563.5 11.5 563.5 10.2 Z M 566.6 10.3 C 566.6 11.4 566.8 12.3 567.4 12.9 C 567.9 13.5 568.6 13.8 569.4 13.8 C 570.2 13.8 570.8 13.5 571.4 12.9 C 571.9 12.3 572.2 11.4 572.2 10.3 C 572.2 9.2 571.9 8.3 571.4 7.7 C 570.8 7.1 570.2 6.8 569.4 6.8 C 568.6 6.8 567.9 7.1 567.4 7.7 C 566.8 8.3 566.6 9.2 566.6 10.3 Z M 588 16 L 585 16 C 585 16 584.98 10.19 585 10.2 C 585 9 584.9 8.2 584.8 7.8 C 584.7 7.4 584.4 7.2 584.2 7 C 583.9 6.8 583.5 6.7 583.1 6.7 C 582.6 6.7 582.1 6.8 581.7 7.1 C 581.3 7.4 581 7.8 580.8 8.2 C 580.7 8.7 580.6 9.6 580.6 10.8 C 580.62 10.85 580.6 16 580.6 16 L 577.6 16 L 577.6 4.6 L 580.4 4.6 C 580.4 4.6 580.4 6.28 580.4 6.3 C 581.4 5 582.7 4.4 584.2 4.4 C 584.8 4.4 585.4 4.5 586 4.7 C 586.5 5 587 5.3 587.2 5.6 C 587.5 6 587.7 6.4 587.8 6.9 C 587.9 7.4 588 8 588 8.9 C 588 8.93 588 16 588 16 Z M 591.1 16 L 591.1 0.3 L 594.1 0.3 L 594.1 16 L 591.1 16 Z M 595.7 4.6 L 599 4.6 L 601.7 12.7 L 604.3 4.6 L 607.5 4.6 L 603.4 15.6 C 603.4 15.6 602.72 17.57 602.7 17.6 C 602.5 18.2 602.2 18.7 602 19.1 C 601.7 19.5 601.5 19.7 601.1 20 C 600.8 20.2 600.4 20.3 600 20.5 C 599.5 20.6 599 20.6 598.4 20.6 C 597.9 20.6 597.3 20.6 596.7 20.5 C 596.7 20.5 596.5 18.1 596.5 18.1 C 596.9 18.2 597.4 18.2 597.8 18.2 C 598.5 18.2 599 18 599.3 17.6 C 599.6 17.2 599.9 16.7 600.1 16 C 600.08 16.05 595.7 4.6 595.7 4.6 Z M 614.5 12.8 C 614.5 12.8 617.5 12.3 617.5 12.3 C 617.6 12.9 617.9 13.3 618.3 13.6 C 618.7 13.9 619.2 14.1 619.9 14.1 C 620.7 14.1 621.3 14 621.7 13.7 C 621.9 13.5 622.1 13.2 622.1 12.9 C 622.1 12.6 622 12.4 621.9 12.3 C 621.7 12.1 621.4 12 620.9 11.9 C 618.4 11.4 616.9 10.9 616.2 10.4 C 615.3 9.8 614.9 8.9 614.9 7.9 C 614.9 6.9 615.3 6 616 5.4 C 616.8 4.7 618 4.4 619.7 4.4 C 621.2 4.4 622.4 4.6 623.2 5.1 C 623.9 5.6 624.4 6.4 624.7 7.4 C 624.7 7.4 621.9 7.9 621.9 7.9 C 621.8 7.5 621.5 7.1 621.2 6.9 C 620.8 6.6 620.4 6.5 619.7 6.5 C 618.9 6.5 618.4 6.6 618 6.9 C 617.8 7 617.7 7.2 617.7 7.5 C 617.7 7.7 617.8 7.9 618 8 C 618.3 8.2 619.2 8.5 620.8 8.9 C 622.4 9.2 623.5 9.7 624.2 10.2 C 624.8 10.7 625.1 11.5 625.1 12.5 C 625.1 13.5 624.7 14.4 623.8 15.1 C 622.9 15.9 621.6 16.3 619.9 16.3 C 618.4 16.3 617.1 16 616.2 15.3 C 615.3 14.7 614.7 13.8 614.5 12.8 Z M 635.3 16 C 635.3 16 635.26 14.31 635.3 14.3 C 634.8 14.9 634.3 15.4 633.6 15.7 C 632.9 16.1 632.2 16.3 631.5 16.3 C 630.7 16.3 630 16.1 629.4 15.8 C 628.8 15.4 628.4 15 628.1 14.4 C 627.8 13.7 627.7 12.9 627.7 11.8 C 627.69 11.83 627.7 4.6 627.7 4.6 L 630.7 4.6 C 630.7 4.6 630.71 9.85 630.7 9.9 C 630.7 11.5 630.8 12.4 630.9 12.8 C 631 13.2 631.2 13.4 631.5 13.7 C 631.8 13.9 632.1 14 632.6 14 C 633.1 14 633.6 13.8 634 13.6 C 634.4 13.3 634.7 12.9 634.8 12.5 C 635 12.1 635 11.1 635 9.4 C 635.05 9.42 635 4.6 635 4.6 L 638.1 4.6 L 638.1 16 L 635.3 16 Z M 640.9 17.1 C 640.9 17 640.9 16.9 640.9 16.8 C 640.9 16.8 644.4 17.2 644.4 17.2 C 644.4 17.6 644.6 17.9 644.8 18 C 645 18.2 645.5 18.3 646.1 18.3 C 646.9 18.3 647.5 18.2 647.9 18 C 648.2 17.8 648.4 17.6 648.5 17.2 C 648.6 17 648.6 16.5 648.6 15.8 C 648.6 15.8 648.6 14.2 648.6 14.2 C 647.7 15.4 646.6 16 645.2 16 C 643.7 16 642.5 15.4 641.6 14.1 C 640.9 13 640.5 11.8 640.5 10.2 C 640.5 8.3 641 6.9 641.9 5.9 C 642.8 4.9 644 4.4 645.3 4.4 C 646.7 4.4 647.9 5 648.8 6.2 C 648.82 6.21 648.8 4.6 648.8 4.6 L 651.6 4.6 C 651.6 4.6 651.64 14.85 651.6 14.8 C 651.6 16.2 651.5 17.2 651.3 17.9 C 651.1 18.5 650.8 19.1 650.4 19.4 C 650 19.8 649.4 20.1 648.8 20.3 C 648.1 20.5 647.3 20.6 646.2 20.6 C 644.3 20.6 642.9 20.3 642.1 19.7 C 641.3 19 640.9 18.2 640.9 17.1 C 640.9 17.1 640.9 17.1 640.9 17.1 Z M 643.6 10.1 C 643.6 11.3 643.8 12.2 644.3 12.7 C 644.8 13.3 645.4 13.6 646 13.6 C 646.8 13.6 647.4 13.3 647.9 12.7 C 648.4 12.1 648.7 11.3 648.7 10.2 C 648.7 9 648.4 8.1 647.9 7.5 C 647.5 6.9 646.8 6.7 646.1 6.7 C 645.4 6.7 644.8 6.9 644.3 7.5 C 643.8 8.1 643.6 8.9 643.6 10.1 Z M 654.3 17.1 C 654.3 17 654.3 16.9 654.4 16.8 C 654.4 16.8 657.8 17.2 657.8 17.2 C 657.9 17.6 658 17.9 658.2 18 C 658.5 18.2 658.9 18.3 659.6 18.3 C 660.3 18.3 660.9 18.2 661.3 18 C 661.6 17.8 661.8 17.6 661.9 17.2 C 662 17 662.1 16.5 662.1 15.8 C 662.1 15.8 662.1 14.2 662.1 14.2 C 661.2 15.4 660 16 658.6 16 C 657.1 16 655.9 15.4 655 14.1 C 654.3 13 654 11.8 654 10.2 C 654 8.3 654.4 6.9 655.3 5.9 C 656.3 4.9 657.4 4.4 658.8 4.4 C 660.2 4.4 661.3 5 662.3 6.2 C 662.26 6.21 662.3 4.6 662.3 4.6 L 665.1 4.6 C 665.1 4.6 665.08 14.85 665.1 14.8 C 665.1 16.2 665 17.2 664.8 17.9 C 664.5 18.5 664.2 19.1 663.8 19.4 C 663.4 19.8 662.9 20.1 662.2 20.3 C 661.5 20.5 660.7 20.6 659.7 20.6 C 657.7 20.6 656.4 20.3 655.6 19.7 C 654.7 19 654.3 18.2 654.3 17.1 C 654.3 17.1 654.3 17.1 654.3 17.1 Z M 657 10.1 C 657 11.3 657.3 12.2 657.8 12.7 C 658.2 13.3 658.8 13.6 659.5 13.6 C 660.2 13.6 660.8 13.3 661.4 12.7 C 661.9 12.1 662.1 11.3 662.1 10.2 C 662.1 9 661.9 8.1 661.4 7.5 C 660.9 6.9 660.3 6.7 659.5 6.7 C 658.8 6.7 658.2 6.9 657.8 7.5 C 657.3 8.1 657 8.9 657 10.1 Z M 674.7 12.4 C 674.7 12.4 677.7 12.9 677.7 12.9 C 677.3 14 676.7 14.8 675.9 15.4 C 675 16 674 16.3 672.7 16.3 C 670.7 16.3 669.3 15.6 668.3 14.3 C 667.6 13.3 667.2 12 667.2 10.4 C 667.2 8.5 667.7 7 668.7 6 C 669.7 4.9 670.9 4.4 672.4 4.4 C 674.1 4.4 675.5 4.9 676.4 6 C 677.4 7.2 677.9 8.9 677.8 11.2 C 677.8 11.2 670.3 11.2 670.3 11.2 C 670.3 12.1 670.5 12.8 671 13.3 C 671.5 13.8 672.1 14 672.8 14 C 673.2 14 673.6 13.9 673.9 13.6 C 674.3 13.4 674.5 13 674.7 12.4 Z M 674.8 9.3 C 674.8 8.5 674.6 7.8 674.2 7.3 C 673.7 6.9 673.2 6.7 672.6 6.7 C 671.9 6.7 671.4 6.9 671 7.4 C 670.5 7.9 670.3 8.5 670.3 9.3 C 670.3 9.3 674.8 9.3 674.8 9.3 Z M 679.2 12.8 C 679.2 12.8 682.3 12.3 682.3 12.3 C 682.4 12.9 682.7 13.3 683.1 13.6 C 683.4 13.9 684 14.1 684.7 14.1 C 685.5 14.1 686.1 14 686.5 13.7 C 686.7 13.5 686.9 13.2 686.9 12.9 C 686.9 12.6 686.8 12.4 686.7 12.3 C 686.5 12.1 686.2 12 685.6 11.9 C 683.2 11.4 681.7 10.9 681 10.4 C 680.1 9.8 679.7 8.9 679.7 7.9 C 679.7 6.9 680.1 6 680.8 5.4 C 681.6 4.7 682.8 4.4 684.5 4.4 C 686 4.4 687.2 4.6 687.9 5.1 C 688.7 5.6 689.2 6.4 689.5 7.4 C 689.5 7.4 686.7 7.9 686.7 7.9 C 686.5 7.5 686.3 7.1 686 6.9 C 685.6 6.6 685.1 6.5 684.5 6.5 C 683.7 6.5 683.2 6.6 682.8 6.9 C 682.6 7 682.5 7.2 682.5 7.5 C 682.5 7.7 682.6 7.9 682.8 8 C 683 8.2 684 8.5 685.6 8.9 C 687.2 9.2 688.3 9.7 689 10.2 C 689.6 10.7 689.9 11.5 689.9 12.5 C 689.9 13.5 689.5 14.4 688.6 15.1 C 687.7 15.9 686.4 16.3 684.7 16.3 C 683.2 16.3 681.9 16 681 15.3 C 680.1 14.7 679.5 13.8 679.2 12.8 Z M 697.8 4.6 L 697.8 7 L 695.7 7 C 695.7 7 695.71 11.61 695.7 11.6 C 695.7 12.5 695.7 13.1 695.8 13.2 C 695.8 13.4 695.9 13.5 696 13.6 C 696.2 13.7 696.3 13.8 696.5 13.8 C 696.8 13.8 697.2 13.7 697.8 13.5 C 697.8 13.5 698 15.8 698 15.8 C 697.3 16.1 696.5 16.3 695.6 16.3 C 695.1 16.3 694.6 16.2 694.2 16 C 693.7 15.8 693.4 15.6 693.2 15.3 C 693 15 692.9 14.6 692.8 14.1 C 692.7 13.8 692.7 13.1 692.7 12 C 692.68 11.99 692.7 7 692.7 7 L 691.3 7 L 691.3 4.6 L 692.7 4.6 L 692.7 2.3 L 695.7 0.6 L 695.7 4.6 L 697.8 4.6 Z M 706.5 12.4 C 706.5 12.4 709.5 12.9 709.5 12.9 C 709.1 14 708.5 14.8 707.6 15.4 C 706.8 16 705.8 16.3 704.5 16.3 C 702.5 16.3 701.1 15.6 700.1 14.3 C 699.4 13.3 699 12 699 10.4 C 699 8.5 699.5 7 700.5 6 C 701.5 4.9 702.7 4.4 704.2 4.4 C 705.9 4.4 707.3 4.9 708.2 6 C 709.2 7.2 709.7 8.9 709.6 11.2 C 709.6 11.2 702.1 11.2 702.1 11.2 C 702.1 12.1 702.3 12.8 702.8 13.3 C 703.3 13.8 703.9 14 704.6 14 C 705 14 705.4 13.9 705.7 13.6 C 706.1 13.4 706.3 13 706.5 12.4 Z M 706.6 9.3 C 706.6 8.5 706.4 7.8 706 7.3 C 705.5 6.9 705 6.7 704.4 6.7 C 703.7 6.7 703.2 6.9 702.8 7.4 C 702.3 7.9 702.1 8.5 702.1 9.3 C 702.1 9.3 706.6 9.3 706.6 9.3 Z M 722.6 16 L 719.8 16 C 719.8 16 719.76 14.34 719.8 14.3 C 719.3 15 718.7 15.5 718.1 15.8 C 717.5 16.1 716.8 16.3 716.2 16.3 C 714.9 16.3 713.8 15.7 712.8 14.7 C 711.9 13.6 711.4 12.2 711.4 10.3 C 711.4 8.3 711.9 6.9 712.8 5.9 C 713.7 4.9 714.8 4.4 716.2 4.4 C 717.5 4.4 718.6 4.9 719.5 5.9 C 719.55 5.94 719.5 0.3 719.5 0.3 L 722.6 0.3 L 722.6 16 Z M 714.5 10.1 C 714.5 11.3 714.7 12.2 715 12.7 C 715.5 13.5 716.2 13.9 717.1 13.9 C 717.7 13.9 718.3 13.6 718.8 13 C 719.3 12.4 719.6 11.5 719.6 10.4 C 719.6 9 719.3 8.1 718.8 7.5 C 718.4 6.9 717.8 6.7 717 6.7 C 716.3 6.7 715.7 6.9 715.2 7.5 C 714.7 8.1 714.5 8.9 714.5 10.1 Z M 725.5 13 L 728.5 13 C 728.5 13 728.48 15.16 728.5 15.2 C 728.5 16 728.4 16.7 728.3 17.2 C 728.1 17.7 727.8 18.2 727.4 18.6 C 727 19 726.5 19.3 725.8 19.5 C 725.8 19.5 725.2 18.3 725.2 18.3 C 725.8 18.1 726.3 17.8 726.5 17.5 C 726.8 17.1 726.9 16.6 726.9 16 C 726.93 16.02 725.5 16 725.5 16 L 725.5 13 Z M 740 8.1 C 740 8.1 737.3 7.6 737.3 7.6 C 737.6 6.5 738.1 5.7 738.9 5.1 C 739.6 4.6 740.7 4.4 742.2 4.4 C 743.6 4.4 744.6 4.5 745.2 4.8 C 745.9 5.1 746.4 5.6 746.6 6 C 746.9 6.5 747 7.4 747 8.7 C 747 8.7 747 12.3 747 12.3 C 747 13.3 747 14 747.1 14.5 C 747.2 15 747.4 15.5 747.7 16 C 747.7 16 744.7 16 744.7 16 C 744.6 15.8 744.5 15.5 744.4 15.1 C 744.4 14.9 744.3 14.8 744.3 14.8 C 743.8 15.3 743.2 15.6 742.6 15.9 C 742.1 16.1 741.4 16.3 740.8 16.3 C 739.6 16.3 738.7 16 738 15.3 C 737.3 14.7 737 13.9 737 12.9 C 737 12.3 737.1 11.7 737.4 11.2 C 737.7 10.7 738.2 10.3 738.7 10 C 739.3 9.7 740.1 9.5 741.1 9.3 C 742.5 9 743.5 8.8 744.1 8.6 C 744.1 8.6 744.1 8.3 744.1 8.3 C 744.1 7.7 743.9 7.3 743.6 7 C 743.3 6.8 742.8 6.7 742 6.7 C 741.5 6.7 741.1 6.8 740.8 7 C 740.5 7.2 740.2 7.6 740 8.1 Z M 744.1 10.5 C 743.7 10.7 743.1 10.8 742.2 11 C 741.4 11.2 740.8 11.4 740.6 11.5 C 740.2 11.8 740 12.2 740 12.6 C 740 13 740.1 13.4 740.5 13.7 C 740.8 14 741.2 14.1 741.7 14.1 C 742.2 14.1 742.7 14 743.2 13.6 C 743.6 13.3 743.8 13 743.9 12.6 C 744 12.4 744.1 11.9 744.1 11.1 C 744.1 11.1 744.1 10.5 744.1 10.5 Z M 760.4 16 L 757.4 16 C 757.4 16 757.36 10.19 757.4 10.2 C 757.4 9 757.3 8.2 757.2 7.8 C 757 7.4 756.8 7.2 756.5 7 C 756.2 6.8 755.9 6.7 755.5 6.7 C 755 6.7 754.5 6.8 754.1 7.1 C 753.7 7.4 753.4 7.8 753.2 8.2 C 753.1 8.7 753 9.6 753 10.8 C 753 10.85 753 16 753 16 L 750 16 L 750 4.6 L 752.8 4.6 C 752.8 4.6 752.78 6.28 752.8 6.3 C 753.8 5 755 4.4 756.5 4.4 C 757.2 4.4 757.8 4.5 758.4 4.7 C 758.9 5 759.3 5.3 759.6 5.6 C 759.9 6 760.1 6.4 760.2 6.9 C 760.3 7.4 760.4 8 760.4 8.9 C 760.38 8.93 760.4 16 760.4 16 Z M 773.9 16 L 771.1 16 C 771.1 16 771.1 14.34 771.1 14.3 C 770.6 15 770.1 15.5 769.4 15.8 C 768.8 16.1 768.2 16.3 767.5 16.3 C 766.2 16.3 765.1 15.7 764.2 14.7 C 763.2 13.6 762.8 12.2 762.8 10.3 C 762.8 8.3 763.2 6.9 764.1 5.9 C 765 4.9 766.2 4.4 767.6 4.4 C 768.8 4.4 770 4.9 770.9 5.9 C 770.88 5.94 770.9 0.3 770.9 0.3 L 773.9 0.3 L 773.9 16 Z M 765.8 10.1 C 765.8 11.3 766 12.2 766.3 12.7 C 766.8 13.5 767.5 13.9 768.4 13.9 C 769.1 13.9 769.7 13.6 770.2 13 C 770.7 12.4 770.9 11.5 770.9 10.4 C 770.9 9 770.7 8.1 770.2 7.5 C 769.7 6.9 769.1 6.7 768.4 6.7 C 767.7 6.7 767.1 6.9 766.6 7.5 C 766.1 8.1 765.8 8.9 765.8 10.1 Z M 785.2 8.1 C 785.2 8.1 782.5 7.6 782.5 7.6 C 782.8 6.5 783.3 5.7 784.1 5.1 C 784.8 4.6 786 4.4 787.4 4.4 C 788.8 4.4 789.8 4.5 790.5 4.8 C 791.1 5.1 791.6 5.6 791.8 6 C 792.1 6.5 792.2 7.4 792.2 8.7 C 792.2 8.7 792.2 12.3 792.2 12.3 C 792.2 13.3 792.3 14 792.4 14.5 C 792.5 15 792.6 15.5 792.9 16 C 792.9 16 789.9 16 789.9 16 C 789.8 15.8 789.7 15.5 789.6 15.1 C 789.6 14.9 789.5 14.8 789.5 14.8 C 789 15.3 788.5 15.6 787.9 15.9 C 787.3 16.1 786.7 16.3 786 16.3 C 784.8 16.3 783.9 16 783.2 15.3 C 782.5 14.7 782.2 13.9 782.2 12.9 C 782.2 12.3 782.3 11.7 782.7 11.2 C 783 10.7 783.4 10.3 784 10 C 784.5 9.7 785.3 9.5 786.4 9.3 C 787.8 9 788.7 8.8 789.3 8.6 C 789.3 8.6 789.3 8.3 789.3 8.3 C 789.3 7.7 789.1 7.3 788.9 7 C 788.6 6.8 788 6.7 787.2 6.7 C 786.7 6.7 786.3 6.8 786 7 C 785.7 7.2 785.4 7.6 785.2 8.1 Z M 789.3 10.5 C 788.9 10.7 788.3 10.8 787.4 11 C 786.6 11.2 786.1 11.4 785.8 11.5 C 785.4 11.8 785.2 12.2 785.2 12.6 C 785.2 13 785.4 13.4 785.7 13.7 C 786 14 786.4 14.1 786.9 14.1 C 787.4 14.1 788 14 788.4 13.6 C 788.8 13.3 789.1 13 789.2 12.6 C 789.2 12.4 789.3 11.9 789.3 11.1 C 789.3 11.1 789.3 10.5 789.3 10.5 Z M 795.2 16 L 795.2 0.3 L 798.2 0.3 L 798.2 16 L 795.2 16 Z M 806.6 4.6 L 806.6 7 L 804.5 7 C 804.5 7 804.51 11.61 804.5 11.6 C 804.5 12.5 804.5 13.1 804.6 13.2 C 804.6 13.4 804.7 13.5 804.8 13.6 C 805 13.7 805.1 13.8 805.3 13.8 C 805.6 13.8 806 13.7 806.6 13.5 C 806.6 13.5 806.8 15.8 806.8 15.8 C 806.1 16.1 805.3 16.3 804.4 16.3 C 803.9 16.3 803.4 16.2 803 16 C 802.5 15.8 802.2 15.6 802 15.3 C 801.8 15 801.7 14.6 801.6 14.1 C 801.5 13.8 801.5 13.1 801.5 12 C 801.48 11.99 801.5 7 801.5 7 L 800.1 7 L 800.1 4.6 L 801.5 4.6 L 801.5 2.3 L 804.5 0.6 L 804.5 4.6 L 806.6 4.6 Z M 815.3 12.4 C 815.3 12.4 818.3 12.9 818.3 12.9 C 817.9 14 817.3 14.8 816.4 15.4 C 815.6 16 814.6 16.3 813.3 16.3 C 811.3 16.3 809.9 15.6 808.9 14.3 C 808.2 13.3 807.8 12 807.8 10.4 C 807.8 8.5 808.3 7 809.3 6 C 810.3 4.9 811.5 4.4 813 4.4 C 814.7 4.4 816.1 4.9 817 6 C 818 7.2 818.5 8.9 818.4 11.2 C 818.4 11.2 810.9 11.2 810.9 11.2 C 810.9 12.1 811.1 12.8 811.6 13.3 C 812.1 13.8 812.7 14 813.3 14 C 813.8 14 814.2 13.9 814.5 13.6 C 814.9 13.4 815.1 13 815.3 12.4 Z M 815.4 9.3 C 815.4 8.5 815.2 7.8 814.8 7.3 C 814.3 6.9 813.8 6.7 813.2 6.7 C 812.5 6.7 812 6.9 811.6 7.4 C 811.1 7.9 810.9 8.5 810.9 9.3 C 810.9 9.3 815.4 9.3 815.4 9.3 Z M 823.8 16 L 820.8 16 L 820.8 4.6 L 823.6 4.6 C 823.6 4.6 823.57 6.23 823.6 6.2 C 824.1 5.5 824.5 5 824.9 4.7 C 825.3 4.5 825.7 4.4 826.2 4.4 C 826.9 4.4 827.5 4.5 828.2 4.9 C 828.2 4.9 827.2 7.6 827.2 7.6 C 826.7 7.2 826.2 7.1 825.8 7.1 C 825.4 7.1 825 7.2 824.7 7.4 C 824.4 7.6 824.2 8.1 824 8.7 C 823.9 9.3 823.8 10.6 823.8 12.5 C 823.79 12.49 823.8 16 823.8 16 Z M 839.8 16 L 836.8 16 C 836.8 16 836.82 10.19 836.8 10.2 C 836.8 9 836.8 8.2 836.6 7.8 C 836.5 7.4 836.3 7.2 836 7 C 835.7 6.8 835.4 6.7 834.9 6.7 C 834.4 6.7 834 6.8 833.5 7.1 C 833.1 7.4 832.8 7.8 832.7 8.2 C 832.5 8.7 832.5 9.6 832.5 10.8 C 832.46 10.85 832.5 16 832.5 16 L 829.4 16 L 829.4 4.6 L 832.2 4.6 C 832.2 4.6 832.24 6.28 832.2 6.3 C 833.2 5 834.5 4.4 836 4.4 C 836.7 4.4 837.3 4.5 837.8 4.7 C 838.4 5 838.8 5.3 839.1 5.6 C 839.4 6 839.6 6.4 839.7 6.9 C 839.8 7.4 839.8 8 839.8 8.9 C 839.84 8.93 839.8 16 839.8 16 Z M 845.2 8.1 C 845.2 8.1 842.4 7.6 842.4 7.6 C 842.7 6.5 843.3 5.7 844 5.1 C 844.8 4.6 845.9 4.4 847.4 4.4 C 848.7 4.4 849.7 4.5 850.4 4.8 C 851 5.1 851.5 5.6 851.8 6 C 852 6.5 852.2 7.4 852.2 8.7 C 852.2 8.7 852.1 12.3 852.1 12.3 C 852.1 13.3 852.2 14 852.3 14.5 C 852.4 15 852.5 15.5 852.8 16 C 852.8 16 849.8 16 849.8 16 C 849.7 15.8 849.7 15.5 849.5 15.1 C 849.5 14.9 849.5 14.8 849.4 14.8 C 848.9 15.3 848.4 15.6 847.8 15.9 C 847.2 16.1 846.6 16.3 845.9 16.3 C 844.7 16.3 843.8 16 843.1 15.3 C 842.4 14.7 842.1 13.9 842.1 12.9 C 842.1 12.3 842.3 11.7 842.6 11.2 C 842.9 10.7 843.3 10.3 843.9 10 C 844.4 9.7 845.2 9.5 846.3 9.3 C 847.7 9 848.6 8.8 849.2 8.6 C 849.2 8.6 849.2 8.3 849.2 8.3 C 849.2 7.7 849.1 7.3 848.8 7 C 848.5 6.8 847.9 6.7 847.1 6.7 C 846.6 6.7 846.2 6.8 845.9 7 C 845.6 7.2 845.3 7.6 845.2 8.1 Z M 849.2 10.5 C 848.8 10.7 848.2 10.8 847.4 11 C 846.5 11.2 846 11.4 845.7 11.5 C 845.3 11.8 845.1 12.2 845.1 12.6 C 845.1 13 845.3 13.4 845.6 13.7 C 845.9 14 846.3 14.1 846.8 14.1 C 847.3 14.1 847.9 14 848.4 13.6 C 848.7 13.3 849 13 849.1 12.6 C 849.2 12.4 849.2 11.9 849.2 11.1 C 849.2 11.1 849.2 10.5 849.2 10.5 Z M 860.4 4.6 L 860.4 7 L 858.3 7 C 858.3 7 858.3 11.61 858.3 11.6 C 858.3 12.5 858.3 13.1 858.4 13.2 C 858.4 13.4 858.5 13.5 858.6 13.6 C 858.8 13.7 858.9 13.8 859.1 13.8 C 859.4 13.8 859.8 13.7 860.4 13.5 C 860.4 13.5 860.6 15.8 860.6 15.8 C 859.9 16.1 859.1 16.3 858.2 16.3 C 857.7 16.3 857.2 16.2 856.8 16 C 856.3 15.8 856 15.6 855.8 15.3 C 855.6 15 855.4 14.6 855.4 14.1 C 855.3 13.8 855.3 13.1 855.3 12 C 855.27 11.99 855.3 7 855.3 7 L 853.9 7 L 853.9 4.6 L 855.3 4.6 L 855.3 2.3 L 858.3 0.6 L 858.3 4.6 L 860.4 4.6 Z M 862.5 3.1 L 862.5 0.3 L 865.5 0.3 L 865.5 3.1 L 862.5 3.1 Z M 862.5 16 L 862.5 4.6 L 865.5 4.6 L 865.5 16 L 862.5 16 Z M 871.7 16 L 867.1 4.6 L 870.3 4.6 L 872.4 10.4 C 872.4 10.4 873.05 12.38 873.1 12.4 C 873.2 11.9 873.3 11.6 873.4 11.4 C 873.5 11.1 873.6 10.8 873.7 10.4 C 873.69 10.43 875.9 4.6 875.9 4.6 L 879 4.6 L 874.4 16 L 871.7 16 Z M 887.4 12.4 C 887.4 12.4 890.4 12.9 890.4 12.9 C 890 14 889.4 14.8 888.6 15.4 C 887.8 16 886.7 16.3 885.5 16.3 C 883.5 16.3 882 15.6 881.1 14.3 C 880.3 13.3 879.9 12 879.9 10.4 C 879.9 8.5 880.4 7 881.4 6 C 882.4 4.9 883.6 4.4 885.2 4.4 C 886.9 4.4 888.2 4.9 889.2 6 C 890.2 7.2 890.6 8.9 890.6 11.2 C 890.6 11.2 883 11.2 883 11.2 C 883 12.1 883.3 12.8 883.8 13.3 C 884.2 13.8 884.8 14 885.5 14 C 886 14 886.4 13.9 886.7 13.6 C 887 13.4 887.2 13 887.4 12.4 Z M 887.6 9.3 C 887.6 8.5 887.3 7.8 886.9 7.3 C 886.5 6.9 886 6.7 885.3 6.7 C 884.7 6.7 884.1 6.9 883.7 7.4 C 883.3 7.9 883.1 8.5 883.1 9.3 C 883.1 9.3 887.6 9.3 887.6 9.3 Z M 892 12.8 C 892 12.8 895 12.3 895 12.3 C 895.1 12.9 895.4 13.3 895.8 13.6 C 896.2 13.9 896.7 14.1 897.4 14.1 C 898.2 14.1 898.8 14 899.2 13.7 C 899.5 13.5 899.6 13.2 899.6 12.9 C 899.6 12.6 899.5 12.4 899.4 12.3 C 899.2 12.1 898.9 12 898.4 11.9 C 895.9 11.4 894.4 10.9 893.8 10.4 C 892.8 9.8 892.4 8.9 892.4 7.9 C 892.4 6.9 892.8 6 893.6 5.4 C 894.4 4.7 895.6 4.4 897.2 4.4 C 898.8 4.4 899.9 4.6 900.7 5.1 C 901.4 5.6 902 6.4 902.2 7.4 C 902.2 7.4 899.4 7.9 899.4 7.9 C 899.3 7.5 899 7.1 898.7 6.9 C 898.4 6.6 897.9 6.5 897.3 6.5 C 896.5 6.5 895.9 6.6 895.5 6.9 C 895.3 7 895.2 7.2 895.2 7.5 C 895.2 7.7 895.3 7.9 895.5 8 C 895.8 8.2 896.7 8.5 898.3 8.9 C 899.9 9.2 901.1 9.7 901.7 10.2 C 902.3 10.7 902.6 11.5 902.6 12.5 C 902.6 13.5 902.2 14.4 901.3 15.1 C 900.5 15.9 899.2 16.3 897.4 16.3 C 895.9 16.3 894.7 16 893.8 15.3 C 892.9 14.7 892.3 13.8 892 12.8 Z M 911.2 4.6 L 913.9 4.6 C 913.9 4.6 913.95 6.17 913.9 6.2 C 914.9 5 916.1 4.4 917.5 4.4 C 918.2 4.4 918.9 4.5 919.4 4.8 C 919.9 5.1 920.4 5.6 920.7 6.2 C 921.2 5.6 921.8 5.1 922.3 4.8 C 922.9 4.5 923.5 4.4 924.2 4.4 C 925 4.4 925.8 4.5 926.3 4.9 C 926.9 5.2 927.3 5.7 927.6 6.4 C 927.8 6.8 927.9 7.6 927.9 8.7 C 927.94 8.72 927.9 16 927.9 16 L 924.9 16 C 924.9 16 924.93 9.5 924.9 9.5 C 924.9 8.4 924.8 7.6 924.6 7.3 C 924.3 6.9 923.9 6.7 923.3 6.7 C 922.9 6.7 922.5 6.8 922.1 7 C 921.8 7.3 921.5 7.7 921.3 8.2 C 921.2 8.7 921.1 9.5 921.1 10.5 C 921.08 10.54 921.1 16 921.1 16 L 918.1 16 C 918.1 16 918.06 9.76 918.1 9.8 C 918.1 8.7 918 7.9 917.9 7.6 C 917.8 7.3 917.6 7.1 917.4 6.9 C 917.2 6.7 916.9 6.7 916.5 6.7 C 916 6.7 915.6 6.8 915.2 7 C 914.9 7.3 914.6 7.6 914.4 8.1 C 914.3 8.6 914.2 9.4 914.2 10.5 C 914.18 10.47 914.2 16 914.2 16 L 911.2 16 L 911.2 4.6 Z M 933.2 8.1 C 933.2 8.1 930.5 7.6 930.5 7.6 C 930.8 6.5 931.3 5.7 932.1 5.1 C 932.8 4.6 933.9 4.4 935.4 4.4 C 936.8 4.4 937.8 4.5 938.4 4.8 C 939.1 5.1 939.5 5.6 939.8 6 C 940.1 6.5 940.2 7.4 940.2 8.7 C 940.2 8.7 940.2 12.3 940.2 12.3 C 940.2 13.3 940.2 14 940.3 14.5 C 940.4 15 940.6 15.5 940.9 16 C 940.9 16 937.9 16 937.9 16 C 937.8 15.8 937.7 15.5 937.6 15.1 C 937.5 14.9 937.5 14.8 937.5 14.8 C 937 15.3 936.4 15.6 935.8 15.9 C 935.2 16.1 934.6 16.3 933.9 16.3 C 932.8 16.3 931.8 16 931.2 15.3 C 930.5 14.7 930.2 13.9 930.2 12.9 C 930.2 12.3 930.3 11.7 930.6 11.2 C 930.9 10.7 931.4 10.3 931.9 10 C 932.5 9.7 933.3 9.5 934.3 9.3 C 935.7 9 936.7 8.8 937.2 8.6 C 937.2 8.6 937.2 8.3 937.2 8.3 C 937.2 7.7 937.1 7.3 936.8 7 C 936.5 6.8 936 6.7 935.2 6.7 C 934.7 6.7 934.2 6.8 933.9 7 C 933.6 7.2 933.4 7.6 933.2 8.1 Z M 937.2 10.5 C 936.9 10.7 936.2 10.8 935.4 11 C 934.6 11.2 934 11.4 933.8 11.5 C 933.4 11.8 933.2 12.2 933.2 12.6 C 933.2 13 933.3 13.4 933.6 13.7 C 934 14 934.4 14.1 934.9 14.1 C 935.4 14.1 935.9 14 936.4 13.6 C 936.8 13.3 937 13 937.1 12.6 C 937.2 12.4 937.2 11.9 937.2 11.1 C 937.2 11.1 937.2 10.5 937.2 10.5 Z M 941.8 4.6 L 945 4.6 L 947.7 12.7 L 950.4 4.6 L 953.5 4.6 L 949.5 15.6 C 949.5 15.6 948.74 17.57 948.7 17.6 C 948.5 18.2 948.2 18.7 948 19.1 C 947.7 19.5 947.5 19.7 947.2 20 C 946.8 20.2 946.5 20.3 946 20.5 C 945.6 20.6 945 20.6 944.5 20.6 C 943.9 20.6 943.3 20.6 942.8 20.5 C 942.8 20.5 942.5 18.1 942.5 18.1 C 943 18.2 943.4 18.2 943.8 18.2 C 944.5 18.2 945 18 945.3 17.6 C 945.7 17.2 945.9 16.7 946.1 16 C 946.1 16.05 941.8 4.6 941.8 4.6 Z M 961.4 16 L 961.4 0.3 L 964.4 0.3 C 964.4 0.3 964.43 5.94 964.4 5.9 C 965.4 4.9 966.5 4.4 967.7 4.4 C 969.1 4.4 970.3 4.9 971.2 5.9 C 972.1 6.9 972.5 8.3 972.5 10.2 C 972.5 12.1 972.1 13.6 971.2 14.7 C 970.2 15.7 969.1 16.3 967.8 16.3 C 967.1 16.3 966.5 16.1 965.8 15.8 C 965.2 15.5 964.7 15 964.2 14.3 C 964.21 14.34 964.2 16 964.2 16 L 961.4 16 Z M 964.4 10.1 C 964.4 11.2 964.6 12.1 965 12.7 C 965.5 13.5 966.2 13.9 967 13.9 C 967.7 13.9 968.3 13.6 968.7 13 C 969.2 12.5 969.5 11.6 969.5 10.3 C 969.5 9 969.2 8.1 968.7 7.5 C 968.3 6.9 967.7 6.7 966.9 6.7 C 966.2 6.7 965.6 6.9 965.1 7.5 C 964.6 8.1 964.4 8.9 964.4 10.1 Z M 981.6 12.4 C 981.6 12.4 984.6 12.9 984.6 12.9 C 984.2 14 983.6 14.8 982.8 15.4 C 981.9 16 980.9 16.3 979.6 16.3 C 977.6 16.3 976.2 15.6 975.2 14.3 C 974.5 13.3 974.1 12 974.1 10.4 C 974.1 8.5 974.6 7 975.6 6 C 976.6 4.9 977.8 4.4 979.3 4.4 C 981 4.4 982.4 4.9 983.3 6 C 984.3 7.2 984.8 8.9 984.7 11.2 C 984.7 11.2 977.2 11.2 977.2 11.2 C 977.2 12.1 977.5 12.8 977.9 13.3 C 978.4 13.8 979 14 979.7 14 C 980.1 14 980.5 13.9 980.8 13.6 C 981.2 13.4 981.4 13 981.6 12.4 Z M 981.8 9.3 C 981.7 8.5 981.5 7.8 981.1 7.3 C 980.6 6.9 980.1 6.7 979.5 6.7 C 978.8 6.7 978.3 6.9 977.9 7.4 C 977.4 7.9 977.2 8.5 977.2 9.3 C 977.2 9.3 981.8 9.3 981.8 9.3 Z M 1000.8 16 C 1000.8 16 1000.83 14.31 1000.8 14.3 C 1000.4 14.9 999.9 15.4 999.2 15.7 C 998.5 16.1 997.8 16.3 997 16.3 C 996.3 16.3 995.6 16.1 995 15.8 C 994.4 15.4 993.9 15 993.7 14.4 C 993.4 13.7 993.3 12.9 993.3 11.8 C 993.26 11.83 993.3 4.6 993.3 4.6 L 996.3 4.6 C 996.3 4.6 996.28 9.85 996.3 9.9 C 996.3 11.5 996.3 12.4 996.4 12.8 C 996.6 13.2 996.8 13.4 997 13.7 C 997.3 13.9 997.7 14 998.2 14 C 998.7 14 999.1 13.8 999.6 13.6 C 1000 13.3 1000.2 12.9 1000.4 12.5 C 1000.5 12.1 1000.6 11.1 1000.6 9.4 C 1000.62 9.42 1000.6 4.6 1000.6 4.6 L 1003.6 4.6 L 1003.6 16 L 1000.8 16 Z M 1005.7 12.8 C 1005.7 12.8 1008.7 12.3 1008.7 12.3 C 1008.9 12.9 1009.1 13.3 1009.5 13.6 C 1009.9 13.9 1010.5 14.1 1011.2 14.1 C 1011.9 14.1 1012.5 14 1012.9 13.7 C 1013.2 13.5 1013.3 13.2 1013.3 12.9 C 1013.3 12.6 1013.3 12.4 1013.1 12.3 C 1013 12.1 1012.6 12 1012.1 11.9 C 1009.7 11.4 1008.1 10.9 1007.5 10.4 C 1006.6 9.8 1006.1 8.9 1006.1 7.9 C 1006.1 6.9 1006.5 6 1007.3 5.4 C 1008.1 4.7 1009.3 4.4 1010.9 4.4 C 1012.5 4.4 1013.6 4.6 1014.4 5.1 C 1015.2 5.6 1015.7 6.4 1016 7.4 C 1016 7.4 1013.1 7.9 1013.1 7.9 C 1013 7.5 1012.8 7.1 1012.4 6.9 C 1012.1 6.6 1011.6 6.5 1011 6.5 C 1010.2 6.5 1009.6 6.6 1009.3 6.9 C 1009 7 1008.9 7.2 1008.9 7.5 C 1008.9 7.7 1009 7.9 1009.2 8 C 1009.5 8.2 1010.4 8.5 1012 8.9 C 1013.6 9.2 1014.8 9.7 1015.4 10.2 C 1016 10.7 1016.4 11.5 1016.4 12.5 C 1016.4 13.5 1015.9 14.4 1015 15.1 C 1014.2 15.9 1012.9 16.3 1011.2 16.3 C 1009.6 16.3 1008.4 16 1007.5 15.3 C 1006.6 14.7 1006 13.8 1005.7 12.8 Z M 1025.6 12.4 C 1025.6 12.4 1028.6 12.9 1028.6 12.9 C 1028.2 14 1027.6 14.8 1026.8 15.4 C 1025.9 16 1024.9 16.3 1023.6 16.3 C 1021.7 16.3 1020.2 15.6 1019.2 14.3 C 1018.5 13.3 1018.1 12 1018.1 10.4 C 1018.1 8.5 1018.6 7 1019.6 6 C 1020.6 4.9 1021.8 4.4 1023.3 4.4 C 1025 4.4 1026.4 4.9 1027.4 6 C 1028.3 7.2 1028.8 8.9 1028.8 11.2 C 1028.8 11.2 1021.2 11.2 1021.2 11.2 C 1021.2 12.1 1021.5 12.8 1021.9 13.3 C 1022.4 13.8 1023 14 1023.7 14 C 1024.2 14 1024.5 13.9 1024.9 13.6 C 1025.2 13.4 1025.4 13 1025.6 12.4 Z M 1025.8 9.3 C 1025.8 8.5 1025.5 7.8 1025.1 7.3 C 1024.7 6.9 1024.1 6.7 1023.5 6.7 C 1022.9 6.7 1022.3 6.9 1021.9 7.4 C 1021.5 7.9 1021.3 8.5 1021.3 9.3 C 1021.3 9.3 1025.8 9.3 1025.8 9.3 Z M 1041.7 16 L 1038.9 16 C 1038.9 16 1038.89 14.34 1038.9 14.3 C 1038.4 15 1037.9 15.5 1037.2 15.8 C 1036.6 16.1 1036 16.3 1035.3 16.3 C 1034 16.3 1032.9 15.7 1032 14.7 C 1031 13.6 1030.6 12.2 1030.6 10.3 C 1030.6 8.3 1031 6.9 1031.9 5.9 C 1032.8 4.9 1034 4.4 1035.4 4.4 C 1036.6 4.4 1037.7 4.9 1038.7 5.9 C 1038.68 5.94 1038.7 0.3 1038.7 0.3 L 1041.7 0.3 L 1041.7 16 Z M 1033.6 10.1 C 1033.6 11.3 1033.8 12.2 1034.1 12.7 C 1034.6 13.5 1035.3 13.9 1036.2 13.9 C 1036.9 13.9 1037.5 13.6 1038 13 C 1038.4 12.4 1038.7 11.5 1038.7 10.4 C 1038.7 9 1038.4 8.1 1038 7.5 C 1037.5 6.9 1036.9 6.7 1036.2 6.7 C 1035.4 6.7 1034.8 6.9 1034.4 7.5 C 1033.9 8.1 1033.6 8.9 1033.6 10.1 Z M 1052.9 16 L 1049.3 4.6 L 1052.2 4.6 L 1054.4 12.1 L 1056.3 4.6 L 1059.2 4.6 L 1061.1 12.1 L 1063.3 4.6 L 1066.3 4.6 L 1062.6 16 L 1059.7 16 L 1057.8 8.7 L 1055.8 16 L 1052.9 16 Z M 1070.9 0.3 C 1070.9 0.3 1070.9 6.06 1070.9 6.1 C 1071.9 4.9 1073 4.4 1074.4 4.4 C 1075.1 4.4 1075.7 4.5 1076.3 4.7 C 1076.8 5 1077.3 5.3 1077.5 5.7 C 1077.8 6.1 1078 6.6 1078.1 7.1 C 1078.2 7.5 1078.3 8.3 1078.3 9.3 C 1078.27 9.32 1078.3 16 1078.3 16 L 1075.3 16 C 1075.3 16 1075.25 9.99 1075.3 10 C 1075.3 8.8 1075.2 8 1075.1 7.7 C 1075 7.4 1074.8 7.1 1074.5 6.9 C 1074.2 6.8 1073.8 6.7 1073.4 6.7 C 1072.9 6.7 1072.4 6.8 1072 7 C 1071.6 7.3 1071.4 7.6 1071.2 8.1 C 1071 8.6 1070.9 9.3 1070.9 10.3 C 1070.9 10.3 1070.9 16 1070.9 16 L 1067.9 16 L 1067.9 0.3 L 1070.9 0.3 Z M 1087.9 12.4 C 1087.9 12.4 1090.9 12.9 1090.9 12.9 C 1090.6 14 1089.9 14.8 1089.1 15.4 C 1088.3 16 1087.2 16.3 1086 16.3 C 1084 16.3 1082.5 15.6 1081.6 14.3 C 1080.8 13.3 1080.5 12 1080.5 10.4 C 1080.5 8.5 1080.9 7 1081.9 6 C 1082.9 4.9 1084.2 4.4 1085.7 4.4 C 1087.4 4.4 1088.7 4.9 1089.7 6 C 1090.7 7.2 1091.2 8.9 1091.1 11.2 C 1091.1 11.2 1083.5 11.2 1083.5 11.2 C 1083.6 12.1 1083.8 12.8 1084.3 13.3 C 1084.7 13.8 1085.3 14 1086 14 C 1086.5 14 1086.9 13.9 1087.2 13.6 C 1087.5 13.4 1087.8 13 1087.9 12.4 Z M 1088.1 9.3 C 1088.1 8.5 1087.9 7.8 1087.4 7.3 C 1087 6.9 1086.5 6.7 1085.9 6.7 C 1085.2 6.7 1084.7 6.9 1084.2 7.4 C 1083.8 7.9 1083.6 8.5 1083.6 9.3 C 1083.6 9.3 1088.1 9.3 1088.1 9.3 Z M 1096.5 16 L 1093.4 16 L 1093.4 4.6 L 1096.2 4.6 C 1096.2 4.6 1096.24 6.23 1096.2 6.2 C 1096.7 5.5 1097.2 5 1097.5 4.7 C 1097.9 4.5 1098.4 4.4 1098.8 4.4 C 1099.5 4.4 1100.2 4.5 1100.8 4.9 C 1100.8 4.9 1099.9 7.6 1099.9 7.6 C 1099.4 7.2 1098.9 7.1 1098.5 7.1 C 1098.1 7.1 1097.7 7.2 1097.4 7.4 C 1097.1 7.6 1096.9 8.1 1096.7 8.7 C 1096.5 9.3 1096.5 10.6 1096.5 12.5 C 1096.46 12.49 1096.5 16 1096.5 16 Z M 1108.7 12.4 C 1108.7 12.4 1111.7 12.9 1111.7 12.9 C 1111.4 14 1110.7 14.8 1109.9 15.4 C 1109.1 16 1108 16.3 1106.8 16.3 C 1104.8 16.3 1103.3 15.6 1102.4 14.3 C 1101.6 13.3 1101.2 12 1101.2 10.4 C 1101.2 8.5 1101.7 7 1102.7 6 C 1103.7 4.9 1105 4.4 1106.5 4.4 C 1108.2 4.4 1109.5 4.9 1110.5 6 C 1111.5 7.2 1111.9 8.9 1111.9 11.2 C 1111.9 11.2 1104.3 11.2 1104.3 11.2 C 1104.4 12.1 1104.6 12.8 1105.1 13.3 C 1105.5 13.8 1106.1 14 1106.8 14 C 1107.3 14 1107.7 13.9 1108 13.6 C 1108.3 13.4 1108.6 13 1108.7 12.4 Z M 1108.9 9.3 C 1108.9 8.5 1108.7 7.8 1108.2 7.3 C 1107.8 6.9 1107.3 6.7 1106.7 6.7 C 1106 6.7 1105.5 6.9 1105 7.4 C 1104.6 7.9 1104.4 8.5 1104.4 9.3 C 1104.4 9.3 1108.9 9.3 1108.9 9.3 Z M 1125.7 4.6 L 1125.7 7 L 1123.6 7 C 1123.6 7 1123.65 11.61 1123.6 11.6 C 1123.6 12.5 1123.7 13.1 1123.7 13.2 C 1123.7 13.4 1123.8 13.5 1124 13.6 C 1124.1 13.7 1124.3 13.8 1124.5 13.8 C 1124.8 13.8 1125.2 13.7 1125.7 13.5 C 1125.7 13.5 1126 15.8 1126 15.8 C 1125.3 16.1 1124.5 16.3 1123.6 16.3 C 1123 16.3 1122.5 16.2 1122.1 16 C 1121.7 15.8 1121.3 15.6 1121.1 15.3 C 1120.9 15 1120.8 14.6 1120.7 14.1 C 1120.6 13.8 1120.6 13.1 1120.6 12 C 1120.62 11.99 1120.6 7 1120.6 7 L 1119.2 7 L 1119.2 4.6 L 1120.6 4.6 L 1120.6 2.3 L 1123.6 0.6 L 1123.6 4.6 L 1125.7 4.6 Z M 1130.8 0.3 C 1130.8 0.3 1130.81 6.06 1130.8 6.1 C 1131.8 4.9 1132.9 4.4 1134.3 4.4 C 1135 4.4 1135.6 4.5 1136.2 4.7 C 1136.7 5 1137.2 5.3 1137.4 5.7 C 1137.7 6.1 1137.9 6.6 1138 7.1 C 1138.1 7.5 1138.2 8.3 1138.2 9.3 C 1138.18 9.32 1138.2 16 1138.2 16 L 1135.2 16 C 1135.2 16 1135.16 9.99 1135.2 10 C 1135.2 8.8 1135.1 8 1135 7.7 C 1134.9 7.4 1134.7 7.1 1134.4 6.9 C 1134.1 6.8 1133.7 6.7 1133.3 6.7 C 1132.8 6.7 1132.3 6.8 1131.9 7 C 1131.6 7.3 1131.3 7.6 1131.1 8.1 C 1130.9 8.6 1130.8 9.3 1130.8 10.3 C 1130.81 10.3 1130.8 16 1130.8 16 L 1127.8 16 L 1127.8 0.3 L 1130.8 0.3 Z M 1147.8 12.4 C 1147.8 12.4 1150.9 12.9 1150.9 12.9 C 1150.5 14 1149.9 14.8 1149 15.4 C 1148.2 16 1147.1 16.3 1145.9 16.3 C 1143.9 16.3 1142.4 15.6 1141.5 14.3 C 1140.7 13.3 1140.4 12 1140.4 10.4 C 1140.4 8.5 1140.9 7 1141.8 6 C 1142.8 4.9 1144.1 4.4 1145.6 4.4 C 1147.3 4.4 1148.6 4.9 1149.6 6 C 1150.6 7.2 1151.1 8.9 1151 11.2 C 1151 11.2 1143.5 11.2 1143.5 11.2 C 1143.5 12.1 1143.7 12.8 1144.2 13.3 C 1144.7 13.8 1145.2 14 1145.9 14 C 1146.4 14 1146.8 13.9 1147.1 13.6 C 1147.4 13.4 1147.7 13 1147.8 12.4 Z M 1148 9.3 C 1148 8.5 1147.8 7.8 1147.3 7.3 C 1146.9 6.9 1146.4 6.7 1145.8 6.7 C 1145.1 6.7 1144.6 6.9 1144.1 7.4 C 1143.7 7.9 1143.5 8.5 1143.5 9.3 C 1143.5 9.3 1148 9.3 1148 9.3 Z M 1152 4.6 L 1155.3 4.6 L 1158 12.7 L 1160.7 4.6 L 1163.8 4.6 L 1159.8 15.6 C 1159.8 15.6 1159.03 17.57 1159 17.6 C 1158.8 18.2 1158.5 18.7 1158.3 19.1 C 1158 19.5 1157.8 19.7 1157.4 20 C 1157.1 20.2 1156.8 20.3 1156.3 20.5 C 1155.8 20.6 1155.3 20.6 1154.8 20.6 C 1154.2 20.6 1153.6 20.6 1153 20.5 C 1153 20.5 1152.8 18.1 1152.8 18.1 C 1153.3 18.2 1153.7 18.2 1154.1 18.2 C 1154.8 18.2 1155.3 18 1155.6 17.6 C 1156 17.2 1156.2 16.7 1156.4 16 C 1156.39 16.05 1152 4.6 1152 4.6 Z M 1170.8 12.8 C 1170.8 12.8 1173.8 12.3 1173.8 12.3 C 1173.9 12.9 1174.2 13.3 1174.6 13.6 C 1175 13.9 1175.5 14.1 1176.2 14.1 C 1177 14.1 1177.6 14 1178 13.7 C 1178.3 13.5 1178.4 13.2 1178.4 12.9 C 1178.4 12.6 1178.3 12.4 1178.2 12.3 C 1178 12.1 1177.7 12 1177.2 11.9 C 1174.7 11.4 1173.2 10.9 1172.5 10.4 C 1171.6 9.8 1171.2 8.9 1171.2 7.9 C 1171.2 6.9 1171.6 6 1172.4 5.4 C 1173.1 4.7 1174.3 4.4 1176 4.4 C 1177.5 4.4 1178.7 4.6 1179.5 5.1 C 1180.2 5.6 1180.7 6.4 1181 7.4 C 1181 7.4 1178.2 7.9 1178.2 7.9 C 1178.1 7.5 1177.8 7.1 1177.5 6.9 C 1177.2 6.6 1176.7 6.5 1176 6.5 C 1175.2 6.5 1174.7 6.6 1174.3 6.9 C 1174.1 7 1174 7.2 1174 7.5 C 1174 7.7 1174.1 7.9 1174.3 8 C 1174.6 8.2 1175.5 8.5 1177.1 8.9 C 1178.7 9.2 1179.8 9.7 1180.5 10.2 C 1181.1 10.7 1181.4 11.5 1181.4 12.5 C 1181.4 13.5 1181 14.4 1180.1 15.1 C 1179.2 15.9 1177.9 16.3 1176.2 16.3 C 1174.7 16.3 1173.4 16 1172.5 15.3 C 1171.6 14.7 1171 13.8 1170.8 12.8 Z M 1191.6 16 C 1191.6 16 1191.57 14.31 1191.6 14.3 C 1191.2 14.9 1190.6 15.4 1189.9 15.7 C 1189.3 16.1 1188.5 16.3 1187.8 16.3 C 1187 16.3 1186.3 16.1 1185.7 15.8 C 1185.1 15.4 1184.7 15 1184.4 14.4 C 1184.1 13.7 1184 12.9 1184 11.8 C 1184 11.83 1184 4.6 1184 4.6 L 1187 4.6 C 1187 4.6 1187.01 9.85 1187 9.9 C 1187 11.5 1187.1 12.4 1187.2 12.8 C 1187.3 13.2 1187.5 13.4 1187.8 13.7 C 1188.1 13.9 1188.5 14 1188.9 14 C 1189.4 14 1189.9 13.8 1190.3 13.6 C 1190.7 13.3 1191 12.9 1191.1 12.5 C 1191.3 12.1 1191.4 11.1 1191.4 9.4 C 1191.35 9.42 1191.4 4.6 1191.4 4.6 L 1194.4 4.6 L 1194.4 16 L 1191.6 16 Z M 1197.4 4.6 L 1200.2 4.6 C 1200.2 4.6 1200.23 6.28 1200.2 6.3 C 1200.6 5.7 1201.1 5.2 1201.7 4.9 C 1202.3 4.5 1203 4.4 1203.8 4.4 C 1205.1 4.4 1206.2 4.9 1207.2 5.9 C 1208.1 6.9 1208.5 8.4 1208.5 10.2 C 1208.5 12.2 1208.1 13.6 1207.1 14.7 C 1206.2 15.7 1205.1 16.3 1203.8 16.3 C 1203.1 16.3 1202.6 16.1 1202 15.9 C 1201.5 15.6 1201 15.2 1200.4 14.6 C 1200.43 14.61 1200.4 20.4 1200.4 20.4 L 1197.4 20.4 L 1197.4 4.6 Z M 1200.4 10.1 C 1200.4 11.4 1200.7 12.3 1201.2 13 C 1201.7 13.6 1202.3 13.9 1203 13.9 C 1203.7 13.9 1204.3 13.6 1204.8 13 C 1205.2 12.5 1205.5 11.6 1205.5 10.3 C 1205.5 9.1 1205.2 8.2 1204.7 7.6 C 1204.3 7 1203.7 6.7 1203 6.7 C 1202.2 6.7 1201.6 7 1201.1 7.6 C 1200.6 8.2 1200.4 9 1200.4 10.1 Z M 1210.9 4.6 L 1213.7 4.6 C 1213.7 4.6 1213.67 6.28 1213.7 6.3 C 1214 5.7 1214.5 5.2 1215.1 4.9 C 1215.8 4.5 1216.5 4.4 1217.2 4.4 C 1218.5 4.4 1219.7 4.9 1220.6 5.9 C 1221.5 6.9 1222 8.4 1222 10.2 C 1222 12.2 1221.5 13.6 1220.6 14.7 C 1219.7 15.7 1218.5 16.3 1217.2 16.3 C 1216.6 16.3 1216 16.1 1215.5 15.9 C 1215 15.6 1214.4 15.2 1213.9 14.6 C 1213.87 14.61 1213.9 20.4 1213.9 20.4 L 1210.9 20.4 L 1210.9 4.6 Z M 1213.8 10.1 C 1213.8 11.4 1214.1 12.3 1214.6 13 C 1215.1 13.6 1215.7 13.9 1216.5 13.9 C 1217.2 13.9 1217.7 13.6 1218.2 13 C 1218.7 12.5 1218.9 11.6 1218.9 10.3 C 1218.9 9.1 1218.7 8.2 1218.2 7.6 C 1217.7 7 1217.1 6.7 1216.4 6.7 C 1215.7 6.7 1215.1 7 1214.6 7.6 C 1214.1 8.2 1213.8 9 1213.8 10.1 Z M 1223.7 10.2 C 1223.7 9.1 1223.9 8.2 1224.4 7.2 C 1224.9 6.3 1225.6 5.6 1226.5 5.1 C 1227.4 4.6 1228.4 4.4 1229.6 4.4 C 1231.3 4.4 1232.7 4.9 1233.8 6 C 1234.9 7.2 1235.5 8.6 1235.5 10.3 C 1235.5 12 1234.9 13.4 1233.8 14.6 C 1232.7 15.7 1231.3 16.3 1229.6 16.3 C 1228.5 16.3 1227.5 16 1226.6 15.6 C 1225.6 15.1 1224.9 14.4 1224.4 13.5 C 1223.9 12.6 1223.7 11.5 1223.7 10.2 Z M 1226.8 10.3 C 1226.8 11.4 1227 12.3 1227.6 12.9 C 1228.1 13.5 1228.8 13.8 1229.6 13.8 C 1230.4 13.8 1231 13.5 1231.5 12.9 C 1232.1 12.3 1232.3 11.4 1232.3 10.3 C 1232.3 9.2 1232.1 8.3 1231.5 7.7 C 1231 7.1 1230.4 6.8 1229.6 6.8 C 1228.8 6.8 1228.1 7.1 1227.6 7.7 C 1227 8.3 1226.8 9.2 1226.8 10.3 Z M 1240.7 16 L 1237.7 16 L 1237.7 4.6 L 1240.5 4.6 C 1240.5 4.6 1240.49 6.23 1240.5 6.2 C 1241 5.5 1241.4 5 1241.8 4.7 C 1242.2 4.5 1242.6 4.4 1243.1 4.4 C 1243.8 4.4 1244.4 4.5 1245.1 4.9 C 1245.1 4.9 1244.1 7.6 1244.1 7.6 C 1243.6 7.2 1243.2 7.1 1242.7 7.1 C 1242.3 7.1 1241.9 7.2 1241.6 7.4 C 1241.4 7.6 1241.1 8.1 1241 8.7 C 1240.8 9.3 1240.7 10.6 1240.7 12.5 C 1240.7 12.49 1240.7 16 1240.7 16 Z M 1251.6 4.6 L 1251.6 7 L 1249.5 7 C 1249.5 7 1249.54 11.61 1249.5 11.6 C 1249.5 12.5 1249.6 13.1 1249.6 13.2 C 1249.6 13.4 1249.7 13.5 1249.9 13.6 C 1250 13.7 1250.2 13.8 1250.4 13.8 C 1250.7 13.8 1251.1 13.7 1251.6 13.5 C 1251.6 13.5 1251.9 15.8 1251.9 15.8 C 1251.2 16.1 1250.4 16.3 1249.5 16.3 C 1248.9 16.3 1248.4 16.2 1248 16 C 1247.6 15.8 1247.2 15.6 1247 15.3 C 1246.8 15 1246.7 14.6 1246.6 14.1 C 1246.5 13.8 1246.5 13.1 1246.5 12 C 1246.52 11.99 1246.5 7 1246.5 7 L 1245.1 7 L 1245.1 4.6 L 1246.5 4.6 L 1246.5 2.3 L 1249.5 0.6 L 1249.5 4.6 L 1251.6 4.6 Z M 1265 4.6 L 1265 7 L 1263 7 C 1263 7 1262.98 11.61 1263 11.6 C 1263 12.5 1263 13.1 1263 13.2 C 1263.1 13.4 1263.2 13.5 1263.3 13.6 C 1263.5 13.7 1263.6 13.8 1263.8 13.8 C 1264.1 13.8 1264.5 13.7 1265 13.5 C 1265 13.5 1265.3 15.8 1265.3 15.8 C 1264.6 16.1 1263.8 16.3 1262.9 16.3 C 1262.4 16.3 1261.9 16.2 1261.4 16 C 1261 15.8 1260.7 15.6 1260.5 15.3 C 1260.3 15 1260.1 14.6 1260.1 14.1 C 1260 13.8 1260 13.1 1260 12 C 1259.95 11.99 1260 7 1260 7 L 1258.6 7 L 1258.6 4.6 L 1260 4.6 L 1260 2.3 L 1263 0.6 L 1263 4.6 L 1265 4.6 Z M 1270.1 0.3 C 1270.1 0.3 1270.15 6.06 1270.1 6.1 C 1271.1 4.9 1272.3 4.4 1273.6 4.4 C 1274.3 4.4 1275 4.5 1275.5 4.7 C 1276.1 5 1276.5 5.3 1276.8 5.7 C 1277.1 6.1 1277.3 6.6 1277.4 7.1 C 1277.5 7.5 1277.5 8.3 1277.5 9.3 C 1277.52 9.32 1277.5 16 1277.5 16 L 1274.5 16 C 1274.5 16 1274.5 9.99 1274.5 10 C 1274.5 8.8 1274.4 8 1274.3 7.7 C 1274.2 7.4 1274 7.1 1273.7 6.9 C 1273.4 6.8 1273.1 6.7 1272.6 6.7 C 1272.1 6.7 1271.7 6.8 1271.3 7 C 1270.9 7.3 1270.6 7.6 1270.4 8.1 C 1270.2 8.6 1270.1 9.3 1270.1 10.3 C 1270.15 10.3 1270.1 16 1270.1 16 L 1267.1 16 L 1267.1 0.3 L 1270.1 0.3 Z M 1287.2 12.4 C 1287.2 12.4 1290.2 12.9 1290.2 12.9 C 1289.8 14 1289.2 14.8 1288.4 15.4 C 1287.5 16 1286.5 16.3 1285.2 16.3 C 1283.2 16.3 1281.8 15.6 1280.8 14.3 C 1280.1 13.3 1279.7 12 1279.7 10.4 C 1279.7 8.5 1280.2 7 1281.2 6 C 1282.2 4.9 1283.4 4.4 1284.9 4.4 C 1286.6 4.4 1288 4.9 1288.9 6 C 1289.9 7.2 1290.4 8.9 1290.4 11.2 C 1290.4 11.2 1282.8 11.2 1282.8 11.2 C 1282.8 12.1 1283.1 12.8 1283.5 13.3 C 1284 13.8 1284.6 14 1285.3 14 C 1285.7 14 1286.1 13.9 1286.5 13.6 C 1286.8 13.4 1287 13 1287.2 12.4 Z M 1287.4 9.3 C 1287.3 8.5 1287.1 7.8 1286.7 7.3 C 1286.3 6.9 1285.7 6.7 1285.1 6.7 C 1284.5 6.7 1283.9 6.9 1283.5 7.4 C 1283 7.9 1282.8 8.5 1282.8 9.3 C 1282.8 9.3 1287.4 9.3 1287.4 9.3 Z M 1301.8 16 L 1298.8 16 L 1298.8 4.6 L 1301.6 4.6 C 1301.6 4.6 1301.6 6.23 1301.6 6.2 C 1302.1 5.5 1302.5 5 1302.9 4.7 C 1303.3 4.5 1303.7 4.4 1304.2 4.4 C 1304.9 4.4 1305.6 4.5 1306.2 4.9 C 1306.2 4.9 1305.3 7.6 1305.3 7.6 C 1304.7 7.2 1304.3 7.1 1303.8 7.1 C 1303.4 7.1 1303.1 7.2 1302.8 7.4 C 1302.5 7.6 1302.2 8.1 1302.1 8.7 C 1301.9 9.3 1301.8 10.6 1301.8 12.5 C 1301.82 12.49 1301.8 16 1301.8 16 Z M 1314.1 12.4 C 1314.1 12.4 1317.1 12.9 1317.1 12.9 C 1316.7 14 1316.1 14.8 1315.3 15.4 C 1314.4 16 1313.4 16.3 1312.1 16.3 C 1310.2 16.3 1308.7 15.6 1307.7 14.3 C 1307 13.3 1306.6 12 1306.6 10.4 C 1306.6 8.5 1307.1 7 1308.1 6 C 1309.1 4.9 1310.3 4.4 1311.8 4.4 C 1313.5 4.4 1314.9 4.9 1315.9 6 C 1316.8 7.2 1317.3 8.9 1317.3 11.2 C 1317.3 11.2 1309.7 11.2 1309.7 11.2 C 1309.7 12.1 1310 12.8 1310.4 13.3 C 1310.9 13.8 1311.5 14 1312.2 14 C 1312.6 14 1313 13.9 1313.4 13.6 C 1313.7 13.4 1313.9 13 1314.1 12.4 Z M 1314.3 9.3 C 1314.2 8.5 1314 7.8 1313.6 7.3 C 1313.2 6.9 1312.6 6.7 1312 6.7 C 1311.4 6.7 1310.8 6.9 1310.4 7.4 C 1310 7.9 1309.7 8.5 1309.8 9.3 C 1309.8 9.3 1314.3 9.3 1314.3 9.3 Z M 1327.2 20.4 C 1327.2 20.4 1327.18 14.62 1327.2 14.6 C 1326.8 15.1 1326.3 15.5 1325.7 15.8 C 1325.1 16.1 1324.5 16.3 1323.8 16.3 C 1322.5 16.3 1321.4 15.8 1320.6 14.8 C 1319.6 13.7 1319.1 12.1 1319.1 10.2 C 1319.1 8.4 1319.6 6.9 1320.5 5.9 C 1321.4 4.9 1322.6 4.4 1324 4.4 C 1324.7 4.4 1325.4 4.5 1325.9 4.8 C 1326.5 5.2 1327 5.6 1327.4 6.3 C 1327.41 6.29 1327.4 4.6 1327.4 4.6 L 1330.2 4.6 L 1330.2 20.4 L 1327.2 20.4 Z M 1327.3 10.2 C 1327.3 9 1327 8.1 1326.6 7.6 C 1326.1 7 1325.5 6.7 1324.8 6.7 C 1324 6.7 1323.4 7 1322.9 7.6 C 1322.4 8.2 1322.2 9.1 1322.2 10.3 C 1322.2 11.6 1322.4 12.5 1322.9 13.1 C 1323.4 13.6 1324 13.9 1324.7 13.9 C 1325.4 13.9 1326 13.6 1326.5 13 C 1327 12.3 1327.3 11.4 1327.3 10.2 Z M 1340.7 16 C 1340.7 16 1340.67 14.31 1340.7 14.3 C 1340.3 14.9 1339.7 15.4 1339 15.7 C 1338.4 16.1 1337.6 16.3 1336.9 16.3 C 1336.1 16.3 1335.4 16.1 1334.8 15.8 C 1334.2 15.4 1333.8 15 1333.5 14.4 C 1333.2 13.7 1333.1 12.9 1333.1 11.8 C 1333.1 11.83 1333.1 4.6 1333.1 4.6 L 1336.1 4.6 C 1336.1 4.6 1336.12 9.85 1336.1 9.9 C 1336.1 11.5 1336.2 12.4 1336.3 12.8 C 1336.4 13.2 1336.6 13.4 1336.9 13.7 C 1337.2 13.9 1337.6 14 1338 14 C 1338.5 14 1339 13.8 1339.4 13.6 C 1339.8 13.3 1340.1 12.9 1340.2 12.5 C 1340.4 12.1 1340.5 11.1 1340.5 9.4 C 1340.46 9.42 1340.5 4.6 1340.5 4.6 L 1343.5 4.6 L 1343.5 16 L 1340.7 16 Z M 1346.6 3.1 L 1346.6 0.3 L 1349.6 0.3 L 1349.6 3.1 L 1346.6 3.1 Z M 1346.6 16 L 1346.6 4.6 L 1349.6 4.6 L 1349.6 16 L 1346.6 16 Z M 1355.6 16 L 1352.6 16 L 1352.6 4.6 L 1355.4 4.6 C 1355.4 4.6 1355.39 6.23 1355.4 6.2 C 1355.9 5.5 1356.3 5 1356.7 4.7 C 1357.1 4.5 1357.5 4.4 1358 4.4 C 1358.7 4.4 1359.3 4.5 1360 4.9 C 1360 4.9 1359 7.6 1359 7.6 C 1358.5 7.2 1358.1 7.1 1357.6 7.1 C 1357.2 7.1 1356.8 7.2 1356.5 7.4 C 1356.3 7.6 1356 8.1 1355.9 8.7 C 1355.7 9.3 1355.6 10.6 1355.6 12.5 C 1355.6 12.49 1355.6 16 1355.6 16 Z M 1367.9 12.4 C 1367.9 12.4 1370.9 12.9 1370.9 12.9 C 1370.5 14 1369.9 14.8 1369.1 15.4 C 1368.2 16 1367.2 16.3 1365.9 16.3 C 1363.9 16.3 1362.5 15.6 1361.5 14.3 C 1360.8 13.3 1360.4 12 1360.4 10.4 C 1360.4 8.5 1360.9 7 1361.9 6 C 1362.9 4.9 1364.1 4.4 1365.6 4.4 C 1367.3 4.4 1368.7 4.9 1369.6 6 C 1370.6 7.2 1371.1 8.9 1371 11.2 C 1371 11.2 1363.5 11.2 1363.5 11.2 C 1363.5 12.1 1363.8 12.8 1364.2 13.3 C 1364.7 13.8 1365.3 14 1366 14 C 1366.4 14 1366.8 13.9 1367.1 13.6 C 1367.5 13.4 1367.7 13 1367.9 12.4 Z M 1368.1 9.3 C 1368 8.5 1367.8 7.8 1367.4 7.3 C 1366.9 6.9 1366.4 6.7 1365.8 6.7 C 1365.1 6.7 1364.6 6.9 1364.2 7.4 C 1363.7 7.9 1363.5 8.5 1363.5 9.3 C 1363.5 9.3 1368.1 9.3 1368.1 9.3 Z M 1373.3 4.6 L 1376.1 4.6 C 1376.1 4.6 1376.07 6.17 1376.1 6.2 C 1377.1 5 1378.2 4.4 1379.6 4.4 C 1380.4 4.4 1381 4.5 1381.5 4.8 C 1382.1 5.1 1382.5 5.6 1382.8 6.2 C 1383.3 5.6 1383.9 5.1 1384.5 4.8 C 1385 4.5 1385.7 4.4 1386.3 4.4 C 1387.2 4.4 1387.9 4.5 1388.5 4.9 C 1389 5.2 1389.5 5.7 1389.8 6.4 C 1390 6.8 1390.1 7.6 1390.1 8.7 C 1390.06 8.72 1390.1 16 1390.1 16 L 1387 16 C 1387 16 1387.04 9.5 1387 9.5 C 1387 8.4 1386.9 7.6 1386.7 7.3 C 1386.5 6.9 1386 6.7 1385.4 6.7 C 1385 6.7 1384.6 6.8 1384.3 7 C 1383.9 7.3 1383.6 7.7 1383.4 8.2 C 1383.3 8.7 1383.2 9.5 1383.2 10.5 C 1383.2 10.54 1383.2 16 1383.2 16 L 1380.2 16 C 1380.2 16 1380.18 9.76 1380.2 9.8 C 1380.2 8.7 1380.1 7.9 1380 7.6 C 1379.9 7.3 1379.7 7.1 1379.5 6.9 C 1379.3 6.7 1379 6.7 1378.6 6.7 C 1378.1 6.7 1377.7 6.8 1377.3 7 C 1377 7.3 1376.7 7.6 1376.5 8.1 C 1376.4 8.6 1376.3 9.4 1376.3 10.5 C 1376.3 10.47 1376.3 16 1376.3 16 L 1373.3 16 L 1373.3 4.6 Z M 1399.7 12.4 C 1399.7 12.4 1402.7 12.9 1402.7 12.9 C 1402.3 14 1401.7 14.8 1400.9 15.4 C 1400 16 1399 16.3 1397.7 16.3 C 1395.7 16.3 1394.3 15.6 1393.3 14.3 C 1392.6 13.3 1392.2 12 1392.2 10.4 C 1392.2 8.5 1392.7 7 1393.7 6 C 1394.7 4.9 1395.9 4.4 1397.4 4.4 C 1399.1 4.4 1400.5 4.9 1401.4 6 C 1402.4 7.2 1402.9 8.9 1402.8 11.2 C 1402.8 11.2 1395.3 11.2 1395.3 11.2 C 1395.3 12.1 1395.5 12.8 1396 13.3 C 1396.5 13.8 1397.1 14 1397.8 14 C 1398.2 14 1398.6 13.9 1398.9 13.6 C 1399.3 13.4 1399.5 13 1399.7 12.4 Z M 1399.8 9.3 C 1399.8 8.5 1399.6 7.8 1399.2 7.3 C 1398.7 6.9 1398.2 6.7 1397.6 6.7 C 1396.9 6.7 1396.4 6.9 1396 7.4 C 1395.5 7.9 1395.3 8.5 1395.3 9.3 C 1395.3 9.3 1399.8 9.3 1399.8 9.3 Z M 1415.7 16 L 1412.7 16 C 1412.7 16 1412.66 10.19 1412.7 10.2 C 1412.7 9 1412.6 8.2 1412.5 7.8 C 1412.3 7.4 1412.1 7.2 1411.8 7 C 1411.6 6.8 1411.2 6.7 1410.8 6.7 C 1410.3 6.7 1409.8 6.8 1409.4 7.1 C 1409 7.4 1408.7 7.8 1408.5 8.2 C 1408.4 8.7 1408.3 9.6 1408.3 10.8 C 1408.3 10.85 1408.3 16 1408.3 16 L 1405.3 16 L 1405.3 4.6 L 1408.1 4.6 C 1408.1 4.6 1408.09 6.28 1408.1 6.3 C 1409.1 5 1410.3 4.4 1411.8 4.4 C 1412.5 4.4 1413.1 4.5 1413.7 4.7 C 1414.2 5 1414.6 5.3 1414.9 5.6 C 1415.2 6 1415.4 6.4 1415.5 6.9 C 1415.6 7.4 1415.7 8 1415.7 8.9 C 1415.68 8.93 1415.7 16 1415.7 16 Z M 1424 4.6 L 1424 7 L 1421.9 7 C 1421.9 7 1421.91 11.61 1421.9 11.6 C 1421.9 12.5 1421.9 13.1 1422 13.2 C 1422 13.4 1422.1 13.5 1422.2 13.6 C 1422.4 13.7 1422.6 13.8 1422.8 13.8 C 1423 13.8 1423.4 13.7 1424 13.5 C 1424 13.5 1424.2 15.8 1424.2 15.8 C 1423.5 16.1 1422.7 16.3 1421.8 16.3 C 1421.3 16.3 1420.8 16.2 1420.4 16 C 1419.9 15.8 1419.6 15.6 1419.4 15.3 C 1419.2 15 1419.1 14.6 1419 14.1 C 1418.9 13.8 1418.9 13.1 1418.9 12 C 1418.88 11.99 1418.9 7 1418.9 7 L 1417.5 7 L 1417.5 4.6 L 1418.9 4.6 L 1418.9 2.3 L 1421.9 0.6 L 1421.9 4.6 L 1424 4.6 Z M 1425 12.8 C 1425 12.8 1428 12.3 1428 12.3 C 1428.2 12.9 1428.4 13.3 1428.8 13.6 C 1429.2 13.9 1429.8 14.1 1430.5 14.1 C 1431.3 14.1 1431.8 14 1432.2 13.7 C 1432.5 13.5 1432.6 13.2 1432.6 12.9 C 1432.6 12.6 1432.6 12.4 1432.4 12.3 C 1432.3 12.1 1431.9 12 1431.4 11.9 C 1429 11.4 1427.4 10.9 1426.8 10.4 C 1425.9 9.8 1425.4 8.9 1425.4 7.9 C 1425.4 6.9 1425.8 6 1426.6 5.4 C 1427.4 4.7 1428.6 4.4 1430.2 4.4 C 1431.8 4.4 1432.9 4.6 1433.7 5.1 C 1434.5 5.6 1435 6.4 1435.3 7.4 C 1435.3 7.4 1432.4 7.9 1432.4 7.9 C 1432.3 7.5 1432.1 7.1 1431.7 6.9 C 1431.4 6.6 1430.9 6.5 1430.3 6.5 C 1429.5 6.5 1428.9 6.6 1428.6 6.9 C 1428.3 7 1428.2 7.2 1428.2 7.5 C 1428.2 7.7 1428.3 7.9 1428.5 8 C 1428.8 8.2 1429.7 8.5 1431.4 8.9 C 1433 9.2 1434.1 9.7 1434.7 10.2 C 1435.3 10.7 1435.7 11.5 1435.7 12.5 C 1435.7 13.5 1435.2 14.4 1434.4 15.1 C 1433.5 15.9 1432.2 16.3 1430.5 16.3 C 1428.9 16.3 1427.7 16 1426.8 15.3 C 1425.9 14.7 1425.3 13.8 1425 12.8 Z M 1443.7 10.2 C 1443.7 9.1 1444 8.2 1444.5 7.2 C 1445 6.3 1445.7 5.6 1446.6 5.1 C 1447.5 4.6 1448.5 4.4 1449.6 4.4 C 1451.3 4.4 1452.7 4.9 1453.8 6 C 1454.9 7.2 1455.5 8.6 1455.5 10.3 C 1455.5 12 1454.9 13.4 1453.8 14.6 C 1452.7 15.7 1451.3 16.3 1449.6 16.3 C 1448.6 16.3 1447.6 16 1446.6 15.6 C 1445.7 15.1 1445 14.4 1444.5 13.5 C 1444 12.6 1443.7 11.5 1443.7 10.2 Z M 1446.8 10.3 C 1446.8 11.4 1447.1 12.3 1447.6 12.9 C 1448.2 13.5 1448.8 13.8 1449.6 13.8 C 1450.4 13.8 1451.1 13.5 1451.6 12.9 C 1452.1 12.3 1452.4 11.4 1452.4 10.3 C 1452.4 9.2 1452.1 8.3 1451.6 7.7 C 1451.1 7.1 1450.4 6.8 1449.6 6.8 C 1448.8 6.8 1448.2 7.1 1447.6 7.7 C 1447.1 8.3 1446.8 9.2 1446.8 10.3 Z M 1456.5 4.6 L 1458.2 4.6 C 1458.2 4.6 1458.21 3.75 1458.2 3.7 C 1458.2 2.8 1458.3 2.1 1458.5 1.6 C 1458.7 1.1 1459.1 0.7 1459.6 0.4 C 1460.2 0.1 1460.9 0 1461.7 0 C 1462.6 0 1463.4 0.1 1464.2 0.4 C 1464.2 0.4 1463.8 2.5 1463.8 2.5 C 1463.4 2.4 1462.9 2.3 1462.5 2.3 C 1462 2.3 1461.7 2.4 1461.5 2.6 C 1461.3 2.8 1461.2 3.2 1461.2 3.8 C 1461.23 3.8 1461.2 4.6 1461.2 4.6 L 1463.5 4.6 L 1463.5 7 L 1461.2 7 L 1461.2 16 L 1458.2 16 L 1458.2 7 L 1456.5 7 L 1456.5 4.6 Z M 1476.5 4.6 L 1476.5 7 L 1474.5 7 C 1474.5 7 1474.46 11.61 1474.5 11.6 C 1474.5 12.5 1474.5 13.1 1474.5 13.2 C 1474.6 13.4 1474.7 13.5 1474.8 13.6 C 1474.9 13.7 1475.1 13.8 1475.3 13.8 C 1475.6 13.8 1476 13.7 1476.5 13.5 C 1476.5 13.5 1476.8 15.8 1476.8 15.8 C 1476.1 16.1 1475.3 16.3 1474.4 16.3 C 1473.8 16.3 1473.4 16.2 1472.9 16 C 1472.5 15.8 1472.2 15.6 1472 15.3 C 1471.8 15 1471.6 14.6 1471.5 14.1 C 1471.5 13.8 1471.4 13.1 1471.4 12 C 1471.43 11.99 1471.4 7 1471.4 7 L 1470 7 L 1470 4.6 L 1471.4 4.6 L 1471.4 2.3 L 1474.5 0.6 L 1474.5 4.6 L 1476.5 4.6 Z M 1481.6 0.3 C 1481.6 0.3 1481.63 6.06 1481.6 6.1 C 1482.6 4.9 1483.8 4.4 1485.1 4.4 C 1485.8 4.4 1486.4 4.5 1487 4.7 C 1487.6 5 1488 5.3 1488.3 5.7 C 1488.5 6.1 1488.7 6.6 1488.8 7.1 C 1488.9 7.5 1489 8.3 1489 9.3 C 1489 9.32 1489 16 1489 16 L 1486 16 C 1486 16 1485.98 9.99 1486 10 C 1486 8.8 1485.9 8 1485.8 7.7 C 1485.7 7.4 1485.5 7.1 1485.2 6.9 C 1484.9 6.8 1484.5 6.7 1484.1 6.7 C 1483.6 6.7 1483.2 6.8 1482.8 7 C 1482.4 7.3 1482.1 7.6 1481.9 8.1 C 1481.7 8.6 1481.6 9.3 1481.6 10.3 C 1481.63 10.3 1481.6 16 1481.6 16 L 1478.6 16 L 1478.6 0.3 L 1481.6 0.3 Z M 1498.7 12.4 C 1498.7 12.4 1501.7 12.9 1501.7 12.9 C 1501.3 14 1500.7 14.8 1499.8 15.4 C 1499 16 1498 16.3 1496.7 16.3 C 1494.7 16.3 1493.3 15.6 1492.3 14.3 C 1491.6 13.3 1491.2 12 1491.2 10.4 C 1491.2 8.5 1491.7 7 1492.7 6 C 1493.6 4.9 1494.9 4.4 1496.4 4.4 C 1498.1 4.4 1499.4 4.9 1500.4 6 C 1501.4 7.2 1501.9 8.9 1501.8 11.2 C 1501.8 11.2 1494.3 11.2 1494.3 11.2 C 1494.3 12.1 1494.5 12.8 1495 13.3 C 1495.5 13.8 1496 14 1496.7 14 C 1497.2 14 1497.6 13.9 1497.9 13.6 C 1498.3 13.4 1498.5 13 1498.7 12.4 Z M 1498.8 9.3 C 1498.8 8.5 1498.6 7.8 1498.2 7.3 C 1497.7 6.9 1497.2 6.7 1496.6 6.7 C 1495.9 6.7 1495.4 6.9 1495 7.4 C 1494.5 7.9 1494.3 8.5 1494.3 9.3 C 1494.3 9.3 1498.8 9.3 1498.8 9.3 Z M 1512.7 8.1 C 1512.7 8.1 1509.9 7.6 1509.9 7.6 C 1510.2 6.5 1510.8 5.7 1511.5 5.1 C 1512.3 4.6 1513.4 4.4 1514.9 4.4 C 1516.2 4.4 1517.2 4.5 1517.9 4.8 C 1518.5 5.1 1519 5.6 1519.3 6 C 1519.5 6.5 1519.7 7.4 1519.7 8.7 C 1519.7 8.7 1519.6 12.3 1519.6 12.3 C 1519.6 13.3 1519.7 14 1519.8 14.5 C 1519.9 15 1520.1 15.5 1520.3 16 C 1520.3 16 1517.3 16 1517.3 16 C 1517.3 15.8 1517.2 15.5 1517 15.1 C 1517 14.9 1517 14.8 1516.9 14.8 C 1516.4 15.3 1515.9 15.6 1515.3 15.9 C 1514.7 16.1 1514.1 16.3 1513.4 16.3 C 1512.2 16.3 1511.3 16 1510.6 15.3 C 1510 14.7 1509.6 13.9 1509.6 12.9 C 1509.6 12.3 1509.8 11.7 1510.1 11.2 C 1510.4 10.7 1510.8 10.3 1511.4 10 C 1511.9 9.7 1512.7 9.5 1513.8 9.3 C 1515.2 9 1516.2 8.8 1516.7 8.6 C 1516.7 8.6 1516.7 8.3 1516.7 8.3 C 1516.7 7.7 1516.6 7.3 1516.3 7 C 1516 6.8 1515.4 6.7 1514.7 6.7 C 1514.1 6.7 1513.7 6.8 1513.4 7 C 1513.1 7.2 1512.8 7.6 1512.7 8.1 Z M 1516.7 10.5 C 1516.3 10.7 1515.7 10.8 1514.9 11 C 1514 11.2 1513.5 11.4 1513.2 11.5 C 1512.8 11.8 1512.6 12.2 1512.6 12.6 C 1512.6 13 1512.8 13.4 1513.1 13.7 C 1513.4 14 1513.8 14.1 1514.3 14.1 C 1514.9 14.1 1515.4 14 1515.9 13.6 C 1516.2 13.3 1516.5 13 1516.6 12.6 C 1516.7 12.4 1516.7 11.9 1516.7 11.1 C 1516.7 11.1 1516.7 10.5 1516.7 10.5 Z M 1521.6 12.8 C 1521.6 12.8 1524.6 12.3 1524.6 12.3 C 1524.7 12.9 1525 13.3 1525.4 13.6 C 1525.8 13.9 1526.3 14.1 1527 14.1 C 1527.8 14.1 1528.4 14 1528.8 13.7 C 1529.1 13.5 1529.2 13.2 1529.2 12.9 C 1529.2 12.6 1529.1 12.4 1529 12.3 C 1528.8 12.1 1528.5 12 1528 11.9 C 1525.5 11.4 1524 10.9 1523.4 10.4 C 1522.4 9.8 1522 8.9 1522 7.9 C 1522 6.9 1522.4 6 1523.2 5.4 C 1523.9 4.7 1525.2 4.4 1526.8 4.4 C 1528.4 4.4 1529.5 4.6 1530.3 5.1 C 1531 5.6 1531.6 6.4 1531.8 7.4 C 1531.8 7.4 1529 7.9 1529 7.9 C 1528.9 7.5 1528.6 7.1 1528.3 6.9 C 1528 6.6 1527.5 6.5 1526.9 6.5 C 1526.1 6.5 1525.5 6.6 1525.1 6.9 C 1524.9 7 1524.8 7.2 1524.8 7.5 C 1524.8 7.7 1524.9 7.9 1525.1 8 C 1525.4 8.2 1526.3 8.5 1527.9 8.9 C 1529.5 9.2 1530.7 9.7 1531.3 10.2 C 1531.9 10.7 1532.2 11.5 1532.2 12.5 C 1532.2 13.5 1531.8 14.4 1530.9 15.1 C 1530.1 15.9 1528.8 16.3 1527 16.3 C 1525.5 16.3 1524.3 16 1523.4 15.3 C 1522.5 14.7 1521.9 13.8 1521.6 12.8 Z M 1533.8 12.8 C 1533.8 12.8 1536.8 12.3 1536.8 12.3 C 1537 12.9 1537.2 13.3 1537.6 13.6 C 1538 13.9 1538.6 14.1 1539.3 14.1 C 1540.1 14.1 1540.7 14 1541 13.7 C 1541.3 13.5 1541.4 13.2 1541.4 12.9 C 1541.4 12.6 1541.4 12.4 1541.2 12.3 C 1541.1 12.1 1540.7 12 1540.2 11.9 C 1537.8 11.4 1536.2 10.9 1535.6 10.4 C 1534.7 9.8 1534.2 8.9 1534.2 7.9 C 1534.2 6.9 1534.6 6 1535.4 5.4 C 1536.2 4.7 1537.4 4.4 1539 4.4 C 1540.6 4.4 1541.8 4.6 1542.5 5.1 C 1543.3 5.6 1543.8 6.4 1544.1 7.4 C 1544.1 7.4 1541.2 7.9 1541.2 7.9 C 1541.1 7.5 1540.9 7.1 1540.5 6.9 C 1540.2 6.6 1539.7 6.5 1539.1 6.5 C 1538.3 6.5 1537.7 6.6 1537.4 6.9 C 1537.2 7 1537 7.2 1537 7.5 C 1537 7.7 1537.1 7.9 1537.3 8 C 1537.6 8.2 1538.6 8.5 1540.2 8.9 C 1541.8 9.2 1542.9 9.7 1543.5 10.2 C 1544.2 10.7 1544.5 11.5 1544.5 12.5 C 1544.5 13.5 1544 14.4 1543.2 15.1 C 1542.3 15.9 1541 16.3 1539.3 16.3 C 1537.7 16.3 1536.5 16 1535.6 15.3 C 1534.7 14.7 1534.1 13.8 1533.8 12.8 Z M 1553.7 12.4 C 1553.7 12.4 1556.7 12.9 1556.7 12.9 C 1556.3 14 1555.7 14.8 1554.9 15.4 C 1554.1 16 1553 16.3 1551.8 16.3 C 1549.8 16.3 1548.3 15.6 1547.4 14.3 C 1546.6 13.3 1546.2 12 1546.2 10.4 C 1546.2 8.5 1546.7 7 1547.7 6 C 1548.7 4.9 1550 4.4 1551.5 4.4 C 1553.2 4.4 1554.5 4.9 1555.5 6 C 1556.5 7.2 1556.9 8.9 1556.9 11.2 C 1556.9 11.2 1549.3 11.2 1549.3 11.2 C 1549.3 12.1 1549.6 12.8 1550.1 13.3 C 1550.5 13.8 1551.1 14 1551.8 14 C 1552.3 14 1552.7 13.9 1553 13.6 C 1553.3 13.4 1553.6 13 1553.7 12.4 Z M 1553.9 9.3 C 1553.9 8.5 1553.6 7.8 1553.2 7.3 C 1552.8 6.9 1552.3 6.7 1551.6 6.7 C 1551 6.7 1550.4 6.9 1550 7.4 C 1549.6 7.9 1549.4 8.5 1549.4 9.3 C 1549.4 9.3 1553.9 9.3 1553.9 9.3 Z M 1558.3 12.8 C 1558.3 12.8 1561.3 12.3 1561.3 12.3 C 1561.4 12.9 1561.7 13.3 1562.1 13.6 C 1562.5 13.9 1563 14.1 1563.8 14.1 C 1564.5 14.1 1565.1 14 1565.5 13.7 C 1565.8 13.5 1565.9 13.2 1565.9 12.9 C 1565.9 12.6 1565.8 12.4 1565.7 12.3 C 1565.5 12.1 1565.2 12 1564.7 11.9 C 1562.3 11.4 1560.7 10.9 1560.1 10.4 C 1559.2 9.8 1558.7 8.9 1558.7 7.9 C 1558.7 6.9 1559.1 6 1559.9 5.4 C 1560.7 4.7 1561.9 4.4 1563.5 4.4 C 1565.1 4.4 1566.2 4.6 1567 5.1 C 1567.7 5.6 1568.3 6.4 1568.6 7.4 C 1568.6 7.4 1565.7 7.9 1565.7 7.9 C 1565.6 7.5 1565.4 7.1 1565 6.9 C 1564.7 6.6 1564.2 6.5 1563.6 6.5 C 1562.8 6.5 1562.2 6.6 1561.9 6.9 C 1561.6 7 1561.5 7.2 1561.5 7.5 C 1561.5 7.7 1561.6 7.9 1561.8 8 C 1562.1 8.2 1563 8.5 1564.6 8.9 C 1566.2 9.2 1567.4 9.7 1568 10.2 C 1568.6 10.7 1568.9 11.5 1568.9 12.5 C 1568.9 13.5 1568.5 14.4 1567.6 15.1 C 1566.8 15.9 1565.5 16.3 1563.8 16.3 C 1562.2 16.3 1561 16 1560.1 15.3 C 1559.2 14.7 1558.6 13.8 1558.3 12.8 Z M 1570.5 12.8 C 1570.5 12.8 1573.6 12.3 1573.6 12.3 C 1573.7 12.9 1573.9 13.3 1574.3 13.6 C 1574.7 13.9 1575.3 14.1 1576 14.1 C 1576.8 14.1 1577.4 14 1577.8 13.7 C 1578 13.5 1578.1 13.2 1578.1 12.9 C 1578.1 12.6 1578.1 12.4 1577.9 12.3 C 1577.8 12.1 1577.4 12 1576.9 11.9 C 1574.5 11.4 1572.9 10.9 1572.3 10.4 C 1571.4 9.8 1570.9 8.9 1570.9 7.9 C 1570.9 6.9 1571.3 6 1572.1 5.4 C 1572.9 4.7 1574.1 4.4 1575.7 4.4 C 1577.3 4.4 1578.5 4.6 1579.2 5.1 C 1580 5.6 1580.5 6.4 1580.8 7.4 C 1580.8 7.4 1577.9 7.9 1577.9 7.9 C 1577.8 7.5 1577.6 7.1 1577.3 6.9 C 1576.9 6.6 1576.4 6.5 1575.8 6.5 C 1575 6.5 1574.4 6.6 1574.1 6.9 C 1573.9 7 1573.7 7.2 1573.7 7.5 C 1573.7 7.7 1573.8 7.9 1574 8 C 1574.3 8.2 1575.3 8.5 1576.9 8.9 C 1578.5 9.2 1579.6 9.7 1580.2 10.2 C 1580.9 10.7 1581.2 11.5 1581.2 12.5 C 1581.2 13.5 1580.7 14.4 1579.9 15.1 C 1579 15.9 1577.7 16.3 1576 16.3 C 1574.4 16.3 1573.2 16 1572.3 15.3 C 1571.4 14.7 1570.8 13.8 1570.5 12.8 Z M 1583.6 4.6 L 1586.4 4.6 C 1586.4 4.6 1586.38 6.17 1586.4 6.2 C 1587.4 5 1588.6 4.4 1589.9 4.4 C 1590.7 4.4 1591.3 4.5 1591.8 4.8 C 1592.4 5.1 1592.8 5.6 1593.2 6.2 C 1593.7 5.6 1594.2 5.1 1594.8 4.8 C 1595.4 4.5 1596 4.4 1596.6 4.4 C 1597.5 4.4 1598.2 4.5 1598.8 4.9 C 1599.3 5.2 1599.8 5.7 1600.1 6.4 C 1600.3 6.8 1600.4 7.6 1600.4 8.7 C 1600.37 8.72 1600.4 16 1600.4 16 L 1597.4 16 C 1597.4 16 1597.35 9.5 1597.4 9.5 C 1597.4 8.4 1597.3 7.6 1597 7.3 C 1596.8 6.9 1596.3 6.7 1595.8 6.7 C 1595.3 6.7 1594.9 6.8 1594.6 7 C 1594.2 7.3 1593.9 7.7 1593.8 8.2 C 1593.6 8.7 1593.5 9.5 1593.5 10.5 C 1593.51 10.54 1593.5 16 1593.5 16 L 1590.5 16 C 1590.5 16 1590.49 9.76 1590.5 9.8 C 1590.5 8.7 1590.4 7.9 1590.3 7.6 C 1590.2 7.3 1590.1 7.1 1589.8 6.9 C 1589.6 6.7 1589.3 6.7 1588.9 6.7 C 1588.4 6.7 1588 6.8 1587.7 7 C 1587.3 7.3 1587 7.6 1586.9 8.1 C 1586.7 8.6 1586.6 9.4 1586.6 10.5 C 1586.61 10.47 1586.6 16 1586.6 16 L 1583.6 16 L 1583.6 4.6 Z M 1610 12.4 C 1610 12.4 1613 12.9 1613 12.9 C 1612.6 14 1612 14.8 1611.2 15.4 C 1610.3 16 1609.3 16.3 1608 16.3 C 1606 16.3 1604.6 15.6 1603.6 14.3 C 1602.9 13.3 1602.5 12 1602.5 10.4 C 1602.5 8.5 1603 7 1604 6 C 1605 4.9 1606.2 4.4 1607.7 4.4 C 1609.4 4.4 1610.8 4.9 1611.7 6 C 1612.7 7.2 1613.2 8.9 1613.2 11.2 C 1613.2 11.2 1605.6 11.2 1605.6 11.2 C 1605.6 12.1 1605.9 12.8 1606.3 13.3 C 1606.8 13.8 1607.4 14 1608.1 14 C 1608.5 14 1608.9 13.9 1609.3 13.6 C 1609.6 13.4 1609.8 13 1610 12.4 Z M 1610.2 9.3 C 1610.1 8.5 1609.9 7.8 1609.5 7.3 C 1609.1 6.9 1608.5 6.7 1607.9 6.7 C 1607.3 6.7 1606.7 6.9 1606.3 7.4 C 1605.9 7.9 1605.6 8.5 1605.6 9.3 C 1605.6 9.3 1610.2 9.3 1610.2 9.3 Z M 1626 16 L 1623 16 C 1623 16 1622.97 10.19 1623 10.2 C 1623 9 1622.9 8.2 1622.8 7.8 C 1622.7 7.4 1622.4 7.2 1622.2 7 C 1621.9 6.8 1621.5 6.7 1621.1 6.7 C 1620.6 6.7 1620.1 6.8 1619.7 7.1 C 1619.3 7.4 1619 7.8 1618.8 8.2 C 1618.7 8.7 1618.6 9.6 1618.6 10.8 C 1618.61 10.85 1618.6 16 1618.6 16 L 1615.6 16 L 1615.6 4.6 L 1618.4 4.6 C 1618.4 4.6 1618.4 6.28 1618.4 6.3 C 1619.4 5 1620.6 4.4 1622.2 4.4 C 1622.8 4.4 1623.4 4.5 1624 4.7 C 1624.5 5 1625 5.3 1625.2 5.6 C 1625.5 6 1625.7 6.4 1625.8 6.9 C 1625.9 7.4 1626 8 1626 8.9 C 1625.99 8.93 1626 16 1626 16 Z M 1634.3 4.6 L 1634.3 7 L 1632.2 7 C 1632.2 7 1632.22 11.61 1632.2 11.6 C 1632.2 12.5 1632.2 13.1 1632.3 13.2 C 1632.3 13.4 1632.4 13.5 1632.6 13.6 C 1632.7 13.7 1632.9 13.8 1633.1 13.8 C 1633.3 13.8 1633.7 13.7 1634.3 13.5 C 1634.3 13.5 1634.5 15.8 1634.5 15.8 C 1633.8 16.1 1633 16.3 1632.1 16.3 C 1631.6 16.3 1631.1 16.2 1630.7 16 C 1630.2 15.8 1629.9 15.6 1629.7 15.3 C 1629.5 15 1629.4 14.6 1629.3 14.1 C 1629.2 13.8 1629.2 13.1 1629.2 12 C 1629.19 11.99 1629.2 7 1629.2 7 L 1627.8 7 L 1627.8 4.6 L 1629.2 4.6 L 1629.2 2.3 L 1632.2 0.6 L 1632.2 4.6 L 1634.3 4.6 Z M 1636.4 16 L 1636.4 13 L 1639.4 13 L 1639.4 16 L 1636.4 16 Z " stroke="none" fill="#010102"/>  </g></svg>