<?xml version="1.0" standalone="no"?><!DOCTYPE svg PUBLIC "-//W3C//DTD SVG 1.1//EN" "http://www.w3.org/Graphics/SVG/1.1/DTD/svg11.dtd"><svg xmlns="http://www.w3.org/2000/svg" version="1.1" width="36.3px" height="35.6px" viewBox="0 -7 36.3 35.6" style="top:-7px">  <desc>API</desc>  <defs/>  <g id="Polygon8116">    <path d="M 0 16 L 6 0.3 L 8.3 0.3 L 14.7 16 L 12.3 16 L 10.5 11.2 L 3.9 11.2 L 2.2 16 L 0 16 Z M 4.5 9.5 L 9.9 9.5 C 9.9 9.5 8.21 5.19 8.2 5.2 C 7.7 3.9 7.3 2.8 7.1 1.9 C 6.9 2.9 6.6 3.9 6.2 4.9 C 6.24 4.93 4.5 9.5 4.5 9.5 Z M 16.4 16 L 16.4 0.3 C 16.4 0.3 22.31 0.27 22.3 0.3 C 23.4 0.3 24.2 0.3 24.7 0.4 C 25.5 0.5 26.1 0.8 26.7 1.2 C 27.2 1.5 27.6 2 27.9 2.7 C 28.2 3.3 28.4 4 28.4 4.8 C 28.4 6.2 28 7.3 27.1 8.2 C 26.3 9.2 24.7 9.6 22.5 9.6 C 22.49 9.61 18.5 9.6 18.5 9.6 L 18.5 16 L 16.4 16 Z M 18.5 7.8 C 18.5 7.8 22.53 7.76 22.5 7.8 C 23.9 7.8 24.8 7.5 25.4 7 C 26 6.5 26.2 5.8 26.2 4.9 C 26.2 4.2 26.1 3.7 25.7 3.2 C 25.4 2.7 25 2.4 24.4 2.3 C 24.1 2.2 23.4 2.1 22.5 2.1 C 22.48 2.13 18.5 2.1 18.5 2.1 L 18.5 7.8 Z M 31.4 16 L 31.4 0.3 L 33.5 0.3 L 33.5 16 L 31.4 16 Z " stroke="none" fill="#000"/>  </g></svg>