<?xml version="1.0" standalone="no"?><!DOCTYPE svg PUBLIC "-//W3C//DTD SVG 1.1//EN" "http://www.w3.org/Graphics/SVG/1.1/DTD/svg11.dtd"><svg xmlns="http://www.w3.org/2000/svg" version="1.1" width="364px" height="165.6px" viewBox="0 -2 364 165.6" style="top:-2px">  <desc>Provider Recommendation Ideal for higher performing learners or employers with more mature digital systems.</desc>  <defs/>  <g id="Polygon7362">    <path d="M 115.6 150.7 C 115.6 150.7 115.61 149.26 115.6 149.3 C 114.9 150.4 113.8 151 112.4 151 C 111.5 151 110.7 150.7 109.9 150.2 C 109.2 149.7 108.6 149 108.1 148.1 C 107.7 147.2 107.5 146.2 107.5 145 C 107.5 143.9 107.7 142.8 108.1 141.9 C 108.5 141 109 140.3 109.8 139.8 C 110.5 139.3 111.4 139 112.3 139 C 113 139 113.6 139.2 114.2 139.5 C 114.7 139.8 115.1 140.1 115.5 140.6 C 115.48 140.61 115.5 135 115.5 135 L 117.4 135 L 117.4 150.7 L 115.6 150.7 Z M 109.5 145 C 109.5 146.5 109.8 147.6 110.4 148.3 C 111 149 111.8 149.4 112.6 149.4 C 113.4 149.4 114.2 149 114.8 148.3 C 115.3 147.6 115.6 146.6 115.6 145.2 C 115.6 143.6 115.3 142.5 114.7 141.7 C 114.1 141 113.4 140.6 112.5 140.6 C 111.7 140.6 110.9 141 110.4 141.7 C 109.8 142.4 109.5 143.5 109.5 145 Z M 120.5 137.2 L 120.5 135 L 122.4 135 L 122.4 137.2 L 120.5 137.2 Z M 120.5 150.7 L 120.5 139.3 L 122.4 139.3 L 122.4 150.7 L 120.5 150.7 Z M 125 151.6 C 125 151.6 126.9 151.9 126.9 151.9 C 126.9 152.5 127.2 152.9 127.5 153.2 C 128 153.6 128.6 153.7 129.5 153.7 C 130.4 153.7 131.1 153.6 131.6 153.2 C 132 152.8 132.4 152.3 132.5 151.7 C 132.6 151.3 132.7 150.5 132.7 149.2 C 131.8 150.2 130.8 150.7 129.5 150.7 C 128 150.7 126.7 150.1 125.9 149 C 125 147.9 124.6 146.5 124.6 144.9 C 124.6 143.8 124.8 142.8 125.2 141.9 C 125.6 141 126.1 140.3 126.9 139.8 C 127.6 139.3 128.5 139 129.5 139 C 130.9 139 132 139.6 132.9 140.7 C 132.86 140.67 132.9 139.3 132.9 139.3 L 134.6 139.3 C 134.6 139.3 134.65 149.16 134.6 149.2 C 134.6 150.9 134.5 152.2 134.1 152.9 C 133.7 153.7 133.2 154.3 132.4 154.7 C 131.6 155.1 130.6 155.3 129.5 155.3 C 128.1 155.3 127 155 126.2 154.4 C 125.4 153.8 125 152.9 125 151.6 Z M 126.6 144.8 C 126.6 146.3 126.9 147.4 127.5 148.1 C 128.1 148.8 128.8 149.1 129.7 149.1 C 130.6 149.1 131.3 148.8 131.9 148.1 C 132.5 147.4 132.8 146.3 132.8 144.9 C 132.8 143.5 132.5 142.4 131.9 141.7 C 131.3 141 130.5 140.6 129.7 140.6 C 128.8 140.6 128.1 141 127.5 141.7 C 126.9 142.4 126.6 143.4 126.6 144.8 Z M 137.6 137.2 L 137.6 135 L 139.5 135 L 139.5 137.2 L 137.6 137.2 Z M 137.6 150.7 L 137.6 139.3 L 139.5 139.3 L 139.5 150.7 L 137.6 150.7 Z M 145.8 149 C 146 149 146.3 149 146.7 149 C 146.7 149 147 150.7 147 150.7 C 146.4 150.8 145.9 150.9 145.5 150.9 C 144.8 150.9 144.3 150.7 143.9 150.5 C 143.5 150.3 143.2 150 143 149.6 C 142.9 149.3 142.8 148.5 142.8 147.4 C 142.81 147.36 142.8 140.8 142.8 140.8 L 141.4 140.8 L 141.4 139.3 L 142.8 139.3 L 142.8 136.5 L 144.7 135.3 L 144.7 139.3 L 146.7 139.3 L 146.7 140.8 L 144.7 140.8 C 144.7 140.8 144.73 147.47 144.7 147.5 C 144.7 148 144.8 148.4 144.8 148.5 C 144.9 148.7 145 148.8 145.2 148.9 C 145.3 149 145.5 149 145.8 149 C 145.8 149 145.8 149 145.8 149 Z M 156.4 150.7 C 156.2 150.3 156.1 149.8 156 149.3 C 155.3 149.9 154.6 150.3 153.9 150.6 C 153.3 150.8 152.6 151 151.8 151 C 150.6 151 149.6 150.7 148.9 150 C 148.3 149.4 147.9 148.6 147.9 147.7 C 147.9 147.1 148 146.6 148.3 146.2 C 148.5 145.7 148.9 145.3 149.3 145.1 C 149.7 144.8 150.2 144.6 150.7 144.4 C 151.1 144.3 151.6 144.2 152.4 144.1 C 154 143.9 155.1 143.7 155.9 143.5 C 155.9 143.2 155.9 143 155.9 143 C 155.9 142.2 155.7 141.6 155.3 141.3 C 154.8 140.9 154.1 140.6 153.1 140.6 C 152.2 140.6 151.5 140.8 151.1 141.1 C 150.7 141.4 150.3 142 150.1 142.8 C 150.1 142.8 148.2 142.6 148.2 142.6 C 148.4 141.7 148.7 141.1 149.1 140.6 C 149.5 140.1 150.1 139.7 150.8 139.4 C 151.5 139.2 152.4 139 153.4 139 C 154.4 139 155.2 139.2 155.8 139.4 C 156.4 139.6 156.8 139.9 157.1 140.2 C 157.4 140.6 157.6 141 157.7 141.6 C 157.8 141.9 157.8 142.5 157.8 143.3 C 157.8 143.3 157.8 145.9 157.8 145.9 C 157.8 147.7 157.8 148.9 157.9 149.3 C 158 149.8 158.2 150.3 158.4 150.7 C 158.42 150.7 156.4 150.7 156.4 150.7 C 156.4 150.7 156.4 150.7 156.4 150.7 Z M 155.9 145 C 155.2 145.3 154.1 145.5 152.7 145.7 C 151.9 145.8 151.3 146 151 146.1 C 150.7 146.2 150.4 146.4 150.2 146.7 C 150.1 147 150 147.3 150 147.6 C 150 148.2 150.2 148.6 150.6 148.9 C 151 149.3 151.5 149.4 152.3 149.4 C 153 149.4 153.7 149.3 154.3 149 C 154.8 148.6 155.3 148.2 155.5 147.6 C 155.7 147.2 155.9 146.5 155.9 145.7 C 155.9 145.7 155.9 145 155.9 145 Z M 160.8 150.7 L 160.8 135 L 162.7 135 L 162.7 150.7 L 160.8 150.7 Z M 171 147.3 C 171 147.3 172.9 147 172.9 147 C 173.1 147.8 173.3 148.4 173.8 148.8 C 174.3 149.2 175 149.4 175.9 149.4 C 176.8 149.4 177.4 149.2 177.9 148.8 C 178.3 148.5 178.5 148 178.5 147.6 C 178.5 147.1 178.3 146.8 177.9 146.5 C 177.7 146.4 177 146.1 176 145.9 C 174.6 145.5 173.6 145.2 173 144.9 C 172.5 144.7 172.1 144.3 171.8 143.9 C 171.5 143.4 171.4 142.9 171.4 142.3 C 171.4 141.8 171.5 141.3 171.7 140.9 C 171.9 140.5 172.3 140.1 172.7 139.8 C 173 139.6 173.4 139.4 173.9 139.3 C 174.4 139.1 175 139 175.6 139 C 176.4 139 177.2 139.2 177.9 139.4 C 178.6 139.7 179.1 140 179.4 140.5 C 179.7 140.9 180 141.5 180.1 142.2 C 180.1 142.2 178.2 142.5 178.2 142.5 C 178.1 141.9 177.9 141.5 177.4 141.1 C 177 140.8 176.4 140.6 175.7 140.6 C 174.8 140.6 174.2 140.8 173.8 141.1 C 173.4 141.4 173.2 141.7 173.2 142.1 C 173.2 142.3 173.3 142.6 173.5 142.8 C 173.6 143 173.9 143.2 174.2 143.3 C 174.4 143.4 175 143.5 175.9 143.8 C 177.3 144.2 178.2 144.4 178.8 144.7 C 179.3 144.9 179.7 145.3 180 145.7 C 180.4 146.1 180.5 146.7 180.5 147.4 C 180.5 148 180.3 148.6 179.9 149.2 C 179.6 149.7 179 150.2 178.3 150.5 C 177.6 150.8 176.8 151 175.9 151 C 174.4 151 173.3 150.7 172.5 150 C 171.7 149.4 171.2 148.5 171 147.3 Z M 184 155.3 C 183.6 155.3 183.2 155.3 182.7 155.1 C 182.7 155.1 182.5 153.3 182.5 153.3 C 182.9 153.4 183.3 153.5 183.6 153.5 C 184 153.5 184.4 153.4 184.6 153.2 C 184.9 153.1 185.1 152.9 185.3 152.6 C 185.4 152.4 185.6 152 185.9 151.2 C 185.9 151.1 186 150.9 186 150.7 C 186.04 150.73 181.7 139.3 181.7 139.3 L 183.8 139.3 C 183.8 139.3 186.17 145.9 186.2 145.9 C 186.5 146.7 186.8 147.6 187 148.5 C 187.2 147.7 187.5 146.8 187.8 145.9 C 187.79 145.94 190.2 139.3 190.2 139.3 L 192.2 139.3 C 192.2 139.3 187.82 150.9 187.8 150.9 C 187.4 152.2 187 153 186.7 153.5 C 186.4 154.1 186 154.6 185.6 154.9 C 185.1 155.2 184.6 155.3 184 155.3 C 184 155.3 184 155.3 184 155.3 Z M 193 147.3 C 193 147.3 194.9 147 194.9 147 C 195.1 147.8 195.3 148.4 195.8 148.8 C 196.3 149.2 197 149.4 197.9 149.4 C 198.8 149.4 199.4 149.2 199.9 148.8 C 200.3 148.5 200.5 148 200.5 147.6 C 200.5 147.1 200.3 146.8 199.9 146.5 C 199.7 146.4 199 146.1 198 145.9 C 196.6 145.5 195.6 145.2 195 144.9 C 194.5 144.7 194.1 144.3 193.8 143.9 C 193.5 143.4 193.4 142.9 193.4 142.3 C 193.4 141.8 193.5 141.3 193.7 140.9 C 193.9 140.5 194.3 140.1 194.7 139.8 C 195 139.6 195.4 139.4 195.9 139.3 C 196.4 139.1 197 139 197.6 139 C 198.4 139 199.2 139.2 199.9 139.4 C 200.6 139.7 201.1 140 201.4 140.5 C 201.7 140.9 202 141.5 202.1 142.2 C 202.1 142.2 200.2 142.5 200.2 142.5 C 200.1 141.9 199.9 141.5 199.4 141.1 C 199 140.8 198.4 140.6 197.7 140.6 C 196.8 140.6 196.2 140.8 195.8 141.1 C 195.4 141.4 195.2 141.7 195.2 142.1 C 195.2 142.3 195.3 142.6 195.5 142.8 C 195.6 143 195.9 143.2 196.2 143.3 C 196.4 143.4 197 143.5 197.9 143.8 C 199.3 144.2 200.2 144.4 200.8 144.7 C 201.3 144.9 201.7 145.3 202 145.7 C 202.4 146.1 202.5 146.7 202.5 147.4 C 202.5 148 202.3 148.6 201.9 149.2 C 201.6 149.7 201 150.2 200.3 150.5 C 199.6 150.8 198.8 151 197.9 151 C 196.4 151 195.3 150.7 194.5 150 C 193.7 149.4 193.2 148.5 193 147.3 Z M 208.2 149 C 208.4 149 208.7 149 209 149 C 209 149 209.3 150.7 209.3 150.7 C 208.8 150.8 208.3 150.9 207.8 150.9 C 207.1 150.9 206.6 150.7 206.2 150.5 C 205.8 150.3 205.6 150 205.4 149.6 C 205.2 149.3 205.2 148.5 205.2 147.4 C 205.16 147.36 205.2 140.8 205.2 140.8 L 203.7 140.8 L 203.7 139.3 L 205.2 139.3 L 205.2 136.5 L 207.1 135.3 L 207.1 139.3 L 209 139.3 L 209 140.8 L 207.1 140.8 C 207.1 140.8 207.08 147.47 207.1 147.5 C 207.1 148 207.1 148.4 207.2 148.5 C 207.3 148.7 207.4 148.8 207.5 148.9 C 207.7 149 207.9 149 208.2 149 C 208.2 149 208.2 149 208.2 149 Z M 218.7 147 C 218.7 147 220.7 147.3 220.7 147.3 C 220.4 148.4 219.8 149.4 219 150 C 218.1 150.6 217 151 215.7 151 C 214 151 212.7 150.4 211.7 149.4 C 210.8 148.4 210.3 147 210.3 145.1 C 210.3 143.2 210.8 141.7 211.8 140.6 C 212.7 139.6 214 139 215.6 139 C 217.1 139 218.4 139.6 219.3 140.6 C 220.3 141.6 220.8 143.1 220.8 145 C 220.8 145.1 220.8 145.3 220.8 145.5 C 220.8 145.5 212.3 145.5 212.3 145.5 C 212.3 146.7 212.7 147.7 213.3 148.4 C 214 149 214.8 149.4 215.7 149.4 C 216.4 149.4 217 149.2 217.5 148.8 C 218 148.4 218.4 147.8 218.7 147 Z M 212.4 143.9 C 212.4 143.9 218.7 143.9 218.7 143.9 C 218.7 142.9 218.4 142.2 218 141.7 C 217.4 141 216.6 140.6 215.6 140.6 C 214.7 140.6 214 140.9 213.4 141.5 C 212.8 142.1 212.4 142.9 212.4 143.9 Z M 223.2 150.7 L 223.2 139.3 L 224.9 139.3 C 224.9 139.3 224.88 140.9 224.9 140.9 C 225.2 140.3 225.7 139.9 226.3 139.5 C 226.9 139.2 227.6 139 228.3 139 C 229.2 139 229.9 139.2 230.4 139.6 C 231 139.9 231.3 140.4 231.6 141 C 232.5 139.7 233.6 139 235.1 139 C 236.2 139 237.1 139.4 237.7 140 C 238.3 140.6 238.6 141.6 238.6 142.9 C 238.61 142.87 238.6 150.7 238.6 150.7 L 236.7 150.7 C 236.7 150.7 236.69 143.52 236.7 143.5 C 236.7 142.7 236.6 142.2 236.5 141.8 C 236.4 141.5 236.1 141.2 235.8 141 C 235.5 140.8 235.1 140.7 234.7 140.7 C 233.9 140.7 233.2 141 232.7 141.5 C 232.1 142 231.9 142.9 231.9 144.1 C 231.86 144.08 231.9 150.7 231.9 150.7 L 229.9 150.7 C 229.9 150.7 229.93 143.29 229.9 143.3 C 229.9 142.4 229.8 141.8 229.5 141.4 C 229.1 140.9 228.6 140.7 227.9 140.7 C 227.4 140.7 226.9 140.9 226.4 141.1 C 225.9 141.4 225.6 141.8 225.4 142.4 C 225.2 143 225.1 143.7 225.1 144.8 C 225.09 144.78 225.1 150.7 225.1 150.7 L 223.2 150.7 Z M 240.7 147.3 C 240.7 147.3 242.6 147 242.6 147 C 242.7 147.8 243 148.4 243.5 148.8 C 244 149.2 244.7 149.4 245.6 149.4 C 246.5 149.4 247.1 149.2 247.5 148.8 C 248 148.5 248.2 148 248.2 147.6 C 248.2 147.1 248 146.8 247.6 146.5 C 247.4 146.4 246.7 146.1 245.6 145.9 C 244.2 145.5 243.2 145.2 242.7 144.9 C 242.1 144.7 241.7 144.3 241.5 143.9 C 241.2 143.4 241 142.9 241 142.3 C 241 141.8 241.1 141.3 241.4 140.9 C 241.6 140.5 241.9 140.1 242.3 139.8 C 242.6 139.6 243 139.4 243.6 139.3 C 244.1 139.1 244.6 139 245.2 139 C 246.1 139 246.9 139.2 247.6 139.4 C 248.3 139.7 248.8 140 249.1 140.5 C 249.4 140.9 249.6 141.5 249.7 142.2 C 249.7 142.2 247.9 142.5 247.9 142.5 C 247.8 141.9 247.5 141.5 247.1 141.1 C 246.7 140.8 246.1 140.6 245.4 140.6 C 244.5 140.6 243.8 140.8 243.5 141.1 C 243.1 141.4 242.9 141.7 242.9 142.1 C 242.9 142.3 243 142.6 243.1 142.8 C 243.3 143 243.5 143.2 243.9 143.3 C 244.1 143.4 244.6 143.5 245.6 143.8 C 246.9 144.2 247.9 144.4 248.4 144.7 C 249 144.9 249.4 145.3 249.7 145.7 C 250 146.1 250.2 146.7 250.2 147.4 C 250.2 148 250 148.6 249.6 149.2 C 249.2 149.7 248.7 150.2 248 150.5 C 247.3 150.8 246.5 151 245.6 151 C 244.1 151 243 150.7 242.2 150 C 241.4 149.4 240.9 148.5 240.7 147.3 Z M 253 150.7 L 253 148.5 L 255.2 148.5 L 255.2 150.7 L 253 150.7 Z " stroke="none" fill="#000"/>  </g>  <g id="Polygon7361">    <path d="M 31.1 118.6 C 31.1 116.5 31.7 114.9 32.8 113.9 C 33.8 113.1 35 112.6 36.4 112.6 C 38 112.6 39.3 113.2 40.3 114.2 C 41.3 115.2 41.8 116.6 41.8 118.4 C 41.8 119.9 41.5 121.1 41.1 121.9 C 40.7 122.7 40 123.4 39.2 123.9 C 38.3 124.3 37.4 124.6 36.4 124.6 C 34.8 124.6 33.5 124 32.6 123 C 31.6 122 31.1 120.5 31.1 118.6 Z M 33.1 118.6 C 33.1 120.1 33.4 121.2 34 121.9 C 34.7 122.6 35.5 123 36.4 123 C 37.4 123 38.2 122.6 38.8 121.9 C 39.5 121.1 39.8 120 39.8 118.5 C 39.8 117.1 39.5 116.1 38.8 115.3 C 38.2 114.6 37.4 114.2 36.4 114.2 C 35.5 114.2 34.7 114.6 34 115.3 C 33.4 116 33.1 117.1 33.1 118.6 Z M 44 124.3 L 44 112.9 L 45.8 112.9 C 45.8 112.9 45.75 114.62 45.8 114.6 C 46.2 113.8 46.6 113.3 47 113 C 47.4 112.8 47.8 112.6 48.2 112.6 C 48.9 112.6 49.5 112.8 50.2 113.3 C 50.2 113.3 49.5 115.1 49.5 115.1 C 49.1 114.8 48.6 114.6 48.1 114.6 C 47.7 114.6 47.3 114.8 47 115 C 46.6 115.3 46.4 115.6 46.3 116.1 C 46.1 116.8 45.9 117.5 45.9 118.3 C 45.94 118.33 45.9 124.3 45.9 124.3 L 44 124.3 Z M 65.3 120.6 C 65.3 120.6 67.3 120.9 67.3 120.9 C 67 122 66.4 123 65.5 123.6 C 64.7 124.2 63.6 124.6 62.3 124.6 C 60.6 124.6 59.3 124 58.3 123 C 57.3 122 56.8 120.6 56.8 118.7 C 56.8 116.8 57.3 115.3 58.3 114.2 C 59.3 113.2 60.6 112.6 62.2 112.6 C 63.7 112.6 64.9 113.2 65.9 114.2 C 66.9 115.2 67.3 116.7 67.3 118.6 C 67.3 118.7 67.3 118.9 67.3 119.1 C 67.3 119.1 58.8 119.1 58.8 119.1 C 58.9 120.3 59.2 121.3 59.9 122 C 60.5 122.6 61.3 123 62.3 123 C 63 123 63.6 122.8 64.1 122.4 C 64.6 122 65 121.4 65.3 120.6 Z M 58.9 117.5 C 58.9 117.5 65.3 117.5 65.3 117.5 C 65.2 116.5 65 115.8 64.6 115.3 C 64 114.6 63.2 114.2 62.2 114.2 C 61.3 114.2 60.5 114.5 59.9 115.1 C 59.3 115.7 59 116.5 58.9 117.5 Z M 69.7 124.3 L 69.7 112.9 L 71.4 112.9 C 71.4 112.9 71.44 114.5 71.4 114.5 C 71.8 113.9 72.3 113.5 72.9 113.1 C 73.5 112.8 74.1 112.6 74.9 112.6 C 75.7 112.6 76.4 112.8 77 113.2 C 77.5 113.5 77.9 114 78.1 114.6 C 79 113.3 80.2 112.6 81.6 112.6 C 82.8 112.6 83.6 113 84.3 113.6 C 84.9 114.2 85.2 115.2 85.2 116.5 C 85.16 116.47 85.2 124.3 85.2 124.3 L 83.2 124.3 C 83.2 124.3 83.24 117.12 83.2 117.1 C 83.2 116.3 83.2 115.8 83.1 115.4 C 82.9 115.1 82.7 114.8 82.4 114.6 C 82 114.4 81.7 114.3 81.2 114.3 C 80.4 114.3 79.7 114.6 79.2 115.1 C 78.7 115.6 78.4 116.5 78.4 117.7 C 78.42 117.68 78.4 124.3 78.4 124.3 L 76.5 124.3 C 76.5 124.3 76.48 116.89 76.5 116.9 C 76.5 116 76.3 115.4 76 115 C 75.7 114.5 75.2 114.3 74.5 114.3 C 73.9 114.3 73.4 114.5 73 114.7 C 72.5 115 72.2 115.4 72 116 C 71.7 116.6 71.6 117.3 71.6 118.4 C 71.64 118.38 71.6 124.3 71.6 124.3 L 69.7 124.3 Z M 88 128.7 L 88 112.9 L 89.8 112.9 C 89.8 112.9 89.79 114.38 89.8 114.4 C 90.2 113.8 90.7 113.4 91.2 113.1 C 91.7 112.8 92.4 112.6 93.1 112.6 C 94.1 112.6 94.9 112.9 95.7 113.4 C 96.4 113.9 97 114.6 97.4 115.5 C 97.7 116.4 97.9 117.4 97.9 118.5 C 97.9 119.7 97.7 120.7 97.3 121.7 C 96.9 122.6 96.3 123.3 95.5 123.8 C 94.7 124.3 93.8 124.6 93 124.6 C 92.3 124.6 91.7 124.4 91.2 124.2 C 90.7 123.9 90.3 123.5 90 123.1 C 89.97 123.12 90 128.7 90 128.7 L 88 128.7 Z M 89.8 118.7 C 89.8 120.1 90.1 121.2 90.7 121.9 C 91.3 122.6 92 123 92.8 123 C 93.7 123 94.4 122.6 95 121.9 C 95.7 121.2 96 120 96 118.5 C 96 117 95.7 116 95.1 115.2 C 94.5 114.5 93.8 114.2 92.9 114.2 C 92.1 114.2 91.4 114.5 90.7 115.3 C 90.1 116.1 89.8 117.2 89.8 118.7 Z M 100.2 124.3 L 100.2 108.6 L 102.2 108.6 L 102.2 124.3 L 100.2 124.3 Z M 104.4 118.6 C 104.4 116.5 105 114.9 106.2 113.9 C 107.2 113.1 108.4 112.6 109.8 112.6 C 111.4 112.6 112.6 113.2 113.6 114.2 C 114.6 115.2 115.1 116.6 115.1 118.4 C 115.1 119.9 114.9 121.1 114.5 121.9 C 114 122.7 113.4 123.4 112.5 123.9 C 111.7 124.3 110.8 124.6 109.8 124.6 C 108.2 124.6 106.9 124 105.9 123 C 104.9 122 104.4 120.5 104.4 118.6 Z M 106.4 118.6 C 106.4 120.1 106.7 121.2 107.4 121.9 C 108 122.6 108.8 123 109.8 123 C 110.7 123 111.5 122.6 112.2 121.9 C 112.8 121.1 113.1 120 113.1 118.5 C 113.1 117.1 112.8 116.1 112.2 115.3 C 111.5 114.6 110.7 114.2 109.8 114.2 C 108.8 114.2 108 114.6 107.4 115.3 C 106.7 116 106.4 117.1 106.4 118.6 Z M 118.6 128.9 C 118.2 128.9 117.8 128.9 117.3 128.7 C 117.3 128.7 117.1 126.9 117.1 126.9 C 117.5 127 117.9 127.1 118.2 127.1 C 118.6 127.1 119 127 119.2 126.8 C 119.5 126.7 119.7 126.5 119.9 126.2 C 120 126 120.2 125.6 120.5 124.8 C 120.5 124.7 120.5 124.5 120.6 124.3 C 120.62 124.33 116.3 112.9 116.3 112.9 L 118.4 112.9 C 118.4 112.9 120.75 119.5 120.8 119.5 C 121.1 120.3 121.3 121.2 121.6 122.1 C 121.8 121.3 122.1 120.4 122.4 119.5 C 122.37 119.54 124.8 112.9 124.8 112.9 L 126.7 112.9 C 126.7 112.9 122.41 124.5 122.4 124.5 C 121.9 125.8 121.6 126.6 121.3 127.1 C 121 127.7 120.6 128.2 120.1 128.5 C 119.7 128.8 119.2 128.9 118.6 128.9 C 118.6 128.9 118.6 128.9 118.6 128.9 Z M 136.2 120.6 C 136.2 120.6 138.2 120.9 138.2 120.9 C 137.9 122 137.3 123 136.4 123.6 C 135.6 124.2 134.5 124.6 133.2 124.6 C 131.5 124.6 130.2 124 129.2 123 C 128.2 122 127.7 120.6 127.7 118.7 C 127.7 116.8 128.2 115.3 129.2 114.2 C 130.2 113.2 131.5 112.6 133.1 112.6 C 134.6 112.6 135.8 113.2 136.8 114.2 C 137.8 115.2 138.3 116.7 138.3 118.6 C 138.3 118.7 138.3 118.9 138.3 119.1 C 138.3 119.1 129.7 119.1 129.7 119.1 C 129.8 120.3 130.2 121.3 130.8 122 C 131.4 122.6 132.2 123 133.2 123 C 133.9 123 134.5 122.8 135 122.4 C 135.5 122 135.9 121.4 136.2 120.6 Z M 129.9 117.5 C 129.9 117.5 136.2 117.5 136.2 117.5 C 136.1 116.5 135.9 115.8 135.5 115.3 C 134.9 114.6 134.1 114.2 133.1 114.2 C 132.2 114.2 131.5 114.5 130.9 115.1 C 130.3 115.7 129.9 116.5 129.9 117.5 Z M 140.6 124.3 L 140.6 112.9 L 142.3 112.9 C 142.3 112.9 142.34 114.62 142.3 114.6 C 142.8 113.8 143.2 113.3 143.6 113 C 144 112.8 144.4 112.6 144.8 112.6 C 145.5 112.6 146.1 112.8 146.8 113.3 C 146.8 113.3 146.1 115.1 146.1 115.1 C 145.7 114.8 145.2 114.6 144.7 114.6 C 144.3 114.6 143.9 114.8 143.6 115 C 143.2 115.3 143 115.6 142.9 116.1 C 142.6 116.8 142.5 117.5 142.5 118.3 C 142.54 118.33 142.5 124.3 142.5 124.3 L 140.6 124.3 Z M 147.2 120.9 C 147.2 120.9 149.1 120.6 149.1 120.6 C 149.2 121.4 149.5 122 150 122.4 C 150.5 122.8 151.2 123 152 123 C 152.9 123 153.6 122.8 154 122.4 C 154.5 122.1 154.7 121.6 154.7 121.2 C 154.7 120.7 154.5 120.4 154.1 120.1 C 153.8 120 153.2 119.7 152.1 119.5 C 150.7 119.1 149.7 118.8 149.2 118.5 C 148.6 118.3 148.2 117.9 147.9 117.5 C 147.6 117 147.5 116.5 147.5 115.9 C 147.5 115.4 147.6 114.9 147.8 114.5 C 148.1 114.1 148.4 113.7 148.8 113.4 C 149.1 113.2 149.5 113 150 112.9 C 150.5 112.7 151.1 112.6 151.7 112.6 C 152.6 112.6 153.4 112.8 154.1 113 C 154.7 113.3 155.2 113.6 155.6 114.1 C 155.9 114.5 156.1 115.1 156.2 115.8 C 156.2 115.8 154.3 116.1 154.3 116.1 C 154.2 115.5 154 115.1 153.6 114.7 C 153.2 114.4 152.6 114.2 151.8 114.2 C 151 114.2 150.3 114.4 149.9 114.7 C 149.6 115 149.4 115.3 149.4 115.7 C 149.4 115.9 149.4 116.2 149.6 116.4 C 149.8 116.6 150 116.8 150.3 116.9 C 150.5 117 151.1 117.1 152.1 117.4 C 153.4 117.8 154.4 118 154.9 118.3 C 155.5 118.5 155.9 118.9 156.2 119.3 C 156.5 119.7 156.7 120.3 156.7 121 C 156.7 121.6 156.5 122.2 156.1 122.8 C 155.7 123.3 155.2 123.8 154.5 124.1 C 153.8 124.4 153 124.6 152.1 124.6 C 150.6 124.6 149.4 124.3 148.7 123.6 C 147.9 123 147.4 122.1 147.2 120.9 Z M 167.2 124.3 L 163.7 112.9 L 165.7 112.9 L 167.5 119.5 C 167.5 119.5 168.17 121.93 168.2 121.9 C 168.2 121.8 168.4 121 168.8 119.6 C 168.76 119.58 170.6 112.9 170.6 112.9 L 172.6 112.9 L 174.3 119.5 L 174.8 121.7 L 175.5 119.5 L 177.4 112.9 L 179.3 112.9 L 175.8 124.3 L 173.8 124.3 L 171.9 117.5 L 171.5 115.5 L 169.2 124.3 L 167.2 124.3 Z M 181 110.8 L 181 108.6 L 182.9 108.6 L 182.9 110.8 L 181 110.8 Z M 181 124.3 L 181 112.9 L 182.9 112.9 L 182.9 124.3 L 181 124.3 Z M 189.2 122.6 C 189.4 122.6 189.7 122.6 190.1 122.6 C 190.1 122.6 190.3 124.3 190.3 124.3 C 189.8 124.4 189.3 124.5 188.9 124.5 C 188.2 124.5 187.6 124.3 187.2 124.1 C 186.9 123.9 186.6 123.6 186.4 123.2 C 186.3 122.9 186.2 122.1 186.2 121 C 186.19 120.96 186.2 114.4 186.2 114.4 L 184.8 114.4 L 184.8 112.9 L 186.2 112.9 L 186.2 110.1 L 188.1 108.9 L 188.1 112.9 L 190.1 112.9 L 190.1 114.4 L 188.1 114.4 C 188.1 114.4 188.12 121.07 188.1 121.1 C 188.1 121.6 188.2 122 188.2 122.1 C 188.3 122.3 188.4 122.4 188.6 122.5 C 188.7 122.6 188.9 122.6 189.2 122.6 C 189.2 122.6 189.2 122.6 189.2 122.6 Z M 192 124.3 L 192 108.6 L 193.9 108.6 C 193.9 108.6 193.89 114.21 193.9 114.2 C 194.8 113.2 195.9 112.6 197.3 112.6 C 198.1 112.6 198.9 112.8 199.5 113.1 C 200.1 113.5 200.6 113.9 200.8 114.5 C 201.1 115.1 201.2 116 201.2 117.1 C 201.24 117.07 201.2 124.3 201.2 124.3 L 199.3 124.3 C 199.3 124.3 199.31 117.07 199.3 117.1 C 199.3 116.1 199.1 115.4 198.7 115 C 198.3 114.5 197.7 114.3 196.9 114.3 C 196.3 114.3 195.8 114.5 195.3 114.7 C 194.8 115 194.4 115.4 194.2 116 C 194 116.5 193.9 117.2 193.9 118.1 C 193.89 118.06 193.9 124.3 193.9 124.3 L 192 124.3 Z M 210.3 124.3 L 210.3 112.9 L 212 112.9 C 212 112.9 212.03 114.5 212 114.5 C 212.4 113.9 212.9 113.5 213.5 113.1 C 214.1 112.8 214.7 112.6 215.5 112.6 C 216.3 112.6 217 112.8 217.6 113.2 C 218.1 113.5 218.5 114 218.7 114.6 C 219.6 113.3 220.8 112.6 222.2 112.6 C 223.4 112.6 224.2 113 224.8 113.6 C 225.5 114.2 225.8 115.2 225.8 116.5 C 225.76 116.47 225.8 124.3 225.8 124.3 L 223.8 124.3 C 223.8 124.3 223.83 117.12 223.8 117.1 C 223.8 116.3 223.8 115.8 223.6 115.4 C 223.5 115.1 223.3 114.8 223 114.6 C 222.6 114.4 222.2 114.3 221.8 114.3 C 221 114.3 220.3 114.6 219.8 115.1 C 219.3 115.6 219 116.5 219 117.7 C 219.01 117.68 219 124.3 219 124.3 L 217.1 124.3 C 217.1 124.3 217.08 116.89 217.1 116.9 C 217.1 116 216.9 115.4 216.6 115 C 216.3 114.5 215.8 114.3 215.1 114.3 C 214.5 114.3 214 114.5 213.5 114.7 C 213.1 115 212.8 115.4 212.5 116 C 212.3 116.6 212.2 117.3 212.2 118.4 C 212.23 118.38 212.2 124.3 212.2 124.3 L 210.3 124.3 Z M 227.9 118.6 C 227.9 116.5 228.5 114.9 229.7 113.9 C 230.6 113.1 231.8 112.6 233.3 112.6 C 234.8 112.6 236.1 113.2 237.1 114.2 C 238.1 115.2 238.6 116.6 238.6 118.4 C 238.6 119.9 238.4 121.1 237.9 121.9 C 237.5 122.7 236.9 123.4 236 123.9 C 235.2 124.3 234.3 124.6 233.3 124.6 C 231.7 124.6 230.4 124 229.4 123 C 228.4 122 227.9 120.5 227.9 118.6 Z M 229.9 118.6 C 229.9 120.1 230.2 121.2 230.8 121.9 C 231.5 122.6 232.3 123 233.3 123 C 234.2 123 235 122.6 235.7 121.9 C 236.3 121.1 236.6 120 236.6 118.5 C 236.6 117.1 236.3 116.1 235.6 115.3 C 235 114.6 234.2 114.2 233.3 114.2 C 232.3 114.2 231.5 114.6 230.8 115.3 C 230.2 116 229.9 117.1 229.9 118.6 Z M 240.8 124.3 L 240.8 112.9 L 242.6 112.9 C 242.6 112.9 242.58 114.62 242.6 114.6 C 243 113.8 243.4 113.3 243.8 113 C 244.2 112.8 244.6 112.6 245.1 112.6 C 245.7 112.6 246.4 112.8 247 113.3 C 247 113.3 246.4 115.1 246.4 115.1 C 245.9 114.8 245.4 114.6 245 114.6 C 244.5 114.6 244.2 114.8 243.8 115 C 243.5 115.3 243.2 115.6 243.1 116.1 C 242.9 116.8 242.8 117.5 242.8 118.3 C 242.77 118.33 242.8 124.3 242.8 124.3 L 240.8 124.3 Z M 256 120.6 C 256 120.6 258 120.9 258 120.9 C 257.7 122 257.1 123 256.2 123.6 C 255.4 124.2 254.3 124.6 253 124.6 C 251.3 124.6 250 124 249 123 C 248 122 247.5 120.6 247.5 118.7 C 247.5 116.8 248 115.3 249 114.2 C 250 113.2 251.3 112.6 252.9 112.6 C 254.4 112.6 255.6 113.2 256.6 114.2 C 257.6 115.2 258.1 116.7 258.1 118.6 C 258.1 118.7 258.1 118.9 258 119.1 C 258 119.1 249.5 119.1 249.5 119.1 C 249.6 120.3 250 121.3 250.6 122 C 251.2 122.6 252 123 253 123 C 253.7 123 254.3 122.8 254.8 122.4 C 255.3 122 255.7 121.4 256 120.6 Z M 249.6 117.5 C 249.6 117.5 256 117.5 256 117.5 C 255.9 116.5 255.7 115.8 255.3 115.3 C 254.7 114.6 253.9 114.2 252.9 114.2 C 252 114.2 251.3 114.5 250.7 115.1 C 250 115.7 249.7 116.5 249.6 117.5 Z M 266.5 124.3 L 266.5 112.9 L 268.3 112.9 C 268.3 112.9 268.26 114.5 268.3 114.5 C 268.6 113.9 269.1 113.5 269.7 113.1 C 270.3 112.8 271 112.6 271.7 112.6 C 272.6 112.6 273.3 112.8 273.8 113.2 C 274.3 113.5 274.7 114 274.9 114.6 C 275.8 113.3 277 112.6 278.5 112.6 C 279.6 112.6 280.5 113 281.1 113.6 C 281.7 114.2 282 115.2 282 116.5 C 281.99 116.47 282 124.3 282 124.3 L 280.1 124.3 C 280.1 124.3 280.07 117.12 280.1 117.1 C 280.1 116.3 280 115.8 279.9 115.4 C 279.8 115.1 279.5 114.8 279.2 114.6 C 278.9 114.4 278.5 114.3 278 114.3 C 277.2 114.3 276.6 114.6 276 115.1 C 275.5 115.6 275.2 116.5 275.2 117.7 C 275.25 117.68 275.2 124.3 275.2 124.3 L 273.3 124.3 C 273.3 124.3 273.31 116.89 273.3 116.9 C 273.3 116 273.2 115.4 272.8 115 C 272.5 114.5 272 114.3 271.3 114.3 C 270.7 114.3 270.2 114.5 269.8 114.7 C 269.3 115 269 115.4 268.8 116 C 268.6 116.6 268.5 117.3 268.5 118.4 C 268.47 118.38 268.5 124.3 268.5 124.3 L 266.5 124.3 Z M 292.7 124.3 C 292.5 123.9 292.4 123.4 292.3 122.9 C 291.6 123.5 290.9 123.9 290.2 124.2 C 289.6 124.4 288.9 124.6 288.1 124.6 C 286.9 124.6 285.9 124.3 285.2 123.6 C 284.5 123 284.2 122.2 284.2 121.3 C 284.2 120.7 284.3 120.2 284.6 119.8 C 284.8 119.3 285.2 118.9 285.6 118.7 C 286 118.4 286.5 118.2 287 118 C 287.4 117.9 287.9 117.8 288.7 117.7 C 290.3 117.5 291.4 117.3 292.1 117.1 C 292.2 116.8 292.2 116.6 292.2 116.6 C 292.2 115.8 292 115.2 291.6 114.9 C 291.1 114.5 290.4 114.2 289.4 114.2 C 288.5 114.2 287.8 114.4 287.4 114.7 C 287 115 286.6 115.6 286.4 116.4 C 286.4 116.4 284.5 116.2 284.5 116.2 C 284.7 115.3 285 114.7 285.4 114.2 C 285.8 113.7 286.4 113.3 287.1 113 C 287.8 112.8 288.7 112.6 289.7 112.6 C 290.7 112.6 291.4 112.8 292.1 113 C 292.7 113.2 293.1 113.5 293.4 113.8 C 293.7 114.2 293.9 114.6 294 115.2 C 294.1 115.5 294.1 116.1 294.1 116.9 C 294.1 116.9 294.1 119.5 294.1 119.5 C 294.1 121.3 294.1 122.5 294.2 122.9 C 294.3 123.4 294.5 123.9 294.7 124.3 C 294.71 124.3 292.7 124.3 292.7 124.3 C 292.7 124.3 292.69 124.3 292.7 124.3 Z M 292.1 118.6 C 291.4 118.9 290.4 119.1 289 119.3 C 288.2 119.4 287.6 119.6 287.3 119.7 C 287 119.8 286.7 120 286.5 120.3 C 286.4 120.6 286.3 120.9 286.3 121.2 C 286.3 121.8 286.5 122.2 286.9 122.5 C 287.2 122.9 287.8 123 288.6 123 C 289.3 123 290 122.9 290.6 122.6 C 291.1 122.2 291.6 121.8 291.8 121.2 C 292 120.8 292.1 120.1 292.1 119.3 C 292.1 119.3 292.1 118.6 292.1 118.6 Z M 300.5 122.6 C 300.7 122.6 301 122.6 301.3 122.6 C 301.3 122.6 301.6 124.3 301.6 124.3 C 301.1 124.4 300.6 124.5 300.1 124.5 C 299.4 124.5 298.9 124.3 298.5 124.1 C 298.1 123.9 297.8 123.6 297.7 123.2 C 297.5 122.9 297.5 122.1 297.5 121 C 297.45 120.96 297.5 114.4 297.5 114.4 L 296 114.4 L 296 112.9 L 297.5 112.9 L 297.5 110.1 L 299.4 108.9 L 299.4 112.9 L 301.3 112.9 L 301.3 114.4 L 299.4 114.4 C 299.4 114.4 299.37 121.07 299.4 121.1 C 299.4 121.6 299.4 122 299.5 122.1 C 299.5 122.3 299.7 122.4 299.8 122.5 C 300 122.6 300.2 122.6 300.5 122.6 C 300.5 122.6 300.5 122.6 300.5 122.6 Z M 310.7 124.3 C 310.7 124.3 310.69 122.63 310.7 122.6 C 309.8 123.9 308.6 124.6 307.1 124.6 C 306.4 124.6 305.8 124.4 305.2 124.2 C 304.6 123.9 304.2 123.6 303.9 123.2 C 303.6 122.8 303.4 122.3 303.3 121.8 C 303.2 121.4 303.2 120.8 303.2 120 C 303.17 119.96 303.2 112.9 303.2 112.9 L 305.1 112.9 C 305.1 112.9 305.1 119.22 305.1 119.2 C 305.1 120.2 305.1 120.9 305.2 121.3 C 305.3 121.8 305.6 122.2 306 122.5 C 306.4 122.8 306.9 122.9 307.5 122.9 C 308 122.9 308.6 122.7 309.1 122.5 C 309.6 122.2 310 121.7 310.2 121.2 C 310.4 120.7 310.5 120 310.5 119 C 310.48 119.01 310.5 112.9 310.5 112.9 L 312.4 112.9 L 312.4 124.3 L 310.7 124.3 Z M 315.4 124.3 L 315.4 112.9 L 317.2 112.9 C 317.2 112.9 317.16 114.62 317.2 114.6 C 317.6 113.8 318 113.3 318.4 113 C 318.8 112.8 319.2 112.6 319.6 112.6 C 320.3 112.6 320.9 112.8 321.6 113.3 C 321.6 113.3 321 115.1 321 115.1 C 320.5 114.8 320 114.6 319.5 114.6 C 319.1 114.6 318.7 114.8 318.4 115 C 318.1 115.3 317.8 115.6 317.7 116.1 C 317.5 116.8 317.4 117.5 317.4 118.3 C 317.36 118.33 317.4 124.3 317.4 124.3 L 315.4 124.3 Z M 330.6 120.6 C 330.6 120.6 332.6 120.9 332.6 120.9 C 332.3 122 331.7 123 330.8 123.6 C 330 124.2 328.9 124.6 327.6 124.6 C 325.9 124.6 324.6 124 323.6 123 C 322.6 122 322.1 120.6 322.1 118.7 C 322.1 116.8 322.6 115.3 323.6 114.2 C 324.6 113.2 325.9 112.6 327.5 112.6 C 329 112.6 330.2 113.2 331.2 114.2 C 332.2 115.2 332.6 116.7 332.6 118.6 C 332.6 118.7 332.6 118.9 332.6 119.1 C 332.6 119.1 324.1 119.1 324.1 119.1 C 324.2 120.3 324.5 121.3 325.2 122 C 325.8 122.6 326.6 123 327.6 123 C 328.3 123 328.9 122.8 329.4 122.4 C 329.9 122 330.3 121.4 330.6 120.6 Z M 324.2 117.5 C 324.2 117.5 330.6 117.5 330.6 117.5 C 330.5 116.5 330.3 115.8 329.9 115.3 C 329.3 114.6 328.5 114.2 327.5 114.2 C 326.6 114.2 325.8 114.5 325.2 115.1 C 324.6 115.7 324.3 116.5 324.2 117.5 Z " stroke="none" fill="#000"/>  </g>  <g id="Polygon7360">    <path d="M 11.6 97.9 L 11.6 82.2 L 13.7 82.2 L 13.7 97.9 L 11.6 97.9 Z M 24.5 97.9 C 24.5 97.9 24.5 96.46 24.5 96.5 C 23.8 97.6 22.7 98.2 21.3 98.2 C 20.4 98.2 19.6 97.9 18.8 97.4 C 18 96.9 17.4 96.2 17 95.3 C 16.6 94.4 16.4 93.4 16.4 92.2 C 16.4 91.1 16.6 90 17 89.1 C 17.3 88.2 17.9 87.5 18.7 87 C 19.4 86.5 20.3 86.2 21.2 86.2 C 21.9 86.2 22.5 86.4 23.1 86.7 C 23.6 87 24 87.3 24.4 87.8 C 24.37 87.81 24.4 82.2 24.4 82.2 L 26.3 82.2 L 26.3 97.9 L 24.5 97.9 Z M 18.4 92.2 C 18.4 93.7 18.7 94.8 19.3 95.5 C 19.9 96.2 20.7 96.6 21.5 96.6 C 22.3 96.6 23.1 96.2 23.6 95.5 C 24.2 94.8 24.5 93.8 24.5 92.4 C 24.5 90.8 24.2 89.7 23.6 88.9 C 23 88.2 22.3 87.8 21.4 87.8 C 20.5 87.8 19.8 88.2 19.2 88.9 C 18.7 89.6 18.4 90.7 18.4 92.2 Z M 37.1 94.2 C 37.1 94.2 39.1 94.5 39.1 94.5 C 38.8 95.6 38.2 96.6 37.4 97.2 C 36.5 97.8 35.4 98.2 34.1 98.2 C 32.5 98.2 31.1 97.6 30.2 96.6 C 29.2 95.6 28.7 94.2 28.7 92.3 C 28.7 90.4 29.2 88.9 30.2 87.8 C 31.2 86.8 32.4 86.2 34 86.2 C 35.5 86.2 36.8 86.8 37.8 87.8 C 38.7 88.8 39.2 90.3 39.2 92.2 C 39.2 92.3 39.2 92.5 39.2 92.7 C 39.2 92.7 30.7 92.7 30.7 92.7 C 30.8 93.9 31.1 94.9 31.7 95.6 C 32.4 96.2 33.2 96.6 34.1 96.6 C 34.8 96.6 35.4 96.4 35.9 96 C 36.4 95.6 36.8 95 37.1 94.2 Z M 30.8 91.1 C 30.8 91.1 37.2 91.1 37.2 91.1 C 37.1 90.1 36.8 89.4 36.4 88.9 C 35.8 88.2 35 87.8 34 87.8 C 33.1 87.8 32.4 88.1 31.8 88.7 C 31.2 89.3 30.9 90.1 30.8 91.1 Z M 49.4 97.9 C 49.2 97.5 49.1 97 49 96.5 C 48.3 97.1 47.6 97.5 46.9 97.8 C 46.3 98 45.6 98.2 44.8 98.2 C 43.6 98.2 42.6 97.9 41.9 97.2 C 41.2 96.6 40.9 95.8 40.9 94.9 C 40.9 94.3 41 93.8 41.3 93.4 C 41.5 92.9 41.9 92.5 42.3 92.3 C 42.7 92 43.2 91.8 43.7 91.6 C 44.1 91.5 44.6 91.4 45.4 91.3 C 47 91.1 48.1 90.9 48.8 90.7 C 48.9 90.4 48.9 90.2 48.9 90.2 C 48.9 89.4 48.7 88.8 48.3 88.5 C 47.8 88.1 47.1 87.8 46.1 87.8 C 45.2 87.8 44.5 88 44.1 88.3 C 43.7 88.6 43.3 89.2 43.1 90 C 43.1 90 41.2 89.8 41.2 89.8 C 41.4 88.9 41.7 88.3 42.1 87.8 C 42.5 87.3 43.1 86.9 43.8 86.6 C 44.5 86.4 45.4 86.2 46.4 86.2 C 47.4 86.2 48.2 86.4 48.8 86.6 C 49.4 86.8 49.8 87.1 50.1 87.4 C 50.4 87.8 50.6 88.2 50.7 88.8 C 50.8 89.1 50.8 89.7 50.8 90.5 C 50.8 90.5 50.8 93.1 50.8 93.1 C 50.8 94.9 50.8 96.1 50.9 96.5 C 51 97 51.2 97.5 51.4 97.9 C 51.42 97.9 49.4 97.9 49.4 97.9 C 49.4 97.9 49.4 97.9 49.4 97.9 Z M 48.8 92.2 C 48.1 92.5 47.1 92.7 45.7 92.9 C 44.9 93 44.3 93.2 44 93.3 C 43.7 93.4 43.4 93.6 43.2 93.9 C 43.1 94.2 43 94.5 43 94.8 C 43 95.4 43.2 95.8 43.6 96.1 C 43.9 96.5 44.5 96.6 45.3 96.6 C 46 96.6 46.7 96.5 47.3 96.2 C 47.8 95.8 48.3 95.4 48.5 94.8 C 48.7 94.4 48.8 93.7 48.8 92.9 C 48.8 92.9 48.8 92.2 48.8 92.2 Z M 53.8 97.9 L 53.8 82.2 L 55.7 82.2 L 55.7 97.9 L 53.8 97.9 Z M 65.3 97.9 L 65.3 88 L 63.6 88 L 63.6 86.5 L 65.3 86.5 C 65.3 86.5 65.26 85.28 65.3 85.3 C 65.3 84.5 65.3 83.9 65.5 83.6 C 65.7 83.1 66 82.7 66.5 82.4 C 66.9 82 67.6 81.9 68.4 81.9 C 69 81.9 69.6 82 70.2 82.1 C 70.2 82.1 69.9 83.8 69.9 83.8 C 69.5 83.7 69.2 83.7 68.8 83.7 C 68.2 83.7 67.8 83.8 67.6 84 C 67.3 84.3 67.2 84.8 67.2 85.4 C 67.19 85.44 67.2 86.5 67.2 86.5 L 69.4 86.5 L 69.4 88 L 67.2 88 L 67.2 97.9 L 65.3 97.9 Z M 70.2 92.2 C 70.2 90.1 70.8 88.5 72 87.5 C 72.9 86.7 74.1 86.2 75.5 86.2 C 77.1 86.2 78.4 86.8 79.4 87.8 C 80.4 88.8 80.9 90.2 80.9 92 C 80.9 93.5 80.7 94.7 80.2 95.5 C 79.8 96.3 79.1 97 78.3 97.5 C 77.5 97.9 76.5 98.2 75.5 98.2 C 73.9 98.2 72.7 97.6 71.7 96.6 C 70.7 95.6 70.2 94.1 70.2 92.2 Z M 72.2 92.2 C 72.2 93.7 72.5 94.8 73.1 95.5 C 73.8 96.2 74.6 96.6 75.5 96.6 C 76.5 96.6 77.3 96.2 77.9 95.5 C 78.6 94.7 78.9 93.6 78.9 92.1 C 78.9 90.7 78.6 89.7 77.9 88.9 C 77.3 88.2 76.5 87.8 75.5 87.8 C 74.6 87.8 73.8 88.2 73.1 88.9 C 72.5 89.6 72.2 90.7 72.2 92.2 Z M 83.1 97.9 L 83.1 86.5 L 84.9 86.5 C 84.9 86.5 84.87 88.22 84.9 88.2 C 85.3 87.4 85.7 86.9 86.1 86.6 C 86.5 86.4 86.9 86.2 87.3 86.2 C 88 86.2 88.7 86.4 89.3 86.9 C 89.3 86.9 88.7 88.7 88.7 88.7 C 88.2 88.4 87.7 88.2 87.2 88.2 C 86.8 88.2 86.4 88.4 86.1 88.6 C 85.8 88.9 85.5 89.2 85.4 89.7 C 85.2 90.4 85.1 91.1 85.1 91.9 C 85.06 91.93 85.1 97.9 85.1 97.9 L 83.1 97.9 Z M 96.6 97.9 L 96.6 82.2 L 98.5 82.2 C 98.5 82.2 98.52 87.81 98.5 87.8 C 99.4 86.8 100.6 86.2 101.9 86.2 C 102.8 86.2 103.5 86.4 104.1 86.7 C 104.8 87.1 105.2 87.5 105.5 88.1 C 105.7 88.7 105.9 89.6 105.9 90.7 C 105.88 90.67 105.9 97.9 105.9 97.9 L 103.9 97.9 C 103.9 97.9 103.95 90.67 103.9 90.7 C 103.9 89.7 103.7 89 103.3 88.6 C 102.9 88.1 102.3 87.9 101.5 87.9 C 101 87.9 100.4 88.1 99.9 88.3 C 99.4 88.6 99.1 89 98.8 89.6 C 98.6 90.1 98.5 90.8 98.5 91.7 C 98.52 91.66 98.5 97.9 98.5 97.9 L 96.6 97.9 Z M 108.8 84.4 L 108.8 82.2 L 110.8 82.2 L 110.8 84.4 L 108.8 84.4 Z M 108.8 97.9 L 108.8 86.5 L 110.8 86.5 L 110.8 97.9 L 108.8 97.9 Z M 113.4 98.8 C 113.4 98.8 115.2 99.1 115.2 99.1 C 115.3 99.7 115.5 100.1 115.9 100.4 C 116.4 100.8 117 100.9 117.9 100.9 C 118.8 100.9 119.4 100.8 119.9 100.4 C 120.4 100 120.7 99.5 120.9 98.9 C 121 98.5 121.1 97.7 121.1 96.4 C 120.2 97.4 119.2 97.9 117.9 97.9 C 116.3 97.9 115.1 97.3 114.3 96.2 C 113.4 95.1 113 93.7 113 92.1 C 113 91 113.2 90 113.6 89.1 C 114 88.2 114.5 87.5 115.3 87 C 116 86.5 116.9 86.2 117.9 86.2 C 119.3 86.2 120.4 86.8 121.2 87.9 C 121.24 87.87 121.2 86.5 121.2 86.5 L 123 86.5 C 123 86.5 123.02 96.36 123 96.4 C 123 98.1 122.8 99.4 122.5 100.1 C 122.1 100.9 121.5 101.5 120.8 101.9 C 120 102.3 119 102.5 117.9 102.5 C 116.5 102.5 115.4 102.2 114.6 101.6 C 113.7 101 113.3 100.1 113.4 98.8 Z M 115 92 C 115 93.5 115.3 94.6 115.8 95.3 C 116.4 96 117.2 96.3 118.1 96.3 C 119 96.3 119.7 96 120.3 95.3 C 120.9 94.6 121.2 93.5 121.2 92.1 C 121.2 90.7 120.9 89.6 120.3 88.9 C 119.7 88.2 118.9 87.8 118.1 87.8 C 117.2 87.8 116.5 88.2 115.9 88.9 C 115.3 89.6 115 90.6 115 92 Z M 125.9 97.9 L 125.9 82.2 L 127.9 82.2 C 127.9 82.2 127.88 87.81 127.9 87.8 C 128.8 86.8 129.9 86.2 131.3 86.2 C 132.1 86.2 132.9 86.4 133.5 86.7 C 134.1 87.1 134.6 87.5 134.8 88.1 C 135.1 88.7 135.2 89.6 135.2 90.7 C 135.24 90.67 135.2 97.9 135.2 97.9 L 133.3 97.9 C 133.3 97.9 133.3 90.67 133.3 90.7 C 133.3 89.7 133.1 89 132.7 88.6 C 132.3 88.1 131.7 87.9 130.9 87.9 C 130.3 87.9 129.8 88.1 129.3 88.3 C 128.8 88.6 128.4 89 128.2 89.6 C 128 90.1 127.9 90.8 127.9 91.7 C 127.88 91.66 127.9 97.9 127.9 97.9 L 125.9 97.9 Z M 146 94.2 C 146 94.2 148 94.5 148 94.5 C 147.7 95.6 147.1 96.6 146.2 97.2 C 145.4 97.8 144.3 98.2 143 98.2 C 141.3 98.2 140 97.6 139 96.6 C 138 95.6 137.5 94.2 137.5 92.3 C 137.5 90.4 138 88.9 139 87.8 C 140 86.8 141.3 86.2 142.9 86.2 C 144.4 86.2 145.6 86.8 146.6 87.8 C 147.6 88.8 148.1 90.3 148.1 92.2 C 148.1 92.3 148.1 92.5 148 92.7 C 148 92.7 139.5 92.7 139.5 92.7 C 139.6 93.9 140 94.9 140.6 95.6 C 141.2 96.2 142 96.6 143 96.6 C 143.7 96.6 144.3 96.4 144.8 96 C 145.3 95.6 145.7 95 146 94.2 Z M 139.6 91.1 C 139.6 91.1 146 91.1 146 91.1 C 145.9 90.1 145.7 89.4 145.3 88.9 C 144.7 88.2 143.9 87.8 142.9 87.8 C 142 87.8 141.3 88.1 140.6 88.7 C 140 89.3 139.7 90.1 139.6 91.1 Z M 150.4 97.9 L 150.4 86.5 L 152.1 86.5 C 152.1 86.5 152.14 88.22 152.1 88.2 C 152.6 87.4 153 86.9 153.4 86.6 C 153.7 86.4 154.2 86.2 154.6 86.2 C 155.3 86.2 155.9 86.4 156.6 86.9 C 156.6 86.9 155.9 88.7 155.9 88.7 C 155.5 88.4 155 88.2 154.5 88.2 C 154.1 88.2 153.7 88.4 153.4 88.6 C 153 88.9 152.8 89.2 152.7 89.7 C 152.4 90.4 152.3 91.1 152.3 91.9 C 152.33 91.93 152.3 97.9 152.3 97.9 L 150.4 97.9 Z M 157 93.2 L 157 91.2 L 162.9 91.2 L 162.9 93.2 L 157 93.2 Z M 165.1 102.3 L 165.1 86.5 L 166.8 86.5 C 166.8 86.5 166.83 87.98 166.8 88 C 167.2 87.4 167.7 87 168.2 86.7 C 168.8 86.4 169.4 86.2 170.1 86.2 C 171.1 86.2 172 86.5 172.7 87 C 173.5 87.5 174 88.2 174.4 89.1 C 174.8 90 175 91 175 92.1 C 175 93.3 174.8 94.3 174.3 95.3 C 173.9 96.2 173.3 96.9 172.5 97.4 C 171.7 97.9 170.9 98.2 170 98.2 C 169.4 98.2 168.8 98 168.3 97.8 C 167.8 97.5 167.3 97.1 167 96.7 C 167 96.72 167 102.3 167 102.3 L 165.1 102.3 Z M 166.8 92.3 C 166.8 93.7 167.1 94.8 167.7 95.5 C 168.3 96.2 169 96.6 169.9 96.6 C 170.7 96.6 171.5 96.2 172.1 95.5 C 172.7 94.8 173 93.6 173 92.1 C 173 90.6 172.7 89.6 172.1 88.8 C 171.5 88.1 170.8 87.8 170 87.8 C 169.1 87.8 168.4 88.1 167.8 88.9 C 167.1 89.7 166.8 90.8 166.8 92.3 Z M 185.1 94.2 C 185.1 94.2 187.1 94.5 187.1 94.5 C 186.8 95.6 186.2 96.6 185.4 97.2 C 184.5 97.8 183.4 98.2 182.1 98.2 C 180.4 98.2 179.1 97.6 178.1 96.6 C 177.1 95.6 176.7 94.2 176.7 92.3 C 176.7 90.4 177.2 88.9 178.1 87.8 C 179.1 86.8 180.4 86.2 182 86.2 C 183.5 86.2 184.8 86.8 185.7 87.8 C 186.7 88.8 187.2 90.3 187.2 92.2 C 187.2 92.3 187.2 92.5 187.2 92.7 C 187.2 92.7 178.7 92.7 178.7 92.7 C 178.7 93.9 179.1 94.9 179.7 95.6 C 180.4 96.2 181.2 96.6 182.1 96.6 C 182.8 96.6 183.4 96.4 183.9 96 C 184.4 95.6 184.8 95 185.1 94.2 Z M 178.8 91.1 C 178.8 91.1 185.1 91.1 185.1 91.1 C 185 90.1 184.8 89.4 184.4 88.9 C 183.8 88.2 183 87.8 182 87.8 C 181.1 87.8 180.4 88.1 179.8 88.7 C 179.2 89.3 178.8 90.1 178.8 91.1 Z M 189.5 97.9 L 189.5 86.5 L 191.3 86.5 C 191.3 86.5 191.26 88.22 191.3 88.2 C 191.7 87.4 192.1 86.9 192.5 86.6 C 192.9 86.4 193.3 86.2 193.7 86.2 C 194.4 86.2 195 86.4 195.7 86.9 C 195.7 86.9 195.1 88.7 195.1 88.7 C 194.6 88.4 194.1 88.2 193.6 88.2 C 193.2 88.2 192.8 88.4 192.5 88.6 C 192.2 88.9 191.9 89.2 191.8 89.7 C 191.6 90.4 191.5 91.1 191.5 91.9 C 191.45 91.93 191.5 97.9 191.5 97.9 L 189.5 97.9 Z M 197.3 97.9 L 197.3 88 L 195.6 88 L 195.6 86.5 L 197.3 86.5 C 197.3 86.5 197.33 85.28 197.3 85.3 C 197.3 84.5 197.4 83.9 197.5 83.6 C 197.7 83.1 198 82.7 198.5 82.4 C 199 82 199.6 81.9 200.5 81.9 C 201 81.9 201.6 82 202.3 82.1 C 202.3 82.1 202 83.8 202 83.8 C 201.6 83.7 201.2 83.7 200.9 83.7 C 200.3 83.7 199.9 83.8 199.6 84 C 199.4 84.3 199.3 84.8 199.3 85.4 C 199.25 85.44 199.3 86.5 199.3 86.5 L 201.5 86.5 L 201.5 88 L 199.3 88 L 199.3 97.9 L 197.3 97.9 Z M 202.3 92.2 C 202.3 90.1 202.8 88.5 204 87.5 C 205 86.7 206.2 86.2 207.6 86.2 C 209.2 86.2 210.5 86.8 211.5 87.8 C 212.4 88.8 212.9 90.2 212.9 92 C 212.9 93.5 212.7 94.7 212.3 95.5 C 211.8 96.3 211.2 97 210.4 97.5 C 209.5 97.9 208.6 98.2 207.6 98.2 C 206 98.2 204.7 97.6 203.7 96.6 C 202.8 95.6 202.3 94.1 202.3 92.2 Z M 204.2 92.2 C 204.2 93.7 204.6 94.8 205.2 95.5 C 205.8 96.2 206.6 96.6 207.6 96.6 C 208.6 96.6 209.4 96.2 210 95.5 C 210.6 94.7 211 93.6 211 92.1 C 211 90.7 210.6 89.7 210 88.9 C 209.4 88.2 208.6 87.8 207.6 87.8 C 206.6 87.8 205.8 88.2 205.2 88.9 C 204.6 89.6 204.2 90.7 204.2 92.2 Z M 215.2 97.9 L 215.2 86.5 L 216.9 86.5 C 216.9 86.5 216.93 88.22 216.9 88.2 C 217.4 87.4 217.8 86.9 218.2 86.6 C 218.5 86.4 219 86.2 219.4 86.2 C 220.1 86.2 220.7 86.4 221.4 86.9 C 221.4 86.9 220.7 88.7 220.7 88.7 C 220.3 88.4 219.8 88.2 219.3 88.2 C 218.9 88.2 218.5 88.4 218.2 88.6 C 217.8 88.9 217.6 89.2 217.4 89.7 C 217.2 90.4 217.1 91.1 217.1 91.9 C 217.13 91.93 217.1 97.9 217.1 97.9 L 215.2 97.9 Z M 222.5 97.9 L 222.5 86.5 L 224.3 86.5 C 224.3 86.5 224.27 88.1 224.3 88.1 C 224.6 87.5 225.1 87.1 225.7 86.7 C 226.3 86.4 227 86.2 227.7 86.2 C 228.6 86.2 229.3 86.4 229.8 86.8 C 230.3 87.1 230.7 87.6 231 88.2 C 231.9 86.9 233 86.2 234.5 86.2 C 235.6 86.2 236.5 86.6 237.1 87.2 C 237.7 87.8 238 88.8 238 90.1 C 238 90.07 238 97.9 238 97.9 L 236.1 97.9 C 236.1 97.9 236.08 90.72 236.1 90.7 C 236.1 89.9 236 89.4 235.9 89 C 235.8 88.7 235.5 88.4 235.2 88.2 C 234.9 88 234.5 87.9 234 87.9 C 233.2 87.9 232.6 88.2 232 88.7 C 231.5 89.2 231.3 90.1 231.3 91.3 C 231.25 91.28 231.3 97.9 231.3 97.9 L 229.3 97.9 C 229.3 97.9 229.32 90.49 229.3 90.5 C 229.3 89.6 229.2 89 228.8 88.6 C 228.5 88.1 228 87.9 227.3 87.9 C 226.8 87.9 226.3 88.1 225.8 88.3 C 225.3 88.6 225 89 224.8 89.6 C 224.6 90.2 224.5 90.9 224.5 92 C 224.47 91.98 224.5 97.9 224.5 97.9 L 222.5 97.9 Z M 240.9 84.4 L 240.9 82.2 L 242.8 82.2 L 242.8 84.4 L 240.9 84.4 Z M 240.9 97.9 L 240.9 86.5 L 242.8 86.5 L 242.8 97.9 L 240.9 97.9 Z M 245.8 97.9 L 245.8 86.5 L 247.5 86.5 C 247.5 86.5 247.49 88.12 247.5 88.1 C 248.3 86.9 249.5 86.2 251.1 86.2 C 251.8 86.2 252.4 86.4 253 86.6 C 253.6 86.9 254 87.2 254.3 87.6 C 254.6 88 254.8 88.5 254.9 89 C 255 89.4 255 90 255 90.9 C 255.02 90.89 255 97.9 255 97.9 L 253.1 97.9 C 253.1 97.9 253.09 90.96 253.1 91 C 253.1 90.2 253 89.6 252.9 89.2 C 252.7 88.8 252.4 88.5 252.1 88.3 C 251.7 88 251.2 87.9 250.7 87.9 C 249.9 87.9 249.2 88.2 248.6 88.7 C 248 89.2 247.7 90.2 247.7 91.7 C 247.69 91.67 247.7 97.9 247.7 97.9 L 245.8 97.9 Z M 257.6 98.8 C 257.6 98.8 259.5 99.1 259.5 99.1 C 259.6 99.7 259.8 100.1 260.2 100.4 C 260.6 100.8 261.3 100.9 262.1 100.9 C 263 100.9 263.7 100.8 264.2 100.4 C 264.7 100 265 99.5 265.2 98.9 C 265.3 98.5 265.3 97.7 265.3 96.4 C 264.5 97.4 263.4 97.9 262.2 97.9 C 260.6 97.9 259.4 97.3 258.5 96.2 C 257.7 95.1 257.2 93.7 257.2 92.1 C 257.2 91 257.4 90 257.8 89.1 C 258.2 88.2 258.8 87.5 259.6 87 C 260.3 86.5 261.2 86.2 262.2 86.2 C 263.5 86.2 264.6 86.8 265.5 87.9 C 265.52 87.87 265.5 86.5 265.5 86.5 L 267.3 86.5 C 267.3 86.5 267.3 96.36 267.3 96.4 C 267.3 98.1 267.1 99.4 266.8 100.1 C 266.4 100.9 265.8 101.5 265 101.9 C 264.3 102.3 263.3 102.5 262.1 102.5 C 260.8 102.5 259.7 102.2 258.8 101.6 C 258 101 257.6 100.1 257.6 98.8 Z M 259.2 92 C 259.2 93.5 259.5 94.6 260.1 95.3 C 260.7 96 261.5 96.3 262.4 96.3 C 263.2 96.3 264 96 264.6 95.3 C 265.2 94.6 265.5 93.5 265.5 92.1 C 265.5 90.7 265.2 89.6 264.6 88.9 C 263.9 88.2 263.2 87.8 262.3 87.8 C 261.5 87.8 260.7 88.2 260.1 88.9 C 259.5 89.6 259.2 90.6 259.2 92 Z M 276.3 97.9 L 276.3 82.2 L 278.2 82.2 L 278.2 97.9 L 276.3 97.9 Z M 289 94.2 C 289 94.2 291 94.5 291 94.5 C 290.7 95.6 290.1 96.6 289.3 97.2 C 288.4 97.8 287.3 98.2 286 98.2 C 284.3 98.2 283 97.6 282 96.6 C 281.1 95.6 280.6 94.2 280.6 92.3 C 280.6 90.4 281.1 88.9 282.1 87.8 C 283.1 86.8 284.3 86.2 285.9 86.2 C 287.4 86.2 288.7 86.8 289.6 87.8 C 290.6 88.8 291.1 90.3 291.1 92.2 C 291.1 92.3 291.1 92.5 291.1 92.7 C 291.1 92.7 282.6 92.7 282.6 92.7 C 282.6 93.9 283 94.9 283.6 95.6 C 284.3 96.2 285.1 96.6 286 96.6 C 286.7 96.6 287.3 96.4 287.8 96 C 288.3 95.6 288.7 95 289 94.2 Z M 282.7 91.1 C 282.7 91.1 289.1 91.1 289.1 91.1 C 289 90.1 288.7 89.4 288.3 88.9 C 287.7 88.2 286.9 87.8 285.9 87.8 C 285 87.8 284.3 88.1 283.7 88.7 C 283.1 89.3 282.7 90.1 282.7 91.1 Z M 301.3 97.9 C 301.1 97.5 301 97 300.9 96.5 C 300.2 97.1 299.5 97.5 298.8 97.8 C 298.2 98 297.5 98.2 296.7 98.2 C 295.5 98.2 294.5 97.9 293.8 97.2 C 293.1 96.6 292.8 95.8 292.8 94.9 C 292.8 94.3 292.9 93.8 293.2 93.4 C 293.4 92.9 293.8 92.5 294.2 92.3 C 294.6 92 295.1 91.8 295.6 91.6 C 296 91.5 296.5 91.4 297.3 91.3 C 298.9 91.1 300 90.9 300.7 90.7 C 300.8 90.4 300.8 90.2 300.8 90.2 C 300.8 89.4 300.6 88.8 300.2 88.5 C 299.7 88.1 299 87.8 298 87.8 C 297.1 87.8 296.4 88 296 88.3 C 295.6 88.6 295.2 89.2 295 90 C 295 90 293.1 89.8 293.1 89.8 C 293.3 88.9 293.6 88.3 294 87.8 C 294.4 87.3 294.9 86.9 295.7 86.6 C 296.4 86.4 297.3 86.2 298.3 86.2 C 299.3 86.2 300 86.4 300.7 86.6 C 301.3 86.8 301.7 87.1 302 87.4 C 302.3 87.8 302.5 88.2 302.6 88.8 C 302.7 89.1 302.7 89.7 302.7 90.5 C 302.7 90.5 302.7 93.1 302.7 93.1 C 302.7 94.9 302.7 96.1 302.8 96.5 C 302.9 97 303.1 97.5 303.3 97.9 C 303.31 97.9 301.3 97.9 301.3 97.9 C 301.3 97.9 301.29 97.9 301.3 97.9 Z M 300.7 92.2 C 300 92.5 299 92.7 297.6 92.9 C 296.8 93 296.2 93.2 295.9 93.3 C 295.6 93.4 295.3 93.6 295.1 93.9 C 295 94.2 294.9 94.5 294.9 94.8 C 294.9 95.4 295.1 95.8 295.5 96.1 C 295.8 96.5 296.4 96.6 297.2 96.6 C 297.9 96.6 298.6 96.5 299.2 96.2 C 299.7 95.8 300.2 95.4 300.4 94.8 C 300.6 94.4 300.7 93.7 300.7 92.9 C 300.7 92.9 300.7 92.2 300.7 92.2 Z M 305.7 97.9 L 305.7 86.5 L 307.4 86.5 C 307.4 86.5 307.41 88.22 307.4 88.2 C 307.9 87.4 308.3 86.9 308.6 86.6 C 309 86.4 309.4 86.2 309.9 86.2 C 310.5 86.2 311.2 86.4 311.9 86.9 C 311.9 86.9 311.2 88.7 311.2 88.7 C 310.7 88.4 310.3 88.2 309.8 88.2 C 309.4 88.2 309 88.4 308.6 88.6 C 308.3 88.9 308.1 89.2 307.9 89.7 C 307.7 90.4 307.6 91.1 307.6 91.9 C 307.61 91.93 307.6 97.9 307.6 97.9 L 305.7 97.9 Z M 313 97.9 L 313 86.5 L 314.8 86.5 C 314.8 86.5 314.76 88.12 314.8 88.1 C 315.6 86.9 316.8 86.2 318.4 86.2 C 319.1 86.2 319.7 86.4 320.3 86.6 C 320.9 86.9 321.3 87.2 321.6 87.6 C 321.9 88 322.1 88.5 322.2 89 C 322.3 89.4 322.3 90 322.3 90.9 C 322.29 90.89 322.3 97.9 322.3 97.9 L 320.4 97.9 C 320.4 97.9 320.36 90.96 320.4 91 C 320.4 90.2 320.3 89.6 320.1 89.2 C 320 88.8 319.7 88.5 319.3 88.3 C 318.9 88 318.5 87.9 318 87.9 C 317.2 87.9 316.4 88.2 315.9 88.7 C 315.3 89.2 315 90.2 315 91.7 C 314.96 91.67 315 97.9 315 97.9 L 313 97.9 Z M 333.1 94.2 C 333.1 94.2 335.1 94.5 335.1 94.5 C 334.7 95.6 334.2 96.6 333.3 97.2 C 332.5 97.8 331.4 98.2 330 98.2 C 328.4 98.2 327.1 97.6 326.1 96.6 C 325.1 95.6 324.6 94.2 324.6 92.3 C 324.6 90.4 325.1 88.9 326.1 87.8 C 327.1 86.8 328.4 86.2 329.9 86.2 C 331.5 86.2 332.7 86.8 333.7 87.8 C 334.6 88.8 335.1 90.3 335.1 92.2 C 335.1 92.3 335.1 92.5 335.1 92.7 C 335.1 92.7 326.6 92.7 326.6 92.7 C 326.7 93.9 327 94.9 327.7 95.6 C 328.3 96.2 329.1 96.6 330.1 96.6 C 330.8 96.6 331.4 96.4 331.9 96 C 332.4 95.6 332.8 95 333.1 94.2 Z M 326.7 91.1 C 326.7 91.1 333.1 91.1 333.1 91.1 C 333 90.1 332.8 89.4 332.4 88.9 C 331.7 88.2 330.9 87.8 330 87.8 C 329.1 87.8 328.3 88.1 327.7 88.7 C 327.1 89.3 326.8 90.1 326.7 91.1 Z M 337.5 97.9 L 337.5 86.5 L 339.2 86.5 C 339.2 86.5 339.21 88.22 339.2 88.2 C 339.7 87.4 340.1 86.9 340.4 86.6 C 340.8 86.4 341.2 86.2 341.7 86.2 C 342.3 86.2 343 86.4 343.7 86.9 C 343.7 86.9 343 88.7 343 88.7 C 342.5 88.4 342.1 88.2 341.6 88.2 C 341.2 88.2 340.8 88.4 340.4 88.6 C 340.1 88.9 339.9 89.2 339.7 89.7 C 339.5 90.4 339.4 91.1 339.4 91.9 C 339.4 91.93 339.4 97.9 339.4 97.9 L 337.5 97.9 Z M 344 94.5 C 344 94.5 346 94.2 346 94.2 C 346.1 95 346.4 95.6 346.9 96 C 347.3 96.4 348 96.6 348.9 96.6 C 349.8 96.6 350.5 96.4 350.9 96 C 351.3 95.7 351.5 95.2 351.5 94.8 C 351.5 94.3 351.3 94 351 93.7 C 350.7 93.6 350 93.3 349 93.1 C 347.6 92.7 346.6 92.4 346 92.1 C 345.5 91.9 345.1 91.5 344.8 91.1 C 344.5 90.6 344.4 90.1 344.4 89.5 C 344.4 89 344.5 88.5 344.7 88.1 C 344.9 87.7 345.3 87.3 345.7 87 C 346 86.8 346.4 86.6 346.9 86.5 C 347.4 86.3 348 86.2 348.6 86.2 C 349.5 86.2 350.2 86.4 350.9 86.6 C 351.6 86.9 352.1 87.2 352.4 87.7 C 352.7 88.1 353 88.7 353.1 89.4 C 353.1 89.4 351.2 89.7 351.2 89.7 C 351.1 89.1 350.9 88.7 350.5 88.3 C 350 88 349.5 87.8 348.7 87.8 C 347.8 87.8 347.2 88 346.8 88.3 C 346.4 88.6 346.2 88.9 346.2 89.3 C 346.2 89.5 346.3 89.8 346.5 90 C 346.6 90.2 346.9 90.4 347.2 90.5 C 347.4 90.6 348 90.7 348.9 91 C 350.3 91.4 351.2 91.6 351.8 91.9 C 352.3 92.1 352.7 92.5 353.1 92.9 C 353.4 93.3 353.5 93.9 353.5 94.6 C 353.5 95.2 353.3 95.8 353 96.4 C 352.6 96.9 352 97.4 351.3 97.7 C 350.6 98 349.8 98.2 348.9 98.2 C 347.4 98.2 346.3 97.9 345.5 97.2 C 344.8 96.6 344.3 95.7 344 94.5 Z " stroke="none" fill="#000"/>  </g>  <g id="Polygon7359">    <path d="M 65.3 63 L 61 55.4 L 59.1 55.4 L 59.1 63 L 55.2 63 L 55.2 43.5 C 55.2 43.5 62.52 43.46 62.5 43.5 C 64 43.5 65.3 43.7 66.4 44.3 C 67.4 44.8 68.2 45.5 68.8 46.4 C 69.3 47.3 69.6 48.3 69.6 49.4 C 69.6 50.7 69.2 51.9 68.5 52.9 C 67.7 54 66.6 54.7 65.1 55.1 C 65.12 55.08 69.8 63 69.8 63 L 65.3 63 Z M 59.1 52.4 C 59.1 52.4 62.38 52.44 62.4 52.4 C 63.4 52.4 64.2 52.2 64.8 51.7 C 65.3 51.2 65.5 50.4 65.5 49.5 C 65.5 48.6 65.3 47.9 64.8 47.4 C 64.2 47 63.4 46.7 62.4 46.7 C 62.38 46.7 59.1 46.7 59.1 46.7 L 59.1 52.4 Z M 87.6 54.9 C 87.6 55.5 87.5 56 87.4 56.4 C 87.4 56.4 76.1 56.4 76.1 56.4 C 76.2 57.5 76.6 58.4 77.3 59.1 C 78 59.7 78.8 60 79.8 60 C 81.3 60 82.3 59.4 82.9 58.1 C 82.9 58.1 87.2 58.1 87.2 58.1 C 86.7 59.6 85.9 60.8 84.6 61.8 C 83.3 62.8 81.8 63.3 79.9 63.3 C 78.4 63.3 77.1 62.9 75.9 62.3 C 74.7 61.6 73.8 60.7 73.1 59.4 C 72.5 58.2 72.1 56.8 72.1 55.2 C 72.1 53.6 72.4 52.2 73.1 51 C 73.8 49.8 74.7 48.9 75.8 48.2 C 77 47.6 78.4 47.2 79.9 47.2 C 81.4 47.2 82.7 47.6 83.9 48.2 C 85 48.8 85.9 49.7 86.6 50.9 C 87.2 52.1 87.6 53.4 87.6 54.9 C 87.6 54.9 87.6 54.9 87.6 54.9 Z M 83.5 53.8 C 83.5 52.8 83.1 52 82.4 51.4 C 81.7 50.8 80.8 50.5 79.8 50.5 C 78.8 50.5 78 50.7 77.3 51.3 C 76.7 51.9 76.3 52.7 76.1 53.8 C 76.1 53.8 83.5 53.8 83.5 53.8 Z M 89.4 55.2 C 89.4 53.6 89.7 52.2 90.4 51 C 91 49.8 91.9 48.9 93.1 48.2 C 94.3 47.6 95.6 47.2 97.1 47.2 C 99 47.2 100.6 47.7 101.8 48.7 C 103.1 49.6 103.9 51 104.4 52.7 C 104.4 52.7 100.1 52.7 100.1 52.7 C 99.9 52.1 99.5 51.5 99 51.1 C 98.5 50.8 97.8 50.6 97 50.6 C 95.9 50.6 95 51 94.4 51.8 C 93.7 52.6 93.4 53.8 93.4 55.2 C 93.4 56.7 93.7 57.9 94.4 58.7 C 95 59.5 95.9 59.9 97 59.9 C 98.6 59.9 99.7 59.2 100.1 57.8 C 100.1 57.8 104.4 57.8 104.4 57.8 C 103.9 59.4 103.1 60.8 101.8 61.8 C 100.6 62.8 99 63.3 97.1 63.3 C 95.6 63.3 94.3 62.9 93.1 62.3 C 91.9 61.6 91 60.7 90.4 59.5 C 89.7 58.3 89.4 56.8 89.4 55.2 C 89.4 55.2 89.4 55.2 89.4 55.2 Z M 114.1 63.3 C 112.7 63.3 111.3 62.9 110.1 62.3 C 108.9 61.6 108 60.7 107.3 59.4 C 106.6 58.2 106.3 56.8 106.3 55.2 C 106.3 53.7 106.6 52.3 107.3 51 C 108 49.8 109 48.9 110.2 48.2 C 111.4 47.6 112.8 47.2 114.3 47.2 C 115.8 47.2 117.1 47.6 118.3 48.2 C 119.5 48.9 120.5 49.8 121.2 51 C 121.9 52.3 122.2 53.7 122.2 55.2 C 122.2 56.8 121.9 58.2 121.2 59.4 C 120.4 60.7 119.5 61.6 118.3 62.3 C 117 62.9 115.7 63.3 114.1 63.3 C 114.1 63.3 114.1 63.3 114.1 63.3 Z M 114.1 59.8 C 114.9 59.8 115.5 59.7 116.2 59.3 C 116.8 59 117.3 58.5 117.6 57.8 C 118 57.1 118.2 56.2 118.2 55.2 C 118.2 53.8 117.8 52.6 117 51.8 C 116.3 51 115.3 50.7 114.2 50.7 C 113.1 50.7 112.1 51 111.4 51.8 C 110.6 52.6 110.3 53.8 110.3 55.2 C 110.3 56.7 110.6 57.9 111.4 58.6 C 112.1 59.4 113 59.8 114.1 59.8 C 114.1 59.8 114.1 59.8 114.1 59.8 Z M 144.4 47.3 C 146.3 47.3 147.8 47.8 149 49 C 150.2 50.2 150.7 51.8 150.7 53.9 C 150.75 53.9 150.7 63 150.7 63 L 146.8 63 C 146.8 63 146.83 54.43 146.8 54.4 C 146.8 53.2 146.5 52.3 145.9 51.6 C 145.3 51 144.4 50.7 143.4 50.7 C 142.3 50.7 141.5 51 140.8 51.6 C 140.2 52.3 139.9 53.2 139.9 54.4 C 139.91 54.43 139.9 63 139.9 63 L 136 63 C 136 63 135.99 54.43 136 54.4 C 136 53.2 135.7 52.3 135.1 51.6 C 134.4 51 133.6 50.7 132.5 50.7 C 131.5 50.7 130.6 51 130 51.6 C 129.4 52.3 129 53.2 129 54.4 C 129.05 54.43 129 63 129 63 L 125.1 63 L 125.1 47.5 L 129 47.5 C 129 47.5 129.05 49.36 129 49.4 C 129.5 48.7 130.2 48.2 131 47.8 C 131.8 47.5 132.7 47.3 133.6 47.3 C 134.8 47.3 135.9 47.5 136.9 48 C 137.8 48.5 138.5 49.3 139.1 50.2 C 139.6 49.3 140.3 48.6 141.3 48.1 C 142.2 47.5 143.3 47.3 144.4 47.3 C 144.4 47.3 144.4 47.3 144.4 47.3 Z M 173.7 47.3 C 175.6 47.3 177.2 47.8 178.3 49 C 179.5 50.2 180.1 51.8 180.1 53.9 C 180.09 53.9 180.1 63 180.1 63 L 176.2 63 C 176.2 63 176.17 54.43 176.2 54.4 C 176.2 53.2 175.9 52.3 175.2 51.6 C 174.6 51 173.8 50.7 172.7 50.7 C 171.7 50.7 170.8 51 170.2 51.6 C 169.6 52.3 169.3 53.2 169.3 54.4 C 169.25 54.43 169.3 63 169.3 63 L 165.3 63 C 165.3 63 165.33 54.43 165.3 54.4 C 165.3 53.2 165 52.3 164.4 51.6 C 163.8 51 163 50.7 161.9 50.7 C 160.8 50.7 160 51 159.3 51.6 C 158.7 52.3 158.4 53.2 158.4 54.4 C 158.39 54.43 158.4 63 158.4 63 L 154.5 63 L 154.5 47.5 L 158.4 47.5 C 158.4 47.5 158.39 49.36 158.4 49.4 C 158.9 48.7 159.5 48.2 160.3 47.8 C 161.1 47.5 162 47.3 163 47.3 C 164.2 47.3 165.2 47.5 166.2 48 C 167.2 48.5 167.9 49.3 168.4 50.2 C 168.9 49.3 169.6 48.6 170.6 48.1 C 171.6 47.5 172.6 47.3 173.7 47.3 C 173.7 47.3 173.7 47.3 173.7 47.3 Z M 198.2 54.9 C 198.2 55.5 198.2 56 198.1 56.4 C 198.1 56.4 186.8 56.4 186.8 56.4 C 186.9 57.5 187.3 58.4 188 59.1 C 188.6 59.7 189.5 60 190.5 60 C 192 60 193 59.4 193.6 58.1 C 193.6 58.1 197.8 58.1 197.8 58.1 C 197.4 59.6 196.5 60.8 195.3 61.8 C 194 62.8 192.4 63.3 190.6 63.3 C 189.1 63.3 187.8 62.9 186.6 62.3 C 185.4 61.6 184.5 60.7 183.8 59.4 C 183.1 58.2 182.8 56.8 182.8 55.2 C 182.8 53.6 183.1 52.2 183.8 51 C 184.4 49.8 185.4 48.9 186.5 48.2 C 187.7 47.6 189.1 47.2 190.6 47.2 C 192.1 47.2 193.4 47.6 194.6 48.2 C 195.7 48.8 196.6 49.7 197.3 50.9 C 197.9 52.1 198.2 53.4 198.2 54.9 C 198.2 54.9 198.2 54.9 198.2 54.9 Z M 194.2 53.8 C 194.2 52.8 193.8 52 193.1 51.4 C 192.4 50.8 191.5 50.5 190.5 50.5 C 189.5 50.5 188.7 50.7 188 51.3 C 187.4 51.9 187 52.7 186.8 53.8 C 186.8 53.8 194.2 53.8 194.2 53.8 Z M 209.7 47.3 C 211.5 47.3 213 47.8 214.2 49 C 215.3 50.2 215.9 51.8 215.9 53.9 C 215.87 53.9 215.9 63 215.9 63 L 212 63 C 212 63 211.95 54.43 212 54.4 C 212 53.2 211.6 52.3 211 51.6 C 210.4 50.9 209.6 50.6 208.5 50.6 C 207.4 50.6 206.6 50.9 205.9 51.6 C 205.3 52.3 205 53.2 205 54.4 C 205.01 54.43 205 63 205 63 L 201.1 63 L 201.1 47.5 L 205 47.5 C 205 47.5 205.01 49.42 205 49.4 C 205.5 48.7 206.2 48.2 207 47.8 C 207.8 47.5 208.7 47.3 209.7 47.3 C 209.7 47.3 209.7 47.3 209.7 47.3 Z M 218.6 55.2 C 218.6 53.6 218.9 52.2 219.5 51 C 220.2 49.8 221 48.9 222.1 48.2 C 223.2 47.6 224.4 47.2 225.7 47.2 C 226.7 47.2 227.7 47.5 228.6 47.9 C 229.5 48.3 230.2 48.9 230.8 49.6 C 230.77 49.64 230.8 42.3 230.8 42.3 L 234.7 42.3 L 234.7 63 L 230.8 63 C 230.8 63 230.77 60.7 230.8 60.7 C 230.3 61.5 229.6 62.1 228.7 62.6 C 227.8 63 226.8 63.3 225.7 63.3 C 224.4 63.3 223.2 62.9 222.1 62.2 C 221 61.6 220.2 60.6 219.5 59.4 C 218.9 58.2 218.6 56.8 218.6 55.2 C 218.6 55.2 218.6 55.2 218.6 55.2 Z M 230.8 55.2 C 230.8 54.3 230.6 53.5 230.2 52.8 C 229.9 52.1 229.4 51.6 228.7 51.2 C 228.1 50.9 227.4 50.7 226.7 50.7 C 226 50.7 225.3 50.9 224.7 51.2 C 224 51.6 223.5 52.1 223.2 52.8 C 222.8 53.4 222.6 54.3 222.6 55.2 C 222.6 56.1 222.8 56.9 223.2 57.6 C 223.5 58.3 224.1 58.9 224.7 59.2 C 225.3 59.6 226 59.8 226.7 59.8 C 227.4 59.8 228.1 59.6 228.7 59.3 C 229.4 58.9 229.9 58.4 230.2 57.7 C 230.6 57 230.8 56.2 230.8 55.2 C 230.8 55.2 230.8 55.2 230.8 55.2 Z M 237.6 55.2 C 237.6 53.6 237.9 52.2 238.5 51 C 239.1 49.8 240 48.9 241.1 48.2 C 242.1 47.6 243.3 47.2 244.7 47.2 C 245.8 47.2 246.8 47.5 247.7 47.9 C 248.6 48.4 249.3 49 249.8 49.7 C 249.78 49.7 249.8 47.5 249.8 47.5 L 253.7 47.5 L 253.7 63 L 249.8 63 C 249.8 63 249.78 60.73 249.8 60.7 C 249.3 61.5 248.6 62.1 247.7 62.5 C 246.8 63 245.8 63.3 244.6 63.3 C 243.3 63.3 242.1 62.9 241.1 62.2 C 240 61.6 239.1 60.6 238.5 59.4 C 237.9 58.2 237.6 56.8 237.6 55.2 C 237.6 55.2 237.6 55.2 237.6 55.2 Z M 249.8 55.2 C 249.8 54.3 249.6 53.5 249.2 52.8 C 248.8 52.1 248.3 51.6 247.7 51.2 C 247.1 50.9 246.4 50.7 245.7 50.7 C 244.9 50.7 244.3 50.9 243.6 51.2 C 243 51.6 242.5 52.1 242.1 52.8 C 241.8 53.4 241.6 54.3 241.6 55.2 C 241.6 56.1 241.8 56.9 242.1 57.6 C 242.5 58.3 243 58.9 243.7 59.2 C 244.3 59.6 245 59.8 245.7 59.8 C 246.4 59.8 247.1 59.6 247.7 59.3 C 248.3 58.9 248.8 58.4 249.2 57.7 C 249.6 57 249.8 56.2 249.8 55.2 C 249.8 55.2 249.8 55.2 249.8 55.2 Z M 262.1 50.7 C 262.1 50.7 262.13 58.21 262.1 58.2 C 262.1 58.7 262.3 59.1 262.5 59.3 C 262.8 59.6 263.2 59.7 263.8 59.7 C 263.78 59.7 265.6 59.7 265.6 59.7 L 265.6 63 C 265.6 63 263.14 63 263.1 63 C 259.8 63 258.2 61.4 258.2 58.2 C 258.18 58.18 258.2 50.7 258.2 50.7 L 256.3 50.7 L 256.3 47.5 L 258.2 47.5 L 258.2 43.7 L 262.1 43.7 L 262.1 47.5 L 265.6 47.5 L 265.6 50.7 L 262.1 50.7 Z M 270.4 45.6 C 269.7 45.6 269.2 45.4 268.7 45 C 268.2 44.5 268 44 268 43.3 C 268 42.7 268.2 42.1 268.7 41.7 C 269.2 41.3 269.7 41 270.4 41 C 271.1 41 271.7 41.3 272.1 41.7 C 272.6 42.1 272.8 42.7 272.8 43.3 C 272.8 44 272.6 44.5 272.1 45 C 271.7 45.4 271.1 45.6 270.4 45.6 C 270.4 45.6 270.4 45.6 270.4 45.6 Z M 272.3 47.5 L 272.3 63 L 268.4 63 L 268.4 47.5 L 272.3 47.5 Z M 283.1 63.3 C 281.6 63.3 280.3 62.9 279.1 62.3 C 277.9 61.6 276.9 60.7 276.3 59.4 C 275.6 58.2 275.2 56.8 275.2 55.2 C 275.2 53.7 275.6 52.3 276.3 51 C 277 49.8 277.9 48.9 279.2 48.2 C 280.4 47.6 281.7 47.2 283.2 47.2 C 284.7 47.2 286.1 47.6 287.3 48.2 C 288.5 48.9 289.4 49.8 290.1 51 C 290.8 52.3 291.2 53.7 291.2 55.2 C 291.2 56.8 290.8 58.2 290.1 59.4 C 289.4 60.7 288.4 61.6 287.2 62.3 C 286 62.9 284.6 63.3 283.1 63.3 C 283.1 63.3 283.1 63.3 283.1 63.3 Z M 283.1 59.8 C 283.8 59.8 284.5 59.7 285.1 59.3 C 285.7 59 286.2 58.5 286.6 57.8 C 287 57.1 287.2 56.2 287.2 55.2 C 287.2 53.8 286.8 52.6 286 51.8 C 285.2 51 284.3 50.7 283.2 50.7 C 282 50.7 281.1 51 280.3 51.8 C 279.6 52.6 279.2 53.8 279.2 55.2 C 279.2 56.7 279.6 57.9 280.3 58.6 C 281.1 59.4 282 59.8 283.1 59.8 C 283.1 59.8 283.1 59.8 283.1 59.8 Z M 302.7 47.3 C 304.5 47.3 306 47.8 307.2 49 C 308.3 50.2 308.9 51.8 308.9 53.9 C 308.86 53.9 308.9 63 308.9 63 L 304.9 63 C 304.9 63 304.94 54.43 304.9 54.4 C 304.9 53.2 304.6 52.3 304 51.6 C 303.4 50.9 302.6 50.6 301.5 50.6 C 300.4 50.6 299.6 50.9 298.9 51.6 C 298.3 52.3 298 53.2 298 54.4 C 297.99 54.43 298 63 298 63 L 294.1 63 L 294.1 47.5 L 298 47.5 C 298 47.5 297.99 49.42 298 49.4 C 298.5 48.7 299.2 48.2 300 47.8 C 300.8 47.5 301.7 47.3 302.7 47.3 C 302.7 47.3 302.7 47.3 302.7 47.3 Z " stroke="none" fill="#e4007e"/>  </g>  <g id="Polygon7358">    <path d="M 139 15.9 C 139 16.9 138.7 17.9 138.2 18.8 C 137.7 19.8 137 20.5 135.9 21.1 C 134.9 21.6 133.5 21.9 131.9 21.9 C 131.92 21.9 128.6 21.9 128.6 21.9 L 128.6 29.4 L 124.7 29.4 L 124.7 9.9 C 124.7 9.9 131.92 9.86 131.9 9.9 C 133.4 9.9 134.7 10.1 135.8 10.6 C 136.8 11.2 137.6 11.9 138.2 12.8 C 138.7 13.7 139 14.7 139 15.9 C 139 15.9 139 15.9 139 15.9 Z M 131.7 18.7 C 132.8 18.7 133.6 18.5 134.2 18 C 134.7 17.5 134.9 16.8 134.9 15.9 C 134.9 14 133.9 13 131.7 13 C 131.75 13.05 128.6 13 128.6 13 L 128.6 18.7 L 131.7 18.7 C 131.7 18.7 131.75 18.73 131.7 18.7 Z M 145.7 16.3 C 146.2 15.5 146.8 14.8 147.6 14.4 C 148.4 13.9 149.4 13.7 150.4 13.7 C 150.42 13.66 150.4 17.8 150.4 17.8 C 150.4 17.8 149.39 17.78 149.4 17.8 C 148.2 17.8 147.2 18.1 146.6 18.6 C 146 19.2 145.7 20.2 145.7 21.7 C 145.66 21.67 145.7 29.4 145.7 29.4 L 141.7 29.4 L 141.7 13.9 L 145.7 13.9 L 145.7 16.3 C 145.7 16.3 145.66 16.3 145.7 16.3 Z M 159.9 29.7 C 158.4 29.7 157.1 29.3 155.9 28.7 C 154.7 28 153.8 27.1 153.1 25.8 C 152.4 24.6 152.1 23.2 152.1 21.6 C 152.1 20.1 152.4 18.7 153.1 17.4 C 153.8 16.2 154.8 15.3 156 14.6 C 157.2 14 158.6 13.6 160.1 13.6 C 161.5 13.6 162.9 14 164.1 14.6 C 165.3 15.3 166.3 16.2 167 17.4 C 167.7 18.7 168 20.1 168 21.6 C 168 23.2 167.7 24.6 167 25.8 C 166.2 27.1 165.3 28 164 28.7 C 162.8 29.3 161.5 29.7 159.9 29.7 C 159.9 29.7 159.9 29.7 159.9 29.7 Z M 159.9 26.2 C 160.7 26.2 161.3 26.1 161.9 25.7 C 162.6 25.4 163.1 24.9 163.4 24.2 C 163.8 23.5 164 22.6 164 21.6 C 164 20.2 163.6 19 162.8 18.2 C 162.1 17.4 161.1 17.1 160 17.1 C 158.9 17.1 157.9 17.4 157.2 18.2 C 156.4 19 156.1 20.2 156.1 21.6 C 156.1 23.1 156.4 24.3 157.2 25 C 157.9 25.8 158.8 26.2 159.9 26.2 C 159.9 26.2 159.9 26.2 159.9 26.2 Z M 177.4 25.8 L 181.3 13.9 L 185.5 13.9 L 179.7 29.4 L 175 29.4 L 169.3 13.9 L 173.5 13.9 L 177.4 25.8 Z M 189.7 12 C 189 12 188.4 11.8 188 11.4 C 187.5 10.9 187.3 10.4 187.3 9.7 C 187.3 9.1 187.5 8.5 188 8.1 C 188.4 7.7 189 7.4 189.7 7.4 C 190.4 7.4 190.9 7.7 191.4 8.1 C 191.9 8.5 192.1 9.1 192.1 9.7 C 192.1 10.4 191.9 10.9 191.4 11.4 C 190.9 11.8 190.4 12 189.7 12 C 189.7 12 189.7 12 189.7 12 Z M 191.6 13.9 L 191.6 29.4 L 187.7 29.4 L 187.7 13.9 L 191.6 13.9 Z M 194.5 21.6 C 194.5 20 194.8 18.6 195.4 17.4 C 196 16.2 196.9 15.3 198 14.6 C 199 14 200.3 13.6 201.6 13.6 C 202.6 13.6 203.5 13.9 204.5 14.3 C 205.4 14.7 206.1 15.3 206.6 16 C 206.65 16.04 206.6 8.7 206.6 8.7 L 210.6 8.7 L 210.6 29.4 L 206.6 29.4 C 206.6 29.4 206.65 27.1 206.6 27.1 C 206.2 27.9 205.5 28.5 204.6 29 C 203.7 29.4 202.7 29.7 201.6 29.7 C 200.2 29.7 199 29.3 198 28.6 C 196.9 28 196 27 195.4 25.8 C 194.8 24.6 194.5 23.2 194.5 21.6 C 194.5 21.6 194.5 21.6 194.5 21.6 Z M 206.7 21.6 C 206.7 20.7 206.5 19.9 206.1 19.2 C 205.7 18.5 205.2 18 204.6 17.6 C 204 17.3 203.3 17.1 202.6 17.1 C 201.8 17.1 201.2 17.3 200.5 17.6 C 199.9 18 199.4 18.5 199 19.2 C 198.7 19.8 198.5 20.7 198.5 21.6 C 198.5 22.5 198.7 23.3 199 24 C 199.4 24.7 199.9 25.3 200.6 25.6 C 201.2 26 201.8 26.2 202.6 26.2 C 203.3 26.2 204 26 204.6 25.7 C 205.2 25.3 205.7 24.8 206.1 24.1 C 206.5 23.4 206.7 22.6 206.7 21.6 C 206.7 21.6 206.7 21.6 206.7 21.6 Z M 228.9 21.3 C 228.9 21.9 228.8 22.4 228.8 22.8 C 228.8 22.8 217.4 22.8 217.4 22.8 C 217.5 23.9 217.9 24.8 218.6 25.5 C 219.3 26.1 220.1 26.4 221.2 26.4 C 222.6 26.4 223.6 25.8 224.3 24.5 C 224.3 24.5 228.5 24.5 228.5 24.5 C 228 26 227.2 27.2 225.9 28.2 C 224.6 29.2 223.1 29.7 221.2 29.7 C 219.7 29.7 218.4 29.3 217.2 28.7 C 216 28 215.1 27.1 214.4 25.8 C 213.8 24.6 213.5 23.2 213.5 21.6 C 213.5 20 213.8 18.6 214.4 17.4 C 215.1 16.2 216 15.3 217.2 14.6 C 218.4 14 219.7 13.6 221.2 13.6 C 222.7 13.6 224 14 225.2 14.6 C 226.4 15.2 227.3 16.1 227.9 17.3 C 228.6 18.5 228.9 19.8 228.9 21.3 C 228.9 21.3 228.9 21.3 228.9 21.3 Z M 224.8 20.2 C 224.8 19.2 224.4 18.4 223.7 17.8 C 223 17.2 222.1 16.9 221.1 16.9 C 220.2 16.9 219.3 17.1 218.7 17.7 C 218 18.3 217.6 19.1 217.5 20.2 C 217.5 20.2 224.8 20.2 224.8 20.2 Z M 235.7 16.3 C 236.2 15.5 236.8 14.8 237.6 14.4 C 238.4 13.9 239.4 13.7 240.4 13.7 C 240.41 13.66 240.4 17.8 240.4 17.8 C 240.4 17.8 239.38 17.78 239.4 17.8 C 238.1 17.8 237.2 18.1 236.6 18.6 C 236 19.2 235.7 20.2 235.7 21.7 C 235.65 21.67 235.7 29.4 235.7 29.4 L 231.7 29.4 L 231.7 13.9 L 235.7 13.9 L 235.7 16.3 C 235.7 16.3 235.65 16.3 235.7 16.3 Z " stroke="none" fill="#e4007e"/>  </g></svg>