<?xml version="1.0" standalone="no"?><!DOCTYPE svg PUBLIC "-//W3C//DTD SVG 1.1//EN" "http://www.w3.org/Graphics/SVG/1.1/DTD/svg11.dtd"><svg xmlns="http://www.w3.org/2000/svg" version="1.1" width="134.5px" height="35.6px" viewBox="0 -7 134.5 35.6" style="top:-7px">  <desc>(Free or Plus)</desc>  <defs/>  <g id="Polygon7330">    <path d="M 5.1 20.6 C 4.1 19.3 3.2 17.7 2.4 15.9 C 1.7 14.1 1.3 12.2 1.3 10.3 C 1.3 8.6 1.6 7 2.2 5.4 C 2.8 3.6 3.8 1.8 5.1 0 C 5.1 0 6.5 0 6.5 0 C 5.7 1.5 5.1 2.6 4.8 3.2 C 4.4 4.2 4 5.2 3.8 6.3 C 3.5 7.6 3.3 9 3.3 10.3 C 3.3 13.8 4.4 17.2 6.5 20.6 C 6.5 20.6 5.1 20.6 5.1 20.6 Z M 9.1 16 L 9.1 0.3 L 19.8 0.3 L 19.8 2.1 L 11.2 2.1 L 11.2 7 L 18.6 7 L 18.6 8.9 L 11.2 8.9 L 11.2 16 L 9.1 16 Z M 22.2 16 L 22.2 4.6 L 23.9 4.6 C 23.9 4.6 23.93 6.34 23.9 6.3 C 24.4 5.5 24.8 5 25.2 4.7 C 25.5 4.5 26 4.4 26.4 4.4 C 27.1 4.4 27.7 4.6 28.4 5 C 28.4 5 27.7 6.8 27.7 6.8 C 27.3 6.5 26.8 6.3 26.3 6.3 C 25.9 6.3 25.5 6.5 25.2 6.7 C 24.8 7 24.6 7.3 24.4 7.8 C 24.2 8.5 24.1 9.2 24.1 10 C 24.13 10.04 24.1 16 24.1 16 L 22.2 16 Z M 37.4 12.3 C 37.4 12.3 39.3 12.6 39.3 12.6 C 39 13.8 38.4 14.7 37.6 15.3 C 36.7 16 35.7 16.3 34.3 16.3 C 32.7 16.3 31.3 15.8 30.4 14.7 C 29.4 13.7 28.9 12.3 28.9 10.4 C 28.9 8.5 29.4 7 30.4 5.9 C 31.4 4.9 32.6 4.4 34.2 4.4 C 35.8 4.4 37 4.9 38 5.9 C 38.9 6.9 39.4 8.4 39.4 10.3 C 39.4 10.4 39.4 10.6 39.4 10.8 C 39.4 10.8 30.9 10.8 30.9 10.8 C 31 12.1 31.3 13 32 13.7 C 32.6 14.4 33.4 14.7 34.3 14.7 C 35.1 14.7 35.7 14.5 36.2 14.1 C 36.7 13.8 37.1 13.2 37.4 12.3 Z M 31 9.2 C 31 9.2 37.4 9.2 37.4 9.2 C 37.3 8.3 37 7.5 36.6 7.1 C 36 6.3 35.2 5.9 34.2 5.9 C 33.4 5.9 32.6 6.2 32 6.8 C 31.4 7.4 31.1 8.2 31 9.2 Z M 49.6 12.3 C 49.6 12.3 51.6 12.6 51.6 12.6 C 51.3 13.8 50.7 14.7 49.8 15.3 C 49 16 47.9 16.3 46.6 16.3 C 44.9 16.3 43.6 15.8 42.6 14.7 C 41.6 13.7 41.1 12.3 41.1 10.4 C 41.1 8.5 41.6 7 42.6 5.9 C 43.6 4.9 44.9 4.4 46.5 4.4 C 48 4.4 49.2 4.9 50.2 5.9 C 51.2 6.9 51.6 8.4 51.6 10.3 C 51.6 10.4 51.6 10.6 51.6 10.8 C 51.6 10.8 43.1 10.8 43.1 10.8 C 43.2 12.1 43.6 13 44.2 13.7 C 44.8 14.4 45.6 14.7 46.6 14.7 C 47.3 14.7 47.9 14.5 48.4 14.1 C 48.9 13.8 49.3 13.2 49.6 12.3 Z M 43.2 9.2 C 43.2 9.2 49.6 9.2 49.6 9.2 C 49.5 8.3 49.3 7.5 48.9 7.1 C 48.3 6.3 47.5 5.9 46.5 5.9 C 45.6 5.9 44.8 6.2 44.2 6.8 C 43.6 7.4 43.3 8.2 43.2 9.2 Z M 59.4 10.3 C 59.4 8.2 60 6.6 61.2 5.6 C 62.1 4.8 63.3 4.4 64.8 4.4 C 66.3 4.4 67.6 4.9 68.6 5.9 C 69.6 6.9 70.1 8.3 70.1 10.2 C 70.1 11.6 69.9 12.8 69.4 13.6 C 69 14.5 68.4 15.1 67.5 15.6 C 66.7 16 65.7 16.3 64.8 16.3 C 63.2 16.3 61.9 15.8 60.9 14.7 C 59.9 13.7 59.4 12.2 59.4 10.3 Z M 61.4 10.3 C 61.4 11.8 61.7 12.9 62.3 13.6 C 63 14.3 63.8 14.7 64.8 14.7 C 65.7 14.7 66.5 14.3 67.1 13.6 C 67.8 12.9 68.1 11.7 68.1 10.2 C 68.1 8.8 67.8 7.8 67.1 7 C 66.5 6.3 65.7 6 64.8 6 C 63.8 6 63 6.3 62.3 7 C 61.7 7.8 61.4 8.9 61.4 10.3 Z M 72.3 16 L 72.3 4.6 L 74.1 4.6 C 74.1 4.6 74.08 6.34 74.1 6.3 C 74.5 5.5 74.9 5 75.3 4.7 C 75.7 4.5 76.1 4.4 76.5 4.4 C 77.2 4.4 77.9 4.6 78.5 5 C 78.5 5 77.9 6.8 77.9 6.8 C 77.4 6.5 76.9 6.3 76.5 6.3 C 76 6.3 75.7 6.5 75.3 6.7 C 75 7 74.7 7.3 74.6 7.8 C 74.4 8.5 74.3 9.2 74.3 10 C 74.27 10.04 74.3 16 74.3 16 L 72.3 16 Z M 86 16 L 86 0.3 C 86 0.3 91.99 0.27 92 0.3 C 93 0.3 93.8 0.3 94.4 0.4 C 95.2 0.5 95.8 0.8 96.3 1.2 C 96.8 1.5 97.3 2 97.6 2.7 C 97.9 3.3 98.1 4 98.1 4.8 C 98.1 6.2 97.6 7.3 96.8 8.2 C 95.9 9.2 94.4 9.6 92.2 9.6 C 92.17 9.61 88.1 9.6 88.1 9.6 L 88.1 16 L 86 16 Z M 88.1 7.8 C 88.1 7.8 92.2 7.76 92.2 7.8 C 93.5 7.8 94.5 7.5 95.1 7 C 95.6 6.5 95.9 5.8 95.9 4.9 C 95.9 4.2 95.8 3.7 95.4 3.2 C 95.1 2.7 94.6 2.4 94.1 2.3 C 93.8 2.2 93.1 2.1 92.2 2.1 C 92.16 2.13 88.1 2.1 88.1 2.1 L 88.1 7.8 Z M 100.4 16 L 100.4 0.3 L 102.4 0.3 L 102.4 16 L 100.4 16 Z M 112.8 16 C 112.8 16 112.84 14.34 112.8 14.3 C 111.9 15.6 110.7 16.3 109.2 16.3 C 108.5 16.3 107.9 16.1 107.3 15.9 C 106.7 15.6 106.3 15.3 106 14.9 C 105.7 14.5 105.5 14 105.4 13.5 C 105.4 13.1 105.3 12.5 105.3 11.7 C 105.32 11.68 105.3 4.6 105.3 4.6 L 107.3 4.6 C 107.3 4.6 107.25 10.94 107.3 10.9 C 107.3 11.9 107.3 12.6 107.4 13 C 107.5 13.5 107.7 13.9 108.1 14.2 C 108.5 14.5 109 14.6 109.6 14.6 C 110.2 14.6 110.7 14.5 111.2 14.2 C 111.7 13.9 112.1 13.5 112.3 12.9 C 112.5 12.4 112.6 11.7 112.6 10.7 C 112.63 10.72 112.6 4.6 112.6 4.6 L 114.6 4.6 L 114.6 16 L 112.8 16 Z M 116.8 12.6 C 116.8 12.6 118.7 12.3 118.7 12.3 C 118.8 13.1 119.1 13.7 119.6 14.1 C 120.1 14.5 120.8 14.7 121.7 14.7 C 122.6 14.7 123.2 14.5 123.7 14.1 C 124.1 13.8 124.3 13.4 124.3 12.9 C 124.3 12.4 124.1 12.1 123.7 11.8 C 123.5 11.7 122.8 11.4 121.8 11.2 C 120.3 10.8 119.4 10.5 118.8 10.3 C 118.3 10 117.9 9.6 117.6 9.2 C 117.3 8.7 117.1 8.2 117.1 7.6 C 117.1 7.1 117.3 6.7 117.5 6.2 C 117.7 5.8 118 5.4 118.4 5.1 C 118.7 4.9 119.2 4.7 119.7 4.6 C 120.2 4.4 120.7 4.4 121.3 4.4 C 122.2 4.4 123 4.5 123.7 4.7 C 124.4 5 124.9 5.3 125.2 5.8 C 125.5 6.2 125.7 6.8 125.9 7.6 C 125.9 7.6 124 7.8 124 7.8 C 123.9 7.2 123.6 6.8 123.2 6.4 C 122.8 6.1 122.2 5.9 121.5 5.9 C 120.6 5.9 120 6.1 119.6 6.4 C 119.2 6.7 119 7 119 7.4 C 119 7.7 119.1 7.9 119.2 8.1 C 119.4 8.3 119.7 8.5 120 8.6 C 120.2 8.7 120.8 8.8 121.7 9.1 C 123.1 9.5 124 9.8 124.6 10 C 125.1 10.2 125.5 10.6 125.8 11 C 126.1 11.5 126.3 12 126.3 12.7 C 126.3 13.3 126.1 13.9 125.7 14.5 C 125.4 15.1 124.8 15.5 124.1 15.8 C 123.4 16.1 122.6 16.3 121.7 16.3 C 120.2 16.3 119.1 16 118.3 15.4 C 117.5 14.7 117 13.8 116.8 12.6 Z M 129.9 20.6 C 129.9 20.6 128.5 20.6 128.5 20.6 C 130.6 17.2 131.7 13.8 131.7 10.3 C 131.7 9 131.5 7.6 131.2 6.3 C 131 5.2 130.6 4.2 130.2 3.2 C 129.9 2.6 129.4 1.5 128.5 0 C 128.5 0 129.9 0 129.9 0 C 131.2 1.8 132.2 3.6 132.8 5.4 C 133.4 7 133.7 8.6 133.7 10.3 C 133.7 12.2 133.3 14.1 132.6 15.9 C 131.8 17.7 130.9 19.3 129.9 20.6 Z " stroke="none" fill="#000"/>  </g></svg>