<?xml version="1.0" standalone="no"?><!DOCTYPE svg PUBLIC "-//W3C//DTD SVG 1.1//EN" "http://www.w3.org/Graphics/SVG/1.1/DTD/svg11.dtd"><svg xmlns="http://www.w3.org/2000/svg" version="1.1" width="462.3px" height="37.6px" viewBox="0 -7 462.3 37.6" style="top:-7px">  <desc>Example Tools Every Learner Needs</desc>  <defs/>  <g id="Polygon6543">    <path d="M 43.4 16 L 43.4 0.3 L 55.1 0.3 L 55.1 2.9 L 46.6 2.9 L 46.6 6.4 L 54.5 6.4 L 54.5 9.1 L 46.6 9.1 L 46.6 13.4 L 55.4 13.4 L 55.4 16 L 43.4 16 Z M 56.6 16 L 60.7 10.1 L 56.8 4.6 L 60.5 4.6 L 62.5 7.7 L 64.6 4.6 L 68.2 4.6 L 64.3 10 L 68.5 16 L 64.8 16 L 62.5 12.5 L 60.2 16 L 56.6 16 Z M 72.6 8.1 C 72.6 8.1 69.8 7.6 69.8 7.6 C 70.1 6.5 70.7 5.7 71.4 5.1 C 72.2 4.6 73.3 4.4 74.8 4.4 C 76.1 4.4 77.1 4.5 77.8 4.8 C 78.4 5.1 78.9 5.6 79.2 6 C 79.4 6.5 79.6 7.4 79.6 8.7 C 79.6 8.7 79.5 12.3 79.5 12.3 C 79.5 13.3 79.6 14 79.7 14.5 C 79.8 15 80 15.5 80.2 16 C 80.2 16 77.2 16 77.2 16 C 77.2 15.8 77.1 15.5 76.9 15.1 C 76.9 14.9 76.9 14.8 76.8 14.8 C 76.3 15.3 75.8 15.6 75.2 15.9 C 74.6 16.1 74 16.3 73.3 16.3 C 72.1 16.3 71.2 16 70.5 15.3 C 69.8 14.7 69.5 13.9 69.5 12.9 C 69.5 12.3 69.7 11.7 70 11.2 C 70.3 10.7 70.7 10.3 71.3 10 C 71.8 9.7 72.6 9.5 73.7 9.3 C 75.1 9 76.1 8.8 76.6 8.6 C 76.6 8.6 76.6 8.3 76.6 8.3 C 76.6 7.7 76.5 7.3 76.2 7 C 75.9 6.8 75.3 6.7 74.5 6.7 C 74 6.7 73.6 6.8 73.3 7 C 73 7.2 72.7 7.6 72.6 8.1 Z M 76.6 10.5 C 76.2 10.7 75.6 10.8 74.8 11 C 73.9 11.2 73.4 11.4 73.1 11.5 C 72.7 11.8 72.5 12.2 72.5 12.6 C 72.5 13 72.7 13.4 73 13.7 C 73.3 14 73.7 14.1 74.2 14.1 C 74.7 14.1 75.3 14 75.8 13.6 C 76.1 13.3 76.4 13 76.5 12.6 C 76.6 12.4 76.6 11.9 76.6 11.1 C 76.6 11.1 76.6 10.5 76.6 10.5 Z M 82.3 4.6 L 85.1 4.6 C 85.1 4.6 85.1 6.17 85.1 6.2 C 86.1 5 87.3 4.4 88.7 4.4 C 89.4 4.4 90 4.5 90.6 4.8 C 91.1 5.1 91.5 5.6 91.9 6.2 C 92.4 5.6 92.9 5.1 93.5 4.8 C 94.1 4.5 94.7 4.4 95.4 4.4 C 96.2 4.4 96.9 4.5 97.5 4.9 C 98.1 5.2 98.5 5.7 98.8 6.4 C 99 6.8 99.1 7.6 99.1 8.7 C 99.09 8.72 99.1 16 99.1 16 L 96.1 16 C 96.1 16 96.07 9.5 96.1 9.5 C 96.1 8.4 96 7.6 95.8 7.3 C 95.5 6.9 95.1 6.7 94.5 6.7 C 94.1 6.7 93.7 6.8 93.3 7 C 92.9 7.3 92.6 7.7 92.5 8.2 C 92.3 8.7 92.2 9.5 92.2 10.5 C 92.23 10.54 92.2 16 92.2 16 L 89.2 16 C 89.2 16 89.21 9.76 89.2 9.8 C 89.2 8.7 89.2 7.9 89 7.6 C 88.9 7.3 88.8 7.1 88.5 6.9 C 88.3 6.7 88 6.7 87.6 6.7 C 87.2 6.7 86.7 6.8 86.4 7 C 86 7.3 85.7 7.6 85.6 8.1 C 85.4 8.6 85.3 9.4 85.3 10.5 C 85.33 10.47 85.3 16 85.3 16 L 82.3 16 L 82.3 4.6 Z M 102 4.6 L 104.8 4.6 C 104.8 4.6 104.83 6.28 104.8 6.3 C 105.2 5.7 105.7 5.2 106.3 4.9 C 106.9 4.5 107.6 4.4 108.4 4.4 C 109.7 4.4 110.8 4.9 111.8 5.9 C 112.7 6.9 113.1 8.4 113.1 10.2 C 113.1 12.2 112.7 13.6 111.7 14.7 C 110.8 15.7 109.7 16.3 108.4 16.3 C 107.7 16.3 107.2 16.1 106.7 15.9 C 106.1 15.6 105.6 15.2 105 14.6 C 105.03 14.61 105 20.4 105 20.4 L 102 20.4 L 102 4.6 Z M 105 10.1 C 105 11.4 105.3 12.3 105.8 13 C 106.3 13.6 106.9 13.9 107.6 13.9 C 108.3 13.9 108.9 13.6 109.4 13 C 109.8 12.5 110.1 11.6 110.1 10.3 C 110.1 9.1 109.8 8.2 109.4 7.6 C 108.9 7 108.3 6.7 107.6 6.7 C 106.8 6.7 106.2 7 105.7 7.6 C 105.2 8.2 105 9 105 10.1 Z M 115.5 16 L 115.5 0.3 L 118.6 0.3 L 118.6 16 L 115.5 16 Z M 128.3 12.4 C 128.3 12.4 131.3 12.9 131.3 12.9 C 130.9 14 130.3 14.8 129.4 15.4 C 128.6 16 127.6 16.3 126.3 16.3 C 124.3 16.3 122.9 15.6 121.9 14.3 C 121.1 13.3 120.8 12 120.8 10.4 C 120.8 8.5 121.3 7 122.3 6 C 123.2 4.9 124.5 4.4 126 4.4 C 127.7 4.4 129 4.9 130 6 C 131 7.2 131.5 8.9 131.4 11.2 C 131.4 11.2 123.9 11.2 123.9 11.2 C 123.9 12.1 124.1 12.8 124.6 13.3 C 125.1 13.8 125.6 14 126.3 14 C 126.8 14 127.2 13.9 127.5 13.6 C 127.9 13.4 128.1 13 128.3 12.4 Z M 128.4 9.3 C 128.4 8.5 128.2 7.8 127.8 7.3 C 127.3 6.9 126.8 6.7 126.2 6.7 C 125.5 6.7 125 6.9 124.6 7.4 C 124.1 7.9 123.9 8.5 123.9 9.3 C 123.9 9.3 128.4 9.3 128.4 9.3 Z M 143.6 16 L 143.6 2.9 L 138.9 2.9 L 138.9 0.3 L 151.4 0.3 L 151.4 2.9 L 146.7 2.9 L 146.7 16 L 143.6 16 Z M 151.1 10.2 C 151.1 9.1 151.4 8.2 151.8 7.2 C 152.3 6.3 153 5.6 153.9 5.1 C 154.9 4.6 155.9 4.4 157 4.4 C 158.7 4.4 160.1 4.9 161.2 6 C 162.3 7.2 162.9 8.6 162.9 10.3 C 162.9 12 162.3 13.4 161.2 14.6 C 160.1 15.7 158.7 16.3 157 16.3 C 156 16.3 155 16 154 15.6 C 153.1 15.1 152.3 14.4 151.8 13.5 C 151.4 12.6 151.1 11.5 151.1 10.2 Z M 154.2 10.3 C 154.2 11.4 154.5 12.3 155 12.9 C 155.5 13.5 156.2 13.8 157 13.8 C 157.8 13.8 158.4 13.5 159 12.9 C 159.5 12.3 159.8 11.4 159.8 10.3 C 159.8 9.2 159.5 8.3 159 7.7 C 158.4 7.1 157.8 6.8 157 6.8 C 156.2 6.8 155.5 7.1 155 7.7 C 154.5 8.3 154.2 9.2 154.2 10.3 Z M 164.5 10.2 C 164.5 9.1 164.8 8.2 165.3 7.2 C 165.8 6.3 166.5 5.6 167.4 5.1 C 168.3 4.6 169.3 4.4 170.4 4.4 C 172.1 4.4 173.6 4.9 174.7 6 C 175.8 7.2 176.3 8.6 176.3 10.3 C 176.3 12 175.8 13.4 174.6 14.6 C 173.5 15.7 172.1 16.3 170.4 16.3 C 169.4 16.3 168.4 16 167.5 15.6 C 166.5 15.1 165.8 14.4 165.3 13.5 C 164.8 12.6 164.5 11.5 164.5 10.2 Z M 167.6 10.3 C 167.6 11.4 167.9 12.3 168.4 12.9 C 169 13.5 169.6 13.8 170.4 13.8 C 171.2 13.8 171.9 13.5 172.4 12.9 C 172.9 12.3 173.2 11.4 173.2 10.3 C 173.2 9.2 172.9 8.3 172.4 7.7 C 171.9 7.1 171.2 6.8 170.4 6.8 C 169.6 6.8 169 7.1 168.4 7.7 C 167.9 8.3 167.6 9.2 167.6 10.3 Z M 178.7 16 L 178.7 0.3 L 181.7 0.3 L 181.7 16 L 178.7 16 Z M 183.7 12.8 C 183.7 12.8 186.8 12.3 186.8 12.3 C 186.9 12.9 187.2 13.3 187.5 13.6 C 187.9 13.9 188.5 14.1 189.2 14.1 C 190 14.1 190.6 14 191 13.7 C 191.2 13.5 191.4 13.2 191.4 12.9 C 191.4 12.6 191.3 12.4 191.1 12.3 C 191 12.1 190.7 12 190.1 11.9 C 187.7 11.4 186.2 10.9 185.5 10.4 C 184.6 9.8 184.2 8.9 184.2 7.9 C 184.2 6.9 184.5 6 185.3 5.4 C 186.1 4.7 187.3 4.4 189 4.4 C 190.5 4.4 191.7 4.6 192.4 5.1 C 193.2 5.6 193.7 6.4 194 7.4 C 194 7.4 191.2 7.9 191.2 7.9 C 191 7.5 190.8 7.1 190.5 6.9 C 190.1 6.6 189.6 6.5 189 6.5 C 188.2 6.5 187.6 6.6 187.3 6.9 C 187.1 7 187 7.2 187 7.5 C 187 7.7 187.1 7.9 187.3 8 C 187.5 8.2 188.5 8.5 190.1 8.9 C 191.7 9.2 192.8 9.7 193.4 10.2 C 194.1 10.7 194.4 11.5 194.4 12.5 C 194.4 13.5 194 14.4 193.1 15.1 C 192.2 15.9 190.9 16.3 189.2 16.3 C 187.6 16.3 186.4 16 185.5 15.3 C 184.6 14.7 184 13.8 183.7 12.8 Z M 203.2 16 L 203.2 0.3 L 214.8 0.3 L 214.8 2.9 L 206.3 2.9 L 206.3 6.4 L 214.2 6.4 L 214.2 9.1 L 206.3 9.1 L 206.3 13.4 L 215.1 13.4 L 215.1 16 L 203.2 16 Z M 221 16 L 216.4 4.6 L 219.5 4.6 L 221.7 10.4 C 221.7 10.4 222.3 12.38 222.3 12.4 C 222.5 11.9 222.6 11.6 222.6 11.4 C 222.7 11.1 222.8 10.8 222.9 10.4 C 222.93 10.43 225.1 4.6 225.1 4.6 L 228.2 4.6 L 223.7 16 L 221 16 Z M 236.7 12.4 C 236.7 12.4 239.7 12.9 239.7 12.9 C 239.3 14 238.7 14.8 237.8 15.4 C 237 16 236 16.3 234.7 16.3 C 232.7 16.3 231.3 15.6 230.3 14.3 C 229.5 13.3 229.2 12 229.2 10.4 C 229.2 8.5 229.7 7 230.7 6 C 231.6 4.9 232.9 4.4 234.4 4.4 C 236.1 4.4 237.4 4.9 238.4 6 C 239.4 7.2 239.9 8.9 239.8 11.2 C 239.8 11.2 232.3 11.2 232.3 11.2 C 232.3 12.1 232.5 12.8 233 13.3 C 233.5 13.8 234 14 234.7 14 C 235.2 14 235.6 13.9 235.9 13.6 C 236.2 13.4 236.5 13 236.7 12.4 Z M 236.8 9.3 C 236.8 8.5 236.6 7.8 236.2 7.3 C 235.7 6.9 235.2 6.7 234.6 6.7 C 233.9 6.7 233.4 6.9 233 7.4 C 232.5 7.9 232.3 8.5 232.3 9.3 C 232.3 9.3 236.8 9.3 236.8 9.3 Z M 245.2 16 L 242.2 16 L 242.2 4.6 L 245 4.6 C 245 4.6 244.96 6.23 245 6.2 C 245.4 5.5 245.9 5 246.3 4.7 C 246.6 4.5 247.1 4.4 247.6 4.4 C 248.2 4.4 248.9 4.5 249.5 4.9 C 249.5 4.9 248.6 7.6 248.6 7.6 C 248.1 7.2 247.6 7.1 247.2 7.1 C 246.8 7.1 246.4 7.2 246.1 7.4 C 245.8 7.6 245.6 8.1 245.4 8.7 C 245.3 9.3 245.2 10.6 245.2 12.5 C 245.18 12.49 245.2 16 245.2 16 Z M 249.4 4.6 L 252.6 4.6 L 255.4 12.7 L 258 4.6 L 261.2 4.6 L 257.1 15.6 C 257.1 15.6 256.4 17.57 256.4 17.6 C 256.1 18.2 255.9 18.7 255.6 19.1 C 255.4 19.5 255.1 19.7 254.8 20 C 254.5 20.2 254.1 20.3 253.7 20.5 C 253.2 20.6 252.7 20.6 252.1 20.6 C 251.5 20.6 251 20.6 250.4 20.5 C 250.4 20.5 250.2 18.1 250.2 18.1 C 250.6 18.2 251 18.2 251.4 18.2 C 252.1 18.2 252.6 18 253 17.6 C 253.3 17.2 253.6 16.7 253.8 16 C 253.76 16.05 249.4 4.6 249.4 4.6 Z M 269.3 16 L 269.3 0.4 L 272.5 0.4 L 272.5 13.4 L 280.4 13.4 L 280.4 16 L 269.3 16 Z M 289.2 12.4 C 289.2 12.4 292.2 12.9 292.2 12.9 C 291.9 14 291.3 14.8 290.4 15.4 C 289.6 16 288.5 16.3 287.3 16.3 C 285.3 16.3 283.8 15.6 282.9 14.3 C 282.1 13.3 281.8 12 281.8 10.4 C 281.8 8.5 282.2 7 283.2 6 C 284.2 4.9 285.5 4.4 287 4.4 C 288.7 4.4 290 4.9 291 6 C 292 7.2 292.5 8.9 292.4 11.2 C 292.4 11.2 284.8 11.2 284.8 11.2 C 284.9 12.1 285.1 12.8 285.6 13.3 C 286 13.8 286.6 14 287.3 14 C 287.8 14 288.2 13.9 288.5 13.6 C 288.8 13.4 289.1 13 289.2 12.4 Z M 289.4 9.3 C 289.4 8.5 289.2 7.8 288.7 7.3 C 288.3 6.9 287.8 6.7 287.2 6.7 C 286.5 6.7 286 6.9 285.5 7.4 C 285.1 7.9 284.9 8.5 284.9 9.3 C 284.9 9.3 289.4 9.3 289.4 9.3 Z M 297.1 8.1 C 297.1 8.1 294.4 7.6 294.4 7.6 C 294.7 6.5 295.2 5.7 296 5.1 C 296.7 4.6 297.8 4.4 299.3 4.4 C 300.7 4.4 301.7 4.5 302.3 4.8 C 303 5.1 303.5 5.6 303.7 6 C 304 6.5 304.1 7.4 304.1 8.7 C 304.1 8.7 304.1 12.3 304.1 12.3 C 304.1 13.3 304.1 14 304.2 14.5 C 304.3 15 304.5 15.5 304.8 16 C 304.8 16 301.8 16 301.8 16 C 301.7 15.8 301.6 15.5 301.5 15.1 C 301.5 14.9 301.4 14.8 301.4 14.8 C 300.9 15.3 300.3 15.6 299.7 15.9 C 299.2 16.1 298.5 16.3 297.9 16.3 C 296.7 16.3 295.8 16 295.1 15.3 C 294.4 14.7 294.1 13.9 294.1 12.9 C 294.1 12.3 294.2 11.7 294.5 11.2 C 294.8 10.7 295.3 10.3 295.8 10 C 296.4 9.7 297.2 9.5 298.2 9.3 C 299.6 9 300.6 8.8 301.2 8.6 C 301.2 8.6 301.2 8.3 301.2 8.3 C 301.2 7.7 301 7.3 300.7 7 C 300.4 6.8 299.9 6.7 299.1 6.7 C 298.6 6.7 298.2 6.8 297.9 7 C 297.6 7.2 297.3 7.6 297.1 8.1 Z M 301.2 10.5 C 300.8 10.7 300.2 10.8 299.3 11 C 298.5 11.2 297.9 11.4 297.7 11.5 C 297.3 11.8 297.1 12.2 297.1 12.6 C 297.1 13 297.3 13.4 297.6 13.7 C 297.9 14 298.3 14.1 298.8 14.1 C 299.3 14.1 299.8 14 300.3 13.6 C 300.7 13.3 300.9 13 301 12.6 C 301.1 12.4 301.2 11.9 301.2 11.1 C 301.2 11.1 301.2 10.5 301.2 10.5 Z M 310 16 L 307 16 L 307 4.6 L 309.8 4.6 C 309.8 4.6 309.78 6.23 309.8 6.2 C 310.3 5.5 310.7 5 311.1 4.7 C 311.5 4.5 311.9 4.4 312.4 4.4 C 313.1 4.4 313.7 4.5 314.4 4.9 C 314.4 4.9 313.4 7.6 313.4 7.6 C 312.9 7.2 312.5 7.1 312 7.1 C 311.6 7.1 311.2 7.2 310.9 7.4 C 310.6 7.6 310.4 8.1 310.2 8.7 C 310.1 9.3 310 10.6 310 12.5 C 309.99 12.49 310 16 310 16 Z M 326 16 L 323 16 C 323 16 323.03 10.19 323 10.2 C 323 9 323 8.2 322.8 7.8 C 322.7 7.4 322.5 7.2 322.2 7 C 321.9 6.8 321.6 6.7 321.2 6.7 C 320.6 6.7 320.2 6.8 319.7 7.1 C 319.3 7.4 319 7.8 318.9 8.2 C 318.7 8.7 318.7 9.6 318.7 10.8 C 318.66 10.85 318.7 16 318.7 16 L 315.6 16 L 315.6 4.6 L 318.4 4.6 C 318.4 4.6 318.45 6.28 318.4 6.3 C 319.4 5 320.7 4.4 322.2 4.4 C 322.9 4.4 323.5 4.5 324 4.7 C 324.6 5 325 5.3 325.3 5.6 C 325.6 6 325.8 6.4 325.9 6.9 C 326 7.4 326 8 326 8.9 C 326.04 8.93 326 16 326 16 Z M 335.7 12.4 C 335.7 12.4 338.7 12.9 338.7 12.9 C 338.3 14 337.7 14.8 336.9 15.4 C 336.1 16 335 16.3 333.8 16.3 C 331.8 16.3 330.3 15.6 329.4 14.3 C 328.6 13.3 328.2 12 328.2 10.4 C 328.2 8.5 328.7 7 329.7 6 C 330.7 4.9 331.9 4.4 333.5 4.4 C 335.2 4.4 336.5 4.9 337.5 6 C 338.5 7.2 338.9 8.9 338.9 11.2 C 338.9 11.2 331.3 11.2 331.3 11.2 C 331.3 12.1 331.6 12.8 332 13.3 C 332.5 13.8 333.1 14 333.8 14 C 334.3 14 334.7 13.9 335 13.6 C 335.3 13.4 335.5 13 335.7 12.4 Z M 335.9 9.3 C 335.9 8.5 335.6 7.8 335.2 7.3 C 334.8 6.9 334.3 6.7 333.6 6.7 C 333 6.7 332.4 6.9 332 7.4 C 331.6 7.9 331.4 8.5 331.4 9.3 C 331.4 9.3 335.9 9.3 335.9 9.3 Z M 344.2 16 L 341.2 16 L 341.2 4.6 L 344 4.6 C 344 4.6 344.02 6.23 344 6.2 C 344.5 5.5 344.9 5 345.3 4.7 C 345.7 4.5 346.1 4.4 346.6 4.4 C 347.3 4.4 348 4.5 348.6 4.9 C 348.6 4.9 347.7 7.6 347.7 7.6 C 347.2 7.2 346.7 7.1 346.2 7.1 C 345.8 7.1 345.5 7.2 345.2 7.4 C 344.9 7.6 344.7 8.1 344.5 8.7 C 344.3 9.3 344.2 10.6 344.2 12.5 C 344.23 12.49 344.2 16 344.2 16 Z M 356.1 16 L 356.1 0.3 L 359.2 0.3 L 365.6 10.8 L 365.6 0.3 L 368.6 0.3 L 368.6 16 L 365.4 16 L 359 5.7 L 359 16 L 356.1 16 Z M 378.5 12.4 C 378.5 12.4 381.5 12.9 381.5 12.9 C 381.1 14 380.5 14.8 379.7 15.4 C 378.9 16 377.8 16.3 376.6 16.3 C 374.6 16.3 373.1 15.6 372.1 14.3 C 371.4 13.3 371 12 371 10.4 C 371 8.5 371.5 7 372.5 6 C 373.5 4.9 374.7 4.4 376.3 4.4 C 377.9 4.4 379.3 4.9 380.3 6 C 381.3 7.2 381.7 8.9 381.7 11.2 C 381.7 11.2 374.1 11.2 374.1 11.2 C 374.1 12.1 374.4 12.8 374.8 13.3 C 375.3 13.8 375.9 14 376.6 14 C 377.1 14 377.5 13.9 377.8 13.6 C 378.1 13.4 378.3 13 378.5 12.4 Z M 378.7 9.3 C 378.7 8.5 378.4 7.8 378 7.3 C 377.6 6.9 377.1 6.7 376.4 6.7 C 375.8 6.7 375.2 6.9 374.8 7.4 C 374.4 7.9 374.2 8.5 374.2 9.3 C 374.2 9.3 378.7 9.3 378.7 9.3 Z M 390.7 12.4 C 390.7 12.4 393.8 12.9 393.8 12.9 C 393.4 14 392.8 14.8 391.9 15.4 C 391.1 16 390 16.3 388.8 16.3 C 386.8 16.3 385.3 15.6 384.4 14.3 C 383.6 13.3 383.3 12 383.3 10.4 C 383.3 8.5 383.8 7 384.7 6 C 385.7 4.9 387 4.4 388.5 4.4 C 390.2 4.4 391.5 4.9 392.5 6 C 393.5 7.2 394 8.9 393.9 11.2 C 393.9 11.2 386.4 11.2 386.4 11.2 C 386.4 12.1 386.6 12.8 387.1 13.3 C 387.5 13.8 388.1 14 388.8 14 C 389.3 14 389.7 13.9 390 13.6 C 390.3 13.4 390.6 13 390.7 12.4 Z M 390.9 9.3 C 390.9 8.5 390.7 7.8 390.2 7.3 C 389.8 6.9 389.3 6.7 388.7 6.7 C 388 6.7 387.5 6.9 387 7.4 C 386.6 7.9 386.4 8.5 386.4 9.3 C 386.4 9.3 390.9 9.3 390.9 9.3 Z M 406.8 16 L 404 16 C 404 16 404.03 14.34 404 14.3 C 403.6 15 403 15.5 402.4 15.8 C 401.7 16.1 401.1 16.3 400.5 16.3 C 399.2 16.3 398 15.7 397.1 14.7 C 396.2 13.6 395.7 12.2 395.7 10.3 C 395.7 8.3 396.2 6.9 397.1 5.9 C 398 4.9 399.1 4.4 400.5 4.4 C 401.8 4.4 402.9 4.9 403.8 5.9 C 403.82 5.94 403.8 0.3 403.8 0.3 L 406.8 0.3 L 406.8 16 Z M 398.8 10.1 C 398.8 11.3 398.9 12.2 399.3 12.7 C 399.8 13.5 400.5 13.9 401.3 13.9 C 402 13.9 402.6 13.6 403.1 13 C 403.6 12.4 403.8 11.5 403.8 10.4 C 403.8 9 403.6 8.1 403.1 7.5 C 402.6 6.9 402 6.7 401.3 6.7 C 400.6 6.7 400 6.9 399.5 7.5 C 399 8.1 398.8 8.9 398.8 10.1 Z M 408.7 12.8 C 408.7 12.8 411.8 12.3 411.8 12.3 C 411.9 12.9 412.2 13.3 412.6 13.6 C 413 13.9 413.5 14.1 414.2 14.1 C 415 14.1 415.6 14 416 13.7 C 416.2 13.5 416.4 13.2 416.4 12.9 C 416.4 12.6 416.3 12.4 416.2 12.3 C 416 12.1 415.7 12 415.2 11.9 C 412.7 11.4 411.2 10.9 410.5 10.4 C 409.6 9.8 409.2 8.9 409.2 7.9 C 409.2 6.9 409.6 6 410.3 5.4 C 411.1 4.7 412.3 4.4 414 4.4 C 415.5 4.4 416.7 4.6 417.4 5.1 C 418.2 5.6 418.7 6.4 419 7.4 C 419 7.4 416.2 7.9 416.2 7.9 C 416 7.5 415.8 7.1 415.5 6.9 C 415.1 6.6 414.7 6.5 414 6.5 C 413.2 6.5 412.7 6.6 412.3 6.9 C 412.1 7 412 7.2 412 7.5 C 412 7.7 412.1 7.9 412.3 8 C 412.5 8.2 413.5 8.5 415.1 8.9 C 416.7 9.2 417.8 9.7 418.5 10.2 C 419.1 10.7 419.4 11.5 419.4 12.5 C 419.4 13.5 419 14.4 418.1 15.1 C 417.2 15.9 415.9 16.3 414.2 16.3 C 412.7 16.3 411.4 16 410.5 15.3 C 409.6 14.7 409 13.8 408.7 12.8 Z " stroke="none" fill="#e4007e"/>  </g></svg>