<?xml version="1.0" standalone="no"?><!DOCTYPE svg PUBLIC "-//W3C//DTD SVG 1.1//EN" "http://www.w3.org/Graphics/SVG/1.1/DTD/svg11.dtd"><svg xmlns="http://www.w3.org/2000/svg" version="1.1" width="364px" height="139.6px" viewBox="0 -2 364 139.6" style="top:-2px">  <desc>Data Analysis &amp; Impact Measurement Required for evidencing measurable outcomes and project impact.</desc>  <defs/>  <g id="Polygon6943">    <path d="M 39 118.6 C 39 116.5 39.6 114.9 40.8 113.9 C 41.7 113.1 42.9 112.6 44.3 112.6 C 45.9 112.6 47.2 113.2 48.2 114.2 C 49.2 115.2 49.7 116.6 49.7 118.4 C 49.7 119.9 49.5 121.1 49 121.9 C 48.6 122.7 47.9 123.4 47.1 123.9 C 46.3 124.3 45.3 124.6 44.3 124.6 C 42.8 124.6 41.5 124 40.5 123 C 39.5 122 39 120.5 39 118.6 Z M 41 118.6 C 41 120.1 41.3 121.2 41.9 121.9 C 42.6 122.6 43.4 123 44.3 123 C 45.3 123 46.1 122.6 46.7 121.9 C 47.4 121.1 47.7 120 47.7 118.5 C 47.7 117.1 47.4 116.1 46.7 115.3 C 46.1 114.6 45.3 114.2 44.3 114.2 C 43.4 114.2 42.6 114.6 41.9 115.3 C 41.3 116 41 117.1 41 118.6 Z M 59.4 124.3 C 59.4 124.3 59.43 122.63 59.4 122.6 C 58.5 123.9 57.3 124.6 55.8 124.6 C 55.1 124.6 54.5 124.4 53.9 124.2 C 53.3 123.9 52.9 123.6 52.6 123.2 C 52.3 122.8 52.1 122.3 52 121.8 C 52 121.4 51.9 120.8 51.9 120 C 51.91 119.96 51.9 112.9 51.9 112.9 L 53.8 112.9 C 53.8 112.9 53.84 119.22 53.8 119.2 C 53.8 120.2 53.9 120.9 54 121.3 C 54.1 121.8 54.3 122.2 54.7 122.5 C 55.1 122.8 55.6 122.9 56.2 122.9 C 56.8 122.9 57.3 122.7 57.8 122.5 C 58.3 122.2 58.7 121.7 58.9 121.2 C 59.1 120.7 59.2 120 59.2 119 C 59.23 119.01 59.2 112.9 59.2 112.9 L 61.2 112.9 L 61.2 124.3 L 59.4 124.3 Z M 67.6 122.6 C 67.8 122.6 68.1 122.6 68.4 122.6 C 68.4 122.6 68.7 124.3 68.7 124.3 C 68.1 124.4 67.7 124.5 67.2 124.5 C 66.5 124.5 66 124.3 65.6 124.1 C 65.2 123.9 64.9 123.6 64.8 123.2 C 64.6 122.9 64.5 122.1 64.5 121 C 64.54 120.96 64.5 114.4 64.5 114.4 L 63.1 114.4 L 63.1 112.9 L 64.5 112.9 L 64.5 110.1 L 66.5 108.9 L 66.5 112.9 L 68.4 112.9 L 68.4 114.4 L 66.5 114.4 C 66.5 114.4 66.47 121.07 66.5 121.1 C 66.5 121.6 66.5 122 66.6 122.1 C 66.6 122.3 66.7 122.4 66.9 122.5 C 67.1 122.6 67.3 122.6 67.6 122.6 C 67.6 122.6 67.6 122.6 67.6 122.6 Z M 77.7 120.1 C 77.7 120.1 79.6 120.4 79.6 120.4 C 79.4 121.7 78.9 122.7 78.1 123.4 C 77.2 124.2 76.1 124.6 74.9 124.6 C 73.3 124.6 72.1 124.1 71.1 123 C 70.2 122 69.7 120.5 69.7 118.6 C 69.7 117.4 69.9 116.3 70.3 115.4 C 70.7 114.5 71.4 113.8 72.2 113.3 C 73 112.9 73.9 112.6 74.9 112.6 C 76.1 112.6 77.2 113 78 113.6 C 78.7 114.2 79.2 115.1 79.5 116.2 C 79.5 116.2 77.6 116.5 77.6 116.5 C 77.4 115.8 77.1 115.2 76.6 114.8 C 76.2 114.4 75.6 114.2 75 114.2 C 74 114.2 73.2 114.6 72.6 115.3 C 72 116 71.7 117.1 71.7 118.6 C 71.7 120.1 72 121.2 72.6 121.9 C 73.2 122.6 73.9 123 74.9 123 C 75.6 123 76.3 122.7 76.8 122.3 C 77.3 121.8 77.6 121.1 77.7 120.1 Z M 80.6 118.6 C 80.6 116.5 81.2 114.9 82.3 113.9 C 83.3 113.1 84.5 112.6 85.9 112.6 C 87.5 112.6 88.8 113.2 89.8 114.2 C 90.8 115.2 91.3 116.6 91.3 118.4 C 91.3 119.9 91.1 121.1 90.6 121.9 C 90.2 122.7 89.5 123.4 88.7 123.9 C 87.8 124.3 86.9 124.6 85.9 124.6 C 84.3 124.6 83 124 82.1 123 C 81.1 122 80.6 120.5 80.6 118.6 Z M 82.6 118.6 C 82.6 120.1 82.9 121.2 83.5 121.9 C 84.2 122.6 85 123 85.9 123 C 86.9 123 87.7 122.6 88.3 121.9 C 89 121.1 89.3 120 89.3 118.5 C 89.3 117.1 89 116.1 88.3 115.3 C 87.7 114.6 86.9 114.2 85.9 114.2 C 85 114.2 84.2 114.6 83.5 115.3 C 82.9 116 82.6 117.1 82.6 118.6 Z M 93.5 124.3 L 93.5 112.9 L 95.3 112.9 C 95.3 112.9 95.27 114.5 95.3 114.5 C 95.6 113.9 96.1 113.5 96.7 113.1 C 97.3 112.8 98 112.6 98.7 112.6 C 99.6 112.6 100.3 112.8 100.8 113.2 C 101.3 113.5 101.7 114 101.9 114.6 C 102.9 113.3 104 112.6 105.5 112.6 C 106.6 112.6 107.5 113 108.1 113.6 C 108.7 114.2 109 115.2 109 116.5 C 109 116.47 109 124.3 109 124.3 L 107.1 124.3 C 107.1 124.3 107.07 117.12 107.1 117.1 C 107.1 116.3 107 115.8 106.9 115.4 C 106.8 115.1 106.5 114.8 106.2 114.6 C 105.9 114.4 105.5 114.3 105 114.3 C 104.2 114.3 103.6 114.6 103 115.1 C 102.5 115.6 102.2 116.5 102.2 117.7 C 102.25 117.68 102.2 124.3 102.2 124.3 L 100.3 124.3 C 100.3 124.3 100.32 116.89 100.3 116.9 C 100.3 116 100.2 115.4 99.8 115 C 99.5 114.5 99 114.3 98.3 114.3 C 97.8 114.3 97.2 114.5 96.8 114.7 C 96.3 115 96 115.4 95.8 116 C 95.6 116.6 95.5 117.3 95.5 118.4 C 95.47 118.38 95.5 124.3 95.5 124.3 L 93.5 124.3 Z M 119.7 120.6 C 119.7 120.6 121.7 120.9 121.7 120.9 C 121.4 122 120.8 123 119.9 123.6 C 119.1 124.2 118 124.6 116.7 124.6 C 115 124.6 113.7 124 112.7 123 C 111.7 122 111.2 120.6 111.2 118.7 C 111.2 116.8 111.7 115.3 112.7 114.2 C 113.7 113.2 115 112.6 116.5 112.6 C 118.1 112.6 119.3 113.2 120.3 114.2 C 121.3 115.2 121.7 116.7 121.7 118.6 C 121.7 118.7 121.7 118.9 121.7 119.1 C 121.7 119.1 113.2 119.1 113.2 119.1 C 113.3 120.3 113.6 121.3 114.3 122 C 114.9 122.6 115.7 123 116.7 123 C 117.4 123 118 122.8 118.5 122.4 C 119 122 119.4 121.4 119.7 120.6 Z M 113.3 117.5 C 113.3 117.5 119.7 117.5 119.7 117.5 C 119.6 116.5 119.4 115.8 119 115.3 C 118.3 114.6 117.5 114.2 116.6 114.2 C 115.7 114.2 114.9 114.5 114.3 115.1 C 113.7 115.7 113.4 116.5 113.3 117.5 Z M 123.3 120.9 C 123.3 120.9 125.2 120.6 125.2 120.6 C 125.3 121.4 125.6 122 126.1 122.4 C 126.6 122.8 127.3 123 128.2 123 C 129.1 123 129.7 122.8 130.2 122.4 C 130.6 122.1 130.8 121.6 130.8 121.2 C 130.8 120.7 130.6 120.4 130.2 120.1 C 130 120 129.3 119.7 128.3 119.5 C 126.8 119.1 125.9 118.8 125.3 118.5 C 124.8 118.3 124.4 117.9 124.1 117.5 C 123.8 117 123.6 116.5 123.6 115.9 C 123.6 115.4 123.8 114.9 124 114.5 C 124.2 114.1 124.5 113.7 124.9 113.4 C 125.2 113.2 125.7 113 126.2 112.9 C 126.7 112.7 127.3 112.6 127.8 112.6 C 128.7 112.6 129.5 112.8 130.2 113 C 130.9 113.3 131.4 113.6 131.7 114.1 C 132 114.5 132.2 115.1 132.4 115.8 C 132.4 115.8 130.5 116.1 130.5 116.1 C 130.4 115.5 130.1 115.1 129.7 114.7 C 129.3 114.4 128.7 114.2 128 114.2 C 127.1 114.2 126.5 114.4 126.1 114.7 C 125.7 115 125.5 115.3 125.5 115.7 C 125.5 115.9 125.6 116.2 125.8 116.4 C 125.9 116.6 126.2 116.8 126.5 116.9 C 126.7 117 127.3 117.1 128.2 117.4 C 129.6 117.8 130.5 118 131.1 118.3 C 131.6 118.5 132 118.9 132.3 119.3 C 132.6 119.7 132.8 120.3 132.8 121 C 132.8 121.6 132.6 122.2 132.2 122.8 C 131.9 123.3 131.3 123.8 130.6 124.1 C 129.9 124.4 129.1 124.6 128.2 124.6 C 126.7 124.6 125.6 124.3 124.8 123.6 C 124 123 123.5 122.1 123.3 120.9 Z M 149 124.3 C 148.8 123.9 148.7 123.4 148.7 122.9 C 147.9 123.5 147.2 123.9 146.6 124.2 C 145.9 124.4 145.2 124.6 144.5 124.6 C 143.2 124.6 142.2 124.3 141.6 123.6 C 140.9 123 140.6 122.2 140.6 121.3 C 140.6 120.7 140.7 120.2 140.9 119.8 C 141.2 119.3 141.5 118.9 141.9 118.7 C 142.3 118.4 142.8 118.2 143.3 118 C 143.7 117.9 144.3 117.8 145 117.7 C 146.6 117.5 147.8 117.3 148.5 117.1 C 148.5 116.8 148.5 116.6 148.5 116.6 C 148.5 115.8 148.3 115.2 148 114.9 C 147.5 114.5 146.7 114.2 145.8 114.2 C 144.8 114.2 144.2 114.4 143.7 114.7 C 143.3 115 143 115.6 142.8 116.4 C 142.8 116.4 140.9 116.2 140.9 116.2 C 141.1 115.3 141.3 114.7 141.7 114.2 C 142.1 113.7 142.7 113.3 143.4 113 C 144.2 112.8 145.1 112.6 146 112.6 C 147 112.6 147.8 112.8 148.4 113 C 149 113.2 149.5 113.5 149.8 113.8 C 150 114.2 150.2 114.6 150.4 115.2 C 150.4 115.5 150.4 116.1 150.4 116.9 C 150.4 116.9 150.4 119.5 150.4 119.5 C 150.4 121.3 150.5 122.5 150.6 122.9 C 150.7 123.4 150.8 123.9 151.1 124.3 C 151.06 124.3 149 124.3 149 124.3 C 149 124.3 149.04 124.3 149 124.3 Z M 148.5 118.6 C 147.8 118.9 146.7 119.1 145.3 119.3 C 144.5 119.4 144 119.6 143.6 119.7 C 143.3 119.8 143.1 120 142.9 120.3 C 142.7 120.6 142.6 120.9 142.6 121.2 C 142.6 121.8 142.8 122.2 143.2 122.5 C 143.6 122.9 144.2 123 144.9 123 C 145.7 123 146.3 122.9 146.9 122.6 C 147.5 122.2 147.9 121.8 148.2 121.2 C 148.4 120.8 148.5 120.1 148.5 119.3 C 148.5 119.3 148.5 118.6 148.5 118.6 Z M 153.4 124.3 L 153.4 112.9 L 155.2 112.9 C 155.2 112.9 155.19 114.52 155.2 114.5 C 156 113.3 157.2 112.6 158.8 112.6 C 159.5 112.6 160.1 112.8 160.7 113 C 161.3 113.3 161.7 113.6 162 114 C 162.3 114.4 162.5 114.9 162.6 115.4 C 162.7 115.8 162.7 116.4 162.7 117.3 C 162.72 117.29 162.7 124.3 162.7 124.3 L 160.8 124.3 C 160.8 124.3 160.78 117.36 160.8 117.4 C 160.8 116.6 160.7 116 160.6 115.6 C 160.4 115.2 160.1 114.9 159.8 114.7 C 159.4 114.4 158.9 114.3 158.4 114.3 C 157.6 114.3 156.9 114.6 156.3 115.1 C 155.7 115.6 155.4 116.6 155.4 118.1 C 155.38 118.07 155.4 124.3 155.4 124.3 L 153.4 124.3 Z M 173.1 124.3 C 173.1 124.3 173.08 122.86 173.1 122.9 C 172.4 124 171.3 124.6 169.9 124.6 C 169 124.6 168.1 124.3 167.4 123.8 C 166.6 123.3 166 122.6 165.6 121.7 C 165.2 120.8 165 119.8 165 118.6 C 165 117.5 165.2 116.4 165.6 115.5 C 165.9 114.6 166.5 113.9 167.3 113.4 C 168 112.9 168.9 112.6 169.8 112.6 C 170.5 112.6 171.1 112.8 171.6 113.1 C 172.2 113.4 172.6 113.7 173 114.2 C 172.95 114.21 173 108.6 173 108.6 L 174.9 108.6 L 174.9 124.3 L 173.1 124.3 Z M 167 118.6 C 167 120.1 167.3 121.2 167.9 121.9 C 168.5 122.6 169.2 123 170.1 123 C 170.9 123 171.6 122.6 172.2 121.9 C 172.8 121.2 173.1 120.2 173.1 118.8 C 173.1 117.2 172.8 116.1 172.2 115.3 C 171.6 114.6 170.9 114.2 170 114.2 C 169.1 114.2 168.4 114.6 167.8 115.3 C 167.3 116 167 117.1 167 118.6 Z M 184 128.7 L 184 112.9 L 185.8 112.9 C 185.8 112.9 185.79 114.38 185.8 114.4 C 186.2 113.8 186.7 113.4 187.2 113.1 C 187.7 112.8 188.4 112.6 189.1 112.6 C 190.1 112.6 190.9 112.9 191.7 113.4 C 192.4 113.9 193 114.6 193.4 115.5 C 193.7 116.4 193.9 117.4 193.9 118.5 C 193.9 119.7 193.7 120.7 193.3 121.7 C 192.9 122.6 192.3 123.3 191.5 123.8 C 190.7 124.3 189.8 124.6 189 124.6 C 188.3 124.6 187.7 124.4 187.2 124.2 C 186.7 123.9 186.3 123.5 186 123.1 C 185.96 123.12 186 128.7 186 128.7 L 184 128.7 Z M 185.8 118.7 C 185.8 120.1 186.1 121.2 186.7 121.9 C 187.3 122.6 188 123 188.8 123 C 189.7 123 190.4 122.6 191 121.9 C 191.7 121.2 192 120 192 118.5 C 192 117 191.7 116 191.1 115.2 C 190.5 114.5 189.7 114.2 188.9 114.2 C 188.1 114.2 187.4 114.5 186.7 115.3 C 186.1 116.1 185.8 117.2 185.8 118.7 Z M 196.2 124.3 L 196.2 112.9 L 198 112.9 C 198 112.9 197.98 114.62 198 114.6 C 198.4 113.8 198.8 113.3 199.2 113 C 199.6 112.8 200 112.6 200.5 112.6 C 201.1 112.6 201.8 112.8 202.4 113.3 C 202.4 113.3 201.8 115.1 201.8 115.1 C 201.3 114.8 200.8 114.6 200.4 114.6 C 199.9 114.6 199.6 114.8 199.2 115 C 198.9 115.3 198.6 115.6 198.5 116.1 C 198.3 116.8 198.2 117.5 198.2 118.3 C 198.18 118.33 198.2 124.3 198.2 124.3 L 196.2 124.3 Z M 202.9 118.6 C 202.9 116.5 203.5 114.9 204.6 113.9 C 205.6 113.1 206.8 112.6 208.2 112.6 C 209.8 112.6 211.1 113.2 212.1 114.2 C 213.1 115.2 213.6 116.6 213.6 118.4 C 213.6 119.9 213.3 121.1 212.9 121.9 C 212.5 122.7 211.8 123.4 211 123.9 C 210.1 124.3 209.2 124.6 208.2 124.6 C 206.6 124.6 205.3 124 204.3 123 C 203.4 122 202.9 120.5 202.9 118.6 Z M 204.9 118.6 C 204.9 120.1 205.2 121.2 205.8 121.9 C 206.5 122.6 207.3 123 208.2 123 C 209.2 123 210 122.6 210.6 121.9 C 211.3 121.1 211.6 120 211.6 118.5 C 211.6 117.1 211.3 116.1 210.6 115.3 C 210 114.6 209.2 114.2 208.2 114.2 C 207.3 114.2 206.5 114.6 205.8 115.3 C 205.2 116 204.9 117.1 204.9 118.6 Z M 215.8 110.8 L 215.8 108.6 L 217.7 108.6 L 217.7 110.8 L 215.8 110.8 Z M 214.9 128.9 C 214.4 128.9 213.9 128.9 213.4 128.7 C 213.4 128.7 213.7 127.1 213.7 127.1 C 214.1 127.2 214.4 127.2 214.6 127.2 C 215 127.2 215.3 127.1 215.5 126.8 C 215.7 126.6 215.8 125.9 215.8 124.9 C 215.82 124.88 215.8 112.9 215.8 112.9 L 217.7 112.9 C 217.7 112.9 217.75 124.93 217.7 124.9 C 217.7 126.3 217.6 127.3 217.2 127.9 C 216.7 128.6 216 128.9 214.9 128.9 C 214.9 128.9 214.9 128.9 214.9 128.9 Z M 228.5 120.6 C 228.5 120.6 230.5 120.9 230.5 120.9 C 230.2 122 229.6 123 228.8 123.6 C 227.9 124.2 226.8 124.6 225.5 124.6 C 223.8 124.6 222.5 124 221.5 123 C 220.6 122 220.1 120.6 220.1 118.7 C 220.1 116.8 220.6 115.3 221.6 114.2 C 222.5 113.2 223.8 112.6 225.4 112.6 C 226.9 112.6 228.2 113.2 229.1 114.2 C 230.1 115.2 230.6 116.7 230.6 118.6 C 230.6 118.7 230.6 118.9 230.6 119.1 C 230.6 119.1 222.1 119.1 222.1 119.1 C 222.1 120.3 222.5 121.3 223.1 122 C 223.8 122.6 224.6 123 225.5 123 C 226.2 123 226.8 122.8 227.3 122.4 C 227.8 122 228.2 121.4 228.5 120.6 Z M 222.2 117.5 C 222.2 117.5 228.5 117.5 228.5 117.5 C 228.5 116.5 228.2 115.8 227.8 115.3 C 227.2 114.6 226.4 114.2 225.4 114.2 C 224.5 114.2 223.8 114.5 223.2 115.1 C 222.6 115.7 222.2 116.5 222.2 117.5 Z M 240.4 120.1 C 240.4 120.1 242.3 120.4 242.3 120.4 C 242.1 121.7 241.6 122.7 240.7 123.4 C 239.8 124.2 238.8 124.6 237.5 124.6 C 236 124.6 234.7 124.1 233.8 123 C 232.8 122 232.4 120.5 232.4 118.6 C 232.4 117.4 232.6 116.3 233 115.4 C 233.4 114.5 234 113.8 234.8 113.3 C 235.7 112.9 236.6 112.6 237.6 112.6 C 238.8 112.6 239.8 113 240.6 113.6 C 241.4 114.2 241.9 115.1 242.1 116.2 C 242.1 116.2 240.2 116.5 240.2 116.5 C 240.1 115.8 239.7 115.2 239.3 114.8 C 238.8 114.4 238.3 114.2 237.6 114.2 C 236.7 114.2 235.9 114.6 235.3 115.3 C 234.6 116 234.3 117.1 234.3 118.6 C 234.3 120.1 234.6 121.2 235.2 121.9 C 235.8 122.6 236.6 123 237.5 123 C 238.3 123 238.9 122.7 239.4 122.3 C 239.9 121.8 240.3 121.1 240.4 120.1 Z M 247.3 122.6 C 247.5 122.6 247.8 122.6 248.2 122.6 C 248.2 122.6 248.5 124.3 248.5 124.3 C 247.9 124.4 247.4 124.5 247 124.5 C 246.3 124.5 245.7 124.3 245.4 124.1 C 245 123.9 244.7 123.6 244.5 123.2 C 244.4 122.9 244.3 122.1 244.3 121 C 244.3 120.96 244.3 114.4 244.3 114.4 L 242.9 114.4 L 242.9 112.9 L 244.3 112.9 L 244.3 110.1 L 246.2 108.9 L 246.2 112.9 L 248.2 112.9 L 248.2 114.4 L 246.2 114.4 C 246.2 114.4 246.23 121.07 246.2 121.1 C 246.2 121.6 246.3 122 246.3 122.1 C 246.4 122.3 246.5 122.4 246.7 122.5 C 246.8 122.6 247 122.6 247.3 122.6 C 247.3 122.6 247.3 122.6 247.3 122.6 Z M 256.2 110.8 L 256.2 108.6 L 258.1 108.6 L 258.1 110.8 L 256.2 110.8 Z M 256.2 124.3 L 256.2 112.9 L 258.1 112.9 L 258.1 124.3 L 256.2 124.3 Z M 261.1 124.3 L 261.1 112.9 L 262.8 112.9 C 262.8 112.9 262.79 114.5 262.8 114.5 C 263.1 113.9 263.6 113.5 264.2 113.1 C 264.8 112.8 265.5 112.6 266.2 112.6 C 267.1 112.6 267.8 112.8 268.3 113.2 C 268.9 113.5 269.3 114 269.5 114.6 C 270.4 113.3 271.5 112.6 273 112.6 C 274.1 112.6 275 113 275.6 113.6 C 276.2 114.2 276.5 115.2 276.5 116.5 C 276.52 116.47 276.5 124.3 276.5 124.3 L 274.6 124.3 C 274.6 124.3 274.6 117.12 274.6 117.1 C 274.6 116.3 274.5 115.8 274.4 115.4 C 274.3 115.1 274.1 114.8 273.7 114.6 C 273.4 114.4 273 114.3 272.6 114.3 C 271.8 114.3 271.1 114.6 270.6 115.1 C 270 115.6 269.8 116.5 269.8 117.7 C 269.77 117.68 269.8 124.3 269.8 124.3 L 267.8 124.3 C 267.8 124.3 267.84 116.89 267.8 116.9 C 267.8 116 267.7 115.4 267.4 115 C 267.1 114.5 266.5 114.3 265.8 114.3 C 265.3 114.3 264.8 114.5 264.3 114.7 C 263.8 115 263.5 115.4 263.3 116 C 263.1 116.6 263 117.3 263 118.4 C 263 118.38 263 124.3 263 124.3 L 261.1 124.3 Z M 279.4 128.7 L 279.4 112.9 L 281.1 112.9 C 281.1 112.9 281.15 114.38 281.1 114.4 C 281.6 113.8 282 113.4 282.6 113.1 C 283.1 112.8 283.7 112.6 284.5 112.6 C 285.4 112.6 286.3 112.9 287 113.4 C 287.8 113.9 288.3 114.6 288.7 115.5 C 289.1 116.4 289.3 117.4 289.3 118.5 C 289.3 119.7 289.1 120.7 288.7 121.7 C 288.2 122.6 287.6 123.3 286.8 123.8 C 286 124.3 285.2 124.6 284.3 124.6 C 283.7 124.6 283.1 124.4 282.6 124.2 C 282.1 123.9 281.7 123.5 281.3 123.1 C 281.32 123.12 281.3 128.7 281.3 128.7 L 279.4 128.7 Z M 281.1 118.7 C 281.1 120.1 281.4 121.2 282 121.9 C 282.6 122.6 283.3 123 284.2 123 C 285 123 285.8 122.6 286.4 121.9 C 287 121.2 287.3 120 287.3 118.5 C 287.3 117 287 116 286.4 115.2 C 285.8 114.5 285.1 114.2 284.3 114.2 C 283.5 114.2 282.7 114.5 282.1 115.3 C 281.5 116.1 281.1 117.2 281.1 118.7 Z M 299.5 124.3 C 299.3 123.9 299.1 123.4 299.1 122.9 C 298.4 123.5 297.7 123.9 297 124.2 C 296.3 124.4 295.6 124.6 294.9 124.6 C 293.6 124.6 292.7 124.3 292 123.6 C 291.3 123 291 122.2 291 121.3 C 291 120.7 291.1 120.2 291.3 119.8 C 291.6 119.3 291.9 118.9 292.3 118.7 C 292.8 118.4 293.2 118.2 293.7 118 C 294.1 117.9 294.7 117.8 295.5 117.7 C 297 117.5 298.2 117.3 298.9 117.1 C 298.9 116.8 298.9 116.6 298.9 116.6 C 298.9 115.8 298.7 115.2 298.4 114.9 C 297.9 114.5 297.1 114.2 296.2 114.2 C 295.3 114.2 294.6 114.4 294.2 114.7 C 293.7 115 293.4 115.6 293.2 116.4 C 293.2 116.4 291.3 116.2 291.3 116.2 C 291.5 115.3 291.8 114.7 292.1 114.2 C 292.5 113.7 293.1 113.3 293.9 113 C 294.6 112.8 295.5 112.6 296.4 112.6 C 297.4 112.6 298.2 112.8 298.8 113 C 299.4 113.2 299.9 113.5 300.2 113.8 C 300.4 114.2 300.7 114.6 300.8 115.2 C 300.8 115.5 300.9 116.1 300.9 116.9 C 300.9 116.9 300.9 119.5 300.9 119.5 C 300.9 121.3 300.9 122.5 301 122.9 C 301.1 123.4 301.2 123.9 301.5 124.3 C 301.47 124.3 299.5 124.3 299.5 124.3 C 299.5 124.3 299.45 124.3 299.5 124.3 Z M 298.9 118.6 C 298.2 118.9 297.2 119.1 295.7 119.3 C 295 119.4 294.4 119.6 294.1 119.7 C 293.7 119.8 293.5 120 293.3 120.3 C 293.1 120.6 293 120.9 293 121.2 C 293 121.8 293.2 122.2 293.6 122.5 C 294 122.9 294.6 123 295.3 123 C 296.1 123 296.7 122.9 297.3 122.6 C 297.9 122.2 298.3 121.8 298.6 121.2 C 298.8 120.8 298.9 120.1 298.9 119.3 C 298.9 119.3 298.9 118.6 298.9 118.6 Z M 311.3 120.1 C 311.3 120.1 313.2 120.4 313.2 120.4 C 313 121.7 312.5 122.7 311.6 123.4 C 310.8 124.2 309.7 124.6 308.5 124.6 C 306.9 124.6 305.6 124.1 304.7 123 C 303.7 122 303.3 120.5 303.3 118.6 C 303.3 117.4 303.5 116.3 303.9 115.4 C 304.3 114.5 304.9 113.8 305.7 113.3 C 306.6 112.9 307.5 112.6 308.5 112.6 C 309.7 112.6 310.7 113 311.5 113.6 C 312.3 114.2 312.8 115.1 313 116.2 C 313 116.2 311.1 116.5 311.1 116.5 C 311 115.8 310.6 115.2 310.2 114.8 C 309.7 114.4 309.2 114.2 308.5 114.2 C 307.6 114.2 306.8 114.6 306.2 115.3 C 305.6 116 305.3 117.1 305.3 118.6 C 305.3 120.1 305.5 121.2 306.1 121.9 C 306.7 122.6 307.5 123 308.4 123 C 309.2 123 309.8 122.7 310.3 122.3 C 310.8 121.8 311.2 121.1 311.3 120.1 Z M 318.2 122.6 C 318.4 122.6 318.7 122.6 319.1 122.6 C 319.1 122.6 319.4 124.3 319.4 124.3 C 318.8 124.4 318.3 124.5 317.9 124.5 C 317.2 124.5 316.7 124.3 316.3 124.1 C 315.9 123.9 315.6 123.6 315.4 123.2 C 315.3 122.9 315.2 122.1 315.2 121 C 315.21 120.96 315.2 114.4 315.2 114.4 L 313.8 114.4 L 313.8 112.9 L 315.2 112.9 L 315.2 110.1 L 317.1 108.9 L 317.1 112.9 L 319.1 112.9 L 319.1 114.4 L 317.1 114.4 C 317.1 114.4 317.14 121.07 317.1 121.1 C 317.1 121.6 317.2 122 317.2 122.1 C 317.3 122.3 317.4 122.4 317.6 122.5 C 317.7 122.6 317.9 122.6 318.2 122.6 C 318.2 122.6 318.2 122.6 318.2 122.6 Z M 321.5 124.3 L 321.5 122.1 L 323.7 122.1 L 323.7 124.3 L 321.5 124.3 Z " stroke="none" fill="#000"/>  </g>  <g id="Polygon6942">    <path d="M 7 97.9 L 7 82.2 C 7 82.2 13.95 82.16 13.9 82.2 C 15.4 82.2 16.4 82.3 17.1 82.6 C 17.9 82.9 18.5 83.4 18.9 84.1 C 19.3 84.8 19.6 85.6 19.6 86.5 C 19.6 87.6 19.2 88.5 18.5 89.3 C 17.7 90 16.6 90.5 15.1 90.7 C 15.7 91 16.1 91.3 16.4 91.5 C 17 92.1 17.6 92.8 18.1 93.6 C 18.11 93.62 20.8 97.9 20.8 97.9 L 18.2 97.9 C 18.2 97.9 16.14 94.63 16.1 94.6 C 15.5 93.7 15 93 14.6 92.5 C 14.2 92 13.9 91.6 13.6 91.4 C 13.3 91.2 12.9 91.1 12.6 91 C 12.4 90.9 12 90.9 11.5 90.9 C 11.47 90.91 9 90.9 9 90.9 L 9 97.9 L 7 97.9 Z M 9 89.1 C 9 89.1 13.53 89.11 13.5 89.1 C 14.5 89.1 15.2 89 15.8 88.8 C 16.3 88.6 16.7 88.3 17 87.9 C 17.3 87.4 17.4 87 17.4 86.5 C 17.4 85.7 17.1 85.1 16.6 84.6 C 16.1 84.1 15.2 83.9 14 83.9 C 14.03 83.9 9 83.9 9 83.9 L 9 89.1 Z M 30.4 94.2 C 30.4 94.2 32.4 94.5 32.4 94.5 C 32.1 95.6 31.5 96.6 30.6 97.2 C 29.8 97.8 28.7 98.2 27.4 98.2 C 25.7 98.2 24.4 97.6 23.4 96.6 C 22.4 95.6 21.9 94.2 21.9 92.3 C 21.9 90.4 22.4 88.9 23.4 87.8 C 24.4 86.8 25.7 86.2 27.3 86.2 C 28.8 86.2 30 86.8 31 87.8 C 32 88.8 32.4 90.3 32.4 92.2 C 32.4 92.3 32.4 92.5 32.4 92.7 C 32.4 92.7 23.9 92.7 23.9 92.7 C 24 93.9 24.4 94.9 25 95.6 C 25.6 96.2 26.4 96.6 27.4 96.6 C 28.1 96.6 28.7 96.4 29.2 96 C 29.7 95.6 30.1 95 30.4 94.2 Z M 24 91.1 C 24 91.1 30.4 91.1 30.4 91.1 C 30.3 90.1 30.1 89.4 29.7 88.9 C 29.1 88.2 28.3 87.8 27.3 87.8 C 26.4 87.8 25.6 88.1 25 88.7 C 24.4 89.3 24.1 90.1 24 91.1 Z M 42.1 102.3 C 42.1 102.3 42.08 96.69 42.1 96.7 C 41.8 97.1 41.4 97.5 40.8 97.7 C 40.3 98 39.7 98.2 39.1 98.2 C 37.7 98.2 36.6 97.6 35.6 96.5 C 34.6 95.5 34.1 94 34.1 92.1 C 34.1 90.9 34.3 89.9 34.7 89 C 35.1 88.1 35.7 87.4 36.5 86.9 C 37.2 86.5 38 86.2 38.9 86.2 C 40.4 86.2 41.5 86.8 42.3 88 C 42.28 88.02 42.3 86.5 42.3 86.5 L 44 86.5 L 44 102.3 L 42.1 102.3 Z M 36.1 92.2 C 36.1 93.6 36.4 94.7 37 95.5 C 37.7 96.2 38.4 96.6 39.3 96.6 C 40.1 96.6 40.8 96.2 41.4 95.5 C 42 94.8 42.3 93.8 42.3 92.3 C 42.3 90.8 42 89.7 41.3 88.9 C 40.7 88.1 40 87.8 39.1 87.8 C 38.3 87.8 37.6 88.1 37 88.8 C 36.4 89.5 36.1 90.7 36.1 92.2 Z M 54.5 97.9 C 54.5 97.9 54.52 96.23 54.5 96.2 C 53.6 97.5 52.4 98.2 50.9 98.2 C 50.2 98.2 49.6 98 49 97.8 C 48.4 97.5 48 97.2 47.7 96.8 C 47.4 96.4 47.2 95.9 47.1 95.4 C 47 95 47 94.4 47 93.6 C 47 93.56 47 86.5 47 86.5 L 48.9 86.5 C 48.9 86.5 48.94 92.82 48.9 92.8 C 48.9 93.8 49 94.5 49.1 94.9 C 49.2 95.4 49.4 95.8 49.8 96.1 C 50.2 96.4 50.7 96.5 51.3 96.5 C 51.9 96.5 52.4 96.3 52.9 96.1 C 53.4 95.8 53.8 95.3 54 94.8 C 54.2 94.3 54.3 93.6 54.3 92.6 C 54.32 92.61 54.3 86.5 54.3 86.5 L 56.3 86.5 L 56.3 97.9 L 54.5 97.9 Z M 59.3 84.4 L 59.3 82.2 L 61.2 82.2 L 61.2 84.4 L 59.3 84.4 Z M 59.3 97.9 L 59.3 86.5 L 61.2 86.5 L 61.2 97.9 L 59.3 97.9 Z M 64.1 97.9 L 64.1 86.5 L 65.9 86.5 C 65.9 86.5 65.89 88.22 65.9 88.2 C 66.3 87.4 66.7 86.9 67.1 86.6 C 67.5 86.4 67.9 86.2 68.4 86.2 C 69 86.2 69.7 86.4 70.3 86.9 C 70.3 86.9 69.7 88.7 69.7 88.7 C 69.2 88.4 68.7 88.2 68.3 88.2 C 67.8 88.2 67.5 88.4 67.1 88.6 C 66.8 88.9 66.5 89.2 66.4 89.7 C 66.2 90.4 66.1 91.1 66.1 91.9 C 66.08 91.93 66.1 97.9 66.1 97.9 L 64.1 97.9 Z M 79.3 94.2 C 79.3 94.2 81.3 94.5 81.3 94.5 C 81 95.6 80.4 96.6 79.6 97.2 C 78.7 97.8 77.6 98.2 76.3 98.2 C 74.6 98.2 73.3 97.6 72.3 96.6 C 71.3 95.6 70.8 94.2 70.8 92.3 C 70.8 90.4 71.3 88.9 72.3 87.8 C 73.3 86.8 74.6 86.2 76.2 86.2 C 77.7 86.2 78.9 86.8 79.9 87.8 C 80.9 88.8 81.4 90.3 81.4 92.2 C 81.4 92.3 81.4 92.5 81.4 92.7 C 81.4 92.7 72.8 92.7 72.8 92.7 C 72.9 93.9 73.3 94.9 73.9 95.6 C 74.5 96.2 75.3 96.6 76.3 96.6 C 77 96.6 77.6 96.4 78.1 96 C 78.6 95.6 79 95 79.3 94.2 Z M 73 91.1 C 73 91.1 79.3 91.1 79.3 91.1 C 79.2 90.1 79 89.4 78.6 88.9 C 78 88.2 77.2 87.8 76.2 87.8 C 75.3 87.8 74.6 88.1 74 88.7 C 73.4 89.3 73 90.1 73 91.1 Z M 91.1 97.9 C 91.1 97.9 91.13 96.46 91.1 96.5 C 90.4 97.6 89.3 98.2 87.9 98.2 C 87 98.2 86.2 97.9 85.4 97.4 C 84.7 96.9 84.1 96.2 83.7 95.3 C 83.2 94.4 83 93.4 83 92.2 C 83 91.1 83.2 90 83.6 89.1 C 84 88.2 84.5 87.5 85.3 87 C 86.1 86.5 86.9 86.2 87.9 86.2 C 88.5 86.2 89.2 86.4 89.7 86.7 C 90.2 87 90.7 87.3 91 87.8 C 91 87.81 91 82.2 91 82.2 L 92.9 82.2 L 92.9 97.9 L 91.1 97.9 Z M 85 92.2 C 85 93.7 85.3 94.8 85.9 95.5 C 86.6 96.2 87.3 96.6 88.1 96.6 C 89 96.6 89.7 96.2 90.3 95.5 C 90.9 94.8 91.2 93.8 91.2 92.4 C 91.2 90.8 90.9 89.7 90.3 88.9 C 89.7 88.2 88.9 87.8 88 87.8 C 87.2 87.8 86.5 88.2 85.9 88.9 C 85.3 89.6 85 90.7 85 92.2 Z M 102.5 97.9 L 102.5 88 L 100.8 88 L 100.8 86.5 L 102.5 86.5 C 102.5 86.5 102.54 85.28 102.5 85.3 C 102.5 84.5 102.6 83.9 102.7 83.6 C 102.9 83.1 103.3 82.7 103.7 82.4 C 104.2 82 104.9 81.9 105.7 81.9 C 106.2 81.9 106.8 82 107.5 82.1 C 107.5 82.1 107.2 83.8 107.2 83.8 C 106.8 83.7 106.4 83.7 106.1 83.7 C 105.5 83.7 105.1 83.8 104.8 84 C 104.6 84.3 104.5 84.8 104.5 85.4 C 104.46 85.44 104.5 86.5 104.5 86.5 L 106.7 86.5 L 106.7 88 L 104.5 88 L 104.5 97.9 L 102.5 97.9 Z M 107.5 92.2 C 107.5 90.1 108.1 88.5 109.2 87.5 C 110.2 86.7 111.4 86.2 112.8 86.2 C 114.4 86.2 115.7 86.8 116.7 87.8 C 117.7 88.8 118.2 90.2 118.2 92 C 118.2 93.5 117.9 94.7 117.5 95.5 C 117.1 96.3 116.4 97 115.6 97.5 C 114.7 97.9 113.8 98.2 112.8 98.2 C 111.2 98.2 109.9 97.6 108.9 96.6 C 108 95.6 107.5 94.1 107.5 92.2 Z M 109.5 92.2 C 109.5 93.7 109.8 94.8 110.4 95.5 C 111.1 96.2 111.9 96.6 112.8 96.6 C 113.8 96.6 114.6 96.2 115.2 95.5 C 115.9 94.7 116.2 93.6 116.2 92.1 C 116.2 90.7 115.9 89.7 115.2 88.9 C 114.6 88.2 113.8 87.8 112.8 87.8 C 111.9 87.8 111.1 88.2 110.4 88.9 C 109.8 89.6 109.5 90.7 109.5 92.2 Z M 120.4 97.9 L 120.4 86.5 L 122.1 86.5 C 122.1 86.5 122.14 88.22 122.1 88.2 C 122.6 87.4 123 86.9 123.4 86.6 C 123.7 86.4 124.2 86.2 124.6 86.2 C 125.3 86.2 125.9 86.4 126.6 86.9 C 126.6 86.9 125.9 88.7 125.9 88.7 C 125.5 88.4 125 88.2 124.5 88.2 C 124.1 88.2 123.7 88.4 123.4 88.6 C 123 88.9 122.8 89.2 122.7 89.7 C 122.4 90.4 122.3 91.1 122.3 91.9 C 122.34 91.93 122.3 97.9 122.3 97.9 L 120.4 97.9 Z M 141.7 94.2 C 141.7 94.2 143.7 94.5 143.7 94.5 C 143.4 95.6 142.8 96.6 141.9 97.2 C 141.1 97.8 140 98.2 138.7 98.2 C 137 98.2 135.7 97.6 134.7 96.6 C 133.7 95.6 133.2 94.2 133.2 92.3 C 133.2 90.4 133.7 88.9 134.7 87.8 C 135.7 86.8 137 86.2 138.5 86.2 C 140.1 86.2 141.3 86.8 142.3 87.8 C 143.3 88.8 143.7 90.3 143.7 92.2 C 143.7 92.3 143.7 92.5 143.7 92.7 C 143.7 92.7 135.2 92.7 135.2 92.7 C 135.3 93.9 135.6 94.9 136.3 95.6 C 136.9 96.2 137.7 96.6 138.7 96.6 C 139.4 96.6 140 96.4 140.5 96 C 141 95.6 141.4 95 141.7 94.2 Z M 135.3 91.1 C 135.3 91.1 141.7 91.1 141.7 91.1 C 141.6 90.1 141.4 89.4 141 88.9 C 140.3 88.2 139.5 87.8 138.6 87.8 C 137.7 87.8 136.9 88.1 136.3 88.7 C 135.7 89.3 135.4 90.1 135.3 91.1 Z M 149.3 97.9 L 144.9 86.5 L 147 86.5 C 147 86.5 149.42 93.33 149.4 93.3 C 149.7 94.1 149.9 94.8 150.1 95.6 C 150.3 95 150.6 94.3 150.9 93.5 C 150.87 93.46 153.4 86.5 153.4 86.5 L 155.4 86.5 L 151.1 97.9 L 149.3 97.9 Z M 157.1 84.4 L 157.1 82.2 L 159 82.2 L 159 84.4 L 157.1 84.4 Z M 157.1 97.9 L 157.1 86.5 L 159 86.5 L 159 97.9 L 157.1 97.9 Z M 169.4 97.9 C 169.4 97.9 169.39 96.46 169.4 96.5 C 168.7 97.6 167.6 98.2 166.2 98.2 C 165.3 98.2 164.5 97.9 163.7 97.4 C 162.9 96.9 162.3 96.2 161.9 95.3 C 161.5 94.4 161.3 93.4 161.3 92.2 C 161.3 91.1 161.5 90 161.9 89.1 C 162.2 88.2 162.8 87.5 163.6 87 C 164.3 86.5 165.2 86.2 166.1 86.2 C 166.8 86.2 167.4 86.4 167.9 86.7 C 168.5 87 168.9 87.3 169.3 87.8 C 169.26 87.81 169.3 82.2 169.3 82.2 L 171.2 82.2 L 171.2 97.9 L 169.4 97.9 Z M 163.3 92.2 C 163.3 93.7 163.6 94.8 164.2 95.5 C 164.8 96.2 165.5 96.6 166.4 96.6 C 167.2 96.6 167.9 96.2 168.5 95.5 C 169.1 94.8 169.4 93.8 169.4 92.4 C 169.4 90.8 169.1 89.7 168.5 88.9 C 167.9 88.2 167.2 87.8 166.3 87.8 C 165.4 87.8 164.7 88.2 164.1 88.9 C 163.6 89.6 163.3 90.7 163.3 92.2 Z M 182 94.2 C 182 94.2 184 94.5 184 94.5 C 183.7 95.6 183.1 96.6 182.3 97.2 C 181.4 97.8 180.3 98.2 179 98.2 C 177.3 98.2 176 97.6 175 96.6 C 174.1 95.6 173.6 94.2 173.6 92.3 C 173.6 90.4 174.1 88.9 175.1 87.8 C 176 86.8 177.3 86.2 178.9 86.2 C 180.4 86.2 181.7 86.8 182.6 87.8 C 183.6 88.8 184.1 90.3 184.1 92.2 C 184.1 92.3 184.1 92.5 184.1 92.7 C 184.1 92.7 175.6 92.7 175.6 92.7 C 175.6 93.9 176 94.9 176.6 95.6 C 177.3 96.2 178.1 96.6 179 96.6 C 179.7 96.6 180.3 96.4 180.8 96 C 181.3 95.6 181.7 95 182 94.2 Z M 175.7 91.1 C 175.7 91.1 182.1 91.1 182.1 91.1 C 182 90.1 181.7 89.4 181.3 88.9 C 180.7 88.2 179.9 87.8 178.9 87.8 C 178 87.8 177.3 88.1 176.7 88.7 C 176.1 89.3 175.7 90.1 175.7 91.1 Z M 186.5 97.9 L 186.5 86.5 L 188.2 86.5 C 188.2 86.5 188.2 88.12 188.2 88.1 C 189 86.9 190.2 86.2 191.8 86.2 C 192.5 86.2 193.1 86.4 193.7 86.6 C 194.3 86.9 194.7 87.2 195 87.6 C 195.3 88 195.5 88.5 195.6 89 C 195.7 89.4 195.7 90 195.7 90.9 C 195.73 90.89 195.7 97.9 195.7 97.9 L 193.8 97.9 C 193.8 97.9 193.79 90.96 193.8 91 C 193.8 90.2 193.7 89.6 193.6 89.2 C 193.4 88.8 193.2 88.5 192.8 88.3 C 192.4 88 191.9 87.9 191.4 87.9 C 190.6 87.9 189.9 88.2 189.3 88.7 C 188.7 89.2 188.4 90.2 188.4 91.7 C 188.39 91.67 188.4 97.9 188.4 97.9 L 186.5 97.9 Z M 206.1 93.7 C 206.1 93.7 208 94 208 94 C 207.8 95.3 207.3 96.3 206.4 97 C 205.6 97.8 204.5 98.2 203.3 98.2 C 201.7 98.2 200.5 97.7 199.5 96.6 C 198.6 95.6 198.1 94.1 198.1 92.2 C 198.1 91 198.3 89.9 198.7 89 C 199.1 88.1 199.7 87.4 200.6 86.9 C 201.4 86.5 202.3 86.2 203.3 86.2 C 204.5 86.2 205.6 86.6 206.3 87.2 C 207.1 87.8 207.6 88.7 207.9 89.8 C 207.9 89.8 206 90.1 206 90.1 C 205.8 89.4 205.5 88.8 205 88.4 C 204.6 88 204 87.8 203.4 87.8 C 202.4 87.8 201.6 88.2 201 88.9 C 200.4 89.6 200.1 90.7 200.1 92.2 C 200.1 93.7 200.4 94.8 201 95.5 C 201.6 96.2 202.3 96.6 203.3 96.6 C 204 96.6 204.7 96.3 205.2 95.9 C 205.7 95.4 206 94.7 206.1 93.7 Z M 209.7 84.4 L 209.7 82.2 L 211.6 82.2 L 211.6 84.4 L 209.7 84.4 Z M 209.7 97.9 L 209.7 86.5 L 211.6 86.5 L 211.6 97.9 L 209.7 97.9 Z M 214.6 97.9 L 214.6 86.5 L 216.3 86.5 C 216.3 86.5 216.32 88.12 216.3 88.1 C 217.2 86.9 218.4 86.2 220 86.2 C 220.6 86.2 221.3 86.4 221.8 86.6 C 222.4 86.9 222.9 87.2 223.1 87.6 C 223.4 88 223.6 88.5 223.7 89 C 223.8 89.4 223.9 90 223.9 90.9 C 223.85 90.89 223.9 97.9 223.9 97.9 L 221.9 97.9 C 221.9 97.9 221.92 90.96 221.9 91 C 221.9 90.2 221.8 89.6 221.7 89.2 C 221.5 88.8 221.3 88.5 220.9 88.3 C 220.5 88 220.1 87.9 219.5 87.9 C 218.7 87.9 218 88.2 217.4 88.7 C 216.8 89.2 216.5 90.2 216.5 91.7 C 216.51 91.67 216.5 97.9 216.5 97.9 L 214.6 97.9 Z M 226.5 98.8 C 226.5 98.8 228.3 99.1 228.3 99.1 C 228.4 99.7 228.6 100.1 229 100.4 C 229.5 100.8 230.1 100.9 231 100.9 C 231.9 100.9 232.5 100.8 233 100.4 C 233.5 100 233.9 99.5 234 98.9 C 234.1 98.5 234.2 97.7 234.2 96.4 C 233.3 97.4 232.3 97.9 231 97.9 C 229.4 97.9 228.2 97.3 227.4 96.2 C 226.5 95.1 226.1 93.7 226.1 92.1 C 226.1 91 226.3 90 226.7 89.1 C 227.1 88.2 227.6 87.5 228.4 87 C 229.1 86.5 230 86.2 231 86.2 C 232.4 86.2 233.5 86.8 234.3 87.9 C 234.35 87.87 234.3 86.5 234.3 86.5 L 236.1 86.5 C 236.1 86.5 236.13 96.36 236.1 96.4 C 236.1 98.1 235.9 99.4 235.6 100.1 C 235.2 100.9 234.7 101.5 233.9 101.9 C 233.1 102.3 232.1 102.5 231 102.5 C 229.6 102.5 228.5 102.2 227.7 101.6 C 226.8 101 226.4 100.1 226.5 98.8 Z M 228.1 92 C 228.1 93.5 228.4 94.6 229 95.3 C 229.5 96 230.3 96.3 231.2 96.3 C 232.1 96.3 232.8 96 233.4 95.3 C 234 94.6 234.3 93.5 234.3 92.1 C 234.3 90.7 234 89.6 233.4 88.9 C 232.8 88.2 232 87.8 231.2 87.8 C 230.3 87.8 229.6 88.2 229 88.9 C 228.4 89.6 228.1 90.6 228.1 92 Z M 245.2 97.9 L 245.2 86.5 L 246.9 86.5 C 246.9 86.5 246.89 88.1 246.9 88.1 C 247.3 87.5 247.7 87.1 248.3 86.7 C 248.9 86.4 249.6 86.2 250.4 86.2 C 251.2 86.2 251.9 86.4 252.4 86.8 C 253 87.1 253.4 87.6 253.6 88.2 C 254.5 86.9 255.7 86.2 257.1 86.2 C 258.2 86.2 259.1 86.6 259.7 87.2 C 260.3 87.8 260.6 88.8 260.6 90.1 C 260.62 90.07 260.6 97.9 260.6 97.9 L 258.7 97.9 C 258.7 97.9 258.7 90.72 258.7 90.7 C 258.7 89.9 258.6 89.4 258.5 89 C 258.4 88.7 258.2 88.4 257.8 88.2 C 257.5 88 257.1 87.9 256.7 87.9 C 255.9 87.9 255.2 88.2 254.7 88.7 C 254.1 89.2 253.9 90.1 253.9 91.3 C 253.87 91.28 253.9 97.9 253.9 97.9 L 251.9 97.9 C 251.9 97.9 251.94 90.49 251.9 90.5 C 251.9 89.6 251.8 89 251.5 88.6 C 251.2 88.1 250.6 87.9 249.9 87.9 C 249.4 87.9 248.9 88.1 248.4 88.3 C 248 88.6 247.6 89 247.4 89.6 C 247.2 90.2 247.1 90.9 247.1 92 C 247.1 91.98 247.1 97.9 247.1 97.9 L 245.2 97.9 Z M 271.3 94.2 C 271.3 94.2 273.3 94.5 273.3 94.5 C 273 95.6 272.4 96.6 271.5 97.2 C 270.7 97.8 269.6 98.2 268.3 98.2 C 266.6 98.2 265.3 97.6 264.3 96.6 C 263.3 95.6 262.8 94.2 262.8 92.3 C 262.8 90.4 263.3 88.9 264.3 87.8 C 265.3 86.8 266.6 86.2 268.2 86.2 C 269.7 86.2 270.9 86.8 271.9 87.8 C 272.9 88.8 273.4 90.3 273.4 92.2 C 273.4 92.3 273.4 92.5 273.4 92.7 C 273.4 92.7 264.8 92.7 264.8 92.7 C 264.9 93.9 265.3 94.9 265.9 95.6 C 266.5 96.2 267.3 96.6 268.3 96.6 C 269 96.6 269.6 96.4 270.1 96 C 270.6 95.6 271 95 271.3 94.2 Z M 265 91.1 C 265 91.1 271.3 91.1 271.3 91.1 C 271.2 90.1 271 89.4 270.6 88.9 C 270 88.2 269.2 87.8 268.2 87.8 C 267.3 87.8 266.6 88.1 266 88.7 C 265.3 89.3 265 90.1 265 91.1 Z M 283.6 97.9 C 283.4 97.5 283.2 97 283.2 96.5 C 282.5 97.1 281.8 97.5 281.1 97.8 C 280.4 98 279.7 98.2 279 98.2 C 277.7 98.2 276.8 97.9 276.1 97.2 C 275.4 96.6 275.1 95.8 275.1 94.9 C 275.1 94.3 275.2 93.8 275.5 93.4 C 275.7 92.9 276 92.5 276.4 92.3 C 276.9 92 277.3 91.8 277.8 91.6 C 278.2 91.5 278.8 91.4 279.6 91.3 C 281.1 91.1 282.3 90.9 283 90.7 C 283 90.4 283 90.2 283 90.2 C 283 89.4 282.8 88.8 282.5 88.5 C 282 88.1 281.2 87.8 280.3 87.8 C 279.4 87.8 278.7 88 278.3 88.3 C 277.8 88.6 277.5 89.2 277.3 90 C 277.3 90 275.4 89.8 275.4 89.8 C 275.6 88.9 275.9 88.3 276.3 87.8 C 276.6 87.3 277.2 86.9 278 86.6 C 278.7 86.4 279.6 86.2 280.5 86.2 C 281.5 86.2 282.3 86.4 282.9 86.6 C 283.5 86.8 284 87.1 284.3 87.4 C 284.6 87.8 284.8 88.2 284.9 88.8 C 284.9 89.1 285 89.7 285 90.5 C 285 90.5 285 93.1 285 93.1 C 285 94.9 285 96.1 285.1 96.5 C 285.2 97 285.3 97.5 285.6 97.9 C 285.58 97.9 283.6 97.9 283.6 97.9 C 283.6 97.9 283.56 97.9 283.6 97.9 Z M 283 92.2 C 282.3 92.5 281.3 92.7 279.8 92.9 C 279.1 93 278.5 93.2 278.2 93.3 C 277.8 93.4 277.6 93.6 277.4 93.9 C 277.2 94.2 277.1 94.5 277.1 94.8 C 277.1 95.4 277.3 95.8 277.7 96.1 C 278.1 96.5 278.7 96.6 279.4 96.6 C 280.2 96.6 280.8 96.5 281.4 96.2 C 282 95.8 282.4 95.4 282.7 94.8 C 282.9 94.4 283 93.7 283 92.9 C 283 92.9 283 92.2 283 92.2 Z M 287.2 94.5 C 287.2 94.5 289.1 94.2 289.1 94.2 C 289.2 95 289.5 95.6 290 96 C 290.5 96.4 291.2 96.6 292.1 96.6 C 292.9 96.6 293.6 96.4 294 96 C 294.5 95.7 294.7 95.2 294.7 94.8 C 294.7 94.3 294.5 94 294.1 93.7 C 293.8 93.6 293.2 93.3 292.1 93.1 C 290.7 92.7 289.7 92.4 289.2 92.1 C 288.6 91.9 288.2 91.5 287.9 91.1 C 287.7 90.6 287.5 90.1 287.5 89.5 C 287.5 89 287.6 88.5 287.9 88.1 C 288.1 87.7 288.4 87.3 288.8 87 C 289.1 86.8 289.5 86.6 290 86.5 C 290.6 86.3 291.1 86.2 291.7 86.2 C 292.6 86.2 293.4 86.4 294.1 86.6 C 294.7 86.9 295.2 87.2 295.6 87.7 C 295.9 88.1 296.1 88.7 296.2 89.4 C 296.2 89.4 294.3 89.7 294.3 89.7 C 294.3 89.1 294 88.7 293.6 88.3 C 293.2 88 292.6 87.8 291.8 87.8 C 291 87.8 290.3 88 289.9 88.3 C 289.6 88.6 289.4 88.9 289.4 89.3 C 289.4 89.5 289.5 89.8 289.6 90 C 289.8 90.2 290 90.4 290.4 90.5 C 290.5 90.6 291.1 90.7 292.1 91 C 293.4 91.4 294.4 91.6 294.9 91.9 C 295.5 92.1 295.9 92.5 296.2 92.9 C 296.5 93.3 296.7 93.9 296.7 94.6 C 296.7 95.2 296.5 95.8 296.1 96.4 C 295.7 96.9 295.2 97.4 294.5 97.7 C 293.8 98 293 98.2 292.1 98.2 C 290.6 98.2 289.5 97.9 288.7 97.2 C 287.9 96.6 287.4 95.7 287.2 94.5 Z M 306.4 97.9 C 306.4 97.9 306.44 96.23 306.4 96.2 C 305.5 97.5 304.3 98.2 302.8 98.2 C 302.1 98.2 301.5 98 300.9 97.8 C 300.3 97.5 299.9 97.2 299.6 96.8 C 299.3 96.4 299.1 95.9 299 95.4 C 299 95 298.9 94.4 298.9 93.6 C 298.92 93.56 298.9 86.5 298.9 86.5 L 300.9 86.5 C 300.9 86.5 300.85 92.82 300.9 92.8 C 300.9 93.8 300.9 94.5 301 94.9 C 301.1 95.4 301.3 95.8 301.7 96.1 C 302.1 96.4 302.6 96.5 303.2 96.5 C 303.8 96.5 304.3 96.3 304.8 96.1 C 305.3 95.8 305.7 95.3 305.9 94.8 C 306.1 94.3 306.2 93.6 306.2 92.6 C 306.23 92.61 306.2 86.5 306.2 86.5 L 308.2 86.5 L 308.2 97.9 L 306.4 97.9 Z M 311.2 97.9 L 311.2 86.5 L 312.9 86.5 C 312.9 86.5 312.91 88.22 312.9 88.2 C 313.4 87.4 313.8 86.9 314.1 86.6 C 314.5 86.4 314.9 86.2 315.4 86.2 C 316 86.2 316.7 86.4 317.4 86.9 C 317.4 86.9 316.7 88.7 316.7 88.7 C 316.2 88.4 315.8 88.2 315.3 88.2 C 314.9 88.2 314.5 88.4 314.1 88.6 C 313.8 88.9 313.6 89.2 313.4 89.7 C 313.2 90.4 313.1 91.1 313.1 91.9 C 313.11 91.93 313.1 97.9 313.1 97.9 L 311.2 97.9 Z M 326.4 97.9 C 326.2 97.5 326 97 326 96.5 C 325.2 97.1 324.6 97.5 323.9 97.8 C 323.2 98 322.5 98.2 321.8 98.2 C 320.5 98.2 319.5 97.9 318.9 97.2 C 318.2 96.6 317.9 95.8 317.9 94.9 C 317.9 94.3 318 93.8 318.2 93.4 C 318.5 92.9 318.8 92.5 319.2 92.3 C 319.7 92 320.1 91.8 320.6 91.6 C 321 91.5 321.6 91.4 322.4 91.3 C 323.9 91.1 325.1 90.9 325.8 90.7 C 325.8 90.4 325.8 90.2 325.8 90.2 C 325.8 89.4 325.6 88.8 325.3 88.5 C 324.8 88.1 324 87.8 323.1 87.8 C 322.2 87.8 321.5 88 321.1 88.3 C 320.6 88.6 320.3 89.2 320.1 90 C 320.1 90 318.2 89.8 318.2 89.8 C 318.4 88.9 318.7 88.3 319 87.8 C 319.4 87.3 320 86.9 320.8 86.6 C 321.5 86.4 322.4 86.2 323.3 86.2 C 324.3 86.2 325.1 86.4 325.7 86.6 C 326.3 86.8 326.8 87.1 327.1 87.4 C 327.3 87.8 327.5 88.2 327.7 88.8 C 327.7 89.1 327.8 89.7 327.8 90.5 C 327.8 90.5 327.8 93.1 327.8 93.1 C 327.8 94.9 327.8 96.1 327.9 96.5 C 328 97 328.1 97.5 328.4 97.9 C 328.37 97.9 326.4 97.9 326.4 97.9 C 326.4 97.9 326.35 97.9 326.4 97.9 Z M 325.8 92.2 C 325.1 92.5 324.1 92.7 322.6 92.9 C 321.9 93 321.3 93.2 321 93.3 C 320.6 93.4 320.4 93.6 320.2 93.9 C 320 94.2 319.9 94.5 319.9 94.8 C 319.9 95.4 320.1 95.8 320.5 96.1 C 320.9 96.5 321.5 96.6 322.2 96.6 C 323 96.6 323.6 96.5 324.2 96.2 C 324.8 95.8 325.2 95.4 325.5 94.8 C 325.7 94.4 325.8 93.7 325.8 92.9 C 325.8 92.9 325.8 92.2 325.8 92.2 Z M 332.5 97.9 L 330.7 97.9 L 330.7 82.2 L 332.7 82.2 C 332.7 82.2 332.68 87.77 332.7 87.8 C 333.5 86.7 334.5 86.2 335.8 86.2 C 336.5 86.2 337.2 86.4 337.8 86.7 C 338.4 86.9 338.9 87.3 339.3 87.9 C 339.7 88.4 340.1 89 340.3 89.7 C 340.5 90.4 340.6 91.2 340.6 92 C 340.6 94 340.2 95.5 339.2 96.6 C 338.2 97.6 337.1 98.2 335.7 98.2 C 334.4 98.2 333.3 97.6 332.5 96.5 C 332.54 96.47 332.5 97.9 332.5 97.9 Z M 332.5 92.1 C 332.5 93.5 332.7 94.5 333.1 95.1 C 333.7 96.1 334.5 96.6 335.5 96.6 C 336.4 96.6 337.1 96.2 337.7 95.5 C 338.4 94.7 338.7 93.6 338.7 92.2 C 338.7 90.7 338.4 89.6 337.8 88.9 C 337.2 88.2 336.5 87.8 335.6 87.8 C 334.8 87.8 334.1 88.2 333.4 88.9 C 332.8 89.7 332.5 90.7 332.5 92.1 Z M 342.9 97.9 L 342.9 82.2 L 344.9 82.2 L 344.9 97.9 L 342.9 97.9 Z M 355.7 94.2 C 355.7 94.2 357.7 94.5 357.7 94.5 C 357.4 95.6 356.8 96.6 355.9 97.2 C 355.1 97.8 354 98.2 352.7 98.2 C 351 98.2 349.7 97.6 348.7 96.6 C 347.7 95.6 347.2 94.2 347.2 92.3 C 347.2 90.4 347.7 88.9 348.7 87.8 C 349.7 86.8 351 86.2 352.6 86.2 C 354.1 86.2 355.3 86.8 356.3 87.8 C 357.3 88.8 357.8 90.3 357.8 92.2 C 357.8 92.3 357.7 92.5 357.7 92.7 C 357.7 92.7 349.2 92.7 349.2 92.7 C 349.3 93.9 349.7 94.9 350.3 95.6 C 350.9 96.2 351.7 96.6 352.7 96.6 C 353.4 96.6 354 96.4 354.5 96 C 355 95.6 355.4 95 355.7 94.2 Z M 349.3 91.1 C 349.3 91.1 355.7 91.1 355.7 91.1 C 355.6 90.1 355.4 89.4 355 88.9 C 354.4 88.2 353.6 87.8 352.6 87.8 C 351.7 87.8 351 88.1 350.3 88.7 C 349.7 89.3 349.4 90.1 349.3 91.1 Z " stroke="none" fill="#000"/>  </g>  <g id="Polygon6941">    <path d="M 33.2 43.5 L 33.2 63 L 29.3 63 L 29.3 43.5 L 33.2 43.5 Z M 56.3 47.3 C 58.2 47.3 59.7 47.8 60.9 49 C 62.1 50.2 62.7 51.8 62.7 53.9 C 62.66 53.9 62.7 63 62.7 63 L 58.7 63 C 58.7 63 58.74 54.43 58.7 54.4 C 58.7 53.2 58.4 52.3 57.8 51.6 C 57.2 51 56.4 50.7 55.3 50.7 C 54.2 50.7 53.4 51 52.8 51.6 C 52.1 52.3 51.8 53.2 51.8 54.4 C 51.82 54.43 51.8 63 51.8 63 L 47.9 63 C 47.9 63 47.9 54.43 47.9 54.4 C 47.9 53.2 47.6 52.3 47 51.6 C 46.4 51 45.5 50.7 44.5 50.7 C 43.4 50.7 42.5 51 41.9 51.6 C 41.3 52.3 41 53.2 41 54.4 C 40.96 54.43 41 63 41 63 L 37 63 L 37 47.5 L 41 47.5 C 41 47.5 40.96 49.36 41 49.4 C 41.5 48.7 42.1 48.2 42.9 47.8 C 43.7 47.5 44.6 47.3 45.5 47.3 C 46.7 47.3 47.8 47.5 48.8 48 C 49.7 48.5 50.5 49.3 51 50.2 C 51.5 49.3 52.2 48.6 53.2 48.1 C 54.1 47.5 55.2 47.3 56.3 47.3 C 56.3 47.3 56.3 47.3 56.3 47.3 Z M 70.3 49.7 C 70.8 49 71.5 48.4 72.4 47.9 C 73.3 47.5 74.3 47.2 75.4 47.2 C 76.8 47.2 78 47.6 79 48.2 C 80.1 48.9 80.9 49.8 81.6 51 C 82.2 52.2 82.5 53.6 82.5 55.2 C 82.5 56.8 82.2 58.2 81.6 59.4 C 80.9 60.6 80.1 61.6 79 62.2 C 78 62.9 76.8 63.3 75.4 63.3 C 74.3 63.3 73.3 63 72.4 62.6 C 71.5 62.1 70.8 61.5 70.3 60.8 C 70.3 60.79 70.3 70.4 70.3 70.4 L 66.4 70.4 L 66.4 47.5 L 70.3 47.5 L 70.3 49.7 C 70.3 49.7 70.3 49.73 70.3 49.7 Z M 78.5 55.2 C 78.5 54.3 78.3 53.4 77.9 52.8 C 77.5 52.1 77 51.6 76.4 51.2 C 75.8 50.9 75.1 50.7 74.4 50.7 C 73.7 50.7 73 50.9 72.4 51.2 C 71.8 51.6 71.3 52.1 70.9 52.8 C 70.5 53.5 70.3 54.3 70.3 55.2 C 70.3 56.2 70.5 57 70.9 57.7 C 71.3 58.4 71.8 58.9 72.4 59.3 C 73 59.6 73.7 59.8 74.4 59.8 C 75.1 59.8 75.8 59.6 76.4 59.2 C 77 58.9 77.5 58.3 77.9 57.7 C 78.3 57 78.5 56.1 78.5 55.2 C 78.5 55.2 78.5 55.2 78.5 55.2 Z M 84.4 55.2 C 84.4 53.6 84.7 52.2 85.3 51 C 85.9 49.8 86.8 48.9 87.8 48.2 C 88.9 47.6 90.1 47.2 91.4 47.2 C 92.6 47.2 93.6 47.5 94.5 47.9 C 95.3 48.4 96 49 96.6 49.7 C 96.57 49.7 96.6 47.5 96.6 47.5 L 100.5 47.5 L 100.5 63 L 96.6 63 C 96.6 63 96.57 60.73 96.6 60.7 C 96.1 61.5 95.4 62.1 94.5 62.5 C 93.6 63 92.6 63.3 91.4 63.3 C 90.1 63.3 88.9 62.9 87.8 62.2 C 86.8 61.6 85.9 60.6 85.3 59.4 C 84.7 58.2 84.4 56.8 84.4 55.2 C 84.4 55.2 84.4 55.2 84.4 55.2 Z M 96.6 55.2 C 96.6 54.3 96.4 53.5 96 52.8 C 95.6 52.1 95.1 51.6 94.5 51.2 C 93.9 50.9 93.2 50.7 92.5 50.7 C 91.7 50.7 91.1 50.9 90.4 51.2 C 89.8 51.6 89.3 52.1 88.9 52.8 C 88.6 53.4 88.4 54.3 88.4 55.2 C 88.4 56.1 88.6 56.9 88.9 57.6 C 89.3 58.3 89.8 58.9 90.4 59.2 C 91.1 59.6 91.7 59.8 92.5 59.8 C 93.2 59.8 93.9 59.6 94.5 59.3 C 95.1 58.9 95.6 58.4 96 57.7 C 96.4 57 96.6 56.2 96.6 55.2 C 96.6 55.2 96.6 55.2 96.6 55.2 Z M 103.3 55.2 C 103.3 53.6 103.7 52.2 104.3 51 C 105 49.8 105.9 48.9 107 48.2 C 108.2 47.6 109.5 47.2 111 47.2 C 112.9 47.2 114.5 47.7 115.8 48.7 C 117 49.6 117.9 51 118.3 52.7 C 118.3 52.7 114.1 52.7 114.1 52.7 C 113.9 52.1 113.5 51.5 113 51.1 C 112.4 50.8 111.8 50.6 111 50.6 C 109.9 50.6 109 51 108.3 51.8 C 107.7 52.6 107.3 53.8 107.3 55.2 C 107.3 56.7 107.7 57.9 108.3 58.7 C 109 59.5 109.9 59.9 111 59.9 C 112.6 59.9 113.6 59.2 114.1 57.8 C 114.1 57.8 118.3 57.8 118.3 57.8 C 117.9 59.4 117 60.8 115.8 61.8 C 114.5 62.8 112.9 63.3 111 63.3 C 109.5 63.3 108.2 62.9 107 62.3 C 105.9 61.6 105 60.7 104.3 59.5 C 103.7 58.3 103.3 56.8 103.3 55.2 C 103.3 55.2 103.3 55.2 103.3 55.2 Z M 125.8 50.7 C 125.8 50.7 125.77 58.21 125.8 58.2 C 125.8 58.7 125.9 59.1 126.1 59.3 C 126.4 59.6 126.8 59.7 127.4 59.7 C 127.42 59.7 129.2 59.7 129.2 59.7 L 129.2 63 C 129.2 63 126.78 63 126.8 63 C 123.5 63 121.8 61.4 121.8 58.2 C 121.82 58.18 121.8 50.7 121.8 50.7 L 120 50.7 L 120 47.5 L 121.8 47.5 L 121.8 43.7 L 125.8 43.7 L 125.8 47.5 L 129.2 47.5 L 129.2 50.7 L 125.8 50.7 Z M 160 43.5 L 160 63 L 156.1 63 L 156.1 50.3 L 150.9 63 L 147.9 63 L 142.7 50.3 L 142.7 63 L 138.7 63 L 138.7 43.5 L 143.2 43.5 L 149.4 58 L 155.6 43.5 L 160 43.5 Z M 178.3 54.9 C 178.3 55.5 178.3 56 178.2 56.4 C 178.2 56.4 166.9 56.4 166.9 56.4 C 167 57.5 167.4 58.4 168 59.1 C 168.7 59.7 169.6 60 170.6 60 C 172.1 60 173.1 59.4 173.7 58.1 C 173.7 58.1 177.9 58.1 177.9 58.1 C 177.5 59.6 176.6 60.8 175.4 61.8 C 174.1 62.8 172.5 63.3 170.7 63.3 C 169.2 63.3 167.8 62.9 166.7 62.3 C 165.5 61.6 164.6 60.7 163.9 59.4 C 163.2 58.2 162.9 56.8 162.9 55.2 C 162.9 53.6 163.2 52.2 163.9 51 C 164.5 49.8 165.4 48.9 166.6 48.2 C 167.8 47.6 169.2 47.2 170.7 47.2 C 172.2 47.2 173.5 47.6 174.6 48.2 C 175.8 48.8 176.7 49.7 177.4 50.9 C 178 52.1 178.3 53.4 178.3 54.9 C 178.3 54.9 178.3 54.9 178.3 54.9 Z M 174.3 53.8 C 174.2 52.8 173.9 52 173.2 51.4 C 172.5 50.8 171.6 50.5 170.6 50.5 C 169.6 50.5 168.8 50.7 168.1 51.3 C 167.5 51.9 167.1 52.7 166.9 53.8 C 166.9 53.8 174.3 53.8 174.3 53.8 Z M 180.2 55.2 C 180.2 53.6 180.5 52.2 181.1 51 C 181.7 49.8 182.6 48.9 183.7 48.2 C 184.7 47.6 185.9 47.2 187.3 47.2 C 188.4 47.2 189.4 47.5 190.3 47.9 C 191.2 48.4 191.9 49 192.4 49.7 C 192.38 49.7 192.4 47.5 192.4 47.5 L 196.3 47.5 L 196.3 63 L 192.4 63 C 192.4 63 192.38 60.73 192.4 60.7 C 191.9 61.5 191.2 62.1 190.3 62.5 C 189.4 63 188.4 63.3 187.2 63.3 C 185.9 63.3 184.7 62.9 183.7 62.2 C 182.6 61.6 181.7 60.6 181.1 59.4 C 180.5 58.2 180.2 56.8 180.2 55.2 C 180.2 55.2 180.2 55.2 180.2 55.2 Z M 192.4 55.2 C 192.4 54.3 192.2 53.5 191.8 52.8 C 191.4 52.1 190.9 51.6 190.3 51.2 C 189.7 50.9 189 50.7 188.3 50.7 C 187.5 50.7 186.9 50.9 186.2 51.2 C 185.6 51.6 185.1 52.1 184.8 52.8 C 184.4 53.4 184.2 54.3 184.2 55.2 C 184.2 56.1 184.4 56.9 184.8 57.6 C 185.1 58.3 185.6 58.9 186.3 59.2 C 186.9 59.6 187.6 59.8 188.3 59.8 C 189 59.8 189.7 59.6 190.3 59.3 C 190.9 58.9 191.4 58.4 191.8 57.7 C 192.2 57 192.4 56.2 192.4 55.2 C 192.4 55.2 192.4 55.2 192.4 55.2 Z M 206.1 63.3 C 204.8 63.3 203.7 63 202.7 62.6 C 201.7 62.1 200.9 61.5 200.3 60.7 C 199.7 59.9 199.4 59.1 199.3 58.1 C 199.3 58.1 203.3 58.1 203.3 58.1 C 203.3 58.7 203.6 59.2 204.2 59.6 C 204.7 60 205.3 60.2 206.1 60.2 C 206.8 60.2 207.4 60 207.8 59.7 C 208.2 59.4 208.5 59 208.5 58.6 C 208.5 58.1 208.2 57.7 207.7 57.4 C 207.2 57.2 206.4 56.9 205.2 56.6 C 204.1 56.3 203.1 56 202.4 55.7 C 201.7 55.4 201 55 200.5 54.4 C 200 53.8 199.7 52.9 199.7 51.9 C 199.7 51 199.9 50.2 200.4 49.5 C 200.9 48.8 201.6 48.3 202.6 47.9 C 203.5 47.4 204.6 47.2 205.8 47.2 C 207.7 47.2 209.1 47.7 210.2 48.6 C 211.3 49.5 212 50.8 212.1 52.4 C 212.1 52.4 208.3 52.4 208.3 52.4 C 208.3 51.7 208 51.3 207.5 50.9 C 207.1 50.5 206.5 50.3 205.7 50.3 C 205 50.3 204.5 50.5 204.1 50.7 C 203.7 51 203.5 51.4 203.5 51.8 C 203.5 52.4 203.8 52.7 204.3 53 C 204.8 53.3 205.6 53.6 206.7 53.8 C 207.8 54.1 208.8 54.4 209.5 54.7 C 210.2 55 210.8 55.5 211.4 56.1 C 211.9 56.7 212.2 57.5 212.2 58.6 C 212.2 59.5 212 60.3 211.5 61 C 211 61.7 210.3 62.2 209.3 62.6 C 208.4 63.1 207.3 63.3 206.1 63.3 C 206.1 63.3 206.1 63.3 206.1 63.3 Z M 230.1 47.5 L 230.1 63 L 226.1 63 C 226.1 63 226.12 61.04 226.1 61 C 225.6 61.7 225 62.2 224.1 62.6 C 223.3 63 222.5 63.2 221.5 63.2 C 220.3 63.2 219.2 62.9 218.3 62.4 C 217.3 61.9 216.6 61.2 216.1 60.2 C 215.6 59.2 215.3 58 215.3 56.6 C 215.28 56.59 215.3 47.5 215.3 47.5 L 219.2 47.5 C 219.2 47.5 219.2 56.03 219.2 56 C 219.2 57.3 219.5 58.2 220.1 58.9 C 220.7 59.5 221.6 59.9 222.6 59.9 C 223.7 59.9 224.6 59.5 225.2 58.9 C 225.8 58.2 226.1 57.3 226.1 56 C 226.12 56.03 226.1 47.5 226.1 47.5 L 230.1 47.5 Z M 237.9 49.9 C 238.4 49.1 239 48.4 239.8 48 C 240.6 47.5 241.6 47.3 242.6 47.3 C 242.61 47.26 242.6 51.4 242.6 51.4 C 242.6 51.4 241.58 51.38 241.6 51.4 C 240.3 51.4 239.4 51.7 238.8 52.2 C 238.2 52.8 237.9 53.8 237.9 55.3 C 237.85 55.27 237.9 63 237.9 63 L 233.9 63 L 233.9 47.5 L 237.9 47.5 L 237.9 49.9 C 237.9 49.9 237.85 49.9 237.9 49.9 Z M 259.7 54.9 C 259.7 55.5 259.6 56 259.6 56.4 C 259.6 56.4 248.2 56.4 248.2 56.4 C 248.3 57.5 248.7 58.4 249.4 59.1 C 250.1 59.7 250.9 60 251.9 60 C 253.4 60 254.4 59.4 255 58.1 C 255 58.1 259.3 58.1 259.3 58.1 C 258.8 59.6 258 60.8 256.7 61.8 C 255.4 62.8 253.9 63.3 252 63.3 C 250.5 63.3 249.2 62.9 248 62.3 C 246.8 61.6 245.9 60.7 245.2 59.4 C 244.6 58.2 244.2 56.8 244.2 55.2 C 244.2 53.6 244.6 52.2 245.2 51 C 245.9 49.8 246.8 48.9 248 48.2 C 249.1 47.6 250.5 47.2 252 47.2 C 253.5 47.2 254.8 47.6 256 48.2 C 257.1 48.8 258.1 49.7 258.7 50.9 C 259.3 52.1 259.7 53.4 259.7 54.9 C 259.7 54.9 259.7 54.9 259.7 54.9 Z M 255.6 53.8 C 255.6 52.8 255.2 52 254.5 51.4 C 253.8 50.8 252.9 50.5 251.9 50.5 C 250.9 50.5 250.1 50.7 249.5 51.3 C 248.8 51.9 248.4 52.7 248.2 53.8 C 248.2 53.8 255.6 53.8 255.6 53.8 Z M 281.8 47.3 C 283.7 47.3 285.2 47.8 286.4 49 C 287.6 50.2 288.1 51.8 288.1 53.9 C 288.14 53.9 288.1 63 288.1 63 L 284.2 63 C 284.2 63 284.22 54.43 284.2 54.4 C 284.2 53.2 283.9 52.3 283.3 51.6 C 282.7 51 281.8 50.7 280.8 50.7 C 279.7 50.7 278.9 51 278.2 51.6 C 277.6 52.3 277.3 53.2 277.3 54.4 C 277.3 54.43 277.3 63 277.3 63 L 273.4 63 C 273.4 63 273.38 54.43 273.4 54.4 C 273.4 53.2 273.1 52.3 272.5 51.6 C 271.8 51 271 50.7 269.9 50.7 C 268.9 50.7 268 51 267.4 51.6 C 266.8 52.3 266.4 53.2 266.4 54.4 C 266.44 54.43 266.4 63 266.4 63 L 262.5 63 L 262.5 47.5 L 266.4 47.5 C 266.4 47.5 266.44 49.36 266.4 49.4 C 266.9 48.7 267.6 48.2 268.4 47.8 C 269.2 47.5 270.1 47.3 271 47.3 C 272.2 47.3 273.3 47.5 274.3 48 C 275.2 48.5 275.9 49.3 276.5 50.2 C 277 49.3 277.7 48.6 278.7 48.1 C 279.6 47.5 280.7 47.3 281.8 47.3 C 281.8 47.3 281.8 47.3 281.8 47.3 Z M 306.3 54.9 C 306.3 55.5 306.2 56 306.2 56.4 C 306.2 56.4 294.8 56.4 294.8 56.4 C 294.9 57.5 295.3 58.4 296 59.1 C 296.7 59.7 297.5 60 298.6 60 C 300 60 301 59.4 301.7 58.1 C 301.7 58.1 305.9 58.1 305.9 58.1 C 305.4 59.6 304.6 60.8 303.3 61.8 C 302 62.8 300.5 63.3 298.6 63.3 C 297.1 63.3 295.8 62.9 294.6 62.3 C 293.4 61.6 292.5 60.7 291.8 59.4 C 291.2 58.2 290.9 56.8 290.9 55.2 C 290.9 53.6 291.2 52.2 291.8 51 C 292.5 49.8 293.4 48.9 294.6 48.2 C 295.8 47.6 297.1 47.2 298.6 47.2 C 300.1 47.2 301.4 47.6 302.6 48.2 C 303.8 48.8 304.7 49.7 305.3 50.9 C 306 52.1 306.3 53.4 306.3 54.9 C 306.3 54.9 306.3 54.9 306.3 54.9 Z M 302.2 53.8 C 302.2 52.8 301.8 52 301.1 51.4 C 300.4 50.8 299.6 50.5 298.5 50.5 C 297.6 50.5 296.7 50.7 296.1 51.3 C 295.4 51.9 295 52.7 294.9 53.8 C 294.9 53.8 302.2 53.8 302.2 53.8 Z M 317.7 47.3 C 319.6 47.3 321.1 47.8 322.2 49 C 323.4 50.2 323.9 51.8 323.9 53.9 C 323.92 53.9 323.9 63 323.9 63 L 320 63 C 320 63 320 54.43 320 54.4 C 320 53.2 319.7 52.3 319.1 51.6 C 318.5 50.9 317.6 50.6 316.6 50.6 C 315.5 50.6 314.6 50.9 314 51.6 C 313.4 52.3 313.1 53.2 313.1 54.4 C 313.06 54.43 313.1 63 313.1 63 L 309.1 63 L 309.1 47.5 L 313.1 47.5 C 313.1 47.5 313.06 49.42 313.1 49.4 C 313.6 48.7 314.2 48.2 315.1 47.8 C 315.9 47.5 316.8 47.3 317.7 47.3 C 317.7 47.3 317.7 47.3 317.7 47.3 Z M 332.2 50.7 C 332.2 50.7 332.21 58.21 332.2 58.2 C 332.2 58.7 332.3 59.1 332.6 59.3 C 332.8 59.6 333.3 59.7 333.9 59.7 C 333.86 59.7 335.7 59.7 335.7 59.7 L 335.7 63 C 335.7 63 333.22 63 333.2 63 C 329.9 63 328.3 61.4 328.3 58.2 C 328.26 58.18 328.3 50.7 328.3 50.7 L 326.4 50.7 L 326.4 47.5 L 328.3 47.5 L 328.3 43.7 L 332.2 43.7 L 332.2 47.5 L 335.7 47.5 L 335.7 50.7 L 332.2 50.7 Z " stroke="none" fill="#e4007e"/>  </g>  <g id="Polygon6940">    <path d="M 78.4 9.9 C 80.5 9.9 82.3 10.3 83.8 11.1 C 85.4 11.9 86.6 13 87.5 14.5 C 88.3 16 88.7 17.7 88.7 19.7 C 88.7 21.6 88.3 23.3 87.5 24.8 C 86.6 26.3 85.4 27.4 83.8 28.2 C 82.3 29 80.5 29.4 78.4 29.4 C 78.42 29.4 71.6 29.4 71.6 29.4 L 71.6 9.9 L 78.4 9.9 C 78.4 9.9 78.42 9.86 78.4 9.9 Z M 78.3 26.1 C 80.3 26.1 81.9 25.5 83 24.4 C 84.2 23.3 84.7 21.7 84.7 19.7 C 84.7 17.6 84.2 16 83 14.9 C 81.9 13.7 80.3 13.2 78.3 13.2 C 78.28 13.16 75.5 13.2 75.5 13.2 L 75.5 26.1 L 78.3 26.1 C 78.3 26.1 78.28 26.07 78.3 26.1 Z M 90.7 21.6 C 90.7 20 91 18.6 91.6 17.4 C 92.2 16.2 93.1 15.3 94.1 14.6 C 95.2 14 96.4 13.6 97.7 13.6 C 98.9 13.6 99.9 13.9 100.8 14.3 C 101.6 14.8 102.3 15.4 102.9 16.1 C 102.87 16.1 102.9 13.9 102.9 13.9 L 106.8 13.9 L 106.8 29.4 L 102.9 29.4 C 102.9 29.4 102.87 27.13 102.9 27.1 C 102.4 27.9 101.7 28.5 100.8 28.9 C 99.9 29.4 98.9 29.7 97.7 29.7 C 96.4 29.7 95.2 29.3 94.1 28.6 C 93.1 28 92.2 27 91.6 25.8 C 91 24.6 90.7 23.2 90.7 21.6 C 90.7 21.6 90.7 21.6 90.7 21.6 Z M 102.9 21.6 C 102.9 20.7 102.7 19.9 102.3 19.2 C 101.9 18.5 101.4 18 100.8 17.6 C 100.2 17.3 99.5 17.1 98.7 17.1 C 98 17.1 97.3 17.3 96.7 17.6 C 96.1 18 95.6 18.5 95.2 19.2 C 94.9 19.8 94.7 20.7 94.7 21.6 C 94.7 22.5 94.9 23.3 95.2 24 C 95.6 24.7 96.1 25.3 96.7 25.6 C 97.4 26 98 26.2 98.7 26.2 C 99.5 26.2 100.2 26 100.8 25.7 C 101.4 25.3 101.9 24.8 102.3 24.1 C 102.7 23.4 102.9 22.6 102.9 21.6 C 102.9 21.6 102.9 21.6 102.9 21.6 Z M 115.2 17.1 C 115.2 17.1 115.21 24.61 115.2 24.6 C 115.2 25.1 115.3 25.5 115.6 25.7 C 115.8 26 116.3 26.1 116.9 26.1 C 116.87 26.1 118.7 26.1 118.7 26.1 L 118.7 29.4 C 118.7 29.4 116.22 29.4 116.2 29.4 C 112.9 29.4 111.3 27.8 111.3 24.6 C 111.27 24.58 111.3 17.1 111.3 17.1 L 109.4 17.1 L 109.4 13.9 L 111.3 13.9 L 111.3 10.1 L 115.2 10.1 L 115.2 13.9 L 118.7 13.9 L 118.7 17.1 L 115.2 17.1 Z M 120.5 21.6 C 120.5 20 120.8 18.6 121.4 17.4 C 122.1 16.2 122.9 15.3 124 14.6 C 125.1 14 126.3 13.6 127.6 13.6 C 128.7 13.6 129.8 13.9 130.6 14.3 C 131.5 14.8 132.2 15.4 132.7 16.1 C 132.71 16.1 132.7 13.9 132.7 13.9 L 136.7 13.9 L 136.7 29.4 L 132.7 29.4 C 132.7 29.4 132.71 27.13 132.7 27.1 C 132.2 27.9 131.5 28.5 130.6 28.9 C 129.7 29.4 128.7 29.7 127.6 29.7 C 126.3 29.7 125.1 29.3 124 28.6 C 122.9 28 122.1 27 121.4 25.8 C 120.8 24.6 120.5 23.2 120.5 21.6 C 120.5 21.6 120.5 21.6 120.5 21.6 Z M 132.7 21.6 C 132.7 20.7 132.5 19.9 132.2 19.2 C 131.8 18.5 131.3 18 130.6 17.6 C 130 17.3 129.3 17.1 128.6 17.1 C 127.9 17.1 127.2 17.3 126.6 17.6 C 126 18 125.5 18.5 125.1 19.2 C 124.7 19.8 124.5 20.7 124.5 21.6 C 124.5 22.5 124.7 23.3 125.1 24 C 125.5 24.7 126 25.3 126.6 25.6 C 127.2 26 127.9 26.2 128.6 26.2 C 129.3 26.2 130 26 130.6 25.7 C 131.3 25.3 131.8 24.8 132.2 24.1 C 132.5 23.4 132.7 22.6 132.7 21.6 C 132.7 21.6 132.7 21.6 132.7 21.6 Z M 159.1 25.7 L 151.4 25.7 L 150.1 29.4 L 146 29.4 L 153 9.8 L 157.5 9.8 L 164.6 29.4 L 160.4 29.4 L 159.1 25.7 Z M 158.1 22.5 L 155.3 14.4 L 152.4 22.5 L 158.1 22.5 Z M 175.8 13.7 C 177.7 13.7 179.1 14.2 180.3 15.4 C 181.4 16.6 182 18.2 182 20.3 C 181.99 20.3 182 29.4 182 29.4 L 178.1 29.4 C 178.1 29.4 178.07 20.83 178.1 20.8 C 178.1 19.6 177.8 18.7 177.1 18 C 176.5 17.3 175.7 17 174.6 17 C 173.5 17 172.7 17.3 172.1 18 C 171.4 18.7 171.1 19.6 171.1 20.8 C 171.13 20.83 171.1 29.4 171.1 29.4 L 167.2 29.4 L 167.2 13.9 L 171.1 13.9 C 171.1 13.9 171.13 15.82 171.1 15.8 C 171.7 15.1 172.3 14.6 173.1 14.2 C 173.9 13.9 174.8 13.7 175.8 13.7 C 175.8 13.7 175.8 13.7 175.8 13.7 Z M 184.7 21.6 C 184.7 20 185 18.6 185.6 17.4 C 186.3 16.2 187.1 15.3 188.2 14.6 C 189.3 14 190.5 13.6 191.8 13.6 C 192.9 13.6 194 13.9 194.8 14.3 C 195.7 14.8 196.4 15.4 196.9 16.1 C 196.92 16.1 196.9 13.9 196.9 13.9 L 200.9 13.9 L 200.9 29.4 L 196.9 29.4 C 196.9 29.4 196.92 27.13 196.9 27.1 C 196.4 27.9 195.7 28.5 194.8 28.9 C 193.9 29.4 192.9 29.7 191.8 29.7 C 190.5 29.7 189.3 29.3 188.2 28.6 C 187.1 28 186.3 27 185.6 25.8 C 185 24.6 184.7 23.2 184.7 21.6 C 184.7 21.6 184.7 21.6 184.7 21.6 Z M 196.9 21.6 C 196.9 20.7 196.7 19.9 196.4 19.2 C 196 18.5 195.5 18 194.8 17.6 C 194.2 17.3 193.5 17.1 192.8 17.1 C 192.1 17.1 191.4 17.3 190.8 17.6 C 190.2 18 189.7 18.5 189.3 19.2 C 188.9 19.8 188.7 20.7 188.7 21.6 C 188.7 22.5 188.9 23.3 189.3 24 C 189.7 24.7 190.2 25.3 190.8 25.6 C 191.4 26 192.1 26.2 192.8 26.2 C 193.5 26.2 194.2 26 194.8 25.7 C 195.5 25.3 196 24.8 196.4 24.1 C 196.7 23.4 196.9 22.6 196.9 21.6 C 196.9 21.6 196.9 21.6 196.9 21.6 Z M 208.6 8.7 L 208.6 29.4 L 204.7 29.4 L 204.7 8.7 L 208.6 8.7 Z M 227.3 13.9 L 217.7 36.7 L 213.5 36.7 L 216.9 29 L 210.7 13.9 L 215.1 13.9 L 219.1 24.7 L 223.2 13.9 L 227.3 13.9 Z M 235.4 29.7 C 234.1 29.7 233 29.4 231.9 29 C 230.9 28.5 230.1 27.9 229.5 27.1 C 229 26.3 228.6 25.5 228.6 24.5 C 228.6 24.5 232.5 24.5 232.5 24.5 C 232.6 25.1 232.9 25.6 233.4 26 C 233.9 26.4 234.6 26.6 235.3 26.6 C 236.1 26.6 236.7 26.4 237.1 26.1 C 237.5 25.8 237.7 25.4 237.7 25 C 237.7 24.5 237.5 24.1 236.9 23.8 C 236.4 23.6 235.6 23.3 234.5 23 C 233.3 22.7 232.4 22.4 231.6 22.1 C 230.9 21.8 230.3 21.4 229.7 20.8 C 229.2 20.2 228.9 19.3 228.9 18.3 C 228.9 17.4 229.2 16.6 229.7 15.9 C 230.2 15.2 230.9 14.7 231.8 14.3 C 232.7 13.8 233.8 13.6 235.1 13.6 C 236.9 13.6 238.4 14.1 239.5 15 C 240.6 15.9 241.2 17.2 241.3 18.8 C 241.3 18.8 237.6 18.8 237.6 18.8 C 237.5 18.1 237.3 17.7 236.8 17.3 C 236.3 16.9 235.7 16.7 235 16.7 C 234.3 16.7 233.7 16.9 233.3 17.1 C 232.9 17.4 232.8 17.8 232.8 18.2 C 232.8 18.8 233 19.1 233.5 19.4 C 234.1 19.7 234.9 20 236 20.2 C 237.1 20.5 238 20.8 238.7 21.1 C 239.5 21.4 240.1 21.9 240.6 22.5 C 241.2 23.1 241.4 23.9 241.5 25 C 241.5 25.9 241.2 26.7 240.7 27.4 C 240.2 28.1 239.5 28.6 238.6 29 C 237.7 29.5 236.6 29.7 235.4 29.7 C 235.4 29.7 235.4 29.7 235.4 29.7 Z M 246.7 12 C 246 12 245.4 11.8 244.9 11.4 C 244.5 10.9 244.3 10.4 244.3 9.7 C 244.3 9.1 244.5 8.5 244.9 8.1 C 245.4 7.7 246 7.4 246.7 7.4 C 247.4 7.4 247.9 7.7 248.4 8.1 C 248.9 8.5 249.1 9.1 249.1 9.7 C 249.1 10.4 248.9 10.9 248.4 11.4 C 247.9 11.8 247.4 12 246.7 12 C 246.7 12 246.7 12 246.7 12 Z M 248.6 13.9 L 248.6 29.4 L 244.7 29.4 L 244.7 13.9 L 248.6 13.9 Z M 258.4 29.7 C 257.1 29.7 256 29.4 255 29 C 254 28.5 253.2 27.9 252.6 27.1 C 252 26.3 251.7 25.5 251.6 24.5 C 251.6 24.5 255.6 24.5 255.6 24.5 C 255.7 25.1 255.9 25.6 256.5 26 C 257 26.4 257.6 26.6 258.4 26.6 C 259.1 26.6 259.7 26.4 260.1 26.1 C 260.5 25.8 260.8 25.4 260.8 25 C 260.8 24.5 260.5 24.1 260 23.8 C 259.5 23.6 258.7 23.3 257.5 23 C 256.4 22.7 255.4 22.4 254.7 22.1 C 254 21.8 253.3 21.4 252.8 20.8 C 252.3 20.2 252 19.3 252 18.3 C 252 17.4 252.2 16.6 252.7 15.9 C 253.2 15.2 253.9 14.7 254.9 14.3 C 255.8 13.8 256.9 13.6 258.1 13.6 C 260 13.6 261.4 14.1 262.5 15 C 263.6 15.9 264.3 17.2 264.4 18.8 C 264.4 18.8 260.6 18.8 260.6 18.8 C 260.6 18.1 260.3 17.7 259.8 17.3 C 259.4 16.9 258.8 16.7 258 16.7 C 257.3 16.7 256.8 16.9 256.4 17.1 C 256 17.4 255.8 17.8 255.8 18.2 C 255.8 18.8 256.1 19.1 256.6 19.4 C 257.1 19.7 257.9 20 259 20.2 C 260.1 20.5 261.1 20.8 261.8 21.1 C 262.5 21.4 263.1 21.9 263.7 22.5 C 264.2 23.1 264.5 23.9 264.5 25 C 264.5 25.9 264.3 26.7 263.8 27.4 C 263.3 28.1 262.6 28.6 261.6 29 C 260.7 29.5 259.6 29.7 258.4 29.7 C 258.4 29.7 258.4 29.7 258.4 29.7 Z M 289.4 29.4 C 289.4 29.4 287.3 27.3 287.3 27.3 C 285.5 28.9 283.3 29.7 280.7 29.7 C 279.2 29.7 278 29.5 276.9 29 C 275.8 28.5 274.9 27.8 274.3 26.9 C 273.7 26 273.4 24.9 273.4 23.7 C 273.4 22.5 273.8 21.3 274.5 20.3 C 275.3 19.2 276.3 18.4 277.8 17.8 C 277.2 17.2 276.9 16.6 276.7 16 C 276.4 15.4 276.3 14.8 276.3 14.2 C 276.3 13.3 276.6 12.5 277 11.7 C 277.5 11 278.2 10.5 279 10.1 C 279.9 9.6 280.9 9.4 282.1 9.4 C 283.2 9.4 284.2 9.7 285.1 10.1 C 285.9 10.6 286.6 11.2 287 11.9 C 287.4 12.6 287.6 13.5 287.5 14.4 C 287.5 14.4 283.7 14.4 283.7 14.4 C 283.7 13.8 283.6 13.3 283.2 13 C 282.9 12.7 282.5 12.5 282 12.5 C 281.4 12.5 281 12.6 280.6 12.9 C 280.3 13.3 280.1 13.7 280.1 14.1 C 280.1 14.6 280.3 15.1 280.6 15.5 C 280.8 16 281.3 16.5 281.9 17.2 C 281.9 17.2 286.9 22.1 286.9 22.1 C 286.9 22.1 286.9 22 286.9 22 C 287 21.9 287 21.9 287 21.9 C 286.99 21.87 288.6 19.2 288.6 19.2 L 292.7 19.2 C 292.7 19.2 290.72 22.65 290.7 22.7 C 290.3 23.4 289.9 24.1 289.5 24.7 C 289.51 24.72 294.2 29.4 294.2 29.4 L 289.4 29.4 Z M 280.8 26.5 C 282.3 26.5 283.7 25.9 284.8 24.9 C 284.8 24.9 280 20.1 280 20.1 C 278.2 20.9 277.3 22 277.3 23.5 C 277.3 24.4 277.6 25.1 278.3 25.6 C 278.9 26.2 279.7 26.5 280.8 26.5 C 280.8 26.5 280.8 26.5 280.8 26.5 Z " stroke="none" fill="#e4007e"/>  </g></svg>