<?xml version="1.0" standalone="no"?><!DOCTYPE svg PUBLIC "-//W3C//DTD SVG 1.1//EN" "http://www.w3.org/Graphics/SVG/1.1/DTD/svg11.dtd"><svg xmlns="http://www.w3.org/2000/svg" version="1.1" width="421.4px" height="60.8px" viewBox="0 -10 421.4 60.8" style="top:-10px">  <desc>Tier 2</desc>  <defs/>  <g id="Polygon6820">    <path d="M 180.9 1.9 L 180.9 3.8 L 170.9 3.8 L 170.9 29.2 L 168.9 29.2 L 168.9 3.8 L 159 3.8 L 159 1.9 L 180.9 1.9 Z M 186.7 1.9 L 186.7 29.2 L 184.6 29.2 L 184.6 1.9 L 186.7 1.9 Z M 207.3 1.9 L 207.3 3.8 L 195 3.8 L 195 14.4 L 206.9 14.4 L 206.9 16.4 L 195 16.4 L 195 27.3 L 207.6 27.3 L 207.6 29.2 L 192.9 29.2 L 192.9 1.9 L 207.3 1.9 Z M 212.2 1.9 C 212.2 1.9 219.11 1.88 219.1 1.9 C 224.5 1.9 227.4 4.6 227.4 9 C 227.4 12.6 225.3 14.9 221.7 15.6 C 223.5 16.4 224.4 17.3 226.2 20.1 C 226.23 20.08 232 29.2 232 29.2 L 229.5 29.2 C 229.5 29.2 224.27 20.8 224.3 20.8 C 221.9 17.2 220.3 16.3 217.6 16.3 C 217.63 16.28 214.3 16.3 214.3 16.3 L 214.3 29.2 L 212.2 29.2 L 212.2 1.9 Z M 217.5 14.4 C 222.1 14.4 225.3 13.3 225.3 9 C 225.3 5 222.5 3.8 218.6 3.8 C 218.59 3.76 214.3 3.8 214.3 3.8 L 214.3 14.4 C 214.3 14.4 217.47 14.36 217.5 14.4 Z M 260 9.4 C 260 15.1 256.1 19.9 249.2 27.2 C 249.19 27.16 261.5 27.2 261.5 27.2 L 261.5 29.2 L 245.1 29.2 C 245.1 29.2 245.07 29 245.1 29 C 252.3 21.5 257.9 15.5 257.9 9.6 C 257.9 5.5 255 3.5 251.9 3.5 C 249.4 3.5 247.4 4.6 245.4 6.5 C 245.4 6.5 245.4 4 245.4 4 C 247.4 2.4 249.5 1.5 252 1.5 C 256.8 1.5 260 4.8 260 9.4 Z " stroke="none" fill="#ffffff"/>  </g></svg>