<?xml version="1.0" standalone="no"?><!DOCTYPE svg PUBLIC "-//W3C//DTD SVG 1.1//EN" "http://www.w3.org/Graphics/SVG/1.1/DTD/svg11.dtd"><svg xmlns="http://www.w3.org/2000/svg" version="1.1" width="364px" height="139.6px" viewBox="0 -2 364 139.6" style="top:-2px">  <desc>Enhanced Data Visualisation For more advanced reporting and presentation of project outcomes.</desc>  <defs/>  <g id="Polygon7463">    <path d="M 20.8 128.7 L 20.8 112.9 L 22.5 112.9 C 22.5 112.9 22.52 114.38 22.5 114.4 C 22.9 113.8 23.4 113.4 23.9 113.1 C 24.4 112.8 25.1 112.6 25.8 112.6 C 26.8 112.6 27.7 112.9 28.4 113.4 C 29.1 113.9 29.7 114.6 30.1 115.5 C 30.5 116.4 30.7 117.4 30.7 118.5 C 30.7 119.7 30.4 120.7 30 121.7 C 29.6 122.6 29 123.3 28.2 123.8 C 27.4 124.3 26.6 124.6 25.7 124.6 C 25 124.6 24.5 124.4 23.9 124.2 C 23.4 123.9 23 123.5 22.7 123.1 C 22.69 123.12 22.7 128.7 22.7 128.7 L 20.8 128.7 Z M 22.5 118.7 C 22.5 120.1 22.8 121.2 23.4 121.9 C 24 122.6 24.7 123 25.6 123 C 26.4 123 27.2 122.6 27.8 121.9 C 28.4 121.2 28.7 120 28.7 118.5 C 28.7 117 28.4 116 27.8 115.2 C 27.2 114.5 26.5 114.2 25.6 114.2 C 24.8 114.2 24.1 114.5 23.5 115.3 C 22.8 116.1 22.5 117.2 22.5 118.7 Z M 33 124.3 L 33 112.9 L 34.7 112.9 C 34.7 112.9 34.71 114.62 34.7 114.6 C 35.2 113.8 35.6 113.3 35.9 113 C 36.3 112.8 36.7 112.6 37.2 112.6 C 37.8 112.6 38.5 112.8 39.2 113.3 C 39.2 113.3 38.5 115.1 38.5 115.1 C 38 114.8 37.6 114.6 37.1 114.6 C 36.7 114.6 36.3 114.8 35.9 115 C 35.6 115.3 35.4 115.6 35.2 116.1 C 35 116.8 34.9 117.5 34.9 118.3 C 34.9 118.33 34.9 124.3 34.9 124.3 L 33 124.3 Z M 48.1 120.6 C 48.1 120.6 50.1 120.9 50.1 120.9 C 49.8 122 49.2 123 48.4 123.6 C 47.5 124.2 46.4 124.6 45.1 124.6 C 43.4 124.6 42.1 124 41.1 123 C 40.2 122 39.7 120.6 39.7 118.7 C 39.7 116.8 40.2 115.3 41.2 114.2 C 42.1 113.2 43.4 112.6 45 112.6 C 46.5 112.6 47.8 113.2 48.7 114.2 C 49.7 115.2 50.2 116.7 50.2 118.6 C 50.2 118.7 50.2 118.9 50.2 119.1 C 50.2 119.1 41.7 119.1 41.7 119.1 C 41.7 120.3 42.1 121.3 42.7 122 C 43.4 122.6 44.2 123 45.1 123 C 45.8 123 46.4 122.8 46.9 122.4 C 47.4 122 47.8 121.4 48.1 120.6 Z M 41.8 117.5 C 41.8 117.5 48.1 117.5 48.1 117.5 C 48.1 116.5 47.8 115.8 47.4 115.3 C 46.8 114.6 46 114.2 45 114.2 C 44.1 114.2 43.4 114.5 42.8 115.1 C 42.2 115.7 41.8 116.5 41.8 117.5 Z M 51.8 120.9 C 51.8 120.9 53.7 120.6 53.7 120.6 C 53.8 121.4 54.1 122 54.6 122.4 C 55.1 122.8 55.8 123 56.6 123 C 57.5 123 58.2 122.8 58.6 122.4 C 59 122.1 59.3 121.6 59.3 121.2 C 59.3 120.7 59.1 120.4 58.7 120.1 C 58.4 120 57.8 119.7 56.7 119.5 C 55.3 119.1 54.3 118.8 53.8 118.5 C 53.2 118.3 52.8 117.9 52.5 117.5 C 52.2 117 52.1 116.5 52.1 115.9 C 52.1 115.4 52.2 114.9 52.4 114.5 C 52.7 114.1 53 113.7 53.4 113.4 C 53.7 113.2 54.1 113 54.6 112.9 C 55.1 112.7 55.7 112.6 56.3 112.6 C 57.2 112.6 58 112.8 58.7 113 C 59.3 113.3 59.8 113.6 60.2 114.1 C 60.5 114.5 60.7 115.1 60.8 115.8 C 60.8 115.8 58.9 116.1 58.9 116.1 C 58.8 115.5 58.6 115.1 58.2 114.7 C 57.8 114.4 57.2 114.2 56.4 114.2 C 55.6 114.2 54.9 114.4 54.5 114.7 C 54.2 115 54 115.3 54 115.7 C 54 115.9 54 116.2 54.2 116.4 C 54.4 116.6 54.6 116.8 54.9 116.9 C 55.1 117 55.7 117.1 56.7 117.4 C 58 117.8 59 118 59.5 118.3 C 60.1 118.5 60.5 118.9 60.8 119.3 C 61.1 119.7 61.3 120.3 61.3 121 C 61.3 121.6 61.1 122.2 60.7 122.8 C 60.3 123.3 59.8 123.8 59.1 124.1 C 58.4 124.4 57.5 124.6 56.7 124.6 C 55.2 124.6 54 124.3 53.3 123.6 C 52.5 123 52 122.1 51.8 120.9 Z M 71.4 120.6 C 71.4 120.6 73.4 120.9 73.4 120.9 C 73 122 72.5 123 71.6 123.6 C 70.8 124.2 69.7 124.6 68.3 124.6 C 66.7 124.6 65.3 124 64.4 123 C 63.4 122 62.9 120.6 62.9 118.7 C 62.9 116.8 63.4 115.3 64.4 114.2 C 65.4 113.2 66.7 112.6 68.2 112.6 C 69.8 112.6 71 113.2 72 114.2 C 72.9 115.2 73.4 116.7 73.4 118.6 C 73.4 118.7 73.4 118.9 73.4 119.1 C 73.4 119.1 64.9 119.1 64.9 119.1 C 65 120.3 65.3 121.3 66 122 C 66.6 122.6 67.4 123 68.4 123 C 69.1 123 69.7 122.8 70.2 122.4 C 70.7 122 71.1 121.4 71.4 120.6 Z M 65 117.5 C 65 117.5 71.4 117.5 71.4 117.5 C 71.3 116.5 71.1 115.8 70.7 115.3 C 70 114.6 69.2 114.2 68.3 114.2 C 67.4 114.2 66.6 114.5 66 115.1 C 65.4 115.7 65.1 116.5 65 117.5 Z M 75.8 124.3 L 75.8 112.9 L 77.5 112.9 C 77.5 112.9 77.53 114.52 77.5 114.5 C 78.4 113.3 79.6 112.6 81.2 112.6 C 81.8 112.6 82.5 112.8 83.1 113 C 83.6 113.3 84.1 113.6 84.3 114 C 84.6 114.4 84.8 114.9 84.9 115.4 C 85 115.8 85.1 116.4 85.1 117.3 C 85.06 117.29 85.1 124.3 85.1 124.3 L 83.1 124.3 C 83.1 124.3 83.12 117.36 83.1 117.4 C 83.1 116.6 83 116 82.9 115.6 C 82.7 115.2 82.5 114.9 82.1 114.7 C 81.7 114.4 81.3 114.3 80.7 114.3 C 79.9 114.3 79.2 114.6 78.6 115.1 C 78 115.6 77.7 116.6 77.7 118.1 C 77.72 118.07 77.7 124.3 77.7 124.3 L 75.8 124.3 Z M 91.4 122.6 C 91.6 122.6 91.9 122.6 92.2 122.6 C 92.2 122.6 92.5 124.3 92.5 124.3 C 92 124.4 91.5 124.5 91.1 124.5 C 90.4 124.5 89.8 124.3 89.4 124.1 C 89 123.9 88.8 123.6 88.6 123.2 C 88.5 122.9 88.4 122.1 88.4 121 C 88.38 120.96 88.4 114.4 88.4 114.4 L 87 114.4 L 87 112.9 L 88.4 112.9 L 88.4 110.1 L 90.3 108.9 L 90.3 112.9 L 92.2 112.9 L 92.2 114.4 L 90.3 114.4 C 90.3 114.4 90.3 121.07 90.3 121.1 C 90.3 121.6 90.3 122 90.4 122.1 C 90.5 122.3 90.6 122.4 90.7 122.5 C 90.9 122.6 91.1 122.6 91.4 122.6 C 91.4 122.6 91.4 122.6 91.4 122.6 Z M 102 124.3 C 101.8 123.9 101.6 123.4 101.6 122.9 C 100.9 123.5 100.2 123.9 99.5 124.2 C 98.8 124.4 98.1 124.6 97.4 124.6 C 96.1 124.6 95.2 124.3 94.5 123.6 C 93.8 123 93.5 122.2 93.5 121.3 C 93.5 120.7 93.6 120.2 93.9 119.8 C 94.1 119.3 94.4 118.9 94.9 118.7 C 95.3 118.4 95.7 118.2 96.2 118 C 96.6 117.9 97.2 117.8 98 117.7 C 99.5 117.5 100.7 117.3 101.4 117.1 C 101.4 116.8 101.4 116.6 101.4 116.6 C 101.4 115.8 101.2 115.2 100.9 114.9 C 100.4 114.5 99.7 114.2 98.7 114.2 C 97.8 114.2 97.1 114.4 96.7 114.7 C 96.2 115 95.9 115.6 95.7 116.4 C 95.7 116.4 93.8 116.2 93.8 116.2 C 94 115.3 94.3 114.7 94.7 114.2 C 95.1 113.7 95.6 113.3 96.4 113 C 97.1 112.8 98 112.6 99 112.6 C 99.9 112.6 100.7 112.8 101.3 113 C 101.9 113.2 102.4 113.5 102.7 113.8 C 103 114.2 103.2 114.6 103.3 115.2 C 103.3 115.5 103.4 116.1 103.4 116.9 C 103.4 116.9 103.4 119.5 103.4 119.5 C 103.4 121.3 103.4 122.5 103.5 122.9 C 103.6 123.4 103.7 123.9 104 124.3 C 103.98 124.3 102 124.3 102 124.3 C 102 124.3 101.96 124.3 102 124.3 Z M 101.4 118.6 C 100.7 118.9 99.7 119.1 98.3 119.3 C 97.5 119.4 96.9 119.6 96.6 119.7 C 96.2 119.8 96 120 95.8 120.3 C 95.6 120.6 95.5 120.9 95.5 121.2 C 95.5 121.8 95.7 122.2 96.1 122.5 C 96.5 122.9 97.1 123 97.8 123 C 98.6 123 99.2 122.9 99.8 122.6 C 100.4 122.2 100.8 121.8 101.1 121.2 C 101.3 120.8 101.4 120.1 101.4 119.3 C 101.4 119.3 101.4 118.6 101.4 118.6 Z M 109.7 122.6 C 110 122.6 110.2 122.6 110.6 122.6 C 110.6 122.6 110.9 124.3 110.9 124.3 C 110.3 124.4 109.8 124.5 109.4 124.5 C 108.7 124.5 108.2 124.3 107.8 124.1 C 107.4 123.9 107.1 123.6 107 123.2 C 106.8 122.9 106.7 122.1 106.7 121 C 106.72 120.96 106.7 114.4 106.7 114.4 L 105.3 114.4 L 105.3 112.9 L 106.7 112.9 L 106.7 110.1 L 108.6 108.9 L 108.6 112.9 L 110.6 112.9 L 110.6 114.4 L 108.6 114.4 C 108.6 114.4 108.65 121.07 108.6 121.1 C 108.6 121.6 108.7 122 108.7 122.1 C 108.8 122.3 108.9 122.4 109.1 122.5 C 109.2 122.6 109.5 122.6 109.7 122.6 C 109.7 122.6 109.7 122.6 109.7 122.6 Z M 112.5 110.8 L 112.5 108.6 L 114.4 108.6 L 114.4 110.8 L 112.5 110.8 Z M 112.5 124.3 L 112.5 112.9 L 114.4 112.9 L 114.4 124.3 L 112.5 124.3 Z M 116.6 118.6 C 116.6 116.5 117.2 114.9 118.4 113.9 C 119.4 113.1 120.6 112.6 122 112.6 C 123.6 112.6 124.8 113.2 125.8 114.2 C 126.8 115.2 127.3 116.6 127.3 118.4 C 127.3 119.9 127.1 121.1 126.7 121.9 C 126.2 122.7 125.6 123.4 124.8 123.9 C 123.9 124.3 123 124.6 122 124.6 C 120.4 124.6 119.1 124 118.1 123 C 117.1 122 116.6 120.5 116.6 118.6 Z M 118.6 118.6 C 118.6 120.1 119 121.2 119.6 121.9 C 120.2 122.6 121 123 122 123 C 123 123 123.8 122.6 124.4 121.9 C 125 121.1 125.4 120 125.4 118.5 C 125.4 117.1 125 116.1 124.4 115.3 C 123.7 114.6 123 114.2 122 114.2 C 121 114.2 120.2 114.6 119.6 115.3 C 119 116 118.6 117.1 118.6 118.6 Z M 129.6 124.3 L 129.6 112.9 L 131.3 112.9 C 131.3 112.9 131.34 114.52 131.3 114.5 C 132.2 113.3 133.4 112.6 135 112.6 C 135.7 112.6 136.3 112.8 136.9 113 C 137.4 113.3 137.9 113.6 138.2 114 C 138.5 114.4 138.7 114.9 138.8 115.4 C 138.8 115.8 138.9 116.4 138.9 117.3 C 138.87 117.29 138.9 124.3 138.9 124.3 L 136.9 124.3 C 136.9 124.3 136.94 117.36 136.9 117.4 C 136.9 116.6 136.9 116 136.7 115.6 C 136.6 115.2 136.3 114.9 135.9 114.7 C 135.5 114.4 135.1 114.3 134.6 114.3 C 133.7 114.3 133 114.6 132.4 115.1 C 131.8 115.6 131.5 116.6 131.5 118.1 C 131.54 118.07 131.5 124.3 131.5 124.3 L 129.6 124.3 Z M 147.2 118.6 C 147.2 116.5 147.8 114.9 149 113.9 C 150 113.1 151.2 112.6 152.6 112.6 C 154.1 112.6 155.4 113.2 156.4 114.2 C 157.4 115.2 157.9 116.6 157.9 118.4 C 157.9 119.9 157.7 121.1 157.3 121.9 C 156.8 122.7 156.2 123.4 155.3 123.9 C 154.5 124.3 153.6 124.6 152.6 124.6 C 151 124.6 149.7 124 148.7 123 C 147.7 122 147.2 120.5 147.2 118.6 Z M 149.2 118.6 C 149.2 120.1 149.5 121.2 150.2 121.9 C 150.8 122.6 151.6 123 152.6 123 C 153.5 123 154.3 122.6 155 121.9 C 155.6 121.1 155.9 120 155.9 118.5 C 155.9 117.1 155.6 116.1 155 115.3 C 154.3 114.6 153.5 114.2 152.6 114.2 C 151.6 114.2 150.8 114.6 150.2 115.3 C 149.5 116 149.2 117.1 149.2 118.6 Z M 160.6 124.3 L 160.6 114.4 L 158.9 114.4 L 158.9 112.9 L 160.6 112.9 C 160.6 112.9 160.65 111.68 160.6 111.7 C 160.6 110.9 160.7 110.3 160.9 110 C 161 109.5 161.4 109.1 161.8 108.8 C 162.3 108.4 163 108.3 163.8 108.3 C 164.4 108.3 165 108.4 165.6 108.5 C 165.6 108.5 165.3 110.2 165.3 110.2 C 164.9 110.1 164.5 110.1 164.2 110.1 C 163.6 110.1 163.2 110.2 162.9 110.4 C 162.7 110.7 162.6 111.2 162.6 111.8 C 162.57 111.84 162.6 112.9 162.6 112.9 L 164.8 112.9 L 164.8 114.4 L 162.6 114.4 L 162.6 124.3 L 160.6 124.3 Z M 172.4 128.7 L 172.4 112.9 L 174.2 112.9 C 174.2 112.9 174.17 114.38 174.2 114.4 C 174.6 113.8 175.1 113.4 175.6 113.1 C 176.1 112.8 176.7 112.6 177.5 112.6 C 178.5 112.6 179.3 112.9 180.1 113.4 C 180.8 113.9 181.4 114.6 181.7 115.5 C 182.1 116.4 182.3 117.4 182.3 118.5 C 182.3 119.7 182.1 120.7 181.7 121.7 C 181.3 122.6 180.7 123.3 179.9 123.8 C 179.1 124.3 178.2 124.6 177.3 124.6 C 176.7 124.6 176.1 124.4 175.6 124.2 C 175.1 123.9 174.7 123.5 174.3 123.1 C 174.35 123.12 174.3 128.7 174.3 128.7 L 172.4 128.7 Z M 174.2 118.7 C 174.2 120.1 174.5 121.2 175.1 121.9 C 175.6 122.6 176.4 123 177.2 123 C 178.1 123 178.8 122.6 179.4 121.9 C 180 121.2 180.3 120 180.3 118.5 C 180.3 117 180 116 179.4 115.2 C 178.8 114.5 178.1 114.2 177.3 114.2 C 176.5 114.2 175.7 114.5 175.1 115.3 C 174.5 116.1 174.2 117.2 174.2 118.7 Z M 184.6 124.3 L 184.6 112.9 L 186.4 112.9 C 186.4 112.9 186.37 114.62 186.4 114.6 C 186.8 113.8 187.2 113.3 187.6 113 C 188 112.8 188.4 112.6 188.8 112.6 C 189.5 112.6 190.2 112.8 190.8 113.3 C 190.8 113.3 190.2 115.1 190.2 115.1 C 189.7 114.8 189.2 114.6 188.7 114.6 C 188.3 114.6 187.9 114.8 187.6 115 C 187.3 115.3 187 115.6 186.9 116.1 C 186.7 116.8 186.6 117.5 186.6 118.3 C 186.56 118.33 186.6 124.3 186.6 124.3 L 184.6 124.3 Z M 191.3 118.6 C 191.3 116.5 191.8 114.9 193 113.9 C 194 113.1 195.2 112.6 196.6 112.6 C 198.2 112.6 199.5 113.2 200.4 114.2 C 201.4 115.2 201.9 116.6 201.9 118.4 C 201.9 119.9 201.7 121.1 201.3 121.9 C 200.8 122.7 200.2 123.4 199.4 123.9 C 198.5 124.3 197.6 124.6 196.6 124.6 C 195 124.6 193.7 124 192.7 123 C 191.7 122 191.3 120.5 191.3 118.6 Z M 193.2 118.6 C 193.2 120.1 193.6 121.2 194.2 121.9 C 194.8 122.6 195.6 123 196.6 123 C 197.6 123 198.4 122.6 199 121.9 C 199.6 121.1 200 120 200 118.5 C 200 117.1 199.6 116.1 199 115.3 C 198.4 114.6 197.6 114.2 196.6 114.2 C 195.6 114.2 194.8 114.6 194.2 115.3 C 193.6 116 193.2 117.1 193.2 118.6 Z M 204.2 110.8 L 204.2 108.6 L 206.1 108.6 L 206.1 110.8 L 204.2 110.8 Z M 203.3 128.9 C 202.7 128.9 202.2 128.9 201.7 128.7 C 201.7 128.7 202.1 127.1 202.1 127.1 C 202.5 127.2 202.8 127.2 203 127.2 C 203.4 127.2 203.7 127.1 203.9 126.8 C 204.1 126.6 204.2 125.9 204.2 124.9 C 204.2 124.88 204.2 112.9 204.2 112.9 L 206.1 112.9 C 206.1 112.9 206.13 124.93 206.1 124.9 C 206.1 126.3 205.9 127.3 205.6 127.9 C 205.1 128.6 204.3 128.9 203.3 128.9 C 203.3 128.9 203.3 128.9 203.3 128.9 Z M 216.9 120.6 C 216.9 120.6 218.9 120.9 218.9 120.9 C 218.6 122 218 123 217.2 123.6 C 216.3 124.2 215.2 124.6 213.9 124.6 C 212.2 124.6 210.9 124 209.9 123 C 208.9 122 208.5 120.6 208.5 118.7 C 208.5 116.8 208.9 115.3 209.9 114.2 C 210.9 113.2 212.2 112.6 213.8 112.6 C 215.3 112.6 216.6 113.2 217.5 114.2 C 218.5 115.2 219 116.7 219 118.6 C 219 118.7 219 118.9 219 119.1 C 219 119.1 210.4 119.1 210.4 119.1 C 210.5 120.3 210.9 121.3 211.5 122 C 212.2 122.6 212.9 123 213.9 123 C 214.6 123 215.2 122.8 215.7 122.4 C 216.2 122 216.6 121.4 216.9 120.6 Z M 210.6 117.5 C 210.6 117.5 216.9 117.5 216.9 117.5 C 216.8 116.5 216.6 115.8 216.2 115.3 C 215.6 114.6 214.8 114.2 213.8 114.2 C 212.9 114.2 212.2 114.5 211.6 115.1 C 211 115.7 210.6 116.5 210.6 117.5 Z M 228.8 120.1 C 228.8 120.1 230.7 120.4 230.7 120.4 C 230.5 121.7 229.9 122.7 229.1 123.4 C 228.2 124.2 227.2 124.6 225.9 124.6 C 224.4 124.6 223.1 124.1 222.2 123 C 221.2 122 220.7 120.5 220.7 118.6 C 220.7 117.4 220.9 116.3 221.4 115.4 C 221.8 114.5 222.4 113.8 223.2 113.3 C 224.1 112.9 225 112.6 225.9 112.6 C 227.2 112.6 228.2 113 229 113.6 C 229.8 114.2 230.3 115.1 230.5 116.2 C 230.5 116.2 228.6 116.5 228.6 116.5 C 228.4 115.8 228.1 115.2 227.7 114.8 C 227.2 114.4 226.7 114.2 226 114.2 C 225 114.2 224.2 114.6 223.6 115.3 C 223 116 222.7 117.1 222.7 118.6 C 222.7 120.1 223 121.2 223.6 121.9 C 224.2 122.6 225 123 225.9 123 C 226.7 123 227.3 122.7 227.8 122.3 C 228.3 121.8 228.6 121.1 228.8 120.1 Z M 235.7 122.6 C 235.9 122.6 236.2 122.6 236.6 122.6 C 236.6 122.6 236.8 124.3 236.8 124.3 C 236.3 124.4 235.8 124.5 235.4 124.5 C 234.7 124.5 234.1 124.3 233.7 124.1 C 233.4 123.9 233.1 123.6 232.9 123.2 C 232.8 122.9 232.7 122.1 232.7 121 C 232.69 120.96 232.7 114.4 232.7 114.4 L 231.3 114.4 L 231.3 112.9 L 232.7 112.9 L 232.7 110.1 L 234.6 108.9 L 234.6 112.9 L 236.6 112.9 L 236.6 114.4 L 234.6 114.4 C 234.6 114.4 234.61 121.07 234.6 121.1 C 234.6 121.6 234.6 122 234.7 122.1 C 234.8 122.3 234.9 122.4 235 122.5 C 235.2 122.6 235.4 122.6 235.7 122.6 C 235.7 122.6 235.7 122.6 235.7 122.6 Z M 243.8 118.6 C 243.8 116.5 244.4 114.9 245.6 113.9 C 246.6 113.1 247.8 112.6 249.2 112.6 C 250.8 112.6 252 113.2 253 114.2 C 254 115.2 254.5 116.6 254.5 118.4 C 254.5 119.9 254.3 121.1 253.9 121.9 C 253.4 122.7 252.8 123.4 251.9 123.9 C 251.1 124.3 250.2 124.6 249.2 124.6 C 247.6 124.6 246.3 124 245.3 123 C 244.3 122 243.8 120.5 243.8 118.6 Z M 245.8 118.6 C 245.8 120.1 246.1 121.2 246.8 121.9 C 247.4 122.6 248.2 123 249.2 123 C 250.1 123 250.9 122.6 251.6 121.9 C 252.2 121.1 252.5 120 252.5 118.5 C 252.5 117.1 252.2 116.1 251.6 115.3 C 250.9 114.6 250.1 114.2 249.2 114.2 C 248.2 114.2 247.4 114.6 246.8 115.3 C 246.1 116 245.8 117.1 245.8 118.6 Z M 264.3 124.3 C 264.3 124.3 264.27 122.63 264.3 122.6 C 263.4 123.9 262.2 124.6 260.6 124.6 C 260 124.6 259.3 124.4 258.8 124.2 C 258.2 123.9 257.7 123.6 257.5 123.2 C 257.2 122.8 257 122.3 256.9 121.8 C 256.8 121.4 256.7 120.8 256.7 120 C 256.75 119.96 256.7 112.9 256.7 112.9 L 258.7 112.9 C 258.7 112.9 258.68 119.22 258.7 119.2 C 258.7 120.2 258.7 120.9 258.8 121.3 C 258.9 121.8 259.2 122.2 259.6 122.5 C 260 122.8 260.5 122.9 261 122.9 C 261.6 122.9 262.2 122.7 262.7 122.5 C 263.2 122.2 263.5 121.7 263.7 121.2 C 264 120.7 264.1 120 264.1 119 C 264.06 119.01 264.1 112.9 264.1 112.9 L 266 112.9 L 266 124.3 L 264.3 124.3 Z M 272.4 122.6 C 272.6 122.6 272.9 122.6 273.2 122.6 C 273.2 122.6 273.5 124.3 273.5 124.3 C 273 124.4 272.5 124.5 272.1 124.5 C 271.4 124.5 270.8 124.3 270.4 124.1 C 270 123.9 269.8 123.6 269.6 123.2 C 269.5 122.9 269.4 122.1 269.4 121 C 269.38 120.96 269.4 114.4 269.4 114.4 L 268 114.4 L 268 112.9 L 269.4 112.9 L 269.4 110.1 L 271.3 108.9 L 271.3 112.9 L 273.2 112.9 L 273.2 114.4 L 271.3 114.4 C 271.3 114.4 271.3 121.07 271.3 121.1 C 271.3 121.6 271.3 122 271.4 122.1 C 271.5 122.3 271.6 122.4 271.7 122.5 C 271.9 122.6 272.1 122.6 272.4 122.6 C 272.4 122.6 272.4 122.6 272.4 122.6 Z M 282.6 120.1 C 282.6 120.1 284.5 120.4 284.5 120.4 C 284.3 121.7 283.7 122.7 282.9 123.4 C 282 124.2 281 124.6 279.7 124.6 C 278.2 124.6 276.9 124.1 276 123 C 275 122 274.5 120.5 274.5 118.6 C 274.5 117.4 274.8 116.3 275.2 115.4 C 275.6 114.5 276.2 113.8 277 113.3 C 277.9 112.9 278.8 112.6 279.7 112.6 C 281 112.6 282 113 282.8 113.6 C 283.6 114.2 284.1 115.1 284.3 116.2 C 284.3 116.2 282.4 116.5 282.4 116.5 C 282.2 115.8 281.9 115.2 281.5 114.8 C 281 114.4 280.5 114.2 279.8 114.2 C 278.8 114.2 278.1 114.6 277.4 115.3 C 276.8 116 276.5 117.1 276.5 118.6 C 276.5 120.1 276.8 121.2 277.4 121.9 C 278 122.6 278.8 123 279.7 123 C 280.5 123 281.1 122.7 281.6 122.3 C 282.1 121.8 282.4 121.1 282.6 120.1 Z M 285.4 118.6 C 285.4 116.5 286 114.9 287.2 113.9 C 288.2 113.1 289.4 112.6 290.8 112.6 C 292.3 112.6 293.6 113.2 294.6 114.2 C 295.6 115.2 296.1 116.6 296.1 118.4 C 296.1 119.9 295.9 121.1 295.4 121.9 C 295 122.7 294.4 123.4 293.5 123.9 C 292.7 124.3 291.8 124.6 290.8 124.6 C 289.2 124.6 287.9 124 286.9 123 C 285.9 122 285.4 120.5 285.4 118.6 Z M 287.4 118.6 C 287.4 120.1 287.7 121.2 288.4 121.9 C 289 122.6 289.8 123 290.8 123 C 291.7 123 292.5 122.6 293.2 121.9 C 293.8 121.1 294.1 120 294.1 118.5 C 294.1 117.1 293.8 116.1 293.2 115.3 C 292.5 114.6 291.7 114.2 290.8 114.2 C 289.8 114.2 289 114.6 288.4 115.3 C 287.7 116 287.4 117.1 287.4 118.6 Z M 298.4 124.3 L 298.4 112.9 L 300.1 112.9 C 300.1 112.9 300.1 114.5 300.1 114.5 C 300.5 113.9 300.9 113.5 301.5 113.1 C 302.1 112.8 302.8 112.6 303.6 112.6 C 304.4 112.6 305.1 112.8 305.6 113.2 C 306.2 113.5 306.6 114 306.8 114.6 C 307.7 113.3 308.9 112.6 310.3 112.6 C 311.4 112.6 312.3 113 312.9 113.6 C 313.5 114.2 313.8 115.2 313.8 116.5 C 313.83 116.47 313.8 124.3 313.8 124.3 L 311.9 124.3 C 311.9 124.3 311.91 117.12 311.9 117.1 C 311.9 116.3 311.8 115.8 311.7 115.4 C 311.6 115.1 311.4 114.8 311 114.6 C 310.7 114.4 310.3 114.3 309.9 114.3 C 309.1 114.3 308.4 114.6 307.9 115.1 C 307.4 115.6 307.1 116.5 307.1 117.7 C 307.09 117.68 307.1 124.3 307.1 124.3 L 305.2 124.3 C 305.2 124.3 305.15 116.89 305.2 116.9 C 305.2 116 305 115.4 304.7 115 C 304.4 114.5 303.8 114.3 303.1 114.3 C 302.6 114.3 302.1 114.5 301.6 114.7 C 301.2 115 300.8 115.4 300.6 116 C 300.4 116.6 300.3 117.3 300.3 118.4 C 300.31 118.38 300.3 124.3 300.3 124.3 L 298.4 124.3 Z M 324.5 120.6 C 324.5 120.6 326.5 120.9 326.5 120.9 C 326.2 122 325.6 123 324.8 123.6 C 323.9 124.2 322.8 124.6 321.5 124.6 C 319.8 124.6 318.5 124 317.5 123 C 316.5 122 316.1 120.6 316.1 118.7 C 316.1 116.8 316.6 115.3 317.5 114.2 C 318.5 113.2 319.8 112.6 321.4 112.6 C 322.9 112.6 324.2 113.2 325.1 114.2 C 326.1 115.2 326.6 116.7 326.6 118.6 C 326.6 118.7 326.6 118.9 326.6 119.1 C 326.6 119.1 318.1 119.1 318.1 119.1 C 318.1 120.3 318.5 121.3 319.1 122 C 319.8 122.6 320.5 123 321.5 123 C 322.2 123 322.8 122.8 323.3 122.4 C 323.8 122 324.2 121.4 324.5 120.6 Z M 318.2 117.5 C 318.2 117.5 324.5 117.5 324.5 117.5 C 324.4 116.5 324.2 115.8 323.8 115.3 C 323.2 114.6 322.4 114.2 321.4 114.2 C 320.5 114.2 319.8 114.5 319.2 115.1 C 318.6 115.7 318.2 116.5 318.2 117.5 Z M 328.2 120.9 C 328.2 120.9 330.1 120.6 330.1 120.6 C 330.2 121.4 330.5 122 331 122.4 C 331.5 122.8 332.1 123 333 123 C 333.9 123 334.6 122.8 335 122.4 C 335.4 122.1 335.6 121.6 335.6 121.2 C 335.6 120.7 335.5 120.4 335.1 120.1 C 334.8 120 334.2 119.7 333.1 119.5 C 331.7 119.1 330.7 118.8 330.2 118.5 C 329.6 118.3 329.2 117.9 328.9 117.5 C 328.6 117 328.5 116.5 328.5 115.9 C 328.5 115.4 328.6 114.9 328.8 114.5 C 329.1 114.1 329.4 113.7 329.8 113.4 C 330.1 113.2 330.5 113 331 112.9 C 331.5 112.7 332.1 112.6 332.7 112.6 C 333.6 112.6 334.4 112.8 335 113 C 335.7 113.3 336.2 113.6 336.5 114.1 C 336.9 114.5 337.1 115.1 337.2 115.8 C 337.2 115.8 335.3 116.1 335.3 116.1 C 335.2 115.5 335 115.1 334.6 114.7 C 334.2 114.4 333.6 114.2 332.8 114.2 C 331.9 114.2 331.3 114.4 330.9 114.7 C 330.5 115 330.4 115.3 330.4 115.7 C 330.4 115.9 330.4 116.2 330.6 116.4 C 330.7 116.6 331 116.8 331.3 116.9 C 331.5 117 332.1 117.1 333 117.4 C 334.4 117.8 335.4 118 335.9 118.3 C 336.4 118.5 336.9 118.9 337.2 119.3 C 337.5 119.7 337.6 120.3 337.6 121 C 337.6 121.6 337.4 122.2 337.1 122.8 C 336.7 123.3 336.2 123.8 335.4 124.1 C 334.7 124.4 333.9 124.6 333 124.6 C 331.6 124.6 330.4 124.3 329.7 123.6 C 328.9 123 328.4 122.1 328.2 120.9 Z M 340.5 124.3 L 340.5 122.1 L 342.7 122.1 L 342.7 124.3 L 340.5 124.3 Z " stroke="none" fill="#000"/>  </g>  <g id="Polygon7462">    <path d="M 20.5 97.9 L 20.5 82.2 L 31.1 82.2 L 31.1 84 L 22.6 84 L 22.6 88.9 L 30 88.9 L 30 90.7 L 22.6 90.7 L 22.6 97.9 L 20.5 97.9 Z M 32.9 92.2 C 32.9 90.1 33.4 88.5 34.6 87.5 C 35.6 86.7 36.8 86.2 38.2 86.2 C 39.8 86.2 41.1 86.8 42.1 87.8 C 43.1 88.8 43.5 90.2 43.5 92 C 43.5 93.5 43.3 94.7 42.9 95.5 C 42.4 96.3 41.8 97 41 97.5 C 40.1 97.9 39.2 98.2 38.2 98.2 C 36.6 98.2 35.3 97.6 34.3 96.6 C 33.4 95.6 32.9 94.1 32.9 92.2 Z M 34.8 92.2 C 34.8 93.7 35.2 94.8 35.8 95.5 C 36.4 96.2 37.2 96.6 38.2 96.6 C 39.2 96.6 40 96.2 40.6 95.5 C 41.2 94.7 41.6 93.6 41.6 92.1 C 41.6 90.7 41.2 89.7 40.6 88.9 C 40 88.2 39.2 87.8 38.2 87.8 C 37.2 87.8 36.4 88.2 35.8 88.9 C 35.2 89.6 34.8 90.7 34.8 92.2 Z M 45.8 97.9 L 45.8 86.5 L 47.5 86.5 C 47.5 86.5 47.53 88.22 47.5 88.2 C 48 87.4 48.4 86.9 48.8 86.6 C 49.1 86.4 49.6 86.2 50 86.2 C 50.7 86.2 51.3 86.4 52 86.9 C 52 86.9 51.3 88.7 51.3 88.7 C 50.9 88.4 50.4 88.2 49.9 88.2 C 49.5 88.2 49.1 88.4 48.8 88.6 C 48.4 88.9 48.2 89.2 48 89.7 C 47.8 90.4 47.7 91.1 47.7 91.9 C 47.73 91.93 47.7 97.9 47.7 97.9 L 45.8 97.9 Z M 59.3 97.9 L 59.3 86.5 L 61 86.5 C 61 86.5 60.98 88.1 61 88.1 C 61.3 87.5 61.8 87.1 62.4 86.7 C 63 86.4 63.7 86.2 64.4 86.2 C 65.3 86.2 66 86.4 66.5 86.8 C 67.1 87.1 67.4 87.6 67.7 88.2 C 68.6 86.9 69.7 86.2 71.2 86.2 C 72.3 86.2 73.2 86.6 73.8 87.2 C 74.4 87.8 74.7 88.8 74.7 90.1 C 74.71 90.07 74.7 97.9 74.7 97.9 L 72.8 97.9 C 72.8 97.9 72.79 90.72 72.8 90.7 C 72.8 89.9 72.7 89.4 72.6 89 C 72.5 88.7 72.2 88.4 71.9 88.2 C 71.6 88 71.2 87.9 70.8 87.9 C 70 87.9 69.3 88.2 68.8 88.7 C 68.2 89.2 68 90.1 68 91.3 C 67.97 91.28 68 97.9 68 97.9 L 66 97.9 C 66 97.9 66.03 90.49 66 90.5 C 66 89.6 65.9 89 65.6 88.6 C 65.2 88.1 64.7 87.9 64 87.9 C 63.5 87.9 63 88.1 62.5 88.3 C 62 88.6 61.7 89 61.5 89.6 C 61.3 90.2 61.2 90.9 61.2 92 C 61.19 91.98 61.2 97.9 61.2 97.9 L 59.3 97.9 Z M 76.9 92.2 C 76.9 90.1 77.4 88.5 78.6 87.5 C 79.6 86.7 80.8 86.2 82.2 86.2 C 83.8 86.2 85.1 86.8 86.1 87.8 C 87.1 88.8 87.5 90.2 87.5 92 C 87.5 93.5 87.3 94.7 86.9 95.5 C 86.4 96.3 85.8 97 85 97.5 C 84.1 97.9 83.2 98.2 82.2 98.2 C 80.6 98.2 79.3 97.6 78.3 96.6 C 77.4 95.6 76.9 94.1 76.9 92.2 Z M 78.8 92.2 C 78.8 93.7 79.2 94.8 79.8 95.5 C 80.4 96.2 81.2 96.6 82.2 96.6 C 83.2 96.6 84 96.2 84.6 95.5 C 85.2 94.7 85.6 93.6 85.6 92.1 C 85.6 90.7 85.2 89.7 84.6 88.9 C 84 88.2 83.2 87.8 82.2 87.8 C 81.2 87.8 80.4 88.2 79.8 88.9 C 79.2 89.6 78.8 90.7 78.8 92.2 Z M 89.8 97.9 L 89.8 86.5 L 91.5 86.5 C 91.5 86.5 91.53 88.22 91.5 88.2 C 92 87.4 92.4 86.9 92.8 86.6 C 93.1 86.4 93.6 86.2 94 86.2 C 94.7 86.2 95.3 86.4 96 86.9 C 96 86.9 95.3 88.7 95.3 88.7 C 94.9 88.4 94.4 88.2 93.9 88.2 C 93.5 88.2 93.1 88.4 92.8 88.6 C 92.4 88.9 92.2 89.2 92 89.7 C 91.8 90.4 91.7 91.1 91.7 91.9 C 91.73 91.93 91.7 97.9 91.7 97.9 L 89.8 97.9 Z M 105 94.2 C 105 94.2 106.9 94.5 106.9 94.5 C 106.6 95.6 106 96.6 105.2 97.2 C 104.3 97.8 103.3 98.2 101.9 98.2 C 100.3 98.2 98.9 97.6 98 96.6 C 97 95.6 96.5 94.2 96.5 92.3 C 96.5 90.4 97 88.9 98 87.8 C 99 86.8 100.2 86.2 101.8 86.2 C 103.4 86.2 104.6 86.8 105.6 87.8 C 106.5 88.8 107 90.3 107 92.2 C 107 92.3 107 92.5 107 92.7 C 107 92.7 98.5 92.7 98.5 92.7 C 98.6 93.9 98.9 94.9 99.6 95.6 C 100.2 96.2 101 96.6 101.9 96.6 C 102.7 96.6 103.3 96.4 103.8 96 C 104.3 95.6 104.7 95 105 94.2 Z M 98.6 91.1 C 98.6 91.1 105 91.1 105 91.1 C 104.9 90.1 104.6 89.4 104.2 88.9 C 103.6 88.2 102.8 87.8 101.8 87.8 C 101 87.8 100.2 88.1 99.6 88.7 C 99 89.3 98.7 90.1 98.6 91.1 Z M 123.3 97.9 C 123.1 97.5 123 97 122.9 96.5 C 122.2 97.1 121.5 97.5 120.9 97.8 C 120.2 98 119.5 98.2 118.7 98.2 C 117.5 98.2 116.5 97.9 115.8 97.2 C 115.2 96.6 114.8 95.8 114.8 94.9 C 114.8 94.3 115 93.8 115.2 93.4 C 115.5 92.9 115.8 92.5 116.2 92.3 C 116.6 92 117.1 91.8 117.6 91.6 C 118 91.5 118.6 91.4 119.3 91.3 C 120.9 91.1 122 90.9 122.8 90.7 C 122.8 90.4 122.8 90.2 122.8 90.2 C 122.8 89.4 122.6 88.8 122.2 88.5 C 121.7 88.1 121 87.8 120 87.8 C 119.1 87.8 118.5 88 118 88.3 C 117.6 88.6 117.3 89.2 117.1 90 C 117.1 90 115.2 89.8 115.2 89.8 C 115.3 88.9 115.6 88.3 116 87.8 C 116.4 87.3 117 86.9 117.7 86.6 C 118.5 86.4 119.3 86.2 120.3 86.2 C 121.3 86.2 122.1 86.4 122.7 86.6 C 123.3 86.8 123.7 87.1 124 87.4 C 124.3 87.8 124.5 88.2 124.6 88.8 C 124.7 89.1 124.7 89.7 124.7 90.5 C 124.7 90.5 124.7 93.1 124.7 93.1 C 124.7 94.9 124.8 96.1 124.9 96.5 C 124.9 97 125.1 97.5 125.3 97.9 C 125.34 97.9 123.3 97.9 123.3 97.9 C 123.3 97.9 123.32 97.9 123.3 97.9 Z M 122.8 92.2 C 122.1 92.5 121 92.7 119.6 92.9 C 118.8 93 118.3 93.2 117.9 93.3 C 117.6 93.4 117.3 93.6 117.2 93.9 C 117 94.2 116.9 94.5 116.9 94.8 C 116.9 95.4 117.1 95.8 117.5 96.1 C 117.9 96.5 118.4 96.6 119.2 96.6 C 119.9 96.6 120.6 96.5 121.2 96.2 C 121.8 95.8 122.2 95.4 122.5 94.8 C 122.7 94.4 122.8 93.7 122.8 92.9 C 122.8 92.9 122.8 92.2 122.8 92.2 Z M 135.1 97.9 C 135.1 97.9 135.13 96.46 135.1 96.5 C 134.4 97.6 133.3 98.2 131.9 98.2 C 131 98.2 130.2 97.9 129.4 97.4 C 128.7 96.9 128.1 96.2 127.7 95.3 C 127.2 94.4 127 93.4 127 92.2 C 127 91.1 127.2 90 127.6 89.1 C 128 88.2 128.5 87.5 129.3 87 C 130.1 86.5 130.9 86.2 131.8 86.2 C 132.5 86.2 133.1 86.4 133.7 86.7 C 134.2 87 134.7 87.3 135 87.8 C 135 87.81 135 82.2 135 82.2 L 136.9 82.2 L 136.9 97.9 L 135.1 97.9 Z M 129 92.2 C 129 93.7 129.3 94.8 129.9 95.5 C 130.6 96.2 131.3 96.6 132.1 96.6 C 133 96.6 133.7 96.2 134.3 95.5 C 134.9 94.8 135.2 93.8 135.2 92.4 C 135.2 90.8 134.9 89.7 134.3 88.9 C 133.7 88.2 132.9 87.8 132 87.8 C 131.2 87.8 130.5 88.2 129.9 88.9 C 129.3 89.6 129 90.7 129 92.2 Z M 143.1 97.9 L 138.8 86.5 L 140.8 86.5 C 140.8 86.5 143.28 93.33 143.3 93.3 C 143.5 94.1 143.8 94.8 144 95.6 C 144.2 95 144.4 94.3 144.7 93.5 C 144.73 93.46 147.3 86.5 147.3 86.5 L 149.3 86.5 L 144.9 97.9 L 143.1 97.9 Z M 158.8 97.9 C 158.6 97.5 158.5 97 158.4 96.5 C 157.7 97.1 157 97.5 156.3 97.8 C 155.7 98 155 98.2 154.2 98.2 C 153 98.2 152 97.9 151.3 97.2 C 150.6 96.6 150.3 95.8 150.3 94.9 C 150.3 94.3 150.4 93.8 150.7 93.4 C 150.9 92.9 151.3 92.5 151.7 92.3 C 152.1 92 152.6 91.8 153.1 91.6 C 153.5 91.5 154 91.4 154.8 91.3 C 156.4 91.1 157.5 90.9 158.2 90.7 C 158.2 90.4 158.3 90.2 158.3 90.2 C 158.3 89.4 158.1 88.8 157.7 88.5 C 157.2 88.1 156.5 87.8 155.5 87.8 C 154.6 87.8 153.9 88 153.5 88.3 C 153.1 88.6 152.7 89.2 152.5 90 C 152.5 90 150.6 89.8 150.6 89.8 C 150.8 88.9 151.1 88.3 151.5 87.8 C 151.9 87.3 152.4 86.9 153.2 86.6 C 153.9 86.4 154.8 86.2 155.8 86.2 C 156.8 86.2 157.5 86.4 158.2 86.6 C 158.8 86.8 159.2 87.1 159.5 87.4 C 159.8 87.8 160 88.2 160.1 88.8 C 160.2 89.1 160.2 89.7 160.2 90.5 C 160.2 90.5 160.2 93.1 160.2 93.1 C 160.2 94.9 160.2 96.1 160.3 96.5 C 160.4 97 160.6 97.5 160.8 97.9 C 160.81 97.9 158.8 97.9 158.8 97.9 C 158.8 97.9 158.79 97.9 158.8 97.9 Z M 158.2 92.2 C 157.5 92.5 156.5 92.7 155.1 92.9 C 154.3 93 153.7 93.2 153.4 93.3 C 153.1 93.4 152.8 93.6 152.6 93.9 C 152.5 94.2 152.4 94.5 152.4 94.8 C 152.4 95.4 152.6 95.8 153 96.1 C 153.3 96.5 153.9 96.6 154.7 96.6 C 155.4 96.6 156.1 96.5 156.7 96.2 C 157.2 95.8 157.7 95.4 157.9 94.8 C 158.1 94.4 158.2 93.7 158.2 92.9 C 158.2 92.9 158.2 92.2 158.2 92.2 Z M 163.2 97.9 L 163.2 86.5 L 164.9 86.5 C 164.9 86.5 164.94 88.12 164.9 88.1 C 165.8 86.9 167 86.2 168.6 86.2 C 169.3 86.2 169.9 86.4 170.5 86.6 C 171 86.9 171.5 87.2 171.8 87.6 C 172 88 172.2 88.5 172.4 89 C 172.4 89.4 172.5 90 172.5 90.9 C 172.47 90.89 172.5 97.9 172.5 97.9 L 170.5 97.9 C 170.5 97.9 170.53 90.96 170.5 91 C 170.5 90.2 170.5 89.6 170.3 89.2 C 170.2 88.8 169.9 88.5 169.5 88.3 C 169.1 88 168.7 87.9 168.2 87.9 C 167.3 87.9 166.6 88.2 166 88.7 C 165.4 89.2 165.1 90.2 165.1 91.7 C 165.13 91.67 165.1 97.9 165.1 97.9 L 163.2 97.9 Z M 182.9 93.7 C 182.9 93.7 184.8 94 184.8 94 C 184.6 95.3 184 96.3 183.2 97 C 182.3 97.8 181.3 98.2 180 98.2 C 178.5 98.2 177.2 97.7 176.3 96.6 C 175.3 95.6 174.8 94.1 174.8 92.2 C 174.8 91 175 89.9 175.5 89 C 175.9 88.1 176.5 87.4 177.3 86.9 C 178.1 86.5 179.1 86.2 180 86.2 C 181.3 86.2 182.3 86.6 183.1 87.2 C 183.9 87.8 184.4 88.7 184.6 89.8 C 184.6 89.8 182.7 90.1 182.7 90.1 C 182.5 89.4 182.2 88.8 181.8 88.4 C 181.3 88 180.8 87.8 180.1 87.8 C 179.1 87.8 178.3 88.2 177.7 88.9 C 177.1 89.6 176.8 90.7 176.8 92.2 C 176.8 93.7 177.1 94.8 177.7 95.5 C 178.3 96.2 179.1 96.6 180 96.6 C 180.8 96.6 181.4 96.3 181.9 95.9 C 182.4 95.4 182.7 94.7 182.9 93.7 Z M 194.2 94.2 C 194.2 94.2 196.2 94.5 196.2 94.5 C 195.9 95.6 195.3 96.6 194.5 97.2 C 193.6 97.8 192.5 98.2 191.2 98.2 C 189.6 98.2 188.2 97.6 187.3 96.6 C 186.3 95.6 185.8 94.2 185.8 92.3 C 185.8 90.4 186.3 88.9 187.3 87.8 C 188.3 86.8 189.5 86.2 191.1 86.2 C 192.6 86.2 193.9 86.8 194.9 87.8 C 195.8 88.8 196.3 90.3 196.3 92.2 C 196.3 92.3 196.3 92.5 196.3 92.7 C 196.3 92.7 187.8 92.7 187.8 92.7 C 187.9 93.9 188.2 94.9 188.8 95.6 C 189.5 96.2 190.3 96.6 191.2 96.6 C 191.9 96.6 192.5 96.4 193 96 C 193.5 95.6 193.9 95 194.2 94.2 Z M 187.9 91.1 C 187.9 91.1 194.3 91.1 194.3 91.1 C 194.2 90.1 193.9 89.4 193.5 88.9 C 192.9 88.2 192.1 87.8 191.1 87.8 C 190.2 87.8 189.5 88.1 188.9 88.7 C 188.3 89.3 188 90.1 187.9 91.1 Z M 206.1 97.9 C 206.1 97.9 206.07 96.46 206.1 96.5 C 205.3 97.6 204.3 98.2 202.9 98.2 C 202 98.2 201.1 97.9 200.4 97.4 C 199.6 96.9 199 96.2 198.6 95.3 C 198.2 94.4 198 93.4 198 92.2 C 198 91.1 198.2 90 198.5 89.1 C 198.9 88.2 199.5 87.5 200.2 87 C 201 86.5 201.9 86.2 202.8 86.2 C 203.5 86.2 204.1 86.4 204.6 86.7 C 205.2 87 205.6 87.3 205.9 87.8 C 205.94 87.81 205.9 82.2 205.9 82.2 L 207.9 82.2 L 207.9 97.9 L 206.1 97.9 Z M 200 92.2 C 200 93.7 200.3 94.8 200.9 95.5 C 201.5 96.2 202.2 96.6 203.1 96.6 C 203.9 96.6 204.6 96.2 205.2 95.5 C 205.8 94.8 206.1 93.8 206.1 92.4 C 206.1 90.8 205.8 89.7 205.2 88.9 C 204.6 88.2 203.9 87.8 203 87.8 C 202.1 87.8 201.4 88.2 200.8 88.9 C 200.2 89.6 200 90.7 200 92.2 Z M 217 97.9 L 217 86.5 L 218.7 86.5 C 218.7 86.5 218.73 88.22 218.7 88.2 C 219.2 87.4 219.6 86.9 220 86.6 C 220.3 86.4 220.8 86.2 221.2 86.2 C 221.9 86.2 222.5 86.4 223.2 86.9 C 223.2 86.9 222.5 88.7 222.5 88.7 C 222.1 88.4 221.6 88.2 221.1 88.2 C 220.7 88.2 220.3 88.4 220 88.6 C 219.6 88.9 219.4 89.2 219.2 89.7 C 219 90.4 218.9 91.1 218.9 91.9 C 218.93 91.93 218.9 97.9 218.9 97.9 L 217 97.9 Z M 232.1 94.2 C 232.1 94.2 234.1 94.5 234.1 94.5 C 233.8 95.6 233.2 96.6 232.4 97.2 C 231.5 97.8 230.5 98.2 229.1 98.2 C 227.5 98.2 226.1 97.6 225.2 96.6 C 224.2 95.6 223.7 94.2 223.7 92.3 C 223.7 90.4 224.2 88.9 225.2 87.8 C 226.2 86.8 227.4 86.2 229 86.2 C 230.5 86.2 231.8 86.8 232.8 87.8 C 233.7 88.8 234.2 90.3 234.2 92.2 C 234.2 92.3 234.2 92.5 234.2 92.7 C 234.2 92.7 225.7 92.7 225.7 92.7 C 225.8 93.9 226.1 94.9 226.8 95.6 C 227.4 96.2 228.2 96.6 229.1 96.6 C 229.9 96.6 230.5 96.4 231 96 C 231.5 95.6 231.9 95 232.1 94.2 Z M 225.8 91.1 C 225.8 91.1 232.2 91.1 232.2 91.1 C 232.1 90.1 231.8 89.4 231.4 88.9 C 230.8 88.2 230 87.8 229 87.8 C 228.2 87.8 227.4 88.1 226.8 88.7 C 226.2 89.3 225.9 90.1 225.8 91.1 Z M 236.6 102.3 L 236.6 86.5 L 238.3 86.5 C 238.3 86.5 238.34 87.98 238.3 88 C 238.8 87.4 239.2 87 239.7 86.7 C 240.3 86.4 240.9 86.2 241.6 86.2 C 242.6 86.2 243.5 86.5 244.2 87 C 245 87.5 245.5 88.2 245.9 89.1 C 246.3 90 246.5 91 246.5 92.1 C 246.5 93.3 246.3 94.3 245.9 95.3 C 245.4 96.2 244.8 96.9 244 97.4 C 243.2 97.9 242.4 98.2 241.5 98.2 C 240.9 98.2 240.3 98 239.8 97.8 C 239.3 97.5 238.8 97.1 238.5 96.7 C 238.51 96.72 238.5 102.3 238.5 102.3 L 236.6 102.3 Z M 238.3 92.3 C 238.3 93.7 238.6 94.8 239.2 95.5 C 239.8 96.2 240.5 96.6 241.4 96.6 C 242.2 96.6 243 96.2 243.6 95.5 C 244.2 94.8 244.5 93.6 244.5 92.1 C 244.5 90.6 244.2 89.6 243.6 88.8 C 243 88.1 242.3 87.8 241.5 87.8 C 240.6 87.8 239.9 88.1 239.3 88.9 C 238.6 89.7 238.3 90.8 238.3 92.3 Z M 248.1 92.2 C 248.1 90.1 248.7 88.5 249.9 87.5 C 250.8 86.7 252 86.2 253.4 86.2 C 255 86.2 256.3 86.8 257.3 87.8 C 258.3 88.8 258.8 90.2 258.8 92 C 258.8 93.5 258.6 94.7 258.1 95.5 C 257.7 96.3 257 97 256.2 97.5 C 255.4 97.9 254.4 98.2 253.4 98.2 C 251.8 98.2 250.6 97.6 249.6 96.6 C 248.6 95.6 248.1 94.1 248.1 92.2 Z M 250.1 92.2 C 250.1 93.7 250.4 94.8 251 95.5 C 251.7 96.2 252.5 96.6 253.4 96.6 C 254.4 96.6 255.2 96.2 255.8 95.5 C 256.5 94.7 256.8 93.6 256.8 92.1 C 256.8 90.7 256.5 89.7 255.8 88.9 C 255.2 88.2 254.4 87.8 253.4 87.8 C 252.5 87.8 251.7 88.2 251 88.9 C 250.4 89.6 250.1 90.7 250.1 92.2 Z M 261 97.9 L 261 86.5 L 262.8 86.5 C 262.8 86.5 262.76 88.22 262.8 88.2 C 263.2 87.4 263.6 86.9 264 86.6 C 264.4 86.4 264.8 86.2 265.2 86.2 C 265.9 86.2 266.5 86.4 267.2 86.9 C 267.2 86.9 266.6 88.7 266.6 88.7 C 266.1 88.4 265.6 88.2 265.1 88.2 C 264.7 88.2 264.3 88.4 264 88.6 C 263.7 88.9 263.4 89.2 263.3 89.7 C 263.1 90.4 263 91.1 263 91.9 C 262.96 91.93 263 97.9 263 97.9 L 261 97.9 Z M 271.7 96.2 C 272 96.2 272.2 96.2 272.6 96.2 C 272.6 96.2 272.9 97.9 272.9 97.9 C 272.3 98 271.8 98.1 271.4 98.1 C 270.7 98.1 270.2 97.9 269.8 97.7 C 269.4 97.5 269.1 97.2 269 96.8 C 268.8 96.5 268.7 95.7 268.7 94.6 C 268.73 94.56 268.7 88 268.7 88 L 267.3 88 L 267.3 86.5 L 268.7 86.5 L 268.7 83.7 L 270.6 82.5 L 270.6 86.5 L 272.6 86.5 L 272.6 88 L 270.6 88 C 270.6 88 270.65 94.67 270.6 94.7 C 270.6 95.2 270.7 95.6 270.8 95.7 C 270.8 95.9 270.9 96 271.1 96.1 C 271.2 96.2 271.5 96.2 271.7 96.2 C 271.7 96.2 271.7 96.2 271.7 96.2 Z M 274.5 84.4 L 274.5 82.2 L 276.4 82.2 L 276.4 84.4 L 274.5 84.4 Z M 274.5 97.9 L 274.5 86.5 L 276.4 86.5 L 276.4 97.9 L 274.5 97.9 Z M 279.4 97.9 L 279.4 86.5 L 281.1 86.5 C 281.1 86.5 281.11 88.12 281.1 88.1 C 281.9 86.9 283.2 86.2 284.7 86.2 C 285.4 86.2 286.1 86.4 286.6 86.6 C 287.2 86.9 287.6 87.2 287.9 87.6 C 288.2 88 288.4 88.5 288.5 89 C 288.6 89.4 288.6 90 288.6 90.9 C 288.64 90.89 288.6 97.9 288.6 97.9 L 286.7 97.9 C 286.7 97.9 286.71 90.96 286.7 91 C 286.7 90.2 286.6 89.6 286.5 89.2 C 286.3 88.8 286.1 88.5 285.7 88.3 C 285.3 88 284.9 87.9 284.3 87.9 C 283.5 87.9 282.8 88.2 282.2 88.7 C 281.6 89.2 281.3 90.2 281.3 91.7 C 281.31 91.67 281.3 97.9 281.3 97.9 L 279.4 97.9 Z M 291.3 98.8 C 291.3 98.8 293.1 99.1 293.1 99.1 C 293.2 99.7 293.4 100.1 293.8 100.4 C 294.3 100.8 294.9 100.9 295.8 100.9 C 296.6 100.9 297.3 100.8 297.8 100.4 C 298.3 100 298.6 99.5 298.8 98.9 C 298.9 98.5 299 97.7 299 96.4 C 298.1 97.4 297.1 97.9 295.8 97.9 C 294.2 97.9 293 97.3 292.2 96.2 C 291.3 95.1 290.9 93.7 290.9 92.1 C 290.9 91 291.1 90 291.5 89.1 C 291.9 88.2 292.4 87.5 293.2 87 C 293.9 86.5 294.8 86.2 295.8 86.2 C 297.2 86.2 298.3 86.8 299.1 87.9 C 299.14 87.87 299.1 86.5 299.1 86.5 L 300.9 86.5 C 300.9 86.5 300.92 96.36 300.9 96.4 C 300.9 98.1 300.7 99.4 300.4 100.1 C 300 100.9 299.4 101.5 298.7 101.9 C 297.9 102.3 296.9 102.5 295.8 102.5 C 294.4 102.5 293.3 102.2 292.5 101.6 C 291.6 101 291.2 100.1 291.3 98.8 Z M 292.9 92 C 292.9 93.5 293.2 94.6 293.7 95.3 C 294.3 96 295.1 96.3 296 96.3 C 296.9 96.3 297.6 96 298.2 95.3 C 298.8 94.6 299.1 93.5 299.1 92.1 C 299.1 90.7 298.8 89.6 298.2 88.9 C 297.6 88.2 296.8 87.8 295.9 87.8 C 295.1 87.8 294.4 88.2 293.8 88.9 C 293.2 89.6 292.9 90.6 292.9 92 Z M 317.8 97.9 C 317.6 97.5 317.5 97 317.4 96.5 C 316.7 97.1 316 97.5 315.3 97.8 C 314.7 98 314 98.2 313.2 98.2 C 311.9 98.2 311 97.9 310.3 97.2 C 309.6 96.6 309.3 95.8 309.3 94.9 C 309.3 94.3 309.4 93.8 309.7 93.4 C 309.9 92.9 310.3 92.5 310.7 92.3 C 311.1 92 311.6 91.8 312.1 91.6 C 312.5 91.5 313 91.4 313.8 91.3 C 315.4 91.1 316.5 90.9 317.2 90.7 C 317.2 90.4 317.2 90.2 317.2 90.2 C 317.2 89.4 317.1 88.8 316.7 88.5 C 316.2 88.1 315.5 87.8 314.5 87.8 C 313.6 87.8 312.9 88 312.5 88.3 C 312.1 88.6 311.7 89.2 311.5 90 C 311.5 90 309.6 89.8 309.6 89.8 C 309.8 88.9 310.1 88.3 310.5 87.8 C 310.9 87.3 311.4 86.9 312.2 86.6 C 312.9 86.4 313.8 86.2 314.8 86.2 C 315.8 86.2 316.5 86.4 317.2 86.6 C 317.8 86.8 318.2 87.1 318.5 87.4 C 318.8 87.8 319 88.2 319.1 88.8 C 319.2 89.1 319.2 89.7 319.2 90.5 C 319.2 90.5 319.2 93.1 319.2 93.1 C 319.2 94.9 319.2 96.1 319.3 96.5 C 319.4 97 319.6 97.5 319.8 97.9 C 319.81 97.9 317.8 97.9 317.8 97.9 C 317.8 97.9 317.79 97.9 317.8 97.9 Z M 317.2 92.2 C 316.5 92.5 315.5 92.7 314.1 92.9 C 313.3 93 312.7 93.2 312.4 93.3 C 312.1 93.4 311.8 93.6 311.6 93.9 C 311.5 94.2 311.4 94.5 311.4 94.8 C 311.4 95.4 311.6 95.8 311.9 96.1 C 312.3 96.5 312.9 96.6 313.7 96.6 C 314.4 96.6 315.1 96.5 315.6 96.2 C 316.2 95.8 316.7 95.4 316.9 94.8 C 317.1 94.4 317.2 93.7 317.2 92.9 C 317.2 92.9 317.2 92.2 317.2 92.2 Z M 322.2 97.9 L 322.2 86.5 L 323.9 86.5 C 323.9 86.5 323.93 88.12 323.9 88.1 C 324.8 86.9 326 86.2 327.6 86.2 C 328.2 86.2 328.9 86.4 329.5 86.6 C 330 86.9 330.5 87.2 330.8 87.6 C 331 88 331.2 88.5 331.4 89 C 331.4 89.4 331.5 90 331.5 90.9 C 331.46 90.89 331.5 97.9 331.5 97.9 L 329.5 97.9 C 329.5 97.9 329.53 90.96 329.5 91 C 329.5 90.2 329.5 89.6 329.3 89.2 C 329.2 88.8 328.9 88.5 328.5 88.3 C 328.1 88 327.7 87.9 327.2 87.9 C 326.3 87.9 325.6 88.2 325 88.7 C 324.4 89.2 324.1 90.2 324.1 91.7 C 324.12 91.67 324.1 97.9 324.1 97.9 L 322.2 97.9 Z M 341.8 97.9 C 341.8 97.9 341.83 96.46 341.8 96.5 C 341.1 97.6 340 98.2 338.6 98.2 C 337.7 98.2 336.9 97.9 336.1 97.4 C 335.4 96.9 334.8 96.2 334.4 95.3 C 333.9 94.4 333.7 93.4 333.7 92.2 C 333.7 91.1 333.9 90 334.3 89.1 C 334.7 88.2 335.2 87.5 336 87 C 336.8 86.5 337.6 86.2 338.6 86.2 C 339.2 86.2 339.9 86.4 340.4 86.7 C 340.9 87 341.4 87.3 341.7 87.8 C 341.7 87.81 341.7 82.2 341.7 82.2 L 343.6 82.2 L 343.6 97.9 L 341.8 97.9 Z M 335.7 92.2 C 335.7 93.7 336 94.8 336.6 95.5 C 337.3 96.2 338 96.6 338.8 96.6 C 339.7 96.6 340.4 96.2 341 95.5 C 341.6 94.8 341.9 93.8 341.9 92.4 C 341.9 90.8 341.6 89.7 341 88.9 C 340.4 88.2 339.6 87.8 338.7 87.8 C 337.9 87.8 337.2 88.2 336.6 88.9 C 336 89.6 335.7 90.7 335.7 92.2 Z " stroke="none" fill="#000"/>  </g>  <g id="Polygon7461">    <path d="M 108.8 43.5 L 101.6 63 L 96.9 63 L 89.7 43.5 L 93.9 43.5 L 99.3 59 L 104.6 43.5 L 108.8 43.5 Z M 113.1 45.6 C 112.5 45.6 111.9 45.4 111.4 45 C 111 44.5 110.7 44 110.7 43.3 C 110.7 42.7 111 42.1 111.4 41.7 C 111.9 41.3 112.5 41 113.1 41 C 113.8 41 114.4 41.3 114.9 41.7 C 115.3 42.1 115.5 42.7 115.5 43.3 C 115.5 44 115.3 44.5 114.9 45 C 114.4 45.4 113.8 45.6 113.1 45.6 C 113.1 45.6 113.1 45.6 113.1 45.6 Z M 115.1 47.5 L 115.1 63 L 111.2 63 L 111.2 47.5 L 115.1 47.5 Z M 124.9 63.3 C 123.6 63.3 122.5 63 121.5 62.6 C 120.4 62.1 119.7 61.5 119.1 60.7 C 118.5 59.9 118.2 59.1 118.1 58.1 C 118.1 58.1 122 58.1 122 58.1 C 122.1 58.7 122.4 59.2 122.9 59.6 C 123.4 60 124.1 60.2 124.8 60.2 C 125.6 60.2 126.2 60 126.6 59.7 C 127 59.4 127.2 59 127.2 58.6 C 127.2 58.1 127 57.7 126.5 57.4 C 125.9 57.2 125.1 56.9 124 56.6 C 122.8 56.3 121.9 56 121.2 55.7 C 120.4 55.4 119.8 55 119.3 54.4 C 118.7 53.8 118.5 52.9 118.5 51.9 C 118.5 51 118.7 50.2 119.2 49.5 C 119.7 48.8 120.4 48.3 121.3 47.9 C 122.3 47.4 123.3 47.2 124.6 47.2 C 126.4 47.2 127.9 47.7 129 48.6 C 130.1 49.5 130.7 50.8 130.8 52.4 C 130.8 52.4 127.1 52.4 127.1 52.4 C 127 51.7 126.8 51.3 126.3 50.9 C 125.9 50.5 125.2 50.3 124.5 50.3 C 123.8 50.3 123.2 50.5 122.8 50.7 C 122.5 51 122.3 51.4 122.3 51.8 C 122.3 52.4 122.5 52.7 123.1 53 C 123.6 53.3 124.4 53.6 125.5 53.8 C 126.6 54.1 127.5 54.4 128.3 54.7 C 129 55 129.6 55.5 130.2 56.1 C 130.7 56.7 131 57.5 131 58.6 C 131 59.5 130.7 60.3 130.2 61 C 129.7 61.7 129 62.2 128.1 62.6 C 127.2 63.1 126.1 63.3 124.9 63.3 C 124.9 63.3 124.9 63.3 124.9 63.3 Z M 148.8 47.5 L 148.8 63 L 144.9 63 C 144.9 63 144.89 61.04 144.9 61 C 144.4 61.7 143.7 62.2 142.9 62.6 C 142.1 63 141.2 63.2 140.3 63.2 C 139.1 63.2 138 62.9 137.1 62.4 C 136.1 61.9 135.4 61.2 134.9 60.2 C 134.3 59.2 134.1 58 134.1 56.6 C 134.06 56.59 134.1 47.5 134.1 47.5 L 138 47.5 C 138 47.5 137.98 56.03 138 56 C 138 57.3 138.3 58.2 138.9 58.9 C 139.5 59.5 140.4 59.9 141.4 59.9 C 142.5 59.9 143.4 59.5 144 58.9 C 144.6 58.2 144.9 57.3 144.9 56 C 144.89 56.03 144.9 47.5 144.9 47.5 L 148.8 47.5 Z M 151.7 55.2 C 151.7 53.6 152 52.2 152.6 51 C 153.3 49.8 154.1 48.9 155.2 48.2 C 156.3 47.6 157.5 47.2 158.8 47.2 C 159.9 47.2 161 47.5 161.8 47.9 C 162.7 48.4 163.4 49 163.9 49.7 C 163.91 49.7 163.9 47.5 163.9 47.5 L 167.9 47.5 L 167.9 63 L 163.9 63 C 163.9 63 163.91 60.73 163.9 60.7 C 163.4 61.5 162.7 62.1 161.8 62.5 C 160.9 63 159.9 63.3 158.8 63.3 C 157.4 63.3 156.3 62.9 155.2 62.2 C 154.1 61.6 153.3 60.6 152.6 59.4 C 152 58.2 151.7 56.8 151.7 55.2 C 151.7 55.2 151.7 55.2 151.7 55.2 Z M 163.9 55.2 C 163.9 54.3 163.7 53.5 163.3 52.8 C 163 52.1 162.5 51.6 161.8 51.2 C 161.2 50.9 160.5 50.7 159.8 50.7 C 159.1 50.7 158.4 50.9 157.8 51.2 C 157.2 51.6 156.7 52.1 156.3 52.8 C 155.9 53.4 155.7 54.3 155.7 55.2 C 155.7 56.1 155.9 56.9 156.3 57.6 C 156.7 58.3 157.2 58.9 157.8 59.2 C 158.4 59.6 159.1 59.8 159.8 59.8 C 160.5 59.8 161.2 59.6 161.8 59.3 C 162.5 58.9 163 58.4 163.3 57.7 C 163.7 57 163.9 56.2 163.9 55.2 C 163.9 55.2 163.9 55.2 163.9 55.2 Z M 175.6 42.3 L 175.6 63 L 171.7 63 L 171.7 42.3 L 175.6 42.3 Z M 181.5 45.6 C 180.8 45.6 180.2 45.4 179.7 45 C 179.3 44.5 179.1 44 179.1 43.3 C 179.1 42.7 179.3 42.1 179.7 41.7 C 180.2 41.3 180.8 41 181.5 41 C 182.2 41 182.7 41.3 183.2 41.7 C 183.6 42.1 183.9 42.7 183.9 43.3 C 183.9 44 183.6 44.5 183.2 45 C 182.7 45.4 182.2 45.6 181.5 45.6 C 181.5 45.6 181.5 45.6 181.5 45.6 Z M 183.4 47.5 L 183.4 63 L 179.5 63 L 179.5 47.5 L 183.4 47.5 Z M 193.2 63.3 C 191.9 63.3 190.8 63 189.8 62.6 C 188.8 62.1 188 61.5 187.4 60.7 C 186.8 59.9 186.5 59.1 186.4 58.1 C 186.4 58.1 190.4 58.1 190.4 58.1 C 190.4 58.7 190.7 59.2 191.2 59.6 C 191.8 60 192.4 60.2 193.2 60.2 C 193.9 60.2 194.5 60 194.9 59.7 C 195.3 59.4 195.5 59 195.5 58.6 C 195.5 58.1 195.3 57.7 194.8 57.4 C 194.3 57.2 193.4 56.9 192.3 56.6 C 191.2 56.3 190.2 56 189.5 55.7 C 188.7 55.4 188.1 55 187.6 54.4 C 187 53.8 186.8 52.9 186.8 51.9 C 186.8 51 187 50.2 187.5 49.5 C 188 48.8 188.7 48.3 189.7 47.9 C 190.6 47.4 191.7 47.2 192.9 47.2 C 194.8 47.2 196.2 47.7 197.3 48.6 C 198.4 49.5 199 50.8 199.2 52.4 C 199.2 52.4 195.4 52.4 195.4 52.4 C 195.3 51.7 195.1 51.3 194.6 50.9 C 194.2 50.5 193.6 50.3 192.8 50.3 C 192.1 50.3 191.5 50.5 191.2 50.7 C 190.8 51 190.6 51.4 190.6 51.8 C 190.6 52.4 190.9 52.7 191.4 53 C 191.9 53.3 192.7 53.6 193.8 53.8 C 194.9 54.1 195.9 54.4 196.6 54.7 C 197.3 55 197.9 55.5 198.5 56.1 C 199 56.7 199.3 57.5 199.3 58.6 C 199.3 59.5 199 60.3 198.6 61 C 198.1 61.7 197.4 62.2 196.4 62.6 C 195.5 63.1 194.4 63.3 193.2 63.3 C 193.2 63.3 193.2 63.3 193.2 63.3 Z M 201.5 55.2 C 201.5 53.6 201.8 52.2 202.4 51 C 203.1 49.8 203.9 48.9 205 48.2 C 206.1 47.6 207.3 47.2 208.6 47.2 C 209.8 47.2 210.8 47.5 211.6 47.9 C 212.5 48.4 213.2 49 213.7 49.7 C 213.72 49.7 213.7 47.5 213.7 47.5 L 217.7 47.5 L 217.7 63 L 213.7 63 C 213.7 63 213.72 60.73 213.7 60.7 C 213.2 61.5 212.5 62.1 211.6 62.5 C 210.7 63 209.7 63.3 208.6 63.3 C 207.3 63.3 206.1 62.9 205 62.2 C 203.9 61.6 203.1 60.6 202.4 59.4 C 201.8 58.2 201.5 56.8 201.5 55.2 C 201.5 55.2 201.5 55.2 201.5 55.2 Z M 213.7 55.2 C 213.7 54.3 213.5 53.5 213.2 52.8 C 212.8 52.1 212.3 51.6 211.6 51.2 C 211 50.9 210.3 50.7 209.6 50.7 C 208.9 50.7 208.2 50.9 207.6 51.2 C 207 51.6 206.5 52.1 206.1 52.8 C 205.7 53.4 205.5 54.3 205.5 55.2 C 205.5 56.1 205.7 56.9 206.1 57.6 C 206.5 58.3 207 58.9 207.6 59.2 C 208.2 59.6 208.9 59.8 209.6 59.8 C 210.3 59.8 211 59.6 211.6 59.3 C 212.3 58.9 212.8 58.4 213.2 57.7 C 213.5 57 213.7 56.2 213.7 55.2 C 213.7 55.2 213.7 55.2 213.7 55.2 Z M 226.1 50.7 C 226.1 50.7 226.06 58.21 226.1 58.2 C 226.1 58.7 226.2 59.1 226.4 59.3 C 226.7 59.6 227.1 59.7 227.7 59.7 C 227.72 59.7 229.5 59.7 229.5 59.7 L 229.5 63 C 229.5 63 227.07 63 227.1 63 C 223.8 63 222.1 61.4 222.1 58.2 C 222.12 58.18 222.1 50.7 222.1 50.7 L 220.3 50.7 L 220.3 47.5 L 222.1 47.5 L 222.1 43.7 L 226.1 43.7 L 226.1 47.5 L 229.5 47.5 L 229.5 50.7 L 226.1 50.7 Z M 234.4 45.6 C 233.7 45.6 233.1 45.4 232.6 45 C 232.2 44.5 231.9 44 231.9 43.3 C 231.9 42.7 232.2 42.1 232.6 41.7 C 233.1 41.3 233.7 41 234.4 41 C 235 41 235.6 41.3 236.1 41.7 C 236.5 42.1 236.8 42.7 236.8 43.3 C 236.8 44 236.5 44.5 236.1 45 C 235.6 45.4 235 45.6 234.4 45.6 C 234.4 45.6 234.4 45.6 234.4 45.6 Z M 236.3 47.5 L 236.3 63 L 232.4 63 L 232.4 47.5 L 236.3 47.5 Z M 247 63.3 C 245.5 63.3 244.2 62.9 243 62.3 C 241.8 61.6 240.9 60.7 240.2 59.4 C 239.5 58.2 239.2 56.8 239.2 55.2 C 239.2 53.7 239.5 52.3 240.2 51 C 240.9 49.8 241.9 48.9 243.1 48.2 C 244.3 47.6 245.7 47.2 247.1 47.2 C 248.6 47.2 250 47.6 251.2 48.2 C 252.4 48.9 253.4 49.8 254.1 51 C 254.8 52.3 255.1 53.7 255.1 55.2 C 255.1 56.8 254.8 58.2 254.1 59.4 C 253.3 60.7 252.4 61.6 251.1 62.3 C 249.9 62.9 248.5 63.3 247 63.3 C 247 63.3 247 63.3 247 63.3 Z M 247 59.8 C 247.7 59.8 248.4 59.7 249 59.3 C 249.7 59 250.2 58.5 250.5 57.8 C 250.9 57.1 251.1 56.2 251.1 55.2 C 251.1 53.8 250.7 52.6 249.9 51.8 C 249.2 51 248.2 50.7 247.1 50.7 C 246 50.7 245 51 244.3 51.8 C 243.5 52.6 243.1 53.8 243.1 55.2 C 243.1 56.7 243.5 57.9 244.3 58.6 C 245 59.4 245.9 59.8 247 59.8 C 247 59.8 247 59.8 247 59.8 Z M 266.6 47.3 C 268.5 47.3 269.9 47.8 271.1 49 C 272.2 50.2 272.8 51.8 272.8 53.9 C 272.8 53.9 272.8 63 272.8 63 L 268.9 63 C 268.9 63 268.88 54.43 268.9 54.4 C 268.9 53.2 268.6 52.3 268 51.6 C 267.3 50.9 266.5 50.6 265.4 50.6 C 264.3 50.6 263.5 50.9 262.9 51.6 C 262.2 52.3 261.9 53.2 261.9 54.4 C 261.93 54.43 261.9 63 261.9 63 L 258 63 L 258 47.5 L 261.9 47.5 C 261.9 47.5 261.93 49.42 261.9 49.4 C 262.5 48.7 263.1 48.2 263.9 47.8 C 264.7 47.5 265.6 47.3 266.6 47.3 C 266.6 47.3 266.6 47.3 266.6 47.3 Z " stroke="none" fill="#e4007e"/>  </g>  <g id="Polygon7460">    <path d="M 78.8 13 L 78.8 17.9 L 85.3 17.9 L 85.3 21 L 78.8 21 L 78.8 26.2 L 86.2 26.2 L 86.2 29.4 L 74.8 29.4 L 74.8 9.8 L 86.2 9.8 L 86.2 13 L 78.8 13 Z M 98.3 13.7 C 100.2 13.7 101.7 14.2 102.8 15.4 C 103.9 16.6 104.5 18.2 104.5 20.3 C 104.52 20.3 104.5 29.4 104.5 29.4 L 100.6 29.4 C 100.6 29.4 100.6 20.83 100.6 20.8 C 100.6 19.6 100.3 18.7 99.7 18 C 99.1 17.3 98.2 17 97.2 17 C 96.1 17 95.2 17.3 94.6 18 C 94 18.7 93.7 19.6 93.7 20.8 C 93.65 20.83 93.7 29.4 93.7 29.4 L 89.7 29.4 L 89.7 13.9 L 93.7 13.9 C 93.7 13.9 93.65 15.82 93.7 15.8 C 94.2 15.1 94.8 14.6 95.7 14.2 C 96.5 13.9 97.4 13.7 98.3 13.7 C 98.3 13.7 98.3 13.7 98.3 13.7 Z M 117 13.7 C 118.2 13.7 119.2 13.9 120.1 14.4 C 121 14.9 121.7 15.7 122.3 16.7 C 122.8 17.7 123 18.9 123 20.3 C 123.03 20.3 123 29.4 123 29.4 L 119.1 29.4 C 119.1 29.4 119.11 20.83 119.1 20.8 C 119.1 19.6 118.8 18.7 118.2 18 C 117.6 17.3 116.7 17 115.7 17 C 114.6 17 113.7 17.3 113.1 18 C 112.5 18.7 112.2 19.6 112.2 20.8 C 112.16 20.83 112.2 29.4 112.2 29.4 L 108.2 29.4 L 108.2 8.7 L 112.2 8.7 C 112.2 8.7 112.16 15.82 112.2 15.8 C 112.7 15.1 113.3 14.6 114.2 14.2 C 115 13.9 116 13.7 117 13.7 C 117 13.7 117 13.7 117 13.7 Z M 125.7 21.6 C 125.7 20 126.1 18.6 126.7 17.4 C 127.3 16.2 128.2 15.3 129.2 14.6 C 130.3 14 131.5 13.6 132.8 13.6 C 134 13.6 135 13.9 135.9 14.3 C 136.7 14.8 137.4 15.4 137.9 16.1 C 137.95 16.1 137.9 13.9 137.9 13.9 L 141.9 13.9 L 141.9 29.4 L 137.9 29.4 C 137.9 29.4 137.95 27.13 137.9 27.1 C 137.4 27.9 136.7 28.5 135.9 28.9 C 135 29.4 134 29.7 132.8 29.7 C 131.5 29.7 130.3 29.3 129.2 28.6 C 128.2 28 127.3 27 126.7 25.8 C 126.1 24.6 125.7 23.2 125.7 21.6 C 125.7 21.6 125.7 21.6 125.7 21.6 Z M 137.9 21.6 C 137.9 20.7 137.8 19.9 137.4 19.2 C 137 18.5 136.5 18 135.9 17.6 C 135.2 17.3 134.6 17.1 133.8 17.1 C 133.1 17.1 132.4 17.3 131.8 17.6 C 131.2 18 130.7 18.5 130.3 19.2 C 129.9 19.8 129.7 20.7 129.7 21.6 C 129.7 22.5 129.9 23.3 130.3 24 C 130.7 24.7 131.2 25.3 131.8 25.6 C 132.5 26 133.1 26.2 133.8 26.2 C 134.6 26.2 135.2 26 135.9 25.7 C 136.5 25.3 137 24.8 137.4 24.1 C 137.8 23.4 137.9 22.6 137.9 21.6 C 137.9 21.6 137.9 21.6 137.9 21.6 Z M 154.3 13.7 C 156.2 13.7 157.7 14.2 158.8 15.4 C 159.9 16.6 160.5 18.2 160.5 20.3 C 160.52 20.3 160.5 29.4 160.5 29.4 L 156.6 29.4 C 156.6 29.4 156.6 20.83 156.6 20.8 C 156.6 19.6 156.3 18.7 155.7 18 C 155.1 17.3 154.2 17 153.2 17 C 152.1 17 151.2 17.3 150.6 18 C 150 18.7 149.7 19.6 149.7 20.8 C 149.65 20.83 149.7 29.4 149.7 29.4 L 145.7 29.4 L 145.7 13.9 L 149.7 13.9 C 149.7 13.9 149.65 15.82 149.7 15.8 C 150.2 15.1 150.8 14.6 151.7 14.2 C 152.5 13.9 153.4 13.7 154.3 13.7 C 154.3 13.7 154.3 13.7 154.3 13.7 Z M 163.2 21.6 C 163.2 20 163.6 18.6 164.2 17.4 C 164.9 16.2 165.8 15.3 166.9 14.6 C 168.1 14 169.4 13.6 170.9 13.6 C 172.8 13.6 174.4 14.1 175.7 15.1 C 176.9 16 177.8 17.4 178.2 19.1 C 178.2 19.1 174 19.1 174 19.1 C 173.8 18.5 173.4 17.9 172.9 17.5 C 172.3 17.2 171.7 17 170.9 17 C 169.8 17 168.9 17.4 168.2 18.2 C 167.6 19 167.2 20.2 167.2 21.6 C 167.2 23.1 167.6 24.3 168.2 25.1 C 168.9 25.9 169.8 26.3 170.9 26.3 C 172.5 26.3 173.5 25.6 174 24.2 C 174 24.2 178.2 24.2 178.2 24.2 C 177.8 25.8 176.9 27.2 175.7 28.2 C 174.4 29.2 172.8 29.7 170.9 29.7 C 169.4 29.7 168.1 29.3 166.9 28.7 C 165.8 28 164.9 27.1 164.2 25.9 C 163.6 24.7 163.2 23.2 163.2 21.6 C 163.2 21.6 163.2 21.6 163.2 21.6 Z M 195.5 21.3 C 195.5 21.9 195.5 22.4 195.4 22.8 C 195.4 22.8 184.1 22.8 184.1 22.8 C 184.2 23.9 184.6 24.8 185.2 25.5 C 185.9 26.1 186.8 26.4 187.8 26.4 C 189.2 26.4 190.3 25.8 190.9 24.5 C 190.9 24.5 195.1 24.5 195.1 24.5 C 194.7 26 193.8 27.2 192.5 28.2 C 191.3 29.2 189.7 29.7 187.9 29.7 C 186.4 29.7 185 29.3 183.9 28.7 C 182.7 28 181.7 27.1 181.1 25.8 C 180.4 24.6 180.1 23.2 180.1 21.6 C 180.1 20 180.4 18.6 181.1 17.4 C 181.7 16.2 182.6 15.3 183.8 14.6 C 185 14 186.3 13.6 187.9 13.6 C 189.3 13.6 190.7 14 191.8 14.6 C 193 15.2 193.9 16.1 194.6 17.3 C 195.2 18.5 195.5 19.8 195.5 21.3 C 195.5 21.3 195.5 21.3 195.5 21.3 Z M 191.5 20.2 C 191.4 19.2 191.1 18.4 190.4 17.8 C 189.7 17.2 188.8 16.9 187.8 16.9 C 186.8 16.9 186 17.1 185.3 17.7 C 184.6 18.3 184.2 19.1 184.1 20.2 C 184.1 20.2 191.5 20.2 191.5 20.2 Z M 197.4 21.6 C 197.4 20 197.7 18.6 198.3 17.4 C 198.9 16.2 199.8 15.3 200.9 14.6 C 201.9 14 203.2 13.6 204.5 13.6 C 205.5 13.6 206.4 13.9 207.4 14.3 C 208.3 14.7 209 15.3 209.5 16 C 209.54 16.04 209.5 8.7 209.5 8.7 L 213.5 8.7 L 213.5 29.4 L 209.5 29.4 C 209.5 29.4 209.54 27.1 209.5 27.1 C 209.1 27.9 208.4 28.5 207.5 29 C 206.6 29.4 205.6 29.7 204.4 29.7 C 203.1 29.7 201.9 29.3 200.9 28.6 C 199.8 28 198.9 27 198.3 25.8 C 197.7 24.6 197.4 23.2 197.4 21.6 C 197.4 21.6 197.4 21.6 197.4 21.6 Z M 209.6 21.6 C 209.6 20.7 209.4 19.9 209 19.2 C 208.6 18.5 208.1 18 207.5 17.6 C 206.9 17.3 206.2 17.1 205.5 17.1 C 204.7 17.1 204.1 17.3 203.4 17.6 C 202.8 18 202.3 18.5 201.9 19.2 C 201.6 19.8 201.4 20.7 201.4 21.6 C 201.4 22.5 201.6 23.3 201.9 24 C 202.3 24.7 202.8 25.3 203.5 25.6 C 204.1 26 204.7 26.2 205.5 26.2 C 206.2 26.2 206.9 26 207.5 25.7 C 208.1 25.3 208.6 24.8 209 24.1 C 209.4 23.4 209.6 22.6 209.6 21.6 C 209.6 21.6 209.6 21.6 209.6 21.6 Z M 230.9 9.9 C 232.9 9.9 234.7 10.3 236.3 11.1 C 237.8 11.9 239 13 239.9 14.5 C 240.7 16 241.2 17.7 241.2 19.7 C 241.2 21.6 240.7 23.3 239.9 24.8 C 239 26.3 237.8 27.4 236.3 28.2 C 234.7 29 232.9 29.4 230.9 29.4 C 230.85 29.4 224 29.4 224 29.4 L 224 9.9 L 230.9 9.9 C 230.9 9.9 230.85 9.86 230.9 9.9 Z M 230.7 26.1 C 232.8 26.1 234.4 25.5 235.5 24.4 C 236.6 23.3 237.2 21.7 237.2 19.7 C 237.2 17.6 236.6 16 235.5 14.9 C 234.4 13.7 232.8 13.2 230.7 13.2 C 230.71 13.16 227.9 13.2 227.9 13.2 L 227.9 26.1 L 230.7 26.1 C 230.7 26.1 230.71 26.07 230.7 26.1 Z M 243.1 21.6 C 243.1 20 243.4 18.6 244 17.4 C 244.7 16.2 245.5 15.3 246.6 14.6 C 247.6 14 248.8 13.6 250.2 13.6 C 251.3 13.6 252.3 13.9 253.2 14.3 C 254.1 14.8 254.8 15.4 255.3 16.1 C 255.3 16.1 255.3 13.9 255.3 13.9 L 259.2 13.9 L 259.2 29.4 L 255.3 29.4 C 255.3 29.4 255.3 27.13 255.3 27.1 C 254.8 27.9 254.1 28.5 253.2 28.9 C 252.3 29.4 251.3 29.7 250.1 29.7 C 248.8 29.7 247.6 29.3 246.6 28.6 C 245.5 28 244.7 27 244 25.8 C 243.4 24.6 243.1 23.2 243.1 21.6 C 243.1 21.6 243.1 21.6 243.1 21.6 Z M 255.3 21.6 C 255.3 20.7 255.1 19.9 254.7 19.2 C 254.4 18.5 253.9 18 253.2 17.6 C 252.6 17.3 251.9 17.1 251.2 17.1 C 250.5 17.1 249.8 17.3 249.2 17.6 C 248.5 18 248 18.5 247.7 19.2 C 247.3 19.8 247.1 20.7 247.1 21.6 C 247.1 22.5 247.3 23.3 247.7 24 C 248 24.7 248.6 25.3 249.2 25.6 C 249.8 26 250.5 26.2 251.2 26.2 C 251.9 26.2 252.6 26 253.2 25.7 C 253.9 25.3 254.4 24.8 254.7 24.1 C 255.1 23.4 255.3 22.6 255.3 21.6 C 255.3 21.6 255.3 21.6 255.3 21.6 Z M 267.6 17.1 C 267.6 17.1 267.64 24.61 267.6 24.6 C 267.6 25.1 267.8 25.5 268 25.7 C 268.3 26 268.7 26.1 269.3 26.1 C 269.3 26.1 271.1 26.1 271.1 26.1 L 271.1 29.4 C 271.1 29.4 268.65 29.4 268.7 29.4 C 265.3 29.4 263.7 27.8 263.7 24.6 C 263.7 24.58 263.7 17.1 263.7 17.1 L 261.8 17.1 L 261.8 13.9 L 263.7 13.9 L 263.7 10.1 L 267.6 10.1 L 267.6 13.9 L 271.1 13.9 L 271.1 17.1 L 267.6 17.1 Z M 272.9 21.6 C 272.9 20 273.2 18.6 273.9 17.4 C 274.5 16.2 275.3 15.3 276.4 14.6 C 277.5 14 278.7 13.6 280 13.6 C 281.2 13.6 282.2 13.9 283.1 14.3 C 283.9 14.8 284.6 15.4 285.1 16.1 C 285.14 16.1 285.1 13.9 285.1 13.9 L 289.1 13.9 L 289.1 29.4 L 285.1 29.4 C 285.1 29.4 285.14 27.13 285.1 27.1 C 284.6 27.9 283.9 28.5 283.1 28.9 C 282.2 29.4 281.1 29.7 280 29.7 C 278.7 29.7 277.5 29.3 276.4 28.6 C 275.3 28 274.5 27 273.9 25.8 C 273.2 24.6 272.9 23.2 272.9 21.6 C 272.9 21.6 272.9 21.6 272.9 21.6 Z M 285.1 21.6 C 285.1 20.7 285 19.9 284.6 19.2 C 284.2 18.5 283.7 18 283.1 17.6 C 282.4 17.3 281.8 17.1 281 17.1 C 280.3 17.1 279.6 17.3 279 17.6 C 278.4 18 277.9 18.5 277.5 19.2 C 277.1 19.8 276.9 20.7 276.9 21.6 C 276.9 22.5 277.1 23.3 277.5 24 C 277.9 24.7 278.4 25.3 279 25.6 C 279.7 26 280.3 26.2 281 26.2 C 281.8 26.2 282.4 26 283.1 25.7 C 283.7 25.3 284.2 24.8 284.6 24.1 C 285 23.4 285.1 22.6 285.1 21.6 C 285.1 21.6 285.1 21.6 285.1 21.6 Z " stroke="none" fill="#e4007e"/>  </g></svg>