<?xml version="1.0" standalone="no"?><!DOCTYPE svg PUBLIC "-//W3C//DTD SVG 1.1//EN" "http://www.w3.org/Graphics/SVG/1.1/DTD/svg11.dtd"><svg xmlns="http://www.w3.org/2000/svg" version="1.1" width="364px" height="136.6px" viewBox="0 -2 364 136.6" style="top:-2px">  <desc>AI Assistants Used for prompt engineering, idea generation, summarising, documentation, and decision making.</desc>  <defs/>  <g id="Polygon7735">    <path d="M 8.9 117.1 C 8.9 117.1 8.85 115.66 8.9 115.7 C 8.1 116.8 7.1 117.4 5.7 117.4 C 4.8 117.4 3.9 117.1 3.2 116.6 C 2.4 116.1 1.8 115.4 1.4 114.5 C 1 113.6 0.8 112.6 0.8 111.4 C 0.8 110.3 0.9 109.2 1.3 108.3 C 1.7 107.4 2.3 106.7 3 106.2 C 3.8 105.7 4.6 105.4 5.6 105.4 C 6.3 105.4 6.9 105.6 7.4 105.9 C 7.9 106.2 8.4 106.5 8.7 107 C 8.72 107.01 8.7 101.4 8.7 101.4 L 10.6 101.4 L 10.6 117.1 L 8.9 117.1 Z M 2.7 111.4 C 2.7 112.9 3 114 3.7 114.7 C 4.3 115.4 5 115.8 5.8 115.8 C 6.7 115.8 7.4 115.4 8 114.7 C 8.6 114 8.9 113 8.9 111.6 C 8.9 110 8.6 108.9 8 108.1 C 7.4 107.4 6.6 107 5.8 107 C 4.9 107 4.2 107.4 3.6 108.1 C 3 108.8 2.7 109.9 2.7 111.4 Z M 13 111.4 C 13 109.3 13.6 107.7 14.7 106.7 C 15.7 105.9 16.9 105.4 18.3 105.4 C 19.9 105.4 21.2 106 22.2 107 C 23.2 108 23.7 109.4 23.7 111.2 C 23.7 112.7 23.4 113.9 23 114.7 C 22.6 115.5 21.9 116.2 21.1 116.7 C 20.2 117.1 19.3 117.4 18.3 117.4 C 16.7 117.4 15.4 116.8 14.4 115.8 C 13.5 114.8 13 113.3 13 111.4 Z M 15 111.4 C 15 112.9 15.3 114 15.9 114.7 C 16.5 115.4 17.3 115.8 18.3 115.8 C 19.3 115.8 20.1 115.4 20.7 114.7 C 21.3 113.9 21.7 112.8 21.7 111.3 C 21.7 109.9 21.3 108.9 20.7 108.1 C 20.1 107.4 19.3 107 18.3 107 C 17.3 107 16.5 107.4 15.9 108.1 C 15.3 108.8 15 109.9 15 111.4 Z M 33.4 112.9 C 33.4 112.9 35.3 113.2 35.3 113.2 C 35.1 114.5 34.5 115.5 33.7 116.2 C 32.8 117 31.8 117.4 30.5 117.4 C 29 117.4 27.7 116.9 26.8 115.8 C 25.8 114.8 25.3 113.3 25.3 111.4 C 25.3 110.2 25.5 109.1 25.9 108.2 C 26.4 107.3 27 106.6 27.8 106.1 C 28.6 105.7 29.5 105.4 30.5 105.4 C 31.8 105.4 32.8 105.8 33.6 106.4 C 34.4 107 34.9 107.9 35.1 109 C 35.1 109 33.2 109.3 33.2 109.3 C 33 108.6 32.7 108 32.3 107.6 C 31.8 107.2 31.2 107 30.6 107 C 29.6 107 28.8 107.4 28.2 108.1 C 27.6 108.8 27.3 109.9 27.3 111.4 C 27.3 112.9 27.6 114 28.2 114.7 C 28.8 115.4 29.6 115.8 30.5 115.8 C 31.3 115.8 31.9 115.5 32.4 115.1 C 32.9 114.6 33.2 113.9 33.4 112.9 Z M 44.4 117.1 C 44.4 117.1 44.4 115.43 44.4 115.4 C 43.5 116.7 42.3 117.4 40.8 117.4 C 40.1 117.4 39.5 117.2 38.9 117 C 38.3 116.7 37.9 116.4 37.6 116 C 37.3 115.6 37.1 115.1 37 114.6 C 36.9 114.2 36.9 113.6 36.9 112.8 C 36.88 112.76 36.9 105.7 36.9 105.7 L 38.8 105.7 C 38.8 105.7 38.81 112.02 38.8 112 C 38.8 113 38.9 113.7 38.9 114.1 C 39.1 114.6 39.3 115 39.7 115.3 C 40.1 115.6 40.6 115.7 41.2 115.7 C 41.7 115.7 42.3 115.5 42.8 115.3 C 43.3 115 43.7 114.5 43.9 114 C 44.1 113.5 44.2 112.8 44.2 111.8 C 44.19 111.81 44.2 105.7 44.2 105.7 L 46.1 105.7 L 46.1 117.1 L 44.4 117.1 Z M 49.2 117.1 L 49.2 105.7 L 50.9 105.7 C 50.9 105.7 50.89 107.3 50.9 107.3 C 51.2 106.7 51.7 106.3 52.3 105.9 C 52.9 105.6 53.6 105.4 54.3 105.4 C 55.2 105.4 55.9 105.6 56.4 106 C 57 106.3 57.3 106.8 57.6 107.4 C 58.5 106.1 59.6 105.4 61.1 105.4 C 62.2 105.4 63.1 105.8 63.7 106.4 C 64.3 107 64.6 108 64.6 109.3 C 64.61 109.27 64.6 117.1 64.6 117.1 L 62.7 117.1 C 62.7 117.1 62.69 109.92 62.7 109.9 C 62.7 109.1 62.6 108.6 62.5 108.2 C 62.4 107.9 62.2 107.6 61.8 107.4 C 61.5 107.2 61.1 107.1 60.7 107.1 C 59.9 107.1 59.2 107.4 58.7 107.9 C 58.1 108.4 57.9 109.3 57.9 110.5 C 57.87 110.48 57.9 117.1 57.9 117.1 L 55.9 117.1 C 55.9 117.1 55.93 109.69 55.9 109.7 C 55.9 108.8 55.8 108.2 55.5 107.8 C 55.1 107.3 54.6 107.1 53.9 107.1 C 53.4 107.1 52.9 107.3 52.4 107.5 C 51.9 107.8 51.6 108.2 51.4 108.8 C 51.2 109.4 51.1 110.1 51.1 111.2 C 51.09 111.18 51.1 117.1 51.1 117.1 L 49.2 117.1 Z M 75.3 113.4 C 75.3 113.4 77.3 113.7 77.3 113.7 C 77 114.8 76.4 115.8 75.5 116.4 C 74.7 117 73.6 117.4 72.3 117.4 C 70.6 117.4 69.3 116.8 68.3 115.8 C 67.3 114.8 66.8 113.4 66.8 111.5 C 66.8 109.6 67.3 108.1 68.3 107 C 69.3 106 70.6 105.4 72.2 105.4 C 73.7 105.4 74.9 106 75.9 107 C 76.9 108 77.4 109.5 77.4 111.4 C 77.4 111.5 77.4 111.7 77.3 111.9 C 77.3 111.9 68.8 111.9 68.8 111.9 C 68.9 113.1 69.3 114.1 69.9 114.8 C 70.5 115.4 71.3 115.8 72.3 115.8 C 73 115.8 73.6 115.6 74.1 115.2 C 74.6 114.8 75 114.2 75.3 113.4 Z M 68.9 110.3 C 68.9 110.3 75.3 110.3 75.3 110.3 C 75.2 109.3 75 108.6 74.6 108.1 C 74 107.4 73.2 107 72.2 107 C 71.3 107 70.6 107.3 69.9 107.9 C 69.3 108.5 69 109.3 68.9 110.3 Z M 79.7 117.1 L 79.7 105.7 L 81.5 105.7 C 81.5 105.7 81.46 107.32 81.5 107.3 C 82.3 106.1 83.5 105.4 85.1 105.4 C 85.8 105.4 86.4 105.6 87 105.8 C 87.6 106.1 88 106.4 88.3 106.8 C 88.6 107.2 88.8 107.7 88.9 108.2 C 89 108.6 89 109.2 89 110.1 C 88.99 110.09 89 117.1 89 117.1 L 87.1 117.1 C 87.1 117.1 87.05 110.16 87.1 110.2 C 87.1 109.4 87 108.8 86.8 108.4 C 86.7 108 86.4 107.7 86 107.5 C 85.6 107.2 85.2 107.1 84.7 107.1 C 83.9 107.1 83.1 107.4 82.5 107.9 C 82 108.4 81.7 109.4 81.7 110.9 C 81.65 110.87 81.7 117.1 81.7 117.1 L 79.7 117.1 Z M 95.3 115.4 C 95.5 115.4 95.8 115.4 96.2 115.4 C 96.2 115.4 96.5 117.1 96.5 117.1 C 95.9 117.2 95.4 117.3 95 117.3 C 94.3 117.3 93.7 117.1 93.4 116.9 C 93 116.7 92.7 116.4 92.5 116 C 92.4 115.7 92.3 114.9 92.3 113.8 C 92.31 113.76 92.3 107.2 92.3 107.2 L 90.9 107.2 L 90.9 105.7 L 92.3 105.7 L 92.3 102.9 L 94.2 101.7 L 94.2 105.7 L 96.2 105.7 L 96.2 107.2 L 94.2 107.2 C 94.2 107.2 94.23 113.87 94.2 113.9 C 94.2 114.4 94.3 114.8 94.3 114.9 C 94.4 115.1 94.5 115.2 94.7 115.3 C 94.8 115.4 95 115.4 95.3 115.4 C 95.3 115.4 95.3 115.4 95.3 115.4 Z M 105.9 117.1 C 105.7 116.7 105.6 116.2 105.5 115.7 C 104.8 116.3 104.1 116.7 103.4 117 C 102.8 117.2 102.1 117.4 101.3 117.4 C 100.1 117.4 99.1 117.1 98.4 116.4 C 97.7 115.8 97.4 115 97.4 114.1 C 97.4 113.5 97.5 113 97.8 112.6 C 98 112.1 98.4 111.7 98.8 111.5 C 99.2 111.2 99.7 111 100.2 110.8 C 100.6 110.7 101.1 110.6 101.9 110.5 C 103.5 110.3 104.6 110.1 105.3 109.9 C 105.4 109.6 105.4 109.4 105.4 109.4 C 105.4 108.6 105.2 108 104.8 107.7 C 104.3 107.3 103.6 107 102.6 107 C 101.7 107 101 107.2 100.6 107.5 C 100.2 107.8 99.8 108.4 99.6 109.2 C 99.6 109.2 97.7 109 97.7 109 C 97.9 108.1 98.2 107.5 98.6 107 C 99 106.5 99.6 106.1 100.3 105.8 C 101 105.6 101.9 105.4 102.9 105.4 C 103.9 105.4 104.7 105.6 105.3 105.8 C 105.9 106 106.3 106.3 106.6 106.6 C 106.9 107 107.1 107.4 107.2 108 C 107.3 108.3 107.3 108.9 107.3 109.7 C 107.3 109.7 107.3 112.3 107.3 112.3 C 107.3 114.1 107.3 115.3 107.4 115.7 C 107.5 116.2 107.7 116.7 107.9 117.1 C 107.92 117.1 105.9 117.1 105.9 117.1 C 105.9 117.1 105.9 117.1 105.9 117.1 Z M 105.3 111.4 C 104.6 111.7 103.6 111.9 102.2 112.1 C 101.4 112.2 100.8 112.4 100.5 112.5 C 100.2 112.6 99.9 112.8 99.7 113.1 C 99.6 113.4 99.5 113.7 99.5 114 C 99.5 114.6 99.7 115 100.1 115.3 C 100.4 115.7 101 115.8 101.8 115.8 C 102.5 115.8 103.2 115.7 103.8 115.4 C 104.3 115 104.8 114.6 105 114 C 105.2 113.6 105.3 112.9 105.3 112.1 C 105.3 112.1 105.3 111.4 105.3 111.4 Z M 113.7 115.4 C 113.9 115.4 114.2 115.4 114.5 115.4 C 114.5 115.4 114.8 117.1 114.8 117.1 C 114.3 117.2 113.8 117.3 113.3 117.3 C 112.6 117.3 112.1 117.1 111.7 116.9 C 111.3 116.7 111 116.4 110.9 116 C 110.7 115.7 110.7 114.9 110.7 113.8 C 110.66 113.76 110.7 107.2 110.7 107.2 L 109.2 107.2 L 109.2 105.7 L 110.7 105.7 L 110.7 102.9 L 112.6 101.7 L 112.6 105.7 L 114.5 105.7 L 114.5 107.2 L 112.6 107.2 C 112.6 107.2 112.58 113.87 112.6 113.9 C 112.6 114.4 112.6 114.8 112.7 114.9 C 112.7 115.1 112.9 115.2 113 115.3 C 113.2 115.4 113.4 115.4 113.7 115.4 C 113.7 115.4 113.7 115.4 113.7 115.4 Z M 116.4 103.6 L 116.4 101.4 L 118.4 101.4 L 118.4 103.6 L 116.4 103.6 Z M 116.4 117.1 L 116.4 105.7 L 118.4 105.7 L 118.4 117.1 L 116.4 117.1 Z M 120.6 111.4 C 120.6 109.3 121.2 107.7 122.3 106.7 C 123.3 105.9 124.5 105.4 125.9 105.4 C 127.5 105.4 128.8 106 129.8 107 C 130.8 108 131.3 109.4 131.3 111.2 C 131.3 112.7 131 113.9 130.6 114.7 C 130.2 115.5 129.5 116.2 128.7 116.7 C 127.8 117.1 126.9 117.4 125.9 117.4 C 124.3 117.4 123 116.8 122.1 115.8 C 121.1 114.8 120.6 113.3 120.6 111.4 Z M 122.6 111.4 C 122.6 112.9 122.9 114 123.5 114.7 C 124.2 115.4 125 115.8 125.9 115.8 C 126.9 115.8 127.7 115.4 128.3 114.7 C 129 113.9 129.3 112.8 129.3 111.3 C 129.3 109.9 129 108.9 128.3 108.1 C 127.7 107.4 126.9 107 125.9 107 C 125 107 124.2 107.4 123.5 108.1 C 122.9 108.8 122.6 109.9 122.6 111.4 Z M 133.5 117.1 L 133.5 105.7 L 135.3 105.7 C 135.3 105.7 135.28 107.32 135.3 107.3 C 136.1 106.1 137.3 105.4 138.9 105.4 C 139.6 105.4 140.2 105.6 140.8 105.8 C 141.4 106.1 141.8 106.4 142.1 106.8 C 142.4 107.2 142.6 107.7 142.7 108.2 C 142.8 108.6 142.8 109.2 142.8 110.1 C 142.81 110.09 142.8 117.1 142.8 117.1 L 140.9 117.1 C 140.9 117.1 140.87 110.16 140.9 110.2 C 140.9 109.4 140.8 108.8 140.6 108.4 C 140.5 108 140.2 107.7 139.8 107.5 C 139.5 107.2 139 107.1 138.5 107.1 C 137.7 107.1 137 107.4 136.4 107.9 C 135.8 108.4 135.5 109.4 135.5 110.9 C 135.47 110.87 135.5 117.1 135.5 117.1 L 133.5 117.1 Z M 146.3 117.1 L 146.3 114.9 L 148.5 114.9 C 148.5 114.9 148.48 117.1 148.5 117.1 C 148.5 117.9 148.3 118.6 148 119.1 C 147.8 119.6 147.3 119.9 146.7 120.2 C 146.7 120.2 146.1 119.4 146.1 119.4 C 146.6 119.2 146.9 118.9 147 118.6 C 147.2 118.3 147.4 117.8 147.4 117.1 C 147.37 117.1 146.3 117.1 146.3 117.1 Z M 165.6 117.1 C 165.4 116.7 165.2 116.2 165.2 115.7 C 164.5 116.3 163.8 116.7 163.1 117 C 162.4 117.2 161.7 117.4 161 117.4 C 159.7 117.4 158.8 117.1 158.1 116.4 C 157.4 115.8 157.1 115 157.1 114.1 C 157.1 113.5 157.2 113 157.5 112.6 C 157.7 112.1 158 111.7 158.5 111.5 C 158.9 111.2 159.3 111 159.8 110.8 C 160.2 110.7 160.8 110.6 161.6 110.5 C 163.1 110.3 164.3 110.1 165 109.9 C 165 109.6 165 109.4 165 109.4 C 165 108.6 164.8 108 164.5 107.7 C 164 107.3 163.2 107 162.3 107 C 161.4 107 160.7 107.2 160.3 107.5 C 159.8 107.8 159.5 108.4 159.3 109.2 C 159.3 109.2 157.4 109 157.4 109 C 157.6 108.1 157.9 107.5 158.3 107 C 158.6 106.5 159.2 106.1 160 105.8 C 160.7 105.6 161.6 105.4 162.6 105.4 C 163.5 105.4 164.3 105.6 164.9 105.8 C 165.5 106 166 106.3 166.3 106.6 C 166.6 107 166.8 107.4 166.9 108 C 166.9 108.3 167 108.9 167 109.7 C 167 109.7 167 112.3 167 112.3 C 167 114.1 167 115.3 167.1 115.7 C 167.2 116.2 167.3 116.7 167.6 117.1 C 167.58 117.1 165.6 117.1 165.6 117.1 C 165.6 117.1 165.56 117.1 165.6 117.1 Z M 165 111.4 C 164.3 111.7 163.3 111.9 161.9 112.1 C 161.1 112.2 160.5 112.4 160.2 112.5 C 159.8 112.6 159.6 112.8 159.4 113.1 C 159.2 113.4 159.1 113.7 159.1 114 C 159.1 114.6 159.3 115 159.7 115.3 C 160.1 115.7 160.7 115.8 161.4 115.8 C 162.2 115.8 162.8 115.7 163.4 115.4 C 164 115 164.4 114.6 164.7 114 C 164.9 113.6 165 112.9 165 112.1 C 165 112.1 165 111.4 165 111.4 Z M 170 117.1 L 170 105.7 L 171.7 105.7 C 171.7 105.7 171.7 107.32 171.7 107.3 C 172.5 106.1 173.8 105.4 175.3 105.4 C 176 105.4 176.7 105.6 177.2 105.8 C 177.8 106.1 178.2 106.4 178.5 106.8 C 178.8 107.2 179 107.7 179.1 108.2 C 179.2 108.6 179.2 109.2 179.2 110.1 C 179.23 110.09 179.2 117.1 179.2 117.1 L 177.3 117.1 C 177.3 117.1 177.3 110.16 177.3 110.2 C 177.3 109.4 177.2 108.8 177.1 108.4 C 176.9 108 176.7 107.7 176.3 107.5 C 175.9 107.2 175.4 107.1 174.9 107.1 C 174.1 107.1 173.4 107.4 172.8 107.9 C 172.2 108.4 171.9 109.4 171.9 110.9 C 171.9 110.87 171.9 117.1 171.9 117.1 L 170 117.1 Z M 189.6 117.1 C 189.6 117.1 189.6 115.66 189.6 115.7 C 188.9 116.8 187.8 117.4 186.4 117.4 C 185.5 117.4 184.7 117.1 183.9 116.6 C 183.1 116.1 182.5 115.4 182.1 114.5 C 181.7 113.6 181.5 112.6 181.5 111.4 C 181.5 110.3 181.7 109.2 182.1 108.3 C 182.4 107.4 183 106.7 183.8 106.2 C 184.5 105.7 185.4 105.4 186.3 105.4 C 187 105.4 187.6 105.6 188.2 105.9 C 188.7 106.2 189.1 106.5 189.5 107 C 189.47 107.01 189.5 101.4 189.5 101.4 L 191.4 101.4 L 191.4 117.1 L 189.6 117.1 Z M 183.5 111.4 C 183.5 112.9 183.8 114 184.4 114.7 C 185 115.4 185.8 115.8 186.6 115.8 C 187.4 115.8 188.2 115.4 188.7 114.7 C 189.3 114 189.6 113 189.6 111.6 C 189.6 110 189.3 108.9 188.7 108.1 C 188.1 107.4 187.4 107 186.5 107 C 185.6 107 184.9 107.4 184.4 108.1 C 183.8 108.8 183.5 109.9 183.5 111.4 Z M 207.7 117.1 C 207.7 117.1 207.68 115.66 207.7 115.7 C 207 116.8 205.9 117.4 204.5 117.4 C 203.6 117.4 202.7 117.1 202 116.6 C 201.2 116.1 200.6 115.4 200.2 114.5 C 199.8 113.6 199.6 112.6 199.6 111.4 C 199.6 110.3 199.8 109.2 200.1 108.3 C 200.5 107.4 201.1 106.7 201.9 106.2 C 202.6 105.7 203.5 105.4 204.4 105.4 C 205.1 105.4 205.7 105.6 206.2 105.9 C 206.8 106.2 207.2 106.5 207.5 107 C 207.55 107.01 207.5 101.4 207.5 101.4 L 209.5 101.4 L 209.5 117.1 L 207.7 117.1 Z M 201.6 111.4 C 201.6 112.9 201.9 114 202.5 114.7 C 203.1 115.4 203.8 115.8 204.7 115.8 C 205.5 115.8 206.2 115.4 206.8 114.7 C 207.4 114 207.7 113 207.7 111.6 C 207.7 110 207.4 108.9 206.8 108.1 C 206.2 107.4 205.5 107 204.6 107 C 203.7 107 203 107.4 202.4 108.1 C 201.9 108.8 201.6 109.9 201.6 111.4 Z M 220.3 113.4 C 220.3 113.4 222.3 113.7 222.3 113.7 C 222 114.8 221.4 115.8 220.6 116.4 C 219.7 117 218.6 117.4 217.3 117.4 C 215.6 117.4 214.3 116.8 213.3 115.8 C 212.4 114.8 211.9 113.4 211.9 111.5 C 211.9 109.6 212.4 108.1 213.3 107 C 214.3 106 215.6 105.4 217.2 105.4 C 218.7 105.4 220 106 220.9 107 C 221.9 108 222.4 109.5 222.4 111.4 C 222.4 111.5 222.4 111.7 222.4 111.9 C 222.4 111.9 213.9 111.9 213.9 111.9 C 213.9 113.1 214.3 114.1 214.9 114.8 C 215.6 115.4 216.4 115.8 217.3 115.8 C 218 115.8 218.6 115.6 219.1 115.2 C 219.6 114.8 220 114.2 220.3 113.4 Z M 214 110.3 C 214 110.3 220.3 110.3 220.3 110.3 C 220.3 109.3 220 108.6 219.6 108.1 C 219 107.4 218.2 107 217.2 107 C 216.3 107 215.6 107.3 215 107.9 C 214.4 108.5 214 109.3 214 110.3 Z M 232.2 112.9 C 232.2 112.9 234.1 113.2 234.1 113.2 C 233.9 114.5 233.4 115.5 232.5 116.2 C 231.6 117 230.6 117.4 229.3 117.4 C 227.8 117.4 226.5 116.9 225.6 115.8 C 224.6 114.8 224.2 113.3 224.2 111.4 C 224.2 110.2 224.4 109.1 224.8 108.2 C 225.2 107.3 225.8 106.6 226.6 106.1 C 227.5 105.7 228.4 105.4 229.4 105.4 C 230.6 105.4 231.6 105.8 232.4 106.4 C 233.2 107 233.7 107.9 233.9 109 C 233.9 109 232 109.3 232 109.3 C 231.9 108.6 231.5 108 231.1 107.6 C 230.6 107.2 230.1 107 229.4 107 C 228.5 107 227.7 107.4 227.1 108.1 C 226.4 108.8 226.1 109.9 226.1 111.4 C 226.1 112.9 226.4 114 227 114.7 C 227.6 115.4 228.4 115.8 229.3 115.8 C 230.1 115.8 230.7 115.5 231.2 115.1 C 231.7 114.6 232.1 113.9 232.2 112.9 Z M 235.8 103.6 L 235.8 101.4 L 237.7 101.4 L 237.7 103.6 L 235.8 103.6 Z M 235.8 117.1 L 235.8 105.7 L 237.7 105.7 L 237.7 117.1 L 235.8 117.1 Z M 239.9 113.7 C 239.9 113.7 241.8 113.4 241.8 113.4 C 241.9 114.2 242.2 114.8 242.7 115.2 C 243.2 115.6 243.8 115.8 244.7 115.8 C 245.6 115.8 246.3 115.6 246.7 115.2 C 247.1 114.9 247.3 114.4 247.3 114 C 247.3 113.5 247.2 113.2 246.8 112.9 C 246.5 112.8 245.9 112.5 244.8 112.3 C 243.4 111.9 242.4 111.6 241.9 111.3 C 241.3 111.1 240.9 110.7 240.6 110.3 C 240.3 109.8 240.2 109.3 240.2 108.7 C 240.2 108.2 240.3 107.7 240.5 107.3 C 240.8 106.9 241.1 106.5 241.5 106.2 C 241.8 106 242.2 105.8 242.7 105.7 C 243.2 105.5 243.8 105.4 244.4 105.4 C 245.3 105.4 246.1 105.6 246.7 105.8 C 247.4 106.1 247.9 106.4 248.2 106.9 C 248.6 107.3 248.8 107.9 248.9 108.6 C 248.9 108.6 247 108.9 247 108.9 C 246.9 108.3 246.7 107.9 246.3 107.5 C 245.9 107.2 245.3 107 244.5 107 C 243.6 107 243 107.2 242.6 107.5 C 242.2 107.8 242.1 108.1 242.1 108.5 C 242.1 108.7 242.1 109 242.3 109.2 C 242.4 109.4 242.7 109.6 243 109.7 C 243.2 109.8 243.8 109.9 244.7 110.2 C 246.1 110.6 247.1 110.8 247.6 111.1 C 248.1 111.3 248.6 111.7 248.9 112.1 C 249.2 112.5 249.3 113.1 249.3 113.8 C 249.3 114.4 249.1 115 248.8 115.6 C 248.4 116.1 247.9 116.6 247.1 116.9 C 246.4 117.2 245.6 117.4 244.7 117.4 C 243.3 117.4 242.1 117.1 241.3 116.4 C 240.6 115.8 240.1 114.9 239.9 113.7 Z M 251.6 103.6 L 251.6 101.4 L 253.6 101.4 L 253.6 103.6 L 251.6 103.6 Z M 251.6 117.1 L 251.6 105.7 L 253.6 105.7 L 253.6 117.1 L 251.6 117.1 Z M 255.8 111.4 C 255.8 109.3 256.4 107.7 257.6 106.7 C 258.5 105.9 259.7 105.4 261.2 105.4 C 262.7 105.4 264 106 265 107 C 266 108 266.5 109.4 266.5 111.2 C 266.5 112.7 266.3 113.9 265.8 114.7 C 265.4 115.5 264.7 116.2 263.9 116.7 C 263.1 117.1 262.1 117.4 261.2 117.4 C 259.6 117.4 258.3 116.8 257.3 115.8 C 256.3 114.8 255.8 113.3 255.8 111.4 Z M 257.8 111.4 C 257.8 112.9 258.1 114 258.7 114.7 C 259.4 115.4 260.2 115.8 261.2 115.8 C 262.1 115.8 262.9 115.4 263.5 114.7 C 264.2 113.9 264.5 112.8 264.5 111.3 C 264.5 109.9 264.2 108.9 263.5 108.1 C 262.9 107.4 262.1 107 261.2 107 C 260.2 107 259.4 107.4 258.7 108.1 C 258.1 108.8 257.8 109.9 257.8 111.4 Z M 268.8 117.1 L 268.8 105.7 L 270.5 105.7 C 270.5 105.7 270.5 107.32 270.5 107.3 C 271.3 106.1 272.5 105.4 274.1 105.4 C 274.8 105.4 275.4 105.6 276 105.8 C 276.6 106.1 277 106.4 277.3 106.8 C 277.6 107.2 277.8 107.7 277.9 108.2 C 278 108.6 278 109.2 278 110.1 C 278.03 110.09 278 117.1 278 117.1 L 276.1 117.1 C 276.1 117.1 276.09 110.16 276.1 110.2 C 276.1 109.4 276 108.8 275.9 108.4 C 275.7 108 275.5 107.7 275.1 107.5 C 274.7 107.2 274.2 107.1 273.7 107.1 C 272.9 107.1 272.2 107.4 271.6 107.9 C 271 108.4 270.7 109.4 270.7 110.9 C 270.69 110.87 270.7 117.1 270.7 117.1 L 268.8 117.1 Z M 280.2 112.4 L 280.2 110.4 L 286.2 110.4 L 286.2 112.4 L 280.2 112.4 Z M 288.3 117.1 L 288.3 105.7 L 290 105.7 C 290 105.7 290.05 107.3 290 107.3 C 290.4 106.7 290.9 106.3 291.5 105.9 C 292.1 105.6 292.7 105.4 293.5 105.4 C 294.4 105.4 295 105.6 295.6 106 C 296.1 106.3 296.5 106.8 296.7 107.4 C 297.6 106.1 298.8 105.4 300.3 105.4 C 301.4 105.4 302.3 105.8 302.9 106.4 C 303.5 107 303.8 108 303.8 109.3 C 303.78 109.27 303.8 117.1 303.8 117.1 L 301.9 117.1 C 301.9 117.1 301.85 109.92 301.9 109.9 C 301.9 109.1 301.8 108.6 301.7 108.2 C 301.5 107.9 301.3 107.6 301 107.4 C 300.7 107.2 300.3 107.1 299.8 107.1 C 299 107.1 298.4 107.4 297.8 107.9 C 297.3 108.4 297 109.3 297 110.5 C 297.03 110.48 297 117.1 297 117.1 L 295.1 117.1 C 295.1 117.1 295.1 109.69 295.1 109.7 C 295.1 108.8 294.9 108.2 294.6 107.8 C 294.3 107.3 293.8 107.1 293.1 107.1 C 292.5 107.1 292 107.3 291.6 107.5 C 291.1 107.8 290.8 108.2 290.6 108.8 C 290.4 109.4 290.3 110.1 290.3 111.2 C 290.25 111.18 290.3 117.1 290.3 117.1 L 288.3 117.1 Z M 314.5 117.1 C 314.3 116.7 314.1 116.2 314.1 115.7 C 313.4 116.3 312.7 116.7 312 117 C 311.4 117.2 310.6 117.4 309.9 117.4 C 308.6 117.4 307.7 117.1 307 116.4 C 306.3 115.8 306 115 306 114.1 C 306 113.5 306.1 113 306.4 112.6 C 306.6 112.1 307 111.7 307.4 111.5 C 307.8 111.2 308.2 111 308.8 110.8 C 309.1 110.7 309.7 110.6 310.5 110.5 C 312 110.3 313.2 110.1 313.9 109.9 C 313.9 109.6 313.9 109.4 313.9 109.4 C 313.9 108.6 313.8 108 313.4 107.7 C 312.9 107.3 312.2 107 311.2 107 C 310.3 107 309.6 107.2 309.2 107.5 C 308.7 107.8 308.4 108.4 308.2 109.2 C 308.2 109.2 306.3 109 306.3 109 C 306.5 108.1 306.8 107.5 307.2 107 C 307.6 106.5 308.1 106.1 308.9 105.8 C 309.6 105.6 310.5 105.4 311.5 105.4 C 312.4 105.4 313.2 105.6 313.8 105.8 C 314.5 106 314.9 106.3 315.2 106.6 C 315.5 107 315.7 107.4 315.8 108 C 315.9 108.3 315.9 108.9 315.9 109.7 C 315.9 109.7 315.9 112.3 315.9 112.3 C 315.9 114.1 315.9 115.3 316 115.7 C 316.1 116.2 316.3 116.7 316.5 117.1 C 316.5 117.1 314.5 117.1 314.5 117.1 C 314.5 117.1 314.48 117.1 314.5 117.1 Z M 313.9 111.4 C 313.2 111.7 312.2 111.9 310.8 112.1 C 310 112.2 309.4 112.4 309.1 112.5 C 308.8 112.6 308.5 112.8 308.3 113.1 C 308.1 113.4 308.1 113.7 308.1 114 C 308.1 114.6 308.2 115 308.6 115.3 C 309 115.7 309.6 115.8 310.4 115.8 C 311.1 115.8 311.8 115.7 312.3 115.4 C 312.9 115 313.3 114.6 313.6 114 C 313.8 113.6 313.9 112.9 313.9 112.1 C 313.9 112.1 313.9 111.4 313.9 111.4 Z M 318.9 117.1 L 318.9 101.4 L 320.8 101.4 L 320.8 110.3 L 325.4 105.7 L 327.9 105.7 L 323.5 109.9 L 328.3 117.1 L 326 117.1 L 322.2 111.3 L 320.8 112.6 L 320.8 117.1 L 318.9 117.1 Z M 329.9 103.6 L 329.9 101.4 L 331.8 101.4 L 331.8 103.6 L 329.9 103.6 Z M 329.9 117.1 L 329.9 105.7 L 331.8 105.7 L 331.8 117.1 L 329.9 117.1 Z M 334.8 117.1 L 334.8 105.7 L 336.5 105.7 C 336.5 105.7 336.51 107.32 336.5 107.3 C 337.3 106.1 338.6 105.4 340.1 105.4 C 340.8 105.4 341.5 105.6 342 105.8 C 342.6 106.1 343 106.4 343.3 106.8 C 343.6 107.2 343.8 107.7 343.9 108.2 C 344 108.6 344 109.2 344 110.1 C 344.04 110.09 344 117.1 344 117.1 L 342.1 117.1 C 342.1 117.1 342.11 110.16 342.1 110.2 C 342.1 109.4 342 108.8 341.9 108.4 C 341.7 108 341.5 107.7 341.1 107.5 C 340.7 107.2 340.2 107.1 339.7 107.1 C 338.9 107.1 338.2 107.4 337.6 107.9 C 337 108.4 336.7 109.4 336.7 110.9 C 336.7 110.87 336.7 117.1 336.7 117.1 L 334.8 117.1 Z M 346.6 118 C 346.6 118 348.5 118.3 348.5 118.3 C 348.6 118.9 348.8 119.3 349.2 119.6 C 349.7 120 350.3 120.1 351.2 120.1 C 352 120.1 352.7 120 353.2 119.6 C 353.7 119.2 354 118.7 354.2 118.1 C 354.3 117.7 354.4 116.9 354.4 115.6 C 353.5 116.6 352.5 117.1 351.2 117.1 C 349.6 117.1 348.4 116.5 347.6 115.4 C 346.7 114.3 346.3 112.9 346.3 111.3 C 346.3 110.2 346.5 109.2 346.9 108.3 C 347.2 107.4 347.8 106.7 348.6 106.2 C 349.3 105.7 350.2 105.4 351.2 105.4 C 352.6 105.4 353.7 106 354.5 107.1 C 354.53 107.07 354.5 105.7 354.5 105.7 L 356.3 105.7 C 356.3 105.7 356.32 115.56 356.3 115.6 C 356.3 117.3 356.1 118.6 355.8 119.3 C 355.4 120.1 354.8 120.7 354.1 121.1 C 353.3 121.5 352.3 121.7 351.2 121.7 C 349.8 121.7 348.7 121.4 347.9 120.8 C 347 120.2 346.6 119.3 346.6 118 Z M 348.2 111.2 C 348.2 112.7 348.5 113.8 349.1 114.5 C 349.7 115.2 350.5 115.5 351.4 115.5 C 352.3 115.5 353 115.2 353.6 114.5 C 354.2 113.8 354.5 112.7 354.5 111.3 C 354.5 109.9 354.2 108.8 353.6 108.1 C 353 107.4 352.2 107 351.3 107 C 350.5 107 349.8 107.4 349.2 108.1 C 348.6 108.8 348.2 109.8 348.2 111.2 Z M 359.8 117.1 L 359.8 114.9 L 362 114.9 L 362 117.1 L 359.8 117.1 Z " stroke="none" fill="#000"/>  </g>  <g id="Polygon7734">    <path d="M 36.1 77.2 L 36.1 75 L 38 75 L 38 77.2 L 36.1 77.2 Z M 36.1 90.7 L 36.1 79.3 L 38 79.3 L 38 90.7 L 36.1 90.7 Z M 48.3 90.7 C 48.3 90.7 48.33 89.26 48.3 89.3 C 47.6 90.4 46.5 91 45.1 91 C 44.2 91 43.4 90.7 42.6 90.2 C 41.9 89.7 41.3 89 40.9 88.1 C 40.4 87.2 40.2 86.2 40.2 85 C 40.2 83.9 40.4 82.8 40.8 81.9 C 41.2 81 41.8 80.3 42.5 79.8 C 43.3 79.3 44.1 79 45.1 79 C 45.7 79 46.4 79.2 46.9 79.5 C 47.4 79.8 47.9 80.1 48.2 80.6 C 48.21 80.61 48.2 75 48.2 75 L 50.1 75 L 50.1 90.7 L 48.3 90.7 Z M 42.2 85 C 42.2 86.5 42.5 87.6 43.1 88.3 C 43.8 89 44.5 89.4 45.3 89.4 C 46.2 89.4 46.9 89 47.5 88.3 C 48.1 87.6 48.4 86.6 48.4 85.2 C 48.4 83.6 48.1 82.5 47.5 81.7 C 46.9 81 46.1 80.6 45.2 80.6 C 44.4 80.6 43.7 81 43.1 81.7 C 42.5 82.4 42.2 83.5 42.2 85 Z M 61 87 C 61 87 63 87.3 63 87.3 C 62.7 88.4 62.1 89.4 61.2 90 C 60.4 90.6 59.3 91 58 91 C 56.3 91 55 90.4 54 89.4 C 53 88.4 52.5 87 52.5 85.1 C 52.5 83.2 53 81.7 54 80.6 C 55 79.6 56.3 79 57.9 79 C 59.4 79 60.6 79.6 61.6 80.6 C 62.6 81.6 63 83.1 63 85 C 63 85.1 63 85.3 63 85.5 C 63 85.5 54.5 85.5 54.5 85.5 C 54.6 86.7 54.9 87.7 55.6 88.4 C 56.2 89 57 89.4 58 89.4 C 58.7 89.4 59.3 89.2 59.8 88.8 C 60.3 88.4 60.7 87.8 61 87 Z M 54.6 83.9 C 54.6 83.9 61 83.9 61 83.9 C 60.9 82.9 60.7 82.2 60.3 81.7 C 59.7 81 58.9 80.6 57.9 80.6 C 57 80.6 56.2 80.9 55.6 81.5 C 55 82.1 54.7 82.9 54.6 83.9 Z M 73.2 90.7 C 73 90.3 72.9 89.8 72.8 89.3 C 72.1 89.9 71.4 90.3 70.8 90.6 C 70.1 90.8 69.4 91 68.6 91 C 67.4 91 66.4 90.7 65.8 90 C 65.1 89.4 64.7 88.6 64.7 87.7 C 64.7 87.1 64.9 86.6 65.1 86.2 C 65.4 85.7 65.7 85.3 66.1 85.1 C 66.5 84.8 67 84.6 67.5 84.4 C 67.9 84.3 68.5 84.2 69.2 84.1 C 70.8 83.9 71.9 83.7 72.7 83.5 C 72.7 83.2 72.7 83 72.7 83 C 72.7 82.2 72.5 81.6 72.1 81.3 C 71.7 80.9 70.9 80.6 69.9 80.6 C 69 80.6 68.4 80.8 67.9 81.1 C 67.5 81.4 67.2 82 67 82.8 C 67 82.8 65.1 82.6 65.1 82.6 C 65.3 81.7 65.5 81.1 65.9 80.6 C 66.3 80.1 66.9 79.7 67.6 79.4 C 68.4 79.2 69.2 79 70.2 79 C 71.2 79 72 79.2 72.6 79.4 C 73.2 79.6 73.7 79.9 73.9 80.2 C 74.2 80.6 74.4 81 74.5 81.6 C 74.6 81.9 74.6 82.5 74.6 83.3 C 74.6 83.3 74.6 85.9 74.6 85.9 C 74.6 87.7 74.7 88.9 74.8 89.3 C 74.8 89.8 75 90.3 75.3 90.7 C 75.25 90.7 73.2 90.7 73.2 90.7 C 73.2 90.7 73.23 90.7 73.2 90.7 Z M 72.7 85 C 72 85.3 70.9 85.5 69.5 85.7 C 68.7 85.8 68.2 86 67.8 86.1 C 67.5 86.2 67.3 86.4 67.1 86.7 C 66.9 87 66.8 87.3 66.8 87.6 C 66.8 88.2 67 88.6 67.4 88.9 C 67.8 89.3 68.4 89.4 69.1 89.4 C 69.9 89.4 70.5 89.3 71.1 89 C 71.7 88.6 72.1 88.2 72.4 87.6 C 72.6 87.2 72.7 86.5 72.7 85.7 C 72.7 85.7 72.7 85 72.7 85 Z M 83.4 91.6 C 83.4 91.6 85.3 91.9 85.3 91.9 C 85.4 92.5 85.6 92.9 85.9 93.2 C 86.4 93.6 87.1 93.7 87.9 93.7 C 88.8 93.7 89.5 93.6 90 93.2 C 90.5 92.8 90.8 92.3 91 91.7 C 91.1 91.3 91.1 90.5 91.1 89.2 C 90.3 90.2 89.2 90.7 87.9 90.7 C 86.4 90.7 85.2 90.1 84.3 89 C 83.4 87.9 83 86.5 83 84.9 C 83 83.8 83.2 82.8 83.6 81.9 C 84 81 84.6 80.3 85.3 79.8 C 86.1 79.3 86.9 79 88 79 C 89.3 79 90.4 79.6 91.3 80.7 C 91.28 80.67 91.3 79.3 91.3 79.3 L 93.1 79.3 C 93.1 79.3 93.06 89.16 93.1 89.2 C 93.1 90.9 92.9 92.2 92.5 92.9 C 92.2 93.7 91.6 94.3 90.8 94.7 C 90 95.1 89.1 95.3 87.9 95.3 C 86.5 95.3 85.4 95 84.6 94.4 C 83.8 93.8 83.4 92.9 83.4 91.6 Z M 85 84.8 C 85 86.3 85.3 87.4 85.9 88.1 C 86.5 88.8 87.2 89.1 88.1 89.1 C 89 89.1 89.8 88.8 90.4 88.1 C 91 87.4 91.3 86.3 91.3 84.9 C 91.3 83.5 90.9 82.4 90.3 81.7 C 89.7 81 89 80.6 88.1 80.6 C 87.2 80.6 86.5 81 85.9 81.7 C 85.3 82.4 85 83.4 85 84.8 Z M 103.8 87 C 103.8 87 105.8 87.3 105.8 87.3 C 105.5 88.4 104.9 89.4 104 90 C 103.2 90.6 102.1 91 100.8 91 C 99.1 91 97.8 90.4 96.8 89.4 C 95.8 88.4 95.3 87 95.3 85.1 C 95.3 83.2 95.8 81.7 96.8 80.6 C 97.8 79.6 99.1 79 100.7 79 C 102.2 79 103.4 79.6 104.4 80.6 C 105.4 81.6 105.9 83.1 105.9 85 C 105.9 85.1 105.9 85.3 105.8 85.5 C 105.8 85.5 97.3 85.5 97.3 85.5 C 97.4 86.7 97.8 87.7 98.4 88.4 C 99 89 99.8 89.4 100.8 89.4 C 101.5 89.4 102.1 89.2 102.6 88.8 C 103.1 88.4 103.5 87.8 103.8 87 Z M 97.4 83.9 C 97.4 83.9 103.8 83.9 103.8 83.9 C 103.7 82.9 103.5 82.2 103.1 81.7 C 102.5 81 101.7 80.6 100.7 80.6 C 99.8 80.6 99.1 80.9 98.5 81.5 C 97.8 82.1 97.5 82.9 97.4 83.9 Z M 108.2 90.7 L 108.2 79.3 L 110 79.3 C 110 79.3 109.96 80.92 110 80.9 C 110.8 79.7 112 79 113.6 79 C 114.3 79 114.9 79.2 115.5 79.4 C 116.1 79.7 116.5 80 116.8 80.4 C 117.1 80.8 117.3 81.3 117.4 81.8 C 117.5 82.2 117.5 82.8 117.5 83.7 C 117.49 83.69 117.5 90.7 117.5 90.7 L 115.6 90.7 C 115.6 90.7 115.56 83.76 115.6 83.8 C 115.6 83 115.5 82.4 115.3 82 C 115.2 81.6 114.9 81.3 114.5 81.1 C 114.1 80.8 113.7 80.7 113.2 80.7 C 112.4 80.7 111.7 81 111.1 81.5 C 110.5 82 110.2 83 110.2 84.5 C 110.16 84.47 110.2 90.7 110.2 90.7 L 108.2 90.7 Z M 128.3 87 C 128.3 87 130.3 87.3 130.3 87.3 C 129.9 88.4 129.4 89.4 128.5 90 C 127.7 90.6 126.6 91 125.2 91 C 123.6 91 122.3 90.4 121.3 89.4 C 120.3 88.4 119.8 87 119.8 85.1 C 119.8 83.2 120.3 81.7 121.3 80.6 C 122.3 79.6 123.6 79 125.1 79 C 126.7 79 127.9 79.6 128.9 80.6 C 129.8 81.6 130.3 83.1 130.3 85 C 130.3 85.1 130.3 85.3 130.3 85.5 C 130.3 85.5 121.8 85.5 121.8 85.5 C 121.9 86.7 122.2 87.7 122.9 88.4 C 123.5 89 124.3 89.4 125.3 89.4 C 126 89.4 126.6 89.2 127.1 88.8 C 127.6 88.4 128 87.8 128.3 87 Z M 121.9 83.9 C 121.9 83.9 128.3 83.9 128.3 83.9 C 128.2 82.9 128 82.2 127.6 81.7 C 126.9 81 126.1 80.6 125.2 80.6 C 124.3 80.6 123.5 80.9 122.9 81.5 C 122.3 82.1 122 82.9 121.9 83.9 Z M 132.7 90.7 L 132.7 79.3 L 134.4 79.3 C 134.4 79.3 134.41 81.02 134.4 81 C 134.9 80.2 135.3 79.7 135.6 79.4 C 136 79.2 136.4 79 136.9 79 C 137.5 79 138.2 79.2 138.9 79.7 C 138.9 79.7 138.2 81.5 138.2 81.5 C 137.7 81.2 137.3 81 136.8 81 C 136.4 81 136 81.2 135.6 81.4 C 135.3 81.7 135.1 82 134.9 82.5 C 134.7 83.2 134.6 83.9 134.6 84.7 C 134.6 84.73 134.6 90.7 134.6 90.7 L 132.7 90.7 Z M 147.8 90.7 C 147.6 90.3 147.5 89.8 147.5 89.3 C 146.7 89.9 146.1 90.3 145.4 90.6 C 144.7 90.8 144 91 143.3 91 C 142 91 141 90.7 140.4 90 C 139.7 89.4 139.4 88.6 139.4 87.7 C 139.4 87.1 139.5 86.6 139.7 86.2 C 140 85.7 140.3 85.3 140.7 85.1 C 141.2 84.8 141.6 84.6 142.1 84.4 C 142.5 84.3 143.1 84.2 143.9 84.1 C 145.4 83.9 146.6 83.7 147.3 83.5 C 147.3 83.2 147.3 83 147.3 83 C 147.3 82.2 147.1 81.6 146.8 81.3 C 146.3 80.9 145.5 80.6 144.6 80.6 C 143.7 80.6 143 80.8 142.5 81.1 C 142.1 81.4 141.8 82 141.6 82.8 C 141.6 82.8 139.7 82.6 139.7 82.6 C 139.9 81.7 140.2 81.1 140.5 80.6 C 140.9 80.1 141.5 79.7 142.3 79.4 C 143 79.2 143.9 79 144.8 79 C 145.8 79 146.6 79.2 147.2 79.4 C 147.8 79.6 148.3 79.9 148.6 80.2 C 148.8 80.6 149 81 149.2 81.6 C 149.2 81.9 149.3 82.5 149.3 83.3 C 149.3 83.3 149.3 85.9 149.3 85.9 C 149.3 87.7 149.3 88.9 149.4 89.3 C 149.5 89.8 149.6 90.3 149.9 90.7 C 149.87 90.7 147.8 90.7 147.8 90.7 C 147.8 90.7 147.85 90.7 147.8 90.7 Z M 147.3 85 C 146.6 85.3 145.5 85.5 144.1 85.7 C 143.3 85.8 142.8 86 142.5 86.1 C 142.1 86.2 141.9 86.4 141.7 86.7 C 141.5 87 141.4 87.3 141.4 87.6 C 141.4 88.2 141.6 88.6 142 88.9 C 142.4 89.3 143 89.4 143.7 89.4 C 144.5 89.4 145.1 89.3 145.7 89 C 146.3 88.6 146.7 88.2 147 87.6 C 147.2 87.2 147.3 86.5 147.3 85.7 C 147.3 85.7 147.3 85 147.3 85 Z M 155.6 89 C 155.8 89 156.1 89 156.5 89 C 156.5 89 156.8 90.7 156.8 90.7 C 156.2 90.8 155.7 90.9 155.3 90.9 C 154.6 90.9 154 90.7 153.7 90.5 C 153.3 90.3 153 90 152.8 89.6 C 152.7 89.3 152.6 88.5 152.6 87.4 C 152.61 87.36 152.6 80.8 152.6 80.8 L 151.2 80.8 L 151.2 79.3 L 152.6 79.3 L 152.6 76.5 L 154.5 75.3 L 154.5 79.3 L 156.5 79.3 L 156.5 80.8 L 154.5 80.8 C 154.5 80.8 154.53 87.47 154.5 87.5 C 154.5 88 154.6 88.4 154.6 88.5 C 154.7 88.7 154.8 88.8 155 88.9 C 155.1 89 155.3 89 155.6 89 C 155.6 89 155.6 89 155.6 89 Z M 158.4 77.2 L 158.4 75 L 160.3 75 L 160.3 77.2 L 158.4 77.2 Z M 158.4 90.7 L 158.4 79.3 L 160.3 79.3 L 160.3 90.7 L 158.4 90.7 Z M 162.5 85 C 162.5 82.9 163.1 81.3 164.3 80.3 C 165.3 79.5 166.5 79 167.9 79 C 169.5 79 170.7 79.6 171.7 80.6 C 172.7 81.6 173.2 83 173.2 84.8 C 173.2 86.3 173 87.5 172.6 88.3 C 172.1 89.1 171.5 89.8 170.6 90.3 C 169.8 90.7 168.9 91 167.9 91 C 166.3 91 165 90.4 164 89.4 C 163 88.4 162.5 86.9 162.5 85 Z M 164.5 85 C 164.5 86.5 164.8 87.6 165.5 88.3 C 166.1 89 166.9 89.4 167.9 89.4 C 168.8 89.4 169.6 89 170.3 88.3 C 170.9 87.5 171.2 86.4 171.2 84.9 C 171.2 83.5 170.9 82.5 170.3 81.7 C 169.6 81 168.8 80.6 167.9 80.6 C 166.9 80.6 166.1 81 165.5 81.7 C 164.8 82.4 164.5 83.5 164.5 85 Z M 175.5 90.7 L 175.5 79.3 L 177.2 79.3 C 177.2 79.3 177.23 80.92 177.2 80.9 C 178.1 79.7 179.3 79 180.9 79 C 181.5 79 182.2 79.2 182.8 79.4 C 183.3 79.7 183.8 80 184.1 80.4 C 184.3 80.8 184.5 81.3 184.7 81.8 C 184.7 82.2 184.8 82.8 184.8 83.7 C 184.76 83.69 184.8 90.7 184.8 90.7 L 182.8 90.7 C 182.8 90.7 182.83 83.76 182.8 83.8 C 182.8 83 182.8 82.4 182.6 82 C 182.5 81.6 182.2 81.3 181.8 81.1 C 181.4 80.8 181 80.7 180.5 80.7 C 179.6 80.7 178.9 81 178.3 81.5 C 177.7 82 177.4 83 177.4 84.5 C 177.42 84.47 177.4 90.7 177.4 90.7 L 175.5 90.7 Z M 188.2 90.7 L 188.2 88.5 L 190.4 88.5 C 190.4 88.5 190.43 90.7 190.4 90.7 C 190.4 91.5 190.3 92.2 190 92.7 C 189.7 93.2 189.3 93.5 188.6 93.8 C 188.6 93.8 188.1 93 188.1 93 C 188.5 92.8 188.8 92.5 189 92.2 C 189.2 91.9 189.3 91.4 189.3 90.7 C 189.33 90.7 188.2 90.7 188.2 90.7 Z M 199.2 87.3 C 199.2 87.3 201.1 87 201.1 87 C 201.2 87.8 201.5 88.4 202 88.8 C 202.5 89.2 203.2 89.4 204 89.4 C 204.9 89.4 205.6 89.2 206 88.8 C 206.4 88.5 206.7 88 206.7 87.6 C 206.7 87.1 206.5 86.8 206.1 86.5 C 205.8 86.4 205.2 86.1 204.1 85.9 C 202.7 85.5 201.7 85.2 201.2 84.9 C 200.6 84.7 200.2 84.3 199.9 83.9 C 199.6 83.4 199.5 82.9 199.5 82.3 C 199.5 81.8 199.6 81.3 199.8 80.9 C 200.1 80.5 200.4 80.1 200.8 79.8 C 201.1 79.6 201.5 79.4 202 79.3 C 202.5 79.1 203.1 79 203.7 79 C 204.6 79 205.4 79.2 206.1 79.4 C 206.7 79.7 207.2 80 207.6 80.5 C 207.9 80.9 208.1 81.5 208.2 82.2 C 208.2 82.2 206.3 82.5 206.3 82.5 C 206.2 81.9 206 81.5 205.6 81.1 C 205.2 80.8 204.6 80.6 203.8 80.6 C 202.9 80.6 202.3 80.8 201.9 81.1 C 201.6 81.4 201.4 81.7 201.4 82.1 C 201.4 82.3 201.4 82.6 201.6 82.8 C 201.8 83 202 83.2 202.3 83.3 C 202.5 83.4 203.1 83.5 204.1 83.8 C 205.4 84.2 206.4 84.4 206.9 84.7 C 207.5 84.9 207.9 85.3 208.2 85.7 C 208.5 86.1 208.7 86.7 208.7 87.4 C 208.7 88 208.5 88.6 208.1 89.2 C 207.7 89.7 207.2 90.2 206.5 90.5 C 205.7 90.8 204.9 91 204.1 91 C 202.6 91 201.4 90.7 200.7 90 C 199.9 89.4 199.4 88.5 199.2 87.3 Z M 218.4 90.7 C 218.4 90.7 218.43 89.03 218.4 89 C 217.5 90.3 216.3 91 214.8 91 C 214.1 91 213.5 90.8 212.9 90.6 C 212.3 90.3 211.9 90 211.6 89.6 C 211.3 89.2 211.1 88.7 211 88.2 C 210.9 87.8 210.9 87.2 210.9 86.4 C 210.91 86.36 210.9 79.3 210.9 79.3 L 212.8 79.3 C 212.8 79.3 212.84 85.62 212.8 85.6 C 212.8 86.6 212.9 87.3 213 87.7 C 213.1 88.2 213.3 88.6 213.7 88.9 C 214.1 89.2 214.6 89.3 215.2 89.3 C 215.8 89.3 216.3 89.1 216.8 88.9 C 217.3 88.6 217.7 88.1 217.9 87.6 C 218.1 87.1 218.2 86.4 218.2 85.4 C 218.22 85.41 218.2 79.3 218.2 79.3 L 220.2 79.3 L 220.2 90.7 L 218.4 90.7 Z M 223.2 90.7 L 223.2 79.3 L 224.9 79.3 C 224.9 79.3 224.91 80.9 224.9 80.9 C 225.3 80.3 225.7 79.9 226.3 79.5 C 226.9 79.2 227.6 79 228.4 79 C 229.2 79 229.9 79.2 230.5 79.6 C 231 79.9 231.4 80.4 231.6 81 C 232.5 79.7 233.7 79 235.1 79 C 236.3 79 237.1 79.4 237.7 80 C 238.3 80.6 238.6 81.6 238.6 82.9 C 238.64 82.87 238.6 90.7 238.6 90.7 L 236.7 90.7 C 236.7 90.7 236.72 83.52 236.7 83.5 C 236.7 82.7 236.7 82.2 236.5 81.8 C 236.4 81.5 236.2 81.2 235.8 81 C 235.5 80.8 235.1 80.7 234.7 80.7 C 233.9 80.7 233.2 81 232.7 81.5 C 232.2 82 231.9 82.9 231.9 84.1 C 231.9 84.08 231.9 90.7 231.9 90.7 L 230 90.7 C 230 90.7 229.96 83.29 230 83.3 C 230 82.4 229.8 81.8 229.5 81.4 C 229.2 80.9 228.7 80.7 227.9 80.7 C 227.4 80.7 226.9 80.9 226.4 81.1 C 226 81.4 225.6 81.8 225.4 82.4 C 225.2 83 225.1 83.7 225.1 84.8 C 225.12 84.78 225.1 90.7 225.1 90.7 L 223.2 90.7 Z M 241.5 90.7 L 241.5 79.3 L 243.2 79.3 C 243.2 79.3 243.24 80.9 243.2 80.9 C 243.6 80.3 244.1 79.9 244.7 79.5 C 245.3 79.2 245.9 79 246.7 79 C 247.5 79 248.2 79.2 248.8 79.6 C 249.3 79.9 249.7 80.4 249.9 81 C 250.8 79.7 252 79 253.4 79 C 254.6 79 255.4 79.4 256.1 80 C 256.7 80.6 257 81.6 257 82.9 C 256.97 82.87 257 90.7 257 90.7 L 255 90.7 C 255 90.7 255.05 83.52 255 83.5 C 255 82.7 255 82.2 254.9 81.8 C 254.7 81.5 254.5 81.2 254.2 81 C 253.8 80.8 253.5 80.7 253 80.7 C 252.2 80.7 251.5 81 251 81.5 C 250.5 82 250.2 82.9 250.2 84.1 C 250.22 84.08 250.2 90.7 250.2 90.7 L 248.3 90.7 C 248.3 90.7 248.29 83.29 248.3 83.3 C 248.3 82.4 248.1 81.8 247.8 81.4 C 247.5 80.9 247 80.7 246.3 80.7 C 245.7 80.7 245.2 80.9 244.8 81.1 C 244.3 81.4 244 81.8 243.8 82.4 C 243.5 83 243.4 83.7 243.4 84.8 C 243.44 84.78 243.4 90.7 243.4 90.7 L 241.5 90.7 Z M 267.7 90.7 C 267.5 90.3 267.3 89.8 267.3 89.3 C 266.6 89.9 265.9 90.3 265.2 90.6 C 264.6 90.8 263.8 91 263.1 91 C 261.8 91 260.9 90.7 260.2 90 C 259.5 89.4 259.2 88.6 259.2 87.7 C 259.2 87.1 259.3 86.6 259.6 86.2 C 259.8 85.7 260.2 85.3 260.6 85.1 C 261 84.8 261.4 84.6 262 84.4 C 262.3 84.3 262.9 84.2 263.7 84.1 C 265.2 83.9 266.4 83.7 267.1 83.5 C 267.1 83.2 267.1 83 267.1 83 C 267.1 82.2 266.9 81.6 266.6 81.3 C 266.1 80.9 265.4 80.6 264.4 80.6 C 263.5 80.6 262.8 80.8 262.4 81.1 C 261.9 81.4 261.6 82 261.4 82.8 C 261.4 82.8 259.5 82.6 259.5 82.6 C 259.7 81.7 260 81.1 260.4 80.6 C 260.8 80.1 261.3 79.7 262.1 79.4 C 262.8 79.2 263.7 79 264.7 79 C 265.6 79 266.4 79.2 267 79.4 C 267.6 79.6 268.1 79.9 268.4 80.2 C 268.7 80.6 268.9 81 269 81.6 C 269 81.9 269.1 82.5 269.1 83.3 C 269.1 83.3 269.1 85.9 269.1 85.9 C 269.1 87.7 269.1 88.9 269.2 89.3 C 269.3 89.8 269.4 90.3 269.7 90.7 C 269.69 90.7 267.7 90.7 267.7 90.7 C 267.7 90.7 267.67 90.7 267.7 90.7 Z M 267.1 85 C 266.4 85.3 265.4 85.5 264 85.7 C 263.2 85.8 262.6 86 262.3 86.1 C 261.9 86.2 261.7 86.4 261.5 86.7 C 261.3 87 261.2 87.3 261.2 87.6 C 261.2 88.2 261.4 88.6 261.8 88.9 C 262.2 89.3 262.8 89.4 263.5 89.4 C 264.3 89.4 265 89.3 265.5 89 C 266.1 88.6 266.5 88.2 266.8 87.6 C 267 87.2 267.1 86.5 267.1 85.7 C 267.1 85.7 267.1 85 267.1 85 Z M 272.1 90.7 L 272.1 79.3 L 273.8 79.3 C 273.8 79.3 273.79 81.02 273.8 81 C 274.2 80.2 274.6 79.7 275 79.4 C 275.4 79.2 275.8 79 276.3 79 C 276.9 79 277.6 79.2 278.2 79.7 C 278.2 79.7 277.6 81.5 277.6 81.5 C 277.1 81.2 276.6 81 276.2 81 C 275.7 81 275.4 81.2 275 81.4 C 274.7 81.7 274.4 82 274.3 82.5 C 274.1 83.2 274 83.9 274 84.7 C 273.98 84.73 274 90.7 274 90.7 L 272.1 90.7 Z M 279.4 77.2 L 279.4 75 L 281.3 75 L 281.3 77.2 L 279.4 77.2 Z M 279.4 90.7 L 279.4 79.3 L 281.3 79.3 L 281.3 90.7 L 279.4 90.7 Z M 283.5 87.3 C 283.5 87.3 285.4 87 285.4 87 C 285.5 87.8 285.8 88.4 286.3 88.8 C 286.8 89.2 287.5 89.4 288.4 89.4 C 289.3 89.4 289.9 89.2 290.4 88.8 C 290.8 88.5 291 88 291 87.6 C 291 87.1 290.8 86.8 290.4 86.5 C 290.2 86.4 289.5 86.1 288.5 85.9 C 287 85.5 286.1 85.2 285.5 84.9 C 285 84.7 284.5 84.3 284.3 83.9 C 284 83.4 283.8 82.9 283.8 82.3 C 283.8 81.8 284 81.3 284.2 80.9 C 284.4 80.5 284.7 80.1 285.1 79.8 C 285.4 79.6 285.8 79.4 286.4 79.3 C 286.9 79.1 287.4 79 288 79 C 288.9 79 289.7 79.2 290.4 79.4 C 291.1 79.7 291.6 80 291.9 80.5 C 292.2 80.9 292.4 81.5 292.6 82.2 C 292.6 82.2 290.7 82.5 290.7 82.5 C 290.6 81.9 290.3 81.5 289.9 81.1 C 289.5 80.8 288.9 80.6 288.2 80.6 C 287.3 80.6 286.7 80.8 286.3 81.1 C 285.9 81.4 285.7 81.7 285.7 82.1 C 285.7 82.3 285.8 82.6 285.9 82.8 C 286.1 83 286.3 83.2 286.7 83.3 C 286.9 83.4 287.4 83.5 288.4 83.8 C 289.8 84.2 290.7 84.4 291.3 84.7 C 291.8 84.9 292.2 85.3 292.5 85.7 C 292.8 86.1 293 86.7 293 87.4 C 293 88 292.8 88.6 292.4 89.2 C 292 89.7 291.5 90.2 290.8 90.5 C 290.1 90.8 289.3 91 288.4 91 C 286.9 91 285.8 90.7 285 90 C 284.2 89.4 283.7 88.5 283.5 87.3 Z M 295.3 77.2 L 295.3 75 L 297.2 75 L 297.2 77.2 L 295.3 77.2 Z M 295.3 90.7 L 295.3 79.3 L 297.2 79.3 L 297.2 90.7 L 295.3 90.7 Z M 300.2 90.7 L 300.2 79.3 L 301.9 79.3 C 301.9 79.3 301.91 80.92 301.9 80.9 C 302.8 79.7 304 79 305.5 79 C 306.2 79 306.9 79.2 307.4 79.4 C 308 79.7 308.4 80 308.7 80.4 C 309 80.8 309.2 81.3 309.3 81.8 C 309.4 82.2 309.4 82.8 309.4 83.7 C 309.44 83.69 309.4 90.7 309.4 90.7 L 307.5 90.7 C 307.5 90.7 307.51 83.76 307.5 83.8 C 307.5 83 307.4 82.4 307.3 82 C 307.1 81.6 306.9 81.3 306.5 81.1 C 306.1 80.8 305.7 80.7 305.1 80.7 C 304.3 80.7 303.6 81 303 81.5 C 302.4 82 302.1 83 302.1 84.5 C 302.11 84.47 302.1 90.7 302.1 90.7 L 300.2 90.7 Z M 312.1 91.6 C 312.1 91.6 313.9 91.9 313.9 91.9 C 314 92.5 314.2 92.9 314.6 93.2 C 315.1 93.6 315.7 93.7 316.6 93.7 C 317.5 93.7 318.1 93.6 318.6 93.2 C 319.1 92.8 319.4 92.3 319.6 91.7 C 319.7 91.3 319.8 90.5 319.8 89.2 C 318.9 90.2 317.9 90.7 316.6 90.7 C 315 90.7 313.8 90.1 313 89 C 312.1 87.9 311.7 86.5 311.7 84.9 C 311.7 83.8 311.9 82.8 312.3 81.9 C 312.7 81 313.2 80.3 314 79.8 C 314.7 79.3 315.6 79 316.6 79 C 318 79 319.1 79.6 319.9 80.7 C 319.94 80.67 319.9 79.3 319.9 79.3 L 321.7 79.3 C 321.7 79.3 321.72 89.16 321.7 89.2 C 321.7 90.9 321.5 92.2 321.2 92.9 C 320.8 93.7 320.2 94.3 319.5 94.7 C 318.7 95.1 317.7 95.3 316.6 95.3 C 315.2 95.3 314.1 95 313.3 94.4 C 312.4 93.8 312 92.9 312.1 91.6 Z M 313.7 84.8 C 313.7 86.3 314 87.4 314.5 88.1 C 315.1 88.8 315.9 89.1 316.8 89.1 C 317.7 89.1 318.4 88.8 319 88.1 C 319.6 87.4 319.9 86.3 319.9 84.9 C 319.9 83.5 319.6 82.4 319 81.7 C 318.4 81 317.6 80.6 316.7 80.6 C 315.9 80.6 315.2 81 314.6 81.7 C 314 82.4 313.7 83.4 313.7 84.8 Z M 325.1 90.7 L 325.1 88.5 L 327.4 88.5 C 327.4 88.5 327.35 90.7 327.4 90.7 C 327.4 91.5 327.2 92.2 326.9 92.7 C 326.6 93.2 326.2 93.5 325.6 93.8 C 325.6 93.8 325 93 325 93 C 325.4 92.8 325.7 92.5 325.9 92.2 C 326.1 91.9 326.2 91.4 326.2 90.7 C 326.25 90.7 325.1 90.7 325.1 90.7 Z " stroke="none" fill="#000"/>  </g>  <g id="Polygon7733">    <path d="M 51.5 48.6 L 53.6 48.6 C 53.6 48.6 53.6 57.65 53.6 57.7 C 53.6 59.2 53.4 60.5 53.1 61.4 C 52.7 62.4 52.1 63.1 51.1 63.7 C 50.2 64.3 49 64.6 47.4 64.6 C 46 64.6 44.8 64.3 43.8 63.8 C 42.9 63.3 42.2 62.6 41.8 61.6 C 41.4 60.6 41.2 59.3 41.2 57.7 C 41.21 57.65 41.2 48.6 41.2 48.6 L 43.3 48.6 C 43.3 48.6 43.3 57.64 43.3 57.6 C 43.3 59 43.4 60 43.7 60.7 C 43.9 61.3 44.4 61.8 45 62.2 C 45.6 62.5 46.4 62.7 47.3 62.7 C 48.8 62.7 49.9 62.3 50.5 61.7 C 51.2 61 51.5 59.6 51.5 57.6 C 51.51 57.64 51.5 48.6 51.5 48.6 Z M 56 60.9 C 56 60.9 58 60.6 58 60.6 C 58.1 61.4 58.4 62 58.9 62.4 C 59.3 62.8 60 63 60.9 63 C 61.8 63 62.5 62.8 62.9 62.4 C 63.3 62.1 63.5 61.6 63.5 61.2 C 63.5 60.7 63.3 60.4 63 60.1 C 62.7 60 62 59.7 61 59.5 C 59.6 59.1 58.6 58.8 58 58.5 C 57.5 58.3 57.1 57.9 56.8 57.5 C 56.5 57 56.4 56.5 56.4 55.9 C 56.4 55.4 56.5 54.9 56.7 54.5 C 57 54.1 57.3 53.7 57.7 53.4 C 58 53.2 58.4 53 58.9 52.9 C 59.4 52.7 60 52.6 60.6 52.6 C 61.5 52.6 62.3 52.8 62.9 53 C 63.6 53.3 64.1 53.6 64.4 54.1 C 64.7 54.5 65 55.1 65.1 55.8 C 65.1 55.8 63.2 56.1 63.2 56.1 C 63.1 55.5 62.9 55.1 62.5 54.7 C 62 54.4 61.5 54.2 60.7 54.2 C 59.8 54.2 59.2 54.4 58.8 54.7 C 58.4 55 58.2 55.3 58.2 55.7 C 58.2 55.9 58.3 56.2 58.5 56.4 C 58.6 56.6 58.9 56.8 59.2 56.9 C 59.4 57 60 57.1 60.9 57.4 C 62.3 57.8 63.2 58 63.8 58.3 C 64.3 58.5 64.8 58.9 65.1 59.3 C 65.4 59.7 65.5 60.3 65.5 61 C 65.5 61.6 65.3 62.2 65 62.8 C 64.6 63.3 64 63.8 63.3 64.1 C 62.6 64.4 61.8 64.6 60.9 64.6 C 59.4 64.6 58.3 64.3 57.5 63.6 C 56.8 63 56.3 62.1 56 60.9 Z M 75.6 60.6 C 75.6 60.6 77.6 60.9 77.6 60.9 C 77.3 62 76.7 63 75.9 63.6 C 75 64.2 73.9 64.6 72.6 64.6 C 70.9 64.6 69.6 64 68.6 63 C 67.7 62 67.2 60.6 67.2 58.7 C 67.2 56.8 67.7 55.3 68.7 54.2 C 69.6 53.2 70.9 52.6 72.5 52.6 C 74 52.6 75.3 53.2 76.2 54.2 C 77.2 55.2 77.7 56.7 77.7 58.6 C 77.7 58.7 77.7 58.9 77.7 59.1 C 77.7 59.1 69.2 59.1 69.2 59.1 C 69.2 60.3 69.6 61.3 70.2 62 C 70.9 62.6 71.7 63 72.6 63 C 73.3 63 73.9 62.8 74.4 62.4 C 74.9 62 75.3 61.4 75.6 60.6 Z M 69.3 57.5 C 69.3 57.5 75.7 57.5 75.7 57.5 C 75.6 56.5 75.3 55.8 74.9 55.3 C 74.3 54.6 73.5 54.2 72.5 54.2 C 71.6 54.2 70.9 54.5 70.3 55.1 C 69.7 55.7 69.3 56.5 69.3 57.5 Z M 87.5 64.3 C 87.5 64.3 87.46 62.86 87.5 62.9 C 86.7 64 85.7 64.6 84.3 64.6 C 83.4 64.6 82.5 64.3 81.8 63.8 C 81 63.3 80.4 62.6 80 61.7 C 79.6 60.8 79.4 59.8 79.4 58.6 C 79.4 57.5 79.5 56.4 79.9 55.5 C 80.3 54.6 80.9 53.9 81.6 53.4 C 82.4 52.9 83.2 52.6 84.2 52.6 C 84.9 52.6 85.5 52.8 86 53.1 C 86.6 53.4 87 53.7 87.3 54.2 C 87.33 54.21 87.3 48.6 87.3 48.6 L 89.3 48.6 L 89.3 64.3 L 87.5 64.3 Z M 81.3 58.6 C 81.3 60.1 81.7 61.2 82.3 61.9 C 82.9 62.6 83.6 63 84.4 63 C 85.3 63 86 62.6 86.6 61.9 C 87.2 61.2 87.5 60.2 87.5 58.8 C 87.5 57.2 87.2 56.1 86.6 55.3 C 86 54.6 85.2 54.2 84.4 54.2 C 83.5 54.2 82.8 54.6 82.2 55.3 C 81.6 56 81.3 57.1 81.3 58.6 Z M 98.9 64.3 L 98.9 54.4 L 97.2 54.4 L 97.2 52.9 L 98.9 52.9 C 98.9 52.9 98.87 51.68 98.9 51.7 C 98.9 50.9 98.9 50.3 99.1 50 C 99.3 49.5 99.6 49.1 100.1 48.8 C 100.5 48.4 101.2 48.3 102 48.3 C 102.6 48.3 103.2 48.4 103.8 48.5 C 103.8 48.5 103.5 50.2 103.5 50.2 C 103.1 50.1 102.8 50.1 102.4 50.1 C 101.8 50.1 101.4 50.2 101.2 50.4 C 100.9 50.7 100.8 51.2 100.8 51.8 C 100.79 51.84 100.8 52.9 100.8 52.9 L 103 52.9 L 103 54.4 L 100.8 54.4 L 100.8 64.3 L 98.9 64.3 Z M 103.8 58.6 C 103.8 56.5 104.4 54.9 105.6 53.9 C 106.5 53.1 107.7 52.6 109.1 52.6 C 110.7 52.6 112 53.2 113 54.2 C 114 55.2 114.5 56.6 114.5 58.4 C 114.5 59.9 114.3 61.1 113.8 61.9 C 113.4 62.7 112.7 63.4 111.9 63.9 C 111.1 64.3 110.1 64.6 109.1 64.6 C 107.5 64.6 106.3 64 105.3 63 C 104.3 62 103.8 60.5 103.8 58.6 Z M 105.8 58.6 C 105.8 60.1 106.1 61.2 106.7 61.9 C 107.4 62.6 108.2 63 109.1 63 C 110.1 63 110.9 62.6 111.5 61.9 C 112.2 61.1 112.5 60 112.5 58.5 C 112.5 57.1 112.2 56.1 111.5 55.3 C 110.9 54.6 110.1 54.2 109.1 54.2 C 108.2 54.2 107.4 54.6 106.7 55.3 C 106.1 56 105.8 57.1 105.8 58.6 Z M 116.7 64.3 L 116.7 52.9 L 118.5 52.9 C 118.5 52.9 118.47 54.62 118.5 54.6 C 118.9 53.8 119.3 53.3 119.7 53 C 120.1 52.8 120.5 52.6 120.9 52.6 C 121.6 52.6 122.3 52.8 122.9 53.3 C 122.9 53.3 122.3 55.1 122.3 55.1 C 121.8 54.8 121.3 54.6 120.8 54.6 C 120.4 54.6 120 54.8 119.7 55 C 119.4 55.3 119.1 55.6 119 56.1 C 118.8 56.8 118.7 57.5 118.7 58.3 C 118.66 58.33 118.7 64.3 118.7 64.3 L 116.7 64.3 Z M 130.2 68.7 L 130.2 52.9 L 132 52.9 C 132 52.9 131.95 54.38 132 54.4 C 132.4 53.8 132.8 53.4 133.4 53.1 C 133.9 52.8 134.5 52.6 135.3 52.6 C 136.2 52.6 137.1 52.9 137.8 53.4 C 138.6 53.9 139.1 54.6 139.5 55.5 C 139.9 56.4 140.1 57.4 140.1 58.5 C 140.1 59.7 139.9 60.7 139.5 61.7 C 139 62.6 138.4 63.3 137.6 63.8 C 136.8 64.3 136 64.6 135.1 64.6 C 134.5 64.6 133.9 64.4 133.4 64.2 C 132.9 63.9 132.5 63.5 132.1 63.1 C 132.12 63.12 132.1 68.7 132.1 68.7 L 130.2 68.7 Z M 131.9 58.7 C 131.9 60.1 132.2 61.2 132.8 61.9 C 133.4 62.6 134.1 63 135 63 C 135.9 63 136.6 62.6 137.2 61.9 C 137.8 61.2 138.1 60 138.1 58.5 C 138.1 57 137.8 56 137.2 55.2 C 136.6 54.5 135.9 54.2 135.1 54.2 C 134.3 54.2 133.5 54.5 132.9 55.3 C 132.3 56.1 131.9 57.2 131.9 58.7 Z M 142.4 64.3 L 142.4 52.9 L 144.1 52.9 C 144.1 52.9 144.14 54.62 144.1 54.6 C 144.6 53.8 145 53.3 145.4 53 C 145.7 52.8 146.2 52.6 146.6 52.6 C 147.3 52.6 147.9 52.8 148.6 53.3 C 148.6 53.3 147.9 55.1 147.9 55.1 C 147.5 54.8 147 54.6 146.5 54.6 C 146.1 54.6 145.7 54.8 145.4 55 C 145 55.3 144.8 55.6 144.7 56.1 C 144.4 56.8 144.3 57.5 144.3 58.3 C 144.34 58.33 144.3 64.3 144.3 64.3 L 142.4 64.3 Z M 149 58.6 C 149 56.5 149.6 54.9 150.8 53.9 C 151.8 53.1 153 52.6 154.4 52.6 C 155.9 52.6 157.2 53.2 158.2 54.2 C 159.2 55.2 159.7 56.6 159.7 58.4 C 159.7 59.9 159.5 61.1 159.1 61.9 C 158.6 62.7 158 63.4 157.1 63.9 C 156.3 64.3 155.4 64.6 154.4 64.6 C 152.8 64.6 151.5 64 150.5 63 C 149.5 62 149 60.5 149 58.6 Z M 151 58.6 C 151 60.1 151.3 61.2 152 61.9 C 152.6 62.6 153.4 63 154.4 63 C 155.3 63 156.1 62.6 156.8 61.9 C 157.4 61.1 157.7 60 157.7 58.5 C 157.7 57.1 157.4 56.1 156.8 55.3 C 156.1 54.6 155.3 54.2 154.4 54.2 C 153.4 54.2 152.6 54.6 152 55.3 C 151.3 56 151 57.1 151 58.6 Z M 162 64.3 L 162 52.9 L 163.7 52.9 C 163.7 52.9 163.72 54.5 163.7 54.5 C 164.1 53.9 164.6 53.5 165.1 53.1 C 165.7 52.8 166.4 52.6 167.2 52.6 C 168 52.6 168.7 52.8 169.3 53.2 C 169.8 53.5 170.2 54 170.4 54.6 C 171.3 53.3 172.5 52.6 173.9 52.6 C 175.1 52.6 175.9 53 176.5 53.6 C 177.1 54.2 177.4 55.2 177.4 56.5 C 177.44 56.47 177.4 64.3 177.4 64.3 L 175.5 64.3 C 175.5 64.3 175.52 57.12 175.5 57.1 C 175.5 56.3 175.5 55.8 175.3 55.4 C 175.2 55.1 175 54.8 174.7 54.6 C 174.3 54.4 173.9 54.3 173.5 54.3 C 172.7 54.3 172 54.6 171.5 55.1 C 171 55.6 170.7 56.5 170.7 57.7 C 170.7 57.68 170.7 64.3 170.7 64.3 L 168.8 64.3 C 168.8 64.3 168.76 56.89 168.8 56.9 C 168.8 56 168.6 55.4 168.3 55 C 168 54.5 167.5 54.3 166.7 54.3 C 166.2 54.3 165.7 54.5 165.2 54.7 C 164.8 55 164.4 55.4 164.2 56 C 164 56.6 163.9 57.3 163.9 58.4 C 163.92 58.38 163.9 64.3 163.9 64.3 L 162 64.3 Z M 180.3 68.7 L 180.3 52.9 L 182.1 52.9 C 182.1 52.9 182.07 54.38 182.1 54.4 C 182.5 53.8 183 53.4 183.5 53.1 C 184 52.8 184.6 52.6 185.4 52.6 C 186.4 52.6 187.2 52.9 188 53.4 C 188.7 53.9 189.3 54.6 189.6 55.5 C 190 56.4 190.2 57.4 190.2 58.5 C 190.2 59.7 190 60.7 189.6 61.7 C 189.2 62.6 188.6 63.3 187.8 63.8 C 187 64.3 186.1 64.6 185.2 64.6 C 184.6 64.6 184 64.4 183.5 64.2 C 183 63.9 182.6 63.5 182.2 63.1 C 182.25 63.12 182.2 68.7 182.2 68.7 L 180.3 68.7 Z M 182.1 58.7 C 182.1 60.1 182.4 61.2 183 61.9 C 183.5 62.6 184.3 63 185.1 63 C 186 63 186.7 62.6 187.3 61.9 C 187.9 61.2 188.2 60 188.2 58.5 C 188.2 57 187.9 56 187.3 55.2 C 186.7 54.5 186 54.2 185.2 54.2 C 184.4 54.2 183.6 54.5 183 55.3 C 182.4 56.1 182.1 57.2 182.1 58.7 Z M 195.9 62.6 C 196.1 62.6 196.4 62.6 196.8 62.6 C 196.8 62.6 197 64.3 197 64.3 C 196.5 64.4 196 64.5 195.6 64.5 C 194.9 64.5 194.3 64.3 194 64.1 C 193.6 63.9 193.3 63.6 193.1 63.2 C 193 62.9 192.9 62.1 192.9 61 C 192.9 60.96 192.9 54.4 192.9 54.4 L 191.5 54.4 L 191.5 52.9 L 192.9 52.9 L 192.9 50.1 L 194.8 48.9 L 194.8 52.9 L 196.8 52.9 L 196.8 54.4 L 194.8 54.4 C 194.8 54.4 194.83 61.07 194.8 61.1 C 194.8 61.6 194.9 62 194.9 62.1 C 195 62.3 195.1 62.4 195.3 62.5 C 195.4 62.6 195.6 62.6 195.9 62.6 C 195.9 62.6 195.9 62.6 195.9 62.6 Z M 212.6 60.6 C 212.6 60.6 214.6 60.9 214.6 60.9 C 214.3 62 213.7 63 212.8 63.6 C 212 64.2 210.9 64.6 209.6 64.6 C 207.9 64.6 206.6 64 205.6 63 C 204.6 62 204.1 60.6 204.1 58.7 C 204.1 56.8 204.6 55.3 205.6 54.2 C 206.6 53.2 207.9 52.6 209.5 52.6 C 211 52.6 212.2 53.2 213.2 54.2 C 214.2 55.2 214.6 56.7 214.6 58.6 C 214.6 58.7 214.6 58.9 214.6 59.1 C 214.6 59.1 206.1 59.1 206.1 59.1 C 206.2 60.3 206.6 61.3 207.2 62 C 207.8 62.6 208.6 63 209.6 63 C 210.3 63 210.9 62.8 211.4 62.4 C 211.9 62 212.3 61.4 212.6 60.6 Z M 206.2 57.5 C 206.2 57.5 212.6 57.5 212.6 57.5 C 212.5 56.5 212.3 55.8 211.9 55.3 C 211.3 54.6 210.5 54.2 209.5 54.2 C 208.6 54.2 207.8 54.5 207.2 55.1 C 206.6 55.7 206.3 56.5 206.2 57.5 Z M 217 64.3 L 217 52.9 L 218.7 52.9 C 218.7 52.9 218.75 54.52 218.7 54.5 C 219.6 53.3 220.8 52.6 222.4 52.6 C 223.1 52.6 223.7 52.8 224.3 53 C 224.9 53.3 225.3 53.6 225.6 54 C 225.9 54.4 226.1 54.9 226.2 55.4 C 226.2 55.8 226.3 56.4 226.3 57.3 C 226.28 57.29 226.3 64.3 226.3 64.3 L 224.3 64.3 C 224.3 64.3 224.34 57.36 224.3 57.4 C 224.3 56.6 224.3 56 224.1 55.6 C 224 55.2 223.7 54.9 223.3 54.7 C 222.9 54.4 222.5 54.3 222 54.3 C 221.1 54.3 220.4 54.6 219.8 55.1 C 219.2 55.6 218.9 56.6 218.9 58.1 C 218.94 58.07 218.9 64.3 218.9 64.3 L 217 64.3 Z M 228.9 65.2 C 228.9 65.2 230.8 65.5 230.8 65.5 C 230.8 66.1 231.1 66.5 231.4 66.8 C 231.9 67.2 232.6 67.3 233.4 67.3 C 234.3 67.3 235 67.2 235.5 66.8 C 235.9 66.4 236.3 65.9 236.5 65.3 C 236.6 64.9 236.6 64.1 236.6 62.8 C 235.7 63.8 234.7 64.3 233.4 64.3 C 231.9 64.3 230.7 63.7 229.8 62.6 C 228.9 61.5 228.5 60.1 228.5 58.5 C 228.5 57.4 228.7 56.4 229.1 55.5 C 229.5 54.6 230.1 53.9 230.8 53.4 C 231.6 52.9 232.4 52.6 233.4 52.6 C 234.8 52.6 235.9 53.2 236.8 54.3 C 236.77 54.27 236.8 52.9 236.8 52.9 L 238.6 52.9 C 238.6 52.9 238.56 62.76 238.6 62.8 C 238.6 64.5 238.4 65.8 238 66.5 C 237.7 67.3 237.1 67.9 236.3 68.3 C 235.5 68.7 234.5 68.9 233.4 68.9 C 232 68.9 230.9 68.6 230.1 68 C 229.3 67.4 228.9 66.5 228.9 65.2 Z M 230.5 58.4 C 230.5 59.9 230.8 61 231.4 61.7 C 232 62.4 232.7 62.7 233.6 62.7 C 234.5 62.7 235.2 62.4 235.8 61.7 C 236.5 61 236.8 59.9 236.8 58.5 C 236.8 57.1 236.4 56 235.8 55.3 C 235.2 54.6 234.5 54.2 233.6 54.2 C 232.7 54.2 232 54.6 231.4 55.3 C 230.8 56 230.5 57 230.5 58.4 Z M 241.5 50.8 L 241.5 48.6 L 243.4 48.6 L 243.4 50.8 L 241.5 50.8 Z M 241.5 64.3 L 241.5 52.9 L 243.4 52.9 L 243.4 64.3 L 241.5 64.3 Z M 246.4 64.3 L 246.4 52.9 L 248.1 52.9 C 248.1 52.9 248.11 54.52 248.1 54.5 C 248.9 53.3 250.2 52.6 251.7 52.6 C 252.4 52.6 253.1 52.8 253.6 53 C 254.2 53.3 254.6 53.6 254.9 54 C 255.2 54.4 255.4 54.9 255.5 55.4 C 255.6 55.8 255.6 56.4 255.6 57.3 C 255.64 57.29 255.6 64.3 255.6 64.3 L 253.7 64.3 C 253.7 64.3 253.7 57.36 253.7 57.4 C 253.7 56.6 253.6 56 253.5 55.6 C 253.3 55.2 253.1 54.9 252.7 54.7 C 252.3 54.4 251.8 54.3 251.3 54.3 C 250.5 54.3 249.8 54.6 249.2 55.1 C 248.6 55.6 248.3 56.6 248.3 58.1 C 248.3 58.07 248.3 64.3 248.3 64.3 L 246.4 64.3 Z M 266.4 60.6 C 266.4 60.6 268.4 60.9 268.4 60.9 C 268.1 62 267.5 63 266.7 63.6 C 265.8 64.2 264.7 64.6 263.4 64.6 C 261.7 64.6 260.4 64 259.4 63 C 258.4 62 258 60.6 258 58.7 C 258 56.8 258.5 55.3 259.4 54.2 C 260.4 53.2 261.7 52.6 263.3 52.6 C 264.8 52.6 266.1 53.2 267 54.2 C 268 55.2 268.5 56.7 268.5 58.6 C 268.5 58.7 268.5 58.9 268.5 59.1 C 268.5 59.1 260 59.1 260 59.1 C 260 60.3 260.4 61.3 261 62 C 261.7 62.6 262.5 63 263.4 63 C 264.1 63 264.7 62.8 265.2 62.4 C 265.7 62 266.1 61.4 266.4 60.6 Z M 260.1 57.5 C 260.1 57.5 266.4 57.5 266.4 57.5 C 266.3 56.5 266.1 55.8 265.7 55.3 C 265.1 54.6 264.3 54.2 263.3 54.2 C 262.4 54.2 261.7 54.5 261.1 55.1 C 260.5 55.7 260.1 56.5 260.1 57.5 Z M 278.6 60.6 C 278.6 60.6 280.6 60.9 280.6 60.9 C 280.3 62 279.7 63 278.9 63.6 C 278 64.2 277 64.6 275.6 64.6 C 274 64.6 272.6 64 271.7 63 C 270.7 62 270.2 60.6 270.2 58.7 C 270.2 56.8 270.7 55.3 271.7 54.2 C 272.7 53.2 273.9 52.6 275.5 52.6 C 277 52.6 278.3 53.2 279.3 54.2 C 280.2 55.2 280.7 56.7 280.7 58.6 C 280.7 58.7 280.7 58.9 280.7 59.1 C 280.7 59.1 272.2 59.1 272.2 59.1 C 272.3 60.3 272.6 61.3 273.3 62 C 273.9 62.6 274.7 63 275.6 63 C 276.3 63 277 62.8 277.5 62.4 C 278 62 278.4 61.4 278.6 60.6 Z M 272.3 57.5 C 272.3 57.5 278.7 57.5 278.7 57.5 C 278.6 56.5 278.3 55.8 277.9 55.3 C 277.3 54.6 276.5 54.2 275.5 54.2 C 274.7 54.2 273.9 54.5 273.3 55.1 C 272.7 55.7 272.4 56.5 272.3 57.5 Z M 283.1 64.3 L 283.1 52.9 L 284.8 52.9 C 284.8 52.9 284.79 54.62 284.8 54.6 C 285.2 53.8 285.6 53.3 286 53 C 286.4 52.8 286.8 52.6 287.3 52.6 C 287.9 52.6 288.6 52.8 289.2 53.3 C 289.2 53.3 288.6 55.1 288.6 55.1 C 288.1 54.8 287.6 54.6 287.2 54.6 C 286.7 54.6 286.4 54.8 286 55 C 285.7 55.3 285.4 55.6 285.3 56.1 C 285.1 56.8 285 57.5 285 58.3 C 284.98 58.33 285 64.3 285 64.3 L 283.1 64.3 Z M 290.4 50.8 L 290.4 48.6 L 292.3 48.6 L 292.3 50.8 L 290.4 50.8 Z M 290.4 64.3 L 290.4 52.9 L 292.3 52.9 L 292.3 64.3 L 290.4 64.3 Z M 295.3 64.3 L 295.3 52.9 L 297 52.9 C 297 52.9 297.03 54.52 297 54.5 C 297.9 53.3 299.1 52.6 300.7 52.6 C 301.3 52.6 302 52.8 302.6 53 C 303.1 53.3 303.6 53.6 303.8 54 C 304.1 54.4 304.3 54.9 304.4 55.4 C 304.5 55.8 304.6 56.4 304.6 57.3 C 304.56 57.29 304.6 64.3 304.6 64.3 L 302.6 64.3 C 302.6 64.3 302.62 57.36 302.6 57.4 C 302.6 56.6 302.5 56 302.4 55.6 C 302.2 55.2 302 54.9 301.6 54.7 C 301.2 54.4 300.8 54.3 300.2 54.3 C 299.4 54.3 298.7 54.6 298.1 55.1 C 297.5 55.6 297.2 56.6 297.2 58.1 C 297.22 58.07 297.2 64.3 297.2 64.3 L 295.3 64.3 Z M 307.2 65.2 C 307.2 65.2 309 65.5 309 65.5 C 309.1 66.1 309.3 66.5 309.7 66.8 C 310.2 67.2 310.8 67.3 311.7 67.3 C 312.6 67.3 313.3 67.2 313.7 66.8 C 314.2 66.4 314.6 65.9 314.7 65.3 C 314.8 64.9 314.9 64.1 314.9 62.8 C 314 63.8 313 64.3 311.7 64.3 C 310.1 64.3 308.9 63.7 308.1 62.6 C 307.2 61.5 306.8 60.1 306.8 58.5 C 306.8 57.4 307 56.4 307.4 55.5 C 307.8 54.6 308.3 53.9 309.1 53.4 C 309.8 52.9 310.7 52.6 311.7 52.6 C 313.1 52.6 314.2 53.2 315.1 54.3 C 315.05 54.27 315.1 52.9 315.1 52.9 L 316.8 52.9 C 316.8 52.9 316.83 62.76 316.8 62.8 C 316.8 64.5 316.7 65.8 316.3 66.5 C 315.9 67.3 315.4 67.9 314.6 68.3 C 313.8 68.7 312.8 68.9 311.7 68.9 C 310.3 68.9 309.2 68.6 308.4 68 C 307.5 67.4 307.1 66.5 307.2 65.2 Z M 308.8 58.4 C 308.8 59.9 309.1 61 309.7 61.7 C 310.3 62.4 311 62.7 311.9 62.7 C 312.8 62.7 313.5 62.4 314.1 61.7 C 314.7 61 315 59.9 315 58.5 C 315 57.1 314.7 56 314.1 55.3 C 313.5 54.6 312.7 54.2 311.9 54.2 C 311 54.2 310.3 54.6 309.7 55.3 C 309.1 56 308.8 57 308.8 58.4 Z M 320.3 64.3 L 320.3 62.1 L 322.5 62.1 C 322.5 62.1 322.46 64.3 322.5 64.3 C 322.5 65.1 322.3 65.8 322 66.3 C 321.7 66.8 321.3 67.1 320.7 67.4 C 320.7 67.4 320.1 66.6 320.1 66.6 C 320.5 66.4 320.8 66.1 321 65.8 C 321.2 65.5 321.3 65 321.4 64.3 C 321.36 64.3 320.3 64.3 320.3 64.3 Z " stroke="none" fill="#000"/>  </g>  <g id="Polygon7732">    <path d="M 104.6 25.7 L 96.8 25.7 L 95.5 29.4 L 91.4 29.4 L 98.4 9.8 L 103 9.8 L 110 29.4 L 105.9 29.4 L 104.6 25.7 Z M 103.5 22.5 L 100.7 14.4 L 97.9 22.5 L 103.5 22.5 Z M 116.6 9.9 L 116.6 29.4 L 112.6 29.4 L 112.6 9.9 L 116.6 9.9 Z M 139.1 25.7 L 131.3 25.7 L 130 29.4 L 125.9 29.4 L 132.9 9.8 L 137.5 9.8 L 144.5 29.4 L 140.4 29.4 L 139.1 25.7 Z M 138 22.5 L 135.2 14.4 L 132.3 22.5 L 138 22.5 Z M 153.1 29.7 C 151.8 29.7 150.7 29.4 149.7 29 C 148.6 28.5 147.8 27.9 147.3 27.1 C 146.7 26.3 146.3 25.5 146.3 24.5 C 146.3 24.5 150.2 24.5 150.2 24.5 C 150.3 25.1 150.6 25.6 151.1 26 C 151.6 26.4 152.3 26.6 153 26.6 C 153.8 26.6 154.4 26.4 154.8 26.1 C 155.2 25.8 155.4 25.4 155.4 25 C 155.4 24.5 155.2 24.1 154.7 23.8 C 154.1 23.6 153.3 23.3 152.2 23 C 151 22.7 150.1 22.4 149.4 22.1 C 148.6 21.8 148 21.4 147.5 20.8 C 146.9 20.2 146.7 19.3 146.7 18.3 C 146.7 17.4 146.9 16.6 147.4 15.9 C 147.9 15.2 148.6 14.7 149.5 14.3 C 150.5 13.8 151.5 13.6 152.8 13.6 C 154.6 13.6 156.1 14.1 157.2 15 C 158.3 15.9 158.9 17.2 159 18.8 C 159 18.8 155.3 18.8 155.3 18.8 C 155.2 18.1 155 17.7 154.5 17.3 C 154.1 16.9 153.4 16.7 152.7 16.7 C 152 16.7 151.4 16.9 151 17.1 C 150.7 17.4 150.5 17.8 150.5 18.2 C 150.5 18.8 150.7 19.1 151.2 19.4 C 151.8 19.7 152.6 20 153.7 20.2 C 154.8 20.5 155.7 20.8 156.5 21.1 C 157.2 21.4 157.8 21.9 158.3 22.5 C 158.9 23.1 159.2 23.9 159.2 25 C 159.2 25.9 158.9 26.7 158.4 27.4 C 157.9 28.1 157.2 28.6 156.3 29 C 155.4 29.5 154.3 29.7 153.1 29.7 C 153.1 29.7 153.1 29.7 153.1 29.7 Z M 168.3 29.7 C 167.1 29.7 165.9 29.4 164.9 29 C 163.9 28.5 163.1 27.9 162.5 27.1 C 161.9 26.3 161.6 25.5 161.6 24.5 C 161.6 24.5 165.5 24.5 165.5 24.5 C 165.6 25.1 165.9 25.6 166.4 26 C 166.9 26.4 167.5 26.6 168.3 26.6 C 169 26.6 169.6 26.4 170.1 26.1 C 170.5 25.8 170.7 25.4 170.7 25 C 170.7 24.5 170.4 24.1 169.9 23.8 C 169.4 23.6 168.6 23.3 167.5 23 C 166.3 22.7 165.4 22.4 164.6 22.1 C 163.9 21.8 163.2 21.4 162.7 20.8 C 162.2 20.2 161.9 19.3 161.9 18.3 C 161.9 17.4 162.2 16.6 162.7 15.9 C 163.2 15.2 163.9 14.7 164.8 14.3 C 165.7 13.8 166.8 13.6 168 13.6 C 169.9 13.6 171.4 14.1 172.5 15 C 173.6 15.9 174.2 17.2 174.3 18.8 C 174.3 18.8 170.5 18.8 170.5 18.8 C 170.5 18.1 170.2 17.7 169.8 17.3 C 169.3 16.9 168.7 16.7 167.9 16.7 C 167.2 16.7 166.7 16.9 166.3 17.1 C 165.9 17.4 165.7 17.8 165.7 18.2 C 165.7 18.8 166 19.1 166.5 19.4 C 167 19.7 167.8 20 168.9 20.2 C 170.1 20.5 171 20.8 171.7 21.1 C 172.4 21.4 173.1 21.9 173.6 22.5 C 174.1 23.1 174.4 23.9 174.4 25 C 174.4 25.9 174.2 26.7 173.7 27.4 C 173.2 28.1 172.5 28.6 171.6 29 C 170.6 29.5 169.6 29.7 168.3 29.7 C 168.3 29.7 168.3 29.7 168.3 29.7 Z M 179.6 12 C 178.9 12 178.4 11.8 177.9 11.4 C 177.5 10.9 177.2 10.4 177.2 9.7 C 177.2 9.1 177.5 8.5 177.9 8.1 C 178.4 7.7 178.9 7.4 179.6 7.4 C 180.3 7.4 180.9 7.7 181.4 8.1 C 181.8 8.5 182 9.1 182 9.7 C 182 10.4 181.8 10.9 181.4 11.4 C 180.9 11.8 180.3 12 179.6 12 C 179.6 12 179.6 12 179.6 12 Z M 181.6 13.9 L 181.6 29.4 L 177.7 29.4 L 177.7 13.9 L 181.6 13.9 Z M 191.4 29.7 C 190.1 29.7 189 29.4 188 29 C 186.9 28.5 186.2 27.9 185.6 27.1 C 185 26.3 184.7 25.5 184.6 24.5 C 184.6 24.5 188.5 24.5 188.5 24.5 C 188.6 25.1 188.9 25.6 189.4 26 C 189.9 26.4 190.6 26.6 191.3 26.6 C 192.1 26.6 192.7 26.4 193.1 26.1 C 193.5 25.8 193.7 25.4 193.7 25 C 193.7 24.5 193.5 24.1 193 23.8 C 192.4 23.6 191.6 23.3 190.5 23 C 189.3 22.7 188.4 22.4 187.7 22.1 C 186.9 21.8 186.3 21.4 185.8 20.8 C 185.2 20.2 185 19.3 185 18.3 C 185 17.4 185.2 16.6 185.7 15.9 C 186.2 15.2 186.9 14.7 187.8 14.3 C 188.8 13.8 189.8 13.6 191.1 13.6 C 192.9 13.6 194.4 14.1 195.5 15 C 196.6 15.9 197.2 17.2 197.3 18.8 C 197.3 18.8 193.6 18.8 193.6 18.8 C 193.5 18.1 193.3 17.7 192.8 17.3 C 192.4 16.9 191.7 16.7 191 16.7 C 190.3 16.7 189.7 16.9 189.3 17.1 C 189 17.4 188.8 17.8 188.8 18.2 C 188.8 18.8 189 19.1 189.6 19.4 C 190.1 19.7 190.9 20 192 20.2 C 193.1 20.5 194 20.8 194.8 21.1 C 195.5 21.4 196.1 21.9 196.7 22.5 C 197.2 23.1 197.5 23.9 197.5 25 C 197.5 25.9 197.2 26.7 196.7 27.4 C 196.2 28.1 195.5 28.6 194.6 29 C 193.7 29.5 192.6 29.7 191.4 29.7 C 191.4 29.7 191.4 29.7 191.4 29.7 Z M 205.3 17.1 C 205.3 17.1 205.26 24.61 205.3 24.6 C 205.3 25.1 205.4 25.5 205.6 25.7 C 205.9 26 206.3 26.1 206.9 26.1 C 206.91 26.1 208.7 26.1 208.7 26.1 L 208.7 29.4 C 208.7 29.4 206.27 29.4 206.3 29.4 C 203 29.4 201.3 27.8 201.3 24.6 C 201.31 24.58 201.3 17.1 201.3 17.1 L 199.5 17.1 L 199.5 13.9 L 201.3 13.9 L 201.3 10.1 L 205.3 10.1 L 205.3 13.9 L 208.7 13.9 L 208.7 17.1 L 205.3 17.1 Z M 210.6 21.6 C 210.6 20 210.9 18.6 211.5 17.4 C 212.1 16.2 213 15.3 214 14.6 C 215.1 14 216.3 13.6 217.6 13.6 C 218.8 13.6 219.8 13.9 220.7 14.3 C 221.5 14.8 222.2 15.4 222.8 16.1 C 222.76 16.1 222.8 13.9 222.8 13.9 L 226.7 13.9 L 226.7 29.4 L 222.8 29.4 C 222.8 29.4 222.76 27.13 222.8 27.1 C 222.3 27.9 221.6 28.5 220.7 28.9 C 219.8 29.4 218.8 29.7 217.6 29.7 C 216.3 29.7 215.1 29.3 214 28.6 C 213 28 212.1 27 211.5 25.8 C 210.9 24.6 210.6 23.2 210.6 21.6 C 210.6 21.6 210.6 21.6 210.6 21.6 Z M 222.8 21.6 C 222.8 20.7 222.6 19.9 222.2 19.2 C 221.8 18.5 221.3 18 220.7 17.6 C 220.1 17.3 219.4 17.1 218.6 17.1 C 217.9 17.1 217.2 17.3 216.6 17.6 C 216 18 215.5 18.5 215.1 19.2 C 214.7 19.8 214.6 20.7 214.6 21.6 C 214.6 22.5 214.7 23.3 215.1 24 C 215.5 24.7 216 25.3 216.6 25.6 C 217.3 26 217.9 26.2 218.6 26.2 C 219.4 26.2 220.1 26 220.7 25.7 C 221.3 25.3 221.8 24.8 222.2 24.1 C 222.6 23.4 222.8 22.6 222.8 21.6 C 222.8 21.6 222.8 21.6 222.8 21.6 Z M 239.1 13.7 C 241 13.7 242.5 14.2 243.6 15.4 C 244.8 16.6 245.3 18.2 245.3 20.3 C 245.33 20.3 245.3 29.4 245.3 29.4 L 241.4 29.4 C 241.4 29.4 241.41 20.83 241.4 20.8 C 241.4 19.6 241.1 18.7 240.5 18 C 239.9 17.3 239 17 238 17 C 236.9 17 236 17.3 235.4 18 C 234.8 18.7 234.5 19.6 234.5 20.8 C 234.46 20.83 234.5 29.4 234.5 29.4 L 230.5 29.4 L 230.5 13.9 L 234.5 13.9 C 234.5 13.9 234.46 15.82 234.5 15.8 C 235 15.1 235.7 14.6 236.5 14.2 C 237.3 13.9 238.2 13.7 239.1 13.7 C 239.1 13.7 239.1 13.7 239.1 13.7 Z M 253.6 17.1 C 253.6 17.1 253.62 24.61 253.6 24.6 C 253.6 25.1 253.7 25.5 254 25.7 C 254.2 26 254.7 26.1 255.3 26.1 C 255.27 26.1 257.1 26.1 257.1 26.1 L 257.1 29.4 C 257.1 29.4 254.62 29.4 254.6 29.4 C 251.3 29.4 249.7 27.8 249.7 24.6 C 249.67 24.58 249.7 17.1 249.7 17.1 L 247.8 17.1 L 247.8 13.9 L 249.7 13.9 L 249.7 10.1 L 253.6 10.1 L 253.6 13.9 L 257.1 13.9 L 257.1 17.1 L 253.6 17.1 Z M 265.9 29.7 C 264.6 29.7 263.4 29.4 262.4 29 C 261.4 28.5 260.6 27.9 260 27.1 C 259.5 26.3 259.1 25.5 259.1 24.5 C 259.1 24.5 263 24.5 263 24.5 C 263.1 25.1 263.4 25.6 263.9 26 C 264.4 26.4 265.1 26.6 265.8 26.6 C 266.6 26.6 267.2 26.4 267.6 26.1 C 268 25.8 268.2 25.4 268.2 25 C 268.2 24.5 267.9 24.1 267.4 23.8 C 266.9 23.6 266.1 23.3 265 23 C 263.8 22.7 262.9 22.4 262.1 22.1 C 261.4 21.8 260.8 21.4 260.2 20.8 C 259.7 20.2 259.4 19.3 259.4 18.3 C 259.4 17.4 259.7 16.6 260.2 15.9 C 260.7 15.2 261.4 14.7 262.3 14.3 C 263.2 13.8 264.3 13.6 265.6 13.6 C 267.4 13.6 268.9 14.1 270 15 C 271.1 15.9 271.7 17.2 271.8 18.8 C 271.8 18.8 268.1 18.8 268.1 18.8 C 268 18.1 267.8 17.7 267.3 17.3 C 266.8 16.9 266.2 16.7 265.5 16.7 C 264.7 16.7 264.2 16.9 263.8 17.1 C 263.4 17.4 263.2 17.8 263.2 18.2 C 263.2 18.8 263.5 19.1 264 19.4 C 264.6 19.7 265.4 20 266.5 20.2 C 267.6 20.5 268.5 20.8 269.2 21.1 C 270 21.4 270.6 21.9 271.1 22.5 C 271.7 23.1 271.9 23.9 272 25 C 272 25.9 271.7 26.7 271.2 27.4 C 270.7 28.1 270 28.6 269.1 29 C 268.2 29.5 267.1 29.7 265.9 29.7 C 265.9 29.7 265.9 29.7 265.9 29.7 Z " stroke="none" fill="#e4007e"/>  </g></svg>