<?xml version="1.0" standalone="no"?><!DOCTYPE svg PUBLIC "-//W3C//DTD SVG 1.1//EN" "http://www.w3.org/Graphics/SVG/1.1/DTD/svg11.dtd"><svg xmlns="http://www.w3.org/2000/svg" version="1.1" width="364px" height="165.6px" viewBox="0 -2 364 165.6" style="top:-2px">  <desc>Provider Recommendation For most learners, the Core Toolkit is fully sufficient to achieve the standard successfully.</desc>  <defs/>  <g id="Polygon6842">    <path d="M 75.2 147.3 C 75.2 147.3 77.1 147 77.1 147 C 77.2 147.8 77.5 148.4 78 148.8 C 78.5 149.2 79.2 149.4 80.1 149.4 C 81 149.4 81.6 149.2 82.1 148.8 C 82.5 148.5 82.7 148 82.7 147.6 C 82.7 147.1 82.5 146.8 82.1 146.5 C 81.9 146.4 81.2 146.1 80.2 145.9 C 78.8 145.5 77.8 145.2 77.2 144.9 C 76.7 144.7 76.3 144.3 76 143.9 C 75.7 143.4 75.5 142.9 75.5 142.3 C 75.5 141.8 75.7 141.3 75.9 140.9 C 76.1 140.5 76.4 140.1 76.8 139.8 C 77.1 139.6 77.6 139.4 78.1 139.3 C 78.6 139.1 79.2 139 79.7 139 C 80.6 139 81.4 139.2 82.1 139.4 C 82.8 139.7 83.3 140 83.6 140.5 C 83.9 140.9 84.2 141.5 84.3 142.2 C 84.3 142.2 82.4 142.5 82.4 142.5 C 82.3 141.9 82 141.5 81.6 141.1 C 81.2 140.8 80.6 140.6 79.9 140.6 C 79 140.6 78.4 140.8 78 141.1 C 77.6 141.4 77.4 141.7 77.4 142.1 C 77.4 142.3 77.5 142.6 77.7 142.8 C 77.8 143 78.1 143.2 78.4 143.3 C 78.6 143.4 79.2 143.5 80.1 143.8 C 81.5 144.2 82.4 144.4 83 144.7 C 83.5 144.9 83.9 145.3 84.2 145.7 C 84.5 146.1 84.7 146.7 84.7 147.4 C 84.7 148 84.5 148.6 84.1 149.2 C 83.8 149.7 83.2 150.2 82.5 150.5 C 81.8 150.8 81 151 80.1 151 C 78.6 151 77.5 150.7 76.7 150 C 75.9 149.4 75.4 148.5 75.2 147.3 Z M 90.4 149 C 90.6 149 90.9 149 91.2 149 C 91.2 149 91.5 150.7 91.5 150.7 C 91 150.8 90.5 150.9 90 150.9 C 89.3 150.9 88.8 150.7 88.4 150.5 C 88 150.3 87.7 150 87.6 149.6 C 87.4 149.3 87.4 148.5 87.4 147.4 C 87.35 147.36 87.4 140.8 87.4 140.8 L 85.9 140.8 L 85.9 139.3 L 87.4 139.3 L 87.4 136.5 L 89.3 135.3 L 89.3 139.3 L 91.2 139.3 L 91.2 140.8 L 89.3 140.8 C 89.3 140.8 89.28 147.47 89.3 147.5 C 89.3 148 89.3 148.4 89.4 148.5 C 89.4 148.7 89.6 148.8 89.7 148.9 C 89.9 149 90.1 149 90.4 149 C 90.4 149 90.4 149 90.4 149 Z M 100.9 150.7 C 100.7 150.3 100.6 149.8 100.6 149.3 C 99.8 149.9 99.2 150.3 98.5 150.6 C 97.8 150.8 97.1 151 96.4 151 C 95.1 151 94.1 150.7 93.5 150 C 92.8 149.4 92.5 148.6 92.5 147.7 C 92.5 147.1 92.6 146.6 92.8 146.2 C 93.1 145.7 93.4 145.3 93.8 145.1 C 94.2 144.8 94.7 144.6 95.2 144.4 C 95.6 144.3 96.2 144.2 96.9 144.1 C 98.5 143.9 99.7 143.7 100.4 143.5 C 100.4 143.2 100.4 143 100.4 143 C 100.4 142.2 100.2 141.6 99.9 141.3 C 99.4 140.9 98.6 140.6 97.7 140.6 C 96.7 140.6 96.1 140.8 95.6 141.1 C 95.2 141.4 94.9 142 94.7 142.8 C 94.7 142.8 92.8 142.6 92.8 142.6 C 93 141.7 93.2 141.1 93.6 140.6 C 94 140.1 94.6 139.7 95.3 139.4 C 96.1 139.2 97 139 97.9 139 C 98.9 139 99.7 139.2 100.3 139.4 C 100.9 139.6 101.4 139.9 101.7 140.2 C 101.9 140.6 102.1 141 102.3 141.6 C 102.3 141.9 102.4 142.5 102.4 143.3 C 102.4 143.3 102.4 145.9 102.4 145.9 C 102.4 147.7 102.4 148.9 102.5 149.3 C 102.6 149.8 102.7 150.3 103 150.7 C 102.96 150.7 100.9 150.7 100.9 150.7 C 100.9 150.7 100.94 150.7 100.9 150.7 Z M 100.4 145 C 99.7 145.3 98.6 145.5 97.2 145.7 C 96.4 145.8 95.9 146 95.6 146.1 C 95.2 146.2 95 146.4 94.8 146.7 C 94.6 147 94.5 147.3 94.5 147.6 C 94.5 148.2 94.7 148.6 95.1 148.9 C 95.5 149.3 96.1 149.4 96.8 149.4 C 97.6 149.4 98.2 149.3 98.8 149 C 99.4 148.6 99.8 148.2 100.1 147.6 C 100.3 147.2 100.4 146.5 100.4 145.7 C 100.4 145.7 100.4 145 100.4 145 Z M 105.3 150.7 L 105.3 139.3 L 107.1 139.3 C 107.1 139.3 107.09 140.92 107.1 140.9 C 107.9 139.7 109.1 139 110.7 139 C 111.4 139 112 139.2 112.6 139.4 C 113.2 139.7 113.6 140 113.9 140.4 C 114.2 140.8 114.4 141.3 114.5 141.8 C 114.6 142.2 114.6 142.8 114.6 143.7 C 114.62 143.69 114.6 150.7 114.6 150.7 L 112.7 150.7 C 112.7 150.7 112.69 143.76 112.7 143.8 C 112.7 143 112.6 142.4 112.5 142 C 112.3 141.6 112 141.3 111.7 141.1 C 111.3 140.8 110.8 140.7 110.3 140.7 C 109.5 140.7 108.8 141 108.2 141.5 C 107.6 142 107.3 143 107.3 144.5 C 107.28 144.47 107.3 150.7 107.3 150.7 L 105.3 150.7 Z M 125 150.7 C 125 150.7 124.98 149.26 125 149.3 C 124.3 150.4 123.2 151 121.8 151 C 120.9 151 120 150.7 119.3 150.2 C 118.5 149.7 117.9 149 117.5 148.1 C 117.1 147.2 116.9 146.2 116.9 145 C 116.9 143.9 117.1 142.8 117.5 141.9 C 117.8 141 118.4 140.3 119.2 139.8 C 119.9 139.3 120.8 139 121.7 139 C 122.4 139 123 139.2 123.5 139.5 C 124.1 139.8 124.5 140.1 124.9 140.6 C 124.86 140.61 124.9 135 124.9 135 L 126.8 135 L 126.8 150.7 L 125 150.7 Z M 118.9 145 C 118.9 146.5 119.2 147.6 119.8 148.3 C 120.4 149 121.1 149.4 122 149.4 C 122.8 149.4 123.5 149 124.1 148.3 C 124.7 147.6 125 146.6 125 145.2 C 125 143.6 124.7 142.5 124.1 141.7 C 123.5 141 122.8 140.6 121.9 140.6 C 121 140.6 120.3 141 119.7 141.7 C 119.2 142.4 118.9 143.5 118.9 145 Z M 137.6 150.7 C 137.4 150.3 137.3 149.8 137.3 149.3 C 136.5 149.9 135.9 150.3 135.2 150.6 C 134.5 150.8 133.8 151 133.1 151 C 131.8 151 130.8 150.7 130.2 150 C 129.5 149.4 129.2 148.6 129.2 147.7 C 129.2 147.1 129.3 146.6 129.5 146.2 C 129.8 145.7 130.1 145.3 130.5 145.1 C 131 144.8 131.4 144.6 131.9 144.4 C 132.3 144.3 132.9 144.2 133.7 144.1 C 135.2 143.9 136.4 143.7 137.1 143.5 C 137.1 143.2 137.1 143 137.1 143 C 137.1 142.2 136.9 141.6 136.6 141.3 C 136.1 140.9 135.3 140.6 134.4 140.6 C 133.5 140.6 132.8 140.8 132.3 141.1 C 131.9 141.4 131.6 142 131.4 142.8 C 131.4 142.8 129.5 142.6 129.5 142.6 C 129.7 141.7 130 141.1 130.3 140.6 C 130.7 140.1 131.3 139.7 132.1 139.4 C 132.8 139.2 133.7 139 134.6 139 C 135.6 139 136.4 139.2 137 139.4 C 137.6 139.6 138.1 139.9 138.4 140.2 C 138.6 140.6 138.8 141 139 141.6 C 139 141.9 139.1 142.5 139.1 143.3 C 139.1 143.3 139.1 145.9 139.1 145.9 C 139.1 147.7 139.1 148.9 139.2 149.3 C 139.3 149.8 139.4 150.3 139.7 150.7 C 139.67 150.7 137.6 150.7 137.6 150.7 C 137.6 150.7 137.65 150.7 137.6 150.7 Z M 137.1 145 C 136.4 145.3 135.3 145.5 133.9 145.7 C 133.1 145.8 132.6 146 132.3 146.1 C 131.9 146.2 131.7 146.4 131.5 146.7 C 131.3 147 131.2 147.3 131.2 147.6 C 131.2 148.2 131.4 148.6 131.8 148.9 C 132.2 149.3 132.8 149.4 133.5 149.4 C 134.3 149.4 134.9 149.3 135.5 149 C 136.1 148.6 136.5 148.2 136.8 147.6 C 137 147.2 137.1 146.5 137.1 145.7 C 137.1 145.7 137.1 145 137.1 145 Z M 142 150.7 L 142 139.3 L 143.8 139.3 C 143.8 139.3 143.77 141.02 143.8 141 C 144.2 140.2 144.6 139.7 145 139.4 C 145.4 139.2 145.8 139 146.2 139 C 146.9 139 147.6 139.2 148.2 139.7 C 148.2 139.7 147.6 141.5 147.6 141.5 C 147.1 141.2 146.6 141 146.1 141 C 145.7 141 145.3 141.2 145 141.4 C 144.7 141.7 144.4 142 144.3 142.5 C 144.1 143.2 144 143.9 144 144.7 C 143.97 144.73 144 150.7 144 150.7 L 142 150.7 Z M 156.8 150.7 C 156.8 150.7 156.78 149.26 156.8 149.3 C 156.1 150.4 155 151 153.6 151 C 152.7 151 151.8 150.7 151.1 150.2 C 150.3 149.7 149.7 149 149.3 148.1 C 148.9 147.2 148.7 146.2 148.7 145 C 148.7 143.9 148.9 142.8 149.3 141.9 C 149.6 141 150.2 140.3 151 139.8 C 151.7 139.3 152.6 139 153.5 139 C 154.2 139 154.8 139.2 155.3 139.5 C 155.9 139.8 156.3 140.1 156.7 140.6 C 156.65 140.61 156.7 135 156.7 135 L 158.6 135 L 158.6 150.7 L 156.8 150.7 Z M 150.7 145 C 150.7 146.5 151 147.6 151.6 148.3 C 152.2 149 152.9 149.4 153.8 149.4 C 154.6 149.4 155.3 149 155.9 148.3 C 156.5 147.6 156.8 146.6 156.8 145.2 C 156.8 143.6 156.5 142.5 155.9 141.7 C 155.3 141 154.6 140.6 153.7 140.6 C 152.8 140.6 152.1 141 151.5 141.7 C 151 142.4 150.7 143.5 150.7 145 Z M 167 147.3 C 167 147.3 168.9 147 168.9 147 C 169 147.8 169.3 148.4 169.8 148.8 C 170.3 149.2 170.9 149.4 171.8 149.4 C 172.7 149.4 173.4 149.2 173.8 148.8 C 174.2 148.5 174.4 148 174.4 147.6 C 174.4 147.1 174.3 146.8 173.9 146.5 C 173.6 146.4 172.9 146.1 171.9 145.9 C 170.5 145.5 169.5 145.2 168.9 144.9 C 168.4 144.7 168 144.3 167.7 143.9 C 167.4 143.4 167.3 142.9 167.3 142.3 C 167.3 141.8 167.4 141.3 167.6 140.9 C 167.9 140.5 168.2 140.1 168.6 139.8 C 168.9 139.6 169.3 139.4 169.8 139.3 C 170.3 139.1 170.9 139 171.5 139 C 172.4 139 173.2 139.2 173.8 139.4 C 174.5 139.7 175 140 175.3 140.5 C 175.7 140.9 175.9 141.5 176 142.2 C 176 142.2 174.1 142.5 174.1 142.5 C 174 141.9 173.8 141.5 173.4 141.1 C 173 140.8 172.4 140.6 171.6 140.6 C 170.7 140.6 170.1 140.8 169.7 141.1 C 169.3 141.4 169.1 141.7 169.1 142.1 C 169.1 142.3 169.2 142.6 169.4 142.8 C 169.5 143 169.8 143.2 170.1 143.3 C 170.3 143.4 170.9 143.5 171.8 143.8 C 173.2 144.2 174.2 144.4 174.7 144.7 C 175.2 144.9 175.7 145.3 176 145.7 C 176.3 146.1 176.4 146.7 176.4 147.4 C 176.4 148 176.2 148.6 175.9 149.2 C 175.5 149.7 174.9 150.2 174.2 150.5 C 173.5 150.8 172.7 151 171.8 151 C 170.3 151 169.2 150.7 168.4 150 C 167.7 149.4 167.2 148.5 167 147.3 Z M 186.2 150.7 C 186.2 150.7 186.2 149.03 186.2 149 C 185.3 150.3 184.1 151 182.6 151 C 181.9 151 181.3 150.8 180.7 150.6 C 180.1 150.3 179.7 150 179.4 149.6 C 179.1 149.2 178.9 148.7 178.8 148.2 C 178.7 147.8 178.7 147.2 178.7 146.4 C 178.69 146.36 178.7 139.3 178.7 139.3 L 180.6 139.3 C 180.6 139.3 180.62 145.62 180.6 145.6 C 180.6 146.6 180.7 147.3 180.7 147.7 C 180.9 148.2 181.1 148.6 181.5 148.9 C 181.9 149.2 182.4 149.3 183 149.3 C 183.6 149.3 184.1 149.1 184.6 148.9 C 185.1 148.6 185.5 148.1 185.7 147.6 C 185.9 147.1 186 146.4 186 145.4 C 186 145.41 186 139.3 186 139.3 L 187.9 139.3 L 187.9 150.7 L 186.2 150.7 Z M 198.4 146.5 C 198.4 146.5 200.3 146.8 200.3 146.8 C 200.1 148.1 199.6 149.1 198.7 149.8 C 197.9 150.6 196.8 151 195.6 151 C 194 151 192.7 150.5 191.8 149.4 C 190.8 148.4 190.4 146.9 190.4 145 C 190.4 143.8 190.6 142.7 191 141.8 C 191.4 140.9 192 140.2 192.8 139.7 C 193.7 139.3 194.6 139 195.6 139 C 196.8 139 197.8 139.4 198.6 140 C 199.4 140.6 199.9 141.5 200.1 142.6 C 200.1 142.6 198.2 142.9 198.2 142.9 C 198.1 142.2 197.8 141.6 197.3 141.2 C 196.8 140.8 196.3 140.6 195.6 140.6 C 194.7 140.6 193.9 141 193.3 141.7 C 192.7 142.4 192.4 143.5 192.4 145 C 192.4 146.5 192.7 147.6 193.2 148.3 C 193.8 149 194.6 149.4 195.5 149.4 C 196.3 149.4 196.9 149.1 197.4 148.7 C 197.9 148.2 198.3 147.5 198.4 146.5 Z M 209.4 146.5 C 209.4 146.5 211.3 146.8 211.3 146.8 C 211.1 148.1 210.6 149.1 209.7 149.8 C 208.9 150.6 207.8 151 206.6 151 C 205 151 203.7 150.5 202.8 149.4 C 201.8 148.4 201.4 146.9 201.4 145 C 201.4 143.8 201.6 142.7 202 141.8 C 202.4 140.9 203 140.2 203.8 139.7 C 204.7 139.3 205.6 139 206.6 139 C 207.8 139 208.8 139.4 209.6 140 C 210.4 140.6 210.9 141.5 211.1 142.6 C 211.1 142.6 209.2 142.9 209.2 142.9 C 209.1 142.2 208.8 141.6 208.3 141.2 C 207.8 140.8 207.3 140.6 206.6 140.6 C 205.7 140.6 204.9 141 204.3 141.7 C 203.7 142.4 203.4 143.5 203.4 145 C 203.4 146.5 203.7 147.6 204.2 148.3 C 204.8 149 205.6 149.4 206.5 149.4 C 207.3 149.4 207.9 149.1 208.4 148.7 C 208.9 148.2 209.3 147.5 209.4 146.5 Z M 220.8 147 C 220.8 147 222.8 147.3 222.8 147.3 C 222.5 148.4 221.9 149.4 221 150 C 220.2 150.6 219.1 151 217.8 151 C 216.1 151 214.8 150.4 213.8 149.4 C 212.8 148.4 212.3 147 212.3 145.1 C 212.3 143.2 212.8 141.7 213.8 140.6 C 214.8 139.6 216.1 139 217.6 139 C 219.2 139 220.4 139.6 221.4 140.6 C 222.4 141.6 222.8 143.1 222.8 145 C 222.8 145.1 222.8 145.3 222.8 145.5 C 222.8 145.5 214.3 145.5 214.3 145.5 C 214.4 146.7 214.7 147.7 215.4 148.4 C 216 149 216.8 149.4 217.8 149.4 C 218.5 149.4 219.1 149.2 219.6 148.8 C 220.1 148.4 220.5 147.8 220.8 147 Z M 214.4 143.9 C 214.4 143.9 220.8 143.9 220.8 143.9 C 220.7 142.9 220.5 142.2 220.1 141.7 C 219.4 141 218.6 140.6 217.7 140.6 C 216.8 140.6 216 140.9 215.4 141.5 C 214.8 142.1 214.5 142.9 214.4 143.9 Z M 224.4 147.3 C 224.4 147.3 226.3 147 226.3 147 C 226.4 147.8 226.7 148.4 227.2 148.8 C 227.7 149.2 228.4 149.4 229.3 149.4 C 230.2 149.4 230.8 149.2 231.3 148.8 C 231.7 148.5 231.9 148 231.9 147.6 C 231.9 147.1 231.7 146.8 231.3 146.5 C 231.1 146.4 230.4 146.1 229.4 145.9 C 227.9 145.5 227 145.2 226.4 144.9 C 225.9 144.7 225.5 144.3 225.2 143.9 C 224.9 143.4 224.7 142.9 224.7 142.3 C 224.7 141.8 224.9 141.3 225.1 140.9 C 225.3 140.5 225.6 140.1 226 139.8 C 226.3 139.6 226.8 139.4 227.3 139.3 C 227.8 139.1 228.4 139 228.9 139 C 229.8 139 230.6 139.2 231.3 139.4 C 232 139.7 232.5 140 232.8 140.5 C 233.1 140.9 233.3 141.5 233.5 142.2 C 233.5 142.2 231.6 142.5 231.6 142.5 C 231.5 141.9 231.2 141.5 230.8 141.1 C 230.4 140.8 229.8 140.6 229.1 140.6 C 228.2 140.6 227.6 140.8 227.2 141.1 C 226.8 141.4 226.6 141.7 226.6 142.1 C 226.6 142.3 226.7 142.6 226.9 142.8 C 227 143 227.3 143.2 227.6 143.3 C 227.8 143.4 228.4 143.5 229.3 143.8 C 230.7 144.2 231.6 144.4 232.2 144.7 C 232.7 144.9 233.1 145.3 233.4 145.7 C 233.7 146.1 233.9 146.7 233.9 147.4 C 233.9 148 233.7 148.6 233.3 149.2 C 233 149.7 232.4 150.2 231.7 150.5 C 231 150.8 230.2 151 229.3 151 C 227.8 151 226.7 150.7 225.9 150 C 225.1 149.4 224.6 148.5 224.4 147.3 Z M 235.4 147.3 C 235.4 147.3 237.3 147 237.3 147 C 237.4 147.8 237.7 148.4 238.2 148.8 C 238.7 149.2 239.4 149.4 240.3 149.4 C 241.2 149.4 241.8 149.2 242.3 148.8 C 242.7 148.5 242.9 148 242.9 147.6 C 242.9 147.1 242.7 146.8 242.3 146.5 C 242.1 146.4 241.4 146.1 240.4 145.9 C 238.9 145.5 238 145.2 237.4 144.9 C 236.9 144.7 236.5 144.3 236.2 143.9 C 235.9 143.4 235.7 142.9 235.7 142.3 C 235.7 141.8 235.9 141.3 236.1 140.9 C 236.3 140.5 236.6 140.1 237 139.8 C 237.3 139.6 237.8 139.4 238.3 139.3 C 238.8 139.1 239.4 139 239.9 139 C 240.8 139 241.6 139.2 242.3 139.4 C 243 139.7 243.5 140 243.8 140.5 C 244.1 140.9 244.3 141.5 244.5 142.2 C 244.5 142.2 242.6 142.5 242.6 142.5 C 242.5 141.9 242.2 141.5 241.8 141.1 C 241.4 140.8 240.8 140.6 240.1 140.6 C 239.2 140.6 238.6 140.8 238.2 141.1 C 237.8 141.4 237.6 141.7 237.6 142.1 C 237.6 142.3 237.7 142.6 237.9 142.8 C 238 143 238.3 143.2 238.6 143.3 C 238.8 143.4 239.4 143.5 240.3 143.8 C 241.7 144.2 242.6 144.4 243.2 144.7 C 243.7 144.9 244.1 145.3 244.4 145.7 C 244.7 146.1 244.9 146.7 244.9 147.4 C 244.9 148 244.7 148.6 244.3 149.2 C 244 149.7 243.4 150.2 242.7 150.5 C 242 150.8 241.2 151 240.3 151 C 238.8 151 237.7 150.7 236.9 150 C 236.1 149.4 235.6 148.5 235.4 147.3 Z M 247.7 150.7 L 247.7 140.8 L 246 140.8 L 246 139.3 L 247.7 139.3 C 247.7 139.3 247.66 138.08 247.7 138.1 C 247.7 137.3 247.7 136.7 247.9 136.4 C 248.1 135.9 248.4 135.5 248.8 135.2 C 249.3 134.8 250 134.7 250.8 134.7 C 251.4 134.7 252 134.8 252.6 134.9 C 252.6 134.9 252.3 136.6 252.3 136.6 C 251.9 136.5 251.6 136.5 251.2 136.5 C 250.6 136.5 250.2 136.6 249.9 136.8 C 249.7 137.1 249.6 137.6 249.6 138.2 C 249.58 138.24 249.6 139.3 249.6 139.3 L 251.8 139.3 L 251.8 140.8 L 249.6 140.8 L 249.6 150.7 L 247.7 150.7 Z M 260.8 150.7 C 260.8 150.7 260.79 149.03 260.8 149 C 259.9 150.3 258.7 151 257.2 151 C 256.5 151 255.9 150.8 255.3 150.6 C 254.7 150.3 254.3 150 254 149.6 C 253.7 149.2 253.5 148.7 253.4 148.2 C 253.3 147.8 253.3 147.2 253.3 146.4 C 253.27 146.36 253.3 139.3 253.3 139.3 L 255.2 139.3 C 255.2 139.3 255.2 145.62 255.2 145.6 C 255.2 146.6 255.2 147.3 255.3 147.7 C 255.4 148.2 255.7 148.6 256.1 148.9 C 256.5 149.2 257 149.3 257.6 149.3 C 258.1 149.3 258.7 149.1 259.2 148.9 C 259.7 148.6 260.1 148.1 260.3 147.6 C 260.5 147.1 260.6 146.4 260.6 145.4 C 260.58 145.41 260.6 139.3 260.6 139.3 L 262.5 139.3 L 262.5 150.7 L 260.8 150.7 Z M 265.5 150.7 L 265.5 135 L 267.4 135 L 267.4 150.7 L 265.5 150.7 Z M 270.4 150.7 L 270.4 135 L 272.3 135 L 272.3 150.7 L 270.4 150.7 Z M 276.5 155.3 C 276.1 155.3 275.7 155.3 275.2 155.1 C 275.2 155.1 275 153.3 275 153.3 C 275.4 153.4 275.8 153.5 276.1 153.5 C 276.6 153.5 276.9 153.4 277.2 153.2 C 277.4 153.1 277.6 152.9 277.8 152.6 C 277.9 152.4 278.1 152 278.4 151.2 C 278.4 151.1 278.5 150.9 278.6 150.7 C 278.56 150.73 274.2 139.3 274.2 139.3 L 276.3 139.3 C 276.3 139.3 278.68 145.9 278.7 145.9 C 279 146.7 279.3 147.6 279.5 148.5 C 279.7 147.7 280 146.8 280.3 145.9 C 280.31 145.94 282.7 139.3 282.7 139.3 L 284.7 139.3 C 284.7 139.3 280.34 150.9 280.3 150.9 C 279.9 152.2 279.5 153 279.3 153.5 C 278.9 154.1 278.5 154.6 278.1 154.9 C 277.6 155.2 277.1 155.3 276.5 155.3 C 276.5 155.3 276.5 155.3 276.5 155.3 Z M 285.2 150.7 L 285.2 148.5 L 287.4 148.5 L 287.4 150.7 L 285.2 150.7 Z " stroke="none" fill="#000"/>  </g>  <g id="Polygon6841">    <path d="M 34.8 110.8 L 34.8 108.6 L 36.8 108.6 L 36.8 110.8 L 34.8 110.8 Z M 34.8 124.3 L 34.8 112.9 L 36.8 112.9 L 36.8 124.3 L 34.8 124.3 Z M 38.9 120.9 C 38.9 120.9 40.9 120.6 40.9 120.6 C 41 121.4 41.3 122 41.7 122.4 C 42.2 122.8 42.9 123 43.8 123 C 44.7 123 45.4 122.8 45.8 122.4 C 46.2 122.1 46.4 121.6 46.4 121.2 C 46.4 120.7 46.2 120.4 45.9 120.1 C 45.6 120 44.9 119.7 43.9 119.5 C 42.5 119.1 41.5 118.8 40.9 118.5 C 40.4 118.3 40 117.9 39.7 117.5 C 39.4 117 39.3 116.5 39.3 115.9 C 39.3 115.4 39.4 114.9 39.6 114.5 C 39.8 114.1 40.2 113.7 40.6 113.4 C 40.9 113.2 41.3 113 41.8 112.9 C 42.3 112.7 42.9 112.6 43.5 112.6 C 44.4 112.6 45.1 112.8 45.8 113 C 46.5 113.3 47 113.6 47.3 114.1 C 47.6 114.5 47.9 115.1 48 115.8 C 48 115.8 46.1 116.1 46.1 116.1 C 46 115.5 45.8 115.1 45.3 114.7 C 44.9 114.4 44.4 114.2 43.6 114.2 C 42.7 114.2 42.1 114.4 41.7 114.7 C 41.3 115 41.1 115.3 41.1 115.7 C 41.1 115.9 41.2 116.2 41.4 116.4 C 41.5 116.6 41.8 116.8 42.1 116.9 C 42.3 117 42.9 117.1 43.8 117.4 C 45.2 117.8 46.1 118 46.7 118.3 C 47.2 118.5 47.6 118.9 48 119.3 C 48.3 119.7 48.4 120.3 48.4 121 C 48.4 121.6 48.2 122.2 47.9 122.8 C 47.5 123.3 46.9 123.8 46.2 124.1 C 45.5 124.4 44.7 124.6 43.8 124.6 C 42.3 124.6 41.2 124.3 40.4 123.6 C 39.7 123 39.2 122.1 38.9 120.9 Z M 57.3 124.3 L 57.3 114.4 L 55.6 114.4 L 55.6 112.9 L 57.3 112.9 C 57.3 112.9 57.29 111.68 57.3 111.7 C 57.3 110.9 57.4 110.3 57.5 110 C 57.7 109.5 58 109.1 58.5 108.8 C 58.9 108.4 59.6 108.3 60.4 108.3 C 61 108.3 61.6 108.4 62.3 108.5 C 62.3 108.5 62 110.2 62 110.2 C 61.6 110.1 61.2 110.1 60.8 110.1 C 60.2 110.1 59.8 110.2 59.6 110.4 C 59.3 110.7 59.2 111.2 59.2 111.8 C 59.21 111.84 59.2 112.9 59.2 112.9 L 61.4 112.9 L 61.4 114.4 L 59.2 114.4 L 59.2 124.3 L 57.3 124.3 Z M 70.4 124.3 C 70.4 124.3 70.41 122.63 70.4 122.6 C 69.5 123.9 68.3 124.6 66.8 124.6 C 66.1 124.6 65.5 124.4 64.9 124.2 C 64.3 123.9 63.9 123.6 63.6 123.2 C 63.3 122.8 63.1 122.3 63 121.8 C 62.9 121.4 62.9 120.8 62.9 120 C 62.9 119.96 62.9 112.9 62.9 112.9 L 64.8 112.9 C 64.8 112.9 64.83 119.22 64.8 119.2 C 64.8 120.2 64.9 120.9 64.9 121.3 C 65.1 121.8 65.3 122.2 65.7 122.5 C 66.1 122.8 66.6 122.9 67.2 122.9 C 67.8 122.9 68.3 122.7 68.8 122.5 C 69.3 122.2 69.7 121.7 69.9 121.2 C 70.1 120.7 70.2 120 70.2 119 C 70.21 119.01 70.2 112.9 70.2 112.9 L 72.1 112.9 L 72.1 124.3 L 70.4 124.3 Z M 75.1 124.3 L 75.1 108.6 L 77.1 108.6 L 77.1 124.3 L 75.1 124.3 Z M 80 124.3 L 80 108.6 L 82 108.6 L 82 124.3 L 80 124.3 Z M 86.1 128.9 C 85.7 128.9 85.3 128.9 84.9 128.7 C 84.9 128.7 84.6 126.9 84.6 126.9 C 85.1 127 85.4 127.1 85.8 127.1 C 86.2 127.1 86.5 127 86.8 126.8 C 87 126.7 87.3 126.5 87.4 126.2 C 87.5 126 87.7 125.6 88 124.8 C 88 124.7 88.1 124.5 88.2 124.3 C 88.18 124.33 83.9 112.9 83.9 112.9 L 85.9 112.9 C 85.9 112.9 88.31 119.5 88.3 119.5 C 88.6 120.3 88.9 121.2 89.1 122.1 C 89.4 121.3 89.6 120.4 89.9 119.5 C 89.93 119.54 92.4 112.9 92.4 112.9 L 94.3 112.9 C 94.3 112.9 89.97 124.5 90 124.5 C 89.5 125.8 89.1 126.6 88.9 127.1 C 88.5 127.7 88.1 128.2 87.7 128.5 C 87.3 128.8 86.7 128.9 86.1 128.9 C 86.1 128.9 86.1 128.9 86.1 128.9 Z M 101.3 120.9 C 101.3 120.9 103.2 120.6 103.2 120.6 C 103.3 121.4 103.6 122 104.1 122.4 C 104.6 122.8 105.3 123 106.2 123 C 107 123 107.7 122.8 108.1 122.4 C 108.6 122.1 108.8 121.6 108.8 121.2 C 108.8 120.7 108.6 120.4 108.2 120.1 C 107.9 120 107.3 119.7 106.2 119.5 C 104.8 119.1 103.8 118.8 103.3 118.5 C 102.7 118.3 102.3 117.9 102 117.5 C 101.8 117 101.6 116.5 101.6 115.9 C 101.6 115.4 101.7 114.9 102 114.5 C 102.2 114.1 102.5 113.7 102.9 113.4 C 103.2 113.2 103.6 113 104.1 112.9 C 104.7 112.7 105.2 112.6 105.8 112.6 C 106.7 112.6 107.5 112.8 108.2 113 C 108.8 113.3 109.3 113.6 109.7 114.1 C 110 114.5 110.2 115.1 110.3 115.8 C 110.3 115.8 108.4 116.1 108.4 116.1 C 108.4 115.5 108.1 115.1 107.7 114.7 C 107.3 114.4 106.7 114.2 105.9 114.2 C 105.1 114.2 104.4 114.4 104 114.7 C 103.7 115 103.5 115.3 103.5 115.7 C 103.5 115.9 103.6 116.2 103.7 116.4 C 103.9 116.6 104.1 116.8 104.5 116.9 C 104.6 117 105.2 117.1 106.2 117.4 C 107.5 117.8 108.5 118 109 118.3 C 109.6 118.5 110 118.9 110.3 119.3 C 110.6 119.7 110.8 120.3 110.8 121 C 110.8 121.6 110.6 122.2 110.2 122.8 C 109.8 123.3 109.3 123.8 108.6 124.1 C 107.9 124.4 107.1 124.6 106.2 124.6 C 104.7 124.6 103.6 124.3 102.8 123.6 C 102 123 101.5 122.1 101.3 120.9 Z M 120.5 124.3 C 120.5 124.3 120.54 122.63 120.5 122.6 C 119.6 123.9 118.4 124.6 116.9 124.6 C 116.2 124.6 115.6 124.4 115 124.2 C 114.4 123.9 114 123.6 113.7 123.2 C 113.4 122.8 113.3 122.3 113.1 121.8 C 113.1 121.4 113 120.8 113 120 C 113.02 119.96 113 112.9 113 112.9 L 115 112.9 C 115 112.9 114.95 119.22 115 119.2 C 115 120.2 115 120.9 115.1 121.3 C 115.2 121.8 115.4 122.2 115.8 122.5 C 116.2 122.8 116.7 122.9 117.3 122.9 C 117.9 122.9 118.4 122.7 118.9 122.5 C 119.4 122.2 119.8 121.7 120 121.2 C 120.2 120.7 120.3 120 120.3 119 C 120.33 119.01 120.3 112.9 120.3 112.9 L 122.3 112.9 L 122.3 124.3 L 120.5 124.3 Z M 125.8 124.3 L 125.8 114.4 L 124.1 114.4 L 124.1 112.9 L 125.8 112.9 C 125.8 112.9 125.76 111.68 125.8 111.7 C 125.8 110.9 125.8 110.3 126 110 C 126.1 109.5 126.5 109.1 126.9 108.8 C 127.4 108.4 128.1 108.3 128.9 108.3 C 129.5 108.3 130.1 108.4 130.7 108.5 C 130.7 108.5 130.4 110.2 130.4 110.2 C 130 110.1 129.7 110.1 129.3 110.1 C 128.7 110.1 128.3 110.2 128 110.4 C 127.8 110.7 127.7 111.2 127.7 111.8 C 127.68 111.84 127.7 112.9 127.7 112.9 L 129.9 112.9 L 129.9 114.4 L 127.7 114.4 L 127.7 124.3 L 125.8 124.3 Z M 131.9 124.3 L 131.9 114.4 L 130.2 114.4 L 130.2 112.9 L 131.9 112.9 C 131.9 112.9 131.92 111.79 131.9 111.8 C 131.9 110.7 132.2 109.8 132.7 109.2 C 133.1 108.6 133.9 108.3 135 108.3 C 135.7 108.3 136.3 108.4 136.9 108.5 C 136.9 108.5 136.6 110.2 136.6 110.2 C 136.2 110.1 135.9 110.1 135.6 110.1 C 134.9 110.1 134.5 110.2 134.2 110.5 C 134 110.7 133.9 111.3 133.9 112.2 C 133.86 112.15 133.9 112.9 133.9 112.9 L 136.1 112.9 L 136.1 114.4 L 133.9 114.4 L 133.9 124.3 L 131.9 124.3 Z M 137.5 110.8 L 137.5 108.6 L 139.5 108.6 L 139.5 110.8 L 137.5 110.8 Z M 137.5 124.3 L 137.5 112.9 L 139.5 112.9 L 139.5 124.3 L 137.5 124.3 Z M 149.9 120.1 C 149.9 120.1 151.8 120.4 151.8 120.4 C 151.5 121.7 151 122.7 150.2 123.4 C 149.3 124.2 148.3 124.6 147 124.6 C 145.4 124.6 144.2 124.1 143.2 123 C 142.3 122 141.8 120.5 141.8 118.6 C 141.8 117.4 142 116.3 142.4 115.4 C 142.8 114.5 143.5 113.8 144.3 113.3 C 145.1 112.9 146 112.6 147 112.6 C 148.3 112.6 149.3 113 150.1 113.6 C 150.8 114.2 151.3 115.1 151.6 116.2 C 151.6 116.2 149.7 116.5 149.7 116.5 C 149.5 115.8 149.2 115.2 148.7 114.8 C 148.3 114.4 147.7 114.2 147.1 114.2 C 146.1 114.2 145.3 114.6 144.7 115.3 C 144.1 116 143.8 117.1 143.8 118.6 C 143.8 120.1 144.1 121.2 144.7 121.9 C 145.3 122.6 146 123 147 123 C 147.7 123 148.4 122.7 148.9 122.3 C 149.4 121.8 149.7 121.1 149.9 120.1 Z M 153.4 110.8 L 153.4 108.6 L 155.4 108.6 L 155.4 110.8 L 153.4 110.8 Z M 153.4 124.3 L 153.4 112.9 L 155.4 112.9 L 155.4 124.3 L 153.4 124.3 Z M 166.1 120.6 C 166.1 120.6 168.1 120.9 168.1 120.9 C 167.8 122 167.2 123 166.4 123.6 C 165.5 124.2 164.4 124.6 163.1 124.6 C 161.4 124.6 160.1 124 159.1 123 C 158.1 122 157.7 120.6 157.7 118.7 C 157.7 116.8 158.1 115.3 159.1 114.2 C 160.1 113.2 161.4 112.6 163 112.6 C 164.5 112.6 165.8 113.2 166.7 114.2 C 167.7 115.2 168.2 116.7 168.2 118.6 C 168.2 118.7 168.2 118.9 168.2 119.1 C 168.2 119.1 159.6 119.1 159.6 119.1 C 159.7 120.3 160.1 121.3 160.7 122 C 161.4 122.6 162.1 123 163.1 123 C 163.8 123 164.4 122.8 164.9 122.4 C 165.4 122 165.8 121.4 166.1 120.6 Z M 159.8 117.5 C 159.8 117.5 166.1 117.5 166.1 117.5 C 166 116.5 165.8 115.8 165.4 115.3 C 164.8 114.6 164 114.2 163 114.2 C 162.1 114.2 161.4 114.5 160.8 115.1 C 160.2 115.7 159.8 116.5 159.8 117.5 Z M 170.5 124.3 L 170.5 112.9 L 172.3 112.9 C 172.3 112.9 172.27 114.52 172.3 114.5 C 173.1 113.3 174.3 112.6 175.9 112.6 C 176.6 112.6 177.2 112.8 177.8 113 C 178.4 113.3 178.8 113.6 179.1 114 C 179.4 114.4 179.6 114.9 179.7 115.4 C 179.8 115.8 179.8 116.4 179.8 117.3 C 179.8 117.29 179.8 124.3 179.8 124.3 L 177.9 124.3 C 177.9 124.3 177.87 117.36 177.9 117.4 C 177.9 116.6 177.8 116 177.6 115.6 C 177.5 115.2 177.2 114.9 176.8 114.7 C 176.5 114.4 176 114.3 175.5 114.3 C 174.7 114.3 174 114.6 173.4 115.1 C 172.8 115.6 172.5 116.6 172.5 118.1 C 172.47 118.07 172.5 124.3 172.5 124.3 L 170.5 124.3 Z M 186.1 122.6 C 186.4 122.6 186.6 122.6 187 122.6 C 187 122.6 187.3 124.3 187.3 124.3 C 186.7 124.4 186.2 124.5 185.8 124.5 C 185.1 124.5 184.6 124.3 184.2 124.1 C 183.8 123.9 183.5 123.6 183.4 123.2 C 183.2 122.9 183.1 122.1 183.1 121 C 183.12 120.96 183.1 114.4 183.1 114.4 L 181.7 114.4 L 181.7 112.9 L 183.1 112.9 L 183.1 110.1 L 185 108.9 L 185 112.9 L 187 112.9 L 187 114.4 L 185 114.4 C 185 114.4 185.04 121.07 185 121.1 C 185 121.6 185.1 122 185.1 122.1 C 185.2 122.3 185.3 122.4 185.5 122.5 C 185.6 122.6 185.9 122.6 186.1 122.6 C 186.1 122.6 186.1 122.6 186.1 122.6 Z M 198.4 122.6 C 198.6 122.6 198.9 122.6 199.2 122.6 C 199.2 122.6 199.5 124.3 199.5 124.3 C 198.9 124.4 198.5 124.5 198 124.5 C 197.3 124.5 196.8 124.3 196.4 124.1 C 196 123.9 195.7 123.6 195.6 123.2 C 195.4 122.9 195.3 122.1 195.3 121 C 195.35 120.96 195.3 114.4 195.3 114.4 L 193.9 114.4 L 193.9 112.9 L 195.3 112.9 L 195.3 110.1 L 197.3 108.9 L 197.3 112.9 L 199.2 112.9 L 199.2 114.4 L 197.3 114.4 C 197.3 114.4 197.27 121.07 197.3 121.1 C 197.3 121.6 197.3 122 197.4 122.1 C 197.4 122.3 197.6 122.4 197.7 122.5 C 197.9 122.6 198.1 122.6 198.4 122.6 C 198.4 122.6 198.4 122.6 198.4 122.6 Z M 200.4 118.6 C 200.4 116.5 201 114.9 202.1 113.9 C 203.1 113.1 204.3 112.6 205.7 112.6 C 207.3 112.6 208.6 113.2 209.6 114.2 C 210.6 115.2 211.1 116.6 211.1 118.4 C 211.1 119.9 210.9 121.1 210.4 121.9 C 210 122.7 209.3 123.4 208.5 123.9 C 207.6 124.3 206.7 124.6 205.7 124.6 C 204.1 124.6 202.8 124 201.9 123 C 200.9 122 200.4 120.5 200.4 118.6 Z M 202.4 118.6 C 202.4 120.1 202.7 121.2 203.3 121.9 C 204 122.6 204.8 123 205.7 123 C 206.7 123 207.5 122.6 208.1 121.9 C 208.8 121.1 209.1 120 209.1 118.5 C 209.1 117.1 208.8 116.1 208.1 115.3 C 207.5 114.6 206.7 114.2 205.7 114.2 C 204.8 114.2 204 114.6 203.3 115.3 C 202.7 116 202.4 117.1 202.4 118.6 Z M 227.3 124.3 C 227.1 123.9 227 123.4 226.9 122.9 C 226.2 123.5 225.5 123.9 224.8 124.2 C 224.2 124.4 223.5 124.6 222.7 124.6 C 221.4 124.6 220.5 124.3 219.8 123.6 C 219.1 123 218.8 122.2 218.8 121.3 C 218.8 120.7 218.9 120.2 219.2 119.8 C 219.4 119.3 219.8 118.9 220.2 118.7 C 220.6 118.4 221.1 118.2 221.6 118 C 221.9 117.9 222.5 117.8 223.3 117.7 C 224.8 117.5 226 117.3 226.7 117.1 C 226.7 116.8 226.7 116.6 226.7 116.6 C 226.7 115.8 226.6 115.2 226.2 114.9 C 225.7 114.5 225 114.2 224 114.2 C 223.1 114.2 222.4 114.4 222 114.7 C 221.5 115 221.2 115.6 221 116.4 C 221 116.4 219.1 116.2 219.1 116.2 C 219.3 115.3 219.6 114.7 220 114.2 C 220.4 113.7 220.9 113.3 221.7 113 C 222.4 112.8 223.3 112.6 224.3 112.6 C 225.2 112.6 226 112.8 226.6 113 C 227.3 113.2 227.7 113.5 228 113.8 C 228.3 114.2 228.5 114.6 228.6 115.2 C 228.7 115.5 228.7 116.1 228.7 116.9 C 228.7 116.9 228.7 119.5 228.7 119.5 C 228.7 121.3 228.7 122.5 228.8 122.9 C 228.9 123.4 229.1 123.9 229.3 124.3 C 229.3 124.3 227.3 124.3 227.3 124.3 C 227.3 124.3 227.28 124.3 227.3 124.3 Z M 226.7 118.6 C 226 118.9 225 119.1 223.6 119.3 C 222.8 119.4 222.2 119.6 221.9 119.7 C 221.6 119.8 221.3 120 221.1 120.3 C 220.9 120.6 220.9 120.9 220.9 121.2 C 220.9 121.8 221.1 122.2 221.4 122.5 C 221.8 122.9 222.4 123 223.2 123 C 223.9 123 224.6 122.9 225.1 122.6 C 225.7 122.2 226.2 121.8 226.4 121.2 C 226.6 120.8 226.7 120.1 226.7 119.3 C 226.7 119.3 226.7 118.6 226.7 118.6 Z M 239.1 120.1 C 239.1 120.1 241 120.4 241 120.4 C 240.8 121.7 240.3 122.7 239.4 123.4 C 238.6 124.2 237.5 124.6 236.3 124.6 C 234.7 124.6 233.5 124.1 232.5 123 C 231.6 122 231.1 120.5 231.1 118.6 C 231.1 117.4 231.3 116.3 231.7 115.4 C 232.1 114.5 232.7 113.8 233.6 113.3 C 234.4 112.9 235.3 112.6 236.3 112.6 C 237.5 112.6 238.5 113 239.3 113.6 C 240.1 114.2 240.6 115.1 240.9 116.2 C 240.9 116.2 239 116.5 239 116.5 C 238.8 115.8 238.5 115.2 238 114.8 C 237.6 114.4 237 114.2 236.4 114.2 C 235.4 114.2 234.6 114.6 234 115.3 C 233.4 116 233.1 117.1 233.1 118.6 C 233.1 120.1 233.4 121.2 234 121.9 C 234.6 122.6 235.3 123 236.3 123 C 237 123 237.7 122.7 238.2 122.3 C 238.7 121.8 239 121.1 239.1 120.1 Z M 242.7 124.3 L 242.7 108.6 L 244.6 108.6 C 244.6 108.6 244.62 114.21 244.6 114.2 C 245.5 113.2 246.7 112.6 248 112.6 C 248.9 112.6 249.6 112.8 250.2 113.1 C 250.9 113.5 251.3 113.9 251.6 114.5 C 251.8 115.1 252 116 252 117.1 C 251.98 117.07 252 124.3 252 124.3 L 250 124.3 C 250 124.3 250.05 117.07 250 117.1 C 250 116.1 249.8 115.4 249.4 115 C 249 114.5 248.4 114.3 247.6 114.3 C 247.1 114.3 246.5 114.5 246 114.7 C 245.5 115 245.2 115.4 244.9 116 C 244.7 116.5 244.6 117.2 244.6 118.1 C 244.62 118.06 244.6 124.3 244.6 124.3 L 242.7 124.3 Z M 254.9 110.8 L 254.9 108.6 L 256.9 108.6 L 256.9 110.8 L 254.9 110.8 Z M 254.9 124.3 L 254.9 112.9 L 256.9 112.9 L 256.9 124.3 L 254.9 124.3 Z M 267.6 120.6 C 267.6 120.6 269.6 120.9 269.6 120.9 C 269.3 122 268.7 123 267.9 123.6 C 267 124.2 265.9 124.6 264.6 124.6 C 262.9 124.6 261.6 124 260.6 123 C 259.7 122 259.2 120.6 259.2 118.7 C 259.2 116.8 259.7 115.3 260.6 114.2 C 261.6 113.2 262.9 112.6 264.5 112.6 C 266 112.6 267.3 113.2 268.2 114.2 C 269.2 115.2 269.7 116.7 269.7 118.6 C 269.7 118.7 269.7 118.9 269.7 119.1 C 269.7 119.1 261.2 119.1 261.2 119.1 C 261.2 120.3 261.6 121.3 262.2 122 C 262.9 122.6 263.7 123 264.6 123 C 265.3 123 265.9 122.8 266.4 122.4 C 266.9 122 267.3 121.4 267.6 120.6 Z M 261.3 117.5 C 261.3 117.5 267.6 117.5 267.6 117.5 C 267.6 116.5 267.3 115.8 266.9 115.3 C 266.3 114.6 265.5 114.2 264.5 114.2 C 263.6 114.2 262.9 114.5 262.3 115.1 C 261.7 115.7 261.3 116.5 261.3 117.5 Z M 275.2 124.3 L 270.9 112.9 L 272.9 112.9 C 272.9 112.9 275.36 119.73 275.4 119.7 C 275.6 120.5 275.9 121.2 276.1 122 C 276.3 121.4 276.5 120.7 276.8 119.9 C 276.81 119.86 279.4 112.9 279.4 112.9 L 281.3 112.9 L 277 124.3 L 275.2 124.3 Z M 290.9 120.6 C 290.9 120.6 292.9 120.9 292.9 120.9 C 292.5 122 292 123 291.1 123.6 C 290.2 124.2 289.2 124.6 287.8 124.6 C 286.2 124.6 284.8 124 283.9 123 C 282.9 122 282.4 120.6 282.4 118.7 C 282.4 116.8 282.9 115.3 283.9 114.2 C 284.9 113.2 286.2 112.6 287.7 112.6 C 289.3 112.6 290.5 113.2 291.5 114.2 C 292.4 115.2 292.9 116.7 292.9 118.6 C 292.9 118.7 292.9 118.9 292.9 119.1 C 292.9 119.1 284.4 119.1 284.4 119.1 C 284.5 120.3 284.8 121.3 285.5 122 C 286.1 122.6 286.9 123 287.8 123 C 288.6 123 289.2 122.8 289.7 122.4 C 290.2 122 290.6 121.4 290.9 120.6 Z M 284.5 117.5 C 284.5 117.5 290.9 117.5 290.9 117.5 C 290.8 116.5 290.5 115.8 290.1 115.3 C 289.5 114.6 288.7 114.2 287.8 114.2 C 286.9 114.2 286.1 114.5 285.5 115.1 C 284.9 115.7 284.6 116.5 284.5 117.5 Z M 304.8 122.6 C 305 122.6 305.3 122.6 305.6 122.6 C 305.6 122.6 305.9 124.3 305.9 124.3 C 305.3 124.4 304.9 124.5 304.4 124.5 C 303.7 124.5 303.2 124.3 302.8 124.1 C 302.4 123.9 302.1 123.6 302 123.2 C 301.8 122.9 301.7 122.1 301.7 121 C 301.75 120.96 301.7 114.4 301.7 114.4 L 300.3 114.4 L 300.3 112.9 L 301.7 112.9 L 301.7 110.1 L 303.7 108.9 L 303.7 112.9 L 305.6 112.9 L 305.6 114.4 L 303.7 114.4 C 303.7 114.4 303.67 121.07 303.7 121.1 C 303.7 121.6 303.7 122 303.8 122.1 C 303.8 122.3 304 122.4 304.1 122.5 C 304.3 122.6 304.5 122.6 304.8 122.6 C 304.8 122.6 304.8 122.6 304.8 122.6 Z M 307.5 124.3 L 307.5 108.6 L 309.4 108.6 C 309.4 108.6 309.44 114.21 309.4 114.2 C 310.3 113.2 311.5 112.6 312.9 112.6 C 313.7 112.6 314.4 112.8 315.1 113.1 C 315.7 113.5 316.1 113.9 316.4 114.5 C 316.7 115.1 316.8 116 316.8 117.1 C 316.8 117.07 316.8 124.3 316.8 124.3 L 314.9 124.3 C 314.9 124.3 314.86 117.07 314.9 117.1 C 314.9 116.1 314.7 115.4 314.2 115 C 313.8 114.5 313.2 114.3 312.5 114.3 C 311.9 114.3 311.3 114.5 310.8 114.7 C 310.3 115 310 115.4 309.8 116 C 309.5 116.5 309.4 117.2 309.4 118.1 C 309.44 118.06 309.4 124.3 309.4 124.3 L 307.5 124.3 Z M 327.6 120.6 C 327.6 120.6 329.5 120.9 329.5 120.9 C 329.2 122 328.6 123 327.8 123.6 C 326.9 124.2 325.9 124.6 324.5 124.6 C 322.9 124.6 321.5 124 320.6 123 C 319.6 122 319.1 120.6 319.1 118.7 C 319.1 116.8 319.6 115.3 320.6 114.2 C 321.6 113.2 322.8 112.6 324.4 112.6 C 325.9 112.6 327.2 113.2 328.2 114.2 C 329.1 115.2 329.6 116.7 329.6 118.6 C 329.6 118.7 329.6 118.9 329.6 119.1 C 329.6 119.1 321.1 119.1 321.1 119.1 C 321.2 120.3 321.5 121.3 322.2 122 C 322.8 122.6 323.6 123 324.5 123 C 325.3 123 325.9 122.8 326.4 122.4 C 326.9 122 327.3 121.4 327.6 120.6 Z M 321.2 117.5 C 321.2 117.5 327.6 117.5 327.6 117.5 C 327.5 116.5 327.2 115.8 326.8 115.3 C 326.2 114.6 325.4 114.2 324.4 114.2 C 323.6 114.2 322.8 114.5 322.2 115.1 C 321.6 115.7 321.3 116.5 321.2 117.5 Z " stroke="none" fill="#000"/>  </g>  <g id="Polygon6840">    <path d="M 15.2 97.9 L 15.2 82.2 L 25.9 82.2 L 25.9 84 L 17.3 84 L 17.3 88.9 L 24.7 88.9 L 24.7 90.7 L 17.3 90.7 L 17.3 97.9 L 15.2 97.9 Z M 27.6 92.2 C 27.6 90.1 28.2 88.5 29.4 87.5 C 30.3 86.7 31.5 86.2 32.9 86.2 C 34.5 86.2 35.8 86.8 36.8 87.8 C 37.8 88.8 38.3 90.2 38.3 92 C 38.3 93.5 38.1 94.7 37.6 95.5 C 37.2 96.3 36.5 97 35.7 97.5 C 34.9 97.9 33.9 98.2 32.9 98.2 C 31.3 98.2 30.1 97.6 29.1 96.6 C 28.1 95.6 27.6 94.1 27.6 92.2 Z M 29.6 92.2 C 29.6 93.7 29.9 94.8 30.5 95.5 C 31.2 96.2 32 96.6 32.9 96.6 C 33.9 96.6 34.7 96.2 35.3 95.5 C 36 94.7 36.3 93.6 36.3 92.1 C 36.3 90.7 36 89.7 35.3 88.9 C 34.7 88.2 33.9 87.8 32.9 87.8 C 32 87.8 31.2 88.2 30.5 88.9 C 29.9 89.6 29.6 90.7 29.6 92.2 Z M 40.5 97.9 L 40.5 86.5 L 42.3 86.5 C 42.3 86.5 42.26 88.22 42.3 88.2 C 42.7 87.4 43.1 86.9 43.5 86.6 C 43.9 86.4 44.3 86.2 44.7 86.2 C 45.4 86.2 46 86.4 46.7 86.9 C 46.7 86.9 46.1 88.7 46.1 88.7 C 45.6 88.4 45.1 88.2 44.6 88.2 C 44.2 88.2 43.8 88.4 43.5 88.6 C 43.2 88.9 42.9 89.2 42.8 89.7 C 42.6 90.4 42.5 91.1 42.5 91.9 C 42.46 91.93 42.5 97.9 42.5 97.9 L 40.5 97.9 Z M 54 97.9 L 54 86.5 L 55.7 86.5 C 55.7 86.5 55.71 88.1 55.7 88.1 C 56.1 87.5 56.5 87.1 57.1 86.7 C 57.7 86.4 58.4 86.2 59.2 86.2 C 60 86.2 60.7 86.4 61.3 86.8 C 61.8 87.1 62.2 87.6 62.4 88.2 C 63.3 86.9 64.5 86.2 65.9 86.2 C 67.1 86.2 67.9 86.6 68.5 87.2 C 69.1 87.8 69.4 88.8 69.4 90.1 C 69.44 90.07 69.4 97.9 69.4 97.9 L 67.5 97.9 C 67.5 97.9 67.52 90.72 67.5 90.7 C 67.5 89.9 67.5 89.4 67.3 89 C 67.2 88.7 67 88.4 66.6 88.2 C 66.3 88 65.9 87.9 65.5 87.9 C 64.7 87.9 64 88.2 63.5 88.7 C 63 89.2 62.7 90.1 62.7 91.3 C 62.7 91.28 62.7 97.9 62.7 97.9 L 60.8 97.9 C 60.8 97.9 60.76 90.49 60.8 90.5 C 60.8 89.6 60.6 89 60.3 88.6 C 60 88.1 59.5 87.9 58.7 87.9 C 58.2 87.9 57.7 88.1 57.2 88.3 C 56.8 88.6 56.4 89 56.2 89.6 C 56 90.2 55.9 90.9 55.9 92 C 55.92 91.98 55.9 97.9 55.9 97.9 L 54 97.9 Z M 71.6 92.2 C 71.6 90.1 72.2 88.5 73.4 87.5 C 74.3 86.7 75.5 86.2 76.9 86.2 C 78.5 86.2 79.8 86.8 80.8 87.8 C 81.8 88.8 82.3 90.2 82.3 92 C 82.3 93.5 82.1 94.7 81.6 95.5 C 81.2 96.3 80.5 97 79.7 97.5 C 78.9 97.9 77.9 98.2 76.9 98.2 C 75.3 98.2 74.1 97.6 73.1 96.6 C 72.1 95.6 71.6 94.1 71.6 92.2 Z M 73.6 92.2 C 73.6 93.7 73.9 94.8 74.5 95.5 C 75.2 96.2 76 96.6 76.9 96.6 C 77.9 96.6 78.7 96.2 79.3 95.5 C 80 94.7 80.3 93.6 80.3 92.1 C 80.3 90.7 80 89.7 79.3 88.9 C 78.7 88.2 77.9 87.8 76.9 87.8 C 76 87.8 75.2 88.2 74.5 88.9 C 73.9 89.6 73.6 90.7 73.6 92.2 Z M 83.8 94.5 C 83.8 94.5 85.7 94.2 85.7 94.2 C 85.8 95 86.1 95.6 86.6 96 C 87.1 96.4 87.8 96.6 88.6 96.6 C 89.5 96.6 90.2 96.4 90.6 96 C 91 95.7 91.3 95.2 91.3 94.8 C 91.3 94.3 91.1 94 90.7 93.7 C 90.4 93.6 89.8 93.3 88.7 93.1 C 87.3 92.7 86.3 92.4 85.8 92.1 C 85.2 91.9 84.8 91.5 84.5 91.1 C 84.2 90.6 84.1 90.1 84.1 89.5 C 84.1 89 84.2 88.5 84.4 88.1 C 84.7 87.7 85 87.3 85.4 87 C 85.7 86.8 86.1 86.6 86.6 86.5 C 87.1 86.3 87.7 86.2 88.3 86.2 C 89.2 86.2 90 86.4 90.7 86.6 C 91.3 86.9 91.8 87.2 92.2 87.7 C 92.5 88.1 92.7 88.7 92.8 89.4 C 92.8 89.4 90.9 89.7 90.9 89.7 C 90.8 89.1 90.6 88.7 90.2 88.3 C 89.8 88 89.2 87.8 88.4 87.8 C 87.5 87.8 86.9 88 86.5 88.3 C 86.2 88.6 86 88.9 86 89.3 C 86 89.5 86 89.8 86.2 90 C 86.4 90.2 86.6 90.4 86.9 90.5 C 87.1 90.6 87.7 90.7 88.6 91 C 90 91.4 91 91.6 91.5 91.9 C 92.1 92.1 92.5 92.5 92.8 92.9 C 93.1 93.3 93.2 93.9 93.2 94.6 C 93.2 95.2 93.1 95.8 92.7 96.4 C 92.3 96.9 91.8 97.4 91.1 97.7 C 90.3 98 89.5 98.2 88.6 98.2 C 87.2 98.2 86 97.9 85.3 97.2 C 84.5 96.6 84 95.7 83.8 94.5 Z M 98.9 96.2 C 99.1 96.2 99.4 96.2 99.8 96.2 C 99.8 96.2 100 97.9 100 97.9 C 99.5 98 99 98.1 98.6 98.1 C 97.9 98.1 97.3 97.9 97 97.7 C 96.6 97.5 96.3 97.2 96.1 96.8 C 96 96.5 95.9 95.7 95.9 94.6 C 95.9 94.56 95.9 88 95.9 88 L 94.5 88 L 94.5 86.5 L 95.9 86.5 L 95.9 83.7 L 97.8 82.5 L 97.8 86.5 L 99.8 86.5 L 99.8 88 L 97.8 88 C 97.8 88 97.82 94.67 97.8 94.7 C 97.8 95.2 97.9 95.6 97.9 95.7 C 98 95.9 98.1 96 98.3 96.1 C 98.4 96.2 98.6 96.2 98.9 96.2 C 98.9 96.2 98.9 96.2 98.9 96.2 Z M 107.7 97.9 L 107.7 82.2 L 109.7 82.2 L 109.7 97.9 L 107.7 97.9 Z M 120.5 94.2 C 120.5 94.2 122.5 94.5 122.5 94.5 C 122.2 95.6 121.6 96.6 120.7 97.2 C 119.9 97.8 118.8 98.2 117.4 98.2 C 115.8 98.2 114.5 97.6 113.5 96.6 C 112.5 95.6 112 94.2 112 92.3 C 112 90.4 112.5 88.9 113.5 87.8 C 114.5 86.8 115.8 86.2 117.3 86.2 C 118.9 86.2 120.1 86.8 121.1 87.8 C 122 88.8 122.5 90.3 122.5 92.2 C 122.5 92.3 122.5 92.5 122.5 92.7 C 122.5 92.7 114 92.7 114 92.7 C 114.1 93.9 114.4 94.9 115.1 95.6 C 115.7 96.2 116.5 96.6 117.5 96.6 C 118.2 96.6 118.8 96.4 119.3 96 C 119.8 95.6 120.2 95 120.5 94.2 Z M 114.1 91.1 C 114.1 91.1 120.5 91.1 120.5 91.1 C 120.4 90.1 120.2 89.4 119.8 88.9 C 119.1 88.2 118.3 87.8 117.4 87.8 C 116.5 87.8 115.7 88.1 115.1 88.7 C 114.5 89.3 114.2 90.1 114.1 91.1 Z M 132.7 97.9 C 132.5 97.5 132.4 97 132.3 96.5 C 131.6 97.1 130.9 97.5 130.3 97.8 C 129.6 98 128.9 98.2 128.1 98.2 C 126.9 98.2 125.9 97.9 125.2 97.2 C 124.6 96.6 124.2 95.8 124.2 94.9 C 124.2 94.3 124.4 93.8 124.6 93.4 C 124.9 92.9 125.2 92.5 125.6 92.3 C 126 92 126.5 91.8 127 91.6 C 127.4 91.5 128 91.4 128.7 91.3 C 130.3 91.1 131.4 90.9 132.2 90.7 C 132.2 90.4 132.2 90.2 132.2 90.2 C 132.2 89.4 132 88.8 131.6 88.5 C 131.1 88.1 130.4 87.8 129.4 87.8 C 128.5 87.8 127.9 88 127.4 88.3 C 127 88.6 126.7 89.2 126.5 90 C 126.5 90 124.6 89.8 124.6 89.8 C 124.7 88.9 125 88.3 125.4 87.8 C 125.8 87.3 126.4 86.9 127.1 86.6 C 127.9 86.4 128.7 86.2 129.7 86.2 C 130.7 86.2 131.5 86.4 132.1 86.6 C 132.7 86.8 133.1 87.1 133.4 87.4 C 133.7 87.8 133.9 88.2 134 88.8 C 134.1 89.1 134.1 89.7 134.1 90.5 C 134.1 90.5 134.1 93.1 134.1 93.1 C 134.1 94.9 134.2 96.1 134.3 96.5 C 134.3 97 134.5 97.5 134.7 97.9 C 134.74 97.9 132.7 97.9 132.7 97.9 C 132.7 97.9 132.72 97.9 132.7 97.9 Z M 132.2 92.2 C 131.5 92.5 130.4 92.7 129 92.9 C 128.2 93 127.7 93.2 127.3 93.3 C 127 93.4 126.7 93.6 126.6 93.9 C 126.4 94.2 126.3 94.5 126.3 94.8 C 126.3 95.4 126.5 95.8 126.9 96.1 C 127.3 96.5 127.8 96.6 128.6 96.6 C 129.3 96.6 130 96.5 130.6 96.2 C 131.2 95.8 131.6 95.4 131.9 94.8 C 132.1 94.4 132.2 93.7 132.2 92.9 C 132.2 92.9 132.2 92.2 132.2 92.2 Z M 137.1 97.9 L 137.1 86.5 L 138.8 86.5 C 138.8 86.5 138.85 88.22 138.8 88.2 C 139.3 87.4 139.7 86.9 140.1 86.6 C 140.5 86.4 140.9 86.2 141.3 86.2 C 142 86.2 142.6 86.4 143.3 86.9 C 143.3 86.9 142.6 88.7 142.6 88.7 C 142.2 88.4 141.7 88.2 141.2 88.2 C 140.8 88.2 140.4 88.4 140.1 88.6 C 139.7 88.9 139.5 89.2 139.4 89.7 C 139.1 90.4 139 91.1 139 91.9 C 139.04 91.93 139 97.9 139 97.9 L 137.1 97.9 Z M 144.5 97.9 L 144.5 86.5 L 146.2 86.5 C 146.2 86.5 146.2 88.12 146.2 88.1 C 147 86.9 148.2 86.2 149.8 86.2 C 150.5 86.2 151.1 86.4 151.7 86.6 C 152.3 86.9 152.7 87.2 153 87.6 C 153.3 88 153.5 88.5 153.6 89 C 153.7 89.4 153.7 90 153.7 90.9 C 153.73 90.89 153.7 97.9 153.7 97.9 L 151.8 97.9 C 151.8 97.9 151.79 90.96 151.8 91 C 151.8 90.2 151.7 89.6 151.6 89.2 C 151.4 88.8 151.1 88.5 150.8 88.3 C 150.4 88 149.9 87.9 149.4 87.9 C 148.6 87.9 147.9 88.2 147.3 88.7 C 146.7 89.2 146.4 90.2 146.4 91.7 C 146.39 91.67 146.4 97.9 146.4 97.9 L 144.5 97.9 Z M 164.5 94.2 C 164.5 94.2 166.5 94.5 166.5 94.5 C 166.2 95.6 165.6 96.6 164.7 97.2 C 163.9 97.8 162.8 98.2 161.5 98.2 C 159.8 98.2 158.5 97.6 157.5 96.6 C 156.5 95.6 156 94.2 156 92.3 C 156 90.4 156.5 88.9 157.5 87.8 C 158.5 86.8 159.8 86.2 161.4 86.2 C 162.9 86.2 164.1 86.8 165.1 87.8 C 166.1 88.8 166.6 90.3 166.6 92.2 C 166.6 92.3 166.6 92.5 166.6 92.7 C 166.6 92.7 158 92.7 158 92.7 C 158.1 93.9 158.5 94.9 159.1 95.6 C 159.7 96.2 160.5 96.6 161.5 96.6 C 162.2 96.6 162.8 96.4 163.3 96 C 163.8 95.6 164.2 95 164.5 94.2 Z M 158.2 91.1 C 158.2 91.1 164.5 91.1 164.5 91.1 C 164.4 90.1 164.2 89.4 163.8 88.9 C 163.2 88.2 162.4 87.8 161.4 87.8 C 160.5 87.8 159.8 88.1 159.2 88.7 C 158.6 89.3 158.2 90.1 158.2 91.1 Z M 168.9 97.9 L 168.9 86.5 L 170.6 86.5 C 170.6 86.5 170.64 88.22 170.6 88.2 C 171.1 87.4 171.5 86.9 171.9 86.6 C 172.3 86.4 172.7 86.2 173.1 86.2 C 173.8 86.2 174.4 86.4 175.1 86.9 C 175.1 86.9 174.4 88.7 174.4 88.7 C 174 88.4 173.5 88.2 173 88.2 C 172.6 88.2 172.2 88.4 171.9 88.6 C 171.5 88.9 171.3 89.2 171.2 89.7 C 170.9 90.4 170.8 91.1 170.8 91.9 C 170.84 91.93 170.8 97.9 170.8 97.9 L 168.9 97.9 Z M 175.5 94.5 C 175.5 94.5 177.4 94.2 177.4 94.2 C 177.5 95 177.8 95.6 178.3 96 C 178.8 96.4 179.5 96.6 180.3 96.6 C 181.2 96.6 181.9 96.4 182.3 96 C 182.8 95.7 183 95.2 183 94.8 C 183 94.3 182.8 94 182.4 93.7 C 182.1 93.6 181.5 93.3 180.4 93.1 C 179 92.7 178 92.4 177.5 92.1 C 176.9 91.9 176.5 91.5 176.2 91.1 C 175.9 90.6 175.8 90.1 175.8 89.5 C 175.8 89 175.9 88.5 176.1 88.1 C 176.4 87.7 176.7 87.3 177.1 87 C 177.4 86.8 177.8 86.6 178.3 86.5 C 178.8 86.3 179.4 86.2 180 86.2 C 180.9 86.2 181.7 86.4 182.4 86.6 C 183 86.9 183.5 87.2 183.9 87.7 C 184.2 88.1 184.4 88.7 184.5 89.4 C 184.5 89.4 182.6 89.7 182.6 89.7 C 182.5 89.1 182.3 88.7 181.9 88.3 C 181.5 88 180.9 87.8 180.1 87.8 C 179.3 87.8 178.6 88 178.2 88.3 C 177.9 88.6 177.7 88.9 177.7 89.3 C 177.7 89.5 177.7 89.8 177.9 90 C 178.1 90.2 178.3 90.4 178.6 90.5 C 178.8 90.6 179.4 90.7 180.4 91 C 181.7 91.4 182.7 91.6 183.2 91.9 C 183.8 92.1 184.2 92.5 184.5 92.9 C 184.8 93.3 185 93.9 185 94.6 C 185 95.2 184.8 95.8 184.4 96.4 C 184 96.9 183.5 97.4 182.8 97.7 C 182.1 98 181.3 98.2 180.4 98.2 C 178.9 98.2 177.7 97.9 177 97.2 C 176.2 96.6 175.7 95.7 175.5 94.5 Z M 187.8 97.9 L 187.8 95.7 L 190 95.7 C 190 95.7 189.96 97.9 190 97.9 C 190 98.7 189.8 99.4 189.5 99.9 C 189.2 100.4 188.8 100.7 188.2 101 C 188.2 101 187.6 100.2 187.6 100.2 C 188 100 188.3 99.7 188.5 99.4 C 188.7 99.1 188.8 98.6 188.9 97.9 C 188.85 97.9 187.8 97.9 187.8 97.9 Z M 202.8 96.2 C 203.1 96.2 203.3 96.2 203.7 96.2 C 203.7 96.2 204 97.9 204 97.9 C 203.4 98 202.9 98.1 202.5 98.1 C 201.8 98.1 201.3 97.9 200.9 97.7 C 200.5 97.5 200.2 97.2 200.1 96.8 C 199.9 96.5 199.8 95.7 199.8 94.6 C 199.83 94.56 199.8 88 199.8 88 L 198.4 88 L 198.4 86.5 L 199.8 86.5 L 199.8 83.7 L 201.8 82.5 L 201.8 86.5 L 203.7 86.5 L 203.7 88 L 201.8 88 C 201.8 88 201.75 94.67 201.8 94.7 C 201.8 95.2 201.8 95.6 201.9 95.7 C 201.9 95.9 202 96 202.2 96.1 C 202.3 96.2 202.6 96.2 202.8 96.2 C 202.8 96.2 202.8 96.2 202.8 96.2 Z M 205.6 97.9 L 205.6 82.2 L 207.5 82.2 C 207.5 82.2 207.52 87.81 207.5 87.8 C 208.4 86.8 209.6 86.2 210.9 86.2 C 211.8 86.2 212.5 86.4 213.1 86.7 C 213.8 87.1 214.2 87.5 214.5 88.1 C 214.7 88.7 214.9 89.6 214.9 90.7 C 214.88 90.67 214.9 97.9 214.9 97.9 L 212.9 97.9 C 212.9 97.9 212.95 90.67 212.9 90.7 C 212.9 89.7 212.7 89 212.3 88.6 C 211.9 88.1 211.3 87.9 210.5 87.9 C 210 87.9 209.4 88.1 208.9 88.3 C 208.4 88.6 208.1 89 207.8 89.6 C 207.6 90.1 207.5 90.8 207.5 91.7 C 207.52 91.66 207.5 97.9 207.5 97.9 L 205.6 97.9 Z M 225.6 94.2 C 225.6 94.2 227.6 94.5 227.6 94.5 C 227.3 95.6 226.7 96.6 225.9 97.2 C 225 97.8 223.9 98.2 222.6 98.2 C 220.9 98.2 219.6 97.6 218.6 96.6 C 217.7 95.6 217.2 94.2 217.2 92.3 C 217.2 90.4 217.7 88.9 218.7 87.8 C 219.7 86.8 220.9 86.2 222.5 86.2 C 224 86.2 225.3 86.8 226.2 87.8 C 227.2 88.8 227.7 90.3 227.7 92.2 C 227.7 92.3 227.7 92.5 227.7 92.7 C 227.7 92.7 219.2 92.7 219.2 92.7 C 219.2 93.9 219.6 94.9 220.2 95.6 C 220.9 96.2 221.7 96.6 222.6 96.6 C 223.3 96.6 223.9 96.4 224.4 96 C 224.9 95.6 225.3 95 225.6 94.2 Z M 219.3 91.1 C 219.3 91.1 225.7 91.1 225.7 91.1 C 225.6 90.1 225.3 89.4 224.9 88.9 C 224.3 88.2 223.5 87.8 222.5 87.8 C 221.6 87.8 220.9 88.1 220.3 88.7 C 219.7 89.3 219.3 90.1 219.3 91.1 Z M 247.7 92.4 C 247.7 92.4 249.7 92.9 249.7 92.9 C 249.3 94.6 248.5 95.9 247.4 96.8 C 246.2 97.7 244.9 98.2 243.2 98.2 C 241.5 98.2 240.1 97.8 239.1 97.1 C 238 96.4 237.2 95.4 236.6 94.1 C 236.1 92.8 235.8 91.4 235.8 89.9 C 235.8 88.3 236.1 86.8 236.8 85.6 C 237.4 84.4 238.3 83.5 239.4 82.8 C 240.6 82.2 241.9 81.9 243.3 81.9 C 244.8 81.9 246.2 82.3 247.2 83.1 C 248.3 83.9 249 85 249.5 86.5 C 249.5 86.5 247.4 87 247.4 87 C 247.1 85.8 246.5 85 245.8 84.5 C 245.1 83.9 244.3 83.7 243.2 83.7 C 242 83.7 241 84 240.2 84.5 C 239.4 85.1 238.8 85.9 238.5 86.9 C 238.1 87.9 238 88.9 238 89.9 C 238 91.2 238.2 92.4 238.6 93.4 C 238.9 94.4 239.5 95.2 240.4 95.6 C 241.2 96.1 242.1 96.4 243 96.4 C 244.2 96.4 245.2 96.1 246 95.4 C 246.8 94.7 247.4 93.7 247.7 92.4 Z M 251.3 92.2 C 251.3 90.1 251.9 88.5 253.1 87.5 C 254.1 86.7 255.3 86.2 256.7 86.2 C 258.3 86.2 259.5 86.8 260.5 87.8 C 261.5 88.8 262 90.2 262 92 C 262 93.5 261.8 94.7 261.4 95.5 C 260.9 96.3 260.3 97 259.4 97.5 C 258.6 97.9 257.7 98.2 256.7 98.2 C 255.1 98.2 253.8 97.6 252.8 96.6 C 251.8 95.6 251.3 94.1 251.3 92.2 Z M 253.3 92.2 C 253.3 93.7 253.6 94.8 254.3 95.5 C 254.9 96.2 255.7 96.6 256.7 96.6 C 257.6 96.6 258.4 96.2 259.1 95.5 C 259.7 94.7 260 93.6 260 92.1 C 260 90.7 259.7 89.7 259.1 88.9 C 258.4 88.2 257.6 87.8 256.7 87.8 C 255.7 87.8 254.9 88.2 254.3 88.9 C 253.6 89.6 253.3 90.7 253.3 92.2 Z M 264.3 97.9 L 264.3 86.5 L 266 86.5 C 266 86.5 266.01 88.22 266 88.2 C 266.5 87.4 266.9 86.9 267.2 86.6 C 267.6 86.4 268 86.2 268.5 86.2 C 269.1 86.2 269.8 86.4 270.5 86.9 C 270.5 86.9 269.8 88.7 269.8 88.7 C 269.3 88.4 268.9 88.2 268.4 88.2 C 268 88.2 267.6 88.4 267.2 88.6 C 266.9 88.9 266.7 89.2 266.5 89.7 C 266.3 90.4 266.2 91.1 266.2 91.9 C 266.21 91.93 266.2 97.9 266.2 97.9 L 264.3 97.9 Z M 279.4 94.2 C 279.4 94.2 281.4 94.5 281.4 94.5 C 281.1 95.6 280.5 96.6 279.7 97.2 C 278.8 97.8 277.7 98.2 276.4 98.2 C 274.7 98.2 273.4 97.6 272.4 96.6 C 271.5 95.6 271 94.2 271 92.3 C 271 90.4 271.5 88.9 272.5 87.8 C 273.4 86.8 274.7 86.2 276.3 86.2 C 277.8 86.2 279.1 86.8 280 87.8 C 281 88.8 281.5 90.3 281.5 92.2 C 281.5 92.3 281.5 92.5 281.5 92.7 C 281.5 92.7 273 92.7 273 92.7 C 273 93.9 273.4 94.9 274 95.6 C 274.7 96.2 275.5 96.6 276.4 96.6 C 277.1 96.6 277.7 96.4 278.2 96 C 278.7 95.6 279.1 95 279.4 94.2 Z M 273.1 91.1 C 273.1 91.1 279.5 91.1 279.5 91.1 C 279.4 90.1 279.1 89.4 278.7 88.9 C 278.1 88.2 277.3 87.8 276.3 87.8 C 275.4 87.8 274.7 88.1 274.1 88.7 C 273.5 89.3 273.1 90.1 273.1 91.1 Z M 293.8 97.9 L 293.8 84 L 288.6 84 L 288.6 82.2 L 301.1 82.2 L 301.1 84 L 295.9 84 L 295.9 97.9 L 293.8 97.9 Z M 299.9 92.2 C 299.9 90.1 300.4 88.5 301.6 87.5 C 302.6 86.7 303.8 86.2 305.2 86.2 C 306.8 86.2 308.1 86.8 309 87.8 C 310 88.8 310.5 90.2 310.5 92 C 310.5 93.5 310.3 94.7 309.9 95.5 C 309.4 96.3 308.8 97 308 97.5 C 307.1 97.9 306.2 98.2 305.2 98.2 C 303.6 98.2 302.3 97.6 301.3 96.6 C 300.3 95.6 299.9 94.1 299.9 92.2 Z M 301.8 92.2 C 301.8 93.7 302.2 94.8 302.8 95.5 C 303.4 96.2 304.2 96.6 305.2 96.6 C 306.2 96.6 307 96.2 307.6 95.5 C 308.2 94.7 308.6 93.6 308.6 92.1 C 308.6 90.7 308.2 89.7 307.6 88.9 C 307 88.2 306.2 87.8 305.2 87.8 C 304.2 87.8 303.4 88.2 302.8 88.9 C 302.2 89.6 301.8 90.7 301.8 92.2 Z M 312.1 92.2 C 312.1 90.1 312.7 88.5 313.8 87.5 C 314.8 86.7 316 86.2 317.4 86.2 C 319 86.2 320.3 86.8 321.3 87.8 C 322.3 88.8 322.8 90.2 322.8 92 C 322.8 93.5 322.6 94.7 322.1 95.5 C 321.7 96.3 321 97 320.2 97.5 C 319.4 97.9 318.4 98.2 317.4 98.2 C 315.8 98.2 314.5 97.6 313.6 96.6 C 312.6 95.6 312.1 94.1 312.1 92.2 Z M 314.1 92.2 C 314.1 93.7 314.4 94.8 315 95.5 C 315.7 96.2 316.5 96.6 317.4 96.6 C 318.4 96.6 319.2 96.2 319.8 95.5 C 320.5 94.7 320.8 93.6 320.8 92.1 C 320.8 90.7 320.5 89.7 319.8 88.9 C 319.2 88.2 318.4 87.8 317.4 87.8 C 316.5 87.8 315.7 88.2 315 88.9 C 314.4 89.6 314.1 90.7 314.1 92.2 Z M 325 97.9 L 325 82.2 L 326.9 82.2 L 326.9 97.9 L 325 97.9 Z M 329.9 97.9 L 329.9 82.2 L 331.9 82.2 L 331.9 91.1 L 336.5 86.5 L 339 86.5 L 334.6 90.7 L 339.4 97.9 L 337 97.9 L 333.2 92.1 L 331.9 93.4 L 331.9 97.9 L 329.9 97.9 Z M 340.9 84.4 L 340.9 82.2 L 342.9 82.2 L 342.9 84.4 L 340.9 84.4 Z M 340.9 97.9 L 340.9 86.5 L 342.9 86.5 L 342.9 97.9 L 340.9 97.9 Z M 349.2 96.2 C 349.4 96.2 349.7 96.2 350 96.2 C 350 96.2 350.3 97.9 350.3 97.9 C 349.8 98 349.3 98.1 348.9 98.1 C 348.2 98.1 347.6 97.9 347.2 97.7 C 346.8 97.5 346.6 97.2 346.4 96.8 C 346.3 96.5 346.2 95.7 346.2 94.6 C 346.17 94.56 346.2 88 346.2 88 L 344.8 88 L 344.8 86.5 L 346.2 86.5 L 346.2 83.7 L 348.1 82.5 L 348.1 86.5 L 350 86.5 L 350 88 L 348.1 88 C 348.1 88 348.09 94.67 348.1 94.7 C 348.1 95.2 348.1 95.6 348.2 95.7 C 348.3 95.9 348.4 96 348.5 96.1 C 348.7 96.2 348.9 96.2 349.2 96.2 C 349.2 96.2 349.2 96.2 349.2 96.2 Z " stroke="none" fill="#000"/>  </g>  <g id="Polygon6839">    <path d="M 65.3 63 L 61 55.4 L 59.1 55.4 L 59.1 63 L 55.2 63 L 55.2 43.5 C 55.2 43.5 62.52 43.46 62.5 43.5 C 64 43.5 65.3 43.7 66.4 44.3 C 67.4 44.8 68.2 45.5 68.8 46.4 C 69.3 47.3 69.6 48.3 69.6 49.4 C 69.6 50.7 69.2 51.9 68.5 52.9 C 67.7 54 66.6 54.7 65.1 55.1 C 65.12 55.08 69.8 63 69.8 63 L 65.3 63 Z M 59.1 52.4 C 59.1 52.4 62.38 52.44 62.4 52.4 C 63.4 52.4 64.2 52.2 64.8 51.7 C 65.3 51.2 65.5 50.4 65.5 49.5 C 65.5 48.6 65.3 47.9 64.8 47.4 C 64.2 47 63.4 46.7 62.4 46.7 C 62.38 46.7 59.1 46.7 59.1 46.7 L 59.1 52.4 Z M 87.6 54.9 C 87.6 55.5 87.5 56 87.4 56.4 C 87.4 56.4 76.1 56.4 76.1 56.4 C 76.2 57.5 76.6 58.4 77.3 59.1 C 78 59.7 78.8 60 79.8 60 C 81.3 60 82.3 59.4 82.9 58.1 C 82.9 58.1 87.2 58.1 87.2 58.1 C 86.7 59.6 85.9 60.8 84.6 61.8 C 83.3 62.8 81.8 63.3 79.9 63.3 C 78.4 63.3 77.1 62.9 75.9 62.3 C 74.7 61.6 73.8 60.7 73.1 59.4 C 72.5 58.2 72.1 56.8 72.1 55.2 C 72.1 53.6 72.4 52.2 73.1 51 C 73.8 49.8 74.7 48.9 75.8 48.2 C 77 47.6 78.4 47.2 79.9 47.2 C 81.4 47.2 82.7 47.6 83.9 48.2 C 85 48.8 85.9 49.7 86.6 50.9 C 87.2 52.1 87.6 53.4 87.6 54.9 C 87.6 54.9 87.6 54.9 87.6 54.9 Z M 83.5 53.8 C 83.5 52.8 83.1 52 82.4 51.4 C 81.7 50.8 80.8 50.5 79.8 50.5 C 78.8 50.5 78 50.7 77.3 51.3 C 76.7 51.9 76.3 52.7 76.1 53.8 C 76.1 53.8 83.5 53.8 83.5 53.8 Z M 89.4 55.2 C 89.4 53.6 89.7 52.2 90.4 51 C 91 49.8 91.9 48.9 93.1 48.2 C 94.3 47.6 95.6 47.2 97.1 47.2 C 99 47.2 100.6 47.7 101.8 48.7 C 103.1 49.6 103.9 51 104.4 52.7 C 104.4 52.7 100.1 52.7 100.1 52.7 C 99.9 52.1 99.5 51.5 99 51.1 C 98.5 50.8 97.8 50.6 97 50.6 C 95.9 50.6 95 51 94.4 51.8 C 93.7 52.6 93.4 53.8 93.4 55.2 C 93.4 56.7 93.7 57.9 94.4 58.7 C 95 59.5 95.9 59.9 97 59.9 C 98.6 59.9 99.7 59.2 100.1 57.8 C 100.1 57.8 104.4 57.8 104.4 57.8 C 103.9 59.4 103.1 60.8 101.8 61.8 C 100.6 62.8 99 63.3 97.1 63.3 C 95.6 63.3 94.3 62.9 93.1 62.3 C 91.9 61.6 91 60.7 90.4 59.5 C 89.7 58.3 89.4 56.8 89.4 55.2 C 89.4 55.2 89.4 55.2 89.4 55.2 Z M 114.1 63.3 C 112.7 63.3 111.3 62.9 110.1 62.3 C 108.9 61.6 108 60.7 107.3 59.4 C 106.6 58.2 106.3 56.8 106.3 55.2 C 106.3 53.7 106.6 52.3 107.3 51 C 108 49.8 109 48.9 110.2 48.2 C 111.4 47.6 112.8 47.2 114.3 47.2 C 115.8 47.2 117.1 47.6 118.3 48.2 C 119.5 48.9 120.5 49.8 121.2 51 C 121.9 52.3 122.2 53.7 122.2 55.2 C 122.2 56.8 121.9 58.2 121.2 59.4 C 120.4 60.7 119.5 61.6 118.3 62.3 C 117 62.9 115.7 63.3 114.1 63.3 C 114.1 63.3 114.1 63.3 114.1 63.3 Z M 114.1 59.8 C 114.9 59.8 115.5 59.7 116.2 59.3 C 116.8 59 117.3 58.5 117.6 57.8 C 118 57.1 118.2 56.2 118.2 55.2 C 118.2 53.8 117.8 52.6 117 51.8 C 116.3 51 115.3 50.7 114.2 50.7 C 113.1 50.7 112.1 51 111.4 51.8 C 110.6 52.6 110.3 53.8 110.3 55.2 C 110.3 56.7 110.6 57.9 111.4 58.6 C 112.1 59.4 113 59.8 114.1 59.8 C 114.1 59.8 114.1 59.8 114.1 59.8 Z M 144.4 47.3 C 146.3 47.3 147.8 47.8 149 49 C 150.2 50.2 150.7 51.8 150.7 53.9 C 150.75 53.9 150.7 63 150.7 63 L 146.8 63 C 146.8 63 146.83 54.43 146.8 54.4 C 146.8 53.2 146.5 52.3 145.9 51.6 C 145.3 51 144.4 50.7 143.4 50.7 C 142.3 50.7 141.5 51 140.8 51.6 C 140.2 52.3 139.9 53.2 139.9 54.4 C 139.91 54.43 139.9 63 139.9 63 L 136 63 C 136 63 135.99 54.43 136 54.4 C 136 53.2 135.7 52.3 135.1 51.6 C 134.4 51 133.6 50.7 132.5 50.7 C 131.5 50.7 130.6 51 130 51.6 C 129.4 52.3 129 53.2 129 54.4 C 129.05 54.43 129 63 129 63 L 125.1 63 L 125.1 47.5 L 129 47.5 C 129 47.5 129.05 49.36 129 49.4 C 129.5 48.7 130.2 48.2 131 47.8 C 131.8 47.5 132.7 47.3 133.6 47.3 C 134.8 47.3 135.9 47.5 136.9 48 C 137.8 48.5 138.5 49.3 139.1 50.2 C 139.6 49.3 140.3 48.6 141.3 48.1 C 142.2 47.5 143.3 47.3 144.4 47.3 C 144.4 47.3 144.4 47.3 144.4 47.3 Z M 173.7 47.3 C 175.6 47.3 177.2 47.8 178.3 49 C 179.5 50.2 180.1 51.8 180.1 53.9 C 180.09 53.9 180.1 63 180.1 63 L 176.2 63 C 176.2 63 176.17 54.43 176.2 54.4 C 176.2 53.2 175.9 52.3 175.2 51.6 C 174.6 51 173.8 50.7 172.7 50.7 C 171.7 50.7 170.8 51 170.2 51.6 C 169.6 52.3 169.3 53.2 169.3 54.4 C 169.25 54.43 169.3 63 169.3 63 L 165.3 63 C 165.3 63 165.33 54.43 165.3 54.4 C 165.3 53.2 165 52.3 164.4 51.6 C 163.8 51 163 50.7 161.9 50.7 C 160.8 50.7 160 51 159.3 51.6 C 158.7 52.3 158.4 53.2 158.4 54.4 C 158.39 54.43 158.4 63 158.4 63 L 154.5 63 L 154.5 47.5 L 158.4 47.5 C 158.4 47.5 158.39 49.36 158.4 49.4 C 158.9 48.7 159.5 48.2 160.3 47.8 C 161.1 47.5 162 47.3 163 47.3 C 164.2 47.3 165.2 47.5 166.2 48 C 167.2 48.5 167.9 49.3 168.4 50.2 C 168.9 49.3 169.6 48.6 170.6 48.1 C 171.6 47.5 172.6 47.3 173.7 47.3 C 173.7 47.3 173.7 47.3 173.7 47.3 Z M 198.2 54.9 C 198.2 55.5 198.2 56 198.1 56.4 C 198.1 56.4 186.8 56.4 186.8 56.4 C 186.9 57.5 187.3 58.4 188 59.1 C 188.6 59.7 189.5 60 190.5 60 C 192 60 193 59.4 193.6 58.1 C 193.6 58.1 197.8 58.1 197.8 58.1 C 197.4 59.6 196.5 60.8 195.3 61.8 C 194 62.8 192.4 63.3 190.6 63.3 C 189.1 63.3 187.8 62.9 186.6 62.3 C 185.4 61.6 184.5 60.7 183.8 59.4 C 183.1 58.2 182.8 56.8 182.8 55.2 C 182.8 53.6 183.1 52.2 183.8 51 C 184.4 49.8 185.4 48.9 186.5 48.2 C 187.7 47.6 189.1 47.2 190.6 47.2 C 192.1 47.2 193.4 47.6 194.6 48.2 C 195.7 48.8 196.6 49.7 197.3 50.9 C 197.9 52.1 198.2 53.4 198.2 54.9 C 198.2 54.9 198.2 54.9 198.2 54.9 Z M 194.2 53.8 C 194.2 52.8 193.8 52 193.1 51.4 C 192.4 50.8 191.5 50.5 190.5 50.5 C 189.5 50.5 188.7 50.7 188 51.3 C 187.4 51.9 187 52.7 186.8 53.8 C 186.8 53.8 194.2 53.8 194.2 53.8 Z M 209.7 47.3 C 211.5 47.3 213 47.8 214.2 49 C 215.3 50.2 215.9 51.8 215.9 53.9 C 215.87 53.9 215.9 63 215.9 63 L 212 63 C 212 63 211.95 54.43 212 54.4 C 212 53.2 211.6 52.3 211 51.6 C 210.4 50.9 209.6 50.6 208.5 50.6 C 207.4 50.6 206.6 50.9 205.9 51.6 C 205.3 52.3 205 53.2 205 54.4 C 205.01 54.43 205 63 205 63 L 201.1 63 L 201.1 47.5 L 205 47.5 C 205 47.5 205.01 49.42 205 49.4 C 205.5 48.7 206.2 48.2 207 47.8 C 207.8 47.5 208.7 47.3 209.7 47.3 C 209.7 47.3 209.7 47.3 209.7 47.3 Z M 218.6 55.2 C 218.6 53.6 218.9 52.2 219.5 51 C 220.2 49.8 221 48.9 222.1 48.2 C 223.2 47.6 224.4 47.2 225.7 47.2 C 226.7 47.2 227.7 47.5 228.6 47.9 C 229.5 48.3 230.2 48.9 230.8 49.6 C 230.77 49.64 230.8 42.3 230.8 42.3 L 234.7 42.3 L 234.7 63 L 230.8 63 C 230.8 63 230.77 60.7 230.8 60.7 C 230.3 61.5 229.6 62.1 228.7 62.6 C 227.8 63 226.8 63.3 225.7 63.3 C 224.4 63.3 223.2 62.9 222.1 62.2 C 221 61.6 220.2 60.6 219.5 59.4 C 218.9 58.2 218.6 56.8 218.6 55.2 C 218.6 55.2 218.6 55.2 218.6 55.2 Z M 230.8 55.2 C 230.8 54.3 230.6 53.5 230.2 52.8 C 229.9 52.1 229.4 51.6 228.7 51.2 C 228.1 50.9 227.4 50.7 226.7 50.7 C 226 50.7 225.3 50.9 224.7 51.2 C 224 51.6 223.5 52.1 223.2 52.8 C 222.8 53.4 222.6 54.3 222.6 55.2 C 222.6 56.1 222.8 56.9 223.2 57.6 C 223.5 58.3 224.1 58.9 224.7 59.2 C 225.3 59.6 226 59.8 226.7 59.8 C 227.4 59.8 228.1 59.6 228.7 59.3 C 229.4 58.9 229.9 58.4 230.2 57.7 C 230.6 57 230.8 56.2 230.8 55.2 C 230.8 55.2 230.8 55.2 230.8 55.2 Z M 237.6 55.2 C 237.6 53.6 237.9 52.2 238.5 51 C 239.1 49.8 240 48.9 241.1 48.2 C 242.1 47.6 243.3 47.2 244.7 47.2 C 245.8 47.2 246.8 47.5 247.7 47.9 C 248.6 48.4 249.3 49 249.8 49.7 C 249.78 49.7 249.8 47.5 249.8 47.5 L 253.7 47.5 L 253.7 63 L 249.8 63 C 249.8 63 249.78 60.73 249.8 60.7 C 249.3 61.5 248.6 62.1 247.7 62.5 C 246.8 63 245.8 63.3 244.6 63.3 C 243.3 63.3 242.1 62.9 241.1 62.2 C 240 61.6 239.1 60.6 238.5 59.4 C 237.9 58.2 237.6 56.8 237.6 55.2 C 237.6 55.2 237.6 55.2 237.6 55.2 Z M 249.8 55.2 C 249.8 54.3 249.6 53.5 249.2 52.8 C 248.8 52.1 248.3 51.6 247.7 51.2 C 247.1 50.9 246.4 50.7 245.7 50.7 C 244.9 50.7 244.3 50.9 243.6 51.2 C 243 51.6 242.5 52.1 242.1 52.8 C 241.8 53.4 241.6 54.3 241.6 55.2 C 241.6 56.1 241.8 56.9 242.1 57.6 C 242.5 58.3 243 58.9 243.7 59.2 C 244.3 59.6 245 59.8 245.7 59.8 C 246.4 59.8 247.1 59.6 247.7 59.3 C 248.3 58.9 248.8 58.4 249.2 57.7 C 249.6 57 249.8 56.2 249.8 55.2 C 249.8 55.2 249.8 55.2 249.8 55.2 Z M 262.1 50.7 C 262.1 50.7 262.13 58.21 262.1 58.2 C 262.1 58.7 262.3 59.1 262.5 59.3 C 262.8 59.6 263.2 59.7 263.8 59.7 C 263.78 59.7 265.6 59.7 265.6 59.7 L 265.6 63 C 265.6 63 263.14 63 263.1 63 C 259.8 63 258.2 61.4 258.2 58.2 C 258.18 58.18 258.2 50.7 258.2 50.7 L 256.3 50.7 L 256.3 47.5 L 258.2 47.5 L 258.2 43.7 L 262.1 43.7 L 262.1 47.5 L 265.6 47.5 L 265.6 50.7 L 262.1 50.7 Z M 270.4 45.6 C 269.7 45.6 269.2 45.4 268.7 45 C 268.2 44.5 268 44 268 43.3 C 268 42.7 268.2 42.1 268.7 41.7 C 269.2 41.3 269.7 41 270.4 41 C 271.1 41 271.7 41.3 272.1 41.7 C 272.6 42.1 272.8 42.7 272.8 43.3 C 272.8 44 272.6 44.5 272.1 45 C 271.7 45.4 271.1 45.6 270.4 45.6 C 270.4 45.6 270.4 45.6 270.4 45.6 Z M 272.3 47.5 L 272.3 63 L 268.4 63 L 268.4 47.5 L 272.3 47.5 Z M 283.1 63.3 C 281.6 63.3 280.3 62.9 279.1 62.3 C 277.9 61.6 276.9 60.7 276.3 59.4 C 275.6 58.2 275.2 56.8 275.2 55.2 C 275.2 53.7 275.6 52.3 276.3 51 C 277 49.8 277.9 48.9 279.2 48.2 C 280.4 47.6 281.7 47.2 283.2 47.2 C 284.7 47.2 286.1 47.6 287.3 48.2 C 288.5 48.9 289.4 49.8 290.1 51 C 290.8 52.3 291.2 53.7 291.2 55.2 C 291.2 56.8 290.8 58.2 290.1 59.4 C 289.4 60.7 288.4 61.6 287.2 62.3 C 286 62.9 284.6 63.3 283.1 63.3 C 283.1 63.3 283.1 63.3 283.1 63.3 Z M 283.1 59.8 C 283.8 59.8 284.5 59.7 285.1 59.3 C 285.7 59 286.2 58.5 286.6 57.8 C 287 57.1 287.2 56.2 287.2 55.2 C 287.2 53.8 286.8 52.6 286 51.8 C 285.2 51 284.3 50.7 283.2 50.7 C 282 50.7 281.1 51 280.3 51.8 C 279.6 52.6 279.2 53.8 279.2 55.2 C 279.2 56.7 279.6 57.9 280.3 58.6 C 281.1 59.4 282 59.8 283.1 59.8 C 283.1 59.8 283.1 59.8 283.1 59.8 Z M 302.7 47.3 C 304.5 47.3 306 47.8 307.2 49 C 308.3 50.2 308.9 51.8 308.9 53.9 C 308.86 53.9 308.9 63 308.9 63 L 304.9 63 C 304.9 63 304.94 54.43 304.9 54.4 C 304.9 53.2 304.6 52.3 304 51.6 C 303.4 50.9 302.6 50.6 301.5 50.6 C 300.4 50.6 299.6 50.9 298.9 51.6 C 298.3 52.3 298 53.2 298 54.4 C 297.99 54.43 298 63 298 63 L 294.1 63 L 294.1 47.5 L 298 47.5 C 298 47.5 297.99 49.42 298 49.4 C 298.5 48.7 299.2 48.2 300 47.8 C 300.8 47.5 301.7 47.3 302.7 47.3 C 302.7 47.3 302.7 47.3 302.7 47.3 Z " stroke="none" fill="#e4007e"/>  </g>  <g id="Polygon6838">    <path d="M 139 15.9 C 139 16.9 138.7 17.9 138.2 18.8 C 137.7 19.8 137 20.5 135.9 21.1 C 134.9 21.6 133.5 21.9 131.9 21.9 C 131.92 21.9 128.6 21.9 128.6 21.9 L 128.6 29.4 L 124.7 29.4 L 124.7 9.9 C 124.7 9.9 131.92 9.86 131.9 9.9 C 133.4 9.9 134.7 10.1 135.8 10.6 C 136.8 11.2 137.6 11.9 138.2 12.8 C 138.7 13.7 139 14.7 139 15.9 C 139 15.9 139 15.9 139 15.9 Z M 131.7 18.7 C 132.8 18.7 133.6 18.5 134.2 18 C 134.7 17.5 134.9 16.8 134.9 15.9 C 134.9 14 133.9 13 131.7 13 C 131.75 13.05 128.6 13 128.6 13 L 128.6 18.7 L 131.7 18.7 C 131.7 18.7 131.75 18.73 131.7 18.7 Z M 145.7 16.3 C 146.2 15.5 146.8 14.8 147.6 14.4 C 148.4 13.9 149.4 13.7 150.4 13.7 C 150.42 13.66 150.4 17.8 150.4 17.8 C 150.4 17.8 149.39 17.78 149.4 17.8 C 148.2 17.8 147.2 18.1 146.6 18.6 C 146 19.2 145.7 20.2 145.7 21.7 C 145.66 21.67 145.7 29.4 145.7 29.4 L 141.7 29.4 L 141.7 13.9 L 145.7 13.9 L 145.7 16.3 C 145.7 16.3 145.66 16.3 145.7 16.3 Z M 159.9 29.7 C 158.4 29.7 157.1 29.3 155.9 28.7 C 154.7 28 153.8 27.1 153.1 25.8 C 152.4 24.6 152.1 23.2 152.1 21.6 C 152.1 20.1 152.4 18.7 153.1 17.4 C 153.8 16.2 154.8 15.3 156 14.6 C 157.2 14 158.6 13.6 160.1 13.6 C 161.5 13.6 162.9 14 164.1 14.6 C 165.3 15.3 166.3 16.2 167 17.4 C 167.7 18.7 168 20.1 168 21.6 C 168 23.2 167.7 24.6 167 25.8 C 166.2 27.1 165.3 28 164 28.7 C 162.8 29.3 161.5 29.7 159.9 29.7 C 159.9 29.7 159.9 29.7 159.9 29.7 Z M 159.9 26.2 C 160.7 26.2 161.3 26.1 161.9 25.7 C 162.6 25.4 163.1 24.9 163.4 24.2 C 163.8 23.5 164 22.6 164 21.6 C 164 20.2 163.6 19 162.8 18.2 C 162.1 17.4 161.1 17.1 160 17.1 C 158.9 17.1 157.9 17.4 157.2 18.2 C 156.4 19 156.1 20.2 156.1 21.6 C 156.1 23.1 156.4 24.3 157.2 25 C 157.9 25.8 158.8 26.2 159.9 26.2 C 159.9 26.2 159.9 26.2 159.9 26.2 Z M 177.4 25.8 L 181.3 13.9 L 185.5 13.9 L 179.7 29.4 L 175 29.4 L 169.3 13.9 L 173.5 13.9 L 177.4 25.8 Z M 189.7 12 C 189 12 188.4 11.8 188 11.4 C 187.5 10.9 187.3 10.4 187.3 9.7 C 187.3 9.1 187.5 8.5 188 8.1 C 188.4 7.7 189 7.4 189.7 7.4 C 190.4 7.4 190.9 7.7 191.4 8.1 C 191.9 8.5 192.1 9.1 192.1 9.7 C 192.1 10.4 191.9 10.9 191.4 11.4 C 190.9 11.8 190.4 12 189.7 12 C 189.7 12 189.7 12 189.7 12 Z M 191.6 13.9 L 191.6 29.4 L 187.7 29.4 L 187.7 13.9 L 191.6 13.9 Z M 194.5 21.6 C 194.5 20 194.8 18.6 195.4 17.4 C 196 16.2 196.9 15.3 198 14.6 C 199 14 200.3 13.6 201.6 13.6 C 202.6 13.6 203.5 13.9 204.5 14.3 C 205.4 14.7 206.1 15.3 206.6 16 C 206.65 16.04 206.6 8.7 206.6 8.7 L 210.6 8.7 L 210.6 29.4 L 206.6 29.4 C 206.6 29.4 206.65 27.1 206.6 27.1 C 206.2 27.9 205.5 28.5 204.6 29 C 203.7 29.4 202.7 29.7 201.6 29.7 C 200.2 29.7 199 29.3 198 28.6 C 196.9 28 196 27 195.4 25.8 C 194.8 24.6 194.5 23.2 194.5 21.6 C 194.5 21.6 194.5 21.6 194.5 21.6 Z M 206.7 21.6 C 206.7 20.7 206.5 19.9 206.1 19.2 C 205.7 18.5 205.2 18 204.6 17.6 C 204 17.3 203.3 17.1 202.6 17.1 C 201.8 17.1 201.2 17.3 200.5 17.6 C 199.9 18 199.4 18.5 199 19.2 C 198.7 19.8 198.5 20.7 198.5 21.6 C 198.5 22.5 198.7 23.3 199 24 C 199.4 24.7 199.9 25.3 200.6 25.6 C 201.2 26 201.8 26.2 202.6 26.2 C 203.3 26.2 204 26 204.6 25.7 C 205.2 25.3 205.7 24.8 206.1 24.1 C 206.5 23.4 206.7 22.6 206.7 21.6 C 206.7 21.6 206.7 21.6 206.7 21.6 Z M 228.9 21.3 C 228.9 21.9 228.8 22.4 228.8 22.8 C 228.8 22.8 217.4 22.8 217.4 22.8 C 217.5 23.9 217.9 24.8 218.6 25.5 C 219.3 26.1 220.1 26.4 221.2 26.4 C 222.6 26.4 223.6 25.8 224.3 24.5 C 224.3 24.5 228.5 24.5 228.5 24.5 C 228 26 227.2 27.2 225.9 28.2 C 224.6 29.2 223.1 29.7 221.2 29.7 C 219.7 29.7 218.4 29.3 217.2 28.7 C 216 28 215.1 27.1 214.4 25.8 C 213.8 24.6 213.5 23.2 213.5 21.6 C 213.5 20 213.8 18.6 214.4 17.4 C 215.1 16.2 216 15.3 217.2 14.6 C 218.4 14 219.7 13.6 221.2 13.6 C 222.7 13.6 224 14 225.2 14.6 C 226.4 15.2 227.3 16.1 227.9 17.3 C 228.6 18.5 228.9 19.8 228.9 21.3 C 228.9 21.3 228.9 21.3 228.9 21.3 Z M 224.8 20.2 C 224.8 19.2 224.4 18.4 223.7 17.8 C 223 17.2 222.1 16.9 221.1 16.9 C 220.2 16.9 219.3 17.1 218.7 17.7 C 218 18.3 217.6 19.1 217.5 20.2 C 217.5 20.2 224.8 20.2 224.8 20.2 Z M 235.7 16.3 C 236.2 15.5 236.8 14.8 237.6 14.4 C 238.4 13.9 239.4 13.7 240.4 13.7 C 240.41 13.66 240.4 17.8 240.4 17.8 C 240.4 17.8 239.38 17.78 239.4 17.8 C 238.1 17.8 237.2 18.1 236.6 18.6 C 236 19.2 235.7 20.2 235.7 21.7 C 235.65 21.67 235.7 29.4 235.7 29.4 L 231.7 29.4 L 231.7 13.9 L 235.7 13.9 L 235.7 16.3 C 235.7 16.3 235.65 16.3 235.7 16.3 Z " stroke="none" fill="#e4007e"/>  </g></svg>