<?xml version="1.0" standalone="no"?><!DOCTYPE svg PUBLIC "-//W3C//DTD SVG 1.1//EN" "http://www.w3.org/Graphics/SVG/1.1/DTD/svg11.dtd"><svg xmlns="http://www.w3.org/2000/svg" version="1.1" width="365.1px" height="203.6px" viewBox="0 -2 365.1 203.6" style="top:-2px">  <desc>Provider Recommendation Not required for the apprenticeship standard. Best suited to technically confident learners i...</desc>  <defs/>  <g id="Polygon8184">    <path d="M 1.7 188.7 L 1.7 173 C 1.7 173 7.64 172.96 7.6 173 C 8.7 173 9.5 173 10 173.1 C 10.8 173.2 11.5 173.5 12 173.8 C 12.5 174.2 12.9 174.7 13.2 175.4 C 13.6 176 13.7 176.7 13.7 177.5 C 13.7 178.8 13.3 180 12.4 180.9 C 11.6 181.8 10 182.3 7.8 182.3 C 7.82 182.3 3.8 182.3 3.8 182.3 L 3.8 188.7 L 1.7 188.7 Z M 3.8 180.4 C 3.8 180.4 7.85 180.44 7.9 180.4 C 9.2 180.4 10.2 180.2 10.7 179.7 C 11.3 179.2 11.6 178.5 11.6 177.6 C 11.6 176.9 11.4 176.4 11.1 175.9 C 10.7 175.4 10.3 175.1 9.8 175 C 9.4 174.9 8.8 174.8 7.8 174.8 C 7.81 174.81 3.8 174.8 3.8 174.8 L 3.8 180.4 Z M 16.1 188.7 L 16.1 173 L 18 173 L 18 188.7 L 16.1 188.7 Z M 28.8 185 C 28.8 185 30.8 185.3 30.8 185.3 C 30.5 186.4 29.9 187.4 29.1 188 C 28.2 188.6 27.1 189 25.8 189 C 24.1 189 22.8 188.4 21.8 187.4 C 20.9 186.4 20.4 185 20.4 183.1 C 20.4 181.2 20.9 179.7 21.8 178.6 C 22.8 177.6 24.1 177 25.7 177 C 27.2 177 28.5 177.6 29.4 178.6 C 30.4 179.6 30.9 181.1 30.9 183 C 30.9 183.1 30.9 183.3 30.9 183.5 C 30.9 183.5 22.4 183.5 22.4 183.5 C 22.4 184.7 22.8 185.7 23.4 186.4 C 24.1 187 24.9 187.4 25.8 187.4 C 26.5 187.4 27.1 187.2 27.6 186.8 C 28.1 186.4 28.5 185.8 28.8 185 Z M 22.5 181.9 C 22.5 181.9 28.8 181.9 28.8 181.9 C 28.8 180.9 28.5 180.2 28.1 179.7 C 27.5 179 26.7 178.6 25.7 178.6 C 24.8 178.6 24.1 178.9 23.5 179.5 C 22.9 180.1 22.5 180.9 22.5 181.9 Z M 41.1 188.7 C 40.9 188.3 40.7 187.8 40.7 187.3 C 40 187.9 39.3 188.3 38.6 188.6 C 38 188.8 37.3 189 36.5 189 C 35.2 189 34.3 188.7 33.6 188 C 32.9 187.4 32.6 186.6 32.6 185.7 C 32.6 185.1 32.7 184.6 33 184.2 C 33.2 183.7 33.6 183.3 34 183.1 C 34.4 182.8 34.8 182.6 35.4 182.4 C 35.7 182.3 36.3 182.2 37.1 182.1 C 38.6 181.9 39.8 181.7 40.5 181.5 C 40.5 181.2 40.5 181 40.5 181 C 40.5 180.2 40.4 179.6 40 179.3 C 39.5 178.9 38.8 178.6 37.8 178.6 C 36.9 178.6 36.2 178.8 35.8 179.1 C 35.3 179.4 35 180 34.8 180.8 C 34.8 180.8 32.9 180.6 32.9 180.6 C 33.1 179.7 33.4 179.1 33.8 178.6 C 34.2 178.1 34.7 177.7 35.5 177.4 C 36.2 177.2 37.1 177 38.1 177 C 39 177 39.8 177.2 40.4 177.4 C 41.1 177.6 41.5 177.9 41.8 178.2 C 42.1 178.6 42.3 179 42.4 179.6 C 42.5 179.9 42.5 180.5 42.5 181.3 C 42.5 181.3 42.5 183.9 42.5 183.9 C 42.5 185.7 42.5 186.9 42.6 187.3 C 42.7 187.8 42.9 188.3 43.1 188.7 C 43.1 188.7 41.1 188.7 41.1 188.7 C 41.1 188.7 41.08 188.7 41.1 188.7 Z M 40.5 183 C 39.8 183.3 38.8 183.5 37.4 183.7 C 36.6 183.8 36 184 35.7 184.1 C 35.4 184.2 35.1 184.4 34.9 184.7 C 34.7 185 34.7 185.3 34.7 185.6 C 34.7 186.2 34.8 186.6 35.2 186.9 C 35.6 187.3 36.2 187.4 37 187.4 C 37.7 187.4 38.4 187.3 38.9 187 C 39.5 186.6 39.9 186.2 40.2 185.6 C 40.4 185.2 40.5 184.5 40.5 183.7 C 40.5 183.7 40.5 183 40.5 183 Z M 44.7 185.3 C 44.7 185.3 46.6 185 46.6 185 C 46.7 185.8 47 186.4 47.5 186.8 C 48 187.2 48.7 187.4 49.6 187.4 C 50.5 187.4 51.1 187.2 51.6 186.8 C 52 186.5 52.2 186 52.2 185.6 C 52.2 185.1 52 184.8 51.6 184.5 C 51.4 184.4 50.7 184.1 49.7 183.9 C 48.2 183.5 47.2 183.2 46.7 182.9 C 46.2 182.7 45.7 182.3 45.5 181.9 C 45.2 181.4 45 180.9 45 180.3 C 45 179.8 45.1 179.3 45.4 178.9 C 45.6 178.5 45.9 178.1 46.3 177.8 C 46.6 177.6 47 177.4 47.6 177.3 C 48.1 177.1 48.6 177 49.2 177 C 50.1 177 50.9 177.2 51.6 177.4 C 52.3 177.7 52.8 178 53.1 178.5 C 53.4 178.9 53.6 179.5 53.8 180.2 C 53.8 180.2 51.9 180.5 51.9 180.5 C 51.8 179.9 51.5 179.5 51.1 179.1 C 50.7 178.8 50.1 178.6 49.4 178.6 C 48.5 178.6 47.8 178.8 47.5 179.1 C 47.1 179.4 46.9 179.7 46.9 180.1 C 46.9 180.3 47 180.6 47.1 180.8 C 47.3 181 47.5 181.2 47.9 181.3 C 48.1 181.4 48.6 181.5 49.6 181.8 C 51 182.2 51.9 182.4 52.4 182.7 C 53 182.9 53.4 183.3 53.7 183.7 C 54 184.1 54.2 184.7 54.2 185.4 C 54.2 186 54 186.6 53.6 187.2 C 53.2 187.7 52.7 188.2 52 188.5 C 51.3 188.8 50.5 189 49.6 189 C 48.1 189 47 188.7 46.2 188 C 45.4 187.4 44.9 186.5 44.7 185.3 Z M 64.3 185 C 64.3 185 66.3 185.3 66.3 185.3 C 66 186.4 65.4 187.4 64.5 188 C 63.7 188.6 62.6 189 61.3 189 C 59.6 189 58.3 188.4 57.3 187.4 C 56.3 186.4 55.8 185 55.8 183.1 C 55.8 181.2 56.3 179.7 57.3 178.6 C 58.3 177.6 59.6 177 61.2 177 C 62.7 177 63.9 177.6 64.9 178.6 C 65.9 179.6 66.4 181.1 66.4 183 C 66.4 183.1 66.4 183.3 66.3 183.5 C 66.3 183.5 57.8 183.5 57.8 183.5 C 57.9 184.7 58.3 185.7 58.9 186.4 C 59.5 187 60.3 187.4 61.3 187.4 C 62 187.4 62.6 187.2 63.1 186.8 C 63.6 186.4 64 185.8 64.3 185 Z M 57.9 181.9 C 57.9 181.9 64.3 181.9 64.3 181.9 C 64.2 180.9 64 180.2 63.6 179.7 C 63 179 62.2 178.6 61.2 178.6 C 60.3 178.6 59.6 178.9 58.9 179.5 C 58.3 180.1 58 180.9 57.9 181.9 Z M 73.9 185.3 C 73.9 185.3 75.9 185 75.9 185 C 76 185.8 76.3 186.4 76.8 186.8 C 77.2 187.2 77.9 187.4 78.8 187.4 C 79.7 187.4 80.4 187.2 80.8 186.8 C 81.2 186.5 81.4 186 81.4 185.6 C 81.4 185.1 81.2 184.8 80.9 184.5 C 80.6 184.4 79.9 184.1 78.9 183.9 C 77.5 183.5 76.5 183.2 75.9 182.9 C 75.4 182.7 75 182.3 74.7 181.9 C 74.4 181.4 74.3 180.9 74.3 180.3 C 74.3 179.8 74.4 179.3 74.6 178.9 C 74.8 178.5 75.2 178.1 75.6 177.8 C 75.9 177.6 76.3 177.4 76.8 177.3 C 77.3 177.1 77.9 177 78.5 177 C 79.4 177 80.1 177.2 80.8 177.4 C 81.5 177.7 82 178 82.3 178.5 C 82.6 178.9 82.9 179.5 83 180.2 C 83 180.2 81.1 180.5 81.1 180.5 C 81 179.9 80.8 179.5 80.4 179.1 C 79.9 178.8 79.4 178.6 78.6 178.6 C 77.7 178.6 77.1 178.8 76.7 179.1 C 76.3 179.4 76.1 179.7 76.1 180.1 C 76.1 180.3 76.2 180.6 76.4 180.8 C 76.5 181 76.8 181.2 77.1 181.3 C 77.3 181.4 77.9 181.5 78.8 181.8 C 80.2 182.2 81.1 182.4 81.7 182.7 C 82.2 182.9 82.6 183.3 83 183.7 C 83.3 184.1 83.4 184.7 83.4 185.4 C 83.4 186 83.2 186.6 82.9 187.2 C 82.5 187.7 81.9 188.2 81.2 188.5 C 80.5 188.8 79.7 189 78.8 189 C 77.3 189 76.2 188.7 75.4 188 C 74.7 187.4 74.2 186.5 73.9 185.3 Z M 93.2 184.5 C 93.2 184.5 95.1 184.8 95.1 184.8 C 94.9 186.1 94.3 187.1 93.5 187.8 C 92.6 188.6 91.6 189 90.3 189 C 88.8 189 87.5 188.5 86.5 187.4 C 85.6 186.4 85.1 184.9 85.1 183 C 85.1 181.8 85.3 180.7 85.7 179.8 C 86.1 178.9 86.8 178.2 87.6 177.7 C 88.4 177.3 89.3 177 90.3 177 C 91.6 177 92.6 177.4 93.4 178 C 94.2 178.6 94.7 179.5 94.9 180.6 C 94.9 180.6 93 180.9 93 180.9 C 92.8 180.2 92.5 179.6 92 179.2 C 91.6 178.8 91 178.6 90.4 178.6 C 89.4 178.6 88.6 179 88 179.7 C 87.4 180.4 87.1 181.5 87.1 183 C 87.1 184.5 87.4 185.6 88 186.3 C 88.6 187 89.3 187.4 90.3 187.4 C 91.1 187.4 91.7 187.1 92.2 186.7 C 92.7 186.2 93 185.5 93.2 184.5 Z M 96.7 188.7 L 96.7 177.3 L 98.4 177.3 C 98.4 177.3 98.44 179.02 98.4 179 C 98.9 178.2 99.3 177.7 99.7 177.4 C 100 177.2 100.5 177 100.9 177 C 101.6 177 102.2 177.2 102.9 177.7 C 102.9 177.7 102.2 179.5 102.2 179.5 C 101.8 179.2 101.3 179 100.8 179 C 100.4 179 100 179.2 99.7 179.4 C 99.3 179.7 99.1 180 99 180.5 C 98.7 181.2 98.6 181.9 98.6 182.7 C 98.63 182.73 98.6 188.7 98.6 188.7 L 96.7 188.7 Z M 103.3 183 C 103.3 180.9 103.9 179.3 105.1 178.3 C 106.1 177.5 107.3 177 108.7 177 C 110.2 177 111.5 177.6 112.5 178.6 C 113.5 179.6 114 181 114 182.8 C 114 184.3 113.8 185.5 113.4 186.3 C 112.9 187.1 112.3 187.8 111.4 188.3 C 110.6 188.7 109.7 189 108.7 189 C 107.1 189 105.8 188.4 104.8 187.4 C 103.8 186.4 103.3 184.9 103.3 183 Z M 105.3 183 C 105.3 184.5 105.6 185.6 106.3 186.3 C 106.9 187 107.7 187.4 108.7 187.4 C 109.6 187.4 110.4 187 111.1 186.3 C 111.7 185.5 112 184.4 112 182.9 C 112 181.5 111.7 180.5 111.1 179.7 C 110.4 179 109.6 178.6 108.7 178.6 C 107.7 178.6 106.9 179 106.3 179.7 C 105.6 180.4 105.3 181.5 105.3 183 Z M 116.2 188.7 L 116.2 173 L 118.2 173 L 118.2 188.7 L 116.2 188.7 Z M 121.1 188.7 L 121.1 173 L 123.1 173 L 123.1 188.7 L 121.1 188.7 Z M 139.5 188.7 C 139.5 188.7 139.53 187.03 139.5 187 C 138.6 188.3 137.4 189 135.9 189 C 135.2 189 134.6 188.8 134 188.6 C 133.4 188.3 133 188 132.7 187.6 C 132.4 187.2 132.2 186.7 132.1 186.2 C 132 185.8 132 185.2 132 184.4 C 132.01 184.36 132 177.3 132 177.3 L 133.9 177.3 C 133.9 177.3 133.94 183.62 133.9 183.6 C 133.9 184.6 134 185.3 134.1 185.7 C 134.2 186.2 134.4 186.6 134.8 186.9 C 135.2 187.2 135.7 187.3 136.3 187.3 C 136.9 187.3 137.4 187.1 137.9 186.9 C 138.4 186.6 138.8 186.1 139 185.6 C 139.2 185.1 139.3 184.4 139.3 183.4 C 139.32 183.41 139.3 177.3 139.3 177.3 L 141.3 177.3 L 141.3 188.7 L 139.5 188.7 Z M 143.5 185.3 C 143.5 185.3 145.4 185 145.4 185 C 145.5 185.8 145.8 186.4 146.3 186.8 C 146.8 187.2 147.5 187.4 148.4 187.4 C 149.3 187.4 149.9 187.2 150.4 186.8 C 150.8 186.5 151 186 151 185.6 C 151 185.1 150.8 184.8 150.4 184.5 C 150.2 184.4 149.5 184.1 148.5 183.9 C 147 183.5 146.1 183.2 145.5 182.9 C 145 182.7 144.5 182.3 144.3 181.9 C 144 181.4 143.8 180.9 143.8 180.3 C 143.8 179.8 144 179.3 144.2 178.9 C 144.4 178.5 144.7 178.1 145.1 177.8 C 145.4 177.6 145.8 177.4 146.4 177.3 C 146.9 177.1 147.4 177 148 177 C 148.9 177 149.7 177.2 150.4 177.4 C 151.1 177.7 151.6 178 151.9 178.5 C 152.2 178.9 152.4 179.5 152.6 180.2 C 152.6 180.2 150.7 180.5 150.7 180.5 C 150.6 179.9 150.3 179.5 149.9 179.1 C 149.5 178.8 148.9 178.6 148.2 178.6 C 147.3 178.6 146.7 178.8 146.3 179.1 C 145.9 179.4 145.7 179.7 145.7 180.1 C 145.7 180.3 145.8 180.6 145.9 180.8 C 146.1 181 146.3 181.2 146.7 181.3 C 146.9 181.4 147.4 181.5 148.4 181.8 C 149.8 182.2 150.7 182.4 151.3 182.7 C 151.8 182.9 152.2 183.3 152.5 183.7 C 152.8 184.1 153 184.7 153 185.4 C 153 186 152.8 186.6 152.4 187.2 C 152 187.7 151.5 188.2 150.8 188.5 C 150.1 188.8 149.3 189 148.4 189 C 146.9 189 145.8 188.7 145 188 C 144.2 187.4 143.7 186.5 143.5 185.3 Z M 155.3 175.2 L 155.3 173 L 157.2 173 L 157.2 175.2 L 155.3 175.2 Z M 155.3 188.7 L 155.3 177.3 L 157.2 177.3 L 157.2 188.7 L 155.3 188.7 Z M 160.2 188.7 L 160.2 177.3 L 161.9 177.3 C 161.9 177.3 161.92 178.92 161.9 178.9 C 162.8 177.7 164 177 165.5 177 C 166.2 177 166.9 177.2 167.4 177.4 C 168 177.7 168.5 178 168.7 178.4 C 169 178.8 169.2 179.3 169.3 179.8 C 169.4 180.2 169.4 180.8 169.4 181.7 C 169.45 181.69 169.4 188.7 169.4 188.7 L 167.5 188.7 C 167.5 188.7 167.51 181.76 167.5 181.8 C 167.5 181 167.4 180.4 167.3 180 C 167.1 179.6 166.9 179.3 166.5 179.1 C 166.1 178.8 165.7 178.7 165.1 178.7 C 164.3 178.7 163.6 179 163 179.5 C 162.4 180 162.1 181 162.1 182.5 C 162.11 182.47 162.1 188.7 162.1 188.7 L 160.2 188.7 Z M 172.1 189.6 C 172.1 189.6 173.9 189.9 173.9 189.9 C 174 190.5 174.2 190.9 174.6 191.2 C 175.1 191.6 175.7 191.7 176.6 191.7 C 177.5 191.7 178.1 191.6 178.6 191.2 C 179.1 190.8 179.4 190.3 179.6 189.7 C 179.7 189.3 179.8 188.5 179.8 187.2 C 178.9 188.2 177.9 188.7 176.6 188.7 C 175 188.7 173.8 188.1 173 187 C 172.1 185.9 171.7 184.5 171.7 182.9 C 171.7 181.8 171.9 180.8 172.3 179.9 C 172.7 179 173.2 178.3 174 177.8 C 174.7 177.3 175.6 177 176.6 177 C 178 177 179.1 177.6 179.9 178.7 C 179.94 178.67 179.9 177.3 179.9 177.3 L 181.7 177.3 C 181.7 177.3 181.72 187.16 181.7 187.2 C 181.7 188.9 181.5 190.2 181.2 190.9 C 180.8 191.7 180.2 192.3 179.5 192.7 C 178.7 193.1 177.7 193.3 176.6 193.3 C 175.2 193.3 174.1 193 173.3 192.4 C 172.4 191.8 172 190.9 172.1 189.6 Z M 173.7 182.8 C 173.7 184.3 174 185.4 174.5 186.1 C 175.1 186.8 175.9 187.1 176.8 187.1 C 177.7 187.1 178.4 186.8 179 186.1 C 179.6 185.4 179.9 184.3 179.9 182.9 C 179.9 181.5 179.6 180.4 179 179.7 C 178.4 179 177.6 178.6 176.8 178.6 C 175.9 178.6 175.2 179 174.6 179.7 C 174 180.4 173.7 181.4 173.7 182.8 Z M 194 187 C 194.2 187 194.5 187 194.9 187 C 194.9 187 195.1 188.7 195.1 188.7 C 194.6 188.8 194.1 188.9 193.7 188.9 C 193 188.9 192.4 188.7 192.1 188.5 C 191.7 188.3 191.4 188 191.2 187.6 C 191.1 187.3 191 186.5 191 185.4 C 191 185.36 191 178.8 191 178.8 L 189.6 178.8 L 189.6 177.3 L 191 177.3 L 191 174.5 L 192.9 173.3 L 192.9 177.3 L 194.9 177.3 L 194.9 178.8 L 192.9 178.8 C 192.9 178.8 192.92 185.47 192.9 185.5 C 192.9 186 193 186.4 193 186.5 C 193.1 186.7 193.2 186.8 193.4 186.9 C 193.5 187 193.7 187 194 187 C 194 187 194 187 194 187 Z M 196.8 188.7 L 196.8 173 L 198.7 173 C 198.7 173 198.69 178.61 198.7 178.6 C 199.6 177.6 200.7 177 202.1 177 C 203 177 203.7 177.2 204.3 177.5 C 204.9 177.9 205.4 178.3 205.6 178.9 C 205.9 179.5 206 180.4 206 181.5 C 206.05 181.47 206 188.7 206 188.7 L 204.1 188.7 C 204.1 188.7 204.12 181.47 204.1 181.5 C 204.1 180.5 203.9 179.8 203.5 179.4 C 203.1 178.9 202.5 178.7 201.7 178.7 C 201.1 178.7 200.6 178.9 200.1 179.1 C 199.6 179.4 199.2 179.8 199 180.4 C 198.8 180.9 198.7 181.6 198.7 182.5 C 198.69 182.46 198.7 188.7 198.7 188.7 L 196.8 188.7 Z M 216.8 185 C 216.8 185 218.8 185.3 218.8 185.3 C 218.5 186.4 217.9 187.4 217 188 C 216.2 188.6 215.1 189 213.8 189 C 212.1 189 210.8 188.4 209.8 187.4 C 208.8 186.4 208.3 185 208.3 183.1 C 208.3 181.2 208.8 179.7 209.8 178.6 C 210.8 177.6 212.1 177 213.7 177 C 215.2 177 216.4 177.6 217.4 178.6 C 218.4 179.6 218.9 181.1 218.9 183 C 218.9 183.1 218.9 183.3 218.9 183.5 C 218.9 183.5 210.3 183.5 210.3 183.5 C 210.4 184.7 210.8 185.7 211.4 186.4 C 212 187 212.8 187.4 213.8 187.4 C 214.5 187.4 215.1 187.2 215.6 186.8 C 216.1 186.4 216.5 185.8 216.8 185 Z M 210.5 181.9 C 210.5 181.9 216.8 181.9 216.8 181.9 C 216.7 180.9 216.5 180.2 216.1 179.7 C 215.5 179 214.7 178.6 213.7 178.6 C 212.8 178.6 212.1 178.9 211.5 179.5 C 210.9 180.1 210.5 180.9 210.5 181.9 Z M 235.1 188.7 C 234.9 188.3 234.7 187.8 234.7 187.3 C 234 187.9 233.3 188.3 232.6 188.6 C 231.9 188.8 231.2 189 230.5 189 C 229.2 189 228.3 188.7 227.6 188 C 226.9 187.4 226.6 186.6 226.6 185.7 C 226.6 185.1 226.7 184.6 227 184.2 C 227.2 183.7 227.5 183.3 228 183.1 C 228.4 182.8 228.8 182.6 229.3 182.4 C 229.7 182.3 230.3 182.2 231.1 182.1 C 232.6 181.9 233.8 181.7 234.5 181.5 C 234.5 181.2 234.5 181 234.5 181 C 234.5 180.2 234.3 179.6 234 179.3 C 233.5 178.9 232.7 178.6 231.8 178.6 C 230.9 178.6 230.2 178.8 229.8 179.1 C 229.3 179.4 229 180 228.8 180.8 C 228.8 180.8 226.9 180.6 226.9 180.6 C 227.1 179.7 227.4 179.1 227.8 178.6 C 228.1 178.1 228.7 177.7 229.5 177.4 C 230.2 177.2 231.1 177 232 177 C 233 177 233.8 177.2 234.4 177.4 C 235 177.6 235.5 177.9 235.8 178.2 C 236.1 178.6 236.3 179 236.4 179.6 C 236.4 179.9 236.5 180.5 236.5 181.3 C 236.5 181.3 236.5 183.9 236.5 183.9 C 236.5 185.7 236.5 186.9 236.6 187.3 C 236.7 187.8 236.8 188.3 237.1 188.7 C 237.08 188.7 235.1 188.7 235.1 188.7 C 235.1 188.7 235.06 188.7 235.1 188.7 Z M 234.5 183 C 233.8 183.3 232.8 183.5 231.4 183.7 C 230.6 183.8 230 184 229.7 184.1 C 229.3 184.2 229.1 184.4 228.9 184.7 C 228.7 185 228.6 185.3 228.6 185.6 C 228.6 186.2 228.8 186.6 229.2 186.9 C 229.6 187.3 230.2 187.4 230.9 187.4 C 231.7 187.4 232.3 187.3 232.9 187 C 233.5 186.6 233.9 186.2 234.2 185.6 C 234.4 185.2 234.5 184.5 234.5 183.7 C 234.5 183.7 234.5 183 234.5 183 Z M 239.4 188.7 L 239.4 177.3 L 241.2 177.3 C 241.2 177.3 241.18 179.02 241.2 179 C 241.6 178.2 242 177.7 242.4 177.4 C 242.8 177.2 243.2 177 243.7 177 C 244.3 177 245 177.2 245.6 177.7 C 245.6 177.7 245 179.5 245 179.5 C 244.5 179.2 244 179 243.6 179 C 243.1 179 242.8 179.2 242.4 179.4 C 242.1 179.7 241.8 180 241.7 180.5 C 241.5 181.2 241.4 181.9 241.4 182.7 C 241.37 182.73 241.4 188.7 241.4 188.7 L 239.4 188.7 Z M 246.8 188.7 L 246.8 177.3 L 248.5 177.3 C 248.5 177.3 248.51 179.02 248.5 179 C 249 178.2 249.4 177.7 249.7 177.4 C 250.1 177.2 250.5 177 251 177 C 251.6 177 252.3 177.2 253 177.7 C 253 177.7 252.3 179.5 252.3 179.5 C 251.8 179.2 251.4 179 250.9 179 C 250.5 179 250.1 179.2 249.7 179.4 C 249.4 179.7 249.2 180 249 180.5 C 248.8 181.2 248.7 181.9 248.7 182.7 C 248.7 182.73 248.7 188.7 248.7 188.7 L 246.8 188.7 Z M 253.4 183 C 253.4 180.9 254 179.3 255.2 178.3 C 256.1 177.5 257.3 177 258.7 177 C 260.3 177 261.6 177.6 262.6 178.6 C 263.6 179.6 264.1 181 264.1 182.8 C 264.1 184.3 263.9 185.5 263.4 186.3 C 263 187.1 262.3 187.8 261.5 188.3 C 260.7 188.7 259.7 189 258.7 189 C 257.1 189 255.9 188.4 254.9 187.4 C 253.9 186.4 253.4 184.9 253.4 183 Z M 255.4 183 C 255.4 184.5 255.7 185.6 256.3 186.3 C 257 187 257.8 187.4 258.7 187.4 C 259.7 187.4 260.5 187 261.1 186.3 C 261.8 185.5 262.1 184.4 262.1 182.9 C 262.1 181.5 261.8 180.5 261.1 179.7 C 260.5 179 259.7 178.6 258.7 178.6 C 257.8 178.6 257 179 256.3 179.7 C 255.7 180.4 255.4 181.5 255.4 183 Z M 268.5 188.7 L 265 177.3 L 267 177.3 L 268.8 183.9 C 268.8 183.9 269.45 186.33 269.5 186.3 C 269.5 186.2 269.7 185.4 270 184 C 270.04 183.98 271.9 177.3 271.9 177.3 L 273.8 177.3 L 275.6 183.9 L 276.1 186.1 L 276.8 183.9 L 278.7 177.3 L 280.6 177.3 L 277 188.7 L 275 188.7 L 273.2 181.9 L 272.8 179.9 L 270.5 188.7 L 268.5 188.7 Z M 290 188.7 L 288.2 188.7 L 288.2 173 L 290.2 173 C 290.2 173 290.16 178.57 290.2 178.6 C 291 177.5 292 177 293.3 177 C 294 177 294.7 177.2 295.3 177.5 C 295.9 177.7 296.4 178.1 296.8 178.7 C 297.2 179.2 297.5 179.8 297.8 180.5 C 298 181.2 298.1 182 298.1 182.8 C 298.1 184.8 297.6 186.3 296.7 187.4 C 295.7 188.4 294.5 189 293.2 189 C 291.8 189 290.8 188.4 290 187.3 C 290.02 187.27 290 188.7 290 188.7 Z M 290 182.9 C 290 184.3 290.2 185.3 290.6 185.9 C 291.2 186.9 292 187.4 293 187.4 C 293.9 187.4 294.6 187 295.2 186.3 C 295.8 185.5 296.1 184.4 296.1 183 C 296.1 181.5 295.8 180.4 295.3 179.7 C 294.7 179 294 178.6 293.1 178.6 C 292.3 178.6 291.5 179 290.9 179.7 C 290.3 180.5 290 181.5 290 182.9 Z M 307.9 188.7 C 307.9 188.7 307.95 187.03 307.9 187 C 307.1 188.3 305.9 189 304.3 189 C 303.7 189 303 188.8 302.4 188.6 C 301.9 188.3 301.4 188 301.1 187.6 C 300.9 187.2 300.7 186.7 300.5 186.2 C 300.5 185.8 300.4 185.2 300.4 184.4 C 300.43 184.36 300.4 177.3 300.4 177.3 L 302.4 177.3 C 302.4 177.3 302.36 183.62 302.4 183.6 C 302.4 184.6 302.4 185.3 302.5 185.7 C 302.6 186.2 302.9 186.6 303.3 186.9 C 303.6 187.2 304.1 187.3 304.7 187.3 C 305.3 187.3 305.8 187.1 306.3 186.9 C 306.9 186.6 307.2 186.1 307.4 185.6 C 307.6 185.1 307.7 184.4 307.7 183.4 C 307.74 183.41 307.7 177.3 307.7 177.3 L 309.7 177.3 L 309.7 188.7 L 307.9 188.7 Z M 316.1 187 C 316.3 187 316.6 187 316.9 187 C 316.9 187 317.2 188.7 317.2 188.7 C 316.7 188.8 316.2 188.9 315.7 188.9 C 315 188.9 314.5 188.7 314.1 188.5 C 313.7 188.3 313.5 188 313.3 187.6 C 313.1 187.3 313.1 186.5 313.1 185.4 C 313.06 185.36 313.1 178.8 313.1 178.8 L 311.6 178.8 L 311.6 177.3 L 313.1 177.3 L 313.1 174.5 L 315 173.3 L 315 177.3 L 316.9 177.3 L 316.9 178.8 L 315 178.8 C 315 178.8 314.98 185.47 315 185.5 C 315 186 315 186.4 315.1 186.5 C 315.2 186.7 315.3 186.8 315.4 186.9 C 315.6 187 315.8 187 316.1 187 C 316.1 187 316.1 187 316.1 187 Z M 322.2 187 C 322.4 187 322.7 187 323 187 C 323 187 323.3 188.7 323.3 188.7 C 322.8 188.8 322.3 188.9 321.9 188.9 C 321.2 188.9 320.6 188.7 320.2 188.5 C 319.8 188.3 319.6 188 319.4 187.6 C 319.3 187.3 319.2 186.5 319.2 185.4 C 319.17 185.36 319.2 178.8 319.2 178.8 L 317.8 178.8 L 317.8 177.3 L 319.2 177.3 L 319.2 174.5 L 321.1 173.3 L 321.1 177.3 L 323 177.3 L 323 178.8 L 321.1 178.8 C 321.1 178.8 321.1 185.47 321.1 185.5 C 321.1 186 321.1 186.4 321.2 186.5 C 321.3 186.7 321.4 186.8 321.5 186.9 C 321.7 187 321.9 187 322.2 187 C 322.2 187 322.2 187 322.2 187 Z M 324.2 183 C 324.2 180.9 324.8 179.3 326 178.3 C 327 177.5 328.2 177 329.6 177 C 331.1 177 332.4 177.6 333.4 178.6 C 334.4 179.6 334.9 181 334.9 182.8 C 334.9 184.3 334.7 185.5 334.2 186.3 C 333.8 187.1 333.2 187.8 332.3 188.3 C 331.5 188.7 330.6 189 329.6 189 C 328 189 326.7 188.4 325.7 187.4 C 324.7 186.4 324.2 184.9 324.2 183 Z M 326.2 183 C 326.2 184.5 326.5 185.6 327.2 186.3 C 327.8 187 328.6 187.4 329.6 187.4 C 330.5 187.4 331.3 187 332 186.3 C 332.6 185.5 332.9 184.4 332.9 182.9 C 332.9 181.5 332.6 180.5 332 179.7 C 331.3 179 330.5 178.6 329.6 178.6 C 328.6 178.6 327.8 179 327.2 179.7 C 326.5 180.4 326.2 181.5 326.2 183 Z M 337.2 188.7 L 337.2 177.3 L 338.9 177.3 C 338.9 177.3 338.91 178.92 338.9 178.9 C 339.7 177.7 341 177 342.5 177 C 343.2 177 343.9 177.2 344.4 177.4 C 345 177.7 345.4 178 345.7 178.4 C 346 178.8 346.2 179.3 346.3 179.8 C 346.4 180.2 346.4 180.8 346.4 181.7 C 346.44 181.69 346.4 188.7 346.4 188.7 L 344.5 188.7 C 344.5 188.7 344.5 181.76 344.5 181.8 C 344.5 181 344.4 180.4 344.3 180 C 344.1 179.6 343.9 179.3 343.5 179.1 C 343.1 178.8 342.6 178.7 342.1 178.7 C 341.3 178.7 340.6 179 340 179.5 C 339.4 180 339.1 181 339.1 182.5 C 339.1 182.47 339.1 188.7 339.1 188.7 L 337.2 188.7 Z M 348.6 185.3 C 348.6 185.3 350.5 185 350.5 185 C 350.6 185.8 350.9 186.4 351.4 186.8 C 351.9 187.2 352.6 187.4 353.5 187.4 C 354.4 187.4 355 187.2 355.5 186.8 C 355.9 186.5 356.1 186 356.1 185.6 C 356.1 185.1 355.9 184.8 355.5 184.5 C 355.3 184.4 354.6 184.1 353.6 183.9 C 352.2 183.5 351.2 183.2 350.6 182.9 C 350.1 182.7 349.7 182.3 349.4 181.9 C 349.1 181.4 349 180.9 349 180.3 C 349 179.8 349.1 179.3 349.3 178.9 C 349.5 178.5 349.8 178.1 350.3 177.8 C 350.6 177.6 351 177.4 351.5 177.3 C 352 177.1 352.6 177 353.2 177 C 354 177 354.8 177.2 355.5 177.4 C 356.2 177.7 356.7 178 357 178.5 C 357.3 178.9 357.6 179.5 357.7 180.2 C 357.7 180.2 355.8 180.5 355.8 180.5 C 355.7 179.9 355.4 179.5 355 179.1 C 354.6 178.8 354 178.6 353.3 178.6 C 352.4 178.6 351.8 178.8 351.4 179.1 C 351 179.4 350.8 179.7 350.8 180.1 C 350.8 180.3 350.9 180.6 351.1 180.8 C 351.2 181 351.5 181.2 351.8 181.3 C 352 181.4 352.6 181.5 353.5 181.8 C 354.9 182.2 355.8 182.4 356.4 182.7 C 356.9 182.9 357.3 183.3 357.6 183.7 C 357.9 184.1 358.1 184.7 358.1 185.4 C 358.1 186 357.9 186.6 357.5 187.2 C 357.2 187.7 356.6 188.2 355.9 188.5 C 355.2 188.8 354.4 189 353.5 189 C 352 189 350.9 188.7 350.1 188 C 349.3 187.4 348.8 186.5 348.6 185.3 Z M 360.9 188.7 L 360.9 186.5 L 363.2 186.5 L 363.2 188.7 L 360.9 188.7 Z " stroke="none" fill="#000"/>  </g>  <g id="Polygon8183">    <path d="M 14.1 146.5 C 14.1 146.5 16 146.8 16 146.8 C 15.8 148.1 15.3 149.1 14.4 149.8 C 13.6 150.6 12.5 151 11.3 151 C 9.7 151 8.5 150.5 7.5 149.4 C 6.6 148.4 6.1 146.9 6.1 145 C 6.1 143.8 6.3 142.7 6.7 141.8 C 7.1 140.9 7.7 140.2 8.6 139.7 C 9.4 139.3 10.3 139 11.3 139 C 12.5 139 13.5 139.4 14.3 140 C 15.1 140.6 15.6 141.5 15.8 142.6 C 15.8 142.6 14 142.9 14 142.9 C 13.8 142.2 13.5 141.6 13 141.2 C 12.5 140.8 12 140.6 11.4 140.6 C 10.4 140.6 9.6 141 9 141.7 C 8.4 142.4 8.1 143.5 8.1 145 C 8.1 146.5 8.4 147.6 8.9 148.3 C 9.5 149 10.3 149.4 11.2 149.4 C 12 149.4 12.6 149.1 13.1 148.7 C 13.7 148.2 14 147.5 14.1 146.5 Z M 17 145 C 17 142.9 17.5 141.3 18.7 140.3 C 19.7 139.5 20.9 139 22.3 139 C 23.9 139 25.2 139.6 26.1 140.6 C 27.1 141.6 27.6 143 27.6 144.8 C 27.6 146.3 27.4 147.5 27 148.3 C 26.5 149.1 25.9 149.8 25.1 150.3 C 24.2 150.7 23.3 151 22.3 151 C 20.7 151 19.4 150.4 18.4 149.4 C 17.4 148.4 17 146.9 17 145 Z M 18.9 145 C 18.9 146.5 19.3 147.6 19.9 148.3 C 20.5 149 21.3 149.4 22.3 149.4 C 23.3 149.4 24.1 149 24.7 148.3 C 25.3 147.5 25.7 146.4 25.7 144.9 C 25.7 143.5 25.3 142.5 24.7 141.7 C 24.1 141 23.3 140.6 22.3 140.6 C 21.3 140.6 20.5 141 19.9 141.7 C 19.3 142.4 18.9 143.5 18.9 145 Z M 29.9 150.7 L 29.9 139.3 L 31.6 139.3 C 31.6 139.3 31.65 140.92 31.6 140.9 C 32.5 139.7 33.7 139 35.3 139 C 36 139 36.6 139.2 37.2 139.4 C 37.8 139.7 38.2 140 38.5 140.4 C 38.8 140.8 39 141.3 39.1 141.8 C 39.1 142.2 39.2 142.8 39.2 143.7 C 39.18 143.69 39.2 150.7 39.2 150.7 L 37.2 150.7 C 37.2 150.7 37.24 143.76 37.2 143.8 C 37.2 143 37.2 142.4 37 142 C 36.9 141.6 36.6 141.3 36.2 141.1 C 35.8 140.8 35.4 140.7 34.9 140.7 C 34 140.7 33.3 141 32.7 141.5 C 32.1 142 31.8 143 31.8 144.5 C 31.84 144.47 31.8 150.7 31.8 150.7 L 29.9 150.7 Z M 42.7 150.7 L 42.7 140.8 L 40.9 140.8 L 40.9 139.3 L 42.7 139.3 C 42.7 139.3 42.66 138.19 42.7 138.2 C 42.7 137.1 42.9 136.2 43.4 135.6 C 43.9 135 44.6 134.7 45.7 134.7 C 46.4 134.7 47.1 134.8 47.7 134.9 C 47.7 134.9 47.4 136.6 47.4 136.6 C 47 136.5 46.6 136.5 46.3 136.5 C 45.7 136.5 45.2 136.6 45 136.9 C 44.7 137.1 44.6 137.7 44.6 138.6 C 44.59 138.55 44.6 139.3 44.6 139.3 L 46.8 139.3 L 46.8 140.8 L 44.6 140.8 L 44.6 150.7 L 42.7 150.7 Z M 48.3 137.2 L 48.3 135 L 50.2 135 L 50.2 137.2 L 48.3 137.2 Z M 48.3 150.7 L 48.3 139.3 L 50.2 139.3 L 50.2 150.7 L 48.3 150.7 Z M 60.5 150.7 C 60.5 150.7 60.54 149.26 60.5 149.3 C 59.8 150.4 58.8 151 57.4 151 C 56.4 151 55.6 150.7 54.8 150.2 C 54.1 149.7 53.5 149 53.1 148.1 C 52.7 147.2 52.4 146.2 52.4 145 C 52.4 143.9 52.6 142.8 53 141.9 C 53.4 141 54 140.3 54.7 139.8 C 55.5 139.3 56.3 139 57.3 139 C 58 139 58.6 139.2 59.1 139.5 C 59.6 139.8 60.1 140.1 60.4 140.6 C 60.41 140.61 60.4 135 60.4 135 L 62.3 135 L 62.3 150.7 L 60.5 150.7 Z M 54.4 145 C 54.4 146.5 54.7 147.6 55.4 148.3 C 56 149 56.7 149.4 57.5 149.4 C 58.4 149.4 59.1 149 59.7 148.3 C 60.3 147.6 60.6 146.6 60.6 145.2 C 60.6 143.6 60.3 142.5 59.7 141.7 C 59.1 141 58.3 140.6 57.5 140.6 C 56.6 140.6 55.9 141 55.3 141.7 C 54.7 142.4 54.4 143.5 54.4 145 Z M 73.2 147 C 73.2 147 75.2 147.3 75.2 147.3 C 74.9 148.4 74.3 149.4 73.4 150 C 72.6 150.6 71.5 151 70.2 151 C 68.5 151 67.2 150.4 66.2 149.4 C 65.2 148.4 64.7 147 64.7 145.1 C 64.7 143.2 65.2 141.7 66.2 140.6 C 67.2 139.6 68.5 139 70.1 139 C 71.6 139 72.8 139.6 73.8 140.6 C 74.8 141.6 75.2 143.1 75.2 145 C 75.2 145.1 75.2 145.3 75.2 145.5 C 75.2 145.5 66.7 145.5 66.7 145.5 C 66.8 146.7 67.2 147.7 67.8 148.4 C 68.4 149 69.2 149.4 70.2 149.4 C 70.9 149.4 71.5 149.2 72 148.8 C 72.5 148.4 72.9 147.8 73.2 147 Z M 66.8 143.9 C 66.8 143.9 73.2 143.9 73.2 143.9 C 73.1 142.9 72.9 142.2 72.5 141.7 C 71.9 141 71.1 140.6 70.1 140.6 C 69.2 140.6 68.4 140.9 67.8 141.5 C 67.2 142.1 66.9 142.9 66.8 143.9 Z M 77.6 150.7 L 77.6 139.3 L 79.4 139.3 C 79.4 139.3 79.35 140.92 79.4 140.9 C 80.2 139.7 81.4 139 83 139 C 83.7 139 84.3 139.2 84.9 139.4 C 85.5 139.7 85.9 140 86.2 140.4 C 86.5 140.8 86.7 141.3 86.8 141.8 C 86.8 142.2 86.9 142.8 86.9 143.7 C 86.88 143.69 86.9 150.7 86.9 150.7 L 85 150.7 C 85 150.7 84.95 143.76 85 143.8 C 85 143 84.9 142.4 84.7 142 C 84.6 141.6 84.3 141.3 83.9 141.1 C 83.5 140.8 83.1 140.7 82.6 140.7 C 81.8 140.7 81 141 80.4 141.5 C 79.8 142 79.5 143 79.5 144.5 C 79.55 144.47 79.5 150.7 79.5 150.7 L 77.6 150.7 Z M 93.2 149 C 93.4 149 93.7 149 94.1 149 C 94.1 149 94.3 150.7 94.3 150.7 C 93.8 150.8 93.3 150.9 92.9 150.9 C 92.2 150.9 91.6 150.7 91.3 150.5 C 90.9 150.3 90.6 150 90.4 149.6 C 90.3 149.3 90.2 148.5 90.2 147.4 C 90.2 147.36 90.2 140.8 90.2 140.8 L 88.8 140.8 L 88.8 139.3 L 90.2 139.3 L 90.2 136.5 L 92.1 135.3 L 92.1 139.3 L 94.1 139.3 L 94.1 140.8 L 92.1 140.8 C 92.1 140.8 92.13 147.47 92.1 147.5 C 92.1 148 92.2 148.4 92.2 148.5 C 92.3 148.7 92.4 148.8 92.6 148.9 C 92.7 149 92.9 149 93.2 149 C 93.2 149 93.2 149 93.2 149 Z M 102 150.7 L 102 135 L 104 135 L 104 150.7 L 102 150.7 Z M 114.8 147 C 114.8 147 116.8 147.3 116.8 147.3 C 116.5 148.4 115.9 149.4 115 150 C 114.2 150.6 113.1 151 111.8 151 C 110.1 151 108.8 150.4 107.8 149.4 C 106.8 148.4 106.3 147 106.3 145.1 C 106.3 143.2 106.8 141.7 107.8 140.6 C 108.8 139.6 110.1 139 111.6 139 C 113.2 139 114.4 139.6 115.4 140.6 C 116.3 141.6 116.8 143.1 116.8 145 C 116.8 145.1 116.8 145.3 116.8 145.5 C 116.8 145.5 108.3 145.5 108.3 145.5 C 108.4 146.7 108.7 147.7 109.4 148.4 C 110 149 110.8 149.4 111.8 149.4 C 112.5 149.4 113.1 149.2 113.6 148.8 C 114.1 148.4 114.5 147.8 114.8 147 Z M 108.4 143.9 C 108.4 143.9 114.8 143.9 114.8 143.9 C 114.7 142.9 114.5 142.2 114.1 141.7 C 113.4 141 112.6 140.6 111.7 140.6 C 110.8 140.6 110 140.9 109.4 141.5 C 108.8 142.1 108.5 142.9 108.4 143.9 Z M 127 150.7 C 126.8 150.3 126.7 149.8 126.6 149.3 C 125.9 149.9 125.2 150.3 124.6 150.6 C 123.9 150.8 123.2 151 122.4 151 C 121.2 151 120.2 150.7 119.6 150 C 118.9 149.4 118.5 148.6 118.5 147.7 C 118.5 147.1 118.7 146.6 118.9 146.2 C 119.2 145.7 119.5 145.3 119.9 145.1 C 120.3 144.8 120.8 144.6 121.3 144.4 C 121.7 144.3 122.3 144.2 123 144.1 C 124.6 143.9 125.7 143.7 126.5 143.5 C 126.5 143.2 126.5 143 126.5 143 C 126.5 142.2 126.3 141.6 125.9 141.3 C 125.4 140.9 124.7 140.6 123.7 140.6 C 122.8 140.6 122.2 140.8 121.7 141.1 C 121.3 141.4 121 142 120.8 142.8 C 120.8 142.8 118.9 142.6 118.9 142.6 C 119 141.7 119.3 141.1 119.7 140.6 C 120.1 140.1 120.7 139.7 121.4 139.4 C 122.2 139.2 123 139 124 139 C 125 139 125.8 139.2 126.4 139.4 C 127 139.6 127.4 139.9 127.7 140.2 C 128 140.6 128.2 141 128.3 141.6 C 128.4 141.9 128.4 142.5 128.4 143.3 C 128.4 143.3 128.4 145.9 128.4 145.9 C 128.4 147.7 128.5 148.9 128.6 149.3 C 128.6 149.8 128.8 150.3 129 150.7 C 129.05 150.7 127 150.7 127 150.7 C 127 150.7 127.03 150.7 127 150.7 Z M 126.5 145 C 125.8 145.3 124.7 145.5 123.3 145.7 C 122.5 145.8 122 146 121.6 146.1 C 121.3 146.2 121.1 146.4 120.9 146.7 C 120.7 147 120.6 147.3 120.6 147.6 C 120.6 148.2 120.8 148.6 121.2 148.9 C 121.6 149.3 122.2 149.4 122.9 149.4 C 123.6 149.4 124.3 149.3 124.9 149 C 125.5 148.6 125.9 148.2 126.2 147.6 C 126.4 147.2 126.5 146.5 126.5 145.7 C 126.5 145.7 126.5 145 126.5 145 Z M 131.4 150.7 L 131.4 139.3 L 133.2 139.3 C 133.2 139.3 133.15 141.02 133.2 141 C 133.6 140.2 134 139.7 134.4 139.4 C 134.8 139.2 135.2 139 135.6 139 C 136.3 139 136.9 139.2 137.6 139.7 C 137.6 139.7 136.9 141.5 136.9 141.5 C 136.5 141.2 136 141 135.5 141 C 135.1 141 134.7 141.2 134.4 141.4 C 134 141.7 133.8 142 133.7 142.5 C 133.5 143.2 133.3 143.9 133.3 144.7 C 133.34 144.73 133.3 150.7 133.3 150.7 L 131.4 150.7 Z M 138.8 150.7 L 138.8 139.3 L 140.5 139.3 C 140.5 139.3 140.5 140.92 140.5 140.9 C 141.3 139.7 142.5 139 144.1 139 C 144.8 139 145.4 139.2 146 139.4 C 146.6 139.7 147 140 147.3 140.4 C 147.6 140.8 147.8 141.3 147.9 141.8 C 148 142.2 148 142.8 148 143.7 C 148.03 143.69 148 150.7 148 150.7 L 146.1 150.7 C 146.1 150.7 146.09 143.76 146.1 143.8 C 146.1 143 146 142.4 145.9 142 C 145.7 141.6 145.5 141.3 145.1 141.1 C 144.7 140.8 144.2 140.7 143.7 140.7 C 142.9 140.7 142.2 141 141.6 141.5 C 141 142 140.7 143 140.7 144.5 C 140.69 144.47 140.7 150.7 140.7 150.7 L 138.8 150.7 Z M 158.8 147 C 158.8 147 160.8 147.3 160.8 147.3 C 160.5 148.4 159.9 149.4 159 150 C 158.2 150.6 157.1 151 155.8 151 C 154.1 151 152.8 150.4 151.8 149.4 C 150.8 148.4 150.3 147 150.3 145.1 C 150.3 143.2 150.8 141.7 151.8 140.6 C 152.8 139.6 154.1 139 155.7 139 C 157.2 139 158.4 139.6 159.4 140.6 C 160.4 141.6 160.9 143.1 160.9 145 C 160.9 145.1 160.9 145.3 160.9 145.5 C 160.9 145.5 152.3 145.5 152.3 145.5 C 152.4 146.7 152.8 147.7 153.4 148.4 C 154 149 154.8 149.4 155.8 149.4 C 156.5 149.4 157.1 149.2 157.6 148.8 C 158.1 148.4 158.5 147.8 158.8 147 Z M 152.5 143.9 C 152.5 143.9 158.8 143.9 158.8 143.9 C 158.7 142.9 158.5 142.2 158.1 141.7 C 157.5 141 156.7 140.6 155.7 140.6 C 154.8 140.6 154.1 140.9 153.5 141.5 C 152.9 142.1 152.5 142.9 152.5 143.9 Z M 163.2 150.7 L 163.2 139.3 L 164.9 139.3 C 164.9 139.3 164.95 141.02 164.9 141 C 165.4 140.2 165.8 139.7 166.2 139.4 C 166.6 139.2 167 139 167.4 139 C 168.1 139 168.7 139.2 169.4 139.7 C 169.4 139.7 168.7 141.5 168.7 141.5 C 168.3 141.2 167.8 141 167.3 141 C 166.9 141 166.5 141.2 166.2 141.4 C 165.8 141.7 165.6 142 165.5 142.5 C 165.2 143.2 165.1 143.9 165.1 144.7 C 165.14 144.73 165.1 150.7 165.1 150.7 L 163.2 150.7 Z M 169.8 147.3 C 169.8 147.3 171.7 147 171.7 147 C 171.8 147.8 172.1 148.4 172.6 148.8 C 173.1 149.2 173.8 149.4 174.6 149.4 C 175.5 149.4 176.2 149.2 176.6 148.8 C 177.1 148.5 177.3 148 177.3 147.6 C 177.3 147.1 177.1 146.8 176.7 146.5 C 176.4 146.4 175.8 146.1 174.7 145.9 C 173.3 145.5 172.3 145.2 171.8 144.9 C 171.2 144.7 170.8 144.3 170.5 143.9 C 170.2 143.4 170.1 142.9 170.1 142.3 C 170.1 141.8 170.2 141.3 170.5 140.9 C 170.7 140.5 171 140.1 171.4 139.8 C 171.7 139.6 172.1 139.4 172.6 139.3 C 173.2 139.1 173.7 139 174.3 139 C 175.2 139 176 139.2 176.7 139.4 C 177.3 139.7 177.8 140 178.2 140.5 C 178.5 140.9 178.7 141.5 178.8 142.2 C 178.8 142.2 176.9 142.5 176.9 142.5 C 176.8 141.9 176.6 141.5 176.2 141.1 C 175.8 140.8 175.2 140.6 174.4 140.6 C 173.6 140.6 172.9 140.8 172.5 141.1 C 172.2 141.4 172 141.7 172 142.1 C 172 142.3 172.1 142.6 172.2 142.8 C 172.4 143 172.6 143.2 173 143.3 C 173.1 143.4 173.7 143.5 174.7 143.8 C 176 144.2 177 144.4 177.5 144.7 C 178.1 144.9 178.5 145.3 178.8 145.7 C 179.1 146.1 179.3 146.7 179.3 147.4 C 179.3 148 179.1 148.6 178.7 149.2 C 178.3 149.7 177.8 150.2 177.1 150.5 C 176.4 150.8 175.6 151 174.7 151 C 173.2 151 172 150.7 171.3 150 C 170.5 149.4 170 148.5 169.8 147.3 Z M 187.7 137.2 L 187.7 135 L 189.6 135 L 189.6 137.2 L 187.7 137.2 Z M 187.7 150.7 L 187.7 139.3 L 189.6 139.3 L 189.6 150.7 L 187.7 150.7 Z M 192.6 150.7 L 192.6 139.3 L 194.3 139.3 C 194.3 139.3 194.29 140.92 194.3 140.9 C 195.1 139.7 196.3 139 197.9 139 C 198.6 139 199.2 139.2 199.8 139.4 C 200.4 139.7 200.8 140 201.1 140.4 C 201.4 140.8 201.6 141.3 201.7 141.8 C 201.8 142.2 201.8 142.8 201.8 143.7 C 201.83 143.69 201.8 150.7 201.8 150.7 L 199.9 150.7 C 199.9 150.7 199.89 143.76 199.9 143.8 C 199.9 143 199.8 142.4 199.7 142 C 199.5 141.6 199.2 141.3 198.9 141.1 C 198.5 140.8 198 140.7 197.5 140.7 C 196.7 140.7 196 141 195.4 141.5 C 194.8 142 194.5 143 194.5 144.5 C 194.49 144.47 194.5 150.7 194.5 150.7 L 192.6 150.7 Z M 210.1 147.3 C 210.1 147.3 212 147 212 147 C 212.1 147.8 212.4 148.4 212.9 148.8 C 213.4 149.2 214.1 149.4 215 149.4 C 215.9 149.4 216.5 149.2 217 148.8 C 217.4 148.5 217.6 148 217.6 147.6 C 217.6 147.1 217.4 146.8 217 146.5 C 216.8 146.4 216.1 146.1 215.1 145.9 C 213.7 145.5 212.7 145.2 212.1 144.9 C 211.6 144.7 211.2 144.3 210.9 143.9 C 210.6 143.4 210.5 142.9 210.5 142.3 C 210.5 141.8 210.6 141.3 210.8 140.9 C 211 140.5 211.3 140.1 211.8 139.8 C 212.1 139.6 212.5 139.4 213 139.3 C 213.5 139.1 214.1 139 214.7 139 C 215.5 139 216.3 139.2 217 139.4 C 217.7 139.7 218.2 140 218.5 140.5 C 218.8 140.9 219.1 141.5 219.2 142.2 C 219.2 142.2 217.3 142.5 217.3 142.5 C 217.2 141.9 216.9 141.5 216.5 141.1 C 216.1 140.8 215.5 140.6 214.8 140.6 C 213.9 140.6 213.3 140.8 212.9 141.1 C 212.5 141.4 212.3 141.7 212.3 142.1 C 212.3 142.3 212.4 142.6 212.6 142.8 C 212.7 143 213 143.2 213.3 143.3 C 213.5 143.4 214.1 143.5 215 143.8 C 216.4 144.2 217.3 144.4 217.9 144.7 C 218.4 144.9 218.8 145.3 219.1 145.7 C 219.4 146.1 219.6 146.7 219.6 147.4 C 219.6 148 219.4 148.6 219 149.2 C 218.7 149.7 218.1 150.2 217.4 150.5 C 216.7 150.8 215.9 151 215 151 C 213.5 151 212.4 150.7 211.6 150 C 210.8 149.4 210.3 148.5 210.1 147.3 Z M 221.9 155.1 L 221.9 139.3 L 223.7 139.3 C 223.7 139.3 223.66 140.78 223.7 140.8 C 224.1 140.2 224.5 139.8 225.1 139.5 C 225.6 139.2 226.2 139 227 139 C 227.9 139 228.8 139.3 229.6 139.8 C 230.3 140.3 230.9 141 231.2 141.9 C 231.6 142.8 231.8 143.8 231.8 144.9 C 231.8 146.1 231.6 147.1 231.2 148.1 C 230.8 149 230.2 149.7 229.4 150.2 C 228.6 150.7 227.7 151 226.8 151 C 226.2 151 225.6 150.8 225.1 150.6 C 224.6 150.3 224.2 149.9 223.8 149.5 C 223.84 149.52 223.8 155.1 223.8 155.1 L 221.9 155.1 Z M 223.7 145.1 C 223.7 146.5 224 147.6 224.5 148.3 C 225.1 149 225.9 149.4 226.7 149.4 C 227.6 149.4 228.3 149 228.9 148.3 C 229.5 147.6 229.8 146.4 229.8 144.9 C 229.8 143.4 229.5 142.4 228.9 141.6 C 228.3 140.9 227.6 140.6 226.8 140.6 C 226 140.6 225.2 140.9 224.6 141.7 C 224 142.5 223.7 143.6 223.7 145.1 Z M 241.9 147 C 241.9 147 243.9 147.3 243.9 147.3 C 243.6 148.4 243 149.4 242.2 150 C 241.3 150.6 240.3 151 238.9 151 C 237.3 151 235.9 150.4 235 149.4 C 234 148.4 233.5 147 233.5 145.1 C 233.5 143.2 234 141.7 235 140.6 C 236 139.6 237.2 139 238.8 139 C 240.3 139 241.6 139.6 242.6 140.6 C 243.5 141.6 244 143.1 244 145 C 244 145.1 244 145.3 244 145.5 C 244 145.5 235.5 145.5 235.5 145.5 C 235.6 146.7 235.9 147.7 236.6 148.4 C 237.2 149 238 149.4 238.9 149.4 C 239.6 149.4 240.3 149.2 240.8 148.8 C 241.3 148.4 241.7 147.8 241.9 147 Z M 235.6 143.9 C 235.6 143.9 242 143.9 242 143.9 C 241.9 142.9 241.6 142.2 241.2 141.7 C 240.6 141 239.8 140.6 238.8 140.6 C 238 140.6 237.2 140.9 236.6 141.5 C 236 142.1 235.7 142.9 235.6 143.9 Z M 253.8 146.5 C 253.8 146.5 255.7 146.8 255.7 146.8 C 255.5 148.1 255 149.1 254.1 149.8 C 253.3 150.6 252.2 151 251 151 C 249.4 151 248.2 150.5 247.2 149.4 C 246.3 148.4 245.8 146.9 245.8 145 C 245.8 143.8 246 142.7 246.4 141.8 C 246.8 140.9 247.4 140.2 248.3 139.7 C 249.1 139.3 250 139 251 139 C 252.2 139 253.2 139.4 254 140 C 254.8 140.6 255.3 141.5 255.5 142.6 C 255.5 142.6 253.7 142.9 253.7 142.9 C 253.5 142.2 253.2 141.6 252.7 141.2 C 252.3 140.8 251.7 140.6 251.1 140.6 C 250.1 140.6 249.3 141 248.7 141.7 C 248.1 142.4 247.8 143.5 247.8 145 C 247.8 146.5 248.1 147.6 248.7 148.3 C 249.2 149 250 149.4 250.9 149.4 C 251.7 149.4 252.3 149.1 252.9 148.7 C 253.4 148.2 253.7 147.5 253.8 146.5 Z M 257.4 137.2 L 257.4 135 L 259.3 135 L 259.3 137.2 L 257.4 137.2 Z M 257.4 150.7 L 257.4 139.3 L 259.3 139.3 L 259.3 150.7 L 257.4 150.7 Z M 270.1 150.7 C 269.9 150.3 269.8 149.8 269.7 149.3 C 269 149.9 268.3 150.3 267.6 150.6 C 267 150.8 266.3 151 265.5 151 C 264.3 151 263.3 150.7 262.6 150 C 261.9 149.4 261.6 148.6 261.6 147.7 C 261.6 147.1 261.7 146.6 262 146.2 C 262.2 145.7 262.6 145.3 263 145.1 C 263.4 144.8 263.9 144.6 264.4 144.4 C 264.8 144.3 265.3 144.2 266.1 144.1 C 267.7 143.9 268.8 143.7 269.5 143.5 C 269.6 143.2 269.6 143 269.6 143 C 269.6 142.2 269.4 141.6 269 141.3 C 268.5 140.9 267.8 140.6 266.8 140.6 C 265.9 140.6 265.2 140.8 264.8 141.1 C 264.4 141.4 264 142 263.8 142.8 C 263.8 142.8 261.9 142.6 261.9 142.6 C 262.1 141.7 262.4 141.1 262.8 140.6 C 263.2 140.1 263.8 139.7 264.5 139.4 C 265.2 139.2 266.1 139 267.1 139 C 268.1 139 268.8 139.2 269.5 139.4 C 270.1 139.6 270.5 139.9 270.8 140.2 C 271.1 140.6 271.3 141 271.4 141.6 C 271.5 141.9 271.5 142.5 271.5 143.3 C 271.5 143.3 271.5 145.9 271.5 145.9 C 271.5 147.7 271.5 148.9 271.6 149.3 C 271.7 149.8 271.9 150.3 272.1 150.7 C 272.11 150.7 270.1 150.7 270.1 150.7 C 270.1 150.7 270.09 150.7 270.1 150.7 Z M 269.5 145 C 268.8 145.3 267.8 145.5 266.4 145.7 C 265.6 145.8 265 146 264.7 146.1 C 264.4 146.2 264.1 146.4 263.9 146.7 C 263.8 147 263.7 147.3 263.7 147.6 C 263.7 148.2 263.9 148.6 264.3 148.9 C 264.6 149.3 265.2 149.4 266 149.4 C 266.7 149.4 267.4 149.3 268 149 C 268.5 148.6 269 148.2 269.2 147.6 C 269.4 147.2 269.5 146.5 269.5 145.7 C 269.5 145.7 269.5 145 269.5 145 Z M 274.5 150.7 L 274.5 135 L 276.4 135 L 276.4 150.7 L 274.5 150.7 Z M 279.4 137.2 L 279.4 135 L 281.3 135 L 281.3 137.2 L 279.4 137.2 Z M 279.4 150.7 L 279.4 139.3 L 281.3 139.3 L 281.3 150.7 L 279.4 150.7 Z M 283.5 147.3 C 283.5 147.3 285.4 147 285.4 147 C 285.5 147.8 285.8 148.4 286.3 148.8 C 286.8 149.2 287.5 149.4 288.4 149.4 C 289.3 149.4 289.9 149.2 290.3 148.8 C 290.8 148.5 291 148 291 147.6 C 291 147.1 290.8 146.8 290.4 146.5 C 290.2 146.4 289.5 146.1 288.4 145.9 C 287 145.5 286 145.2 285.5 144.9 C 284.9 144.7 284.5 144.3 284.2 143.9 C 284 143.4 283.8 142.9 283.8 142.3 C 283.8 141.8 283.9 141.3 284.2 140.9 C 284.4 140.5 284.7 140.1 285.1 139.8 C 285.4 139.6 285.8 139.4 286.3 139.3 C 286.9 139.1 287.4 139 288 139 C 288.9 139 289.7 139.2 290.4 139.4 C 291.1 139.7 291.6 140 291.9 140.5 C 292.2 140.9 292.4 141.5 292.5 142.2 C 292.5 142.2 290.7 142.5 290.7 142.5 C 290.6 141.9 290.3 141.5 289.9 141.1 C 289.5 140.8 288.9 140.6 288.2 140.6 C 287.3 140.6 286.6 140.8 286.3 141.1 C 285.9 141.4 285.7 141.7 285.7 142.1 C 285.7 142.3 285.8 142.6 285.9 142.8 C 286.1 143 286.3 143.2 286.7 143.3 C 286.9 143.4 287.4 143.5 288.4 143.8 C 289.7 144.2 290.7 144.4 291.2 144.7 C 291.8 144.9 292.2 145.3 292.5 145.7 C 292.8 146.1 293 146.7 293 147.4 C 293 148 292.8 148.6 292.4 149.2 C 292 149.7 291.5 150.2 290.8 150.5 C 290.1 150.8 289.3 151 288.4 151 C 286.9 151 285.8 150.7 285 150 C 284.2 149.4 283.7 148.5 283.5 147.3 Z M 298.6 149 C 298.9 149 299.1 149 299.5 149 C 299.5 149 299.8 150.7 299.8 150.7 C 299.2 150.8 298.7 150.9 298.3 150.9 C 297.6 150.9 297.1 150.7 296.7 150.5 C 296.3 150.3 296 150 295.9 149.6 C 295.7 149.3 295.6 148.5 295.6 147.4 C 295.63 147.36 295.6 140.8 295.6 140.8 L 294.2 140.8 L 294.2 139.3 L 295.6 139.3 L 295.6 136.5 L 297.5 135.3 L 297.5 139.3 L 299.5 139.3 L 299.5 140.8 L 297.5 140.8 C 297.5 140.8 297.55 147.47 297.5 147.5 C 297.5 148 297.6 148.4 297.7 148.5 C 297.7 148.7 297.8 148.8 298 148.9 C 298.1 149 298.4 149 298.6 149 C 298.6 149 298.6 149 298.6 149 Z M 307.5 150.7 L 307.5 139.3 L 309.2 139.3 C 309.2 139.3 309.21 141.02 309.2 141 C 309.7 140.2 310.1 139.7 310.4 139.4 C 310.8 139.2 311.2 139 311.7 139 C 312.3 139 313 139.2 313.7 139.7 C 313.7 139.7 313 141.5 313 141.5 C 312.5 141.2 312.1 141 311.6 141 C 311.2 141 310.8 141.2 310.5 141.4 C 310.1 141.7 309.9 142 309.7 142.5 C 309.5 143.2 309.4 143.9 309.4 144.7 C 309.41 144.73 309.4 150.7 309.4 150.7 L 307.5 150.7 Z M 314.1 145 C 314.1 142.9 314.7 141.3 315.9 140.3 C 316.8 139.5 318 139 319.5 139 C 321 139 322.3 139.6 323.3 140.6 C 324.3 141.6 324.8 143 324.8 144.8 C 324.8 146.3 324.6 147.5 324.1 148.3 C 323.7 149.1 323 149.8 322.2 150.3 C 321.4 150.7 320.4 151 319.5 151 C 317.9 151 316.6 150.4 315.6 149.4 C 314.6 148.4 314.1 146.9 314.1 145 Z M 316.1 145 C 316.1 146.5 316.4 147.6 317 148.3 C 317.7 149 318.5 149.4 319.5 149.4 C 320.4 149.4 321.2 149 321.8 148.3 C 322.5 147.5 322.8 146.4 322.8 144.9 C 322.8 143.5 322.5 142.5 321.8 141.7 C 321.2 141 320.4 140.6 319.5 140.6 C 318.5 140.6 317.7 141 317 141.7 C 316.4 142.4 316.1 143.5 316.1 145 Z M 327 150.7 L 327 135 L 328.9 135 L 328.9 150.7 L 327 150.7 Z M 339.8 147 C 339.8 147 341.8 147.3 341.8 147.3 C 341.4 148.4 340.9 149.4 340 150 C 339.1 150.6 338.1 151 336.7 151 C 335.1 151 333.7 150.4 332.8 149.4 C 331.8 148.4 331.3 147 331.3 145.1 C 331.3 143.2 331.8 141.7 332.8 140.6 C 333.8 139.6 335.1 139 336.6 139 C 338.2 139 339.4 139.6 340.4 140.6 C 341.3 141.6 341.8 143.1 341.8 145 C 341.8 145.1 341.8 145.3 341.8 145.5 C 341.8 145.5 333.3 145.5 333.3 145.5 C 333.4 146.7 333.7 147.7 334.4 148.4 C 335 149 335.8 149.4 336.7 149.4 C 337.5 149.4 338.1 149.2 338.6 148.8 C 339.1 148.4 339.5 147.8 339.8 147 Z M 333.4 143.9 C 333.4 143.9 339.8 143.9 339.8 143.9 C 339.7 142.9 339.4 142.2 339 141.7 C 338.4 141 337.6 140.6 336.7 140.6 C 335.8 140.6 335 140.9 334.4 141.5 C 333.8 142.1 333.5 142.9 333.4 143.9 Z M 343.4 147.3 C 343.4 147.3 345.3 147 345.3 147 C 345.4 147.8 345.7 148.4 346.2 148.8 C 346.7 149.2 347.4 149.4 348.3 149.4 C 349.2 149.4 349.8 149.2 350.2 148.8 C 350.7 148.5 350.9 148 350.9 147.6 C 350.9 147.1 350.7 146.8 350.3 146.5 C 350.1 146.4 349.4 146.1 348.3 145.9 C 346.9 145.5 345.9 145.2 345.4 144.9 C 344.9 144.7 344.4 144.3 344.2 143.9 C 343.9 143.4 343.7 142.9 343.7 142.3 C 343.7 141.8 343.8 141.3 344.1 140.9 C 344.3 140.5 344.6 140.1 345 139.8 C 345.3 139.6 345.7 139.4 346.3 139.3 C 346.8 139.1 347.3 139 347.9 139 C 348.8 139 349.6 139.2 350.3 139.4 C 351 139.7 351.5 140 351.8 140.5 C 352.1 140.9 352.3 141.5 352.5 142.2 C 352.5 142.2 350.6 142.5 350.6 142.5 C 350.5 141.9 350.2 141.5 349.8 141.1 C 349.4 140.8 348.8 140.6 348.1 140.6 C 347.2 140.6 346.5 140.8 346.2 141.1 C 345.8 141.4 345.6 141.7 345.6 142.1 C 345.6 142.3 345.7 142.6 345.8 142.8 C 346 143 346.2 143.2 346.6 143.3 C 346.8 143.4 347.3 143.5 348.3 143.8 C 349.7 144.2 350.6 144.4 351.1 144.7 C 351.7 144.9 352.1 145.3 352.4 145.7 C 352.7 146.1 352.9 146.7 352.9 147.4 C 352.9 148 352.7 148.6 352.3 149.2 C 351.9 149.7 351.4 150.2 350.7 150.5 C 350 150.8 349.2 151 348.3 151 C 346.8 151 345.7 150.7 344.9 150 C 344.1 149.4 343.6 148.5 343.4 147.3 Z M 355.7 150.7 L 355.7 148.5 L 357.9 148.5 L 357.9 150.7 L 355.7 150.7 Z " stroke="none" fill="#000"/>  </g>  <g id="Polygon8182">    <path d="M 13.2 120.9 C 13.2 120.9 15.1 120.6 15.1 120.6 C 15.2 121.4 15.5 122 16 122.4 C 16.5 122.8 17.2 123 18.1 123 C 19 123 19.6 122.8 20.1 122.4 C 20.5 122.1 20.7 121.6 20.7 121.2 C 20.7 120.7 20.5 120.4 20.1 120.1 C 19.9 120 19.2 119.7 18.2 119.5 C 16.7 119.1 15.8 118.8 15.2 118.5 C 14.7 118.3 14.3 117.9 14 117.5 C 13.7 117 13.5 116.5 13.5 115.9 C 13.5 115.4 13.7 114.9 13.9 114.5 C 14.1 114.1 14.4 113.7 14.8 113.4 C 15.1 113.2 15.6 113 16.1 112.9 C 16.6 112.7 17.2 112.6 17.7 112.6 C 18.6 112.6 19.4 112.8 20.1 113 C 20.8 113.3 21.3 113.6 21.6 114.1 C 21.9 114.5 22.1 115.1 22.3 115.8 C 22.3 115.8 20.4 116.1 20.4 116.1 C 20.3 115.5 20 115.1 19.6 114.7 C 19.2 114.4 18.6 114.2 17.9 114.2 C 17 114.2 16.4 114.4 16 114.7 C 15.6 115 15.4 115.3 15.4 115.7 C 15.4 115.9 15.5 116.2 15.7 116.4 C 15.8 116.6 16.1 116.8 16.4 116.9 C 16.6 117 17.2 117.1 18.1 117.4 C 19.5 117.8 20.4 118 21 118.3 C 21.5 118.5 21.9 118.9 22.2 119.3 C 22.5 119.7 22.7 120.3 22.7 121 C 22.7 121.6 22.5 122.2 22.1 122.8 C 21.8 123.3 21.2 123.8 20.5 124.1 C 19.8 124.4 19 124.6 18.1 124.6 C 16.6 124.6 15.5 124.3 14.7 123.6 C 13.9 123 13.4 122.1 13.2 120.9 Z M 28.4 122.6 C 28.6 122.6 28.9 122.6 29.2 122.6 C 29.2 122.6 29.5 124.3 29.5 124.3 C 29 124.4 28.5 124.5 28 124.5 C 27.3 124.5 26.8 124.3 26.4 124.1 C 26 123.9 25.7 123.6 25.6 123.2 C 25.4 122.9 25.4 122.1 25.4 121 C 25.35 120.96 25.4 114.4 25.4 114.4 L 23.9 114.4 L 23.9 112.9 L 25.4 112.9 L 25.4 110.1 L 27.3 108.9 L 27.3 112.9 L 29.2 112.9 L 29.2 114.4 L 27.3 114.4 C 27.3 114.4 27.28 121.07 27.3 121.1 C 27.3 121.6 27.3 122 27.4 122.1 C 27.4 122.3 27.6 122.4 27.7 122.5 C 27.9 122.6 28.1 122.6 28.4 122.6 C 28.4 122.6 28.4 122.6 28.4 122.6 Z M 38.9 124.3 C 38.7 123.9 38.6 123.4 38.6 122.9 C 37.8 123.5 37.1 123.9 36.5 124.2 C 35.8 124.4 35.1 124.6 34.4 124.6 C 33.1 124.6 32.1 124.3 31.5 123.6 C 30.8 123 30.5 122.2 30.5 121.3 C 30.5 120.7 30.6 120.2 30.8 119.8 C 31.1 119.3 31.4 118.9 31.8 118.7 C 32.2 118.4 32.7 118.2 33.2 118 C 33.6 117.9 34.2 117.8 34.9 117.7 C 36.5 117.5 37.7 117.3 38.4 117.1 C 38.4 116.8 38.4 116.6 38.4 116.6 C 38.4 115.8 38.2 115.2 37.9 114.9 C 37.4 114.5 36.6 114.2 35.7 114.2 C 34.7 114.2 34.1 114.4 33.6 114.7 C 33.2 115 32.9 115.6 32.7 116.4 C 32.7 116.4 30.8 116.2 30.8 116.2 C 31 115.3 31.2 114.7 31.6 114.2 C 32 113.7 32.6 113.3 33.3 113 C 34.1 112.8 35 112.6 35.9 112.6 C 36.9 112.6 37.7 112.8 38.3 113 C 38.9 113.2 39.4 113.5 39.7 113.8 C 39.9 114.2 40.1 114.6 40.3 115.2 C 40.3 115.5 40.3 116.1 40.3 116.9 C 40.3 116.9 40.3 119.5 40.3 119.5 C 40.3 121.3 40.4 122.5 40.5 122.9 C 40.6 123.4 40.7 123.9 41 124.3 C 40.96 124.3 38.9 124.3 38.9 124.3 C 38.9 124.3 38.94 124.3 38.9 124.3 Z M 38.4 118.6 C 37.7 118.9 36.6 119.1 35.2 119.3 C 34.4 119.4 33.9 119.6 33.5 119.7 C 33.2 119.8 33 120 32.8 120.3 C 32.6 120.6 32.5 120.9 32.5 121.2 C 32.5 121.8 32.7 122.2 33.1 122.5 C 33.5 122.9 34.1 123 34.8 123 C 35.6 123 36.2 122.9 36.8 122.6 C 37.4 122.2 37.8 121.8 38.1 121.2 C 38.3 120.8 38.4 120.1 38.4 119.3 C 38.4 119.3 38.4 118.6 38.4 118.6 Z M 43.3 124.3 L 43.3 112.9 L 45.1 112.9 C 45.1 112.9 45.09 114.52 45.1 114.5 C 45.9 113.3 47.1 112.6 48.7 112.6 C 49.4 112.6 50 112.8 50.6 113 C 51.2 113.3 51.6 113.6 51.9 114 C 52.2 114.4 52.4 114.9 52.5 115.4 C 52.6 115.8 52.6 116.4 52.6 117.3 C 52.62 117.29 52.6 124.3 52.6 124.3 L 50.7 124.3 C 50.7 124.3 50.68 117.36 50.7 117.4 C 50.7 116.6 50.6 116 50.5 115.6 C 50.3 115.2 50 114.9 49.7 114.7 C 49.3 114.4 48.8 114.3 48.3 114.3 C 47.5 114.3 46.8 114.6 46.2 115.1 C 45.6 115.6 45.3 116.6 45.3 118.1 C 45.28 118.07 45.3 124.3 45.3 124.3 L 43.3 124.3 Z M 63 124.3 C 63 124.3 62.98 122.86 63 122.9 C 62.3 124 61.2 124.6 59.8 124.6 C 58.9 124.6 58 124.3 57.3 123.8 C 56.5 123.3 55.9 122.6 55.5 121.7 C 55.1 120.8 54.9 119.8 54.9 118.6 C 54.9 117.5 55.1 116.4 55.5 115.5 C 55.8 114.6 56.4 113.9 57.2 113.4 C 57.9 112.9 58.8 112.6 59.7 112.6 C 60.4 112.6 61 112.8 61.5 113.1 C 62.1 113.4 62.5 113.7 62.9 114.2 C 62.85 114.21 62.9 108.6 62.9 108.6 L 64.8 108.6 L 64.8 124.3 L 63 124.3 Z M 56.9 118.6 C 56.9 120.1 57.2 121.2 57.8 121.9 C 58.4 122.6 59.1 123 60 123 C 60.8 123 61.5 122.6 62.1 121.9 C 62.7 121.2 63 120.2 63 118.8 C 63 117.2 62.7 116.1 62.1 115.3 C 61.5 114.6 60.8 114.2 59.9 114.2 C 59 114.2 58.3 114.6 57.7 115.3 C 57.2 116 56.9 117.1 56.9 118.6 Z M 75.6 124.3 C 75.4 123.9 75.3 123.4 75.3 122.9 C 74.5 123.5 73.9 123.9 73.2 124.2 C 72.5 124.4 71.8 124.6 71.1 124.6 C 69.8 124.6 68.8 124.3 68.2 123.6 C 67.5 123 67.2 122.2 67.2 121.3 C 67.2 120.7 67.3 120.2 67.5 119.8 C 67.8 119.3 68.1 118.9 68.5 118.7 C 69 118.4 69.4 118.2 69.9 118 C 70.3 117.9 70.9 117.8 71.7 117.7 C 73.2 117.5 74.4 117.3 75.1 117.1 C 75.1 116.8 75.1 116.6 75.1 116.6 C 75.1 115.8 74.9 115.2 74.6 114.9 C 74.1 114.5 73.3 114.2 72.4 114.2 C 71.5 114.2 70.8 114.4 70.3 114.7 C 69.9 115 69.6 115.6 69.4 116.4 C 69.4 116.4 67.5 116.2 67.5 116.2 C 67.7 115.3 67.9 114.7 68.3 114.2 C 68.7 113.7 69.3 113.3 70.1 113 C 70.8 112.8 71.7 112.6 72.6 112.6 C 73.6 112.6 74.4 112.8 75 113 C 75.6 113.2 76.1 113.5 76.4 113.8 C 76.6 114.2 76.8 114.6 77 115.2 C 77 115.5 77.1 116.1 77.1 116.9 C 77.1 116.9 77.1 119.5 77.1 119.5 C 77.1 121.3 77.1 122.5 77.2 122.9 C 77.3 123.4 77.4 123.9 77.7 124.3 C 77.67 124.3 75.6 124.3 75.6 124.3 C 75.6 124.3 75.65 124.3 75.6 124.3 Z M 75.1 118.6 C 74.4 118.9 73.3 119.1 71.9 119.3 C 71.1 119.4 70.6 119.6 70.3 119.7 C 69.9 119.8 69.7 120 69.5 120.3 C 69.3 120.6 69.2 120.9 69.2 121.2 C 69.2 121.8 69.4 122.2 69.8 122.5 C 70.2 122.9 70.8 123 71.5 123 C 72.3 123 72.9 122.9 73.5 122.6 C 74.1 122.2 74.5 121.8 74.8 121.2 C 75 120.8 75.1 120.1 75.1 119.3 C 75.1 119.3 75.1 118.6 75.1 118.6 Z M 80 124.3 L 80 112.9 L 81.8 112.9 C 81.8 112.9 81.77 114.62 81.8 114.6 C 82.2 113.8 82.6 113.3 83 113 C 83.4 112.8 83.8 112.6 84.2 112.6 C 84.9 112.6 85.6 112.8 86.2 113.3 C 86.2 113.3 85.6 115.1 85.6 115.1 C 85.1 114.8 84.6 114.6 84.1 114.6 C 83.7 114.6 83.3 114.8 83 115 C 82.7 115.3 82.4 115.6 82.3 116.1 C 82.1 116.8 82 117.5 82 118.3 C 81.96 118.33 82 124.3 82 124.3 L 80 124.3 Z M 94.8 124.3 C 94.8 124.3 94.78 122.86 94.8 122.9 C 94.1 124 93 124.6 91.6 124.6 C 90.7 124.6 89.8 124.3 89.1 123.8 C 88.3 123.3 87.7 122.6 87.3 121.7 C 86.9 120.8 86.7 119.8 86.7 118.6 C 86.7 117.5 86.9 116.4 87.2 115.5 C 87.6 114.6 88.2 113.9 89 113.4 C 89.7 112.9 90.6 112.6 91.5 112.6 C 92.2 112.6 92.8 112.8 93.3 113.1 C 93.9 113.4 94.3 113.7 94.7 114.2 C 94.65 114.21 94.7 108.6 94.7 108.6 L 96.6 108.6 L 96.6 124.3 L 94.8 124.3 Z M 88.7 118.6 C 88.7 120.1 89 121.2 89.6 121.9 C 90.2 122.6 90.9 123 91.8 123 C 92.6 123 93.3 122.6 93.9 121.9 C 94.5 121.2 94.8 120.2 94.8 118.8 C 94.8 117.2 94.5 116.1 93.9 115.3 C 93.3 114.6 92.6 114.2 91.7 114.2 C 90.8 114.2 90.1 114.6 89.5 115.3 C 89 116 88.7 117.1 88.7 118.6 Z M 100.2 124.3 L 100.2 122.1 L 102.4 122.1 L 102.4 124.3 L 100.2 124.3 Z M 112 124.3 L 112 108.6 C 112 108.6 117.91 108.56 117.9 108.6 C 119.1 108.6 120.1 108.7 120.8 109 C 121.5 109.4 122.1 109.8 122.5 110.5 C 122.9 111.2 123.1 111.9 123.1 112.6 C 123.1 113.3 122.9 113.9 122.6 114.5 C 122.2 115.1 121.7 115.6 120.9 115.9 C 121.9 116.2 122.6 116.7 123.1 117.4 C 123.6 118 123.9 118.8 123.9 119.7 C 123.9 120.5 123.7 121.2 123.4 121.8 C 123.1 122.4 122.7 122.9 122.3 123.3 C 121.8 123.6 121.2 123.9 120.5 124 C 119.9 124.2 119 124.3 118 124.3 C 118 124.3 112 124.3 112 124.3 Z M 114.1 115.2 C 114.1 115.2 117.49 115.17 117.5 115.2 C 118.4 115.2 119.1 115.1 119.5 115 C 120 114.8 120.4 114.6 120.7 114.2 C 120.9 113.8 121.1 113.4 121.1 112.8 C 121.1 112.3 121 111.8 120.7 111.5 C 120.4 111.1 120.1 110.8 119.6 110.6 C 119.2 110.5 118.4 110.4 117.2 110.4 C 117.23 110.41 114.1 110.4 114.1 110.4 L 114.1 115.2 Z M 114.1 122.4 C 114.1 122.4 118 122.45 118 122.4 C 118.7 122.4 119.1 122.4 119.4 122.4 C 119.9 122.3 120.3 122.1 120.6 121.9 C 120.9 121.7 121.2 121.4 121.4 121.1 C 121.6 120.7 121.7 120.2 121.7 119.7 C 121.7 119.2 121.6 118.6 121.3 118.2 C 121 117.8 120.6 117.5 120 117.3 C 119.5 117.1 118.7 117 117.7 117 C 117.72 117.03 114.1 117 114.1 117 L 114.1 122.4 Z M 134.3 120.6 C 134.3 120.6 136.3 120.9 136.3 120.9 C 136 122 135.4 123 134.6 123.6 C 133.7 124.2 132.6 124.6 131.3 124.6 C 129.6 124.6 128.3 124 127.3 123 C 126.4 122 125.9 120.6 125.9 118.7 C 125.9 116.8 126.4 115.3 127.3 114.2 C 128.3 113.2 129.6 112.6 131.2 112.6 C 132.7 112.6 134 113.2 134.9 114.2 C 135.9 115.2 136.4 116.7 136.4 118.6 C 136.4 118.7 136.4 118.9 136.4 119.1 C 136.4 119.1 127.9 119.1 127.9 119.1 C 127.9 120.3 128.3 121.3 128.9 122 C 129.6 122.6 130.4 123 131.3 123 C 132 123 132.6 122.8 133.1 122.4 C 133.6 122 134 121.4 134.3 120.6 Z M 128 117.5 C 128 117.5 134.3 117.5 134.3 117.5 C 134.3 116.5 134 115.8 133.6 115.3 C 133 114.6 132.2 114.2 131.2 114.2 C 130.3 114.2 129.6 114.5 129 115.1 C 128.4 115.7 128 116.5 128 117.5 Z M 138 120.9 C 138 120.9 139.9 120.6 139.9 120.6 C 140 121.4 140.3 122 140.8 122.4 C 141.3 122.8 142 123 142.8 123 C 143.7 123 144.4 122.8 144.8 122.4 C 145.2 122.1 145.5 121.6 145.5 121.2 C 145.5 120.7 145.3 120.4 144.9 120.1 C 144.6 120 144 119.7 142.9 119.5 C 141.5 119.1 140.5 118.8 140 118.5 C 139.4 118.3 139 117.9 138.7 117.5 C 138.4 117 138.3 116.5 138.3 115.9 C 138.3 115.4 138.4 114.9 138.6 114.5 C 138.9 114.1 139.2 113.7 139.6 113.4 C 139.9 113.2 140.3 113 140.8 112.9 C 141.3 112.7 141.9 112.6 142.5 112.6 C 143.4 112.6 144.2 112.8 144.9 113 C 145.5 113.3 146 113.6 146.4 114.1 C 146.7 114.5 146.9 115.1 147 115.8 C 147 115.8 145.1 116.1 145.1 116.1 C 145 115.5 144.8 115.1 144.4 114.7 C 144 114.4 143.4 114.2 142.6 114.2 C 141.7 114.2 141.1 114.4 140.7 114.7 C 140.4 115 140.2 115.3 140.2 115.7 C 140.2 115.9 140.2 116.2 140.4 116.4 C 140.6 116.6 140.8 116.8 141.1 116.9 C 141.3 117 141.9 117.1 142.9 117.4 C 144.2 117.8 145.2 118 145.7 118.3 C 146.3 118.5 146.7 118.9 147 119.3 C 147.3 119.7 147.4 120.3 147.4 121 C 147.4 121.6 147.3 122.2 146.9 122.8 C 146.5 123.3 146 123.8 145.3 124.1 C 144.5 124.4 143.7 124.6 142.9 124.6 C 141.4 124.6 140.2 124.3 139.5 123.6 C 138.7 123 138.2 122.1 138 120.9 Z M 153.1 122.6 C 153.3 122.6 153.6 122.6 154 122.6 C 154 122.6 154.2 124.3 154.2 124.3 C 153.7 124.4 153.2 124.5 152.8 124.5 C 152.1 124.5 151.5 124.3 151.2 124.1 C 150.8 123.9 150.5 123.6 150.3 123.2 C 150.2 122.9 150.1 122.1 150.1 121 C 150.1 120.96 150.1 114.4 150.1 114.4 L 148.7 114.4 L 148.7 112.9 L 150.1 112.9 L 150.1 110.1 L 152 108.9 L 152 112.9 L 154 112.9 L 154 114.4 L 152 114.4 C 152 114.4 152.02 121.07 152 121.1 C 152 121.6 152.1 122 152.1 122.1 C 152.2 122.3 152.3 122.4 152.5 122.5 C 152.6 122.6 152.8 122.6 153.1 122.6 C 153.1 122.6 153.1 122.6 153.1 122.6 Z M 161.2 120.9 C 161.2 120.9 163.1 120.6 163.1 120.6 C 163.2 121.4 163.5 122 164 122.4 C 164.5 122.8 165.2 123 166.1 123 C 167 123 167.6 122.8 168 122.4 C 168.5 122.1 168.7 121.6 168.7 121.2 C 168.7 120.7 168.5 120.4 168.1 120.1 C 167.9 120 167.2 119.7 166.1 119.5 C 164.7 119.1 163.7 118.8 163.2 118.5 C 162.6 118.3 162.2 117.9 161.9 117.5 C 161.7 117 161.5 116.5 161.5 115.9 C 161.5 115.4 161.6 114.9 161.9 114.5 C 162.1 114.1 162.4 113.7 162.8 113.4 C 163.1 113.2 163.5 113 164.1 112.9 C 164.6 112.7 165.1 112.6 165.7 112.6 C 166.6 112.6 167.4 112.8 168.1 113 C 168.8 113.3 169.3 113.6 169.6 114.1 C 169.9 114.5 170.1 115.1 170.2 115.8 C 170.2 115.8 168.4 116.1 168.4 116.1 C 168.3 115.5 168 115.1 167.6 114.7 C 167.2 114.4 166.6 114.2 165.9 114.2 C 165 114.2 164.3 114.4 164 114.7 C 163.6 115 163.4 115.3 163.4 115.7 C 163.4 115.9 163.5 116.2 163.6 116.4 C 163.8 116.6 164 116.8 164.4 116.9 C 164.6 117 165.1 117.1 166.1 117.4 C 167.4 117.8 168.4 118 168.9 118.3 C 169.5 118.5 169.9 118.9 170.2 119.3 C 170.5 119.7 170.7 120.3 170.7 121 C 170.7 121.6 170.5 122.2 170.1 122.8 C 169.7 123.3 169.2 123.8 168.5 124.1 C 167.8 124.4 167 124.6 166.1 124.6 C 164.6 124.6 163.5 124.3 162.7 123.6 C 161.9 123 161.4 122.1 161.2 120.9 Z M 180.4 124.3 C 180.4 124.3 180.45 122.63 180.4 122.6 C 179.6 123.9 178.4 124.6 176.8 124.6 C 176.2 124.6 175.5 124.4 174.9 124.2 C 174.4 123.9 173.9 123.6 173.6 123.2 C 173.4 122.8 173.2 122.3 173 121.8 C 173 121.4 172.9 120.8 172.9 120 C 172.93 119.96 172.9 112.9 172.9 112.9 L 174.9 112.9 C 174.9 112.9 174.86 119.22 174.9 119.2 C 174.9 120.2 174.9 120.9 175 121.3 C 175.1 121.8 175.4 122.2 175.8 122.5 C 176.1 122.8 176.6 122.9 177.2 122.9 C 177.8 122.9 178.3 122.7 178.8 122.5 C 179.4 122.2 179.7 121.7 179.9 121.2 C 180.1 120.7 180.2 120 180.2 119 C 180.24 119.01 180.2 112.9 180.2 112.9 L 182.2 112.9 L 182.2 124.3 L 180.4 124.3 Z M 185.2 110.8 L 185.2 108.6 L 187.2 108.6 L 187.2 110.8 L 185.2 110.8 Z M 185.2 124.3 L 185.2 112.9 L 187.2 112.9 L 187.2 124.3 L 185.2 124.3 Z M 193.5 122.6 C 193.7 122.6 194 122.6 194.3 122.6 C 194.3 122.6 194.6 124.3 194.6 124.3 C 194.1 124.4 193.6 124.5 193.1 124.5 C 192.4 124.5 191.9 124.3 191.5 124.1 C 191.1 123.9 190.8 123.6 190.7 123.2 C 190.5 122.9 190.4 122.1 190.4 121 C 190.45 120.96 190.4 114.4 190.4 114.4 L 189 114.4 L 189 112.9 L 190.4 112.9 L 190.4 110.1 L 192.4 108.9 L 192.4 112.9 L 194.3 112.9 L 194.3 114.4 L 192.4 114.4 C 192.4 114.4 192.37 121.07 192.4 121.1 C 192.4 121.6 192.4 122 192.5 122.1 C 192.5 122.3 192.7 122.4 192.8 122.5 C 193 122.6 193.2 122.6 193.5 122.6 C 193.5 122.6 193.5 122.6 193.5 122.6 Z M 204 120.6 C 204 120.6 206 120.9 206 120.9 C 205.7 122 205.1 123 204.3 123.6 C 203.4 124.2 202.3 124.6 201 124.6 C 199.3 124.6 198 124 197 123 C 196.1 122 195.6 120.6 195.6 118.7 C 195.6 116.8 196.1 115.3 197 114.2 C 198 113.2 199.3 112.6 200.9 112.6 C 202.4 112.6 203.7 113.2 204.6 114.2 C 205.6 115.2 206.1 116.7 206.1 118.6 C 206.1 118.7 206.1 118.9 206.1 119.1 C 206.1 119.1 197.6 119.1 197.6 119.1 C 197.6 120.3 198 121.3 198.6 122 C 199.3 122.6 200.1 123 201 123 C 201.7 123 202.3 122.8 202.8 122.4 C 203.3 122 203.7 121.4 204 120.6 Z M 197.7 117.5 C 197.7 117.5 204 117.5 204 117.5 C 204 116.5 203.7 115.8 203.3 115.3 C 202.7 114.6 201.9 114.2 200.9 114.2 C 200 114.2 199.3 114.5 198.7 115.1 C 198.1 115.7 197.7 116.5 197.7 117.5 Z M 215.8 124.3 C 215.8 124.3 215.84 122.86 215.8 122.9 C 215.1 124 214.1 124.6 212.7 124.6 C 211.7 124.6 210.9 124.3 210.1 123.8 C 209.4 123.3 208.8 122.6 208.4 121.7 C 208 120.8 207.7 119.8 207.7 118.6 C 207.7 117.5 207.9 116.4 208.3 115.5 C 208.7 114.6 209.3 113.9 210 113.4 C 210.8 112.9 211.6 112.6 212.6 112.6 C 213.3 112.6 213.9 112.8 214.4 113.1 C 214.9 113.4 215.4 113.7 215.7 114.2 C 215.71 114.21 215.7 108.6 215.7 108.6 L 217.6 108.6 L 217.6 124.3 L 215.8 124.3 Z M 209.7 118.6 C 209.7 120.1 210 121.2 210.7 121.9 C 211.3 122.6 212 123 212.8 123 C 213.7 123 214.4 122.6 215 121.9 C 215.6 121.2 215.9 120.2 215.9 118.8 C 215.9 117.2 215.6 116.1 215 115.3 C 214.4 114.6 213.6 114.2 212.7 114.2 C 211.9 114.2 211.2 114.6 210.6 115.3 C 210 116 209.7 117.1 209.7 118.6 Z M 230.2 122.6 C 230.4 122.6 230.7 122.6 231 122.6 C 231 122.6 231.3 124.3 231.3 124.3 C 230.7 124.4 230.3 124.5 229.8 124.5 C 229.1 124.5 228.6 124.3 228.2 124.1 C 227.8 123.9 227.5 123.6 227.4 123.2 C 227.2 122.9 227.1 122.1 227.1 121 C 227.14 120.96 227.1 114.4 227.1 114.4 L 225.7 114.4 L 225.7 112.9 L 227.1 112.9 L 227.1 110.1 L 229.1 108.9 L 229.1 112.9 L 231 112.9 L 231 114.4 L 229.1 114.4 C 229.1 114.4 229.07 121.07 229.1 121.1 C 229.1 121.6 229.1 122 229.2 122.1 C 229.2 122.3 229.3 122.4 229.5 122.5 C 229.7 122.6 229.9 122.6 230.2 122.6 C 230.2 122.6 230.2 122.6 230.2 122.6 Z M 232.2 118.6 C 232.2 116.5 232.8 114.9 233.9 113.9 C 234.9 113.1 236.1 112.6 237.5 112.6 C 239.1 112.6 240.4 113.2 241.4 114.2 C 242.4 115.2 242.9 116.6 242.9 118.4 C 242.9 119.9 242.7 121.1 242.2 121.9 C 241.8 122.7 241.1 123.4 240.3 123.9 C 239.4 124.3 238.5 124.6 237.5 124.6 C 235.9 124.6 234.6 124 233.7 123 C 232.7 122 232.2 120.5 232.2 118.6 Z M 234.2 118.6 C 234.2 120.1 234.5 121.2 235.1 121.9 C 235.8 122.6 236.6 123 237.5 123 C 238.5 123 239.3 122.6 239.9 121.9 C 240.6 121.1 240.9 120 240.9 118.5 C 240.9 117.1 240.6 116.1 239.9 115.3 C 239.3 114.6 238.5 114.2 237.5 114.2 C 236.6 114.2 235.8 114.6 235.1 115.3 C 234.5 116 234.2 117.1 234.2 118.6 Z M 254.6 122.6 C 254.8 122.6 255.1 122.6 255.5 122.6 C 255.5 122.6 255.8 124.3 255.8 124.3 C 255.2 124.4 254.7 124.5 254.3 124.5 C 253.6 124.5 253 124.3 252.7 124.1 C 252.3 123.9 252 123.6 251.8 123.2 C 251.7 122.9 251.6 122.1 251.6 121 C 251.6 120.96 251.6 114.4 251.6 114.4 L 250.2 114.4 L 250.2 112.9 L 251.6 112.9 L 251.6 110.1 L 253.5 108.9 L 253.5 112.9 L 255.5 112.9 L 255.5 114.4 L 253.5 114.4 C 253.5 114.4 253.53 121.07 253.5 121.1 C 253.5 121.6 253.6 122 253.6 122.1 C 253.7 122.3 253.8 122.4 254 122.5 C 254.1 122.6 254.3 122.6 254.6 122.6 C 254.6 122.6 254.6 122.6 254.6 122.6 Z M 265.2 120.6 C 265.2 120.6 267.2 120.9 267.2 120.9 C 266.9 122 266.3 123 265.4 123.6 C 264.6 124.2 263.5 124.6 262.2 124.6 C 260.5 124.6 259.2 124 258.2 123 C 257.2 122 256.7 120.6 256.7 118.7 C 256.7 116.8 257.2 115.3 258.2 114.2 C 259.2 113.2 260.5 112.6 262 112.6 C 263.6 112.6 264.8 113.2 265.8 114.2 C 266.8 115.2 267.2 116.7 267.2 118.6 C 267.2 118.7 267.2 118.9 267.2 119.1 C 267.2 119.1 258.7 119.1 258.7 119.1 C 258.8 120.3 259.1 121.3 259.8 122 C 260.4 122.6 261.2 123 262.2 123 C 262.9 123 263.5 122.8 264 122.4 C 264.5 122 264.9 121.4 265.2 120.6 Z M 258.8 117.5 C 258.8 117.5 265.2 117.5 265.2 117.5 C 265.1 116.5 264.9 115.8 264.5 115.3 C 263.8 114.6 263 114.2 262.1 114.2 C 261.2 114.2 260.4 114.5 259.8 115.1 C 259.2 115.7 258.9 116.5 258.8 117.5 Z M 277 120.1 C 277 120.1 278.9 120.4 278.9 120.4 C 278.7 121.7 278.2 122.7 277.3 123.4 C 276.5 124.2 275.4 124.6 274.2 124.6 C 272.6 124.6 271.4 124.1 270.4 123 C 269.5 122 269 120.5 269 118.6 C 269 117.4 269.2 116.3 269.6 115.4 C 270 114.5 270.6 113.8 271.5 113.3 C 272.3 112.9 273.2 112.6 274.2 112.6 C 275.4 112.6 276.5 113 277.2 113.6 C 278 114.2 278.5 115.1 278.8 116.2 C 278.8 116.2 276.9 116.5 276.9 116.5 C 276.7 115.8 276.4 115.2 275.9 114.8 C 275.5 114.4 274.9 114.2 274.3 114.2 C 273.3 114.2 272.5 114.6 271.9 115.3 C 271.3 116 271 117.1 271 118.6 C 271 120.1 271.3 121.2 271.9 121.9 C 272.5 122.6 273.2 123 274.2 123 C 274.9 123 275.6 122.7 276.1 122.3 C 276.6 121.8 276.9 121.1 277 120.1 Z M 280.6 124.3 L 280.6 108.6 L 282.5 108.6 C 282.5 108.6 282.53 114.21 282.5 114.2 C 283.4 113.2 284.6 112.6 285.9 112.6 C 286.8 112.6 287.5 112.8 288.1 113.1 C 288.8 113.5 289.2 113.9 289.5 114.5 C 289.8 115.1 289.9 116 289.9 117.1 C 289.89 117.07 289.9 124.3 289.9 124.3 L 288 124.3 C 288 124.3 287.96 117.07 288 117.1 C 288 116.1 287.7 115.4 287.3 115 C 286.9 114.5 286.3 114.3 285.5 114.3 C 285 114.3 284.4 114.5 283.9 114.7 C 283.4 115 283.1 115.4 282.9 116 C 282.6 116.5 282.5 117.2 282.5 118.1 C 282.53 118.06 282.5 124.3 282.5 124.3 L 280.6 124.3 Z M 292.8 124.3 L 292.8 112.9 L 294.6 112.9 C 294.6 112.9 294.57 114.52 294.6 114.5 C 295.4 113.3 296.6 112.6 298.2 112.6 C 298.9 112.6 299.5 112.8 300.1 113 C 300.7 113.3 301.1 113.6 301.4 114 C 301.7 114.4 301.9 114.9 302 115.4 C 302.1 115.8 302.1 116.4 302.1 117.3 C 302.1 117.29 302.1 124.3 302.1 124.3 L 300.2 124.3 C 300.2 124.3 300.17 117.36 300.2 117.4 C 300.2 116.6 300.1 116 299.9 115.6 C 299.8 115.2 299.5 114.9 299.1 114.7 C 298.8 114.4 298.3 114.3 297.8 114.3 C 297 114.3 296.3 114.6 295.7 115.1 C 295.1 115.6 294.8 116.6 294.8 118.1 C 294.77 118.07 294.8 124.3 294.8 124.3 L 292.8 124.3 Z M 305.1 110.8 L 305.1 108.6 L 307 108.6 L 307 110.8 L 305.1 110.8 Z M 305.1 124.3 L 305.1 112.9 L 307 112.9 L 307 124.3 L 305.1 124.3 Z M 317.4 120.1 C 317.4 120.1 319.3 120.4 319.3 120.4 C 319.1 121.7 318.6 122.7 317.7 123.4 C 316.9 124.2 315.8 124.6 314.6 124.6 C 313 124.6 311.7 124.1 310.8 123 C 309.8 122 309.4 120.5 309.4 118.6 C 309.4 117.4 309.6 116.3 310 115.4 C 310.4 114.5 311 113.8 311.8 113.3 C 312.7 112.9 313.6 112.6 314.6 112.6 C 315.8 112.6 316.8 113 317.6 113.6 C 318.4 114.2 318.9 115.1 319.1 116.2 C 319.1 116.2 317.2 116.5 317.2 116.5 C 317.1 115.8 316.7 115.2 316.3 114.8 C 315.8 114.4 315.3 114.2 314.6 114.2 C 313.7 114.2 312.9 114.6 312.3 115.3 C 311.7 116 311.4 117.1 311.4 118.6 C 311.4 120.1 311.6 121.2 312.2 121.9 C 312.8 122.6 313.6 123 314.5 123 C 315.3 123 315.9 122.7 316.4 122.3 C 316.9 121.8 317.3 121.1 317.4 120.1 Z M 328.8 124.3 C 328.6 123.9 328.5 123.4 328.4 122.9 C 327.7 123.5 327 123.9 326.3 124.2 C 325.7 124.4 325 124.6 324.2 124.6 C 322.9 124.6 322 124.3 321.3 123.6 C 320.6 123 320.3 122.2 320.3 121.3 C 320.3 120.7 320.4 120.2 320.7 119.8 C 320.9 119.3 321.3 118.9 321.7 118.7 C 322.1 118.4 322.6 118.2 323.1 118 C 323.5 117.9 324 117.8 324.8 117.7 C 326.4 117.5 327.5 117.3 328.2 117.1 C 328.2 116.8 328.2 116.6 328.2 116.6 C 328.2 115.8 328.1 115.2 327.7 114.9 C 327.2 114.5 326.5 114.2 325.5 114.2 C 324.6 114.2 323.9 114.4 323.5 114.7 C 323.1 115 322.7 115.6 322.5 116.4 C 322.5 116.4 320.6 116.2 320.6 116.2 C 320.8 115.3 321.1 114.7 321.5 114.2 C 321.9 113.7 322.4 113.3 323.2 113 C 323.9 112.8 324.8 112.6 325.8 112.6 C 326.8 112.6 327.5 112.8 328.2 113 C 328.8 113.2 329.2 113.5 329.5 113.8 C 329.8 114.2 330 114.6 330.1 115.2 C 330.2 115.5 330.2 116.1 330.2 116.9 C 330.2 116.9 330.2 119.5 330.2 119.5 C 330.2 121.3 330.2 122.5 330.3 122.9 C 330.4 123.4 330.6 123.9 330.8 124.3 C 330.81 124.3 328.8 124.3 328.8 124.3 C 328.8 124.3 328.79 124.3 328.8 124.3 Z M 328.2 118.6 C 327.5 118.9 326.5 119.1 325.1 119.3 C 324.3 119.4 323.7 119.6 323.4 119.7 C 323.1 119.8 322.8 120 322.6 120.3 C 322.5 120.6 322.4 120.9 322.4 121.2 C 322.4 121.8 322.6 122.2 322.9 122.5 C 323.3 122.9 323.9 123 324.7 123 C 325.4 123 326.1 122.9 326.6 122.6 C 327.2 122.2 327.7 121.8 327.9 121.2 C 328.1 120.8 328.2 120.1 328.2 119.3 C 328.2 119.3 328.2 118.6 328.2 118.6 Z M 333.1 124.3 L 333.1 108.6 L 335.1 108.6 L 335.1 124.3 L 333.1 124.3 Z M 338 124.3 L 338 108.6 L 340 108.6 L 340 124.3 L 338 124.3 Z M 344.1 128.9 C 343.8 128.9 343.3 128.9 342.9 128.7 C 342.9 128.7 342.7 126.9 342.7 126.9 C 343.1 127 343.5 127.1 343.8 127.1 C 344.2 127.1 344.5 127 344.8 126.8 C 345.1 126.7 345.3 126.5 345.4 126.2 C 345.6 126 345.8 125.6 346 124.8 C 346.1 124.7 346.1 124.5 346.2 124.3 C 346.2 124.33 341.9 112.9 341.9 112.9 L 344 112.9 C 344 112.9 346.33 119.5 346.3 119.5 C 346.6 120.3 346.9 121.2 347.2 122.1 C 347.4 121.3 347.6 120.4 348 119.5 C 347.95 119.54 350.4 112.9 350.4 112.9 L 352.3 112.9 C 352.3 112.9 347.98 124.5 348 124.5 C 347.5 125.8 347.2 126.6 346.9 127.1 C 346.6 127.7 346.2 128.2 345.7 128.5 C 345.3 128.8 344.7 128.9 344.1 128.9 C 344.1 128.9 344.1 128.9 344.1 128.9 Z " stroke="none" fill="#000"/>  </g>  <g id="Polygon8181">    <path d="M 14.8 97.9 L 14.8 82.2 L 17 82.2 L 25.2 94.5 L 25.2 82.2 L 27.2 82.2 L 27.2 97.9 L 25.1 97.9 L 16.8 85.5 L 16.8 97.9 L 14.8 97.9 Z M 29.8 92.2 C 29.8 90.1 30.4 88.5 31.5 87.5 C 32.5 86.7 33.7 86.2 35.1 86.2 C 36.7 86.2 38 86.8 39 87.8 C 40 88.8 40.5 90.2 40.5 92 C 40.5 93.5 40.2 94.7 39.8 95.5 C 39.4 96.3 38.7 97 37.9 97.5 C 37 97.9 36.1 98.2 35.1 98.2 C 33.5 98.2 32.2 97.6 31.2 96.6 C 30.3 95.6 29.8 94.1 29.8 92.2 Z M 31.8 92.2 C 31.8 93.7 32.1 94.8 32.7 95.5 C 33.4 96.2 34.2 96.6 35.1 96.6 C 36.1 96.6 36.9 96.2 37.5 95.5 C 38.2 94.7 38.5 93.6 38.5 92.1 C 38.5 90.7 38.2 89.7 37.5 88.9 C 36.9 88.2 36.1 87.8 35.1 87.8 C 34.2 87.8 33.4 88.2 32.7 88.9 C 32.1 89.6 31.8 90.7 31.8 92.2 Z M 46.1 96.2 C 46.3 96.2 46.6 96.2 46.9 96.2 C 46.9 96.2 47.2 97.9 47.2 97.9 C 46.7 98 46.2 98.1 45.8 98.1 C 45.1 98.1 44.5 97.9 44.1 97.7 C 43.7 97.5 43.5 97.2 43.3 96.8 C 43.2 96.5 43.1 95.7 43.1 94.6 C 43.08 94.56 43.1 88 43.1 88 L 41.7 88 L 41.7 86.5 L 43.1 86.5 L 43.1 83.7 L 45 82.5 L 45 86.5 L 46.9 86.5 L 46.9 88 L 45 88 C 45 88 45.01 94.67 45 94.7 C 45 95.2 45 95.6 45.1 95.7 C 45.2 95.9 45.3 96 45.4 96.1 C 45.6 96.2 45.8 96.2 46.1 96.2 C 46.1 96.2 46.1 96.2 46.1 96.2 Z M 54.9 97.9 L 54.9 86.5 L 56.7 86.5 C 56.7 86.5 56.67 88.22 56.7 88.2 C 57.1 87.4 57.5 86.9 57.9 86.6 C 58.3 86.4 58.7 86.2 59.1 86.2 C 59.8 86.2 60.5 86.4 61.1 86.9 C 61.1 86.9 60.5 88.7 60.5 88.7 C 60 88.4 59.5 88.2 59 88.2 C 58.6 88.2 58.2 88.4 57.9 88.6 C 57.6 88.9 57.3 89.2 57.2 89.7 C 57 90.4 56.9 91.1 56.9 91.9 C 56.86 91.93 56.9 97.9 56.9 97.9 L 54.9 97.9 Z M 70.1 94.2 C 70.1 94.2 72.1 94.5 72.1 94.5 C 71.8 95.6 71.2 96.6 70.3 97.2 C 69.5 97.8 68.4 98.2 67.1 98.2 C 65.4 98.2 64.1 97.6 63.1 96.6 C 62.1 95.6 61.6 94.2 61.6 92.3 C 61.6 90.4 62.1 88.9 63.1 87.8 C 64.1 86.8 65.4 86.2 67 86.2 C 68.5 86.2 69.7 86.8 70.7 87.8 C 71.7 88.8 72.2 90.3 72.2 92.2 C 72.2 92.3 72.1 92.5 72.1 92.7 C 72.1 92.7 63.6 92.7 63.6 92.7 C 63.7 93.9 64.1 94.9 64.7 95.6 C 65.3 96.2 66.1 96.6 67.1 96.6 C 67.8 96.6 68.4 96.4 68.9 96 C 69.4 95.6 69.8 95 70.1 94.2 Z M 63.7 91.1 C 63.7 91.1 70.1 91.1 70.1 91.1 C 70 90.1 69.8 89.4 69.4 88.9 C 68.8 88.2 68 87.8 67 87.8 C 66.1 87.8 65.3 88.1 64.7 88.7 C 64.1 89.3 63.8 90.1 63.7 91.1 Z M 81.8 102.3 C 81.8 102.3 81.79 96.69 81.8 96.7 C 81.5 97.1 81.1 97.5 80.5 97.7 C 80 98 79.4 98.2 78.8 98.2 C 77.4 98.2 76.3 97.6 75.3 96.5 C 74.3 95.5 73.8 94 73.8 92.1 C 73.8 90.9 74 89.9 74.4 89 C 74.8 88.1 75.4 87.4 76.2 86.9 C 76.9 86.5 77.7 86.2 78.6 86.2 C 80.1 86.2 81.2 86.8 82 88 C 81.98 88.02 82 86.5 82 86.5 L 83.7 86.5 L 83.7 102.3 L 81.8 102.3 Z M 75.8 92.2 C 75.8 93.6 76.1 94.7 76.7 95.5 C 77.4 96.2 78.1 96.6 79 96.6 C 79.8 96.6 80.5 96.2 81.1 95.5 C 81.7 94.8 82 93.8 82 92.3 C 82 90.8 81.7 89.7 81 88.9 C 80.4 88.1 79.7 87.8 78.8 87.8 C 78 87.8 77.3 88.1 76.7 88.8 C 76.1 89.5 75.8 90.7 75.8 92.2 Z M 94.2 97.9 C 94.2 97.9 94.23 96.23 94.2 96.2 C 93.3 97.5 92.1 98.2 90.6 98.2 C 89.9 98.2 89.3 98 88.7 97.8 C 88.1 97.5 87.7 97.2 87.4 96.8 C 87.1 96.4 86.9 95.9 86.8 95.4 C 86.7 95 86.7 94.4 86.7 93.6 C 86.71 93.56 86.7 86.5 86.7 86.5 L 88.6 86.5 C 88.6 86.5 88.64 92.82 88.6 92.8 C 88.6 93.8 88.7 94.5 88.8 94.9 C 88.9 95.4 89.1 95.8 89.5 96.1 C 89.9 96.4 90.4 96.5 91 96.5 C 91.6 96.5 92.1 96.3 92.6 96.1 C 93.1 95.8 93.5 95.3 93.7 94.8 C 93.9 94.3 94 93.6 94 92.6 C 94.02 92.61 94 86.5 94 86.5 L 96 86.5 L 96 97.9 L 94.2 97.9 Z M 99 84.4 L 99 82.2 L 100.9 82.2 L 100.9 84.4 L 99 84.4 Z M 99 97.9 L 99 86.5 L 100.9 86.5 L 100.9 97.9 L 99 97.9 Z M 103.9 97.9 L 103.9 86.5 L 105.6 86.5 C 105.6 86.5 105.59 88.22 105.6 88.2 C 106 87.4 106.4 86.9 106.8 86.6 C 107.2 86.4 107.6 86.2 108.1 86.2 C 108.7 86.2 109.4 86.4 110 86.9 C 110 86.9 109.4 88.7 109.4 88.7 C 108.9 88.4 108.4 88.2 108 88.2 C 107.5 88.2 107.2 88.4 106.8 88.6 C 106.5 88.9 106.2 89.2 106.1 89.7 C 105.9 90.4 105.8 91.1 105.8 91.9 C 105.78 91.93 105.8 97.9 105.8 97.9 L 103.9 97.9 Z M 119 94.2 C 119 94.2 121 94.5 121 94.5 C 120.7 95.6 120.1 96.6 119.3 97.2 C 118.4 97.8 117.3 98.2 116 98.2 C 114.3 98.2 113 97.6 112 96.6 C 111 95.6 110.6 94.2 110.6 92.3 C 110.6 90.4 111 88.9 112 87.8 C 113 86.8 114.3 86.2 115.9 86.2 C 117.4 86.2 118.7 86.8 119.6 87.8 C 120.6 88.8 121.1 90.3 121.1 92.2 C 121.1 92.3 121.1 92.5 121.1 92.7 C 121.1 92.7 112.6 92.7 112.6 92.7 C 112.6 93.9 113 94.9 113.6 95.6 C 114.3 96.2 115 96.6 116 96.6 C 116.7 96.6 117.3 96.4 117.8 96 C 118.3 95.6 118.7 95 119 94.2 Z M 112.7 91.1 C 112.7 91.1 119 91.1 119 91.1 C 118.9 90.1 118.7 89.4 118.3 88.9 C 117.7 88.2 116.9 87.8 115.9 87.8 C 115 87.8 114.3 88.1 113.7 88.7 C 113.1 89.3 112.7 90.1 112.7 91.1 Z M 130.8 97.9 C 130.8 97.9 130.84 96.46 130.8 96.5 C 130.1 97.6 129 98.2 127.6 98.2 C 126.7 98.2 125.9 97.9 125.1 97.4 C 124.4 96.9 123.8 96.2 123.4 95.3 C 122.9 94.4 122.7 93.4 122.7 92.2 C 122.7 91.1 122.9 90 123.3 89.1 C 123.7 88.2 124.3 87.5 125 87 C 125.8 86.5 126.6 86.2 127.6 86.2 C 128.2 86.2 128.9 86.4 129.4 86.7 C 129.9 87 130.4 87.3 130.7 87.8 C 130.71 87.81 130.7 82.2 130.7 82.2 L 132.6 82.2 L 132.6 97.9 L 130.8 97.9 Z M 124.7 92.2 C 124.7 93.7 125 94.8 125.6 95.5 C 126.3 96.2 127 96.6 127.8 96.6 C 128.7 96.6 129.4 96.2 130 95.5 C 130.6 94.8 130.9 93.8 130.9 92.4 C 130.9 90.8 130.6 89.7 130 88.9 C 129.4 88.2 128.6 87.8 127.7 87.8 C 126.9 87.8 126.2 88.2 125.6 88.9 C 125 89.6 124.7 90.7 124.7 92.2 Z M 142.2 97.9 L 142.2 88 L 140.5 88 L 140.5 86.5 L 142.2 86.5 C 142.2 86.5 142.24 85.28 142.2 85.3 C 142.2 84.5 142.3 83.9 142.4 83.6 C 142.6 83.1 143 82.7 143.4 82.4 C 143.9 82 144.6 81.9 145.4 81.9 C 145.9 81.9 146.5 82 147.2 82.1 C 147.2 82.1 146.9 83.8 146.9 83.8 C 146.5 83.7 146.1 83.7 145.8 83.7 C 145.2 83.7 144.8 83.8 144.5 84 C 144.3 84.3 144.2 84.8 144.2 85.4 C 144.17 85.44 144.2 86.5 144.2 86.5 L 146.4 86.5 L 146.4 88 L 144.2 88 L 144.2 97.9 L 142.2 97.9 Z M 147.2 92.2 C 147.2 90.1 147.8 88.5 148.9 87.5 C 149.9 86.7 151.1 86.2 152.5 86.2 C 154.1 86.2 155.4 86.8 156.4 87.8 C 157.4 88.8 157.9 90.2 157.9 92 C 157.9 93.5 157.6 94.7 157.2 95.5 C 156.8 96.3 156.1 97 155.3 97.5 C 154.4 97.9 153.5 98.2 152.5 98.2 C 150.9 98.2 149.6 97.6 148.7 96.6 C 147.7 95.6 147.2 94.1 147.2 92.2 Z M 149.2 92.2 C 149.2 93.7 149.5 94.8 150.1 95.5 C 150.8 96.2 151.6 96.6 152.5 96.6 C 153.5 96.6 154.3 96.2 154.9 95.5 C 155.6 94.7 155.9 93.6 155.9 92.1 C 155.9 90.7 155.6 89.7 154.9 88.9 C 154.3 88.2 153.5 87.8 152.5 87.8 C 151.6 87.8 150.8 88.2 150.1 88.9 C 149.5 89.6 149.2 90.7 149.2 92.2 Z M 160.1 97.9 L 160.1 86.5 L 161.8 86.5 C 161.8 86.5 161.85 88.22 161.8 88.2 C 162.3 87.4 162.7 86.9 163.1 86.6 C 163.5 86.4 163.9 86.2 164.3 86.2 C 165 86.2 165.6 86.4 166.3 86.9 C 166.3 86.9 165.6 88.7 165.6 88.7 C 165.2 88.4 164.7 88.2 164.2 88.2 C 163.8 88.2 163.4 88.4 163.1 88.6 C 162.7 88.9 162.5 89.2 162.4 89.7 C 162.1 90.4 162 91.1 162 91.9 C 162.04 91.93 162 97.9 162 97.9 L 160.1 97.9 Z M 176.9 96.2 C 177.2 96.2 177.4 96.2 177.8 96.2 C 177.8 96.2 178.1 97.9 178.1 97.9 C 177.5 98 177 98.1 176.6 98.1 C 175.9 98.1 175.4 97.9 175 97.7 C 174.6 97.5 174.3 97.2 174.2 96.8 C 174 96.5 173.9 95.7 173.9 94.6 C 173.92 94.56 173.9 88 173.9 88 L 172.5 88 L 172.5 86.5 L 173.9 86.5 L 173.9 83.7 L 175.8 82.5 L 175.8 86.5 L 177.8 86.5 L 177.8 88 L 175.8 88 C 175.8 88 175.85 94.67 175.8 94.7 C 175.8 95.2 175.9 95.6 175.9 95.7 C 176 95.9 176.1 96 176.3 96.1 C 176.4 96.2 176.7 96.2 176.9 96.2 C 176.9 96.2 176.9 96.2 176.9 96.2 Z M 179.7 97.9 L 179.7 82.2 L 181.6 82.2 C 181.6 82.2 181.61 87.81 181.6 87.8 C 182.5 86.8 183.7 86.2 185 86.2 C 185.9 86.2 186.6 86.4 187.2 86.7 C 187.9 87.1 188.3 87.5 188.6 88.1 C 188.8 88.7 189 89.6 189 90.7 C 188.97 90.67 189 97.9 189 97.9 L 187 97.9 C 187 97.9 187.04 90.67 187 90.7 C 187 89.7 186.8 89 186.4 88.6 C 186 88.1 185.4 87.9 184.6 87.9 C 184.1 87.9 183.5 88.1 183 88.3 C 182.5 88.6 182.2 89 181.9 89.6 C 181.7 90.1 181.6 90.8 181.6 91.7 C 181.61 91.66 181.6 97.9 181.6 97.9 L 179.7 97.9 Z M 199.7 94.2 C 199.7 94.2 201.7 94.5 201.7 94.5 C 201.4 95.6 200.8 96.6 200 97.2 C 199.1 97.8 198 98.2 196.7 98.2 C 195 98.2 193.7 97.6 192.7 96.6 C 191.8 95.6 191.3 94.2 191.3 92.3 C 191.3 90.4 191.8 88.9 192.8 87.8 C 193.7 86.8 195 86.2 196.6 86.2 C 198.1 86.2 199.4 86.8 200.3 87.8 C 201.3 88.8 201.8 90.3 201.8 92.2 C 201.8 92.3 201.8 92.5 201.8 92.7 C 201.8 92.7 193.3 92.7 193.3 92.7 C 193.3 93.9 193.7 94.9 194.3 95.6 C 195 96.2 195.8 96.6 196.7 96.6 C 197.4 96.6 198 96.4 198.5 96 C 199 95.6 199.4 95 199.7 94.2 Z M 193.4 91.1 C 193.4 91.1 199.7 91.1 199.7 91.1 C 199.7 90.1 199.4 89.4 199 88.9 C 198.4 88.2 197.6 87.8 196.6 87.8 C 195.7 87.8 195 88.1 194.4 88.7 C 193.8 89.3 193.4 90.1 193.4 91.1 Z M 218.1 97.9 C 217.9 97.5 217.8 97 217.7 96.5 C 217 97.1 216.3 97.5 215.6 97.8 C 215 98 214.3 98.2 213.5 98.2 C 212.3 98.2 211.3 97.9 210.6 97.2 C 209.9 96.6 209.6 95.8 209.6 94.9 C 209.6 94.3 209.7 93.8 210 93.4 C 210.2 92.9 210.6 92.5 211 92.3 C 211.4 92 211.9 91.8 212.4 91.6 C 212.8 91.5 213.3 91.4 214.1 91.3 C 215.7 91.1 216.8 90.9 217.5 90.7 C 217.6 90.4 217.6 90.2 217.6 90.2 C 217.6 89.4 217.4 88.8 217 88.5 C 216.5 88.1 215.8 87.8 214.8 87.8 C 213.9 87.8 213.2 88 212.8 88.3 C 212.4 88.6 212 89.2 211.8 90 C 211.8 90 209.9 89.8 209.9 89.8 C 210.1 88.9 210.4 88.3 210.8 87.8 C 211.2 87.3 211.8 86.9 212.5 86.6 C 213.2 86.4 214.1 86.2 215.1 86.2 C 216.1 86.2 216.9 86.4 217.5 86.6 C 218.1 86.8 218.5 87.1 218.8 87.4 C 219.1 87.8 219.3 88.2 219.4 88.8 C 219.5 89.1 219.5 89.7 219.5 90.5 C 219.5 90.5 219.5 93.1 219.5 93.1 C 219.5 94.9 219.5 96.1 219.6 96.5 C 219.7 97 219.9 97.5 220.1 97.9 C 220.11 97.9 218.1 97.9 218.1 97.9 C 218.1 97.9 218.09 97.9 218.1 97.9 Z M 217.5 92.2 C 216.8 92.5 215.8 92.7 214.4 92.9 C 213.6 93 213 93.2 212.7 93.3 C 212.4 93.4 212.1 93.6 211.9 93.9 C 211.8 94.2 211.7 94.5 211.7 94.8 C 211.7 95.4 211.9 95.8 212.3 96.1 C 212.6 96.5 213.2 96.6 214 96.6 C 214.7 96.6 215.4 96.5 216 96.2 C 216.5 95.8 217 95.4 217.2 94.8 C 217.4 94.4 217.5 93.7 217.5 92.9 C 217.5 92.9 217.5 92.2 217.5 92.2 Z M 222.5 102.3 L 222.5 86.5 L 224.3 86.5 C 224.3 86.5 224.26 87.98 224.3 88 C 224.7 87.4 225.1 87 225.7 86.7 C 226.2 86.4 226.8 86.2 227.6 86.2 C 228.5 86.2 229.4 86.5 230.1 87 C 230.9 87.5 231.5 88.2 231.8 89.1 C 232.2 90 232.4 91 232.4 92.1 C 232.4 93.3 232.2 94.3 231.8 95.3 C 231.4 96.2 230.7 96.9 229.9 97.4 C 229.1 97.9 228.3 98.2 227.4 98.2 C 226.8 98.2 226.2 98 225.7 97.8 C 225.2 97.5 224.8 97.1 224.4 96.7 C 224.43 96.72 224.4 102.3 224.4 102.3 L 222.5 102.3 Z M 224.2 92.3 C 224.2 93.7 224.5 94.8 225.1 95.5 C 225.7 96.2 226.5 96.6 227.3 96.6 C 228.2 96.6 228.9 96.2 229.5 95.5 C 230.1 94.8 230.4 93.6 230.4 92.1 C 230.4 90.6 230.1 89.6 229.5 88.8 C 228.9 88.1 228.2 87.8 227.4 87.8 C 226.6 87.8 225.8 88.1 225.2 88.9 C 224.6 89.7 224.2 90.8 224.2 92.3 Z M 234.7 102.3 L 234.7 86.5 L 236.5 86.5 C 236.5 86.5 236.5 87.98 236.5 88 C 236.9 87.4 237.4 87 237.9 86.7 C 238.4 86.4 239.1 86.2 239.8 86.2 C 240.8 86.2 241.6 86.5 242.4 87 C 243.1 87.5 243.7 88.2 244.1 89.1 C 244.4 90 244.6 91 244.6 92.1 C 244.6 93.3 244.4 94.3 244 95.3 C 243.6 96.2 243 96.9 242.2 97.4 C 241.4 97.9 240.5 98.2 239.7 98.2 C 239 98.2 238.4 98 237.9 97.8 C 237.4 97.5 237 97.1 236.7 96.7 C 236.67 96.72 236.7 102.3 236.7 102.3 L 234.7 102.3 Z M 236.5 92.3 C 236.5 93.7 236.8 94.8 237.4 95.5 C 238 96.2 238.7 96.6 239.5 96.6 C 240.4 96.6 241.1 96.2 241.7 95.5 C 242.4 94.8 242.7 93.6 242.7 92.1 C 242.7 90.6 242.4 89.6 241.8 88.8 C 241.2 88.1 240.5 87.8 239.6 87.8 C 238.8 87.8 238.1 88.1 237.4 88.9 C 236.8 89.7 236.5 90.8 236.5 92.3 Z M 246.9 97.9 L 246.9 86.5 L 248.7 86.5 C 248.7 86.5 248.69 88.22 248.7 88.2 C 249.1 87.4 249.5 86.9 249.9 86.6 C 250.3 86.4 250.7 86.2 251.2 86.2 C 251.8 86.2 252.5 86.4 253.1 86.9 C 253.1 86.9 252.5 88.7 252.5 88.7 C 252 88.4 251.5 88.2 251.1 88.2 C 250.6 88.2 250.3 88.4 249.9 88.6 C 249.6 88.9 249.3 89.2 249.2 89.7 C 249 90.4 248.9 91.1 248.9 91.9 C 248.88 91.93 248.9 97.9 248.9 97.9 L 246.9 97.9 Z M 262.1 94.2 C 262.1 94.2 264.1 94.5 264.1 94.5 C 263.8 95.6 263.2 96.6 262.4 97.2 C 261.5 97.8 260.4 98.2 259.1 98.2 C 257.4 98.2 256.1 97.6 255.1 96.6 C 254.1 95.6 253.7 94.2 253.7 92.3 C 253.7 90.4 254.1 88.9 255.1 87.8 C 256.1 86.8 257.4 86.2 259 86.2 C 260.5 86.2 261.8 86.8 262.7 87.8 C 263.7 88.8 264.2 90.3 264.2 92.2 C 264.2 92.3 264.2 92.5 264.2 92.7 C 264.2 92.7 255.6 92.7 255.6 92.7 C 255.7 93.9 256.1 94.9 256.7 95.6 C 257.3 96.2 258.1 96.6 259.1 96.6 C 259.8 96.6 260.4 96.4 260.9 96 C 261.4 95.6 261.8 95 262.1 94.2 Z M 255.8 91.1 C 255.8 91.1 262.1 91.1 262.1 91.1 C 262 90.1 261.8 89.4 261.4 88.9 C 260.8 88.2 260 87.8 259 87.8 C 258.1 87.8 257.4 88.1 256.8 88.7 C 256.2 89.3 255.8 90.1 255.8 91.1 Z M 266.5 97.9 L 266.5 86.5 L 268.3 86.5 C 268.3 86.5 268.27 88.12 268.3 88.1 C 269.1 86.9 270.3 86.2 271.9 86.2 C 272.6 86.2 273.2 86.4 273.8 86.6 C 274.4 86.9 274.8 87.2 275.1 87.6 C 275.4 88 275.6 88.5 275.7 89 C 275.8 89.4 275.8 90 275.8 90.9 C 275.8 90.89 275.8 97.9 275.8 97.9 L 273.9 97.9 C 273.9 97.9 273.87 90.96 273.9 91 C 273.9 90.2 273.8 89.6 273.6 89.2 C 273.5 88.8 273.2 88.5 272.8 88.3 C 272.5 88 272 87.9 271.5 87.9 C 270.7 87.9 270 88.2 269.4 88.7 C 268.8 89.2 268.5 90.2 268.5 91.7 C 268.46 91.67 268.5 97.9 268.5 97.9 L 266.5 97.9 Z M 282.1 96.2 C 282.4 96.2 282.6 96.2 283 96.2 C 283 96.2 283.3 97.9 283.3 97.9 C 282.7 98 282.2 98.1 281.8 98.1 C 281.1 98.1 280.6 97.9 280.2 97.7 C 279.8 97.5 279.5 97.2 279.4 96.8 C 279.2 96.5 279.1 95.7 279.1 94.6 C 279.12 94.56 279.1 88 279.1 88 L 277.7 88 L 277.7 86.5 L 279.1 86.5 L 279.1 83.7 L 281 82.5 L 281 86.5 L 283 86.5 L 283 88 L 281 88 C 281 88 281.04 94.67 281 94.7 C 281 95.2 281.1 95.6 281.1 95.7 C 281.2 95.9 281.3 96 281.5 96.1 C 281.6 96.2 281.9 96.2 282.1 96.2 C 282.1 96.2 282.1 96.2 282.1 96.2 Z M 284.9 84.4 L 284.9 82.2 L 286.8 82.2 L 286.8 84.4 L 284.9 84.4 Z M 284.9 97.9 L 284.9 86.5 L 286.8 86.5 L 286.8 97.9 L 284.9 97.9 Z M 297.2 93.7 C 297.2 93.7 299.1 94 299.1 94 C 298.9 95.3 298.4 96.3 297.5 97 C 296.7 97.8 295.6 98.2 294.4 98.2 C 292.8 98.2 291.5 97.7 290.6 96.6 C 289.6 95.6 289.2 94.1 289.2 92.2 C 289.2 91 289.4 89.9 289.8 89 C 290.2 88.1 290.8 87.4 291.7 86.9 C 292.5 86.5 293.4 86.2 294.4 86.2 C 295.6 86.2 296.6 86.6 297.4 87.2 C 298.2 87.8 298.7 88.7 298.9 89.8 C 298.9 89.8 297 90.1 297 90.1 C 296.9 89.4 296.6 88.8 296.1 88.4 C 295.6 88 295.1 87.8 294.4 87.8 C 293.5 87.8 292.7 88.2 292.1 88.9 C 291.5 89.6 291.2 90.7 291.2 92.2 C 291.2 93.7 291.5 94.8 292 95.5 C 292.6 96.2 293.4 96.6 294.3 96.6 C 295.1 96.6 295.7 96.3 296.2 95.9 C 296.8 95.4 297.1 94.7 297.2 93.7 Z M 308.6 94.2 C 308.6 94.2 310.6 94.5 310.6 94.5 C 310.3 95.6 309.7 96.6 308.8 97.2 C 308 97.8 306.9 98.2 305.6 98.2 C 303.9 98.2 302.6 97.6 301.6 96.6 C 300.6 95.6 300.1 94.2 300.1 92.3 C 300.1 90.4 300.6 88.9 301.6 87.8 C 302.6 86.8 303.9 86.2 305.4 86.2 C 307 86.2 308.2 86.8 309.2 87.8 C 310.2 88.8 310.6 90.3 310.6 92.2 C 310.6 92.3 310.6 92.5 310.6 92.7 C 310.6 92.7 302.1 92.7 302.1 92.7 C 302.2 93.9 302.5 94.9 303.2 95.6 C 303.8 96.2 304.6 96.6 305.6 96.6 C 306.3 96.6 306.9 96.4 307.4 96 C 307.9 95.6 308.3 95 308.6 94.2 Z M 302.2 91.1 C 302.2 91.1 308.6 91.1 308.6 91.1 C 308.5 90.1 308.3 89.4 307.9 88.9 C 307.3 88.2 306.5 87.8 305.5 87.8 C 304.6 87.8 303.8 88.1 303.2 88.7 C 302.6 89.3 302.3 90.1 302.2 91.1 Z M 312.2 94.5 C 312.2 94.5 314.1 94.2 314.1 94.2 C 314.2 95 314.5 95.6 315 96 C 315.5 96.4 316.2 96.6 317.1 96.6 C 318 96.6 318.6 96.4 319.1 96 C 319.5 95.7 319.7 95.2 319.7 94.8 C 319.7 94.3 319.5 94 319.1 93.7 C 318.9 93.6 318.2 93.3 317.2 93.1 C 315.8 92.7 314.8 92.4 314.2 92.1 C 313.7 91.9 313.3 91.5 313 91.1 C 312.7 90.6 312.6 90.1 312.6 89.5 C 312.6 89 312.7 88.5 312.9 88.1 C 313.1 87.7 313.4 87.3 313.8 87 C 314.2 86.8 314.6 86.6 315.1 86.5 C 315.6 86.3 316.2 86.2 316.8 86.2 C 317.6 86.2 318.4 86.4 319.1 86.6 C 319.8 86.9 320.3 87.2 320.6 87.7 C 320.9 88.1 321.2 88.7 321.3 89.4 C 321.3 89.4 319.4 89.7 319.4 89.7 C 319.3 89.1 319 88.7 318.6 88.3 C 318.2 88 317.6 87.8 316.9 87.8 C 316 87.8 315.4 88 315 88.3 C 314.6 88.6 314.4 88.9 314.4 89.3 C 314.4 89.5 314.5 89.8 314.7 90 C 314.8 90.2 315.1 90.4 315.4 90.5 C 315.6 90.6 316.2 90.7 317.1 91 C 318.5 91.4 319.4 91.6 320 91.9 C 320.5 92.1 320.9 92.5 321.2 92.9 C 321.5 93.3 321.7 93.9 321.7 94.6 C 321.7 95.2 321.5 95.8 321.1 96.4 C 320.8 96.9 320.2 97.4 319.5 97.7 C 318.8 98 318 98.2 317.1 98.2 C 315.6 98.2 314.5 97.9 313.7 97.2 C 312.9 96.6 312.4 95.7 312.2 94.5 Z M 324 97.9 L 324 82.2 L 325.9 82.2 C 325.9 82.2 325.93 87.81 325.9 87.8 C 326.8 86.8 328 86.2 329.4 86.2 C 330.2 86.2 330.9 86.4 331.6 86.7 C 332.2 87.1 332.6 87.5 332.9 88.1 C 333.2 88.7 333.3 89.6 333.3 90.7 C 333.29 90.67 333.3 97.9 333.3 97.9 L 331.4 97.9 C 331.4 97.9 331.36 90.67 331.4 90.7 C 331.4 89.7 331.2 89 330.7 88.6 C 330.3 88.1 329.7 87.9 329 87.9 C 328.4 87.9 327.8 88.1 327.3 88.3 C 326.8 88.6 326.5 89 326.3 89.6 C 326 90.1 325.9 90.8 325.9 91.7 C 325.93 91.66 325.9 97.9 325.9 97.9 L 324 97.9 Z M 336.2 84.4 L 336.2 82.2 L 338.2 82.2 L 338.2 84.4 L 336.2 84.4 Z M 336.2 97.9 L 336.2 86.5 L 338.2 86.5 L 338.2 97.9 L 336.2 97.9 Z M 341.1 102.3 L 341.1 86.5 L 342.9 86.5 C 342.9 86.5 342.89 87.98 342.9 88 C 343.3 87.4 343.8 87 344.3 86.7 C 344.8 86.4 345.4 86.2 346.2 86.2 C 347.2 86.2 348 86.5 348.8 87 C 349.5 87.5 350.1 88.2 350.5 89.1 C 350.8 90 351 91 351 92.1 C 351 93.3 350.8 94.3 350.4 95.3 C 350 96.2 349.4 96.9 348.6 97.4 C 347.8 97.9 346.9 98.2 346.1 98.2 C 345.4 98.2 344.8 98 344.3 97.8 C 343.8 97.5 343.4 97.1 343.1 96.7 C 343.06 96.72 343.1 102.3 343.1 102.3 L 341.1 102.3 Z M 342.9 92.3 C 342.9 93.7 343.2 94.8 343.8 95.5 C 344.4 96.2 345.1 96.6 345.9 96.6 C 346.8 96.6 347.5 96.2 348.1 95.5 C 348.7 94.8 349.1 93.6 349.1 92.1 C 349.1 90.6 348.8 89.6 348.2 88.8 C 347.6 88.1 346.8 87.8 346 87.8 C 345.2 87.8 344.5 88.1 343.8 88.9 C 343.2 89.7 342.9 90.8 342.9 92.3 Z " stroke="none" fill="#000"/>  </g>  <g id="Polygon8180">    <path d="M 65.8 63 L 61.5 55.4 L 59.7 55.4 L 59.7 63 L 55.8 63 L 55.8 43.5 C 55.8 43.5 63.1 43.46 63.1 43.5 C 64.6 43.5 65.9 43.7 67 44.3 C 68 44.8 68.8 45.5 69.4 46.4 C 69.9 47.3 70.2 48.3 70.2 49.4 C 70.2 50.7 69.8 51.9 69 52.9 C 68.3 54 67.2 54.7 65.7 55.1 C 65.7 55.08 70.4 63 70.4 63 L 65.8 63 Z M 59.7 52.4 C 59.7 52.4 62.96 52.44 63 52.4 C 64 52.4 64.8 52.2 65.3 51.7 C 65.9 51.2 66.1 50.4 66.1 49.5 C 66.1 48.6 65.9 47.9 65.3 47.4 C 64.8 47 64 46.7 63 46.7 C 62.96 46.7 59.7 46.7 59.7 46.7 L 59.7 52.4 Z M 88.1 54.9 C 88.1 55.5 88.1 56 88 56.4 C 88 56.4 76.7 56.4 76.7 56.4 C 76.8 57.5 77.2 58.4 77.9 59.1 C 78.5 59.7 79.4 60 80.4 60 C 81.9 60 82.9 59.4 83.5 58.1 C 83.5 58.1 87.7 58.1 87.7 58.1 C 87.3 59.6 86.4 60.8 85.2 61.8 C 83.9 62.8 82.3 63.3 80.5 63.3 C 79 63.3 77.7 62.9 76.5 62.3 C 75.3 61.6 74.4 60.7 73.7 59.4 C 73 58.2 72.7 56.8 72.7 55.2 C 72.7 53.6 73 52.2 73.7 51 C 74.3 49.8 75.3 48.9 76.4 48.2 C 77.6 47.6 79 47.2 80.5 47.2 C 82 47.2 83.3 47.6 84.4 48.2 C 85.6 48.8 86.5 49.7 87.2 50.9 C 87.8 52.1 88.1 53.4 88.1 54.9 C 88.1 54.9 88.1 54.9 88.1 54.9 Z M 84.1 53.8 C 84.1 52.8 83.7 52 83 51.4 C 82.3 50.8 81.4 50.5 80.4 50.5 C 79.4 50.5 78.6 50.7 77.9 51.3 C 77.3 51.9 76.9 52.7 76.7 53.8 C 76.7 53.8 84.1 53.8 84.1 53.8 Z M 90 55.2 C 90 53.6 90.3 52.2 91 51 C 91.6 49.8 92.5 48.9 93.7 48.2 C 94.8 47.6 96.2 47.2 97.7 47.2 C 99.6 47.2 101.2 47.7 102.4 48.7 C 103.7 49.6 104.5 51 105 52.7 C 105 52.7 100.7 52.7 100.7 52.7 C 100.5 52.1 100.1 51.5 99.6 51.1 C 99.1 50.8 98.4 50.6 97.6 50.6 C 96.5 50.6 95.6 51 95 51.8 C 94.3 52.6 94 53.8 94 55.2 C 94 56.7 94.3 57.9 95 58.7 C 95.6 59.5 96.5 59.9 97.6 59.9 C 99.2 59.9 100.2 59.2 100.7 57.8 C 100.7 57.8 105 57.8 105 57.8 C 104.5 59.4 103.7 60.8 102.4 61.8 C 101.1 62.8 99.6 63.3 97.7 63.3 C 96.2 63.3 94.8 62.9 93.7 62.3 C 92.5 61.6 91.6 60.7 91 59.5 C 90.3 58.3 90 56.8 90 55.2 C 90 55.2 90 55.2 90 55.2 Z M 114.7 63.3 C 113.2 63.3 111.9 62.9 110.7 62.3 C 109.5 61.6 108.6 60.7 107.9 59.4 C 107.2 58.2 106.9 56.8 106.9 55.2 C 106.9 53.7 107.2 52.3 107.9 51 C 108.6 49.8 109.6 48.9 110.8 48.2 C 112 47.6 113.3 47.2 114.8 47.2 C 116.3 47.2 117.7 47.6 118.9 48.2 C 120.1 48.9 121.1 49.8 121.8 51 C 122.5 52.3 122.8 53.7 122.8 55.2 C 122.8 56.8 122.5 58.2 121.7 59.4 C 121 60.7 120.1 61.6 118.8 62.3 C 117.6 62.9 116.2 63.3 114.7 63.3 C 114.7 63.3 114.7 63.3 114.7 63.3 Z M 114.7 59.8 C 115.4 59.8 116.1 59.7 116.7 59.3 C 117.4 59 117.9 58.5 118.2 57.8 C 118.6 57.1 118.8 56.2 118.8 55.2 C 118.8 53.8 118.4 52.6 117.6 51.8 C 116.9 51 115.9 50.7 114.8 50.7 C 113.7 50.7 112.7 51 112 51.8 C 111.2 52.6 110.8 53.8 110.8 55.2 C 110.8 56.7 111.2 57.9 111.9 58.6 C 112.7 59.4 113.6 59.8 114.7 59.8 C 114.7 59.8 114.7 59.8 114.7 59.8 Z M 145 47.3 C 146.9 47.3 148.4 47.8 149.6 49 C 150.7 50.2 151.3 51.8 151.3 53.9 C 151.33 53.9 151.3 63 151.3 63 L 147.4 63 C 147.4 63 147.41 54.43 147.4 54.4 C 147.4 53.2 147.1 52.3 146.5 51.6 C 145.9 51 145 50.7 144 50.7 C 142.9 50.7 142.1 51 141.4 51.6 C 140.8 52.3 140.5 53.2 140.5 54.4 C 140.49 54.43 140.5 63 140.5 63 L 136.6 63 C 136.6 63 136.57 54.43 136.6 54.4 C 136.6 53.2 136.3 52.3 135.6 51.6 C 135 51 134.2 50.7 133.1 50.7 C 132 50.7 131.2 51 130.6 51.6 C 129.9 52.3 129.6 53.2 129.6 54.4 C 129.63 54.43 129.6 63 129.6 63 L 125.7 63 L 125.7 47.5 L 129.6 47.5 C 129.6 47.5 129.63 49.36 129.6 49.4 C 130.1 48.7 130.8 48.2 131.6 47.8 C 132.4 47.5 133.2 47.3 134.2 47.3 C 135.4 47.3 136.5 47.5 137.4 48 C 138.4 48.5 139.1 49.3 139.7 50.2 C 140.2 49.3 140.9 48.6 141.8 48.1 C 142.8 47.5 143.9 47.3 145 47.3 C 145 47.3 145 47.3 145 47.3 Z M 174.3 47.3 C 176.2 47.3 177.8 47.8 178.9 49 C 180.1 50.2 180.7 51.8 180.7 53.9 C 180.67 53.9 180.7 63 180.7 63 L 176.8 63 C 176.8 63 176.75 54.43 176.8 54.4 C 176.8 53.2 176.4 52.3 175.8 51.6 C 175.2 51 174.4 50.7 173.3 50.7 C 172.2 50.7 171.4 51 170.8 51.6 C 170.1 52.3 169.8 53.2 169.8 54.4 C 169.83 54.43 169.8 63 169.8 63 L 165.9 63 C 165.9 63 165.91 54.43 165.9 54.4 C 165.9 53.2 165.6 52.3 165 51.6 C 164.4 51 163.5 50.7 162.5 50.7 C 161.4 50.7 160.5 51 159.9 51.6 C 159.3 52.3 159 53.2 159 54.4 C 158.97 54.43 159 63 159 63 L 155.1 63 L 155.1 47.5 L 159 47.5 C 159 47.5 158.97 49.36 159 49.4 C 159.5 48.7 160.1 48.2 160.9 47.8 C 161.7 47.5 162.6 47.3 163.5 47.3 C 164.7 47.3 165.8 47.5 166.8 48 C 167.7 48.5 168.5 49.3 169 50.2 C 169.5 49.3 170.2 48.6 171.2 48.1 C 172.2 47.5 173.2 47.3 174.3 47.3 C 174.3 47.3 174.3 47.3 174.3 47.3 Z M 198.8 54.9 C 198.8 55.5 198.8 56 198.7 56.4 C 198.7 56.4 187.4 56.4 187.4 56.4 C 187.5 57.5 187.8 58.4 188.5 59.1 C 189.2 59.7 190.1 60 191.1 60 C 192.5 60 193.6 59.4 194.2 58.1 C 194.2 58.1 198.4 58.1 198.4 58.1 C 198 59.6 197.1 60.8 195.8 61.8 C 194.6 62.8 193 63.3 191.2 63.3 C 189.7 63.3 188.3 62.9 187.2 62.3 C 186 61.6 185 60.7 184.4 59.4 C 183.7 58.2 183.4 56.8 183.4 55.2 C 183.4 53.6 183.7 52.2 184.4 51 C 185 49.8 185.9 48.9 187.1 48.2 C 188.3 47.6 189.6 47.2 191.2 47.2 C 192.6 47.2 194 47.6 195.1 48.2 C 196.3 48.8 197.2 49.7 197.8 50.9 C 198.5 52.1 198.8 53.4 198.8 54.9 C 198.8 54.9 198.8 54.9 198.8 54.9 Z M 194.8 53.8 C 194.7 52.8 194.4 52 193.7 51.4 C 193 50.8 192.1 50.5 191.1 50.5 C 190.1 50.5 189.3 50.7 188.6 51.3 C 187.9 51.9 187.5 52.7 187.4 53.8 C 187.4 53.8 194.8 53.8 194.8 53.8 Z M 210.3 47.3 C 212.1 47.3 213.6 47.8 214.7 49 C 215.9 50.2 216.5 51.8 216.5 53.9 C 216.45 53.9 216.5 63 216.5 63 L 212.5 63 C 212.5 63 212.53 54.43 212.5 54.4 C 212.5 53.2 212.2 52.3 211.6 51.6 C 211 50.9 210.2 50.6 209.1 50.6 C 208 50.6 207.2 50.9 206.5 51.6 C 205.9 52.3 205.6 53.2 205.6 54.4 C 205.59 54.43 205.6 63 205.6 63 L 201.7 63 L 201.7 47.5 L 205.6 47.5 C 205.6 47.5 205.59 49.42 205.6 49.4 C 206.1 48.7 206.8 48.2 207.6 47.8 C 208.4 47.5 209.3 47.3 210.3 47.3 C 210.3 47.3 210.3 47.3 210.3 47.3 Z M 219.2 55.2 C 219.2 53.6 219.5 52.2 220.1 51 C 220.7 49.8 221.6 48.9 222.7 48.2 C 223.8 47.6 225 47.2 226.3 47.2 C 227.3 47.2 228.3 47.5 229.2 47.9 C 230.1 48.3 230.8 48.9 231.3 49.6 C 231.35 49.64 231.3 42.3 231.3 42.3 L 235.3 42.3 L 235.3 63 L 231.3 63 C 231.3 63 231.35 60.7 231.3 60.7 C 230.9 61.5 230.2 62.1 229.3 62.6 C 228.4 63 227.4 63.3 226.3 63.3 C 224.9 63.3 223.8 62.9 222.7 62.2 C 221.6 61.6 220.7 60.6 220.1 59.4 C 219.5 58.2 219.2 56.8 219.2 55.2 C 219.2 55.2 219.2 55.2 219.2 55.2 Z M 231.4 55.2 C 231.4 54.3 231.2 53.5 230.8 52.8 C 230.4 52.1 229.9 51.6 229.3 51.2 C 228.7 50.9 228 50.7 227.3 50.7 C 226.5 50.7 225.9 50.9 225.2 51.2 C 224.6 51.6 224.1 52.1 223.7 52.8 C 223.4 53.4 223.2 54.3 223.2 55.2 C 223.2 56.1 223.4 56.9 223.7 57.6 C 224.1 58.3 224.6 58.9 225.3 59.2 C 225.9 59.6 226.6 59.8 227.3 59.8 C 228 59.8 228.7 59.6 229.3 59.3 C 229.9 58.9 230.4 58.4 230.8 57.7 C 231.2 57 231.4 56.2 231.4 55.2 C 231.4 55.2 231.4 55.2 231.4 55.2 Z M 238.2 55.2 C 238.2 53.6 238.5 52.2 239.1 51 C 239.7 49.8 240.6 48.9 241.6 48.2 C 242.7 47.6 243.9 47.2 245.2 47.2 C 246.4 47.2 247.4 47.5 248.3 47.9 C 249.1 48.4 249.8 49 250.4 49.7 C 250.36 49.7 250.4 47.5 250.4 47.5 L 254.3 47.5 L 254.3 63 L 250.4 63 C 250.4 63 250.36 60.73 250.4 60.7 C 249.9 61.5 249.2 62.1 248.3 62.5 C 247.4 63 246.4 63.3 245.2 63.3 C 243.9 63.3 242.7 62.9 241.6 62.2 C 240.6 61.6 239.7 60.6 239.1 59.4 C 238.5 58.2 238.2 56.8 238.2 55.2 C 238.2 55.2 238.2 55.2 238.2 55.2 Z M 250.4 55.2 C 250.4 54.3 250.2 53.5 249.8 52.8 C 249.4 52.1 248.9 51.6 248.3 51.2 C 247.7 50.9 247 50.7 246.2 50.7 C 245.5 50.7 244.8 50.9 244.2 51.2 C 243.6 51.6 243.1 52.1 242.7 52.8 C 242.3 53.4 242.2 54.3 242.2 55.2 C 242.2 56.1 242.3 56.9 242.7 57.6 C 243.1 58.3 243.6 58.9 244.2 59.2 C 244.9 59.6 245.5 59.8 246.2 59.8 C 247 59.8 247.7 59.6 248.3 59.3 C 248.9 58.9 249.4 58.4 249.8 57.7 C 250.2 57 250.4 56.2 250.4 55.2 C 250.4 55.2 250.4 55.2 250.4 55.2 Z M 262.7 50.7 C 262.7 50.7 262.71 58.21 262.7 58.2 C 262.7 58.7 262.8 59.1 263.1 59.3 C 263.3 59.6 263.8 59.7 264.4 59.7 C 264.36 59.7 266.2 59.7 266.2 59.7 L 266.2 63 C 266.2 63 263.72 63 263.7 63 C 260.4 63 258.8 61.4 258.8 58.2 C 258.76 58.18 258.8 50.7 258.8 50.7 L 256.9 50.7 L 256.9 47.5 L 258.8 47.5 L 258.8 43.7 L 262.7 43.7 L 262.7 47.5 L 266.2 47.5 L 266.2 50.7 L 262.7 50.7 Z M 271 45.6 C 270.3 45.6 269.7 45.4 269.3 45 C 268.8 44.5 268.6 44 268.6 43.3 C 268.6 42.7 268.8 42.1 269.3 41.7 C 269.7 41.3 270.3 41 271 41 C 271.7 41 272.3 41.3 272.7 41.7 C 273.2 42.1 273.4 42.7 273.4 43.3 C 273.4 44 273.2 44.5 272.7 45 C 272.3 45.4 271.7 45.6 271 45.6 C 271 45.6 271 45.6 271 45.6 Z M 272.9 47.5 L 272.9 63 L 269 63 L 269 47.5 L 272.9 47.5 Z M 283.7 63.3 C 282.2 63.3 280.8 62.9 279.6 62.3 C 278.5 61.6 277.5 60.7 276.8 59.4 C 276.2 58.2 275.8 56.8 275.8 55.2 C 275.8 53.7 276.2 52.3 276.9 51 C 277.6 49.8 278.5 48.9 279.7 48.2 C 280.9 47.6 282.3 47.2 283.8 47.2 C 285.3 47.2 286.6 47.6 287.9 48.2 C 289.1 48.9 290 49.8 290.7 51 C 291.4 52.3 291.8 53.7 291.8 55.2 C 291.8 56.8 291.4 58.2 290.7 59.4 C 290 60.7 289 61.6 287.8 62.3 C 286.6 62.9 285.2 63.3 283.7 63.3 C 283.7 63.3 283.7 63.3 283.7 63.3 Z M 283.7 59.8 C 284.4 59.8 285.1 59.7 285.7 59.3 C 286.3 59 286.8 58.5 287.2 57.8 C 287.6 57.1 287.7 56.2 287.7 55.2 C 287.7 53.8 287.4 52.6 286.6 51.8 C 285.8 51 284.9 50.7 283.7 50.7 C 282.6 50.7 281.7 51 280.9 51.8 C 280.2 52.6 279.8 53.8 279.8 55.2 C 279.8 56.7 280.2 57.9 280.9 58.6 C 281.6 59.4 282.6 59.8 283.7 59.8 C 283.7 59.8 283.7 59.8 283.7 59.8 Z M 303.3 47.3 C 305.1 47.3 306.6 47.8 307.7 49 C 308.9 50.2 309.4 51.8 309.4 53.9 C 309.44 53.9 309.4 63 309.4 63 L 305.5 63 C 305.5 63 305.52 54.43 305.5 54.4 C 305.5 53.2 305.2 52.3 304.6 51.6 C 304 50.9 303.1 50.6 302.1 50.6 C 301 50.6 300.1 50.9 299.5 51.6 C 298.9 52.3 298.6 53.2 298.6 54.4 C 298.58 54.43 298.6 63 298.6 63 L 294.7 63 L 294.7 47.5 L 298.6 47.5 C 298.6 47.5 298.58 49.42 298.6 49.4 C 299.1 48.7 299.8 48.2 300.6 47.8 C 301.4 47.5 302.3 47.3 303.3 47.3 C 303.3 47.3 303.3 47.3 303.3 47.3 Z " stroke="none" fill="#e4007e"/>  </g>  <g id="Polygon8179">    <path d="M 139.6 15.9 C 139.6 16.9 139.3 17.9 138.8 18.8 C 138.3 19.8 137.5 20.5 136.5 21.1 C 135.4 21.6 134.1 21.9 132.5 21.9 C 132.5 21.9 129.2 21.9 129.2 21.9 L 129.2 29.4 L 125.3 29.4 L 125.3 9.9 C 125.3 9.9 132.5 9.86 132.5 9.9 C 134 9.9 135.3 10.1 136.4 10.6 C 137.4 11.2 138.2 11.9 138.8 12.8 C 139.3 13.7 139.6 14.7 139.6 15.9 C 139.6 15.9 139.6 15.9 139.6 15.9 Z M 132.3 18.7 C 133.4 18.7 134.2 18.5 134.7 18 C 135.3 17.5 135.5 16.8 135.5 15.9 C 135.5 14 134.5 13 132.3 13 C 132.33 13.05 129.2 13 129.2 13 L 129.2 18.7 L 132.3 18.7 C 132.3 18.7 132.33 18.73 132.3 18.7 Z M 146.2 16.3 C 146.7 15.5 147.4 14.8 148.2 14.4 C 149 13.9 150 13.7 151 13.7 C 151 13.66 151 17.8 151 17.8 C 151 17.8 149.97 17.78 150 17.8 C 148.7 17.8 147.8 18.1 147.2 18.6 C 146.6 19.2 146.2 20.2 146.2 21.7 C 146.24 21.67 146.2 29.4 146.2 29.4 L 142.3 29.4 L 142.3 13.9 L 146.2 13.9 L 146.2 16.3 C 146.2 16.3 146.24 16.3 146.2 16.3 Z M 160.5 29.7 C 159 29.7 157.7 29.3 156.5 28.7 C 155.3 28 154.4 27.1 153.7 25.8 C 153 24.6 152.7 23.2 152.7 21.6 C 152.7 20.1 153 18.7 153.7 17.4 C 154.4 16.2 155.4 15.3 156.6 14.6 C 157.8 14 159.1 13.6 160.6 13.6 C 162.1 13.6 163.5 14 164.7 14.6 C 165.9 15.3 166.9 16.2 167.6 17.4 C 168.3 18.7 168.6 20.1 168.6 21.6 C 168.6 23.2 168.3 24.6 167.5 25.8 C 166.8 27.1 165.8 28 164.6 28.7 C 163.4 29.3 162 29.7 160.5 29.7 C 160.5 29.7 160.5 29.7 160.5 29.7 Z M 160.5 26.2 C 161.2 26.2 161.9 26.1 162.5 25.7 C 163.2 25.4 163.7 24.9 164 24.2 C 164.4 23.5 164.6 22.6 164.6 21.6 C 164.6 20.2 164.2 19 163.4 18.2 C 162.6 17.4 161.7 17.1 160.6 17.1 C 159.5 17.1 158.5 17.4 157.8 18.2 C 157 19 156.6 20.2 156.6 21.6 C 156.6 23.1 157 24.3 157.7 25 C 158.5 25.8 159.4 26.2 160.5 26.2 C 160.5 26.2 160.5 26.2 160.5 26.2 Z M 178 25.8 L 181.9 13.9 L 186.1 13.9 L 180.3 29.4 L 175.6 29.4 L 169.8 13.9 L 174 13.9 L 178 25.8 Z M 190.3 12 C 189.6 12 189 11.8 188.5 11.4 C 188.1 10.9 187.9 10.4 187.9 9.7 C 187.9 9.1 188.1 8.5 188.5 8.1 C 189 7.7 189.6 7.4 190.3 7.4 C 191 7.4 191.5 7.7 192 8.1 C 192.4 8.5 192.7 9.1 192.7 9.7 C 192.7 10.4 192.4 10.9 192 11.4 C 191.5 11.8 191 12 190.3 12 C 190.3 12 190.3 12 190.3 12 Z M 192.2 13.9 L 192.2 29.4 L 188.3 29.4 L 188.3 13.9 L 192.2 13.9 Z M 195 21.6 C 195 20 195.4 18.6 196 17.4 C 196.6 16.2 197.5 15.3 198.5 14.6 C 199.6 14 200.8 13.6 202.2 13.6 C 203.2 13.6 204.1 13.9 205 14.3 C 206 14.7 206.7 15.3 207.2 16 C 207.23 16.04 207.2 8.7 207.2 8.7 L 211.2 8.7 L 211.2 29.4 L 207.2 29.4 C 207.2 29.4 207.23 27.1 207.2 27.1 C 206.7 27.9 206.1 28.5 205.2 29 C 204.3 29.4 203.3 29.7 202.1 29.7 C 200.8 29.7 199.6 29.3 198.5 28.6 C 197.5 28 196.6 27 196 25.8 C 195.4 24.6 195 23.2 195 21.6 C 195 21.6 195 21.6 195 21.6 Z M 207.3 21.6 C 207.3 20.7 207.1 19.9 206.7 19.2 C 206.3 18.5 205.8 18 205.2 17.6 C 204.5 17.3 203.9 17.1 203.1 17.1 C 202.4 17.1 201.7 17.3 201.1 17.6 C 200.5 18 200 18.5 199.6 19.2 C 199.2 19.8 199.1 20.7 199.1 21.6 C 199.1 22.5 199.2 23.3 199.6 24 C 200 24.7 200.5 25.3 201.1 25.6 C 201.8 26 202.4 26.2 203.1 26.2 C 203.9 26.2 204.5 26 205.2 25.7 C 205.8 25.3 206.3 24.8 206.7 24.1 C 207.1 23.4 207.3 22.6 207.3 21.6 C 207.3 21.6 207.3 21.6 207.3 21.6 Z M 229.5 21.3 C 229.5 21.9 229.4 22.4 229.3 22.8 C 229.3 22.8 218 22.8 218 22.8 C 218.1 23.9 218.5 24.8 219.2 25.5 C 219.9 26.1 220.7 26.4 221.7 26.4 C 223.2 26.4 224.2 25.8 224.8 24.5 C 224.8 24.5 229.1 24.5 229.1 24.5 C 228.6 26 227.8 27.2 226.5 28.2 C 225.2 29.2 223.7 29.7 221.8 29.7 C 220.3 29.7 219 29.3 217.8 28.7 C 216.6 28 215.7 27.1 215 25.8 C 214.4 24.6 214 23.2 214 21.6 C 214 20 214.4 18.6 215 17.4 C 215.7 16.2 216.6 15.3 217.8 14.6 C 218.9 14 220.3 13.6 221.8 13.6 C 223.3 13.6 224.6 14 225.8 14.6 C 226.9 15.2 227.8 16.1 228.5 17.3 C 229.1 18.5 229.5 19.8 229.5 21.3 C 229.5 21.3 229.5 21.3 229.5 21.3 Z M 225.4 20.2 C 225.4 19.2 225 18.4 224.3 17.8 C 223.6 17.2 222.7 16.9 221.7 16.9 C 220.7 16.9 219.9 17.1 219.3 17.7 C 218.6 18.3 218.2 19.1 218 20.2 C 218 20.2 225.4 20.2 225.4 20.2 Z M 236.2 16.3 C 236.7 15.5 237.4 14.8 238.2 14.4 C 239 13.9 239.9 13.7 241 13.7 C 241 13.66 241 17.8 241 17.8 C 241 17.8 239.96 17.78 240 17.8 C 238.7 17.8 237.8 18.1 237.2 18.6 C 236.5 19.2 236.2 20.2 236.2 21.7 C 236.24 21.67 236.2 29.4 236.2 29.4 L 232.3 29.4 L 232.3 13.9 L 236.2 13.9 L 236.2 16.3 C 236.2 16.3 236.24 16.3 236.2 16.3 Z " stroke="none" fill="#e4007e"/>  </g></svg>