<?xml version="1.0" standalone="no"?><!DOCTYPE svg PUBLIC "-//W3C//DTD SVG 1.1//EN" "http://www.w3.org/Graphics/SVG/1.1/DTD/svg11.dtd"><svg xmlns="http://www.w3.org/2000/svg" version="1.1" width="135px" height="35.6px" viewBox="0 -7 135 35.6" style="top:-7px">  <desc>(Free Tier)</desc>  <defs/>  <g id="Polygon7204">    <path d="M 21.1 20.6 C 20.1 19.3 19.2 17.7 18.4 15.9 C 17.7 14.1 17.3 12.2 17.3 10.3 C 17.3 8.6 17.6 7 18.1 5.4 C 18.8 3.6 19.8 1.8 21.1 0 C 21.1 0 22.5 0 22.5 0 C 21.7 1.5 21.1 2.6 20.8 3.2 C 20.4 4.2 20 5.2 19.8 6.3 C 19.5 7.6 19.3 9 19.3 10.3 C 19.3 13.8 20.4 17.2 22.5 20.6 C 22.5 20.6 21.1 20.6 21.1 20.6 Z M 25.1 16 L 25.1 0.3 L 35.7 0.3 L 35.7 2.1 L 27.2 2.1 L 27.2 7 L 34.6 7 L 34.6 8.9 L 27.2 8.9 L 27.2 16 L 25.1 16 Z M 38.2 16 L 38.2 4.6 L 39.9 4.6 C 39.9 4.6 39.92 6.34 39.9 6.3 C 40.4 5.5 40.8 5 41.2 4.7 C 41.5 4.5 41.9 4.4 42.4 4.4 C 43 4.4 43.7 4.6 44.4 5 C 44.4 5 43.7 6.8 43.7 6.8 C 43.2 6.5 42.8 6.3 42.3 6.3 C 41.9 6.3 41.5 6.5 41.2 6.7 C 40.8 7 40.6 7.3 40.4 7.8 C 40.2 8.5 40.1 9.2 40.1 10 C 40.12 10.04 40.1 16 40.1 16 L 38.2 16 Z M 53.3 12.3 C 53.3 12.3 55.3 12.6 55.3 12.6 C 55 13.8 54.4 14.7 53.6 15.3 C 52.7 16 51.6 16.3 50.3 16.3 C 48.7 16.3 47.3 15.8 46.4 14.7 C 45.4 13.7 44.9 12.3 44.9 10.4 C 44.9 8.5 45.4 7 46.4 5.9 C 47.4 4.9 48.6 4.4 50.2 4.4 C 51.7 4.4 53 4.9 54 5.9 C 54.9 6.9 55.4 8.4 55.4 10.3 C 55.4 10.4 55.4 10.6 55.4 10.8 C 55.4 10.8 46.9 10.8 46.9 10.8 C 47 12.1 47.3 13 47.9 13.7 C 48.6 14.4 49.4 14.7 50.3 14.7 C 51 14.7 51.6 14.5 52.1 14.1 C 52.6 13.8 53 13.2 53.3 12.3 Z M 47 9.2 C 47 9.2 53.4 9.2 53.4 9.2 C 53.3 8.3 53 7.5 52.6 7.1 C 52 6.3 51.2 5.9 50.2 5.9 C 49.3 5.9 48.6 6.2 48 6.8 C 47.4 7.4 47.1 8.2 47 9.2 Z M 65.6 12.3 C 65.6 12.3 67.6 12.6 67.6 12.6 C 67.3 13.8 66.7 14.7 65.8 15.3 C 65 16 63.9 16.3 62.6 16.3 C 60.9 16.3 59.6 15.8 58.6 14.7 C 57.6 13.7 57.1 12.3 57.1 10.4 C 57.1 8.5 57.6 7 58.6 5.9 C 59.6 4.9 60.9 4.4 62.4 4.4 C 64 4.4 65.2 4.9 66.2 5.9 C 67.2 6.9 67.6 8.4 67.6 10.3 C 67.6 10.4 67.6 10.6 67.6 10.8 C 67.6 10.8 59.1 10.8 59.1 10.8 C 59.2 12.1 59.5 13 60.2 13.7 C 60.8 14.4 61.6 14.7 62.6 14.7 C 63.3 14.7 63.9 14.5 64.4 14.1 C 64.9 13.8 65.3 13.2 65.6 12.3 Z M 59.2 9.2 C 59.2 9.2 65.6 9.2 65.6 9.2 C 65.5 8.3 65.3 7.5 64.9 7.1 C 64.2 6.3 63.5 5.9 62.5 5.9 C 61.6 5.9 60.8 6.2 60.2 6.8 C 59.6 7.4 59.3 8.2 59.2 9.2 Z M 80 16 L 80 2.1 L 74.8 2.1 L 74.8 0.3 L 87.3 0.3 L 87.3 2.1 L 82.1 2.1 L 82.1 16 L 80 16 Z M 88.3 2.5 L 88.3 0.3 L 90.3 0.3 L 90.3 2.5 L 88.3 2.5 Z M 88.3 16 L 88.3 4.6 L 90.3 4.6 L 90.3 16 L 88.3 16 Z M 101 12.3 C 101 12.3 103 12.6 103 12.6 C 102.7 13.8 102.1 14.7 101.3 15.3 C 100.4 16 99.3 16.3 98 16.3 C 96.3 16.3 95 15.8 94 14.7 C 93.1 13.7 92.6 12.3 92.6 10.4 C 92.6 8.5 93.1 7 94.1 5.9 C 95.1 4.9 96.3 4.4 97.9 4.4 C 99.4 4.4 100.7 4.9 101.6 5.9 C 102.6 6.9 103.1 8.4 103.1 10.3 C 103.1 10.4 103.1 10.6 103.1 10.8 C 103.1 10.8 94.6 10.8 94.6 10.8 C 94.7 12.1 95 13 95.6 13.7 C 96.3 14.4 97.1 14.7 98 14.7 C 98.7 14.7 99.3 14.5 99.8 14.1 C 100.3 13.8 100.7 13.2 101 12.3 Z M 94.7 9.2 C 94.7 9.2 101.1 9.2 101.1 9.2 C 101 8.3 100.7 7.5 100.3 7.1 C 99.7 6.3 98.9 5.9 97.9 5.9 C 97 5.9 96.3 6.2 95.7 6.8 C 95.1 7.4 94.8 8.2 94.7 9.2 Z M 105.4 16 L 105.4 4.6 L 107.2 4.6 C 107.2 4.6 107.18 6.34 107.2 6.3 C 107.6 5.5 108 5 108.4 4.7 C 108.8 4.5 109.2 4.4 109.7 4.4 C 110.3 4.4 111 4.6 111.6 5 C 111.6 5 111 6.8 111 6.8 C 110.5 6.5 110 6.3 109.6 6.3 C 109.1 6.3 108.8 6.5 108.4 6.7 C 108.1 7 107.8 7.3 107.7 7.8 C 107.5 8.5 107.4 9.2 107.4 10 C 107.37 10.04 107.4 16 107.4 16 L 105.4 16 Z M 114.1 20.6 C 114.1 20.6 112.7 20.6 112.7 20.6 C 114.8 17.2 115.9 13.8 115.9 10.3 C 115.9 9 115.7 7.6 115.4 6.3 C 115.2 5.2 114.8 4.2 114.4 3.2 C 114.1 2.6 113.5 1.5 112.7 0 C 112.7 0 114.1 0 114.1 0 C 115.4 1.8 116.4 3.6 117 5.4 C 117.6 7 117.9 8.6 117.9 10.3 C 117.9 12.2 117.5 14.1 116.8 15.9 C 116 17.7 115.1 19.3 114.1 20.6 Z " stroke="none" fill="#000"/>  </g></svg>