<?xml version="1.0" standalone="no"?><!DOCTYPE svg PUBLIC "-//W3C//DTD SVG 1.1//EN" "http://www.w3.org/Graphics/SVG/1.1/DTD/svg11.dtd"><svg xmlns="http://www.w3.org/2000/svg" version="1.1" width="421.4px" height="82.7px" viewBox="0 -8 421.4 82.7" style="top:-8px">  <desc>Tier 3 Advanced Tech Stack</desc>  <defs/>  <g id="Polygon6885">    <path d="M 100.4 49.6 L 94.3 49.6 L 93.3 52.6 L 90 52.6 L 95.6 37.2 L 99.1 37.2 L 104.7 52.6 L 101.4 52.6 L 100.4 49.6 Z M 99.6 47.2 L 97.3 40.7 L 95.1 47.2 L 99.6 47.2 Z M 105.9 46.4 C 105.9 45.2 106.2 44.1 106.7 43.1 C 107.2 42.2 107.8 41.5 108.7 40.9 C 109.5 40.4 110.5 40.2 111.5 40.2 C 112.3 40.2 113.1 40.3 113.8 40.7 C 114.5 41 115.1 41.5 115.5 42.1 C 115.5 42.07 115.5 36.3 115.5 36.3 L 118.6 36.3 L 118.6 52.6 L 115.5 52.6 C 115.5 52.6 115.5 50.76 115.5 50.8 C 115.1 51.4 114.6 51.8 113.9 52.2 C 113.2 52.6 112.4 52.8 111.5 52.8 C 110.5 52.8 109.5 52.5 108.7 52 C 107.8 51.4 107.2 50.7 106.7 49.7 C 106.2 48.8 105.9 47.7 105.9 46.4 C 105.9 46.4 105.9 46.4 105.9 46.4 Z M 115.5 46.5 C 115.5 45.7 115.4 45.1 115.1 44.5 C 114.8 44 114.4 43.6 113.9 43.3 C 113.4 43 112.9 42.9 112.3 42.9 C 111.7 42.9 111.2 43 110.7 43.3 C 110.2 43.6 109.8 44 109.5 44.5 C 109.2 45.1 109.1 45.7 109.1 46.4 C 109.1 47.2 109.2 47.8 109.5 48.3 C 109.8 48.9 110.2 49.3 110.7 49.6 C 111.2 49.9 111.7 50.1 112.3 50.1 C 112.9 50.1 113.4 49.9 113.9 49.6 C 114.4 49.3 114.8 48.9 115.1 48.4 C 115.4 47.9 115.5 47.2 115.5 46.5 C 115.5 46.5 115.5 46.5 115.5 46.5 Z M 126.7 49.7 L 129.8 40.4 L 133.1 40.4 L 128.6 52.6 L 124.8 52.6 L 120.3 40.4 L 123.6 40.4 L 126.7 49.7 Z M 134 46.4 C 134 45.2 134.3 44.1 134.8 43.1 C 135.3 42.2 135.9 41.5 136.8 40.9 C 137.6 40.4 138.6 40.2 139.6 40.2 C 140.5 40.2 141.3 40.4 142 40.7 C 142.7 41.1 143.2 41.6 143.6 42.1 C 143.62 42.11 143.6 40.4 143.6 40.4 L 146.7 40.4 L 146.7 52.6 L 143.6 52.6 C 143.6 52.6 143.62 50.78 143.6 50.8 C 143.2 51.4 142.7 51.8 142 52.2 C 141.3 52.6 140.5 52.8 139.6 52.8 C 138.5 52.8 137.6 52.5 136.8 52 C 135.9 51.4 135.3 50.7 134.8 49.7 C 134.3 48.8 134 47.7 134 46.4 C 134 46.4 134 46.4 134 46.4 Z M 143.6 46.5 C 143.6 45.7 143.5 45.1 143.2 44.5 C 142.9 44 142.5 43.6 142 43.3 C 141.5 43 141 42.9 140.4 42.9 C 139.8 42.9 139.3 43 138.8 43.3 C 138.3 43.6 137.9 44 137.6 44.5 C 137.3 45.1 137.2 45.7 137.2 46.4 C 137.2 47.2 137.3 47.8 137.6 48.3 C 137.9 48.9 138.3 49.3 138.8 49.6 C 139.3 49.9 139.8 50.1 140.4 50.1 C 141 50.1 141.5 49.9 142 49.6 C 142.5 49.3 142.9 48.9 143.2 48.4 C 143.5 47.9 143.6 47.2 143.6 46.5 C 143.6 46.5 143.6 46.5 143.6 46.5 Z M 156.5 40.2 C 157.9 40.2 159.1 40.7 160 41.6 C 160.9 42.5 161.4 43.8 161.4 45.4 C 161.35 45.41 161.4 52.6 161.4 52.6 L 158.3 52.6 C 158.3 52.6 158.27 45.83 158.3 45.8 C 158.3 44.9 158 44.1 157.5 43.6 C 157.1 43.1 156.4 42.8 155.6 42.8 C 154.7 42.8 154 43.1 153.6 43.6 C 153.1 44.1 152.8 44.9 152.8 45.8 C 152.82 45.83 152.8 52.6 152.8 52.6 L 149.7 52.6 L 149.7 40.4 L 152.8 40.4 C 152.8 40.4 152.82 41.89 152.8 41.9 C 153.2 41.4 153.8 41 154.4 40.6 C 155 40.3 155.7 40.2 156.5 40.2 C 156.5 40.2 156.5 40.2 156.5 40.2 Z M 163.5 46.5 C 163.5 45.2 163.7 44.1 164.3 43.2 C 164.8 42.2 165.5 41.5 166.4 41 C 167.3 40.4 168.3 40.2 169.5 40.2 C 171 40.2 172.3 40.6 173.3 41.3 C 174.3 42.1 174.9 43.1 175.3 44.5 C 175.3 44.5 171.9 44.5 171.9 44.5 C 171.8 44 171.5 43.5 171 43.2 C 170.6 42.9 170.1 42.8 169.5 42.8 C 168.6 42.8 167.9 43.1 167.4 43.8 C 166.9 44.4 166.6 45.3 166.6 46.5 C 166.6 47.6 166.9 48.5 167.4 49.2 C 167.9 49.8 168.6 50.1 169.5 50.1 C 170.7 50.1 171.6 49.6 171.9 48.4 C 171.9 48.4 175.3 48.4 175.3 48.4 C 174.9 49.8 174.3 50.8 173.3 51.6 C 172.3 52.4 171 52.8 169.5 52.8 C 168.3 52.8 167.3 52.5 166.4 52 C 165.5 51.5 164.8 50.7 164.3 49.8 C 163.7 48.8 163.5 47.7 163.5 46.5 C 163.5 46.5 163.5 46.5 163.5 46.5 Z M 188.9 46.2 C 188.9 46.6 188.8 47 188.8 47.4 C 188.8 47.4 179.9 47.4 179.9 47.4 C 179.9 48.3 180.2 49 180.8 49.5 C 181.3 50 182 50.2 182.8 50.2 C 183.9 50.2 184.7 49.7 185.2 48.7 C 185.2 48.7 188.5 48.7 188.5 48.7 C 188.2 49.9 187.5 50.9 186.5 51.6 C 185.5 52.4 184.3 52.8 182.8 52.8 C 181.7 52.8 180.6 52.5 179.7 52 C 178.8 51.5 178 50.7 177.5 49.8 C 177 48.8 176.7 47.7 176.7 46.5 C 176.7 45.2 177 44.1 177.5 43.1 C 178 42.2 178.7 41.5 179.7 40.9 C 180.6 40.4 181.6 40.2 182.8 40.2 C 184 40.2 185 40.4 186 40.9 C 186.9 41.4 187.6 42.1 188.1 43 C 188.6 44 188.9 45 188.9 46.2 C 188.9 46.2 188.9 46.2 188.9 46.2 Z M 185.7 45.3 C 185.6 44.5 185.4 43.9 184.8 43.4 C 184.2 42.9 183.6 42.7 182.8 42.7 C 182 42.7 181.4 42.9 180.8 43.4 C 180.3 43.9 180 44.5 179.9 45.3 C 179.9 45.3 185.7 45.3 185.7 45.3 Z M 190.3 46.4 C 190.3 45.2 190.5 44.1 191 43.1 C 191.5 42.2 192.2 41.5 193.1 40.9 C 193.9 40.4 194.9 40.2 195.9 40.2 C 196.7 40.2 197.4 40.3 198.2 40.7 C 198.9 41 199.4 41.5 199.9 42.1 C 199.87 42.07 199.9 36.3 199.9 36.3 L 203 36.3 L 203 52.6 L 199.9 52.6 C 199.9 52.6 199.87 50.76 199.9 50.8 C 199.5 51.4 199 51.8 198.3 52.2 C 197.6 52.6 196.8 52.8 195.9 52.8 C 194.8 52.8 193.9 52.5 193.1 52 C 192.2 51.4 191.5 50.7 191 49.7 C 190.5 48.8 190.3 47.7 190.3 46.4 C 190.3 46.4 190.3 46.4 190.3 46.4 Z M 199.9 46.5 C 199.9 45.7 199.7 45.1 199.5 44.5 C 199.2 44 198.8 43.6 198.3 43.3 C 197.8 43 197.2 42.9 196.7 42.9 C 196.1 42.9 195.6 43 195.1 43.3 C 194.6 43.6 194.2 44 193.9 44.5 C 193.6 45.1 193.5 45.7 193.5 46.4 C 193.5 47.2 193.6 47.8 193.9 48.3 C 194.2 48.9 194.6 49.3 195.1 49.6 C 195.6 49.9 196.1 50.1 196.7 50.1 C 197.2 50.1 197.8 49.9 198.3 49.6 C 198.8 49.3 199.2 48.9 199.5 48.4 C 199.7 47.9 199.9 47.2 199.9 46.5 C 199.9 46.5 199.9 46.5 199.9 46.5 Z M 221.7 37.2 L 221.7 39.7 L 217.6 39.7 L 217.6 52.6 L 214.5 52.6 L 214.5 39.7 L 210.4 39.7 L 210.4 37.2 L 221.7 37.2 Z M 235.3 46.2 C 235.3 46.6 235.2 47 235.2 47.4 C 235.2 47.4 226.3 47.4 226.3 47.4 C 226.3 48.3 226.7 49 227.2 49.5 C 227.7 50 228.4 50.2 229.2 50.2 C 230.3 50.2 231.2 49.7 231.6 48.7 C 231.6 48.7 235 48.7 235 48.7 C 234.6 49.9 233.9 50.9 232.9 51.6 C 231.9 52.4 230.7 52.8 229.3 52.8 C 228.1 52.8 227 52.5 226.1 52 C 225.2 51.5 224.5 50.7 223.9 49.8 C 223.4 48.8 223.1 47.7 223.1 46.5 C 223.1 45.2 223.4 44.1 223.9 43.1 C 224.4 42.2 225.2 41.5 226.1 40.9 C 227 40.4 228.1 40.2 229.3 40.2 C 230.4 40.2 231.5 40.4 232.4 40.9 C 233.3 41.4 234 42.1 234.5 43 C 235 44 235.3 45 235.3 46.2 C 235.3 46.2 235.3 46.2 235.3 46.2 Z M 232.1 45.3 C 232.1 44.5 231.8 43.9 231.2 43.4 C 230.7 42.9 230 42.7 229.2 42.7 C 228.4 42.7 227.8 42.9 227.3 43.4 C 226.7 43.9 226.4 44.5 226.3 45.3 C 226.3 45.3 232.1 45.3 232.1 45.3 Z M 236.7 46.5 C 236.7 45.2 237 44.1 237.5 43.2 C 238 42.2 238.7 41.5 239.6 41 C 240.5 40.4 241.6 40.2 242.8 40.2 C 244.3 40.2 245.5 40.6 246.5 41.3 C 247.5 42.1 248.2 43.1 248.5 44.5 C 248.5 44.5 245.2 44.5 245.2 44.5 C 245 44 244.7 43.5 244.3 43.2 C 243.9 42.9 243.3 42.8 242.7 42.8 C 241.8 42.8 241.2 43.1 240.6 43.8 C 240.1 44.4 239.9 45.3 239.9 46.5 C 239.9 47.6 240.1 48.5 240.6 49.2 C 241.2 49.8 241.8 50.1 242.7 50.1 C 244 50.1 244.8 49.6 245.2 48.4 C 245.2 48.4 248.5 48.4 248.5 48.4 C 248.2 49.8 247.5 50.8 246.5 51.6 C 245.5 52.4 244.2 52.8 242.8 52.8 C 241.6 52.8 240.5 52.5 239.6 52 C 238.7 51.5 238 50.7 237.5 49.8 C 237 48.8 236.7 47.7 236.7 46.5 C 236.7 46.5 236.7 46.5 236.7 46.5 Z M 257.6 40.2 C 258.5 40.2 259.4 40.4 260.1 40.8 C 260.8 41.2 261.4 41.8 261.8 42.6 C 262.2 43.4 262.4 44.3 262.4 45.4 C 262.38 45.41 262.4 52.6 262.4 52.6 L 259.3 52.6 C 259.3 52.6 259.3 45.83 259.3 45.8 C 259.3 44.9 259.1 44.1 258.6 43.6 C 258.1 43.1 257.4 42.8 256.6 42.8 C 255.7 42.8 255.1 43.1 254.6 43.6 C 254.1 44.1 253.8 44.9 253.8 45.8 C 253.84 45.83 253.8 52.6 253.8 52.6 L 250.8 52.6 L 250.8 36.3 L 253.8 36.3 C 253.8 36.3 253.84 41.89 253.8 41.9 C 254.2 41.4 254.8 41 255.4 40.6 C 256.1 40.3 256.8 40.2 257.6 40.2 C 257.6 40.2 257.6 40.2 257.6 40.2 Z M 275.8 52.7 C 274.8 52.7 273.8 52.5 272.9 52.2 C 272.1 51.8 271.4 51.3 270.9 50.6 C 270.4 49.9 270.2 49.1 270.1 48.1 C 270.1 48.1 273.4 48.1 273.4 48.1 C 273.5 48.8 273.7 49.3 274.1 49.6 C 274.5 50 275.1 50.2 275.8 50.2 C 276.5 50.2 277.1 50 277.5 49.7 C 277.9 49.3 278.1 48.9 278.1 48.3 C 278.1 47.9 277.9 47.5 277.7 47.2 C 277.4 46.9 277 46.7 276.6 46.5 C 276.2 46.3 275.6 46.1 274.9 45.9 C 273.9 45.6 273.1 45.4 272.5 45.1 C 271.8 44.8 271.3 44.4 270.9 43.8 C 270.4 43.2 270.2 42.4 270.2 41.5 C 270.2 40.5 270.4 39.8 270.9 39.1 C 271.3 38.4 272 37.9 272.8 37.5 C 273.6 37.2 274.5 37 275.6 37 C 277.2 37 278.5 37.4 279.5 38.1 C 280.4 38.9 281 40 281.1 41.4 C 281.1 41.4 277.7 41.4 277.7 41.4 C 277.7 40.8 277.5 40.4 277 40.1 C 276.6 39.7 276.1 39.5 275.4 39.5 C 274.8 39.5 274.3 39.7 273.9 40 C 273.6 40.3 273.4 40.8 273.4 41.3 C 273.4 41.8 273.5 42.1 273.8 42.4 C 274.1 42.6 274.4 42.9 274.8 43 C 275.2 43.2 275.8 43.4 276.5 43.6 C 277.5 43.9 278.3 44.2 279 44.5 C 279.6 44.8 280.1 45.2 280.6 45.8 C 281 46.4 281.3 47.2 281.3 48.1 C 281.3 48.9 281.1 49.7 280.6 50.4 C 280.2 51.1 279.6 51.7 278.8 52.1 C 277.9 52.5 277 52.7 275.8 52.7 C 275.8 52.7 275.8 52.7 275.8 52.7 Z M 287.5 42.9 C 287.5 42.9 287.52 48.8 287.5 48.8 C 287.5 49.2 287.6 49.5 287.8 49.7 C 288 49.9 288.3 50 288.8 50 C 288.82 49.97 290.2 50 290.2 50 L 290.2 52.6 C 290.2 52.6 288.31 52.56 288.3 52.6 C 285.7 52.6 284.4 51.3 284.4 48.8 C 284.42 48.78 284.4 42.9 284.4 42.9 L 283 42.9 L 283 40.4 L 284.4 40.4 L 284.4 37.4 L 287.5 37.4 L 287.5 40.4 L 290.2 40.4 L 290.2 42.9 L 287.5 42.9 Z M 291.7 46.4 C 291.7 45.2 291.9 44.1 292.4 43.1 C 292.9 42.2 293.6 41.5 294.4 40.9 C 295.3 40.4 296.2 40.2 297.2 40.2 C 298.2 40.2 298.9 40.4 299.6 40.7 C 300.3 41.1 300.9 41.6 301.3 42.1 C 301.27 42.11 301.3 40.4 301.3 40.4 L 304.4 40.4 L 304.4 52.6 L 301.3 52.6 C 301.3 52.6 301.27 50.78 301.3 50.8 C 300.9 51.4 300.3 51.8 299.6 52.2 C 298.9 52.6 298.1 52.8 297.2 52.8 C 296.2 52.8 295.3 52.5 294.4 52 C 293.6 51.4 292.9 50.7 292.4 49.7 C 291.9 48.8 291.7 47.7 291.7 46.4 C 291.7 46.4 291.7 46.4 291.7 46.4 Z M 301.3 46.5 C 301.3 45.7 301.1 45.1 300.8 44.5 C 300.5 44 300.1 43.6 299.6 43.3 C 299.1 43 298.6 42.9 298 42.9 C 297.5 42.9 296.9 43 296.5 43.3 C 296 43.6 295.6 44 295.3 44.5 C 295 45.1 294.8 45.7 294.8 46.4 C 294.8 47.2 295 47.8 295.3 48.3 C 295.6 48.9 296 49.3 296.5 49.6 C 297 49.9 297.5 50.1 298 50.1 C 298.6 50.1 299.1 49.9 299.6 49.6 C 300.1 49.3 300.5 48.9 300.8 48.4 C 301.1 47.9 301.3 47.2 301.3 46.5 C 301.3 46.5 301.3 46.5 301.3 46.5 Z M 306.6 46.5 C 306.6 45.2 306.9 44.1 307.4 43.2 C 307.9 42.2 308.6 41.5 309.5 41 C 310.4 40.4 311.4 40.2 312.6 40.2 C 314.1 40.2 315.4 40.6 316.4 41.3 C 317.4 42.1 318 43.1 318.4 44.5 C 318.4 44.5 315 44.5 315 44.5 C 314.9 44 314.6 43.5 314.2 43.2 C 313.7 42.9 313.2 42.8 312.6 42.8 C 311.7 42.8 311 43.1 310.5 43.8 C 310 44.4 309.7 45.3 309.7 46.5 C 309.7 47.6 310 48.5 310.5 49.2 C 311 49.8 311.7 50.1 312.6 50.1 C 313.8 50.1 314.7 49.6 315 48.4 C 315 48.4 318.4 48.4 318.4 48.4 C 318 49.8 317.4 50.8 316.4 51.6 C 315.4 52.4 314.1 52.8 312.6 52.8 C 311.4 52.8 310.4 52.5 309.5 52 C 308.6 51.5 307.9 50.7 307.4 49.8 C 306.9 48.8 306.6 47.7 306.6 46.5 C 306.6 46.5 306.6 46.5 306.6 46.5 Z M 327.8 52.6 L 323.7 47.4 L 323.7 52.6 L 320.6 52.6 L 320.6 36.3 L 323.7 36.3 L 323.7 45.5 L 327.8 40.4 L 331.8 40.4 L 326.4 46.5 L 331.9 52.6 L 327.8 52.6 Z " stroke="none" fill="#ffffff"/>  </g>  <g id="Polygon6884">    <path d="M 186.9 1.5 L 186.9 3 L 178.9 3 L 178.9 23.3 L 177.2 23.3 L 177.2 3 L 169.3 3 L 169.3 1.5 L 186.9 1.5 Z M 191.5 1.5 L 191.5 23.3 L 189.8 23.3 L 189.8 1.5 L 191.5 1.5 Z M 208 1.5 L 208 3 L 198.1 3 L 198.1 11.6 L 207.7 11.6 L 207.7 13.1 L 198.1 13.1 L 198.1 21.8 L 208.2 21.8 L 208.2 23.3 L 196.5 23.3 L 196.5 1.5 L 208 1.5 Z M 211.9 1.5 C 211.9 1.5 217.43 1.5 217.4 1.5 C 221.8 1.5 224.1 3.7 224.1 7.2 C 224.1 10 222.4 11.9 219.5 12.5 C 221 13.2 221.7 13.8 223.1 16.1 C 223.12 16.06 227.8 23.3 227.8 23.3 L 225.7 23.3 C 225.7 23.3 221.56 16.64 221.6 16.6 C 219.7 13.7 218.4 13 216.2 13 C 216.24 13.02 213.6 13 213.6 13 L 213.6 23.3 L 211.9 23.3 L 211.9 1.5 Z M 216.1 11.5 C 219.8 11.5 222.4 10.6 222.4 7.2 C 222.4 4 220.1 3 217 3 C 217.01 3.01 213.6 3 213.6 3 L 213.6 11.5 C 213.6 11.5 216.12 11.49 216.1 11.5 Z M 246.2 11.8 C 248.9 12.5 250.3 14.6 250.3 17.3 C 250.3 21.1 247.5 23.6 243.7 23.6 C 241.9 23.6 240.3 23.2 238.8 22.4 C 238.8 22.4 238.8 20.6 238.8 20.6 C 240.5 21.5 242 22 243.7 22 C 246.6 22 248.6 20.2 248.6 17.4 C 248.6 14.4 246.4 12.7 242.9 12.7 C 242.9 12.7 242.9 11.2 242.9 11.2 C 246.4 11.2 248.3 9.5 248.3 6.8 C 248.3 4.5 246.5 2.7 243.6 2.7 C 241.6 2.7 240.4 3.2 239.1 4 C 239.1 4 239.1 2.4 239.1 2.4 C 240.7 1.5 242 1.2 243.8 1.2 C 247.4 1.2 250 3.5 250 6.7 C 250 9.1 248.6 11 246.2 11.8 Z " stroke="none" fill="#ffffff"/>  </g></svg>