<?xml version="1.0" standalone="no"?><!DOCTYPE svg PUBLIC "-//W3C//DTD SVG 1.1//EN" "http://www.w3.org/Graphics/SVG/1.1/DTD/svg11.dtd"><svg xmlns="http://www.w3.org/2000/svg" version="1.1" width="151px" height="35.6px" viewBox="0 -7 151 35.6" style="top:-7px">  <desc>(Paid Features)</desc>  <defs/>  <g id="Polygon7714">    <path d="M 5.1 20.6 C 4.1 19.3 3.2 17.7 2.4 15.9 C 1.7 14.1 1.3 12.2 1.3 10.3 C 1.3 8.6 1.6 7 2.2 5.4 C 2.8 3.6 3.8 1.8 5.1 0 C 5.1 0 6.5 0 6.5 0 C 5.7 1.5 5.1 2.6 4.8 3.2 C 4.4 4.2 4 5.2 3.8 6.3 C 3.5 7.6 3.3 9 3.3 10.3 C 3.3 13.8 4.4 17.2 6.5 20.6 C 6.5 20.6 5.1 20.6 5.1 20.6 Z M 9 16 L 9 0.3 C 9 0.3 14.96 0.27 15 0.3 C 16 0.3 16.8 0.3 17.4 0.4 C 18.1 0.5 18.8 0.8 19.3 1.2 C 19.8 1.5 20.2 2 20.6 2.7 C 20.9 3.3 21 4 21 4.8 C 21 6.2 20.6 7.3 19.8 8.2 C 18.9 9.2 17.4 9.6 15.1 9.6 C 15.15 9.61 11.1 9.6 11.1 9.6 L 11.1 16 L 9 16 Z M 11.1 7.8 C 11.1 7.8 15.18 7.76 15.2 7.8 C 16.5 7.8 17.5 7.5 18 7 C 18.6 6.5 18.9 5.8 18.9 4.9 C 18.9 4.2 18.7 3.7 18.4 3.2 C 18.1 2.7 17.6 2.4 17.1 2.3 C 16.7 2.2 16.1 2.1 15.1 2.1 C 15.14 2.13 11.1 2.1 11.1 2.1 L 11.1 7.8 Z M 31.3 16 C 31.1 15.6 31 15.1 30.9 14.6 C 30.2 15.2 29.5 15.6 28.8 15.9 C 28.2 16.1 27.5 16.3 26.7 16.3 C 25.4 16.3 24.5 16 23.8 15.4 C 23.1 14.7 22.8 14 22.8 13 C 22.8 12.5 22.9 11.9 23.2 11.5 C 23.4 11 23.8 10.6 24.2 10.4 C 24.6 10.1 25.1 9.9 25.6 9.7 C 25.9 9.6 26.5 9.5 27.3 9.4 C 28.8 9.3 30 9 30.7 8.8 C 30.7 8.5 30.7 8.3 30.7 8.3 C 30.7 7.5 30.6 6.9 30.2 6.6 C 29.7 6.2 29 6 28 6 C 27.1 6 26.4 6.1 26 6.4 C 25.5 6.7 25.2 7.3 25 8.1 C 25 8.1 23.1 7.9 23.1 7.9 C 23.3 7.1 23.6 6.4 24 5.9 C 24.4 5.4 24.9 5 25.7 4.8 C 26.4 4.5 27.3 4.4 28.3 4.4 C 29.2 4.4 30 4.5 30.6 4.7 C 31.3 4.9 31.7 5.2 32 5.6 C 32.3 5.9 32.5 6.3 32.6 6.9 C 32.7 7.2 32.7 7.8 32.7 8.7 C 32.7 8.7 32.7 11.2 32.7 11.2 C 32.7 13 32.7 14.2 32.8 14.6 C 32.9 15.1 33.1 15.6 33.3 16 C 33.3 16.02 31.3 16 31.3 16 C 31.3 16 31.28 16.02 31.3 16 Z M 30.7 10.3 C 30 10.6 29 10.8 27.6 11 C 26.8 11.1 26.2 11.3 25.9 11.4 C 25.6 11.6 25.3 11.8 25.1 12 C 24.9 12.3 24.9 12.6 24.9 13 C 24.9 13.5 25.1 13.9 25.4 14.2 C 25.8 14.6 26.4 14.8 27.2 14.8 C 27.9 14.8 28.6 14.6 29.1 14.3 C 29.7 13.9 30.1 13.5 30.4 12.9 C 30.6 12.5 30.7 11.9 30.7 11 C 30.7 11 30.7 10.3 30.7 10.3 Z M 35.7 2.5 L 35.7 0.3 L 37.6 0.3 L 37.6 2.5 L 35.7 2.5 Z M 35.7 16 L 35.7 4.6 L 37.6 4.6 L 37.6 16 L 35.7 16 Z M 48 16 C 48 16 47.97 14.58 48 14.6 C 47.3 15.7 46.2 16.3 44.8 16.3 C 43.9 16.3 43 16 42.3 15.5 C 41.5 15 40.9 14.3 40.5 13.4 C 40.1 12.5 39.9 11.5 39.9 10.3 C 39.9 9.2 40.1 8.2 40.4 7.2 C 40.8 6.3 41.4 5.6 42.2 5.1 C 42.9 4.6 43.8 4.4 44.7 4.4 C 45.4 4.4 46 4.5 46.5 4.8 C 47.1 5.1 47.5 5.5 47.8 5.9 C 47.85 5.92 47.8 0.3 47.8 0.3 L 49.8 0.3 L 49.8 16 L 48 16 Z M 41.9 10.3 C 41.9 11.8 42.2 12.9 42.8 13.6 C 43.4 14.3 44.1 14.7 45 14.7 C 45.8 14.7 46.5 14.3 47.1 13.6 C 47.7 13 48 11.9 48 10.5 C 48 8.9 47.7 7.8 47.1 7 C 46.5 6.3 45.8 6 44.9 6 C 44 6 43.3 6.3 42.7 7 C 42.2 7.7 41.9 8.8 41.9 10.3 Z M 58.4 16 L 58.4 0.3 L 69 0.3 L 69 2.1 L 60.4 2.1 L 60.4 7 L 67.8 7 L 67.8 8.9 L 60.4 8.9 L 60.4 16 L 58.4 16 Z M 79.2 12.3 C 79.2 12.3 81.2 12.6 81.2 12.6 C 80.9 13.8 80.3 14.7 79.5 15.3 C 78.6 16 77.6 16.3 76.2 16.3 C 74.6 16.3 73.2 15.8 72.3 14.7 C 71.3 13.7 70.8 12.3 70.8 10.4 C 70.8 8.5 71.3 7 72.3 5.9 C 73.3 4.9 74.5 4.4 76.1 4.4 C 77.6 4.4 78.9 4.9 79.9 5.9 C 80.8 6.9 81.3 8.4 81.3 10.3 C 81.3 10.4 81.3 10.6 81.3 10.8 C 81.3 10.8 72.8 10.8 72.8 10.8 C 72.9 12.1 73.2 13 73.9 13.7 C 74.5 14.4 75.3 14.7 76.2 14.7 C 76.9 14.7 77.6 14.5 78.1 14.1 C 78.6 13.8 79 13.2 79.2 12.3 Z M 72.9 9.2 C 72.9 9.2 79.3 9.2 79.3 9.2 C 79.2 8.3 78.9 7.5 78.5 7.1 C 77.9 6.3 77.1 5.9 76.1 5.9 C 75.3 5.9 74.5 6.2 73.9 6.8 C 73.3 7.4 73 8.2 72.9 9.2 Z M 91.5 16 C 91.3 15.6 91.2 15.1 91.1 14.6 C 90.4 15.2 89.7 15.6 89 15.9 C 88.4 16.1 87.7 16.3 86.9 16.3 C 85.7 16.3 84.7 16 84 15.4 C 83.4 14.7 83 14 83 13 C 83 12.5 83.1 11.9 83.4 11.5 C 83.7 11 84 10.6 84.4 10.4 C 84.8 10.1 85.3 9.9 85.8 9.7 C 86.2 9.6 86.7 9.5 87.5 9.4 C 89.1 9.3 90.2 9 91 8.8 C 91 8.5 91 8.3 91 8.3 C 91 7.5 90.8 6.9 90.4 6.6 C 89.9 6.2 89.2 6 88.2 6 C 87.3 6 86.6 6.1 86.2 6.4 C 85.8 6.7 85.4 7.3 85.2 8.1 C 85.2 8.1 83.4 7.9 83.4 7.9 C 83.5 7.1 83.8 6.4 84.2 5.9 C 84.6 5.4 85.2 5 85.9 4.8 C 86.7 4.5 87.5 4.4 88.5 4.4 C 89.5 4.4 90.3 4.5 90.9 4.7 C 91.5 4.9 91.9 5.2 92.2 5.6 C 92.5 5.9 92.7 6.3 92.8 6.9 C 92.9 7.2 92.9 7.8 92.9 8.7 C 92.9 8.7 92.9 11.2 92.9 11.2 C 92.9 13 93 14.2 93 14.6 C 93.1 15.1 93.3 15.6 93.5 16 C 93.52 16.02 91.5 16 91.5 16 C 91.5 16 91.5 16.02 91.5 16 Z M 91 10.3 C 90.3 10.6 89.2 10.8 87.8 11 C 87 11.1 86.4 11.3 86.1 11.4 C 85.8 11.6 85.5 11.8 85.3 12 C 85.2 12.3 85.1 12.6 85.1 13 C 85.1 13.5 85.3 13.9 85.7 14.2 C 86.1 14.6 86.6 14.8 87.4 14.8 C 88.1 14.8 88.8 14.6 89.4 14.3 C 89.9 13.9 90.4 13.5 90.6 12.9 C 90.9 12.5 91 11.9 91 11 C 91 11 91 10.3 91 10.3 Z M 99.3 14.4 C 99.5 14.4 99.8 14.3 100.1 14.3 C 100.1 14.3 100.4 16 100.4 16 C 99.9 16.1 99.4 16.2 98.9 16.2 C 98.2 16.2 97.7 16.1 97.3 15.8 C 96.9 15.6 96.7 15.3 96.5 15 C 96.3 14.6 96.3 13.8 96.3 12.7 C 96.26 12.68 96.3 6.1 96.3 6.1 L 94.8 6.1 L 94.8 4.6 L 96.3 4.6 L 96.3 1.8 L 98.2 0.6 L 98.2 4.6 L 100.1 4.6 L 100.1 6.1 L 98.2 6.1 C 98.2 6.1 98.19 12.78 98.2 12.8 C 98.2 13.3 98.2 13.7 98.3 13.8 C 98.4 14 98.5 14.1 98.6 14.2 C 98.8 14.3 99 14.4 99.3 14.4 C 99.3 14.4 99.3 14.4 99.3 14.4 Z M 109.5 16 C 109.5 16 109.5 14.34 109.5 14.3 C 108.6 15.6 107.4 16.3 105.9 16.3 C 105.2 16.3 104.6 16.1 104 15.9 C 103.4 15.6 103 15.3 102.7 14.9 C 102.4 14.5 102.2 14 102.1 13.5 C 102 13.1 102 12.5 102 11.7 C 101.98 11.68 102 4.6 102 4.6 L 103.9 4.6 C 103.9 4.6 103.91 10.94 103.9 10.9 C 103.9 11.9 104 12.6 104 13 C 104.2 13.5 104.4 13.9 104.8 14.2 C 105.2 14.5 105.7 14.6 106.3 14.6 C 106.8 14.6 107.4 14.5 107.9 14.2 C 108.4 13.9 108.8 13.5 109 12.9 C 109.2 12.4 109.3 11.7 109.3 10.7 C 109.29 10.72 109.3 4.6 109.3 4.6 L 111.2 4.6 L 111.2 16 L 109.5 16 Z M 114.2 16 L 114.2 4.6 L 116 4.6 C 116 4.6 115.97 6.34 116 6.3 C 116.4 5.5 116.8 5 117.2 4.7 C 117.6 4.5 118 4.4 118.4 4.4 C 119.1 4.4 119.8 4.6 120.4 5 C 120.4 5 119.8 6.8 119.8 6.8 C 119.3 6.5 118.8 6.3 118.3 6.3 C 117.9 6.3 117.5 6.5 117.2 6.7 C 116.9 7 116.6 7.3 116.5 7.8 C 116.3 8.5 116.2 9.2 116.2 10 C 116.17 10.04 116.2 16 116.2 16 L 114.2 16 Z M 129.4 12.3 C 129.4 12.3 131.4 12.6 131.4 12.6 C 131.1 13.8 130.5 14.7 129.6 15.3 C 128.8 16 127.7 16.3 126.4 16.3 C 124.7 16.3 123.4 15.8 122.4 14.7 C 121.4 13.7 120.9 12.3 120.9 10.4 C 120.9 8.5 121.4 7 122.4 5.9 C 123.4 4.9 124.7 4.4 126.3 4.4 C 127.8 4.4 129 4.9 130 5.9 C 131 6.9 131.5 8.4 131.5 10.3 C 131.5 10.4 131.5 10.6 131.4 10.8 C 131.4 10.8 122.9 10.8 122.9 10.8 C 123 12.1 123.4 13 124 13.7 C 124.6 14.4 125.4 14.7 126.4 14.7 C 127.1 14.7 127.7 14.5 128.2 14.1 C 128.7 13.8 129.1 13.2 129.4 12.3 Z M 123 9.2 C 123 9.2 129.4 9.2 129.4 9.2 C 129.3 8.3 129.1 7.5 128.7 7.1 C 128.1 6.3 127.3 5.9 126.3 5.9 C 125.4 5.9 124.7 6.2 124 6.8 C 123.4 7.4 123.1 8.2 123 9.2 Z M 133 12.6 C 133 12.6 135 12.3 135 12.3 C 135.1 13.1 135.4 13.7 135.9 14.1 C 136.3 14.5 137 14.7 137.9 14.7 C 138.8 14.7 139.5 14.5 139.9 14.1 C 140.3 13.8 140.5 13.4 140.5 12.9 C 140.5 12.4 140.3 12.1 140 11.8 C 139.7 11.7 139 11.4 138 11.2 C 136.6 10.8 135.6 10.5 135 10.3 C 134.5 10 134.1 9.6 133.8 9.2 C 133.5 8.7 133.4 8.2 133.4 7.6 C 133.4 7.1 133.5 6.7 133.7 6.2 C 133.9 5.8 134.3 5.4 134.7 5.1 C 135 4.9 135.4 4.7 135.9 4.6 C 136.4 4.4 137 4.4 137.6 4.4 C 138.5 4.4 139.2 4.5 139.9 4.7 C 140.6 5 141.1 5.3 141.4 5.8 C 141.7 6.2 142 6.8 142.1 7.6 C 142.1 7.6 140.2 7.8 140.2 7.8 C 140.1 7.2 139.9 6.8 139.5 6.4 C 139 6.1 138.5 5.9 137.7 5.9 C 136.8 5.9 136.2 6.1 135.8 6.4 C 135.4 6.7 135.2 7 135.2 7.4 C 135.2 7.7 135.3 7.9 135.5 8.1 C 135.6 8.3 135.9 8.5 136.2 8.6 C 136.4 8.7 137 8.8 137.9 9.1 C 139.3 9.5 140.2 9.8 140.8 10 C 141.3 10.2 141.7 10.6 142.1 11 C 142.4 11.5 142.5 12 142.5 12.7 C 142.5 13.3 142.3 13.9 142 14.5 C 141.6 15.1 141 15.5 140.3 15.8 C 139.6 16.1 138.8 16.3 137.9 16.3 C 136.4 16.3 135.3 16 134.5 15.4 C 133.8 14.7 133.3 13.8 133 12.6 Z M 146.1 20.6 C 146.1 20.6 144.7 20.6 144.7 20.6 C 146.8 17.2 147.9 13.8 147.9 10.3 C 147.9 9 147.8 7.6 147.4 6.3 C 147.2 5.2 146.9 4.2 146.4 3.2 C 146.1 2.6 145.6 1.5 144.7 0 C 144.7 0 146.1 0 146.1 0 C 147.4 1.8 148.4 3.6 149.1 5.4 C 149.6 7 149.9 8.6 149.9 10.3 C 149.9 12.2 149.5 14.1 148.8 15.9 C 148 17.7 147.1 19.3 146.1 20.6 Z " stroke="none" fill="#000"/>  </g></svg>