<?xml version="1.0" standalone="no"?><!DOCTYPE svg PUBLIC "-//W3C//DTD SVG 1.1//EN" "http://www.w3.org/Graphics/SVG/1.1/DTD/svg11.dtd"><svg xmlns="http://www.w3.org/2000/svg" version="1.1" width="49px" height="35.6px" viewBox="0 -7 49 35.6" style="top:-7px">  <desc>(Pro)</desc>  <defs/>  <g id="Polygon7533">    <path d="M 5.2 20.6 C 4.1 19.3 3.2 17.7 2.5 15.9 C 1.7 14.1 1.4 12.2 1.4 10.3 C 1.4 8.6 1.7 7 2.2 5.4 C 2.8 3.6 3.8 1.8 5.2 0 C 5.2 0 6.6 0 6.6 0 C 5.7 1.5 5.1 2.6 4.9 3.2 C 4.4 4.2 4.1 5.2 3.8 6.3 C 3.5 7.6 3.4 9 3.4 10.3 C 3.4 13.8 4.4 17.2 6.6 20.6 C 6.6 20.6 5.2 20.6 5.2 20.6 Z M 9.1 16 L 9.1 0.3 C 9.1 0.3 15.01 0.27 15 0.3 C 16.1 0.3 16.9 0.3 17.4 0.4 C 18.2 0.5 18.8 0.8 19.3 1.2 C 19.9 1.5 20.3 2 20.6 2.7 C 20.9 3.3 21.1 4 21.1 4.8 C 21.1 6.2 20.7 7.3 19.8 8.2 C 19 9.2 17.4 9.6 15.2 9.6 C 15.19 9.61 11.2 9.6 11.2 9.6 L 11.2 16 L 9.1 16 Z M 11.2 7.8 C 11.2 7.8 15.22 7.76 15.2 7.8 C 16.6 7.8 17.5 7.5 18.1 7 C 18.7 6.5 18.9 5.8 18.9 4.9 C 18.9 4.2 18.8 3.7 18.4 3.2 C 18.1 2.7 17.7 2.4 17.1 2.3 C 16.8 2.2 16.1 2.1 15.2 2.1 C 15.18 2.13 11.2 2.1 11.2 2.1 L 11.2 7.8 Z M 23.5 16 L 23.5 4.6 L 25.2 4.6 C 25.2 4.6 25.22 6.34 25.2 6.3 C 25.7 5.5 26.1 5 26.4 4.7 C 26.8 4.5 27.2 4.4 27.7 4.4 C 28.3 4.4 29 4.6 29.7 5 C 29.7 5 29 6.8 29 6.8 C 28.5 6.5 28.1 6.3 27.6 6.3 C 27.2 6.3 26.8 6.5 26.5 6.7 C 26.1 7 25.9 7.3 25.7 7.8 C 25.5 8.5 25.4 9.2 25.4 10 C 25.41 10.04 25.4 16 25.4 16 L 23.5 16 Z M 30.1 10.3 C 30.1 8.2 30.7 6.6 31.9 5.6 C 32.8 4.8 34 4.4 35.5 4.4 C 37 4.4 38.3 4.9 39.3 5.9 C 40.3 6.9 40.8 8.3 40.8 10.2 C 40.8 11.6 40.6 12.8 40.1 13.6 C 39.7 14.5 39 15.1 38.2 15.6 C 37.4 16 36.4 16.3 35.5 16.3 C 33.9 16.3 32.6 15.8 31.6 14.7 C 30.6 13.7 30.1 12.2 30.1 10.3 Z M 32.1 10.3 C 32.1 11.8 32.4 12.9 33 13.6 C 33.7 14.3 34.5 14.7 35.5 14.7 C 36.4 14.7 37.2 14.3 37.8 13.6 C 38.5 12.9 38.8 11.7 38.8 10.2 C 38.8 8.8 38.5 7.8 37.8 7 C 37.2 6.3 36.4 6 35.5 6 C 34.5 6 33.7 6.3 33 7 C 32.4 7.8 32.1 8.9 32.1 10.3 Z M 44.3 20.6 C 44.3 20.6 42.9 20.6 42.9 20.6 C 45.1 17.2 46.2 13.8 46.2 10.3 C 46.2 9 46 7.6 45.7 6.3 C 45.4 5.2 45.1 4.2 44.7 3.2 C 44.4 2.6 43.8 1.5 42.9 0 C 42.9 0 44.3 0 44.3 0 C 45.7 1.8 46.7 3.6 47.3 5.4 C 47.9 7 48.1 8.6 48.1 10.3 C 48.1 12.2 47.8 14.1 47 15.9 C 46.3 17.7 45.4 19.3 44.3 20.6 Z " stroke="none" fill="#000"/>  </g></svg>