<?xml version="1.0" standalone="no"?><!DOCTYPE svg PUBLIC "-//W3C//DTD SVG 1.1//EN" "http://www.w3.org/Graphics/SVG/1.1/DTD/svg11.dtd"><svg xmlns="http://www.w3.org/2000/svg" version="1.1" width="364px" height="139.6px" viewBox="0 -2 364 139.6" style="top:-2px">  <desc>Advanced Automation For more complex workflows and specialist integrations.</desc>  <defs/>  <g id="Polygon7590">    <path d="M 74.4 120.9 C 74.4 120.9 76.3 120.6 76.3 120.6 C 76.4 121.4 76.7 122 77.2 122.4 C 77.7 122.8 78.4 123 79.3 123 C 80.2 123 80.8 122.8 81.2 122.4 C 81.7 122.1 81.9 121.6 81.9 121.2 C 81.9 120.7 81.7 120.4 81.3 120.1 C 81.1 120 80.4 119.7 79.3 119.5 C 77.9 119.1 76.9 118.8 76.4 118.5 C 75.9 118.3 75.4 117.9 75.2 117.5 C 74.9 117 74.7 116.5 74.7 115.9 C 74.7 115.4 74.8 114.9 75.1 114.5 C 75.3 114.1 75.6 113.7 76 113.4 C 76.3 113.2 76.7 113 77.3 112.9 C 77.8 112.7 78.3 112.6 78.9 112.6 C 79.8 112.6 80.6 112.8 81.3 113 C 82 113.3 82.5 113.6 82.8 114.1 C 83.1 114.5 83.3 115.1 83.5 115.8 C 83.5 115.8 81.6 116.1 81.6 116.1 C 81.5 115.5 81.2 115.1 80.8 114.7 C 80.4 114.4 79.8 114.2 79.1 114.2 C 78.2 114.2 77.5 114.4 77.2 114.7 C 76.8 115 76.6 115.3 76.6 115.7 C 76.6 115.9 76.7 116.2 76.8 116.4 C 77 116.6 77.2 116.8 77.6 116.9 C 77.8 117 78.3 117.1 79.3 117.4 C 80.6 117.8 81.6 118 82.1 118.3 C 82.7 118.5 83.1 118.9 83.4 119.3 C 83.7 119.7 83.9 120.3 83.9 121 C 83.9 121.6 83.7 122.2 83.3 122.8 C 82.9 123.3 82.4 123.8 81.7 124.1 C 81 124.4 80.2 124.6 79.3 124.6 C 77.8 124.6 76.7 124.3 75.9 123.6 C 75.1 123 74.6 122.1 74.4 120.9 Z M 86.2 128.7 L 86.2 112.9 L 87.9 112.9 C 87.9 112.9 87.94 114.38 87.9 114.4 C 88.4 113.8 88.8 113.4 89.3 113.1 C 89.9 112.8 90.5 112.6 91.2 112.6 C 92.2 112.6 93.1 112.9 93.8 113.4 C 94.6 113.9 95.1 114.6 95.5 115.5 C 95.9 116.4 96.1 117.4 96.1 118.5 C 96.1 119.7 95.9 120.7 95.5 121.7 C 95 122.6 94.4 123.3 93.6 123.8 C 92.8 124.3 92 124.6 91.1 124.6 C 90.5 124.6 89.9 124.4 89.4 124.2 C 88.9 123.9 88.4 123.5 88.1 123.1 C 88.11 123.12 88.1 128.7 88.1 128.7 L 86.2 128.7 Z M 87.9 118.7 C 87.9 120.1 88.2 121.2 88.8 121.9 C 89.4 122.6 90.1 123 91 123 C 91.8 123 92.6 122.6 93.2 121.9 C 93.8 121.2 94.1 120 94.1 118.5 C 94.1 117 93.8 116 93.2 115.2 C 92.6 114.5 91.9 114.2 91.1 114.2 C 90.2 114.2 89.5 114.5 88.9 115.3 C 88.2 116.1 87.9 117.2 87.9 118.7 Z M 106.2 120.6 C 106.2 120.6 108.2 120.9 108.2 120.9 C 107.9 122 107.3 123 106.5 123.6 C 105.6 124.2 104.5 124.6 103.2 124.6 C 101.5 124.6 100.2 124 99.2 123 C 98.3 122 97.8 120.6 97.8 118.7 C 97.8 116.8 98.3 115.3 99.3 114.2 C 100.2 113.2 101.5 112.6 103.1 112.6 C 104.6 112.6 105.9 113.2 106.8 114.2 C 107.8 115.2 108.3 116.7 108.3 118.6 C 108.3 118.7 108.3 118.9 108.3 119.1 C 108.3 119.1 99.8 119.1 99.8 119.1 C 99.8 120.3 100.2 121.3 100.8 122 C 101.5 122.6 102.3 123 103.2 123 C 103.9 123 104.5 122.8 105 122.4 C 105.5 122 105.9 121.4 106.2 120.6 Z M 99.9 117.5 C 99.9 117.5 106.2 117.5 106.2 117.5 C 106.2 116.5 105.9 115.8 105.5 115.3 C 104.9 114.6 104.1 114.2 103.1 114.2 C 102.2 114.2 101.5 114.5 100.9 115.1 C 100.3 115.7 99.9 116.5 99.9 117.5 Z M 118.1 120.1 C 118.1 120.1 120 120.4 120 120.4 C 119.8 121.7 119.3 122.7 118.4 123.4 C 117.5 124.2 116.5 124.6 115.2 124.6 C 113.7 124.6 112.4 124.1 111.5 123 C 110.5 122 110.1 120.5 110.1 118.6 C 110.1 117.4 110.3 116.3 110.7 115.4 C 111.1 114.5 111.7 113.8 112.5 113.3 C 113.4 112.9 114.3 112.6 115.3 112.6 C 116.5 112.6 117.5 113 118.3 113.6 C 119.1 114.2 119.6 115.1 119.8 116.2 C 119.8 116.2 117.9 116.5 117.9 116.5 C 117.8 115.8 117.4 115.2 117 114.8 C 116.5 114.4 116 114.2 115.3 114.2 C 114.4 114.2 113.6 114.6 113 115.3 C 112.4 116 112 117.1 112 118.6 C 112 120.1 112.3 121.2 112.9 121.9 C 113.5 122.6 114.3 123 115.2 123 C 116 123 116.6 122.7 117.1 122.3 C 117.6 121.8 118 121.1 118.1 120.1 Z M 121.7 110.8 L 121.7 108.6 L 123.6 108.6 L 123.6 110.8 L 121.7 110.8 Z M 121.7 124.3 L 121.7 112.9 L 123.6 112.9 L 123.6 124.3 L 121.7 124.3 Z M 134.4 124.3 C 134.2 123.9 134 123.4 134 122.9 C 133.3 123.5 132.6 123.9 131.9 124.2 C 131.3 124.4 130.5 124.6 129.8 124.6 C 128.5 124.6 127.6 124.3 126.9 123.6 C 126.2 123 125.9 122.2 125.9 121.3 C 125.9 120.7 126 120.2 126.3 119.8 C 126.5 119.3 126.9 118.9 127.3 118.7 C 127.7 118.4 128.1 118.2 128.7 118 C 129 117.9 129.6 117.8 130.4 117.7 C 131.9 117.5 133.1 117.3 133.8 117.1 C 133.8 116.8 133.8 116.6 133.8 116.6 C 133.8 115.8 133.6 115.2 133.3 114.9 C 132.8 114.5 132.1 114.2 131.1 114.2 C 130.2 114.2 129.5 114.4 129.1 114.7 C 128.6 115 128.3 115.6 128.1 116.4 C 128.1 116.4 126.2 116.2 126.2 116.2 C 126.4 115.3 126.7 114.7 127.1 114.2 C 127.5 113.7 128 113.3 128.8 113 C 129.5 112.8 130.4 112.6 131.4 112.6 C 132.3 112.6 133.1 112.8 133.7 113 C 134.3 113.2 134.8 113.5 135.1 113.8 C 135.4 114.2 135.6 114.6 135.7 115.2 C 135.7 115.5 135.8 116.1 135.8 116.9 C 135.8 116.9 135.8 119.5 135.8 119.5 C 135.8 121.3 135.8 122.5 135.9 122.9 C 136 123.4 136.1 123.9 136.4 124.3 C 136.39 124.3 134.4 124.3 134.4 124.3 C 134.4 124.3 134.37 124.3 134.4 124.3 Z M 133.8 118.6 C 133.1 118.9 132.1 119.1 130.7 119.3 C 129.9 119.4 129.3 119.6 129 119.7 C 128.6 119.8 128.4 120 128.2 120.3 C 128 120.6 127.9 120.9 127.9 121.2 C 127.9 121.8 128.1 122.2 128.5 122.5 C 128.9 122.9 129.5 123 130.2 123 C 131 123 131.7 122.9 132.2 122.6 C 132.8 122.2 133.2 121.8 133.5 121.2 C 133.7 120.8 133.8 120.1 133.8 119.3 C 133.8 119.3 133.8 118.6 133.8 118.6 Z M 138.7 124.3 L 138.7 108.6 L 140.7 108.6 L 140.7 124.3 L 138.7 124.3 Z M 143.7 110.8 L 143.7 108.6 L 145.6 108.6 L 145.6 110.8 L 143.7 110.8 Z M 143.7 124.3 L 143.7 112.9 L 145.6 112.9 L 145.6 124.3 L 143.7 124.3 Z M 147.8 120.9 C 147.8 120.9 149.7 120.6 149.7 120.6 C 149.8 121.4 150.1 122 150.6 122.4 C 151.1 122.8 151.8 123 152.6 123 C 153.5 123 154.2 122.8 154.6 122.4 C 155 122.1 155.3 121.6 155.3 121.2 C 155.3 120.7 155.1 120.4 154.7 120.1 C 154.4 120 153.8 119.7 152.7 119.5 C 151.3 119.1 150.3 118.8 149.8 118.5 C 149.2 118.3 148.8 117.9 148.5 117.5 C 148.2 117 148.1 116.5 148.1 115.9 C 148.1 115.4 148.2 114.9 148.4 114.5 C 148.7 114.1 149 113.7 149.4 113.4 C 149.7 113.2 150.1 113 150.6 112.9 C 151.1 112.7 151.7 112.6 152.3 112.6 C 153.2 112.6 154 112.8 154.7 113 C 155.3 113.3 155.8 113.6 156.2 114.1 C 156.5 114.5 156.7 115.1 156.8 115.8 C 156.8 115.8 154.9 116.1 154.9 116.1 C 154.8 115.5 154.6 115.1 154.2 114.7 C 153.8 114.4 153.2 114.2 152.4 114.2 C 151.5 114.2 150.9 114.4 150.5 114.7 C 150.2 115 150 115.3 150 115.7 C 150 115.9 150 116.2 150.2 116.4 C 150.4 116.6 150.6 116.8 150.9 116.9 C 151.1 117 151.7 117.1 152.7 117.4 C 154 117.8 155 118 155.5 118.3 C 156.1 118.5 156.5 118.9 156.8 119.3 C 157.1 119.7 157.2 120.3 157.2 121 C 157.2 121.6 157.1 122.2 156.7 122.8 C 156.3 123.3 155.8 123.8 155.1 124.1 C 154.3 124.4 153.5 124.6 152.7 124.6 C 151.2 124.6 150 124.3 149.3 123.6 C 148.5 123 148 122.1 147.8 120.9 Z M 162.9 122.6 C 163.1 122.6 163.4 122.6 163.8 122.6 C 163.8 122.6 164 124.3 164 124.3 C 163.5 124.4 163 124.5 162.6 124.5 C 161.9 124.5 161.3 124.3 161 124.1 C 160.6 123.9 160.3 123.6 160.1 123.2 C 160 122.9 159.9 122.1 159.9 121 C 159.9 120.96 159.9 114.4 159.9 114.4 L 158.5 114.4 L 158.5 112.9 L 159.9 112.9 L 159.9 110.1 L 161.8 108.9 L 161.8 112.9 L 163.8 112.9 L 163.8 114.4 L 161.8 114.4 C 161.8 114.4 161.83 121.07 161.8 121.1 C 161.8 121.6 161.9 122 161.9 122.1 C 162 122.3 162.1 122.4 162.3 122.5 C 162.4 122.6 162.6 122.6 162.9 122.6 C 162.9 122.6 162.9 122.6 162.9 122.6 Z M 171.8 110.8 L 171.8 108.6 L 173.7 108.6 L 173.7 110.8 L 171.8 110.8 Z M 171.8 124.3 L 171.8 112.9 L 173.7 112.9 L 173.7 124.3 L 171.8 124.3 Z M 176.7 124.3 L 176.7 112.9 L 178.4 112.9 C 178.4 112.9 178.4 114.52 178.4 114.5 C 179.2 113.3 180.4 112.6 182 112.6 C 182.7 112.6 183.4 112.8 183.9 113 C 184.5 113.3 184.9 113.6 185.2 114 C 185.5 114.4 185.7 114.9 185.8 115.4 C 185.9 115.8 185.9 116.4 185.9 117.3 C 185.93 117.29 185.9 124.3 185.9 124.3 L 184 124.3 C 184 124.3 184 117.36 184 117.4 C 184 116.6 183.9 116 183.8 115.6 C 183.6 115.2 183.4 114.9 183 114.7 C 182.6 114.4 182.1 114.3 181.6 114.3 C 180.8 114.3 180.1 114.6 179.5 115.1 C 178.9 115.6 178.6 116.6 178.6 118.1 C 178.59 118.07 178.6 124.3 178.6 124.3 L 176.7 124.3 Z M 192.3 122.6 C 192.5 122.6 192.8 122.6 193.1 122.6 C 193.1 122.6 193.4 124.3 193.4 124.3 C 192.9 124.4 192.4 124.5 191.9 124.5 C 191.2 124.5 190.7 124.3 190.3 124.1 C 189.9 123.9 189.6 123.6 189.5 123.2 C 189.3 122.9 189.2 122.1 189.2 121 C 189.25 120.96 189.2 114.4 189.2 114.4 L 187.8 114.4 L 187.8 112.9 L 189.2 112.9 L 189.2 110.1 L 191.2 108.9 L 191.2 112.9 L 193.1 112.9 L 193.1 114.4 L 191.2 114.4 C 191.2 114.4 191.17 121.07 191.2 121.1 C 191.2 121.6 191.2 122 191.3 122.1 C 191.3 122.3 191.5 122.4 191.6 122.5 C 191.8 122.6 192 122.6 192.3 122.6 C 192.3 122.6 192.3 122.6 192.3 122.6 Z M 202.8 120.6 C 202.8 120.6 204.8 120.9 204.8 120.9 C 204.5 122 203.9 123 203.1 123.6 C 202.2 124.2 201.1 124.6 199.8 124.6 C 198.1 124.6 196.8 124 195.8 123 C 194.9 122 194.4 120.6 194.4 118.7 C 194.4 116.8 194.9 115.3 195.8 114.2 C 196.8 113.2 198.1 112.6 199.7 112.6 C 201.2 112.6 202.5 113.2 203.4 114.2 C 204.4 115.2 204.9 116.7 204.9 118.6 C 204.9 118.7 204.9 118.9 204.9 119.1 C 204.9 119.1 196.4 119.1 196.4 119.1 C 196.4 120.3 196.8 121.3 197.4 122 C 198.1 122.6 198.9 123 199.8 123 C 200.5 123 201.1 122.8 201.6 122.4 C 202.1 122 202.5 121.4 202.8 120.6 Z M 196.5 117.5 C 196.5 117.5 202.8 117.5 202.8 117.5 C 202.8 116.5 202.5 115.8 202.1 115.3 C 201.5 114.6 200.7 114.2 199.7 114.2 C 198.8 114.2 198.1 114.5 197.5 115.1 C 196.9 115.7 196.5 116.5 196.5 117.5 Z M 206.9 125.2 C 206.9 125.2 208.8 125.5 208.8 125.5 C 208.8 126.1 209.1 126.5 209.4 126.8 C 209.9 127.2 210.6 127.3 211.4 127.3 C 212.3 127.3 213 127.2 213.5 126.8 C 213.9 126.4 214.3 125.9 214.5 125.3 C 214.6 124.9 214.6 124.1 214.6 122.8 C 213.7 123.8 212.7 124.3 211.4 124.3 C 209.9 124.3 208.7 123.7 207.8 122.6 C 206.9 121.5 206.5 120.1 206.5 118.5 C 206.5 117.4 206.7 116.4 207.1 115.5 C 207.5 114.6 208.1 113.9 208.8 113.4 C 209.6 112.9 210.4 112.6 211.4 112.6 C 212.8 112.6 213.9 113.2 214.8 114.3 C 214.77 114.27 214.8 112.9 214.8 112.9 L 216.6 112.9 C 216.6 112.9 216.56 122.76 216.6 122.8 C 216.6 124.5 216.4 125.8 216 126.5 C 215.7 127.3 215.1 127.9 214.3 128.3 C 213.5 128.7 212.5 128.9 211.4 128.9 C 210 128.9 208.9 128.6 208.1 128 C 207.3 127.4 206.9 126.5 206.9 125.2 Z M 208.5 118.4 C 208.5 119.9 208.8 121 209.4 121.7 C 210 122.4 210.7 122.7 211.6 122.7 C 212.5 122.7 213.2 122.4 213.8 121.7 C 214.5 121 214.8 119.9 214.8 118.5 C 214.8 117.1 214.4 116 213.8 115.3 C 213.2 114.6 212.5 114.2 211.6 114.2 C 210.7 114.2 210 114.6 209.4 115.3 C 208.8 116 208.5 117 208.5 118.4 Z M 219.5 124.3 L 219.5 112.9 L 221.2 112.9 C 221.2 112.9 221.2 114.62 221.2 114.6 C 221.6 113.8 222.1 113.3 222.4 113 C 222.8 112.8 223.2 112.6 223.7 112.6 C 224.3 112.6 225 112.8 225.7 113.3 C 225.7 113.3 225 115.1 225 115.1 C 224.5 114.8 224 114.6 223.6 114.6 C 223.1 114.6 222.8 114.8 222.4 115 C 222.1 115.3 221.9 115.6 221.7 116.1 C 221.5 116.8 221.4 117.5 221.4 118.3 C 221.39 118.33 221.4 124.3 221.4 124.3 L 219.5 124.3 Z M 234.6 124.3 C 234.4 123.9 234.3 123.4 234.2 122.9 C 233.5 123.5 232.8 123.9 232.2 124.2 C 231.5 124.4 230.8 124.6 230 124.6 C 228.8 124.6 227.8 124.3 227.2 123.6 C 226.5 123 226.1 122.2 226.1 121.3 C 226.1 120.7 226.3 120.2 226.5 119.8 C 226.8 119.3 227.1 118.9 227.5 118.7 C 227.9 118.4 228.4 118.2 228.9 118 C 229.3 117.9 229.9 117.8 230.6 117.7 C 232.2 117.5 233.4 117.3 234.1 117.1 C 234.1 116.8 234.1 116.6 234.1 116.6 C 234.1 115.8 233.9 115.2 233.6 114.9 C 233.1 114.5 232.3 114.2 231.3 114.2 C 230.4 114.2 229.8 114.4 229.3 114.7 C 228.9 115 228.6 115.6 228.4 116.4 C 228.4 116.4 226.5 116.2 226.5 116.2 C 226.7 115.3 226.9 114.7 227.3 114.2 C 227.7 113.7 228.3 113.3 229 113 C 229.8 112.8 230.6 112.6 231.6 112.6 C 232.6 112.6 233.4 112.8 234 113 C 234.6 113.2 235.1 113.5 235.3 113.8 C 235.6 114.2 235.8 114.6 235.9 115.2 C 236 115.5 236 116.1 236 116.9 C 236 116.9 236 119.5 236 119.5 C 236 121.3 236.1 122.5 236.2 122.9 C 236.2 123.4 236.4 123.9 236.7 124.3 C 236.66 124.3 234.6 124.3 234.6 124.3 C 234.6 124.3 234.64 124.3 234.6 124.3 Z M 234.1 118.6 C 233.4 118.9 232.3 119.1 230.9 119.3 C 230.1 119.4 229.6 119.6 229.2 119.7 C 228.9 119.8 228.7 120 228.5 120.3 C 228.3 120.6 228.2 120.9 228.2 121.2 C 228.2 121.8 228.4 122.2 228.8 122.5 C 229.2 122.9 229.8 123 230.5 123 C 231.3 123 231.9 122.9 232.5 122.6 C 233.1 122.2 233.5 121.8 233.8 121.2 C 234 120.8 234.1 120.1 234.1 119.3 C 234.1 119.3 234.1 118.6 234.1 118.6 Z M 242.4 122.6 C 242.6 122.6 242.9 122.6 243.3 122.6 C 243.3 122.6 243.5 124.3 243.5 124.3 C 243 124.4 242.5 124.5 242.1 124.5 C 241.4 124.5 240.8 124.3 240.4 124.1 C 240.1 123.9 239.8 123.6 239.6 123.2 C 239.5 122.9 239.4 122.1 239.4 121 C 239.39 120.96 239.4 114.4 239.4 114.4 L 238 114.4 L 238 112.9 L 239.4 112.9 L 239.4 110.1 L 241.3 108.9 L 241.3 112.9 L 243.3 112.9 L 243.3 114.4 L 241.3 114.4 C 241.3 114.4 241.32 121.07 241.3 121.1 C 241.3 121.6 241.4 122 241.4 122.1 C 241.5 122.3 241.6 122.4 241.8 122.5 C 241.9 122.6 242.1 122.6 242.4 122.6 C 242.4 122.6 242.4 122.6 242.4 122.6 Z M 245.2 110.8 L 245.2 108.6 L 247.1 108.6 L 247.1 110.8 L 245.2 110.8 Z M 245.2 124.3 L 245.2 112.9 L 247.1 112.9 L 247.1 124.3 L 245.2 124.3 Z M 249.3 118.6 C 249.3 116.5 249.9 114.9 251.1 113.9 C 252.1 113.1 253.3 112.6 254.7 112.6 C 256.2 112.6 257.5 113.2 258.5 114.2 C 259.5 115.2 260 116.6 260 118.4 C 260 119.9 259.8 121.1 259.3 121.9 C 258.9 122.7 258.3 123.4 257.4 123.9 C 256.6 124.3 255.7 124.6 254.7 124.6 C 253.1 124.6 251.8 124 250.8 123 C 249.8 122 249.3 120.5 249.3 118.6 Z M 251.3 118.6 C 251.3 120.1 251.6 121.2 252.3 121.9 C 252.9 122.6 253.7 123 254.7 123 C 255.6 123 256.4 122.6 257.1 121.9 C 257.7 121.1 258 120 258 118.5 C 258 117.1 257.7 116.1 257.1 115.3 C 256.4 114.6 255.6 114.2 254.7 114.2 C 253.7 114.2 252.9 114.6 252.3 115.3 C 251.6 116 251.3 117.1 251.3 118.6 Z M 262.3 124.3 L 262.3 112.9 L 264 112.9 C 264 112.9 264.02 114.52 264 114.5 C 264.9 113.3 266.1 112.6 267.6 112.6 C 268.3 112.6 269 112.8 269.5 113 C 270.1 113.3 270.6 113.6 270.8 114 C 271.1 114.4 271.3 114.9 271.4 115.4 C 271.5 115.8 271.5 116.4 271.5 117.3 C 271.55 117.29 271.5 124.3 271.5 124.3 L 269.6 124.3 C 269.6 124.3 269.61 117.36 269.6 117.4 C 269.6 116.6 269.5 116 269.4 115.6 C 269.2 115.2 269 114.9 268.6 114.7 C 268.2 114.4 267.8 114.3 267.2 114.3 C 266.4 114.3 265.7 114.6 265.1 115.1 C 264.5 115.6 264.2 116.6 264.2 118.1 C 264.21 118.07 264.2 124.3 264.2 124.3 L 262.3 124.3 Z M 273.7 120.9 C 273.7 120.9 275.6 120.6 275.6 120.6 C 275.8 121.4 276.1 122 276.5 122.4 C 277 122.8 277.7 123 278.6 123 C 279.5 123 280.2 122.8 280.6 122.4 C 281 122.1 281.2 121.6 281.2 121.2 C 281.2 120.7 281 120.4 280.7 120.1 C 280.4 120 279.7 119.7 278.7 119.5 C 277.3 119.1 276.3 118.8 275.7 118.5 C 275.2 118.3 274.8 117.9 274.5 117.5 C 274.2 117 274.1 116.5 274.1 115.9 C 274.1 115.4 274.2 114.9 274.4 114.5 C 274.6 114.1 275 113.7 275.4 113.4 C 275.7 113.2 276.1 113 276.6 112.9 C 277.1 112.7 277.7 112.6 278.3 112.6 C 279.2 112.6 279.9 112.8 280.6 113 C 281.3 113.3 281.8 113.6 282.1 114.1 C 282.4 114.5 282.7 115.1 282.8 115.8 C 282.8 115.8 280.9 116.1 280.9 116.1 C 280.8 115.5 280.6 115.1 280.1 114.7 C 279.7 114.4 279.2 114.2 278.4 114.2 C 277.5 114.2 276.9 114.4 276.5 114.7 C 276.1 115 275.9 115.3 275.9 115.7 C 275.9 115.9 276 116.2 276.2 116.4 C 276.3 116.6 276.6 116.8 276.9 116.9 C 277.1 117 277.7 117.1 278.6 117.4 C 280 117.8 280.9 118 281.5 118.3 C 282 118.5 282.4 118.9 282.7 119.3 C 283.1 119.7 283.2 120.3 283.2 121 C 283.2 121.6 283 122.2 282.6 122.8 C 282.3 123.3 281.7 123.8 281 124.1 C 280.3 124.4 279.5 124.6 278.6 124.6 C 277.1 124.6 276 124.3 275.2 123.6 C 274.4 123 274 122.1 273.7 120.9 Z M 286.1 124.3 L 286.1 122.1 L 288.3 122.1 L 288.3 124.3 L 286.1 124.3 Z " stroke="none" fill="#000"/>  </g>  <g id="Polygon7589">    <path d="M 22.4 97.9 L 22.4 82.2 L 33 82.2 L 33 84 L 24.5 84 L 24.5 88.9 L 31.8 88.9 L 31.8 90.7 L 24.5 90.7 L 24.5 97.9 L 22.4 97.9 Z M 34.7 92.2 C 34.7 90.1 35.3 88.5 36.5 87.5 C 37.5 86.7 38.7 86.2 40.1 86.2 C 41.7 86.2 42.9 86.8 43.9 87.8 C 44.9 88.8 45.4 90.2 45.4 92 C 45.4 93.5 45.2 94.7 44.8 95.5 C 44.3 96.3 43.7 97 42.8 97.5 C 42 97.9 41.1 98.2 40.1 98.2 C 38.5 98.2 37.2 97.6 36.2 96.6 C 35.2 95.6 34.7 94.1 34.7 92.2 Z M 36.7 92.2 C 36.7 93.7 37 94.8 37.7 95.5 C 38.3 96.2 39.1 96.6 40.1 96.6 C 41 96.6 41.8 96.2 42.5 95.5 C 43.1 94.7 43.4 93.6 43.4 92.1 C 43.4 90.7 43.1 89.7 42.5 88.9 C 41.8 88.2 41 87.8 40.1 87.8 C 39.1 87.8 38.3 88.2 37.7 88.9 C 37 89.6 36.7 90.7 36.7 92.2 Z M 47.7 97.9 L 47.7 86.5 L 49.4 86.5 C 49.4 86.5 49.41 88.22 49.4 88.2 C 49.9 87.4 50.3 86.9 50.6 86.6 C 51 86.4 51.4 86.2 51.9 86.2 C 52.5 86.2 53.2 86.4 53.9 86.9 C 53.9 86.9 53.2 88.7 53.2 88.7 C 52.7 88.4 52.3 88.2 51.8 88.2 C 51.4 88.2 51 88.4 50.6 88.6 C 50.3 88.9 50.1 89.2 49.9 89.7 C 49.7 90.4 49.6 91.1 49.6 91.9 C 49.6 91.93 49.6 97.9 49.6 97.9 L 47.7 97.9 Z M 61.1 97.9 L 61.1 86.5 L 62.9 86.5 C 62.9 86.5 62.86 88.1 62.9 88.1 C 63.2 87.5 63.7 87.1 64.3 86.7 C 64.9 86.4 65.6 86.2 66.3 86.2 C 67.2 86.2 67.9 86.4 68.4 86.8 C 68.9 87.1 69.3 87.6 69.5 88.2 C 70.4 86.9 71.6 86.2 73.1 86.2 C 74.2 86.2 75.1 86.6 75.7 87.2 C 76.3 87.8 76.6 88.8 76.6 90.1 C 76.59 90.07 76.6 97.9 76.6 97.9 L 74.7 97.9 C 74.7 97.9 74.66 90.72 74.7 90.7 C 74.7 89.9 74.6 89.4 74.5 89 C 74.3 88.7 74.1 88.4 73.8 88.2 C 73.5 88 73.1 87.9 72.6 87.9 C 71.8 87.9 71.2 88.2 70.6 88.7 C 70.1 89.2 69.8 90.1 69.8 91.3 C 69.84 91.28 69.8 97.9 69.8 97.9 L 67.9 97.9 C 67.9 97.9 67.91 90.49 67.9 90.5 C 67.9 89.6 67.7 89 67.4 88.6 C 67.1 88.1 66.6 87.9 65.9 87.9 C 65.3 87.9 64.8 88.1 64.4 88.3 C 63.9 88.6 63.6 89 63.4 89.6 C 63.2 90.2 63.1 90.9 63.1 92 C 63.06 91.98 63.1 97.9 63.1 97.9 L 61.1 97.9 Z M 78.7 92.2 C 78.7 90.1 79.3 88.5 80.5 87.5 C 81.5 86.7 82.7 86.2 84.1 86.2 C 85.7 86.2 86.9 86.8 87.9 87.8 C 88.9 88.8 89.4 90.2 89.4 92 C 89.4 93.5 89.2 94.7 88.8 95.5 C 88.3 96.3 87.7 97 86.8 97.5 C 86 97.9 85.1 98.2 84.1 98.2 C 82.5 98.2 81.2 97.6 80.2 96.6 C 79.2 95.6 78.7 94.1 78.7 92.2 Z M 80.7 92.2 C 80.7 93.7 81 94.8 81.7 95.5 C 82.3 96.2 83.1 96.6 84.1 96.6 C 85 96.6 85.8 96.2 86.5 95.5 C 87.1 94.7 87.4 93.6 87.4 92.1 C 87.4 90.7 87.1 89.7 86.5 88.9 C 85.8 88.2 85 87.8 84.1 87.8 C 83.1 87.8 82.3 88.2 81.7 88.9 C 81 89.6 80.7 90.7 80.7 92.2 Z M 91.7 97.9 L 91.7 86.5 L 93.4 86.5 C 93.4 86.5 93.41 88.22 93.4 88.2 C 93.9 87.4 94.3 86.9 94.6 86.6 C 95 86.4 95.4 86.2 95.9 86.2 C 96.5 86.2 97.2 86.4 97.9 86.9 C 97.9 86.9 97.2 88.7 97.2 88.7 C 96.7 88.4 96.3 88.2 95.8 88.2 C 95.4 88.2 95 88.4 94.6 88.6 C 94.3 88.9 94.1 89.2 93.9 89.7 C 93.7 90.4 93.6 91.1 93.6 91.9 C 93.6 91.93 93.6 97.9 93.6 97.9 L 91.7 97.9 Z M 106.8 94.2 C 106.8 94.2 108.8 94.5 108.8 94.5 C 108.5 95.6 107.9 96.6 107.1 97.2 C 106.2 97.8 105.1 98.2 103.8 98.2 C 102.1 98.2 100.8 97.6 99.8 96.6 C 98.9 95.6 98.4 94.2 98.4 92.3 C 98.4 90.4 98.9 88.9 99.9 87.8 C 100.8 86.8 102.1 86.2 103.7 86.2 C 105.2 86.2 106.5 86.8 107.4 87.8 C 108.4 88.8 108.9 90.3 108.9 92.2 C 108.9 92.3 108.9 92.5 108.9 92.7 C 108.9 92.7 100.4 92.7 100.4 92.7 C 100.4 93.9 100.8 94.9 101.4 95.6 C 102.1 96.2 102.9 96.6 103.8 96.6 C 104.5 96.6 105.1 96.4 105.6 96 C 106.1 95.6 106.5 95 106.8 94.2 Z M 100.5 91.1 C 100.5 91.1 106.8 91.1 106.8 91.1 C 106.8 90.1 106.5 89.4 106.1 88.9 C 105.5 88.2 104.7 87.8 103.7 87.8 C 102.8 87.8 102.1 88.1 101.5 88.7 C 100.9 89.3 100.5 90.1 100.5 91.1 Z M 124.8 93.7 C 124.8 93.7 126.7 94 126.7 94 C 126.5 95.3 126 96.3 125.1 97 C 124.3 97.8 123.2 98.2 122 98.2 C 120.4 98.2 119.1 97.7 118.2 96.6 C 117.2 95.6 116.8 94.1 116.8 92.2 C 116.8 91 117 89.9 117.4 89 C 117.8 88.1 118.4 87.4 119.2 86.9 C 120.1 86.5 121 86.2 122 86.2 C 123.2 86.2 124.2 86.6 125 87.2 C 125.8 87.8 126.3 88.7 126.5 89.8 C 126.5 89.8 124.6 90.1 124.6 90.1 C 124.5 89.4 124.2 88.8 123.7 88.4 C 123.2 88 122.7 87.8 122 87.8 C 121.1 87.8 120.3 88.2 119.7 88.9 C 119.1 89.6 118.8 90.7 118.8 92.2 C 118.8 93.7 119.1 94.8 119.6 95.5 C 120.2 96.2 121 96.6 121.9 96.6 C 122.7 96.6 123.3 96.3 123.8 95.9 C 124.3 95.4 124.7 94.7 124.8 93.7 Z M 127.6 92.2 C 127.6 90.1 128.2 88.5 129.4 87.5 C 130.4 86.7 131.6 86.2 133 86.2 C 134.6 86.2 135.8 86.8 136.8 87.8 C 137.8 88.8 138.3 90.2 138.3 92 C 138.3 93.5 138.1 94.7 137.7 95.5 C 137.2 96.3 136.6 97 135.7 97.5 C 134.9 97.9 134 98.2 133 98.2 C 131.4 98.2 130.1 97.6 129.1 96.6 C 128.1 95.6 127.6 94.1 127.6 92.2 Z M 129.6 92.2 C 129.6 93.7 129.9 94.8 130.6 95.5 C 131.2 96.2 132 96.6 133 96.6 C 134 96.6 134.8 96.2 135.4 95.5 C 136 94.7 136.3 93.6 136.3 92.1 C 136.3 90.7 136 89.7 135.4 88.9 C 134.7 88.2 133.9 87.8 133 87.8 C 132 87.8 131.2 88.2 130.6 88.9 C 129.9 89.6 129.6 90.7 129.6 92.2 Z M 140.6 97.9 L 140.6 86.5 L 142.3 86.5 C 142.3 86.5 142.33 88.1 142.3 88.1 C 142.7 87.5 143.2 87.1 143.8 86.7 C 144.4 86.4 145 86.2 145.8 86.2 C 146.6 86.2 147.3 86.4 147.9 86.8 C 148.4 87.1 148.8 87.6 149 88.2 C 149.9 86.9 151.1 86.2 152.5 86.2 C 153.7 86.2 154.5 86.6 155.1 87.2 C 155.8 87.8 156.1 88.8 156.1 90.1 C 156.06 90.07 156.1 97.9 156.1 97.9 L 154.1 97.9 C 154.1 97.9 154.13 90.72 154.1 90.7 C 154.1 89.9 154.1 89.4 153.9 89 C 153.8 88.7 153.6 88.4 153.3 88.2 C 152.9 88 152.5 87.9 152.1 87.9 C 151.3 87.9 150.6 88.2 150.1 88.7 C 149.6 89.2 149.3 90.1 149.3 91.3 C 149.31 91.28 149.3 97.9 149.3 97.9 L 147.4 97.9 C 147.4 97.9 147.38 90.49 147.4 90.5 C 147.4 89.6 147.2 89 146.9 88.6 C 146.6 88.1 146.1 87.9 145.4 87.9 C 144.8 87.9 144.3 88.1 143.8 88.3 C 143.4 88.6 143.1 89 142.8 89.6 C 142.6 90.2 142.5 90.9 142.5 92 C 142.53 91.98 142.5 97.9 142.5 97.9 L 140.6 97.9 Z M 158.9 102.3 L 158.9 86.5 L 160.7 86.5 C 160.7 86.5 160.69 87.98 160.7 88 C 161.1 87.4 161.6 87 162.1 86.7 C 162.6 86.4 163.3 86.2 164 86.2 C 165 86.2 165.8 86.5 166.6 87 C 167.3 87.5 167.9 88.2 168.3 89.1 C 168.6 90 168.8 91 168.8 92.1 C 168.8 93.3 168.6 94.3 168.2 95.3 C 167.8 96.2 167.2 96.9 166.4 97.4 C 165.6 97.9 164.7 98.2 163.9 98.2 C 163.2 98.2 162.6 98 162.1 97.8 C 161.6 97.5 161.2 97.1 160.9 96.7 C 160.86 96.72 160.9 102.3 160.9 102.3 L 158.9 102.3 Z M 160.7 92.3 C 160.7 93.7 161 94.8 161.6 95.5 C 162.2 96.2 162.9 96.6 163.7 96.6 C 164.6 96.6 165.3 96.2 165.9 95.5 C 166.5 94.8 166.9 93.6 166.9 92.1 C 166.9 90.6 166.6 89.6 166 88.8 C 165.4 88.1 164.6 87.8 163.8 87.8 C 163 87.8 162.3 88.1 161.6 88.9 C 161 89.7 160.7 90.8 160.7 92.3 Z M 171.1 97.9 L 171.1 82.2 L 173.1 82.2 L 173.1 97.9 L 171.1 97.9 Z M 183.9 94.2 C 183.9 94.2 185.9 94.5 185.9 94.5 C 185.5 95.6 185 96.6 184.1 97.2 C 183.3 97.8 182.2 98.2 180.8 98.2 C 179.2 98.2 177.8 97.6 176.9 96.6 C 175.9 95.6 175.4 94.2 175.4 92.3 C 175.4 90.4 175.9 88.9 176.9 87.8 C 177.9 86.8 179.2 86.2 180.7 86.2 C 182.3 86.2 183.5 86.8 184.5 87.8 C 185.4 88.8 185.9 90.3 185.9 92.2 C 185.9 92.3 185.9 92.5 185.9 92.7 C 185.9 92.7 177.4 92.7 177.4 92.7 C 177.5 93.9 177.8 94.9 178.5 95.6 C 179.1 96.2 179.9 96.6 180.8 96.6 C 181.6 96.6 182.2 96.4 182.7 96 C 183.2 95.6 183.6 95 183.9 94.2 Z M 177.5 91.1 C 177.5 91.1 183.9 91.1 183.9 91.1 C 183.8 90.1 183.5 89.4 183.1 88.9 C 182.5 88.2 181.7 87.8 180.8 87.8 C 179.9 87.8 179.1 88.1 178.5 88.7 C 177.9 89.3 177.6 90.1 177.5 91.1 Z M 187 97.9 L 191.2 92 L 187.3 86.5 L 189.7 86.5 C 189.7 86.5 191.47 89.17 191.5 89.2 C 191.8 89.7 192.1 90.1 192.3 90.4 C 192.6 90 192.9 89.6 193.1 89.2 C 193.14 89.19 195.1 86.5 195.1 86.5 L 197.4 86.5 L 193.4 91.9 L 197.7 97.9 L 195.3 97.9 L 193 94.4 L 192.3 93.4 L 189.3 97.9 L 187 97.9 Z M 207.5 97.9 L 204 86.5 L 206 86.5 L 207.8 93.1 C 207.8 93.1 208.5 95.53 208.5 95.5 C 208.5 95.4 208.7 94.6 209.1 93.2 C 209.09 93.18 210.9 86.5 210.9 86.5 L 212.9 86.5 L 214.6 93.1 L 215.2 95.3 L 215.8 93.1 L 217.8 86.5 L 219.7 86.5 L 216.1 97.9 L 214.1 97.9 L 212.3 91.1 L 211.8 89.1 L 209.5 97.9 L 207.5 97.9 Z M 220.6 92.2 C 220.6 90.1 221.2 88.5 222.3 87.5 C 223.3 86.7 224.5 86.2 225.9 86.2 C 227.5 86.2 228.8 86.8 229.8 87.8 C 230.8 88.8 231.3 90.2 231.3 92 C 231.3 93.5 231 94.7 230.6 95.5 C 230.2 96.3 229.5 97 228.7 97.5 C 227.8 97.9 226.9 98.2 225.9 98.2 C 224.3 98.2 223 97.6 222 96.6 C 221.1 95.6 220.6 94.1 220.6 92.2 Z M 222.6 92.2 C 222.6 93.7 222.9 94.8 223.5 95.5 C 224.1 96.2 224.9 96.6 225.9 96.6 C 226.9 96.6 227.7 96.2 228.3 95.5 C 228.9 94.7 229.3 93.6 229.3 92.1 C 229.3 90.7 228.9 89.7 228.3 88.9 C 227.7 88.2 226.9 87.8 225.9 87.8 C 224.9 87.8 224.1 88.2 223.5 88.9 C 222.9 89.6 222.6 90.7 222.6 92.2 Z M 233.5 97.9 L 233.5 86.5 L 235.2 86.5 C 235.2 86.5 235.24 88.22 235.2 88.2 C 235.7 87.4 236.1 86.9 236.5 86.6 C 236.8 86.4 237.3 86.2 237.7 86.2 C 238.4 86.2 239 86.4 239.7 86.9 C 239.7 86.9 239 88.7 239 88.7 C 238.6 88.4 238.1 88.2 237.6 88.2 C 237.2 88.2 236.8 88.4 236.5 88.6 C 236.1 88.9 235.9 89.2 235.8 89.7 C 235.5 90.4 235.4 91.1 235.4 91.9 C 235.43 91.93 235.4 97.9 235.4 97.9 L 233.5 97.9 Z M 240.9 97.9 L 240.9 82.2 L 242.8 82.2 L 242.8 91.1 L 247.4 86.5 L 249.9 86.5 L 245.5 90.7 L 250.3 97.9 L 247.9 97.9 L 244.2 92.1 L 242.8 93.4 L 242.8 97.9 L 240.9 97.9 Z M 252.4 97.9 L 252.4 88 L 250.6 88 L 250.6 86.5 L 252.4 86.5 C 252.4 86.5 252.36 85.39 252.4 85.4 C 252.4 84.3 252.6 83.4 253.1 82.8 C 253.6 82.2 254.3 81.9 255.4 81.9 C 256.1 81.9 256.8 82 257.4 82.1 C 257.4 82.1 257.1 83.8 257.1 83.8 C 256.7 83.7 256.3 83.7 256 83.7 C 255.4 83.7 254.9 83.8 254.7 84.1 C 254.4 84.3 254.3 84.9 254.3 85.8 C 254.29 85.75 254.3 86.5 254.3 86.5 L 256.5 86.5 L 256.5 88 L 254.3 88 L 254.3 97.9 L 252.4 97.9 Z M 257.9 97.9 L 257.9 82.2 L 259.9 82.2 L 259.9 97.9 L 257.9 97.9 Z M 262.1 92.2 C 262.1 90.1 262.7 88.5 263.9 87.5 C 264.9 86.7 266.1 86.2 267.5 86.2 C 269 86.2 270.3 86.8 271.3 87.8 C 272.3 88.8 272.8 90.2 272.8 92 C 272.8 93.5 272.6 94.7 272.2 95.5 C 271.7 96.3 271.1 97 270.2 97.5 C 269.4 97.9 268.5 98.2 267.5 98.2 C 265.9 98.2 264.6 97.6 263.6 96.6 C 262.6 95.6 262.1 94.1 262.1 92.2 Z M 264.1 92.2 C 264.1 93.7 264.4 94.8 265.1 95.5 C 265.7 96.2 266.5 96.6 267.5 96.6 C 268.4 96.6 269.2 96.2 269.9 95.5 C 270.5 94.7 270.8 93.6 270.8 92.1 C 270.8 90.7 270.5 89.7 269.9 88.9 C 269.2 88.2 268.4 87.8 267.5 87.8 C 266.5 87.8 265.7 88.2 265.1 88.9 C 264.4 89.6 264.1 90.7 264.1 92.2 Z M 277.2 97.9 L 273.7 86.5 L 275.7 86.5 L 277.5 93.1 C 277.5 93.1 278.18 95.53 278.2 95.5 C 278.2 95.4 278.4 94.6 278.8 93.2 C 278.78 93.18 280.6 86.5 280.6 86.5 L 282.6 86.5 L 284.3 93.1 L 284.9 95.3 L 285.5 93.1 L 287.5 86.5 L 289.3 86.5 L 285.8 97.9 L 283.8 97.9 L 282 91.1 L 281.5 89.1 L 279.2 97.9 L 277.2 97.9 Z M 290.2 94.5 C 290.2 94.5 292.1 94.2 292.1 94.2 C 292.2 95 292.5 95.6 293 96 C 293.5 96.4 294.2 96.6 295.1 96.6 C 295.9 96.6 296.6 96.4 297 96 C 297.5 95.7 297.7 95.2 297.7 94.8 C 297.7 94.3 297.5 94 297.1 93.7 C 296.8 93.6 296.2 93.3 295.1 93.1 C 293.7 92.7 292.7 92.4 292.2 92.1 C 291.6 91.9 291.2 91.5 290.9 91.1 C 290.7 90.6 290.5 90.1 290.5 89.5 C 290.5 89 290.6 88.5 290.9 88.1 C 291.1 87.7 291.4 87.3 291.8 87 C 292.1 86.8 292.5 86.6 293 86.5 C 293.6 86.3 294.1 86.2 294.7 86.2 C 295.6 86.2 296.4 86.4 297.1 86.6 C 297.8 86.9 298.3 87.2 298.6 87.7 C 298.9 88.1 299.1 88.7 299.2 89.4 C 299.2 89.4 297.3 89.7 297.3 89.7 C 297.3 89.1 297 88.7 296.6 88.3 C 296.2 88 295.6 87.8 294.9 87.8 C 294 87.8 293.3 88 293 88.3 C 292.6 88.6 292.4 88.9 292.4 89.3 C 292.4 89.5 292.5 89.8 292.6 90 C 292.8 90.2 293 90.4 293.4 90.5 C 293.6 90.6 294.1 90.7 295.1 91 C 296.4 91.4 297.4 91.6 297.9 91.9 C 298.5 92.1 298.9 92.5 299.2 92.9 C 299.5 93.3 299.7 93.9 299.7 94.6 C 299.7 95.2 299.5 95.8 299.1 96.4 C 298.7 96.9 298.2 97.4 297.5 97.7 C 296.8 98 296 98.2 295.1 98.2 C 293.6 98.2 292.5 97.9 291.7 97.2 C 290.9 96.6 290.4 95.7 290.2 94.5 Z M 315.9 97.9 C 315.7 97.5 315.6 97 315.5 96.5 C 314.8 97.1 314.1 97.5 313.5 97.8 C 312.8 98 312.1 98.2 311.3 98.2 C 310.1 98.2 309.1 97.9 308.4 97.2 C 307.8 96.6 307.4 95.8 307.4 94.9 C 307.4 94.3 307.6 93.8 307.8 93.4 C 308.1 92.9 308.4 92.5 308.8 92.3 C 309.2 92 309.7 91.8 310.2 91.6 C 310.6 91.5 311.1 91.4 311.9 91.3 C 313.5 91.1 314.6 90.9 315.4 90.7 C 315.4 90.4 315.4 90.2 315.4 90.2 C 315.4 89.4 315.2 88.8 314.8 88.5 C 314.3 88.1 313.6 87.8 312.6 87.8 C 311.7 87.8 311 88 310.6 88.3 C 310.2 88.6 309.9 89.2 309.6 90 C 309.6 90 307.8 89.8 307.8 89.8 C 307.9 88.9 308.2 88.3 308.6 87.8 C 309 87.3 309.6 86.9 310.3 86.6 C 311.1 86.4 311.9 86.2 312.9 86.2 C 313.9 86.2 314.7 86.4 315.3 86.6 C 315.9 86.8 316.3 87.1 316.6 87.4 C 316.9 87.8 317.1 88.2 317.2 88.8 C 317.3 89.1 317.3 89.7 317.3 90.5 C 317.3 90.5 317.3 93.1 317.3 93.1 C 317.3 94.9 317.4 96.1 317.4 96.5 C 317.5 97 317.7 97.5 317.9 97.9 C 317.93 97.9 315.9 97.9 315.9 97.9 C 315.9 97.9 315.91 97.9 315.9 97.9 Z M 315.4 92.2 C 314.7 92.5 313.6 92.7 312.2 92.9 C 311.4 93 310.8 93.2 310.5 93.3 C 310.2 93.4 309.9 93.6 309.8 93.9 C 309.6 94.2 309.5 94.5 309.5 94.8 C 309.5 95.4 309.7 95.8 310.1 96.1 C 310.5 96.5 311 96.6 311.8 96.6 C 312.5 96.6 313.2 96.5 313.8 96.2 C 314.4 95.8 314.8 95.4 315.1 94.8 C 315.3 94.4 315.4 93.7 315.4 92.9 C 315.4 92.9 315.4 92.2 315.4 92.2 Z M 320.3 97.9 L 320.3 86.5 L 322.1 86.5 C 322.1 86.5 322.06 88.12 322.1 88.1 C 322.9 86.9 324.1 86.2 325.7 86.2 C 326.4 86.2 327 86.4 327.6 86.6 C 328.2 86.9 328.6 87.2 328.9 87.6 C 329.2 88 329.4 88.5 329.5 89 C 329.6 89.4 329.6 90 329.6 90.9 C 329.59 90.89 329.6 97.9 329.6 97.9 L 327.7 97.9 C 327.7 97.9 327.65 90.96 327.7 91 C 327.7 90.2 327.6 89.6 327.4 89.2 C 327.3 88.8 327 88.5 326.6 88.3 C 326.2 88 325.8 87.9 325.3 87.9 C 324.5 87.9 323.7 88.2 323.1 88.7 C 322.5 89.2 322.2 90.2 322.2 91.7 C 322.25 91.67 322.2 97.9 322.2 97.9 L 320.3 97.9 Z M 340 97.9 C 340 97.9 339.95 96.46 340 96.5 C 339.2 97.6 338.2 98.2 336.8 98.2 C 335.9 98.2 335 97.9 334.3 97.4 C 333.5 96.9 332.9 96.2 332.5 95.3 C 332.1 94.4 331.9 93.4 331.9 92.2 C 331.9 91.1 332 90 332.4 89.1 C 332.8 88.2 333.4 87.5 334.1 87 C 334.9 86.5 335.7 86.2 336.7 86.2 C 337.4 86.2 338 86.4 338.5 86.7 C 339 87 339.5 87.3 339.8 87.8 C 339.82 87.81 339.8 82.2 339.8 82.2 L 341.7 82.2 L 341.7 97.9 L 340 97.9 Z M 333.8 92.2 C 333.8 93.7 334.1 94.8 334.8 95.5 C 335.4 96.2 336.1 96.6 336.9 96.6 C 337.8 96.6 338.5 96.2 339.1 95.5 C 339.7 94.8 340 93.8 340 92.4 C 340 90.8 339.7 89.7 339.1 88.9 C 338.5 88.2 337.7 87.8 336.9 87.8 C 336 87.8 335.3 88.2 334.7 88.9 C 334.1 89.6 333.8 90.7 333.8 92.2 Z " stroke="none" fill="#000"/>  </g>  <g id="Polygon7588">    <path d="M 110.6 59.3 L 102.8 59.3 L 101.5 63 L 97.4 63 L 104.4 43.4 L 109 43.4 L 116 63 L 111.8 63 L 110.6 59.3 Z M 109.5 56.1 L 106.7 48 L 103.8 56.1 L 109.5 56.1 Z M 133.3 47.5 L 133.3 63 L 129.3 63 C 129.3 63 129.31 61.04 129.3 61 C 128.8 61.7 128.1 62.2 127.3 62.6 C 126.5 63 125.6 63.2 124.7 63.2 C 123.5 63.2 122.4 62.9 121.5 62.4 C 120.5 61.9 119.8 61.2 119.3 60.2 C 118.7 59.2 118.5 58 118.5 56.6 C 118.48 56.59 118.5 47.5 118.5 47.5 L 122.4 47.5 C 122.4 47.5 122.4 56.03 122.4 56 C 122.4 57.3 122.7 58.2 123.3 58.9 C 123.9 59.5 124.8 59.9 125.8 59.9 C 126.9 59.9 127.8 59.5 128.4 58.9 C 129 58.2 129.3 57.3 129.3 56 C 129.31 56.03 129.3 47.5 129.3 47.5 L 133.3 47.5 Z M 141.7 50.7 C 141.7 50.7 141.69 58.21 141.7 58.2 C 141.7 58.7 141.8 59.1 142.1 59.3 C 142.3 59.6 142.7 59.7 143.3 59.7 C 143.34 59.7 145.2 59.7 145.2 59.7 L 145.2 63 C 145.2 63 142.7 63 142.7 63 C 139.4 63 137.7 61.4 137.7 58.2 C 137.74 58.18 137.7 50.7 137.7 50.7 L 135.9 50.7 L 135.9 47.5 L 137.7 47.5 L 137.7 43.7 L 141.7 43.7 L 141.7 47.5 L 145.2 47.5 L 145.2 50.7 L 141.7 50.7 Z M 154.9 63.3 C 153.4 63.3 152 62.9 150.8 62.3 C 149.6 61.6 148.7 60.7 148 59.4 C 147.3 58.2 147 56.8 147 55.2 C 147 53.7 147.4 52.3 148.1 51 C 148.8 49.8 149.7 48.9 150.9 48.2 C 152.1 47.6 153.5 47.2 155 47.2 C 156.5 47.2 157.8 47.6 159 48.2 C 160.3 48.9 161.2 49.8 161.9 51 C 162.6 52.3 163 53.7 163 55.2 C 163 56.8 162.6 58.2 161.9 59.4 C 161.2 60.7 160.2 61.6 159 62.3 C 157.8 62.9 156.4 63.3 154.9 63.3 C 154.9 63.3 154.9 63.3 154.9 63.3 Z M 154.9 59.8 C 155.6 59.8 156.3 59.7 156.9 59.3 C 157.5 59 158 58.5 158.4 57.8 C 158.7 57.1 158.9 56.2 158.9 55.2 C 158.9 53.8 158.5 52.6 157.8 51.8 C 157 51 156.1 50.7 154.9 50.7 C 153.8 50.7 152.9 51 152.1 51.8 C 151.4 52.6 151 53.8 151 55.2 C 151 56.7 151.4 57.9 152.1 58.6 C 152.8 59.4 153.8 59.8 154.9 59.8 C 154.9 59.8 154.9 59.8 154.9 59.8 Z M 185.1 47.3 C 187 47.3 188.6 47.8 189.7 49 C 190.9 50.2 191.5 51.8 191.5 53.9 C 191.47 53.9 191.5 63 191.5 63 L 187.6 63 C 187.6 63 187.55 54.43 187.6 54.4 C 187.6 53.2 187.2 52.3 186.6 51.6 C 186 51 185.2 50.7 184.1 50.7 C 183 50.7 182.2 51 181.6 51.6 C 180.9 52.3 180.6 53.2 180.6 54.4 C 180.63 54.43 180.6 63 180.6 63 L 176.7 63 C 176.7 63 176.71 54.43 176.7 54.4 C 176.7 53.2 176.4 52.3 175.8 51.6 C 175.2 51 174.3 50.7 173.3 50.7 C 172.2 50.7 171.3 51 170.7 51.6 C 170.1 52.3 169.8 53.2 169.8 54.4 C 169.77 54.43 169.8 63 169.8 63 L 165.9 63 L 165.9 47.5 L 169.8 47.5 C 169.8 47.5 169.77 49.36 169.8 49.4 C 170.3 48.7 170.9 48.2 171.7 47.8 C 172.5 47.5 173.4 47.3 174.3 47.3 C 175.5 47.3 176.6 47.5 177.6 48 C 178.5 48.5 179.3 49.3 179.8 50.2 C 180.3 49.3 181 48.6 182 48.1 C 183 47.5 184 47.3 185.1 47.3 C 185.1 47.3 185.1 47.3 185.1 47.3 Z M 194.2 55.2 C 194.2 53.6 194.5 52.2 195.1 51 C 195.7 49.8 196.6 48.9 197.7 48.2 C 198.7 47.6 199.9 47.2 201.3 47.2 C 202.4 47.2 203.4 47.5 204.3 47.9 C 205.2 48.4 205.9 49 206.4 49.7 C 206.39 49.7 206.4 47.5 206.4 47.5 L 210.3 47.5 L 210.3 63 L 206.4 63 C 206.4 63 206.39 60.73 206.4 60.7 C 205.9 61.5 205.2 62.1 204.3 62.5 C 203.4 63 202.4 63.3 201.2 63.3 C 199.9 63.3 198.7 62.9 197.7 62.2 C 196.6 61.6 195.7 60.6 195.1 59.4 C 194.5 58.2 194.2 56.8 194.2 55.2 C 194.2 55.2 194.2 55.2 194.2 55.2 Z M 206.4 55.2 C 206.4 54.3 206.2 53.5 205.8 52.8 C 205.5 52.1 205 51.6 204.3 51.2 C 203.7 50.9 203 50.7 202.3 50.7 C 201.6 50.7 200.9 50.9 200.3 51.2 C 199.6 51.6 199.1 52.1 198.8 52.8 C 198.4 53.4 198.2 54.3 198.2 55.2 C 198.2 56.1 198.4 56.9 198.8 57.6 C 199.1 58.3 199.7 58.9 200.3 59.2 C 200.9 59.6 201.6 59.8 202.3 59.8 C 203 59.8 203.7 59.6 204.3 59.3 C 205 58.9 205.5 58.4 205.8 57.7 C 206.2 57 206.4 56.2 206.4 55.2 C 206.4 55.2 206.4 55.2 206.4 55.2 Z M 218.7 50.7 C 218.7 50.7 218.74 58.21 218.7 58.2 C 218.7 58.7 218.9 59.1 219.1 59.3 C 219.4 59.6 219.8 59.7 220.4 59.7 C 220.39 59.7 222.2 59.7 222.2 59.7 L 222.2 63 C 222.2 63 219.75 63 219.8 63 C 216.4 63 214.8 61.4 214.8 58.2 C 214.79 58.18 214.8 50.7 214.8 50.7 L 212.9 50.7 L 212.9 47.5 L 214.8 47.5 L 214.8 43.7 L 218.7 43.7 L 218.7 47.5 L 222.2 47.5 L 222.2 50.7 L 218.7 50.7 Z M 227 45.6 C 226.3 45.6 225.8 45.4 225.3 45 C 224.9 44.5 224.6 44 224.6 43.3 C 224.6 42.7 224.9 42.1 225.3 41.7 C 225.8 41.3 226.3 41 227 41 C 227.7 41 228.3 41.3 228.8 41.7 C 229.2 42.1 229.4 42.7 229.4 43.3 C 229.4 44 229.2 44.5 228.8 45 C 228.3 45.4 227.7 45.6 227 45.6 C 227 45.6 227 45.6 227 45.6 Z M 229 47.5 L 229 63 L 225 63 L 225 47.5 L 229 47.5 Z M 239.7 63.3 C 238.2 63.3 236.9 62.9 235.7 62.3 C 234.5 61.6 233.5 60.7 232.9 59.4 C 232.2 58.2 231.8 56.8 231.8 55.2 C 231.8 53.7 232.2 52.3 232.9 51 C 233.6 49.8 234.6 48.9 235.8 48.2 C 237 47.6 238.3 47.2 239.8 47.2 C 241.3 47.2 242.7 47.6 243.9 48.2 C 245.1 48.9 246.1 49.8 246.8 51 C 247.5 52.3 247.8 53.7 247.8 55.2 C 247.8 56.8 247.4 58.2 246.7 59.4 C 246 60.7 245 61.6 243.8 62.3 C 242.6 62.9 241.2 63.3 239.7 63.3 C 239.7 63.3 239.7 63.3 239.7 63.3 Z M 239.7 59.8 C 240.4 59.8 241.1 59.7 241.7 59.3 C 242.3 59 242.8 58.5 243.2 57.8 C 243.6 57.1 243.8 56.2 243.8 55.2 C 243.8 53.8 243.4 52.6 242.6 51.8 C 241.8 51 240.9 50.7 239.8 50.7 C 238.6 50.7 237.7 51 237 51.8 C 236.2 52.6 235.8 53.8 235.8 55.2 C 235.8 56.7 236.2 57.9 236.9 58.6 C 237.7 59.4 238.6 59.8 239.7 59.8 C 239.7 59.8 239.7 59.8 239.7 59.8 Z M 259.3 47.3 C 261.1 47.3 262.6 47.8 263.8 49 C 264.9 50.2 265.5 51.8 265.5 53.9 C 265.47 53.9 265.5 63 265.5 63 L 261.6 63 C 261.6 63 261.55 54.43 261.6 54.4 C 261.6 53.2 261.2 52.3 260.6 51.6 C 260 50.9 259.2 50.6 258.1 50.6 C 257 50.6 256.2 50.9 255.5 51.6 C 254.9 52.3 254.6 53.2 254.6 54.4 C 254.61 54.43 254.6 63 254.6 63 L 250.7 63 L 250.7 47.5 L 254.6 47.5 C 254.6 47.5 254.61 49.42 254.6 49.4 C 255.1 48.7 255.8 48.2 256.6 47.8 C 257.4 47.5 258.3 47.3 259.3 47.3 C 259.3 47.3 259.3 47.3 259.3 47.3 Z " stroke="none" fill="#e4007e"/>  </g>  <g id="Polygon7587">    <path d="M 122.7 25.7 L 114.9 25.7 L 113.6 29.4 L 109.5 29.4 L 116.5 9.8 L 121.1 9.8 L 128.1 29.4 L 123.9 29.4 L 122.7 25.7 Z M 121.6 22.5 L 118.8 14.4 L 115.9 22.5 L 121.6 22.5 Z M 129.7 21.6 C 129.7 20 130 18.6 130.7 17.4 C 131.3 16.2 132.1 15.3 133.2 14.6 C 134.3 14 135.5 13.6 136.8 13.6 C 137.8 13.6 138.8 13.9 139.7 14.3 C 140.6 14.7 141.4 15.3 141.9 16 C 141.9 16.04 141.9 8.7 141.9 8.7 L 145.9 8.7 L 145.9 29.4 L 141.9 29.4 C 141.9 29.4 141.9 27.1 141.9 27.1 C 141.4 27.9 140.7 28.5 139.9 29 C 139 29.4 138 29.7 136.8 29.7 C 135.5 29.7 134.3 29.3 133.2 28.6 C 132.1 28 131.3 27 130.7 25.8 C 130 24.6 129.7 23.2 129.7 21.6 C 129.7 21.6 129.7 21.6 129.7 21.6 Z M 141.9 21.6 C 141.9 20.7 141.7 19.9 141.4 19.2 C 141 18.5 140.5 18 139.9 17.6 C 139.2 17.3 138.5 17.1 137.8 17.1 C 137.1 17.1 136.4 17.3 135.8 17.6 C 135.2 18 134.7 18.5 134.3 19.2 C 133.9 19.8 133.7 20.7 133.7 21.6 C 133.7 22.5 133.9 23.3 134.3 24 C 134.7 24.7 135.2 25.3 135.8 25.6 C 136.4 26 137.1 26.2 137.8 26.2 C 138.5 26.2 139.2 26 139.9 25.7 C 140.5 25.3 141 24.8 141.4 24.1 C 141.7 23.4 141.9 22.6 141.9 21.6 C 141.9 21.6 141.9 21.6 141.9 21.6 Z M 156.2 25.8 L 160.1 13.9 L 164.3 13.9 L 158.5 29.4 L 153.8 29.4 L 148.1 13.9 L 152.3 13.9 L 156.2 25.8 Z M 165.5 21.6 C 165.5 20 165.8 18.6 166.4 17.4 C 167 16.2 167.9 15.3 169 14.6 C 170 14 171.2 13.6 172.6 13.6 C 173.7 13.6 174.7 13.9 175.6 14.3 C 176.5 14.8 177.2 15.4 177.7 16.1 C 177.68 16.1 177.7 13.9 177.7 13.9 L 181.6 13.9 L 181.6 29.4 L 177.7 29.4 C 177.7 29.4 177.68 27.13 177.7 27.1 C 177.2 27.9 176.5 28.5 175.6 28.9 C 174.7 29.4 173.7 29.7 172.5 29.7 C 171.2 29.7 170 29.3 169 28.6 C 167.9 28 167 27 166.4 25.8 C 165.8 24.6 165.5 23.2 165.5 21.6 C 165.5 21.6 165.5 21.6 165.5 21.6 Z M 177.7 21.6 C 177.7 20.7 177.5 19.9 177.1 19.2 C 176.7 18.5 176.2 18 175.6 17.6 C 175 17.3 174.3 17.1 173.6 17.1 C 172.8 17.1 172.2 17.3 171.5 17.6 C 170.9 18 170.4 18.5 170.1 19.2 C 169.7 19.8 169.5 20.7 169.5 21.6 C 169.5 22.5 169.7 23.3 170.1 24 C 170.4 24.7 170.9 25.3 171.6 25.6 C 172.2 26 172.9 26.2 173.6 26.2 C 174.3 26.2 175 26 175.6 25.7 C 176.2 25.3 176.7 24.8 177.1 24.1 C 177.5 23.4 177.7 22.6 177.7 21.6 C 177.7 21.6 177.7 21.6 177.7 21.6 Z M 194.1 13.7 C 195.9 13.7 197.4 14.2 198.5 15.4 C 199.7 16.6 200.2 18.2 200.2 20.3 C 200.25 20.3 200.2 29.4 200.2 29.4 L 196.3 29.4 C 196.3 29.4 196.33 20.83 196.3 20.8 C 196.3 19.6 196 18.7 195.4 18 C 194.8 17.3 193.9 17 192.9 17 C 191.8 17 190.9 17.3 190.3 18 C 189.7 18.7 189.4 19.6 189.4 20.8 C 189.38 20.83 189.4 29.4 189.4 29.4 L 185.5 29.4 L 185.5 13.9 L 189.4 13.9 C 189.4 13.9 189.38 15.82 189.4 15.8 C 189.9 15.1 190.6 14.6 191.4 14.2 C 192.2 13.9 193.1 13.7 194.1 13.7 C 194.1 13.7 194.1 13.7 194.1 13.7 Z M 203 21.6 C 203 20 203.3 18.6 203.9 17.4 C 204.6 16.2 205.5 15.3 206.7 14.6 C 207.8 14 209.1 13.6 210.6 13.6 C 212.6 13.6 214.2 14.1 215.4 15.1 C 216.7 16 217.5 17.4 217.9 19.1 C 217.9 19.1 213.7 19.1 213.7 19.1 C 213.5 18.5 213.1 17.9 212.6 17.5 C 212.1 17.2 211.4 17 210.6 17 C 209.5 17 208.6 17.4 207.9 18.2 C 207.3 19 207 20.2 207 21.6 C 207 23.1 207.3 24.3 207.9 25.1 C 208.6 25.9 209.5 26.3 210.6 26.3 C 212.2 26.3 213.2 25.6 213.7 24.2 C 213.7 24.2 217.9 24.2 217.9 24.2 C 217.5 25.8 216.7 27.2 215.4 28.2 C 214.1 29.2 212.5 29.7 210.6 29.7 C 209.1 29.7 207.8 29.3 206.7 28.7 C 205.5 28 204.6 27.1 203.9 25.9 C 203.3 24.7 203 23.2 203 21.6 C 203 21.6 203 21.6 203 21.6 Z M 235.2 21.3 C 235.2 21.9 235.2 22.4 235.1 22.8 C 235.1 22.8 223.8 22.8 223.8 22.8 C 223.9 23.9 224.3 24.8 225 25.5 C 225.7 26.1 226.5 26.4 227.5 26.4 C 229 26.4 230 25.8 230.6 24.5 C 230.6 24.5 234.9 24.5 234.9 24.5 C 234.4 26 233.5 27.2 232.3 28.2 C 231 29.2 229.5 29.7 227.6 29.7 C 226.1 29.7 224.8 29.3 223.6 28.7 C 222.4 28 221.5 27.1 220.8 25.8 C 220.2 24.6 219.8 23.2 219.8 21.6 C 219.8 20 220.1 18.6 220.8 17.4 C 221.5 16.2 222.4 15.3 223.5 14.6 C 224.7 14 226.1 13.6 227.6 13.6 C 229.1 13.6 230.4 14 231.6 14.6 C 232.7 15.2 233.6 16.1 234.3 17.3 C 234.9 18.5 235.2 19.8 235.2 21.3 C 235.2 21.3 235.2 21.3 235.2 21.3 Z M 231.2 20.2 C 231.2 19.2 230.8 18.4 230.1 17.8 C 229.4 17.2 228.5 16.9 227.5 16.9 C 226.5 16.9 225.7 17.1 225 17.7 C 224.4 18.3 224 19.1 223.8 20.2 C 223.8 20.2 231.2 20.2 231.2 20.2 Z M 237.1 21.6 C 237.1 20 237.4 18.6 238 17.4 C 238.7 16.2 239.5 15.3 240.6 14.6 C 241.7 14 242.9 13.6 244.2 13.6 C 245.2 13.6 246.2 13.9 247.1 14.3 C 248 14.7 248.7 15.3 249.3 16 C 249.28 16.04 249.3 8.7 249.3 8.7 L 253.3 8.7 L 253.3 29.4 L 249.3 29.4 C 249.3 29.4 249.28 27.1 249.3 27.1 C 248.8 27.9 248.1 28.5 247.2 29 C 246.4 29.4 245.3 29.7 244.2 29.7 C 242.9 29.7 241.7 29.3 240.6 28.6 C 239.5 28 238.7 27 238 25.8 C 237.4 24.6 237.1 23.2 237.1 21.6 C 237.1 21.6 237.1 21.6 237.1 21.6 Z M 249.3 21.6 C 249.3 20.7 249.1 19.9 248.7 19.2 C 248.4 18.5 247.9 18 247.2 17.6 C 246.6 17.3 245.9 17.1 245.2 17.1 C 244.5 17.1 243.8 17.3 243.2 17.6 C 242.6 18 242.1 18.5 241.7 19.2 C 241.3 19.8 241.1 20.7 241.1 21.6 C 241.1 22.5 241.3 23.3 241.7 24 C 242.1 24.7 242.6 25.3 243.2 25.6 C 243.8 26 244.5 26.2 245.2 26.2 C 245.9 26.2 246.6 26 247.2 25.7 C 247.9 25.3 248.4 24.8 248.7 24.1 C 249.1 23.4 249.3 22.6 249.3 21.6 C 249.3 21.6 249.3 21.6 249.3 21.6 Z " stroke="none" fill="#e4007e"/>  </g></svg>