<?xml version="1.0" standalone="no"?><!DOCTYPE svg PUBLIC "-//W3C//DTD SVG 1.1//EN" "http://www.w3.org/Graphics/SVG/1.1/DTD/svg11.dtd"><svg xmlns="http://www.w3.org/2000/svg" version="1.1" width="253px" height="35.6px" viewBox="0 -7 253 35.6" style="top:-7px">  <desc>Webhooks &amp; REST APIs</desc>  <defs/>  <g id="Polygon7789">    <path d="M 4.4 16 L 0.3 0.3 L 2.4 0.3 C 2.4 0.3 4.8 10.59 4.8 10.6 C 5.1 11.7 5.3 12.7 5.5 13.8 C 5.9 12.1 6.1 11.2 6.2 10.9 C 6.18 10.9 9.2 0.3 9.2 0.3 L 11.7 0.3 C 11.7 0.3 13.94 8.24 13.9 8.2 C 14.5 10.2 14.9 12.1 15.2 13.8 C 15.4 12.8 15.6 11.7 16 10.4 C 15.95 10.39 18.4 0.3 18.4 0.3 L 20.5 0.3 L 16.2 16 L 14.2 16 C 14.2 16 10.87 4.02 10.9 4 C 10.6 3 10.4 2.4 10.4 2.2 C 10.2 2.9 10.1 3.5 9.9 4 C 9.92 4.02 6.6 16 6.6 16 L 4.4 16 Z M 29.6 12.3 C 29.6 12.3 31.6 12.6 31.6 12.6 C 31.3 13.8 30.7 14.7 29.9 15.3 C 29 16 27.9 16.3 26.6 16.3 C 24.9 16.3 23.6 15.8 22.6 14.7 C 21.7 13.7 21.2 12.3 21.2 10.4 C 21.2 8.5 21.7 7 22.7 5.9 C 23.6 4.9 24.9 4.4 26.5 4.4 C 28 4.4 29.3 4.9 30.2 5.9 C 31.2 6.9 31.7 8.4 31.7 10.3 C 31.7 10.4 31.7 10.6 31.7 10.8 C 31.7 10.8 23.2 10.8 23.2 10.8 C 23.2 12.1 23.6 13 24.2 13.7 C 24.9 14.4 25.7 14.7 26.6 14.7 C 27.3 14.7 27.9 14.5 28.4 14.1 C 28.9 13.8 29.3 13.2 29.6 12.3 Z M 23.3 9.2 C 23.3 9.2 29.6 9.2 29.6 9.2 C 29.6 8.3 29.3 7.5 28.9 7.1 C 28.3 6.3 27.5 5.9 26.5 5.9 C 25.6 5.9 24.9 6.2 24.3 6.8 C 23.7 7.4 23.3 8.2 23.3 9.2 Z M 35.8 16 L 34 16 L 34 0.3 L 36 0.3 C 36 0.3 35.98 5.89 36 5.9 C 36.8 4.9 37.8 4.4 39.1 4.4 C 39.8 4.4 40.5 4.5 41.1 4.8 C 41.7 5.1 42.2 5.5 42.6 6 C 43 6.5 43.4 7.1 43.6 7.8 C 43.8 8.5 43.9 9.3 43.9 10.1 C 43.9 12.1 43.5 13.6 42.5 14.7 C 41.5 15.7 40.4 16.3 39 16.3 C 37.7 16.3 36.6 15.7 35.8 14.6 C 35.84 14.59 35.8 16 35.8 16 Z M 35.8 10.2 C 35.8 11.6 36 12.6 36.4 13.2 C 37 14.2 37.8 14.7 38.8 14.7 C 39.7 14.7 40.4 14.3 41 13.6 C 41.7 12.8 42 11.8 42 10.3 C 42 8.8 41.7 7.7 41.1 7 C 40.5 6.3 39.8 5.9 38.9 5.9 C 38.1 5.9 37.4 6.3 36.7 7 C 36.1 7.8 35.8 8.8 35.8 10.2 Z M 46.3 16 L 46.3 0.3 L 48.2 0.3 C 48.2 0.3 48.22 5.92 48.2 5.9 C 49.1 4.9 50.3 4.4 51.6 4.4 C 52.5 4.4 53.2 4.5 53.8 4.9 C 54.5 5.2 54.9 5.6 55.2 6.2 C 55.4 6.8 55.6 7.7 55.6 8.8 C 55.58 8.79 55.6 16 55.6 16 L 53.6 16 C 53.6 16 53.65 8.79 53.6 8.8 C 53.6 7.8 53.4 7.1 53 6.7 C 52.6 6.2 52 6 51.2 6 C 50.7 6 50.1 6.2 49.6 6.5 C 49.1 6.8 48.8 7.2 48.5 7.7 C 48.3 8.2 48.2 8.9 48.2 9.8 C 48.22 9.78 48.2 16 48.2 16 L 46.3 16 Z M 57.8 10.3 C 57.8 8.2 58.4 6.6 59.6 5.6 C 60.5 4.8 61.7 4.4 63.2 4.4 C 64.7 4.4 66 4.9 67 5.9 C 68 6.9 68.5 8.3 68.5 10.2 C 68.5 11.6 68.3 12.8 67.8 13.6 C 67.4 14.5 66.8 15.1 65.9 15.6 C 65.1 16 64.1 16.3 63.2 16.3 C 61.6 16.3 60.3 15.8 59.3 14.7 C 58.3 13.7 57.8 12.2 57.8 10.3 Z M 59.8 10.3 C 59.8 11.8 60.1 12.9 60.7 13.6 C 61.4 14.3 62.2 14.7 63.2 14.7 C 64.1 14.7 64.9 14.3 65.5 13.6 C 66.2 12.9 66.5 11.7 66.5 10.2 C 66.5 8.8 66.2 7.8 65.5 7 C 64.9 6.3 64.1 6 63.2 6 C 62.2 6 61.4 6.3 60.7 7 C 60.1 7.8 59.8 8.9 59.8 10.3 Z M 70 10.3 C 70 8.2 70.6 6.6 71.8 5.6 C 72.8 4.8 74 4.4 75.4 4.4 C 77 4.4 78.2 4.9 79.2 5.9 C 80.2 6.9 80.7 8.3 80.7 10.2 C 80.7 11.6 80.5 12.8 80.1 13.6 C 79.6 14.5 79 15.1 78.1 15.6 C 77.3 16 76.4 16.3 75.4 16.3 C 73.8 16.3 72.5 15.8 71.5 14.7 C 70.5 13.7 70 12.2 70 10.3 Z M 72 10.3 C 72 11.8 72.3 12.9 73 13.6 C 73.6 14.3 74.4 14.7 75.4 14.7 C 76.3 14.7 77.1 14.3 77.8 13.6 C 78.4 12.9 78.7 11.7 78.7 10.2 C 78.7 8.8 78.4 7.8 77.8 7 C 77.1 6.3 76.3 6 75.4 6 C 74.4 6 73.6 6.3 73 7 C 72.3 7.8 72 8.9 72 10.3 Z M 83 16 L 83 0.3 L 84.9 0.3 L 84.9 9.2 L 89.5 4.6 L 92 4.6 L 87.7 8.8 L 92.5 16 L 90.1 16 L 86.3 10.2 L 84.9 11.5 L 84.9 16 L 83 16 Z M 93.2 12.6 C 93.2 12.6 95.1 12.3 95.1 12.3 C 95.2 13.1 95.5 13.7 96 14.1 C 96.5 14.5 97.2 14.7 98.1 14.7 C 99 14.7 99.6 14.5 100.1 14.1 C 100.5 13.8 100.7 13.4 100.7 12.9 C 100.7 12.4 100.5 12.1 100.1 11.8 C 99.9 11.7 99.2 11.4 98.2 11.2 C 96.7 10.8 95.8 10.5 95.2 10.3 C 94.7 10 94.3 9.6 94 9.2 C 93.7 8.7 93.5 8.2 93.5 7.6 C 93.5 7.1 93.7 6.7 93.9 6.2 C 94.1 5.8 94.4 5.4 94.8 5.1 C 95.1 4.9 95.6 4.7 96.1 4.6 C 96.6 4.4 97.1 4.4 97.7 4.4 C 98.6 4.4 99.4 4.5 100.1 4.7 C 100.8 5 101.3 5.3 101.6 5.8 C 101.9 6.2 102.1 6.8 102.3 7.6 C 102.3 7.6 100.4 7.8 100.4 7.8 C 100.3 7.2 100 6.8 99.6 6.4 C 99.2 6.1 98.6 5.9 97.9 5.9 C 97 5.9 96.4 6.1 96 6.4 C 95.6 6.7 95.4 7 95.4 7.4 C 95.4 7.7 95.5 7.9 95.6 8.1 C 95.8 8.3 96.1 8.5 96.4 8.6 C 96.6 8.7 97.2 8.8 98.1 9.1 C 99.5 9.5 100.4 9.8 101 10 C 101.5 10.2 101.9 10.6 102.2 11 C 102.5 11.5 102.7 12 102.7 12.7 C 102.7 13.3 102.5 13.9 102.1 14.5 C 101.8 15.1 101.2 15.5 100.5 15.8 C 99.8 16.1 99 16.3 98.1 16.3 C 96.6 16.3 95.5 16 94.7 15.4 C 93.9 14.7 93.4 13.8 93.2 12.6 Z M 122.5 16.4 C 121.7 15.9 120.9 15.1 120.1 14.2 C 119.5 14.9 118.8 15.4 118 15.8 C 117.3 16.1 116.5 16.3 115.6 16.3 C 114 16.3 112.7 15.7 111.8 14.7 C 111 13.8 110.6 12.8 110.6 11.7 C 110.6 10.7 110.9 9.8 111.5 9 C 112.2 8.3 113.1 7.6 114.4 7 C 113.6 6.2 113.2 5.5 112.9 5 C 112.7 4.5 112.6 4 112.6 3.5 C 112.6 2.6 112.9 1.7 113.7 1 C 114.4 0.3 115.4 0 116.5 0 C 117.6 0 118.4 0.3 119.1 1 C 119.8 1.6 120.2 2.4 120.2 3.4 C 120.2 4.9 119.2 6.1 117.2 7.2 C 117.2 7.2 120 10.8 120 10.8 C 120.3 10.2 120.6 9.4 120.8 8.6 C 120.8 8.6 122.8 9 122.8 9 C 122.4 10.4 122 11.5 121.4 12.4 C 122.1 13.4 122.9 14.2 123.8 14.8 C 123.83 14.85 122.5 16.4 122.5 16.4 C 122.5 16.4 122.53 16.38 122.5 16.4 Z M 116.2 6 C 117 5.5 117.6 5 117.8 4.7 C 118.1 4.3 118.2 3.9 118.2 3.4 C 118.2 2.9 118 2.4 117.7 2.1 C 117.3 1.8 116.9 1.6 116.4 1.6 C 115.9 1.6 115.4 1.8 115.1 2.1 C 114.7 2.4 114.6 2.8 114.6 3.3 C 114.6 3.6 114.6 3.8 114.8 4.1 C 114.9 4.4 115.1 4.7 115.3 5 C 115.3 5 116.2 6 116.2 6 Z M 118.9 12.6 C 118.9 12.6 115.3 8.2 115.3 8.2 C 114.3 8.9 113.6 9.4 113.2 10 C 112.9 10.5 112.7 11 112.7 11.6 C 112.7 12.2 112.9 12.9 113.4 13.5 C 114 14.2 114.7 14.6 115.6 14.6 C 116.2 14.6 116.8 14.4 117.4 14 C 118 13.7 118.5 13.2 118.9 12.6 Z M 132.2 16 L 132.2 0.3 C 132.2 0.3 139.15 0.27 139.2 0.3 C 140.6 0.3 141.6 0.4 142.4 0.7 C 143.1 1 143.7 1.5 144.1 2.2 C 144.5 2.9 144.8 3.7 144.8 4.6 C 144.8 5.7 144.4 6.6 143.7 7.4 C 143 8.2 141.8 8.6 140.3 8.9 C 140.9 9.1 141.3 9.4 141.6 9.6 C 142.2 10.2 142.8 10.9 143.3 11.7 C 143.31 11.73 146.1 16 146.1 16 L 143.4 16 C 143.4 16 141.35 12.74 141.3 12.7 C 140.7 11.8 140.2 11.1 139.8 10.6 C 139.4 10.1 139.1 9.7 138.8 9.5 C 138.5 9.3 138.2 9.2 137.8 9.1 C 137.6 9 137.2 9 136.7 9 C 136.67 9.02 134.3 9 134.3 9 L 134.3 16 L 132.2 16 Z M 134.3 7.2 C 134.3 7.2 138.74 7.22 138.7 7.2 C 139.7 7.2 140.4 7.1 141 6.9 C 141.5 6.7 141.9 6.4 142.2 6 C 142.5 5.5 142.6 5.1 142.6 4.6 C 142.6 3.8 142.3 3.2 141.8 2.7 C 141.3 2.2 140.4 2 139.2 2 C 139.24 2.01 134.3 2 134.3 2 L 134.3 7.2 Z M 148.1 16 L 148.1 0.3 L 159.5 0.3 L 159.5 2.1 L 150.2 2.1 L 150.2 7 L 158.9 7 L 158.9 8.8 L 150.2 8.8 L 150.2 14.2 L 159.8 14.2 L 159.8 16 L 148.1 16 Z M 162 11 C 162 11 164 10.8 164 10.8 C 164.1 11.6 164.3 12.2 164.6 12.7 C 164.9 13.2 165.5 13.6 166.2 13.9 C 166.9 14.3 167.7 14.4 168.6 14.4 C 169.4 14.4 170.1 14.3 170.7 14.1 C 171.3 13.8 171.8 13.5 172.1 13.1 C 172.4 12.7 172.5 12.2 172.5 11.7 C 172.5 11.2 172.4 10.8 172.1 10.4 C 171.8 10.1 171.3 9.8 170.7 9.5 C 170.2 9.4 169.3 9.1 167.9 8.7 C 166.4 8.4 165.4 8.1 164.8 7.8 C 164.1 7.4 163.5 6.9 163.1 6.3 C 162.8 5.7 162.6 5.1 162.6 4.3 C 162.6 3.5 162.8 2.8 163.3 2.1 C 163.7 1.4 164.4 0.9 165.2 0.5 C 166.1 0.2 167.1 0 168.1 0 C 169.3 0 170.3 0.2 171.2 0.6 C 172.1 0.9 172.8 1.5 173.3 2.2 C 173.8 3 174 3.8 174.1 4.7 C 174.1 4.7 172.1 4.9 172.1 4.9 C 172 3.9 171.6 3.1 171 2.6 C 170.3 2.1 169.4 1.8 168.2 1.8 C 167 1.8 166 2.1 165.5 2.5 C 164.9 3 164.6 3.5 164.6 4.2 C 164.6 4.8 164.8 5.2 165.2 5.6 C 165.6 6 166.7 6.3 168.4 6.7 C 170.1 7.1 171.2 7.4 171.8 7.7 C 172.8 8.1 173.4 8.7 173.9 9.3 C 174.3 10 174.5 10.7 174.5 11.6 C 174.5 12.4 174.3 13.2 173.8 13.9 C 173.3 14.7 172.6 15.3 171.7 15.7 C 170.8 16.1 169.8 16.3 168.7 16.3 C 167.3 16.3 166.1 16.1 165.1 15.7 C 164.2 15.2 163.4 14.6 162.9 13.8 C 162.3 13 162 12 162 11 Z M 181.4 16 L 181.4 2.1 L 176.2 2.1 L 176.2 0.3 L 188.7 0.3 L 188.7 2.1 L 183.5 2.1 L 183.5 16 L 181.4 16 Z M 193.6 16 L 199.6 0.3 L 201.9 0.3 L 208.3 16 L 205.9 16 L 204.1 11.2 L 197.5 11.2 L 195.8 16 L 193.6 16 Z M 198.1 9.5 L 203.5 9.5 C 203.5 9.5 201.82 5.19 201.8 5.2 C 201.3 3.9 201 2.8 200.7 1.9 C 200.5 2.9 200.2 3.9 199.9 4.9 C 199.86 4.93 198.1 9.5 198.1 9.5 Z M 210 16 L 210 0.3 C 210 0.3 215.93 0.27 215.9 0.3 C 217 0.3 217.8 0.3 218.3 0.4 C 219.1 0.5 219.7 0.8 220.3 1.2 C 220.8 1.5 221.2 2 221.5 2.7 C 221.8 3.3 222 4 222 4.8 C 222 6.2 221.6 7.3 220.7 8.2 C 219.9 9.2 218.3 9.6 216.1 9.6 C 216.11 9.61 212.1 9.6 212.1 9.6 L 212.1 16 L 210 16 Z M 212.1 7.8 C 212.1 7.8 216.14 7.76 216.1 7.8 C 217.5 7.8 218.4 7.5 219 7 C 219.6 6.5 219.9 5.8 219.9 4.9 C 219.9 4.2 219.7 3.7 219.4 3.2 C 219 2.7 218.6 2.4 218 2.3 C 217.7 2.2 217 2.1 216.1 2.1 C 216.1 2.13 212.1 2.1 212.1 2.1 L 212.1 7.8 Z M 225 16 L 225 0.3 L 227.1 0.3 L 227.1 16 L 225 16 Z M 229.8 12.6 C 229.8 12.6 231.7 12.3 231.7 12.3 C 231.8 13.1 232.1 13.7 232.6 14.1 C 233.1 14.5 233.7 14.7 234.6 14.7 C 235.5 14.7 236.2 14.5 236.6 14.1 C 237 13.8 237.2 13.4 237.2 12.9 C 237.2 12.4 237.1 12.1 236.7 11.8 C 236.4 11.7 235.7 11.4 234.7 11.2 C 233.3 10.8 232.3 10.5 231.7 10.3 C 231.2 10 230.8 9.6 230.5 9.2 C 230.2 8.7 230.1 8.2 230.1 7.6 C 230.1 7.1 230.2 6.7 230.4 6.2 C 230.7 5.8 231 5.4 231.4 5.1 C 231.7 4.9 232.1 4.7 232.6 4.6 C 233.1 4.4 233.7 4.4 234.3 4.4 C 235.2 4.4 236 4.5 236.6 4.7 C 237.3 5 237.8 5.3 238.1 5.8 C 238.5 6.2 238.7 6.8 238.8 7.6 C 238.8 7.6 236.9 7.8 236.9 7.8 C 236.8 7.2 236.6 6.8 236.2 6.4 C 235.7 6.1 235.2 5.9 234.4 5.9 C 233.5 5.9 232.9 6.1 232.5 6.4 C 232.1 6.7 231.9 7 231.9 7.4 C 231.9 7.7 232 7.9 232.2 8.1 C 232.3 8.3 232.6 8.5 232.9 8.6 C 233.1 8.7 233.7 8.8 234.6 9.1 C 236 9.5 237 9.8 237.5 10 C 238 10.2 238.5 10.6 238.8 11 C 239.1 11.5 239.2 12 239.2 12.7 C 239.2 13.3 239 13.9 238.7 14.5 C 238.3 15.1 237.7 15.5 237 15.8 C 236.3 16.1 235.5 16.3 234.6 16.3 C 233.1 16.3 232 16 231.2 15.4 C 230.5 14.7 230 13.8 229.8 12.6 Z " stroke="none" fill="#000"/>  </g></svg>