<?xml version="1.0" standalone="no"?><!DOCTYPE svg PUBLIC "-//W3C//DTD SVG 1.1//EN" "http://www.w3.org/Graphics/SVG/1.1/DTD/svg11.dtd"><svg xmlns="http://www.w3.org/2000/svg" version="1.1" width="462.3px" height="37.6px" viewBox="0 -7 462.3 37.6" style="top:-7px">  <desc>Stretch Tools for Technical Learners</desc>  <defs/>  <g id="Polygon6725">    <path d="M 42.2 10.9 C 42.2 10.9 45.3 10.6 45.3 10.6 C 45.5 11.6 45.9 12.4 46.5 12.9 C 47 13.4 47.8 13.6 48.8 13.6 C 49.8 13.6 50.6 13.4 51.1 13 C 51.6 12.5 51.9 12 51.9 11.4 C 51.9 11.1 51.8 10.8 51.5 10.5 C 51.3 10.2 50.9 10 50.4 9.8 C 50 9.7 49.2 9.4 47.8 9.1 C 46.1 8.7 44.9 8.2 44.3 7.6 C 43.3 6.7 42.8 5.6 42.8 4.4 C 42.8 3.6 43 2.8 43.5 2.1 C 43.9 1.4 44.6 0.9 45.5 0.5 C 46.3 0.2 47.3 0 48.6 0 C 50.5 0 52 0.4 53 1.3 C 54 2.2 54.5 3.3 54.6 4.8 C 54.6 4.8 51.4 4.9 51.4 4.9 C 51.3 4.1 51 3.5 50.5 3.2 C 50.1 2.8 49.4 2.6 48.5 2.6 C 47.6 2.6 46.9 2.8 46.4 3.2 C 46 3.4 45.8 3.8 45.8 4.2 C 45.8 4.6 46 4.9 46.3 5.1 C 46.7 5.5 47.7 5.8 49.2 6.2 C 50.8 6.6 51.9 6.9 52.7 7.3 C 53.4 7.7 54 8.2 54.4 8.9 C 54.8 9.6 55 10.4 55 11.4 C 55 12.3 54.8 13.2 54.3 14 C 53.8 14.8 53.1 15.3 52.2 15.7 C 51.2 16.1 50.1 16.3 48.7 16.3 C 46.7 16.3 45.2 15.8 44.2 14.9 C 43.1 14 42.4 12.7 42.2 10.9 Z M 62.9 4.6 L 62.9 7 L 60.9 7 C 60.9 7 60.87 11.61 60.9 11.6 C 60.9 12.5 60.9 13.1 60.9 13.2 C 61 13.4 61.1 13.5 61.2 13.6 C 61.3 13.7 61.5 13.8 61.7 13.8 C 62 13.8 62.4 13.7 62.9 13.5 C 62.9 13.5 63.2 15.8 63.2 15.8 C 62.5 16.1 61.7 16.3 60.8 16.3 C 60.2 16.3 59.8 16.2 59.3 16 C 58.9 15.8 58.6 15.6 58.4 15.3 C 58.2 15 58 14.6 57.9 14.1 C 57.9 13.8 57.8 13.1 57.8 12 C 57.84 11.99 57.8 7 57.8 7 L 56.5 7 L 56.5 4.6 L 57.8 4.6 L 57.8 2.3 L 60.9 0.6 L 60.9 4.6 L 62.9 4.6 Z M 67.9 16 L 64.9 16 L 64.9 4.6 L 67.7 4.6 C 67.7 4.6 67.7 6.23 67.7 6.2 C 68.2 5.5 68.6 5 69 4.7 C 69.4 4.5 69.8 4.4 70.3 4.4 C 71 4.4 71.6 4.5 72.3 4.9 C 72.3 4.9 71.4 7.6 71.4 7.6 C 70.8 7.2 70.4 7.1 69.9 7.1 C 69.5 7.1 69.2 7.2 68.9 7.4 C 68.6 7.6 68.3 8.1 68.2 8.7 C 68 9.3 67.9 10.6 67.9 12.5 C 67.91 12.49 67.9 16 67.9 16 Z M 80.2 12.4 C 80.2 12.4 83.2 12.9 83.2 12.9 C 82.8 14 82.2 14.8 81.4 15.4 C 80.5 16 79.5 16.3 78.2 16.3 C 76.3 16.3 74.8 15.6 73.8 14.3 C 73.1 13.3 72.7 12 72.7 10.4 C 72.7 8.5 73.2 7 74.2 6 C 75.2 4.9 76.4 4.4 77.9 4.4 C 79.6 4.4 81 4.9 82 6 C 82.9 7.2 83.4 8.9 83.4 11.2 C 83.4 11.2 75.8 11.2 75.8 11.2 C 75.8 12.1 76.1 12.8 76.5 13.3 C 77 13.8 77.6 14 78.3 14 C 78.7 14 79.1 13.9 79.5 13.6 C 79.8 13.4 80 13 80.2 12.4 Z M 80.4 9.3 C 80.3 8.5 80.1 7.8 79.7 7.3 C 79.3 6.9 78.7 6.7 78.1 6.7 C 77.5 6.7 76.9 6.9 76.5 7.4 C 76.1 7.9 75.8 8.5 75.9 9.3 C 75.9 9.3 80.4 9.3 80.4 9.3 Z M 91.1 4.6 L 91.1 7 L 89 7 C 89 7 88.99 11.61 89 11.6 C 89 12.5 89 13.1 89 13.2 C 89.1 13.4 89.2 13.5 89.3 13.6 C 89.5 13.7 89.6 13.8 89.8 13.8 C 90.1 13.8 90.5 13.7 91 13.5 C 91 13.5 91.3 15.8 91.3 15.8 C 90.6 16.1 89.8 16.3 88.9 16.3 C 88.4 16.3 87.9 16.2 87.4 16 C 87 15.8 86.7 15.6 86.5 15.3 C 86.3 15 86.1 14.6 86.1 14.1 C 86 13.8 86 13.1 86 12 C 85.96 11.99 86 7 86 7 L 84.6 7 L 84.6 4.6 L 86 4.6 L 86 2.3 L 89 0.6 L 89 4.6 L 91.1 4.6 Z M 103.1 8 C 103.1 8 100.1 8.5 100.1 8.5 C 100 7.9 99.8 7.5 99.4 7.2 C 99.1 6.9 98.6 6.7 98.1 6.7 C 97.3 6.7 96.7 7 96.3 7.5 C 95.8 8 95.6 8.9 95.6 10.1 C 95.6 11.5 95.8 12.4 96.3 13 C 96.7 13.5 97.3 13.8 98.1 13.8 C 98.7 13.8 99.1 13.7 99.5 13.3 C 99.9 13 100.1 12.4 100.3 11.6 C 100.3 11.6 103.2 12.1 103.2 12.1 C 102.9 13.5 102.3 14.5 101.5 15.2 C 100.6 15.9 99.4 16.3 98 16.3 C 96.3 16.3 95 15.7 94 14.7 C 93 13.6 92.5 12.2 92.5 10.3 C 92.5 8.4 93 7 94 5.9 C 95 4.9 96.3 4.4 98 4.4 C 99.4 4.4 100.5 4.6 101.3 5.2 C 102.1 5.8 102.7 6.8 103.1 8 Z M 108.4 0.3 C 108.4 0.3 108.39 6.06 108.4 6.1 C 109.4 4.9 110.5 4.4 111.9 4.4 C 112.6 4.4 113.2 4.5 113.8 4.7 C 114.3 5 114.7 5.3 115 5.7 C 115.3 6.1 115.5 6.6 115.6 7.1 C 115.7 7.5 115.8 8.3 115.8 9.3 C 115.76 9.32 115.8 16 115.8 16 L 112.7 16 C 112.7 16 112.74 9.99 112.7 10 C 112.7 8.8 112.7 8 112.6 7.7 C 112.5 7.4 112.3 7.1 112 6.9 C 111.7 6.8 111.3 6.7 110.9 6.7 C 110.4 6.7 109.9 6.8 109.5 7 C 109.1 7.3 108.8 7.6 108.7 8.1 C 108.5 8.6 108.4 9.3 108.4 10.3 C 108.39 10.3 108.4 16 108.4 16 L 105.4 16 L 105.4 0.3 L 108.4 0.3 Z M 128.5 16 L 128.5 2.9 L 123.8 2.9 L 123.8 0.3 L 136.3 0.3 L 136.3 2.9 L 131.7 2.9 L 131.7 16 L 128.5 16 Z M 136 10.2 C 136 9.1 136.3 8.2 136.8 7.2 C 137.3 6.3 138 5.6 138.9 5.1 C 139.8 4.6 140.8 4.4 141.9 4.4 C 143.6 4.4 145.1 4.9 146.2 6 C 147.3 7.2 147.8 8.6 147.8 10.3 C 147.8 12 147.3 13.4 146.1 14.6 C 145 15.7 143.6 16.3 141.9 16.3 C 140.9 16.3 139.9 16 138.9 15.6 C 138 15.1 137.3 14.4 136.8 13.5 C 136.3 12.6 136 11.5 136 10.2 Z M 139.1 10.3 C 139.1 11.4 139.4 12.3 139.9 12.9 C 140.5 13.5 141.1 13.8 141.9 13.8 C 142.7 13.8 143.4 13.5 143.9 12.9 C 144.4 12.3 144.7 11.4 144.7 10.3 C 144.7 9.2 144.4 8.3 143.9 7.7 C 143.4 7.1 142.7 6.8 141.9 6.8 C 141.1 6.8 140.5 7.1 139.9 7.7 C 139.4 8.3 139.1 9.2 139.1 10.3 Z M 149.5 10.2 C 149.5 9.1 149.7 8.2 150.2 7.2 C 150.7 6.3 151.4 5.6 152.3 5.1 C 153.2 4.6 154.2 4.4 155.4 4.4 C 157.1 4.4 158.5 4.9 159.6 6 C 160.7 7.2 161.3 8.6 161.3 10.3 C 161.3 12 160.7 13.4 159.6 14.6 C 158.5 15.7 157.1 16.3 155.4 16.3 C 154.3 16.3 153.3 16 152.4 15.6 C 151.4 15.1 150.7 14.4 150.2 13.5 C 149.7 12.6 149.5 11.5 149.5 10.2 Z M 152.6 10.3 C 152.6 11.4 152.8 12.3 153.4 12.9 C 153.9 13.5 154.6 13.8 155.4 13.8 C 156.2 13.8 156.8 13.5 157.3 12.9 C 157.9 12.3 158.1 11.4 158.1 10.3 C 158.1 9.2 157.9 8.3 157.3 7.7 C 156.8 7.1 156.2 6.8 155.4 6.8 C 154.6 6.8 153.9 7.1 153.4 7.7 C 152.8 8.3 152.6 9.2 152.6 10.3 Z M 163.6 16 L 163.6 0.3 L 166.6 0.3 L 166.6 16 L 163.6 16 Z M 168.7 12.8 C 168.7 12.8 171.7 12.3 171.7 12.3 C 171.8 12.9 172.1 13.3 172.5 13.6 C 172.9 13.9 173.4 14.1 174.1 14.1 C 174.9 14.1 175.5 14 175.9 13.7 C 176.2 13.5 176.3 13.2 176.3 12.9 C 176.3 12.6 176.2 12.4 176.1 12.3 C 175.9 12.1 175.6 12 175.1 11.9 C 172.6 11.4 171.1 10.9 170.4 10.4 C 169.5 9.8 169.1 8.9 169.1 7.9 C 169.1 6.9 169.5 6 170.3 5.4 C 171 4.7 172.2 4.4 173.9 4.4 C 175.4 4.4 176.6 4.6 177.4 5.1 C 178.1 5.6 178.6 6.4 178.9 7.4 C 178.9 7.4 176.1 7.9 176.1 7.9 C 176 7.5 175.7 7.1 175.4 6.9 C 175.1 6.6 174.6 6.5 173.9 6.5 C 173.1 6.5 172.6 6.6 172.2 6.9 C 172 7 171.9 7.2 171.9 7.5 C 171.9 7.7 172 7.9 172.2 8 C 172.5 8.2 173.4 8.5 175 8.9 C 176.6 9.2 177.7 9.7 178.4 10.2 C 179 10.7 179.3 11.5 179.3 12.5 C 179.3 13.5 178.9 14.4 178 15.1 C 177.1 15.9 175.8 16.3 174.1 16.3 C 172.6 16.3 171.3 16 170.4 15.3 C 169.5 14.7 168.9 13.8 168.7 12.8 Z M 186.8 4.6 L 188.4 4.6 C 188.4 4.6 188.43 3.75 188.4 3.7 C 188.4 2.8 188.5 2.1 188.7 1.6 C 188.9 1.1 189.3 0.7 189.9 0.4 C 190.4 0.1 191.1 0 191.9 0 C 192.8 0 193.6 0.1 194.5 0.4 C 194.5 0.4 194.1 2.5 194.1 2.5 C 193.6 2.4 193.1 2.3 192.7 2.3 C 192.2 2.3 191.9 2.4 191.7 2.6 C 191.5 2.8 191.4 3.2 191.4 3.8 C 191.45 3.8 191.4 4.6 191.4 4.6 L 193.7 4.6 L 193.7 7 L 191.4 7 L 191.4 16 L 188.4 16 L 188.4 7 L 186.8 7 L 186.8 4.6 Z M 194.7 10.2 C 194.7 9.1 195 8.2 195.4 7.2 C 195.9 6.3 196.6 5.6 197.5 5.1 C 198.5 4.6 199.5 4.4 200.6 4.4 C 202.3 4.4 203.7 4.9 204.8 6 C 205.9 7.2 206.5 8.6 206.5 10.3 C 206.5 12 205.9 13.4 204.8 14.6 C 203.7 15.7 202.3 16.3 200.6 16.3 C 199.6 16.3 198.6 16 197.6 15.6 C 196.7 15.1 195.9 14.4 195.4 13.5 C 195 12.6 194.7 11.5 194.7 10.2 Z M 197.8 10.3 C 197.8 11.4 198.1 12.3 198.6 12.9 C 199.1 13.5 199.8 13.8 200.6 13.8 C 201.4 13.8 202 13.5 202.6 12.9 C 203.1 12.3 203.4 11.4 203.4 10.3 C 203.4 9.2 203.1 8.3 202.6 7.7 C 202 7.1 201.4 6.8 200.6 6.8 C 199.8 6.8 199.1 7.1 198.6 7.7 C 198.1 8.3 197.8 9.2 197.8 10.3 Z M 211.7 16 L 208.7 16 L 208.7 4.6 L 211.5 4.6 C 211.5 4.6 211.52 6.23 211.5 6.2 C 212 5.5 212.4 5 212.8 4.7 C 213.2 4.5 213.6 4.4 214.1 4.4 C 214.8 4.4 215.5 4.5 216.1 4.9 C 216.1 4.9 215.2 7.6 215.2 7.6 C 214.7 7.2 214.2 7.1 213.8 7.1 C 213.3 7.1 213 7.2 212.7 7.4 C 212.4 7.6 212.2 8.1 212 8.7 C 211.8 9.3 211.7 10.6 211.7 12.5 C 211.73 12.49 211.7 16 211.7 16 Z M 227.1 16 L 227.1 2.9 L 222.4 2.9 L 222.4 0.3 L 234.9 0.3 L 234.9 2.9 L 230.3 2.9 L 230.3 16 L 227.1 16 Z M 241.9 12.4 C 241.9 12.4 244.9 12.9 244.9 12.9 C 244.5 14 243.9 14.8 243.1 15.4 C 242.3 16 241.2 16.3 240 16.3 C 238 16.3 236.5 15.6 235.6 14.3 C 234.8 13.3 234.4 12 234.4 10.4 C 234.4 8.5 234.9 7 235.9 6 C 236.9 4.9 238.2 4.4 239.7 4.4 C 241.4 4.4 242.7 4.9 243.7 6 C 244.7 7.2 245.1 8.9 245.1 11.2 C 245.1 11.2 237.5 11.2 237.5 11.2 C 237.6 12.1 237.8 12.8 238.3 13.3 C 238.7 13.8 239.3 14 240 14 C 240.5 14 240.9 13.9 241.2 13.6 C 241.5 13.4 241.8 13 241.9 12.4 Z M 242.1 9.3 C 242.1 8.5 241.9 7.8 241.4 7.3 C 241 6.9 240.5 6.7 239.9 6.7 C 239.2 6.7 238.7 6.9 238.2 7.4 C 237.8 7.9 237.6 8.5 237.6 9.3 C 237.6 9.3 242.1 9.3 242.1 9.3 Z M 257.5 8 C 257.5 8 254.5 8.5 254.5 8.5 C 254.4 7.9 254.2 7.5 253.8 7.2 C 253.5 6.9 253 6.7 252.5 6.7 C 251.7 6.7 251.1 7 250.7 7.5 C 250.2 8 250 8.9 250 10.1 C 250 11.5 250.2 12.4 250.7 13 C 251.1 13.5 251.7 13.8 252.5 13.8 C 253.1 13.8 253.5 13.7 253.9 13.3 C 254.3 13 254.5 12.4 254.7 11.6 C 254.7 11.6 257.7 12.1 257.7 12.1 C 257.3 13.5 256.8 14.5 255.9 15.2 C 255 15.9 253.8 16.3 252.4 16.3 C 250.7 16.3 249.4 15.7 248.4 14.7 C 247.4 13.6 246.9 12.2 246.9 10.3 C 246.9 8.4 247.4 7 248.4 5.9 C 249.4 4.9 250.7 4.4 252.4 4.4 C 253.8 4.4 254.9 4.6 255.7 5.2 C 256.6 5.8 257.1 6.8 257.5 8 Z M 262.8 0.3 C 262.8 0.3 262.8 6.06 262.8 6.1 C 263.8 4.9 264.9 4.4 266.3 4.4 C 267 4.4 267.6 4.5 268.2 4.7 C 268.7 5 269.1 5.3 269.4 5.7 C 269.7 6.1 269.9 6.6 270 7.1 C 270.1 7.5 270.2 8.3 270.2 9.3 C 270.17 9.32 270.2 16 270.2 16 L 267.1 16 C 267.1 16 267.15 9.99 267.1 10 C 267.1 8.8 267.1 8 267 7.7 C 266.9 7.4 266.7 7.1 266.4 6.9 C 266.1 6.8 265.7 6.7 265.3 6.7 C 264.8 6.7 264.3 6.8 263.9 7 C 263.5 7.3 263.3 7.6 263.1 8.1 C 262.9 8.6 262.8 9.3 262.8 10.3 C 262.8 10.3 262.8 16 262.8 16 L 259.8 16 L 259.8 0.3 L 262.8 0.3 Z M 283.6 16 L 280.6 16 C 280.6 16 280.59 10.19 280.6 10.2 C 280.6 9 280.5 8.2 280.4 7.8 C 280.3 7.4 280.1 7.2 279.8 7 C 279.5 6.8 279.1 6.7 278.7 6.7 C 278.2 6.7 277.7 6.8 277.3 7.1 C 276.9 7.4 276.6 7.8 276.5 8.2 C 276.3 8.7 276.2 9.6 276.2 10.8 C 276.23 10.85 276.2 16 276.2 16 L 273.2 16 L 273.2 4.6 L 276 4.6 C 276 4.6 276.01 6.28 276 6.3 C 277 5 278.3 4.4 279.8 4.4 C 280.4 4.4 281 4.5 281.6 4.7 C 282.1 5 282.6 5.3 282.8 5.6 C 283.1 6 283.3 6.4 283.4 6.9 C 283.6 7.4 283.6 8 283.6 8.9 C 283.61 8.93 283.6 16 283.6 16 Z M 286.7 3.1 L 286.7 0.3 L 289.7 0.3 L 289.7 3.1 L 286.7 3.1 Z M 286.7 16 L 286.7 4.6 L 289.7 4.6 L 289.7 16 L 286.7 16 Z M 302.7 8 C 302.7 8 299.8 8.5 299.8 8.5 C 299.7 7.9 299.4 7.5 299.1 7.2 C 298.7 6.9 298.3 6.7 297.7 6.7 C 296.9 6.7 296.3 7 295.9 7.5 C 295.4 8 295.2 8.9 295.2 10.1 C 295.2 11.5 295.4 12.4 295.9 13 C 296.4 13.5 297 13.8 297.7 13.8 C 298.3 13.8 298.8 13.7 299.1 13.3 C 299.5 13 299.8 12.4 299.9 11.6 C 299.9 11.6 302.9 12.1 302.9 12.1 C 302.6 13.5 302 14.5 301.1 15.2 C 300.2 15.9 299.1 16.3 297.6 16.3 C 295.9 16.3 294.6 15.7 293.6 14.7 C 292.6 13.6 292.1 12.2 292.1 10.3 C 292.1 8.4 292.6 7 293.6 5.9 C 294.6 4.9 295.9 4.4 297.6 4.4 C 299 4.4 300.1 4.6 301 5.2 C 301.8 5.8 302.4 6.8 302.7 8 Z M 307.3 8.1 C 307.3 8.1 304.5 7.6 304.5 7.6 C 304.8 6.5 305.4 5.7 306.1 5.1 C 306.9 4.6 308 4.4 309.5 4.4 C 310.8 4.4 311.8 4.5 312.5 4.8 C 313.1 5.1 313.6 5.6 313.9 6 C 314.1 6.5 314.3 7.4 314.3 8.7 C 314.3 8.7 314.2 12.3 314.2 12.3 C 314.2 13.3 314.3 14 314.4 14.5 C 314.5 15 314.7 15.5 314.9 16 C 314.9 16 311.9 16 311.9 16 C 311.9 15.8 311.8 15.5 311.7 15.1 C 311.6 14.9 311.6 14.8 311.5 14.8 C 311 15.3 310.5 15.6 309.9 15.9 C 309.3 16.1 308.7 16.3 308 16.3 C 306.8 16.3 305.9 16 305.2 15.3 C 304.6 14.7 304.2 13.9 304.2 12.9 C 304.2 12.3 304.4 11.7 304.7 11.2 C 305 10.7 305.4 10.3 306 10 C 306.5 9.7 307.3 9.5 308.4 9.3 C 309.8 9 310.8 8.8 311.3 8.6 C 311.3 8.6 311.3 8.3 311.3 8.3 C 311.3 7.7 311.2 7.3 310.9 7 C 310.6 6.8 310.1 6.7 309.3 6.7 C 308.7 6.7 308.3 6.8 308 7 C 307.7 7.2 307.5 7.6 307.3 8.1 Z M 311.3 10.5 C 310.9 10.7 310.3 10.8 309.5 11 C 308.6 11.2 308.1 11.4 307.8 11.5 C 307.4 11.8 307.2 12.2 307.2 12.6 C 307.2 13 307.4 13.4 307.7 13.7 C 308 14 308.4 14.1 308.9 14.1 C 309.5 14.1 310 14 310.5 13.6 C 310.8 13.3 311.1 13 311.2 12.6 C 311.3 12.4 311.3 11.9 311.3 11.1 C 311.3 11.1 311.3 10.5 311.3 10.5 Z M 317.3 16 L 317.3 0.3 L 320.3 0.3 L 320.3 16 L 317.3 16 Z M 329.6 16 L 329.6 0.4 L 332.8 0.4 L 332.8 13.4 L 340.7 13.4 L 340.7 16 L 329.6 16 Z M 349.5 12.4 C 349.5 12.4 352.5 12.9 352.5 12.9 C 352.1 14 351.5 14.8 350.7 15.4 C 349.9 16 348.8 16.3 347.6 16.3 C 345.6 16.3 344.1 15.6 343.2 14.3 C 342.4 13.3 342 12 342 10.4 C 342 8.5 342.5 7 343.5 6 C 344.5 4.9 345.8 4.4 347.3 4.4 C 349 4.4 350.3 4.9 351.3 6 C 352.3 7.2 352.7 8.9 352.7 11.2 C 352.7 11.2 345.1 11.2 345.1 11.2 C 345.1 12.1 345.4 12.8 345.9 13.3 C 346.3 13.8 346.9 14 347.6 14 C 348.1 14 348.5 13.9 348.8 13.6 C 349.1 13.4 349.4 13 349.5 12.4 Z M 349.7 9.3 C 349.7 8.5 349.4 7.8 349 7.3 C 348.6 6.9 348.1 6.7 347.4 6.7 C 346.8 6.7 346.2 6.9 345.8 7.4 C 345.4 7.9 345.2 8.5 345.2 9.3 C 345.2 9.3 349.7 9.3 349.7 9.3 Z M 357.4 8.1 C 357.4 8.1 354.7 7.6 354.7 7.6 C 355 6.5 355.5 5.7 356.3 5.1 C 357 4.6 358.1 4.4 359.6 4.4 C 361 4.4 362 4.5 362.6 4.8 C 363.3 5.1 363.7 5.6 364 6 C 364.3 6.5 364.4 7.4 364.4 8.7 C 364.4 8.7 364.4 12.3 364.4 12.3 C 364.4 13.3 364.4 14 364.5 14.5 C 364.6 15 364.8 15.5 365.1 16 C 365.1 16 362.1 16 362.1 16 C 362 15.8 361.9 15.5 361.8 15.1 C 361.7 14.9 361.7 14.8 361.7 14.8 C 361.2 15.3 360.6 15.6 360 15.9 C 359.4 16.1 358.8 16.3 358.1 16.3 C 357 16.3 356 16 355.4 15.3 C 354.7 14.7 354.4 13.9 354.4 12.9 C 354.4 12.3 354.5 11.7 354.8 11.2 C 355.1 10.7 355.6 10.3 356.1 10 C 356.7 9.7 357.5 9.5 358.5 9.3 C 359.9 9 360.9 8.8 361.4 8.6 C 361.4 8.6 361.4 8.3 361.4 8.3 C 361.4 7.7 361.3 7.3 361 7 C 360.7 6.8 360.2 6.7 359.4 6.7 C 358.9 6.7 358.4 6.8 358.1 7 C 357.8 7.2 357.6 7.6 357.4 8.1 Z M 361.4 10.5 C 361.1 10.7 360.4 10.8 359.6 11 C 358.8 11.2 358.2 11.4 358 11.5 C 357.6 11.8 357.4 12.2 357.4 12.6 C 357.4 13 357.5 13.4 357.8 13.7 C 358.2 14 358.6 14.1 359 14.1 C 359.6 14.1 360.1 14 360.6 13.6 C 361 13.3 361.2 13 361.3 12.6 C 361.4 12.4 361.4 11.9 361.4 11.1 C 361.4 11.1 361.4 10.5 361.4 10.5 Z M 370.3 16 L 367.3 16 L 367.3 4.6 L 370.1 4.6 C 370.1 4.6 370.06 6.23 370.1 6.2 C 370.5 5.5 371 5 371.4 4.7 C 371.7 4.5 372.2 4.4 372.7 4.4 C 373.3 4.4 374 4.5 374.6 4.9 C 374.6 4.9 373.7 7.6 373.7 7.6 C 373.2 7.2 372.7 7.1 372.3 7.1 C 371.9 7.1 371.5 7.2 371.2 7.4 C 370.9 7.6 370.7 8.1 370.5 8.7 C 370.4 9.3 370.3 10.6 370.3 12.5 C 370.27 12.49 370.3 16 370.3 16 Z M 386.3 16 L 383.3 16 C 383.3 16 383.3 10.19 383.3 10.2 C 383.3 9 383.2 8.2 383.1 7.8 C 383 7.4 382.8 7.2 382.5 7 C 382.2 6.8 381.8 6.7 381.4 6.7 C 380.9 6.7 380.4 6.8 380 7.1 C 379.6 7.4 379.3 7.8 379.2 8.2 C 379 8.7 378.9 9.6 378.9 10.8 C 378.94 10.85 378.9 16 378.9 16 L 375.9 16 L 375.9 4.6 L 378.7 4.6 C 378.7 4.6 378.73 6.28 378.7 6.3 C 379.7 5 381 4.4 382.5 4.4 C 383.2 4.4 383.8 4.5 384.3 4.7 C 384.9 5 385.3 5.3 385.6 5.6 C 385.8 6 386 6.4 386.2 6.9 C 386.3 7.4 386.3 8 386.3 8.9 C 386.32 8.93 386.3 16 386.3 16 Z M 396 12.4 C 396 12.4 399 12.9 399 12.9 C 398.6 14 398 14.8 397.2 15.4 C 396.3 16 395.3 16.3 394 16.3 C 392.1 16.3 390.6 15.6 389.6 14.3 C 388.9 13.3 388.5 12 388.5 10.4 C 388.5 8.5 389 7 390 6 C 391 4.9 392.2 4.4 393.7 4.4 C 395.4 4.4 396.8 4.9 397.8 6 C 398.7 7.2 399.2 8.9 399.2 11.2 C 399.2 11.2 391.6 11.2 391.6 11.2 C 391.6 12.1 391.9 12.8 392.3 13.3 C 392.8 13.8 393.4 14 394.1 14 C 394.5 14 394.9 13.9 395.3 13.6 C 395.6 13.4 395.8 13 396 12.4 Z M 396.2 9.3 C 396.1 8.5 395.9 7.8 395.5 7.3 C 395.1 6.9 394.5 6.7 393.9 6.7 C 393.3 6.7 392.7 6.9 392.3 7.4 C 391.9 7.9 391.6 8.5 391.7 9.3 C 391.7 9.3 396.2 9.3 396.2 9.3 Z M 404.5 16 L 401.5 16 L 401.5 4.6 L 404.3 4.6 C 404.3 4.6 404.3 6.23 404.3 6.2 C 404.8 5.5 405.2 5 405.6 4.7 C 406 4.5 406.4 4.4 406.9 4.4 C 407.6 4.4 408.2 4.5 408.9 4.9 C 408.9 4.9 407.9 7.6 407.9 7.6 C 407.4 7.2 407 7.1 406.5 7.1 C 406.1 7.1 405.7 7.2 405.5 7.4 C 405.2 7.6 404.9 8.1 404.8 8.7 C 404.6 9.3 404.5 10.6 404.5 12.5 C 404.51 12.49 404.5 16 404.5 16 Z M 409.1 12.8 C 409.1 12.8 412.1 12.3 412.1 12.3 C 412.3 12.9 412.5 13.3 412.9 13.6 C 413.3 13.9 413.9 14.1 414.6 14.1 C 415.4 14.1 416 14 416.3 13.7 C 416.6 13.5 416.7 13.2 416.7 12.9 C 416.7 12.6 416.7 12.4 416.5 12.3 C 416.4 12.1 416 12 415.5 11.9 C 413.1 11.4 411.5 10.9 410.9 10.4 C 410 9.8 409.5 8.9 409.5 7.9 C 409.5 6.9 409.9 6 410.7 5.4 C 411.5 4.7 412.7 4.4 414.3 4.4 C 415.9 4.4 417.1 4.6 417.8 5.1 C 418.6 5.6 419.1 6.4 419.4 7.4 C 419.4 7.4 416.5 7.9 416.5 7.9 C 416.4 7.5 416.2 7.1 415.8 6.9 C 415.5 6.6 415 6.5 414.4 6.5 C 413.6 6.5 413 6.6 412.7 6.9 C 412.5 7 412.3 7.2 412.3 7.5 C 412.3 7.7 412.4 7.9 412.6 8 C 412.9 8.2 413.9 8.5 415.5 8.9 C 417.1 9.2 418.2 9.7 418.8 10.2 C 419.5 10.7 419.8 11.5 419.8 12.5 C 419.8 13.5 419.3 14.4 418.5 15.1 C 417.6 15.9 416.3 16.3 414.6 16.3 C 413 16.3 411.8 16 410.9 15.3 C 410 14.7 409.4 13.8 409.1 12.8 Z " stroke="none" fill="#e4007e"/>  </g></svg>