<?xml version="1.0" standalone="no"?><!DOCTYPE svg PUBLIC "-//W3C//DTD SVG 1.1//EN" "http://www.w3.org/Graphics/SVG/1.1/DTD/svg11.dtd"><svg xmlns="http://www.w3.org/2000/svg" version="1.1" width="421.4px" height="82.7px" viewBox="0 -8 421.4 82.7" style="top:-8px">  <desc>Tier 2 Extended Tech Stack</desc>  <defs/>  <g id="Polygon7066">    <path d="M 99.8 39.7 L 99.8 43.5 L 104.9 43.5 L 104.9 46 L 99.8 46 L 99.8 50.1 L 105.6 50.1 L 105.6 52.6 L 96.7 52.6 L 96.7 37.2 L 105.6 37.2 L 105.6 39.7 L 99.8 39.7 Z M 115.1 52.6 L 112.6 48.8 L 110.4 52.6 L 107.1 52.6 L 111.1 46.4 L 107 40.4 L 110.5 40.4 L 113 44.1 L 115.2 40.4 L 118.5 40.4 L 114.5 46.4 L 118.6 52.6 L 115.1 52.6 Z M 123.8 42.9 C 123.8 42.9 123.84 48.8 123.8 48.8 C 123.8 49.2 123.9 49.5 124.1 49.7 C 124.3 49.9 124.7 50 125.1 50 C 125.14 49.97 126.6 50 126.6 50 L 126.6 52.6 C 126.6 52.6 124.64 52.56 124.6 52.6 C 122 52.6 120.7 51.3 120.7 48.8 C 120.74 48.78 120.7 42.9 120.7 42.9 L 119.3 42.9 L 119.3 40.4 L 120.7 40.4 L 120.7 37.4 L 123.8 37.4 L 123.8 40.4 L 126.6 40.4 L 126.6 42.9 L 123.8 42.9 Z M 140.1 46.2 C 140.1 46.6 140.1 47 140 47.4 C 140 47.4 131.1 47.4 131.1 47.4 C 131.2 48.3 131.5 49 132 49.5 C 132.6 50 133.3 50.2 134.1 50.2 C 135.2 50.2 136 49.7 136.5 48.7 C 136.5 48.7 139.8 48.7 139.8 48.7 C 139.5 49.9 138.8 50.9 137.8 51.6 C 136.8 52.4 135.6 52.8 134.1 52.8 C 132.9 52.8 131.9 52.5 131 52 C 130 51.5 129.3 50.7 128.8 49.8 C 128.3 48.8 128 47.7 128 46.5 C 128 45.2 128.3 44.1 128.8 43.1 C 129.3 42.2 130 41.5 130.9 40.9 C 131.9 40.4 132.9 40.2 134.1 40.2 C 135.3 40.2 136.3 40.4 137.2 40.9 C 138.1 41.4 138.9 42.1 139.4 43 C 139.9 44 140.1 45 140.1 46.2 C 140.1 46.2 140.1 46.2 140.1 46.2 Z M 136.9 45.3 C 136.9 44.5 136.6 43.9 136.1 43.4 C 135.5 42.9 134.8 42.7 134 42.7 C 133.3 42.7 132.6 42.9 132.1 43.4 C 131.6 43.9 131.3 44.5 131.1 45.3 C 131.1 45.3 136.9 45.3 136.9 45.3 Z M 149.1 40.2 C 150.6 40.2 151.7 40.7 152.6 41.6 C 153.5 42.5 154 43.8 154 45.4 C 153.98 45.41 154 52.6 154 52.6 L 150.9 52.6 C 150.9 52.6 150.9 45.83 150.9 45.8 C 150.9 44.9 150.7 44.1 150.2 43.6 C 149.7 43.1 149 42.8 148.2 42.8 C 147.3 42.8 146.7 43.1 146.2 43.6 C 145.7 44.1 145.4 44.9 145.4 45.8 C 145.45 45.83 145.4 52.6 145.4 52.6 L 142.4 52.6 L 142.4 40.4 L 145.4 40.4 C 145.4 40.4 145.45 41.89 145.4 41.9 C 145.9 41.4 146.4 41 147 40.6 C 147.7 40.3 148.4 40.2 149.1 40.2 C 149.1 40.2 149.1 40.2 149.1 40.2 Z M 156.1 46.4 C 156.1 45.2 156.4 44.1 156.9 43.1 C 157.3 42.2 158 41.5 158.9 40.9 C 159.7 40.4 160.7 40.2 161.7 40.2 C 162.5 40.2 163.3 40.3 164 40.7 C 164.7 41 165.3 41.5 165.7 42.1 C 165.69 42.07 165.7 36.3 165.7 36.3 L 168.8 36.3 L 168.8 52.6 L 165.7 52.6 C 165.7 52.6 165.69 50.76 165.7 50.8 C 165.3 51.4 164.8 51.8 164.1 52.2 C 163.4 52.6 162.6 52.8 161.7 52.8 C 160.7 52.8 159.7 52.5 158.9 52 C 158 51.4 157.3 50.7 156.9 49.7 C 156.4 48.8 156.1 47.7 156.1 46.4 C 156.1 46.4 156.1 46.4 156.1 46.4 Z M 165.7 46.5 C 165.7 45.7 165.6 45.1 165.3 44.5 C 165 44 164.6 43.6 164.1 43.3 C 163.6 43 163 42.9 162.5 42.9 C 161.9 42.9 161.4 43 160.9 43.3 C 160.4 43.6 160 44 159.7 44.5 C 159.4 45.1 159.3 45.7 159.3 46.4 C 159.3 47.2 159.4 47.8 159.7 48.3 C 160 48.9 160.4 49.3 160.9 49.6 C 161.4 49.9 161.9 50.1 162.5 50.1 C 163 50.1 163.6 49.9 164.1 49.6 C 164.6 49.3 165 48.9 165.3 48.4 C 165.6 47.9 165.7 47.2 165.7 46.5 C 165.7 46.5 165.7 46.5 165.7 46.5 Z M 183.2 46.2 C 183.2 46.6 183.1 47 183.1 47.4 C 183.1 47.4 174.2 47.4 174.2 47.4 C 174.2 48.3 174.5 49 175.1 49.5 C 175.6 50 176.3 50.2 177.1 50.2 C 178.2 50.2 179 49.7 179.5 48.7 C 179.5 48.7 182.8 48.7 182.8 48.7 C 182.5 49.9 181.8 50.9 180.8 51.6 C 179.8 52.4 178.6 52.8 177.1 52.8 C 176 52.8 174.9 52.5 174 52 C 173.1 51.5 172.3 50.7 171.8 49.8 C 171.3 48.8 171 47.7 171 46.5 C 171 45.2 171.3 44.1 171.8 43.1 C 172.3 42.2 173 41.5 174 40.9 C 174.9 40.4 175.9 40.2 177.1 40.2 C 178.3 40.2 179.3 40.4 180.3 40.9 C 181.2 41.4 181.9 42.1 182.4 43 C 182.9 44 183.2 45 183.2 46.2 C 183.2 46.2 183.2 46.2 183.2 46.2 Z M 180 45.3 C 179.9 44.5 179.7 43.9 179.1 43.4 C 178.5 42.9 177.9 42.7 177.1 42.7 C 176.3 42.7 175.7 42.9 175.1 43.4 C 174.6 43.9 174.3 44.5 174.2 45.3 C 174.2 45.3 180 45.3 180 45.3 Z M 184.6 46.4 C 184.6 45.2 184.9 44.1 185.3 43.1 C 185.8 42.2 186.5 41.5 187.4 40.9 C 188.2 40.4 189.2 40.2 190.2 40.2 C 191 40.2 191.7 40.3 192.5 40.7 C 193.2 41 193.8 41.5 194.2 42.1 C 194.18 42.07 194.2 36.3 194.2 36.3 L 197.3 36.3 L 197.3 52.6 L 194.2 52.6 C 194.2 52.6 194.18 50.76 194.2 50.8 C 193.8 51.4 193.3 51.8 192.6 52.2 C 191.9 52.6 191.1 52.8 190.2 52.8 C 189.1 52.8 188.2 52.5 187.4 52 C 186.5 51.4 185.8 50.7 185.3 49.7 C 184.9 48.8 184.6 47.7 184.6 46.4 C 184.6 46.4 184.6 46.4 184.6 46.4 Z M 194.2 46.5 C 194.2 45.7 194.1 45.1 193.8 44.5 C 193.5 44 193.1 43.6 192.6 43.3 C 192.1 43 191.5 42.9 191 42.9 C 190.4 42.9 189.9 43 189.4 43.3 C 188.9 43.6 188.5 44 188.2 44.5 C 187.9 45.1 187.8 45.7 187.8 46.4 C 187.8 47.2 187.9 47.8 188.2 48.3 C 188.5 48.9 188.9 49.3 189.4 49.6 C 189.9 49.9 190.4 50.1 191 50.1 C 191.5 50.1 192.1 49.9 192.6 49.6 C 193.1 49.3 193.5 48.9 193.8 48.4 C 194.1 47.9 194.2 47.2 194.2 46.5 C 194.2 46.5 194.2 46.5 194.2 46.5 Z M 216 37.2 L 216 39.7 L 211.9 39.7 L 211.9 52.6 L 208.8 52.6 L 208.8 39.7 L 204.7 39.7 L 204.7 37.2 L 216 37.2 Z M 229.6 46.2 C 229.6 46.6 229.5 47 229.5 47.4 C 229.5 47.4 220.6 47.4 220.6 47.4 C 220.6 48.3 221 49 221.5 49.5 C 222 50 222.7 50.2 223.5 50.2 C 224.6 50.2 225.5 49.7 225.9 48.7 C 225.9 48.7 229.3 48.7 229.3 48.7 C 228.9 49.9 228.2 50.9 227.2 51.6 C 226.2 52.4 225 52.8 223.6 52.8 C 222.4 52.8 221.3 52.5 220.4 52 C 219.5 51.5 218.8 50.7 218.2 49.8 C 217.7 48.8 217.5 47.7 217.5 46.5 C 217.5 45.2 217.7 44.1 218.2 43.1 C 218.7 42.2 219.5 41.5 220.4 40.9 C 221.3 40.4 222.4 40.2 223.6 40.2 C 224.7 40.2 225.8 40.4 226.7 40.9 C 227.6 41.4 228.3 42.1 228.8 43 C 229.3 44 229.6 45 229.6 46.2 C 229.6 46.2 229.6 46.2 229.6 46.2 Z M 226.4 45.3 C 226.4 44.5 226.1 43.9 225.5 43.4 C 225 42.9 224.3 42.7 223.5 42.7 C 222.7 42.7 222.1 42.9 221.6 43.4 C 221 43.9 220.7 44.5 220.6 45.3 C 220.6 45.3 226.4 45.3 226.4 45.3 Z M 231 46.5 C 231 45.2 231.3 44.1 231.8 43.2 C 232.3 42.2 233 41.5 233.9 41 C 234.8 40.4 235.9 40.2 237.1 40.2 C 238.6 40.2 239.8 40.6 240.8 41.3 C 241.8 42.1 242.5 43.1 242.8 44.5 C 242.8 44.5 239.5 44.5 239.5 44.5 C 239.3 44 239 43.5 238.6 43.2 C 238.2 42.9 237.6 42.8 237 42.8 C 236.2 42.8 235.5 43.1 234.9 43.8 C 234.4 44.4 234.2 45.3 234.2 46.5 C 234.2 47.6 234.4 48.5 234.9 49.2 C 235.5 49.8 236.2 50.1 237 50.1 C 238.3 50.1 239.1 49.6 239.5 48.4 C 239.5 48.4 242.8 48.4 242.8 48.4 C 242.5 49.8 241.8 50.8 240.8 51.6 C 239.8 52.4 238.5 52.8 237.1 52.8 C 235.9 52.8 234.8 52.5 233.9 52 C 233 51.5 232.3 50.7 231.8 49.8 C 231.3 48.8 231 47.7 231 46.5 C 231 46.5 231 46.5 231 46.5 Z M 251.9 40.2 C 252.8 40.2 253.7 40.4 254.4 40.8 C 255.1 41.2 255.7 41.8 256.1 42.6 C 256.5 43.4 256.7 44.3 256.7 45.4 C 256.68 45.41 256.7 52.6 256.7 52.6 L 253.6 52.6 C 253.6 52.6 253.6 45.83 253.6 45.8 C 253.6 44.9 253.4 44.1 252.9 43.6 C 252.4 43.1 251.7 42.8 250.9 42.8 C 250 42.8 249.4 43.1 248.9 43.6 C 248.4 44.1 248.1 44.9 248.1 45.8 C 248.14 45.83 248.1 52.6 248.1 52.6 L 245.1 52.6 L 245.1 36.3 L 248.1 36.3 C 248.1 36.3 248.14 41.89 248.1 41.9 C 248.5 41.4 249.1 41 249.7 40.6 C 250.4 40.3 251.1 40.2 251.9 40.2 C 251.9 40.2 251.9 40.2 251.9 40.2 Z M 270.1 52.7 C 269.1 52.7 268.1 52.5 267.2 52.2 C 266.4 51.8 265.7 51.3 265.2 50.6 C 264.7 49.9 264.5 49.1 264.4 48.1 C 264.4 48.1 267.7 48.1 267.7 48.1 C 267.8 48.8 268 49.3 268.4 49.6 C 268.8 50 269.4 50.2 270.1 50.2 C 270.8 50.2 271.4 50 271.8 49.7 C 272.2 49.3 272.4 48.9 272.4 48.3 C 272.4 47.9 272.2 47.5 272 47.2 C 271.7 46.9 271.3 46.7 270.9 46.5 C 270.5 46.3 269.9 46.1 269.2 45.9 C 268.2 45.6 267.4 45.4 266.8 45.1 C 266.1 44.8 265.6 44.4 265.2 43.8 C 264.7 43.2 264.5 42.4 264.5 41.5 C 264.5 40.5 264.7 39.8 265.2 39.1 C 265.6 38.4 266.3 37.9 267.1 37.5 C 267.9 37.2 268.8 37 269.9 37 C 271.5 37 272.8 37.4 273.8 38.1 C 274.7 38.9 275.3 40 275.4 41.4 C 275.4 41.4 272 41.4 272 41.4 C 272 40.8 271.8 40.4 271.3 40.1 C 270.9 39.7 270.4 39.5 269.7 39.5 C 269.1 39.5 268.6 39.7 268.2 40 C 267.9 40.3 267.7 40.8 267.7 41.3 C 267.7 41.8 267.8 42.1 268.1 42.4 C 268.4 42.6 268.7 42.9 269.1 43 C 269.5 43.2 270.1 43.4 270.8 43.6 C 271.8 43.9 272.6 44.2 273.3 44.5 C 273.9 44.8 274.4 45.2 274.9 45.8 C 275.3 46.4 275.6 47.2 275.6 48.1 C 275.6 48.9 275.4 49.7 274.9 50.4 C 274.5 51.1 273.9 51.7 273.1 52.1 C 272.2 52.5 271.3 52.7 270.1 52.7 C 270.1 52.7 270.1 52.7 270.1 52.7 Z M 281.8 42.9 C 281.8 42.9 281.82 48.8 281.8 48.8 C 281.8 49.2 281.9 49.5 282.1 49.7 C 282.3 49.9 282.7 50 283.1 50 C 283.12 49.97 284.6 50 284.6 50 L 284.6 52.6 C 284.6 52.6 282.61 52.56 282.6 52.6 C 280 52.6 278.7 51.3 278.7 48.8 C 278.72 48.78 278.7 42.9 278.7 42.9 L 277.3 42.9 L 277.3 40.4 L 278.7 40.4 L 278.7 37.4 L 281.8 37.4 L 281.8 40.4 L 284.6 40.4 L 284.6 42.9 L 281.8 42.9 Z M 286 46.4 C 286 45.2 286.2 44.1 286.7 43.1 C 287.2 42.2 287.9 41.5 288.7 40.9 C 289.6 40.4 290.5 40.2 291.5 40.2 C 292.5 40.2 293.3 40.4 293.9 40.7 C 294.6 41.1 295.2 41.6 295.6 42.1 C 295.57 42.11 295.6 40.4 295.6 40.4 L 298.7 40.4 L 298.7 52.6 L 295.6 52.6 C 295.6 52.6 295.57 50.78 295.6 50.8 C 295.2 51.4 294.6 51.8 293.9 52.2 C 293.2 52.6 292.4 52.8 291.5 52.8 C 290.5 52.8 289.6 52.5 288.7 52 C 287.9 51.4 287.2 50.7 286.7 49.7 C 286.2 48.8 286 47.7 286 46.4 C 286 46.4 286 46.4 286 46.4 Z M 295.6 46.5 C 295.6 45.7 295.4 45.1 295.1 44.5 C 294.8 44 294.4 43.6 293.9 43.3 C 293.4 43 292.9 42.9 292.3 42.9 C 291.8 42.9 291.2 43 290.8 43.3 C 290.3 43.6 289.9 44 289.6 44.5 C 289.3 45.1 289.1 45.7 289.1 46.4 C 289.1 47.2 289.3 47.8 289.6 48.3 C 289.9 48.9 290.3 49.3 290.8 49.6 C 291.3 49.9 291.8 50.1 292.3 50.1 C 292.9 50.1 293.4 49.9 293.9 49.6 C 294.4 49.3 294.8 48.9 295.1 48.4 C 295.4 47.9 295.6 47.2 295.6 46.5 C 295.6 46.5 295.6 46.5 295.6 46.5 Z M 300.9 46.5 C 300.9 45.2 301.2 44.1 301.7 43.2 C 302.2 42.2 302.9 41.5 303.8 41 C 304.7 40.4 305.8 40.2 306.9 40.2 C 308.4 40.2 309.7 40.6 310.7 41.3 C 311.7 42.1 312.3 43.1 312.7 44.5 C 312.7 44.5 309.3 44.5 309.3 44.5 C 309.2 44 308.9 43.5 308.5 43.2 C 308 42.9 307.5 42.8 306.9 42.8 C 306 42.8 305.3 43.1 304.8 43.8 C 304.3 44.4 304 45.3 304 46.5 C 304 47.6 304.3 48.5 304.8 49.2 C 305.3 49.8 306 50.1 306.9 50.1 C 308.1 50.1 309 49.6 309.3 48.4 C 309.3 48.4 312.7 48.4 312.7 48.4 C 312.3 49.8 311.7 50.8 310.7 51.6 C 309.7 52.4 308.4 52.8 306.9 52.8 C 305.8 52.8 304.7 52.5 303.8 52 C 302.9 51.5 302.2 50.7 301.7 49.8 C 301.2 48.8 300.9 47.7 300.9 46.5 C 300.9 46.5 300.9 46.5 300.9 46.5 Z M 322.1 52.6 L 318 47.4 L 318 52.6 L 314.9 52.6 L 314.9 36.3 L 318 36.3 L 318 45.5 L 322.1 40.4 L 326.1 40.4 L 320.7 46.5 L 326.2 52.6 L 322.1 52.6 Z " stroke="none" fill="#ffffff"/>  </g>  <g id="Polygon7065">    <path d="M 186.9 1.5 L 186.9 3 L 178.9 3 L 178.9 23.3 L 177.2 23.3 L 177.2 3 L 169.3 3 L 169.3 1.5 L 186.9 1.5 Z M 191.5 1.5 L 191.5 23.3 L 189.8 23.3 L 189.8 1.5 L 191.5 1.5 Z M 208 1.5 L 208 3 L 198.1 3 L 198.1 11.6 L 207.7 11.6 L 207.7 13.1 L 198.1 13.1 L 198.1 21.8 L 208.2 21.8 L 208.2 23.3 L 196.5 23.3 L 196.5 1.5 L 208 1.5 Z M 211.9 1.5 C 211.9 1.5 217.43 1.5 217.4 1.5 C 221.8 1.5 224.1 3.7 224.1 7.2 C 224.1 10 222.4 11.9 219.5 12.5 C 221 13.2 221.7 13.8 223.1 16.1 C 223.12 16.06 227.8 23.3 227.8 23.3 L 225.7 23.3 C 225.7 23.3 221.56 16.64 221.6 16.6 C 219.7 13.7 218.4 13 216.2 13 C 216.24 13.02 213.6 13 213.6 13 L 213.6 23.3 L 211.9 23.3 L 211.9 1.5 Z M 216.1 11.5 C 219.8 11.5 222.4 10.6 222.4 7.2 C 222.4 4 220.1 3 217 3 C 217.01 3.01 213.6 3 213.6 3 L 213.6 11.5 C 213.6 11.5 216.12 11.49 216.1 11.5 Z M 250.1 7.5 C 250.1 12.1 247 15.9 241.5 21.7 C 241.49 21.73 251.4 21.7 251.4 21.7 L 251.4 23.3 L 238.2 23.3 C 238.2 23.3 238.2 23.2 238.2 23.2 C 244 17.2 248.4 12.4 248.4 7.7 C 248.4 4.4 246.1 2.8 243.6 2.8 C 241.7 2.8 240.1 3.6 238.5 5.2 C 238.5 5.2 238.5 3.2 238.5 3.2 C 240.1 1.9 241.7 1.2 243.8 1.2 C 247.6 1.2 250.1 3.8 250.1 7.5 Z " stroke="none" fill="#ffffff"/>  </g></svg>