<?xml version="1.0" standalone="no"?><!DOCTYPE svg PUBLIC "-//W3C//DTD SVG 1.1//EN" "http://www.w3.org/Graphics/SVG/1.1/DTD/svg11.dtd"><svg xmlns="http://www.w3.org/2000/svg" version="1.1" width="103px" height="35.6px" viewBox="0 -7 103 35.6" style="top:-7px">  <desc>(Premium)</desc>  <defs/>  <g id="Polygon7592">    <path d="M 5.2 20.6 C 4.1 19.3 3.2 17.7 2.5 15.9 C 1.8 14.1 1.4 12.2 1.4 10.3 C 1.4 8.6 1.7 7 2.2 5.4 C 2.9 3.6 3.8 1.8 5.2 0 C 5.2 0 6.6 0 6.6 0 C 5.7 1.5 5.1 2.6 4.9 3.2 C 4.4 4.2 4.1 5.2 3.8 6.3 C 3.5 7.6 3.4 9 3.4 10.3 C 3.4 13.8 4.4 17.2 6.6 20.6 C 6.6 20.6 5.2 20.6 5.2 20.6 Z M 9.1 16 L 9.1 0.3 C 9.1 0.3 15.01 0.27 15 0.3 C 16.1 0.3 16.9 0.3 17.4 0.4 C 18.2 0.5 18.8 0.8 19.4 1.2 C 19.9 1.5 20.3 2 20.6 2.7 C 20.9 3.3 21.1 4 21.1 4.8 C 21.1 6.2 20.7 7.3 19.8 8.2 C 19 9.2 17.4 9.6 15.2 9.6 C 15.2 9.61 11.2 9.6 11.2 9.6 L 11.2 16 L 9.1 16 Z M 11.2 7.8 C 11.2 7.8 15.23 7.76 15.2 7.8 C 16.6 7.8 17.5 7.5 18.1 7 C 18.7 6.5 18.9 5.8 18.9 4.9 C 18.9 4.2 18.8 3.7 18.4 3.2 C 18.1 2.7 17.7 2.4 17.1 2.3 C 16.8 2.2 16.1 2.1 15.2 2.1 C 15.19 2.13 11.2 2.1 11.2 2.1 L 11.2 7.8 Z M 23.5 16 L 23.5 4.6 L 25.2 4.6 C 25.2 4.6 25.22 6.34 25.2 6.3 C 25.7 5.5 26.1 5 26.4 4.7 C 26.8 4.5 27.2 4.4 27.7 4.4 C 28.3 4.4 29 4.6 29.7 5 C 29.7 5 29 6.8 29 6.8 C 28.5 6.5 28.1 6.3 27.6 6.3 C 27.2 6.3 26.8 6.5 26.5 6.7 C 26.1 7 25.9 7.3 25.7 7.8 C 25.5 8.5 25.4 9.2 25.4 10 C 25.41 10.04 25.4 16 25.4 16 L 23.5 16 Z M 38.6 12.3 C 38.6 12.3 40.6 12.6 40.6 12.6 C 40.3 13.8 39.7 14.7 38.9 15.3 C 38 16 36.9 16.3 35.6 16.3 C 33.9 16.3 32.6 15.8 31.6 14.7 C 30.7 13.7 30.2 12.3 30.2 10.4 C 30.2 8.5 30.7 7 31.7 5.9 C 32.7 4.9 33.9 4.4 35.5 4.4 C 37 4.4 38.3 4.9 39.2 5.9 C 40.2 6.9 40.7 8.4 40.7 10.3 C 40.7 10.4 40.7 10.6 40.7 10.8 C 40.7 10.8 32.2 10.8 32.2 10.8 C 32.3 12.1 32.6 13 33.2 13.7 C 33.9 14.4 34.7 14.7 35.6 14.7 C 36.3 14.7 36.9 14.5 37.4 14.1 C 37.9 13.8 38.3 13.2 38.6 12.3 Z M 32.3 9.2 C 32.3 9.2 38.7 9.2 38.7 9.2 C 38.6 8.3 38.3 7.5 37.9 7.1 C 37.3 6.3 36.5 5.9 35.5 5.9 C 34.6 5.9 33.9 6.2 33.3 6.8 C 32.7 7.4 32.4 8.2 32.3 9.2 Z M 43.1 16 L 43.1 4.6 L 44.8 4.6 C 44.8 4.6 44.79 6.21 44.8 6.2 C 45.2 5.7 45.6 5.2 46.2 4.9 C 46.8 4.5 47.5 4.4 48.3 4.4 C 49.1 4.4 49.8 4.5 50.3 4.9 C 50.9 5.2 51.3 5.7 51.5 6.3 C 52.4 5 53.6 4.4 55 4.4 C 56.1 4.4 57 4.7 57.6 5.3 C 58.2 5.9 58.5 6.9 58.5 8.2 C 58.52 8.19 58.5 16 58.5 16 L 56.6 16 C 56.6 16 56.6 8.83 56.6 8.8 C 56.6 8.1 56.5 7.5 56.4 7.2 C 56.3 6.8 56.1 6.5 55.7 6.3 C 55.4 6.1 55 6 54.6 6 C 53.8 6 53.1 6.3 52.6 6.8 C 52 7.4 51.8 8.2 51.8 9.4 C 51.77 9.39 51.8 16 51.8 16 L 49.8 16 C 49.8 16 49.84 8.6 49.8 8.6 C 49.8 7.7 49.7 7.1 49.4 6.7 C 49.1 6.2 48.5 6 47.8 6 C 47.3 6 46.8 6.2 46.3 6.5 C 45.9 6.7 45.5 7.2 45.3 7.7 C 45.1 8.3 45 9.1 45 10.1 C 45 10.1 45 16 45 16 L 43.1 16 Z M 61.4 2.5 L 61.4 0.3 L 63.3 0.3 L 63.3 2.5 L 61.4 2.5 Z M 61.4 16 L 61.4 4.6 L 63.3 4.6 L 63.3 16 L 61.4 16 Z M 73.8 16 C 73.8 16 73.75 14.34 73.8 14.3 C 72.9 15.6 71.7 16.3 70.1 16.3 C 69.5 16.3 68.8 16.1 68.2 15.9 C 67.7 15.6 67.2 15.3 66.9 14.9 C 66.7 14.5 66.5 14 66.4 13.5 C 66.3 13.1 66.2 12.5 66.2 11.7 C 66.23 11.68 66.2 4.6 66.2 4.6 L 68.2 4.6 C 68.2 4.6 68.17 10.94 68.2 10.9 C 68.2 11.9 68.2 12.6 68.3 13 C 68.4 13.5 68.7 13.9 69.1 14.2 C 69.5 14.5 69.9 14.6 70.5 14.6 C 71.1 14.6 71.6 14.5 72.2 14.2 C 72.7 13.9 73 13.5 73.2 12.9 C 73.4 12.4 73.5 11.7 73.5 10.7 C 73.55 10.72 73.5 4.6 73.5 4.6 L 75.5 4.6 L 75.5 16 L 73.8 16 Z M 78.5 16 L 78.5 4.6 L 80.2 4.6 C 80.2 4.6 80.24 6.21 80.2 6.2 C 80.6 5.7 81.1 5.2 81.7 4.9 C 82.3 4.5 82.9 4.4 83.7 4.4 C 84.5 4.4 85.2 4.5 85.8 4.9 C 86.3 5.2 86.7 5.7 86.9 6.3 C 87.8 5 89 4.4 90.4 4.4 C 91.6 4.4 92.4 4.7 93.1 5.3 C 93.7 5.9 94 6.9 94 8.2 C 93.97 8.19 94 16 94 16 L 92 16 C 92 16 92.05 8.83 92 8.8 C 92 8.1 92 7.5 91.9 7.2 C 91.7 6.8 91.5 6.5 91.2 6.3 C 90.8 6.1 90.5 6 90 6 C 89.2 6 88.5 6.3 88 6.8 C 87.5 7.4 87.2 8.2 87.2 9.4 C 87.22 9.39 87.2 16 87.2 16 L 85.3 16 C 85.3 16 85.29 8.6 85.3 8.6 C 85.3 7.7 85.1 7.1 84.8 6.7 C 84.5 6.2 84 6 83.3 6 C 82.7 6 82.2 6.2 81.8 6.5 C 81.3 6.7 81 7.2 80.8 7.7 C 80.5 8.3 80.4 9.1 80.4 10.1 C 80.45 10.1 80.4 16 80.4 16 L 78.5 16 Z M 98.1 20.6 C 98.1 20.6 96.7 20.6 96.7 20.6 C 98.9 17.2 99.9 13.8 99.9 10.3 C 99.9 9 99.8 7.6 99.5 6.3 C 99.2 5.2 98.9 4.2 98.4 3.2 C 98.2 2.6 97.6 1.5 96.7 0 C 96.7 0 98.1 0 98.1 0 C 99.5 1.8 100.4 3.6 101.1 5.4 C 101.6 7 101.9 8.6 101.9 10.3 C 101.9 12.2 101.5 14.1 100.8 15.9 C 100.1 17.7 99.2 19.3 98.1 20.6 Z " stroke="none" fill="#000"/>  </g></svg>